# File produced by Open Asset Import Library (http://www.assimp.sf.net)
# (assimp v5.2.3369795085)

mtllib 03.X.mtl

# 22 vertex positions
v  6.53884125 32.390892 3.77517819
v  0 32.390892 7.55035591
v  6.53884125 0.641340017 3.77517819
v  0 0.641340017 7.55035591
v  6.53884125 32.390892 -3.77517772
v  6.53884125 0.641340017 -3.77517772
v  0 32.390892 -7.55035591
v  0 0.641340017 -7.55035591
v  -6.53884125 32.390892 -3.77517772
v  -6.53884125 0.641340017 -3.77517772
v  -6.53884125 32.390892 3.77517819
v  -6.53884125 0.641340017 3.77517819
v  0 32.390892 1.24246696e-07
v  0 2.67649007 1.24246696e-07
v  11.5368261 1.38591194 -11.5368261
v  -11.5368261 1.38591194 -11.5368261
v  11.5368261 1.38591194 11.5368261
v  -11.5368261 1.38591194 11.5368261
v  11.5368261 0.119876862 11.5368261
v  -11.5368261 0.119876862 11.5368261
v  11.5368261 0.119876862 -11.5368261
v  -11.5368261 0.119876862 -11.5368261

# 32 UV coordinates
vt 0.166669995 0.991720021 0
vt 0 0.991720021 0
vt 0.166669995 0.12707001 0
vt 0 0.12707001 0
vt 0.333330005 0.991720021 0
vt 0.333330005 0.12707001 0
vt 0.5 0.991720021 0
vt 0.5 0.12707001 0
vt 0.666670024 0.991720021 0
vt 0.666670024 0.12707001 0
vt 0.833329976 0.991720021 0
vt 0.833329976 0.12707001 0
vt 1 0.991720021 0
vt 1 0.12707001 0
vt 0.995239973 0.0470299721 0
vt 0.942380011 0.046299994 0
vt 0.968869984 0.00502002239 0
vt 0.974539995 0.0919299722 0
vt 0.916610003 0.0919299722 0
vt 0.888790011 0.0470299721 0
vt 0.910939991 0.00502002239 0
vt 0.124519996 1.52609003 0
vt 0.124519996 1.65555 0
vt 0.23522 1.59082007 0
vt 0.23522 1.72027993 0
vt 0.124519996 1.78500998 0
vt 0.01382 1.72027993 0
vt 0.01382 1.59082007 0
vt 0.511129975 0.103160024 0
vt 0 0.103160024 0
vt 0.511129975 0.00358998775 0
vt 0 0.00358998775 0

# 22 vertex normals
vn 0.693105578 0.616093993 0.400165945
vn 7.24364702e-09 0.616094649 0.800329506
vn 0.637854457 -0.691101491 0.368266761
vn 5.95979266e-09 -0.691102564 0.736530542
vn 0.693105519 0.616094053 -0.400165945
vn 0.637854517 -0.691101432 -0.368266761
vn 1.2227849e-08 0.616094649 -0.800329506
vn -1.42570142e-08 -0.691102564 -0.736530542
vn -0.693105578 0.616093993 -0.400165945
vn -0.637854457 -0.691101491 -0.368266761
vn -0.693105519 0.616094053 0.400165945
vn -0.637854517 -0.691101432 0.368266761
vn 0 1.00999999 0
vn -1.64585096e-10 -1.00999999 -2.90446356e-09
vn 0.583123744 0.583123803 -0.583123744
vn -0.583123744 0.583123744 -0.583123744
vn 0.583123744 0.583123744 0.583123744
vn -0.583123744 0.583123803 0.583123744
vn 0.583123744 -0.583123803 0.583123744
vn -0.583123744 -0.583123744 0.583123744
vn 0.583123744 -0.583123744 -0.583123744
vn -0.583123744 -0.583123803 -0.583123744

# Mesh '' with 36 faces
usemtl mat1
f  1/1/1 2/2/2 3/3/3
f  4/4/4 3/3/3 2/2/2
f  5/5/5 1/1/1 6/6/6
f  3/3/3 6/6/6 1/1/1
f  7/7/7 5/5/5 8/8/8
f  6/6/6 8/8/8 5/5/5
f  9/9/9 7/7/7 10/10/10
f  8/8/8 10/10/10 7/7/7
f  11/11/11 9/9/9 12/12/12
f  10/10/10 12/12/12 9/9/9
f  2/13/2 11/11/11 4/14/4
f  12/12/12 4/14/4 11/11/11
f  1/15/1 13/16/13 2/17/2
f  5/18/5 13/16/13 1/15/1
f  7/19/7 13/16/13 5/18/5
f  9/20/9 13/16/13 7/19/7
f  11/21/11 13/16/13 9/20/9
f  2/17/2 13/16/13 11/21/11
f  4/22/4 14/23/14 3/24/3
f  3/24/3 14/23/14 6/25/6
f  6/25/6 14/23/14 8/26/8
f  8/26/8 14/23/14 10/27/10
f  10/27/10 14/23/14 12/28/12
f  12/28/12 14/23/14 4/22/4
f  15/29/15 16/30/16 17/31/17
f  18/32/18 17/31/17 16/30/16
f  17/29/17 18/30/18 19/31/19
f  20/32/20 19/31/19 18/30/18
f  19/29/19 20/30/20 21/31/21
f  22/32/22 21/31/21 20/30/20
f  21/29/21 22/30/22 15/31/15
f  16/32/16 15/31/15 22/30/22
f  21/29/21 15/30/15 19/31/19
f  17/32/17 19/31/19 15/30/15
f  16/29/16 22/30/22 18/31/18
f  20/32/20 18/31/18 22/30/22

