# File produced by Open Asset Import Library (http://www.assimp.sf.net)
# (assimp v5.2.3369795085)

mtllib 04.X.mtl

# 89 vertex positions
v  6.48981667 115.11879 5.7992959
v  -5.00083065 115.374199 -5.53037262
v  -4.62106419 114.403976 10.5748549
v  11.0921669 114.168961 -5.36694002
v  6.48981762 112.110855 -16.3828926
v  -4.62106323 110.150085 -20.795639
v  -15.731945 109.435272 -16.0200787
v  -20.3342953 110.385101 -4.85384321
v  -15.731945 112.443207 6.1621089
v  16.9907379 108.707825 16.244175
v  -3.5395627 107.386986 25.0680828
v  25.4945946 106.952736 -4.38840628
v  16.9907379 103.149857 -24.7433014
v  -3.53956127 99.5268478 -32.8968163
v  -24.0698624 98.2060089 -24.0729084
v  -32.573719 99.9610977 -3.44032979
v  -24.0698624 103.763977 16.9145679
v  24.9031296 97.1173401 24.2139912
v  -1.92098308 95.3915863 35.743042
v  36.0140114 94.8242111 -2.74375606
v  24.9031296 89.8554993 -29.3386898
v  -1.92098093 85.1218109 -39.9918289
v  -28.7450943 83.3960571 -28.46278
v  -39.8559761 85.6891861 -1.50503314
v  -28.7450943 90.6578979 25.089901
v  29.0224209 82.1118622 28.4954376
v  -0.0117370021 80.243927 40.9744072
v  41.0487633 79.6298065 -0.683367133
v  29.0224209 74.2517166 -29.4694633
v  -0.0117347464 69.128006 -41.0003548
v  -29.0458927 67.2600784 -28.5213871
v  -41.0722389 69.7421341 0.657415628
v  -29.0458927 75.120224 29.4435139
v  40.7912827 80.5100555 -0.948350906
v  39.628685 80.5069733 0.0712093487
v  8.60502338 12.3498039 8.29429913
v  7.69005346 12.3753395 9.30997944
v  39.6948471 80.2031784 -2.21994805
v  7.64270163 12.0590782 7.02051258
v  6.68216658 12.1182823 8.32569408
v  7.59713697 12.3641548 9.31149578
v  -41.0396576 70.6573029 0.387695968
v  -39.8773499 70.9341507 1.36929786
v  7.64448881 12.0592918 7.02048397
v  -39.943222 70.6144638 -0.919703841
v  -0.268825829 81.0850143 40.4202576
v  -1.27149689 80.808136 39.2760887
v  7.49895906 12.3271904 9.12769604
v  6.49643278 12.0826302 8.23072243
v  1.02297318 81.0921402 39.3046837
v  8.79075718 12.3524666 8.14599705
v  7.49895906 12.0669136 7.20826292
v  6.49643278 12.0700531 8.13797092
v  -0.268823594 70.0083618 -41.2649498
v  -1.27149475 70.0461807 -40.0883598
v  8.79075718 12.3527107 8.14778042
v  1.02297533 70.3123093 -40.1915588
v  12.9165936 16.4635124 11.1991768
v  7.05249214 17.0741348 7.79929256
v  7.26496172 16.2247162 14.5486403
v  12.9165936 15.5801506 4.68479776
v  7.26496172 14.4579926 1.51988161
v  1.61332893 14.2191963 4.86934519
v  1.6133287 15.1025581 11.3837242
v  17.6344414 12.5509491 14.1579485
v  7.84543848 12.1373367 19.9594421
v  17.6344414 11.0209351 2.87481236
v  7.84543943 9.07728577 -2.60703063
v  -1.94356346 8.6636734 3.19446111
v  -1.9435637 10.1936874 14.4775972
v  19.9417496 6.38482666 15.882947
v  8.63838387 5.90721893 22.5818768
v  19.9417496 4.61810303 2.8541882
v  8.63838387 2.37377167 -3.47564197
v  -2.66498041 1.89616394 3.22328687
v  -2.66498089 3.66288757 16.2520466
v  19.2203331 -0.382675171 15.9117727
v  9.43132973 -0.796287537 21.7132645
v  19.2203331 -1.91268921 4.62863684
v  9.43132973 -3.85634613 -0.853206277
v  -0.357672244 -4.2699585 4.94828558
v  -0.357672542 -2.73994446 16.2314224
v  15.6634388 -5.93819427 14.2368889
v  10.0118065 -6.17699432 17.5863533
v  15.6634388 -6.82155609 7.72250986
v  10.0118065 -7.94371796 4.55759382
v  4.36017418 -8.18251801 7.90705729
v  4.36017418 -7.29915619 14.4214363
v  10.2242765 -8.79314423 11.306942

# 101 UV coordinates
vt 0.745209992 0.976819992 0
vt 0.870209992 1.03931999 0
vt 0.745209992 1.10181999 0
vt 0.745209992 0.851819992 0
vt 0.870209992 0.914319992 0
vt 0.745209992 0.726819992 0
vt 0.870209992 0.789319992 0
vt 0.745209992 0.601819992 0
vt 0.870209992 0.664319992 0
vt 0.745209992 0.476819992 0
vt 0.870209992 0.539319992 0
vt 0.745209992 0.351819992 0
vt 0.870209992 0.414319992 0
vt 0.745209992 0.226819992 0
vt 0.870209992 0.289319992 0
vt 0.745209992 0.101819992 0
vt 0.870209992 0.164319992 0
vt 0.620209992 0.976819992 0
vt 0.620209992 1.10181999 0
vt 0.620209992 0.851819992 0
vt 0.620209992 0.726819992 0
vt 0.620209992 0.601819992 0
vt 0.620209992 0.476819992 0
vt 0.620209992 0.351819992 0
vt 0.620209992 0.226819992 0
vt 0.620209992 0.101819992 0
vt 0.495209992 0.976819992 0
vt 0.495209992 1.10181999 0
vt 0.495209992 0.851819992 0
vt 0.495209992 0.726819992 0
vt 0.495209992 0.601819992 0
vt 0.495209992 0.476819992 0
vt 0.495209992 0.351819992 0
vt 0.495209992 0.226819992 0
vt 0.495209992 0.101819992 0
vt 0.370209992 0.976819992 0
vt 0.370209992 1.10181999 0
vt 0.370209992 0.851819992 0
vt 0.370209992 0.726819992 0
vt 0.370209992 0.601819992 0
vt 0.370209992 0.476819992 0
vt 0.370209992 0.351819992 0
vt 0.370209992 0.226819992 0
vt 0.370209992 0.101819992 0
vt 0.495209992 0.916239977 0
vt 0.370209992 0.916239977 0
vt 0.497000009 0.882499993 0
vt 0.372000009 0.882499993 0
vt 0.591840029 0.803499997 0
vt 0.591840029 0.864080012 0
vt 0.466839999 0.803499997 0
vt 0.466839999 0.864080012 0
vt 0.593630016 0.769760013 0
vt 0.468629986 0.769760013 0
vt 0.166669995 0.833330035 0
vt 0.083329998 1 0
vt 0 0.833330035 0
vt 0.333330005 0.833330035 0
vt 0.25 1 0
vt 0.5 0.833330035 0
vt 0.416669995 1 0
vt 0.666670024 0.833330035 0
vt 0.583329976 1 0
vt 0.833329976 0.833330035 0
vt 0.75 1 0
vt 1 0.833330035 0
vt 0.916670024 1 0
vt 0.166669995 0.666669965 0
vt 0 0.666669965 0
vt 0.333330005 0.666669965 0
vt 0.5 0.666669965 0
vt 0.666670024 0.666669965 0
vt 0.833329976 0.666669965 0
vt 1 0.666669965 0
vt 0.166669995 0.5 0
vt 0 0.5 0
vt 0.333330005 0.5 0
vt 0.5 0.5 0
vt 0.666670024 0.5 0
vt 0.833329976 0.5 0
vt 1 0.5 0
vt 0.166669995 0.333329976 0
vt 0 0.333329976 0
vt 0.333330005 0.333329976 0
vt 0.5 0.333329976 0
vt 0.666670024 0.333329976 0
vt 0.833329976 0.333329976 0
vt 1 0.333329976 0
vt 0.166669995 0.166670024 0
vt 0 0.166670024 0
vt 0.333330005 0.166670024 0
vt 0.5 0.166670024 0
vt 0.666670024 0.166670024 0
vt 0.833329976 0.166670024 0
vt 1 0.166670024 0
vt 0.083329998 0 0
vt 0.25 0 0
vt 0.416669995 0 0
vt 0.583329976 0 0
vt 0.75 0 0
vt 0.916670024 0 0

# 96 vertex normals
vn 0.187310264 0.967415035 0.170361146
vn -0.120618507 0.983696103 -0.133390963
vn -0.10932073 0.948330402 0.297856212
vn 0.310179263 0.942056537 -0.127743214
vn 0.187308446 0.887111247 -0.421840072
vn -0.109318107 0.834763885 -0.539646983
vn -0.405949354 0.81568104 -0.412152201
vn -0.52881813 0.84103775 -0.114047572
vn -0.405947506 0.895984828 0.180049032
vn 0.429666877 0.803693593 0.411658704
vn -0.0824852213 0.770743906 0.631783068
vn 0.641807437 0.759910941 -0.103045374
vn 0.429667115 0.665043533 -0.610821784
vn -0.0824854076 0.574662983 -0.814222634
vn -0.594637513 0.541713417 -0.59409833
vn -0.806778073 0.585495949 -0.0793942213
vn -0.594637752 0.680363476 0.428382188
vn 0.608779073 0.527829528 0.592270076
vn -0.0442414656 0.485818267 0.872939408
vn 0.879268885 0.472005576 -0.0640052035
vn 0.608779609 0.351043403 -0.711446166
vn -0.0442422703 0.235804811 -0.97079283
vn -0.697262526 0.193791002 -0.690123081
vn -0.967752576 0.249617487 -0.0338481888
vn -0.697263062 0.370577157 0.613593102
vn 0.664925814 0.367987633 0.649968147
vn -0.0235307924 0.323696762 0.945868194
vn 0.950093865 0.309134573 -0.0419195257
vn 0.664926291 0.18160826 -0.724493742
vn -0.023531463 0.0601164103 -0.997913957
vn -0.711987734 0.0158226639 -0.702013493
vn -0.997156143 0.0746785849 -0.0101262312
vn -0.711988211 0.202202052 0.672448397
vn 0.645628572 -0.20512861 0.735585451
vn 0.646275282 -0.205504209 0.734912336
vn 0.71610111 -0.247199282 0.652756989
vn 0.716743946 -0.247595251 0.651900709
vn 0.735406816 -0.418204993 -0.533180296
vn 0.735929191 -0.418359876 -0.532337308
vn 0.765260518 -0.426701307 -0.481977284
vn 0.765746415 -0.426833034 -0.481088102
vn -0.615170836 -0.41019851 0.673276901
vn -0.614316702 -0.409281194 0.674613774
vn -0.556189656 -0.348565221 0.754423797
vn -0.55526942 -0.347627521 0.755533457
vn -0.658281088 -0.597138405 -0.458357453
vn -0.657991707 -0.597001553 -0.458950907
vn -0.631655931 -0.584047437 -0.509803057
vn -0.631357551 -0.583895504 -0.510346532
vn -0.650661707 -0.374224663 0.660753429
vn -0.649906158 -0.374409109 0.661392212
vn -0.558888733 -0.393036574 0.730181813
vn -0.557951033 -0.393194646 0.730813563
vn 0.632013738 -0.259567022 0.730194211
vn 0.631244719 -0.259921461 0.730733156
vn 0.585045159 -0.280243158 0.761042595
vn 0.584224999 -0.280587465 0.761545539
vn -0.557029605 -0.575553298 -0.598712146
vn -0.558541894 -0.574989736 -0.597844124
vn -0.650223911 -0.535479605 -0.538952947
vn -0.65152061 -0.5348382 -0.538023114
vn 0.584436893 -0.472097933 -0.659967303
vn 0.584980905 -0.471811771 -0.659690022
vn 0.631303966 -0.446082115 -0.634401977
vn 0.631795883 -0.445793748 -0.634114921
vn 0.380128145 0.911294818 0.158253983
vn -0.100050233 0.89100498 0.442831874
vn 0.380128145 0.836242318 -0.395223141
vn -0.100050151 0.740900159 -0.664121151
vn -0.580228686 0.720611811 -0.379543453
vn -0.580228686 0.79566431 0.173933685
vn 0.703806639 0.610426426 0.363366961
vn -0.0563429743 0.57830584 0.813872039
vn 0.703806579 0.491615236 -0.512806475
vn -0.0563412793 0.340682924 -0.938488603
vn -0.816491365 0.308566391 -0.487984031
vn -0.816491187 0.427376539 0.388189554
vn 0.859701812 0.170696884 0.481430322
vn -2.76713124e-08 0.134371966 0.990930915
vn 0.859701633 0.0363256559 -0.509502947
vn 2.61581103e-08 -0.134371966 -0.990930915
vn -0.859701693 -0.170697913 -0.481430173
vn -0.859701753 -0.0363246128 0.509502769
vn 0.816491067 -0.308565944 0.487984776
vn 0.056342952 -0.340682864 0.938488483
vn 0.816491306 -0.427377045 -0.38818869
vn 0.0563413426 -0.578306198 -0.81387192
vn -0.70380646 -0.610426188 -0.363367796
vn -0.703806579 -0.491616011 0.51280582
vn 0.580228686 -0.720611811 0.379543483
vn 0.100050211 -0.740900218 0.664121091
vn 0.580228686 -0.79566431 -0.173933655
vn 0.100050174 -0.89100498 -0.442831874
vn -0.380128145 -0.911294818 -0.158254012
vn -0.380128115 -0.836242318 0.395223141
vn 0.120618515 -0.983696103 0.133390963

# Mesh '' with 132 faces
usemtl mat1
f  1/1/1 2/2/2 3/3/3
f  4/4/4 2/5/2 1/1/1
f  5/6/5 2/7/2 4/4/4
f  6/8/6 2/9/2 5/6/5
f  7/10/7 2/11/2 6/8/6
f  8/12/8 2/13/2 7/10/7
f  9/14/9 2/15/2 8/12/8
f  3/16/3 2/17/2 9/14/9
f  1/1/1 3/3/3 10/18/10
f  11/19/11 10/18/10 3/3/3
f  4/4/4 1/1/1 12/20/12
f  10/18/10 12/20/12 1/1/1
f  5/6/5 4/4/4 13/21/13
f  12/20/12 13/21/13 4/4/4
f  6/8/6 5/6/5 14/22/14
f  13/21/13 14/22/14 5/6/5
f  7/10/7 6/8/6 15/23/15
f  14/22/14 15/23/15 6/8/6
f  8/12/8 7/10/7 16/24/16
f  15/23/15 16/24/16 7/10/7
f  9/14/9 8/12/8 17/25/17
f  16/24/16 17/25/17 8/12/8
f  3/16/3 9/14/9 11/26/11
f  17/25/17 11/26/11 9/14/9
f  10/18/10 11/19/11 18/27/18
f  19/28/19 18/27/18 11/19/11
f  12/20/12 10/18/10 20/29/20
f  18/27/18 20/29/20 10/18/10
f  13/21/13 12/20/12 21/30/21
f  20/29/20 21/30/21 12/20/12
f  14/22/14 13/21/13 22/31/22
f  21/30/21 22/31/22 13/21/13
f  15/23/15 14/22/14 23/32/23
f  22/31/22 23/32/23 14/22/14
f  16/24/16 15/23/15 24/33/24
f  23/32/23 24/33/24 15/23/15
f  17/25/17 16/24/16 25/34/25
f  24/33/24 25/34/25 16/24/16
f  11/26/11 17/25/17 19/35/19
f  25/34/25 19/35/19 17/25/17
f  18/27/18 19/28/19 26/36/26
f  27/37/27 26/36/26 19/28/19
f  20/29/20 18/27/18 28/38/28
f  26/36/26 28/38/28 18/27/18
f  21/30/21 20/29/20 29/39/29
f  28/38/28 29/39/29 20/29/20
f  22/31/22 21/30/21 30/40/30
f  29/39/29 30/40/30 21/30/21
f  23/32/23 22/31/22 31/41/31
f  30/40/30 31/41/31 22/31/22
f  24/33/24 23/32/23 32/42/32
f  31/41/31 32/42/32 23/32/23
f  25/34/25 24/33/24 33/43/33
f  32/42/32 33/43/33 24/33/24
f  19/35/19 25/34/25 27/44/27
f  33/43/33 27/44/27 25/34/25
f  34/45/34 35/27/35 36/46/36
f  37/36/37 36/46/36 35/27/35
f  38/47/38 34/45/39 39/48/40
f  36/46/41 39/48/40 34/45/39
f  40/46/42 41/36/43 42/45/44
f  43/27/45 42/45/44 41/36/43
f  44/48/46 40/46/47 45/47/48
f  42/45/49 45/47/48 40/46/47
f  46/49/50 47/50/51 48/51/52
f  49/52/53 48/51/52 47/50/51
f  50/53/54 46/49/55 51/54/56
f  48/51/57 51/54/56 46/49/55
f  52/51/58 53/52/59 54/49/60
f  55/50/61 54/49/60 53/52/59
f  56/54/62 52/51/63 57/53/64
f  54/49/65 57/53/64 52/51/63
f  58/55/66 59/56/2 60/57/67
f  61/58/68 59/59/2 58/55/66
f  62/60/69 59/61/2 61/58/68
f  63/62/70 59/63/2 62/60/69
f  64/64/71 59/65/2 63/62/70
f  60/66/67 59/67/2 64/64/71
f  58/55/66 60/57/67 65/68/72
f  66/69/73 65/68/72 60/57/67
f  61/58/68 58/55/66 67/70/74
f  65/68/72 67/70/74 58/55/66
f  62/60/69 61/58/68 68/71/75
f  67/70/74 68/71/75 61/58/68
f  63/62/70 62/60/69 69/72/76
f  68/71/75 69/72/76 62/60/69
f  64/64/71 63/62/70 70/73/77
f  69/72/76 70/73/77 63/62/70
f  60/66/67 64/64/71 66/74/73
f  70/73/77 66/74/73 64/64/71
f  65/68/72 66/69/73 71/75/78
f  72/76/79 71/75/78 66/69/73
f  67/70/74 65/68/72 73/77/80
f  71/75/78 73/77/80 65/68/72
f  68/71/75 67/70/74 74/78/81
f  73/77/80 74/78/81 67/70/74
f  69/72/76 68/71/75 75/79/82
f  74/78/81 75/79/82 68/71/75
f  70/73/77 69/72/76 76/80/83
f  75/79/82 76/80/83 69/72/76
f  66/74/73 70/73/77 72/81/79
f  76/80/83 72/81/79 70/73/77
f  71/75/78 72/76/79 77/82/84
f  78/83/85 77/82/84 72/76/79
f  73/77/80 71/75/78 79/84/86
f  77/82/84 79/84/86 71/75/78
f  74/78/81 73/77/80 80/85/87
f  79/84/86 80/85/87 73/77/80
f  75/79/82 74/78/81 81/86/88
f  80/85/87 81/86/88 74/78/81
f  76/80/83 75/79/82 82/87/89
f  81/86/88 82/87/89 75/79/82
f  72/81/79 76/80/83 78/88/85
f  82/87/89 78/88/85 76/80/83
f  77/82/84 78/83/85 83/89/90
f  84/90/91 83/89/90 78/83/85
f  79/84/86 77/82/84 85/91/92
f  83/89/90 85/91/92 77/82/84
f  80/85/87 79/84/86 86/92/93
f  85/91/92 86/92/93 79/84/86
f  81/86/88 80/85/87 87/93/94
f  86/92/93 87/93/94 80/85/87
f  82/87/89 81/86/88 88/94/95
f  87/93/94 88/94/95 81/86/88
f  78/88/85 82/87/89 84/95/91
f  88/94/95 84/95/91 82/87/89
f  83/89/90 84/90/91 89/96/96
f  85/91/92 83/89/90 89/97/96
f  86/92/93 85/91/92 89/98/96
f  87/93/94 86/92/93 89/99/96
f  88/94/95 87/93/94 89/100/96
f  84/95/91 88/94/95 89/101/96

