# File produced by Open Asset Import Library (http://www.assimp.sf.net)
# (assimp v5.2.3369795085)

mtllib 07b.X.mtl

# 142 vertex positions and colors
v  -1351.26416 -33.3997002 -10211.7246 1 0.930247903 0.519790471
v  -3357.88135 -33.3997002 -7683.38818 1 0.930247903 0.519790471
v  2130.31567 -33.3997002 -10116.8271 1 0.930247903 0.519790471
v  1132.41821 -33.3997002 -7125.30957 1 0.930247903 0.519790471
v  -2236.4502 -33.3997002 -4622.39258 1 0.930247903 0.519790471
v  2032.93604 -33.3997002 -4978.11816 1 0.930247903 0.519790471
v  -1556.21484 -33.3997002 -3249.19165 1 0.930247903 0.519790471
v  1912.35547 -33.3997002 -2178.83643 1 0.930247903 0.519790471
v  -3192.30005 -33.3997002 -2510.37158 1 0.930247903 0.519790471
v  -963.377502 -33.3997002 -863.207214 1 0.930247903 0.519790471
v  -3523.09058 -33.3997002 1164.25684 1 0.930247903 0.519790471
v  -963.377502 -33.3997002 467.269287 1 0.930247903 0.519790471
v  -1263.625 -33.3997002 3320.97192 1 0.930247903 0.519790471
v  -3036.45874 -33.3997002 4748.19922 1 0.930247903 0.519790471
v  1987.49219 -33.3997002 3475.5354 1 0.930247903 0.519790471
v  -273.611511 -33.3997002 6109.3208 1 0.930247903 0.519790471
v  -3785.9021 -33.3997002 7756.64551 1 0.930247903 0.519790471
v  -206.929001 -33.3997002 7192.19629 1 0.930247903 0.519790471
v  -1028.35681 -33.3997002 10670.1357 1 0.930247903 0.519790471
v  1903.28052 -33.3997002 10057.7998 1 0.930247903 0.519790471
v  798.125488 -33.3997002 1688.24866 1 0.930247903 0.519790471
v  -2077.80273 -33.3997002 2278.23633 1 0.930247903 0.519790471
v  -1171.81836 -32.7723007 1478.60657 1 0.930247903 0.519790471
v  -1720.19702 -32.7723007 878.064575 1 0.930247903 0.519790471
v  -1235.05701 -32.7723007 1554.53943 1 0.930247903 0.519790471
v  -1812.3114 -32.7723007 953.997803 1 0.930247903 0.519790471
v  -426.848694 -32.7723007 1796.33215 1 0.930247903 0.519790471
v  -1164.68274 -32.7723007 1458.71741 1 0.930247903 0.519790471
v  -487.437408 -32.7723007 1899.19055 1 0.930247903 0.519790471
v  -1233.83972 -32.7723007 1561.57629 1 0.930247903 0.519790471
v  250.711304 -32.7723007 1891.25916 1 0.930247903 0.519790471
v  -452.245911 -32.7723007 1780.86011 1 0.930247903 0.519790471
v  220.821396 -32.7723007 2044.3772 1 0.930247903 0.519790471
v  -482.135498 -32.7723007 1933.97839 1 0.930247903 0.519790471
v  866.864075 -32.7723007 2349.23584 1 0.930247903 0.519790471
v  163.906799 -32.7723007 2238.83691 1 0.930247903 0.519790471
v  836.974121 -32.7723007 2502.354 1 0.930247903 0.519790471
v  134.017303 -32.7723007 2391.95508 1 0.930247903 0.519790471
v  1302.67432 -32.7723007 3424.26416 1 0.930247903 0.519790471
v  1429.09521 -32.7723007 2920.44092 1 0.930247903 0.519790471
v  1165.63 -32.7723007 3382.12378 1 0.930247903 0.519790471
v  1292.05139 -32.7723007 2878.30078 1 0.930247903 0.519790471
v  516.537292 -32.7723007 4057.81201 1 0.930247903 0.519790471
v  1243.37561 -32.7723007 3925.32935 1 0.930247903 0.519790471
v  470.200714 -32.7723007 3926.91479 1 0.930247903 0.519790471
v  1231.78674 -32.7723007 3769.32812 1 0.930247903 0.519790471
v  -337.810394 -32.7723007 4519.71484 1 0.930247903 0.519790471
v  526.830872 -32.7723007 4080.51831 1 0.930247903 0.519790471
v  -398.300201 -32.7723007 4375.45264 1 0.930247903 0.519790471
v  472.247894 -32.7723007 3936.25635 1 0.930247903 0.519790471
v  -1126.59961 -32.7723007 4913.95557 1 0.930247903 0.519790471
v  -340.578094 -32.7723007 4516.77832 1 0.930247903 0.519790471
v  -1220.36731 -32.7723007 4769.69336 1 0.930247903 0.519790471
v  -401.06781 -32.7723007 4372.51611 1 0.930247903 0.519790471
v  -1714.97498 -32.7723007 5491.82324 1 0.930247903 0.519790471
v  -1129.86865 -32.7723007 4905.01807 1 0.930247903 0.519790471
v  -1843.73669 -32.7723007 5390.95752 1 0.930247903 0.519790471
v  -1217.9054 -32.7723007 4775.71094 1 0.930247903 0.519790471
v  -2008.21338 -32.7723007 6292.49219 1 0.930247903 0.519790471
v  -1724.05017 -32.7723007 5483.01367 1 0.930247903 0.519790471
v  -2175.01392 -32.7723007 6246.76904 1 0.930247903 0.519790471
v  -1860.50244 -32.7723007 5379.28174 1 0.930247903 0.519790471
v  -2577.79492 -32.7723007 5250.52539 1 0.930247903 0.519790471
v  -3064.11084 -32.7723007 6453.42676 1 0.930247903 0.519790471
v  -2422.12964 -32.7723007 5367.69092 1 0.930247903 0.519790471
v  -2926.31445 -32.7723007 6527.47168 1 0.930247903 0.519790471
v  320.523895 -32.7723007 3599.03735 1 0.930247903 0.519790471
v  -202.921906 -32.7723007 3881.95654 1 0.930247903 0.519790471
v  368.691895 -32.7723007 3697.04541 1 0.930247903 0.519790471
v  -154.753906 -32.7723007 3979.96484 1 0.930247903 0.519790471
v  -1776.02063 -32.7723007 634.392029 1 0.930247903 0.519790471
v  -1749.41028 -32.7723007 -631.598328 1 0.930247903 0.519790471
v  -1955.63452 -32.7723007 666.593872 1 0.930247903 0.519790471
v  -1929.0238 -32.7723007 -662.857178 1 0.930247903 0.519790471
v  -1791.93579 -32.7723007 -641.168823 1 0.930247903 0.519790471
v  -1393.14136 -32.7723007 -1384.64624 1 0.930247903 0.519790471
v  -1934.23108 -32.7723007 -666.322205 1 0.930247903 0.519790471
v  -1564.50623 -32.7723007 -1454.55762 1 0.930247903 0.519790471
v  -1416.8103 -32.7723007 -1394.83154 1 0.930247903 0.519790471
v  -807.786987 -32.7723007 -1929.91089 1 0.930247903 0.519790471
v  -1561.54407 -32.7723007 -1460.42517 1 0.930247903 0.519790471
v  -910.816528 -32.7723007 -2057.23999 1 0.930247903 0.519790471
v  -1622.66504 -32.7723007 -2260.27222 1 0.930247903 0.519790471
v  -2113.36719 -32.7723007 -1760.54297 1 0.930247903 0.519790471
v  -1488.11292 -32.7723007 -2184.22729 1 0.930247903 0.519790471
v  -1978.81604 -32.7723007 -1684.49695 1 0.930247903 0.519790471
v  -2629.41772 -32.7723007 -262.8414 1 0.930247903 0.519790471
v  -2943.06909 -32.7723007 508.542297 1 0.930247903 0.519790471
v  -2454.41284 -32.7723007 -186.796799 1 0.930247903 0.519790471
v  -2768.06519 -32.7723007 584.588379 1 0.930247903 0.519790471
v  -820.6521 -32.7723007 -1946.26123 1 0.930247903 0.519790471
v  35.7382011 -32.7723007 -2320.70435 1 0.930247903 0.519790471
v  -949.929871 -32.7723007 -2082.16504 1 0.930247903 0.519790471
v  -77.7959976 -32.7723007 -2474.06421 1 0.930247903 0.519790471
v  455.390594 -32.7723007 -3152.29297 1 0.930247903 0.519790471
v  -807.20929 -32.7723007 -2648.2688 1 0.930247903 0.519790471
v  568.927185 -32.7723007 -2998.93457 1 0.930247903 0.519790471
v  -693.67511 -32.7723007 -2494.90894 1 0.930247903 0.519790471
v  871.652771 -32.7723007 -2679.41064 1 0.930247903 0.519790471
v  1787.09265 -32.7723007 -3103.49927 1 0.930247903 0.519790471
v  758.116211 -32.7723007 -2832.76953 1 0.930247903 0.519790471
v  1673.55847 -32.7723007 -3256.85913 1 0.930247903 0.519790471
v  1702.60718 -32.7723007 -3825.80396 1 0.930247903 0.519790471
v  855.806396 -32.7723007 -4522.11719 1 0.930247903 0.519790471
v  1601.53076 -32.7723007 -3663.96191 1 0.930247903 0.519790471
v  754.729492 -32.7723007 -4360.27637 1 0.930247903 0.519790471
v  34.2098999 -32.7723007 -2322.94141 1 0.930247903 0.519790471
v  858.638 -32.7723007 -2697.38477 1 0.930247903 0.519790471
v  -79.3266983 -32.7723007 -2476.30029 1 0.930247903 0.519790471
v  745.103821 -32.7723007 -2850.74463 1 0.930247903 0.519790471
v  -1847.60779 -32.7723007 4418.88965 1 0.930247903 0.519790471
v  -2573.51562 -32.7723007 5261.58301 1 0.930247903 0.519790471
v  -1706.2002 -32.7723007 4556.56592 1 0.930247903 0.519790471
v  -2429.40088 -32.7723007 5356.6748 1 0.930247903 0.519790471
v  -1244.79419 -32.7723007 4048.16309 1 0.930247903 0.519790471
v  -1688.85657 -32.7723007 4592.4541 1 0.930247903 0.519790471
v  -1082.89917 -32.7723007 4152.58252 1 0.930247903 0.519790471
v  -1526.96045 -32.7723007 4696.875 1 0.930247903 0.519790471
v  -690.040588 -32.7723007 2658.04565 1 0.930247903 0.519790471
v  33.1976013 -32.7723007 3346.17896 1 0.930247903 0.519790471
v  -575.231079 -32.7723007 2554.5769 1 0.930247903 0.519790471
v  148.007294 -32.7723007 3242.71069 1 0.930247903 0.519790471
v  -1578.09729 -32.7723007 2177.4231 1 0.930247903 0.519790471
v  -680.675415 -32.7723007 2697.99268 1 0.930247903 0.519790471
v  -1521.5177 -32.7723007 2033.59814 1 0.930247903 0.519790471
v  -624.09552 -32.7723007 2554.16797 1 0.930247903 0.519790471
v  -2887.54541 -32.7723007 1045.76318 1 0.930247903 0.519790471
v  -2251.09155 -32.7723007 1887.69409 1 0.930247903 0.519790471
v  -2748.40234 -32.7723007 915.376587 1 0.930247903 0.519790471
v  -2111.948 -32.7723007 1757.30786 1 0.930247903 0.519790471
v  -2311.46875 -32.7723007 -1373.72034 1 0.930247903 0.519790471
v  -2646.53955 -32.7723007 -856.241028 1 0.930247903 0.519790471
v  -2136.46387 -32.7723007 -1297.67566 1 0.930247903 0.519790471
v  -2471.53564 -32.7723007 -780.194824 1 0.930247903 0.519790471
v  -243.094193 -32.7723007 3792.61377 1 0.930247903 0.519790471
v  -1115.86682 -32.7723007 4133.87012 1 0.930247903 0.519790471
v  -205.434692 -32.7723007 3895.11938 1 0.930247903 0.519790471
v  -1078.20728 -32.7723007 4236.37598 1 0.930247903 0.519790471
v  1347.80286 -32.7723007 2883.30908 1 0.930247903 0.519790471
v  810.163391 -32.7723007 2417.17505 1 0.930247903 0.519790471
v  1241.31396 -32.7723007 2997.32202 1 0.930247903 0.519790471
v  703.675293 -32.7723007 2531.18799 1 0.930247903 0.519790471

# 26 UV coordinates
vt -0.00200000009 10.9409504 0
vt -0.00200000009 9.72227001 0
vt 1 10.9409504 0
vt 1 9.72227001 0
vt -0.00200000009 8.50358009 0
vt 1 8.50358009 0
vt -0.00200000009 7.28489017 0
vt 1 7.28489017 0
vt -0.00200000009 6.06620979 0
vt 1 6.06620979 0
vt -0.00200000009 4.84751987 0
vt 1 4.84751987 0
vt -0.00200000009 3.62882996 0
vt -0.00200000009 2.41015005 0
vt 1 3.62882996 0
vt 1 2.41015005 0
vt -0.00200000009 1.19146001 0
vt 1 1.19146001 0
vt -0.00200000009 -0.0272300243 0
vt 1 -0.0272300243 0
vt 1 4.2177701 0
vt -0.00200000009 4.21805 0
vt 0.0103200004 1 0
vt 0.0103200004 0.00344002247 0
vt 0.16787 1 0
vt 0.16787 0.00344002247 0

# 1 vertex normals
vn 0 1 0

# Mesh '' with 20 faces
usemtl __
f  1/1/1 2/2/1 3/3/1
f  4/4/1 3/3/1 2/2/1
f  2/2/1 5/5/1 4/4/1
f  6/6/1 4/4/1 5/5/1
f  5/5/1 7/7/1 6/6/1
f  8/8/1 6/6/1 7/7/1
f  7/7/1 9/9/1 8/8/1
f  10/10/1 8/8/1 9/9/1
f  9/9/1 11/11/1 10/10/1
f  12/12/1 10/10/1 11/11/1
f  13/13/1 14/14/1 15/15/1
f  16/16/1 15/15/1 14/14/1
f  14/14/1 17/17/1 16/16/1
f  18/18/1 16/16/1 17/17/1
f  17/17/1 19/19/1 18/18/1
f  20/20/1 18/18/1 19/19/1
f  21/21/1 22/22/1 15/15/1
f  13/13/1 15/15/1 22/22/1
f  21/21/1 12/12/1 22/22/1
f  11/11/1 22/22/1 12/12/1

# Mesh '' with 60 faces
usemtl __
f  23/23/1 24/24/1 25/25/1
f  26/26/1 25/25/1 24/24/1
f  27/23/1 28/24/1 29/25/1
f  30/26/1 29/25/1 28/24/1
f  31/23/1 32/24/1 33/25/1
f  34/26/1 33/25/1 32/24/1
f  35/23/1 36/24/1 37/25/1
f  38/26/1 37/25/1 36/24/1
f  39/23/1 40/24/1 41/25/1
f  42/26/1 41/25/1 40/24/1
f  43/23/1 44/24/1 45/25/1
f  46/26/1 45/25/1 44/24/1
f  47/23/1 48/24/1 49/25/1
f  50/26/1 49/25/1 48/24/1
f  51/23/1 52/24/1 53/25/1
f  54/26/1 53/25/1 52/24/1
f  55/23/1 56/24/1 57/25/1
f  58/26/1 57/25/1 56/24/1
f  59/23/1 60/24/1 61/25/1
f  62/26/1 61/25/1 60/24/1
f  63/23/1 64/24/1 65/25/1
f  66/26/1 65/25/1 64/24/1
f  67/23/1 68/24/1 69/25/1
f  70/26/1 69/25/1 68/24/1
f  71/23/1 72/24/1 73/25/1
f  74/26/1 73/25/1 72/24/1
f  75/23/1 76/24/1 77/25/1
f  78/26/1 77/25/1 76/24/1
f  79/23/1 80/24/1 81/25/1
f  82/26/1 81/25/1 80/24/1
f  83/23/1 84/24/1 85/25/1
f  86/26/1 85/25/1 84/24/1
f  87/23/1 88/24/1 89/25/1
f  90/26/1 89/25/1 88/24/1
f  91/23/1 92/24/1 93/25/1
f  94/26/1 93/25/1 92/24/1
f  95/23/1 96/24/1 97/25/1
f  98/26/1 97/25/1 96/24/1
f  99/23/1 100/24/1 101/25/1
f  102/26/1 101/25/1 100/24/1
f  103/23/1 104/24/1 105/25/1
f  106/26/1 105/25/1 104/24/1
f  107/23/1 108/24/1 109/25/1
f  110/26/1 109/25/1 108/24/1
f  111/23/1 112/24/1 113/25/1
f  114/26/1 113/25/1 112/24/1
f  115/23/1 116/24/1 117/25/1
f  118/26/1 117/25/1 116/24/1
f  119/23/1 120/24/1 121/25/1
f  122/26/1 121/25/1 120/24/1
f  123/23/1 124/24/1 125/25/1
f  126/26/1 125/25/1 124/24/1
f  127/23/1 128/24/1 129/25/1
f  130/26/1 129/25/1 128/24/1
f  131/23/1 132/24/1 133/25/1
f  134/26/1 133/25/1 132/24/1
f  135/23/1 136/24/1 137/25/1
f  138/26/1 137/25/1 136/24/1
f  139/23/1 140/24/1 141/25/1
f  142/26/1 141/25/1 140/24/1

