# File produced by Open Asset Import Library (http://www.assimp.sf.net)
# (assimp v5.2.3369795085)

mtllib 31.X.mtl

# 44 vertex positions
v  -20.3504791 1.21790004 -2.50390005
v  -19.8596802 -0.223800004 -0.00669999979
v  -20.3504791 2.65969992 -0.00669999979
v  -20.3504791 -1.66559994 -2.50390005
v  -20.3504791 -3.10739994 -0.00669999979
v  -20.3504791 -1.66559994 2.49049997
v  -20.3504791 1.21790004 2.49049997
v  22.1825218 2.06850004 -0.00669999979
v  23.4507217 -0.223800004 -0.00669999979
v  22.1825218 0.922299981 -1.99199998
v  22.1825218 -1.37 -1.99199998
v  22.1825218 -2.51620007 -0.00669999979
v  22.1825218 -1.37 1.97860003
v  22.1825218 0.922299981 1.97860003
v  19.5929222 1.21790004 -2.50390005
v  19.5929222 2.65969992 -0.00669999979
v  19.5929222 -1.66559994 -2.50390005
v  19.5929222 -3.10739994 -0.00669999979
v  19.5929222 -1.66559994 2.49049997
v  19.5929222 1.21790004 2.49049997
v  -13.2933788 4.12340021 -0.336100012
v  -19.599678 4.12340021 -0.336100012
v  -13.2933788 4.12340021 0.322699994
v  -19.599678 4.12340021 0.322699994
v  -13.2933788 -4.09429979 0.322699994
v  -19.599678 -4.09429979 0.322699994
v  -13.2933788 -4.09429979 -0.336100012
v  -19.599678 -4.09429979 -0.336100012
v  -10.9688797 -0.129099995 0.418099999
v  -19.6444778 -0.129099995 0.418099999
v  -10.9688797 -0.129099995 -0.431499988
v  -19.6444778 -0.129099995 -0.431499988
v  -13.2933788 -0.314799994 -4.11560011
v  -19.599678 -0.314799994 -4.11560011
v  -13.2933788 0.343899995 -4.11560011
v  -19.599678 0.343899995 -4.11560011
v  -13.2933788 0.343899995 4.1020999
v  -19.599678 0.343899995 4.1020999
v  -13.2933788 -0.314799994 4.1020999
v  -19.599678 -0.314799994 4.1020999
v  -10.9688797 0.439300001 0.136999995
v  -19.6444778 0.439300001 0.136999995
v  -10.9688797 -0.4102 0.136999995
v  -19.6444778 -0.4102 0.136999995

# 48 UV coordinates
vt 0.0917500034 0.619320035 0
vt 0.0505000018 0.619320035 0
vt 0.00925000012 0.619320035 0
vt 0.174250007 0.619320035 0
vt 0.133000001 0.619320035 0
vt 0.256760001 0.619320035 0
vt 0.215509996 0.619320035 0
vt 0.339260012 0.619320035 0
vt 0.298009992 0.619320035 0
vt 0.421759993 0.619320035 0
vt 0.380510002 0.619320035 0
vt 0.483839989 0.619320035 0
vt 0.463010013 0.619320035 0
vt 0.250030011 0.935249984 0
vt 0.250030011 0.803830028 0
vt 0.394809991 0.869539976 0
vt 0.394809991 0.738110006 0
vt 0.250030011 0.672399998 0
vt 0.10526 0.738110006 0
vt 0.10526 0.869539976 0
vt 0.432150006 0.886479974 0
vt 0.250030011 0.969139993 0
vt 0.00925000012 0.244539976 0
vt 0.0917500034 0.244539976 0
vt 0.432150006 0.721170008 0
vt 0.174250007 0.244539976 0
vt 0.250030011 0.638509989 0
vt 0.256760001 0.244539976 0
vt 0.0679199994 0.721170008 0
vt 0.339260012 0.244539976 0
vt 0.0679199994 0.886479974 0
vt 0.421759993 0.244539976 0
vt 0.483839989 0.244539976 0
vt 0.496369988 0.60405004 0
vt 0 0.60405004 0
vt 0.496369988 0.503630042 0
vt 0 0.503630042 0
vt 0.496369988 0 0
vt 0.496369988 0.5 0
vt 0 0 0
vt 0 0.5 0
vt 0.513559997 0.60405004 0
vt 0.513559997 0.503630042 0
vt 0.486440003 0.60405004 0
vt 0 0.500149965 0
vt 0.486440003 0.500149965 0
vt 0.499850005 0 0
vt 0.499850005 0.5 0

# 44 vertex normals
vn -0.65831691 0.376366675 -0.651894867
vn -1 -3.47350988e-06 3.58039709e-10
vn -0.658313811 0.752743602 -1.4492338e-08
vn -0.658316135 -0.376366407 -0.651895821
vn -0.658312201 -0.752745032 6.84675605e-09
vn -0.658316135 -0.376366377 0.651895881
vn -0.65831691 0.376366675 0.651894867
vn 0.545172393 0.838323951 -3.15732836e-06
vn 1 1.06764419e-05 -3.53703946e-08
vn 0.545164943 0.41916126 -0.726015866
vn 0.54516989 -0.419158369 -0.726013839
vn 0.545178294 -0.838320136 3.12925204e-06
vn 0.545167923 -0.419161737 0.726013362
vn 0.54516691 0.419157863 0.726016343
vn 0.108204477 0.497062773 -0.860941589
vn 0.108214051 0.994127631 -1.68099245e-06
vn 0.108202368 -0.497061402 -0.860942662
vn 0.108214043 -0.994127631 1.65490269e-06
vn 0.108204462 -0.497062743 0.860941589
vn 0.108202361 0.497061431 0.860942602
vn 0.404575646 0.689980924 -0.600204051
vn -0.575184405 0.585982859 -0.570777535
vn 0.404575706 0.689980924 0.600203991
vn -0.575184524 0.585982859 0.570777416
vn 0.393368036 -0.695111513 0.601732135
vn -0.57502538 -0.586606801 0.570296645
vn 0.393368006 -0.695111513 -0.601732135
vn -0.57502538 -0.58660686 -0.570296645
vn 0.78757602 -0.011951915 0.616101563
vn -0.704370558 -0.000837315805 0.709831953
vn 0.787576139 -0.0119518992 -0.616101444
vn -0.704370677 -0.000837314641 -0.709831834
vn 0.404579312 -0.600203514 -0.689979196
vn -0.575184405 -0.570777595 -0.58598274
vn 0.404579312 0.600203514 -0.689979196
vn -0.575184405 0.570777595 -0.5859828
vn 0.393363923 0.601732671 0.69511342
vn -0.57502538 0.570296407 0.586607039
vn 0.393363893 -0.601732671 0.695113361
vn -0.57502526 -0.570296466 0.586607099
vn 0.78757596 0.616101503 0.0119602475
vn -0.704370558 0.709831953 0.000837899046
vn 0.78757602 -0.616101444 0.0119602848
vn -0.704370558 -0.709831953 0.000837900618

# Mesh '' with 76 faces
usemtl mat2
f  1/1/1 2/2/2 3/3/3
f  4/4/4 2/5/2 1/1/1
f  5/6/5 2/7/2 4/4/4
f  6/8/6 2/9/2 5/6/5
f  7/10/7 2/11/2 6/8/6
f  3/12/3 2/13/2 7/10/7
f  8/14/8 9/15/9 10/16/10
f  10/16/10 9/15/9 11/17/11
f  11/17/11 9/15/9 12/18/12
f  12/18/12 9/15/9 13/19/13
f  13/19/13 9/15/9 14/20/14
f  14/20/14 9/15/9 8/14/8
f  10/16/10 15/21/15 8/14/8
f  16/22/16 8/14/8 15/21/15
f  16/23/16 15/24/15 3/3/3
f  1/1/1 3/3/3 15/24/15
f  11/17/11 17/25/17 10/16/10
f  15/21/15 10/16/10 17/25/17
f  15/24/15 17/26/17 1/1/1
f  4/4/4 1/1/1 17/26/17
f  12/18/12 18/27/18 11/17/11
f  17/25/17 11/17/11 18/27/18
f  17/26/17 18/28/18 4/4/4
f  5/6/5 4/4/4 18/28/18
f  13/19/13 19/29/19 12/18/12
f  18/27/18 12/18/12 19/29/19
f  18/28/18 19/30/19 5/6/5
f  6/8/6 5/6/5 19/30/19
f  14/20/14 20/31/20 13/19/13
f  19/29/19 13/19/13 20/31/20
f  19/30/19 20/32/20 6/8/6
f  7/10/7 6/8/6 20/32/20
f  8/14/8 16/22/16 14/20/14
f  20/31/20 14/20/14 16/22/16
f  20/32/20 16/33/16 7/10/7
f  3/12/3 7/10/7 16/33/16
f  21/34/21 22/35/22 23/36/23
f  24/37/24 23/36/23 22/35/22
f  25/34/25 26/35/26 27/36/27
f  28/37/28 27/36/27 26/35/26
f  25/38/25 29/39/29 26/40/26
f  30/41/30 26/40/26 29/39/29
f  30/41/30 29/39/29 24/40/24
f  23/38/23 24/40/24 29/39/29
f  21/38/21 31/39/31 22/40/22
f  32/41/32 22/40/22 31/39/31
f  32/41/32 31/39/31 28/40/28
f  27/38/27 28/40/28 31/39/31
f  27/35/27 31/42/31 25/37/25
f  29/43/29 25/37/25 31/42/31
f  29/43/29 31/42/31 23/37/23
f  21/35/21 23/37/23 31/42/31
f  22/35/22 32/44/32 24/45/24
f  30/46/30 24/45/24 32/44/32
f  30/46/30 32/44/32 26/45/26
f  28/35/28 26/45/26 32/44/32
f  33/34/33 34/35/34 35/36/35
f  36/37/36 35/36/35 34/35/34
f  37/34/37 38/35/38 39/36/39
f  40/37/40 39/36/39 38/35/38
f  37/47/37 41/48/41 38/40/38
f  42/41/42 38/40/38 41/48/41
f  42/41/42 41/48/41 36/40/36
f  35/47/35 36/40/36 41/48/41
f  33/47/33 43/48/43 34/40/34
f  44/41/44 34/40/34 43/48/43
f  44/41/44 43/48/43 40/40/40
f  39/47/39 40/40/40 43/48/43
f  39/35/39 43/42/43 37/37/37
f  41/43/41 37/37/37 43/42/43
f  41/43/41 43/42/43 35/37/35
f  33/35/33 35/37/35 43/42/43
f  34/35/34 44/44/44 36/45/36
f  42/46/42 36/45/36 44/44/44
f  42/46/42 44/44/44 38/45/38
f  40/35/40 38/45/38 44/44/44

