# File produced by Open Asset Import Library (http://www.assimp.sf.net)
# (assimp v5.2.3369795085)

mtllib 03.X.mtl

# 66 vertex positions
v  0 1.57473993 53.6366005
v  -1.09660006 0.9416399 53.6366005
v  1.09660006 0.9416399 53.6366005
v  1.09660006 -0.324660063 53.6366005
v  0 -0.957760096 53.6366005
v  -1.09660006 -0.324660063 53.6366005
v  9.39220047 -0.0458600521 -52.2369995
v  2.45810008 -0.0458600521 -48.5122986
v  9.49470043 2.12203979 -52.168499
v  2.56060004 2.12203979 -48.4438019
v  0.309100002 1.1140399 -44.2299995
v  1.78190005 0.30843997 -43.3083
v  5.38530016 0.797039986 -43.4197006
v  0.309100002 -0.497060061 -44.2299995
v  0.930199981 0.845540047 -41.9443016
v  -0.46509999 1.1140399 -41.9443016
v  0.930199981 -0.228560209 -41.9443016
v  0 -0.765660048 -41.9443016
v  -0.930199981 -0.228560209 -41.9443016
v  12.3249998 0.859839916 -44.3356018
v  15.0657997 1.38384008 -47.8707008
v  13.4526997 1.32383966 -52.1273994
v  1.42279994 1.22943974 54.1295013
v  -1.49170005 1.22943974 54.1295013
v  -0.0344000012 2.07073975 54.1295013
v  1.42279994 -0.453160048 54.1295013
v  -0.0344000012 -1.29456019 54.1295013
v  -1.49170005 -0.453160048 54.1295013
v  2.33809996 3.42613983 -49.0522003
v  2.1487999 -0.879360199 -49.1213989
v  9.35029984 3.42563963 -52.7238007
v  9.24409962 -0.57776022 -52.7677002
v  5.38730001 0.760339737 -42.9277
v  2.09689999 0.338039875 -42.8810005
v  -0.0595000014 1.56453991 -44.7643013
v  -0.0595000014 -1.41106009 -44.7643013
v  -0.652499974 1.45863962 -41.4999008
v  1.20159996 1.10173988 -41.4999008
v  1.20159996 -0.325560093 -41.4999008
v  -0.0344000012 -1.03916025 -41.4999008
v  -1.27049994 -0.325560093 -41.4999008
v  15.5163002 1.34164 -47.7015991
v  12.5100002 0.802839756 -43.7322006
v  13.6948004 1.35203981 -52.5411987
v  1.58889997 1.27573967 54.7522011
v  -1.93379998 1.27573967 54.7522011
v  -0.172499999 2.29263973 54.7522011
v  1.58889997 -0.758060217 54.7522011
v  -0.172499999 -1.77496016 54.7522011
v  -1.93379998 -0.758060217 54.7522011
v  1.91120005 3.93043995 -49.6077003
v  1.68239999 -1.27356005 -49.6876984
v  9.2524004 3.93084002 -53.2739983
v  9.02369976 -0.908560038 -53.3540001
v  5.5710001 0.84333992 -42.6114006
v  2.32649994 0.372439861 -42.6778984
v  -0.419999987 1.68073988 -45.0998001
v  -0.419999987 -1.91576016 -45.0998001
v  -0.919499993 1.55273962 -41.4406013
v  1.32159996 1.12143993 -41.4406013
v  1.32159996 -0.603760242 -41.4406013
v  -0.172499999 -1.46626019 -41.4406013
v  -1.66649997 -0.603760242 -41.4406013
v  16.1145992 1.41133976 -47.6955986
v  12.6505003 0.760139942 -43.3583984
v  14.1743002 1.4239397 -52.9289017

# 3 UV coordinates
vt 0.254970014 1.02726996 0
vt 0.311890006 1.44471002 0
vt 0.352270007 1.57391 0

# 66 vertex normals
vn 1.93099581e-07 0.792993069 0.609230697
vn -0.688060343 0.395842403 0.608179092
vn 0.68674463 0.396498859 0.609237611
vn 0.686744273 -0.396499276 0.609237731
vn -5.42845783e-07 -0.792985141 0.609240949
vn -0.68805021 -0.395836771 0.608194232
vn -0.0823025182 -0.696561575 -0.712760985
vn -0.528119445 -0.65914464 -0.53536737
vn -0.0730458647 0.797850966 -0.59841305
vn -0.528524041 0.744462132 -0.40796876
vn -0.587580264 0.786735535 -0.189199984
vn 0.714209676 0.0394418351 0.698819578
vn 0.19858408 -0.00395869417 0.980075836
vn -0.528547645 -0.793109715 -0.302678674
vn 0.702924728 0.698164284 0.135880351
vn -0.554180443 0.818808258 -0.149790242
vn 0.805564165 -0.58302176 0.105603047
vn -0.0201554615 -0.997967124 -0.0604601502
vn -0.928290606 -0.307202518 -0.209530935
vn 0.545791328 -0.03132746 0.837335289
vn 0.986002207 0.0564589798 0.156882122
vn 0.813742757 0.0888110548 -0.574399948
vn -0.686910391 -0.396591514 -0.608990431
vn 0.688653409 -0.395730078 -0.607580602
vn -1.21119056e-05 -0.793187976 -0.608976841
vn -0.686918259 0.396572143 -0.608994126
vn -1.21264311e-05 0.793180227 -0.608986974
vn 0.688643396 0.395700961 -0.607610881
vn 0.503623843 -0.785344839 0.359995157
vn 0.499573261 0.690384209 0.523255408
vn -0.0615894273 -0.872342765 0.484999865
vn 0.0255592912 0.710219026 0.703516603
vn -0.21508497 0.00815649051 -0.976561248
vn -0.675303996 -0.0539514795 -0.735563576
vn 0.691631556 -0.716843605 0.0882102102
vn 0.536598027 0.825300932 0.17590031
vn 0.55317986 -0.826867998 0.101397
vn -0.707924068 -0.697394192 -0.11173597
vn -0.802465439 0.591616333 -0.0777133182
vn -0.0193426926 0.999061465 -0.0387557521
vn 0.949257493 0.28352198 0.136108264
vn -0.977563322 -0.00488125067 -0.210585326
vn -0.58486706 0.00135135744 -0.81112808
vn -0.831296504 -0.0612635389 0.55244261
vn -0.687042773 -0.396673352 -0.608787715
vn 0.689145863 -0.395616084 -0.607096255
vn 9.6837548e-06 -0.793350875 -0.608764589
vn -0.68704313 0.396672964 -0.608787596
vn 9.33362207e-06 0.793331504 -0.608789861
vn 0.689120471 0.395601749 -0.607134402
vn 0.508981407 -0.784189224 0.354943931
vn 0.503037512 0.690004766 0.520429313
vn -0.0844764113 -0.876833379 0.473314822
vn 0.0095951343 0.70739913 0.706749141
vn -0.185283288 -0.0133830309 -0.982594013
vn -0.614012182 -0.0980400518 -0.783183992
vn 0.734738886 -0.676584959 0.0489036776
vn 0.525464892 0.834533274 0.165652618
vn 0.551266134 -0.829545856 0.0892149583
vn -0.691823006 -0.711886406 -0.12082497
vn -0.788706958 0.61476922 0.000351242197
vn -0.0393400826 0.998692095 -0.0326564237
vn 0.952071249 0.280030996 0.123056807
vn -0.977010727 -0.00273815403 -0.213172525
vn -0.572925866 0.0161291696 -0.819448471
vn -0.839473248 -0.0576929934 0.540329695

# Mesh 'obj1' with 120 faces
g obj1
usemtl mat1
f  1/1/1 2/1/2 3/1/3
f  3/1/3 2/1/2 4/1/4
f  4/1/4 2/1/2 5/1/5
f  5/1/5 2/1/2 6/1/6
f  7/1/7 8/1/8 9/1/9
f  10/1/10 9/1/9 8/1/8
f  11/1/11 12/1/12 10/1/10
f  13/1/13 10/1/10 12/1/12
f  14/1/14 11/1/11 8/1/8
f  10/1/10 8/1/8 11/1/11
f  3/1/3 15/1/15 1/1/1
f  16/1/16 1/1/1 15/1/15
f  16/1/16 15/1/15 11/1/11
f  12/1/12 11/1/11 15/1/15
f  4/1/4 17/1/17 3/1/3
f  15/1/15 3/1/3 17/1/17
f  5/1/5 18/1/18 4/1/4
f  17/1/17 4/1/4 18/1/18
f  17/1/17 18/1/18 12/1/12
f  14/1/14 12/1/12 18/1/18
f  6/1/6 19/1/19 5/1/5
f  18/1/18 5/1/5 19/1/19
f  2/1/2 16/1/16 6/1/6
f  19/1/19 6/1/6 16/1/16
f  19/1/19 16/1/16 14/1/14
f  11/1/11 14/1/14 16/1/16
f  20/1/20 21/1/21 13/1/13
f  13/1/13 21/1/21 10/1/10
f  10/1/10 22/1/22 9/1/9
f  21/1/21 22/1/22 10/1/10
f  9/1/9 22/1/22 7/1/7
f  7/1/7 22/1/22 20/1/20
f  21/1/21 20/1/20 22/1/22
f  14/1/14 8/1/8 13/1/13
f  7/1/7 20/1/20 8/1/8
f  13/1/13 8/1/8 20/1/20
f  14/1/14 13/1/13 12/1/12
f  1/1/1 16/1/16 2/1/2
f  17/1/17 12/1/12 15/1/15
f  19/1/19 14/1/14 18/1/18
f  23/2/23 24/2/24 25/2/25
f  26/2/26 24/2/24 23/2/23
f  27/2/27 24/2/24 26/2/26
f  28/2/28 24/2/24 27/2/27
f  29/2/29 30/2/30 31/2/31
f  32/2/32 31/2/31 30/2/30
f  33/2/33 34/2/34 29/2/29
f  35/2/35 29/2/29 34/2/34
f  29/2/29 35/2/35 30/2/30
f  36/2/36 30/2/30 35/2/35
f  37/2/37 38/2/38 25/2/25
f  23/2/23 25/2/25 38/2/38
f  34/2/34 38/2/38 35/2/35
f  37/2/37 35/2/35 38/2/38
f  38/2/38 39/2/39 23/2/23
f  26/2/26 23/2/23 39/2/39
f  39/2/39 40/2/40 26/2/26
f  27/2/27 26/2/26 40/2/40
f  36/2/36 40/2/40 34/2/34
f  39/2/39 34/2/34 40/2/40
f  40/2/40 41/2/41 27/2/27
f  28/2/28 27/2/27 41/2/41
f  41/2/41 37/2/37 28/2/28
f  24/2/24 28/2/28 37/2/37
f  35/2/35 37/2/37 36/2/36
f  41/2/41 36/2/36 37/2/37
f  33/2/33 42/2/42 43/2/43
f  29/2/29 42/2/42 33/2/33
f  31/2/31 44/2/44 29/2/29
f  29/2/29 44/2/44 42/2/42
f  32/2/32 44/2/44 31/2/31
f  42/2/42 44/2/44 43/2/43
f  32/2/32 43/2/43 44/2/44
f  33/2/33 30/2/30 36/2/36
f  33/2/33 43/2/43 30/2/30
f  32/2/32 30/2/30 43/2/43
f  34/2/34 33/2/33 36/2/36
f  24/2/24 37/2/37 25/2/25
f  38/2/38 34/2/34 39/2/39
f  40/2/40 36/2/36 41/2/41
f  45/3/45 46/3/46 47/3/47
f  48/3/48 46/3/46 45/3/45
f  49/3/49 46/3/46 48/3/48
f  50/3/50 46/3/46 49/3/49
f  51/3/51 52/3/52 53/3/53
f  54/3/54 53/3/53 52/3/52
f  55/3/55 56/3/56 51/3/51
f  57/3/57 51/3/51 56/3/56
f  51/3/51 57/3/57 52/3/52
f  58/3/58 52/3/52 57/3/57
f  59/3/59 60/3/60 47/3/47
f  45/3/45 47/3/47 60/3/60
f  56/3/56 60/3/60 57/3/57
f  59/3/59 57/3/57 60/3/60
f  60/3/60 61/3/61 45/3/45
f  48/3/48 45/3/45 61/3/61
f  61/3/61 62/3/62 48/3/48
f  49/3/49 48/3/48 62/3/62
f  58/3/58 62/3/62 56/3/56
f  61/3/61 56/3/56 62/3/62
f  62/3/62 63/3/63 49/3/49
f  50/3/50 49/3/49 63/3/63
f  63/3/63 59/3/59 50/3/50
f  46/3/46 50/3/50 59/3/59
f  57/3/57 59/3/59 58/3/58
f  63/3/63 58/3/58 59/3/59
f  55/3/55 64/3/64 65/3/65
f  51/3/51 64/3/64 55/3/55
f  53/3/53 66/3/66 51/3/51
f  51/3/51 66/3/66 64/3/64
f  54/3/54 66/3/66 53/3/53
f  64/3/64 66/3/66 65/3/65
f  54/3/54 65/3/65 66/3/66
f  55/3/55 52/3/52 58/3/58
f  55/3/55 65/3/65 52/3/52
f  54/3/54 52/3/52 65/3/65
f  56/3/56 55/3/55 58/3/58
f  46/3/46 59/3/59 47/3/47
f  60/3/60 56/3/56 61/3/61
f  62/3/62 58/3/58 63/3/63

