# File produced by Open Asset Import Library (http://www.assimp.sf.net)
# (assimp v5.2.3369795085)

mtllib 01.X.mtl

# 37 vertex positions
v  90.8295441 27.9450169 -15.1583357
v  96.0708847 25.7686138 28.5953426
v  92.6199493 21.2631264 -15.1583357
v  -11.3207207 -6.58768749 -19.7705727
v  -13.7742548 -3.66429591 6.60677862
v  -13.1111269 0.0942023844 -19.7705727
v  21.9484081 9.48837376 -15.5811119
v  23.7388153 2.80648398 -15.5811119
v  21.0534229 5.66775036 14.7200327
v  57.0667801 18.8983097 -14.3420343
v  58.8571854 12.2164221 -14.3420343
v  56.1138306 15.0621557 16.9400597
v  89.3126831 23.9577618 16.574276
v  -9.68591595 -7.27227688 -6.18173742
v  -9.68591595 -7.27227688 -19.0598145
v  -12.1337938 1.86332905 -6.18173742
v  -12.1337938 1.86332905 -19.0598145
v  -92.6835022 -29.5114079 -28.8551273
v  -94.9898224 -30.1293869 -12.1768913
v  -95.1313858 -20.375803 -28.8551273
v  -97.437706 -20.9937801 -12.1768913
v  -35.2052612 -14.1101627 -19.3318157
v  -37.6531372 -4.97455692 -19.3318157
v  -38.2295723 -5.12901306 -4.6893568
v  -35.7816963 -14.2646189 -4.6893568
v  -69.0740433 -13.3937607 -22.9039993
v  -66.6261597 -22.5293674 -22.9039993
v  -71.0917206 -13.9343948 -7.67381668
v  -68.643837 -23.0700016 -7.67381668
v  119.773155 32.0490685 -123.965851
v  -119.760735 -32.1338387 -123.965851
v  119.773155 32.0490685 124.017868
v  -119.760735 -32.1338387 124.017868
v  171.075394 39.02285 0.0260104109
v  1.69933951 -6.36123943 175.376984
v  1.69940054 -6.36143017 -175.324951
v  -167.676651 -51.7455215 0.0260104109

# 51 UV coordinates
vt 0.95776999 0.959580004 0
vt 0.973129988 0.582669973 0
vt 0.99119997 0.959630013 0
vt 0.921999991 0.994040012 0
vt 0.96043998 0.579020023 0
vt 0.992370009 0.992959976 0
vt 0.275700003 0.918470025 0
vt 0.275700003 0.966639996 0
vt 0.00505999988 0.918470025 0
vt 0.00505999988 0.966639996 0
vt 0.30599001 0.589810014 0
vt 0.319319993 0.969299972 0
vt 0.00668000011 0.583979964 0
vt 0.00527000008 0.974080026 0
vt 0.707989991 0.918470025 0
vt 0.707989991 0.966639996 0
vt 0.78591001 0.586589992 0
vt 0.785080016 0.972570002 0
vt 0.979260027 0.918470025 0
vt 0.979260027 0.966639996 0
vt 0.921320021 0.58908999 0
vt 0.994700015 0.97112 0
vt 0.997099996 0.585049987 0
vt 1.00146997 0.412230015 0
vt 0.977760017 0.408829987 0
vt 0.999629974 0.340430021 0
vt 0.977320015 0.342890024 0
vt 0.0027999999 0.514500022 0
vt 0.0027999999 0.320460021 0
vt 0.0665099993 0.514500022 0
vt 0.0665099993 0.320460021 0
vt 0.99891001 0.560180008 0
vt 0.687950015 0.560180008 0
vt 0.99891001 0.350419998 0
vt 0.687950015 0.350419998 0
vt 0.99879998 0.369189978 0
vt 0.687950015 0.369189978 0
vt 0.99879998 0.0968899727 0
vt 0.687950015 0.0947899818 0
vt 0.0684700012 0.350419998 0
vt 0.29497999 0.350419998 0
vt 0.0680600032 0.560180008 0
vt 0.29497999 0.560180008 0
vt 0.0684700012 0.0962100029 0
vt 0.29497999 0.0951399803 0
vt 0.0680600032 0.369189978 0
vt 0.29497999 0.369189978 0
vt 1 1 0
vt 0 1 0
vt 1 0 0
vt 0 0 0

# 31 vertex normals
vn 1.07306802 2.20955634 -1.74921203
vn 0.706214309 0.189229652 2.9255445
vn 2.03435421 -1.3761965 -1.74952662
vn -1.04846287 -2.18776178 -1.79102826
vn -1.85585952 -0.48643294 2.32648349
vn -1.99987483 1.37963188 -1.78618991
vn -0.457566798 2.24014926 -1.96614385
vn 0.729646087 -2.16288304 -1.97051036
vn -0.350273222 -0.0881911889 2.99380827
vn -0.578166544 2.192734 -1.98771179
vn 0.596311688 -2.18671441 -1.9889822
vn -0.0608203188 -0.0145243956 3.01487112
vn -2.02974772 -0.543492079 2.16289091
vn 2.17591619 -1.2286253 1.68796504
vn 2.14055681 -1.23056293 -1.73121047
vn 1.27008593 2.15197849 1.68796527
vn 1.23849511 2.13597679 -1.73121083
vn -0.910976768 -2.03453994 -2.03079438
vn -1.4648279 -2.19847012 1.45408618
vn -1.80619895 1.30647516 -2.03079438
vn -2.36781311 1.17151713 1.45408607
vn 0.681874096 -2.06013846 -2.09385633
vn -0.43954885 2.12506986 -2.09385586
vn -0.573627055 2.00480533 2.17831707
vn 0.505626798 -2.02302575 2.17831707
vn -0.232687414 2.1836381 -2.06662464
vn 0.890305698 -2.00743008 -2.06662464
vn -0.806251764 1.96505177 2.1405344
vn 0.284291178 -2.10491061 2.1405344
vn -0.926160276 3.4564774 0
vn 0.926160514 -3.45647717 2.1493081e-06

# Mesh '' with 50 faces
usemtl PDX__
f  1/1/1 2/2/2 3/3/3
f  4/4/4 5/5/5 6/6/6
f  7/7/7 8/8/8 6/9/6
f  4/10/4 6/9/6 8/8/8
f  9/11/9 7/12/7 5/13/5
f  6/14/6 5/13/5 7/12/7
f  8/12/8 9/11/9 4/14/4
f  5/13/5 4/14/4 9/11/9
f  10/15/10 11/16/11 7/7/7
f  8/8/8 7/7/7 11/16/11
f  12/17/12 10/18/10 9/11/9
f  7/12/7 9/11/9 10/18/10
f  11/18/11 12/17/12 8/12/8
f  9/11/9 8/12/8 12/17/12
f  1/19/1 3/20/3 10/15/10
f  11/16/11 10/15/10 3/20/3
f  13/21/13 1/22/1 12/17/12
f  10/18/10 12/17/12 1/22/1
f  3/22/3 13/21/13 11/18/11
f  12/17/12 11/18/11 13/21/13
f  1/22/1 13/21/13 2/23/2
f  2/23/2 13/21/13 3/22/3
f  14/24/14 15/25/15 16/26/16
f  17/27/17 16/26/16 15/25/15
f  18/28/18 19/29/19 20/30/20
f  21/31/21 20/30/20 19/29/19
f  15/32/15 22/33/22 17/34/17
f  23/35/23 17/34/17 22/33/22
f  17/36/17 23/37/23 16/38/16
f  24/39/24 16/38/16 23/37/23
f  16/32/16 24/33/24 14/34/14
f  25/35/25 14/34/14 24/33/24
f  14/36/14 25/37/25 15/38/15
f  22/39/22 15/38/15 25/37/25
f  20/40/20 26/41/26 18/42/18
f  27/43/27 18/42/18 26/41/26
f  27/43/27 26/41/26 22/33/22
f  23/35/23 22/33/22 26/41/26
f  21/44/21 28/45/28 20/46/20
f  26/47/26 20/46/20 28/45/28
f  26/47/26 28/45/28 23/37/23
f  24/39/24 23/37/23 28/45/28
f  19/40/19 29/41/29 21/42/21
f  28/43/28 21/42/21 29/41/29
f  28/43/28 29/41/29 24/33/24
f  25/35/25 24/33/24 29/41/29
f  18/44/18 27/45/27 19/46/19
f  29/47/29 19/46/19 27/45/27
f  29/47/29 27/45/27 25/37/25
f  22/39/22 25/37/25 27/45/27

# Mesh '' with 2 faces
usemtl mat1
f  30/48/30 31/49/30 32/50/30
f  33/51/30 32/50/30 31/49/30

# Mesh '' with 2 faces
usemtl mat1
f  34/48/31 35/49/31 36/50/31
f  37/51/31 36/50/31 35/49/31

