# File produced by Open Asset Import Library (http://www.assimp.sf.net)
# (assimp v5.2.3369795085)

mtllib 08.X.mtl

# 120 vertex positions
v  10.5376997 109.423531 -40.5480347
v  5.2105999 111.73423 -44.0711365
v  5.00449991 111.877533 -39.1816368
v  7.76189995 110.120934 -46.0662346
v  3.68950009 109.465332 -35.2677345
v  9.64470005 106.827034 -35.8042336
v  -0.804700017 106.051735 -46.5718346
v  -1.02219999 105.79583 -43.379734
v  -1.21029997 109.643036 -45.1878357
v  -1.63429999 106.91613 -38.6779366
v  -1.7177 110.088531 -37.4361343
v  0.421299994 103.349731 -45.2107353
v  1.82679999 105.704231 -47.7483368
v  6.51949978 104.938232 -35.0195351
v  -0.443399996 111.82933 -41.4537354
v  4.21229982 109.923233 -47.0973358
v  8.68470001 103.236336 -36.4558334
v  4.12830019 102.520134 -37.6481361
v  6.51840019 101.782433 -38.0961342
v  2.46589994 105.431831 -36.4361343
v  7.34870005 103.978134 -45.3439331
v  4.70240021 106.207436 -46.2379341
v  9.86030006 106.32003 -45.6405334
v  2.69420004 103.35923 -45.6875343
v  10.1438999 104.76873 -40.886734
v  0.924199998 103.266731 -41.4462357
v  2.69729996 102.799835 -41.4824333
v  1.16470003 105.159935 -40.4093361
v  3.21539998 104.18853 -40.8350334
v  6.3769002 102.199829 -42.1861343
v  4.25010014 103.261131 -41.8888359
v  -2.21160007 107.101532 -42.3964348
v  -14.5634003 112.567833 -41.5066338
v  -12.6489 110.037834 -37.4601364
v  -14.7461004 109.833435 -44.6033363
v  -14.5516005 106.316635 -41.1500359
v  -34.7901993 112.848633 -41.0480347
v  -35.2182999 110.185631 -37.5564346
v  -34.7019005 109.837631 -44.5287361
v  -34.4782982 106.534233 -41.1137352
v  88.3548965 107.495506 -18.683403
v  84.2583008 114.945198 -15.2805424
v  84.1414948 109.394745 -11.7091875
v  85.8284683 115.397362 -19.8773651
v  80.8236465 104.001022 -10.4971714
v  85.3606033 100.867783 -17.3708229
v  73.220047 117.053093 -18.3729515
v  72.781929 113.268585 -16.3200951
v  75.5494232 117.577118 -13.7332287
v  72.9722748 108.63382 -11.668869
v  75.3335495 108.967964 -7.74147511
v  72.48452 113.497597 -20.8609161
v  75.8577042 117.217407 -21.2609005
v  80.4482269 100.116905 -16.5553589
v  78.0872192 114.127747 -9.63833046
v  81.7551727 117.864708 -18.3842583
v  81.5234375 100.016945 -20.6016254
v  75.9371872 102.775497 -19.0388355
v  78.0064621 101.967026 -21.647213
v  76.3529053 103.611031 -14.3233643
v  80.6215515 111.321487 -24.989233
v  79.4228516 114.619728 -21.6872711
v  85.2066345 111.989914 -24.6313019
v  75.0022049 113.18071 -22.6955242
v  84.3201599 105.47274 -23.1002769
v  72.975769 108.861633 -18.7392807
v  74.5730133 107.960457 -20.3977928
v  74.7055054 108.603378 -16.3904972
v  76.2191925 107.771057 -18.9800606
v  78.1729813 107.027985 -23.9104767
v  76.6447678 108.089302 -21.2705154
v  72.4780502 113.301384 -13.6117182
v  63.063324 120.057213 0.489153862
v  63.2212372 113.194832 -0.485049248
v  60.7468834 122.233734 -4.09155846
v  58.2419739 116.184158 -5.25757599
v  40.9407349 127.498016 14.6136675
v  38.408474 122.115952 14.7071066
v  38.7096901 129.865387 9.32801723
v  36.4019585 123.967117 8.32080555
v  78.5656586 67.8889999 13.0650463
v  70.4554138 74.2930984 13.4297867
v  70.1416397 67.9554749 17.3407326
v  74.3396454 75.6955109 9.78396225
v  68.1396179 60.958847 17.1396542
v  77.2061081 59.6578712 13.2527103
v  61.2974205 73.2645569 4.03392792
v  60.9662895 68.8610458 6.12643528
v  60.6799164 74.1735687 9.82252121
v  60.0343971 63.5146141 11.1826553
v  59.9074249 64.2922363 16.3106918
v  63.1639442 69.413147 1.50749874
v  65.3037491 74.5512238 2.6801753
v  72.4481506 57.1854591 11.3596983
v  61.8474846 70.9144974 15.5476036
v  68.9355545 76.9045029 8.73840046
v  75.7445602 57.7836609 8.02242947
v  68.8076706 58.8104973 6.17052603
v  72.4464722 58.8396225 4.85685444
v  66.2767487 59.4289551 10.9321499
v  73.7105637 70.0671234 2.23463631
v  69.6817093 72.9428406 4.49338865
v  77.5343475 72.2408981 5.0966053
v  66.624321 70.0490265 1.15707111
v  77.9661179 64.7922211 6.66995716
v  63.9295845 64.3865509 4.26369524
v  66.6290436 64.0788574 3.62054062
v  64.2957382 64.4605637 7.54915571
v  67.4178238 64.2823868 5.94433117
v  72.2310486 64.549942 2.29377842
v  68.993103 64.9658432 3.91939402
v  59.1554871 68.5585098 8.59648705
v  40.3504868 71.5464096 16.4810333
v  43.2652206 64.2852859 16.2255745
v  40.0723343 73.5478592 10.5184956
v  40.368454 66.3176727 8.51040268
v  9.55619812 71.1555099 17.2003593
v  8.90443802 64.524765 16.3471413
v  9.69062805 73.4526978 10.580821
v  10.0310516 66.4354553 8.82493591

# 77 UV coordinates
vt 0.930339992 0.838719964 0
vt 0.948469996 0.826359987 0
vt 0.909770012 0.822919965 0
vt 0.953050017 0.840240002 0
vt 0.886879981 0.821060002 0
vt 0.887049973 0.832800031 0
vt 0.942470014 0.795849979 0
vt 0.929120004 0.793529987 0
vt 0.941900015 0.791360021 0
vt 0.890940011 0.79509002 0
vt 0.889100015 0.806620002 0
vt 0.894850016 0.793560028 0
vt 0.932780027 0.802330017 0
vt 0.957180023 0.809750021 0
vt 0.908990026 0.837149978 0
vt 0.885609984 0.834560037 0
vt 0.957050025 0.814859986 0
vt 0.933669984 0.791119993 0
vt 0.95520997 0.83683002 0
vt 0.88845998 0.856670022 0
vt 0.884739995 0.839850008 0
vt 0.888890028 0.84837997 0
vt 0.892660022 0.821749985 0
vt 0.893280029 0.830630004 0
vt 0.893559992 0.820600033 0
vt 0.923340023 0.831759989 0
vt 0.924870014 0.824169993 0
vt 0.927579999 0.850560009 0
vt 0.957109988 0.812470019 0
vt 0.911440015 0.794340014 0
vt 0.90704 0.86224997 0
vt 0.916410029 0.850539982 0
vt 0.906780005 0.850520015 0
vt 0.907930017 0.830110013 0
vt 0.914129972 0.808969975 0
vt 0.905470014 0.808430016 0
vt 0.900820017 0.794669986 0
vt 0.928449988 0.826510012 0
vt 0.911559999 0.816740036 0
vt 0.917100012 0.823170006 0
vt 0.902549982 0.808239996 0
vt 0.914049983 0.822300017 0
vt 0.906750023 0.820129991 0
vt 0.907609999 0.820450008 0
vt 0.896149993 0.80783999 0
vt 0.895770013 0.794880033 0
vt 0.89598 0.801890016 0
vt 0.890600026 0.820800006 0
vt 0.887969971 0.810069978 0
vt 0.916050017 0.830980003 0
vt 0.915310025 0.822109997 0
vt 0.137500003 0.593590021 0
vt 0.137500003 0.58901 0
vt 0.194130003 0.593590021 0
vt 0.232030004 0.593590021 0
vt 0.0429899991 0.58901 0
vt 0.0394200012 0.593590021 0
vt 0.28490001 0.55577004 0
vt 0.3477 0.556779981 0
vt 0.32633999 0.593590021 0
vt 0.379310012 0.593590021 0
vt 0.159820005 0.556219995 0
vt 0.258749992 0.593590021 0
vt 0.219129995 0.55577004 0
vt 0.416260004 0.593590021 0
vt 0.394320011 0.55697 0
vt 0.137500003 0.531910002 0
vt 0.137500003 0.555050015 0
vt 0.165810004 0.531910002 0
vt 0.0793000013 0.556460023 0
vt 0.01205 0.00752997398 0
vt 0.479389995 0.00752997398 0
vt 0.0108099999 0.979560018 0
vt 0.473010004 0.979560018 0
vt 0.483260006 0.00752997398 0
vt 0.974780023 0.979560018 0
vt 0.977620006 0.00752997398 0

# 120 vertex normals
vn 0.848775446 0.52024889 0.0944527462
vn 0.130124897 0.954757631 -0.267404795
vn 0.191860139 0.935911596 0.295396596
vn 0.48729226 0.57555145 -0.656724274
vn -0.0912644789 0.436095655 0.895260513
vn 0.711844683 0.169586658 0.681555212
vn -0.759834945 -0.162114888 -0.629578948
vn -0.869917214 -0.492185742 -0.0315798037
vn -0.407589197 0.432945669 -0.804008126
vn -0.320043087 -0.755676806 0.57142365
vn -0.173726648 0.432701796 0.884640157
vn -0.484348685 -0.823806584 -0.294531912
vn -0.0339169577 -0.235421836 -0.971301317
vn -0.00430485653 -0.30429703 0.952567458
vn -0.0844060704 0.994804025 -0.0569261536
vn 0.0100953514 0.478174478 -0.878206849
vn 0.545967281 -0.660133004 0.515891612
vn -0.520796597 -0.785252571 0.334887028
vn 0.116173036 -0.966293812 0.229739204
vn -0.547872424 -0.475045264 0.688598454
vn 0.158521011 -0.720445871 -0.67515099
vn 0.270660967 -0.442169547 -0.855119109
vn 0.736819506 -0.188950345 -0.649149299
vn 0.350840062 -0.833460212 -0.426913708
vn 0.878439069 -0.474565357 -0.0559688434
vn -0.508594751 -0.718737781 0.474075228
vn 0.328038692 -0.862366199 0.385635972
vn -0.486049771 -0.763344049 0.425513148
vn -0.372980982 -0.889367998 0.264404446
vn 0.0445324332 -0.94643271 -0.319815487
vn -0.626434803 -0.701242089 -0.340351135
vn -0.430867463 -0.827074826 -0.36097157
vn -0.333722323 0.942511559 0.0173614826
vn -0.290119886 0.139887422 0.946711123
vn -0.354159176 0.0463793576 -0.934034407
vn -0.367113739 -0.925927877 0.0887977928
vn 0.0140831415 0.999860942 0.0089306375
vn 0.0117919305 0.100528814 0.994864285
vn -0.00895039551 0.0521782152 -0.998597682
vn -0.0108280201 -0.998960733 0.0442743339
vn 1.33977699 -0.151192725 -0.0071721673
vn 0.88208282 0.789169192 0.64579761
vn 0.93569243 0.0977283716 0.96583724
vn 0.983300567 0.896245122 -0.218580604
vn 0.236457646 -0.76924628 1.08178592
vn 0.917356312 -0.977428794 0.144925505
vn -0.96458143 0.939420938 -0.070597887
vn -1.34142447 0.101450749 0.0905596986
vn -0.115347214 1.33550119 0.145067513
vn -0.937880635 -0.960784972 -0.123227447
vn 0.142756626 -0.726833284 1.12660861
vn -1.17203832 0.0762682855 -0.662134409
vn -0.219524175 1.01725936 -0.857266366
vn -0.24008362 -1.27865469 0.353998512
vn 0.676111341 0.648470223 0.969676554
vn 0.380947649 1.28560817 -0.141433954
vn 0.0924846381 -1.17804599 -0.649282098
vn -1.18247795 -0.623296082 -0.176524282
vn -0.618977487 -0.846796751 -0.847180545
vn -0.972482383 -0.854535758 0.376775175
vn -0.382078439 0.329199195 -1.25042272
vn -0.043018166 0.649652123 -1.18068385
vn 0.667664349 0.368732005 -1.11183357
vn -0.2570692 -0.0974333882 -1.31997538
vn 0.603196621 -0.536388874 -1.07997847
vn -1.11756206 -0.753807545 -0.0272417367
vn -0.304607004 -1.05336285 -0.784572244
vn -1.12715828 -0.730453968 -0.117744774
vn -1.09973907 -0.655648887 -0.42262429
vn -0.682742238 -0.166432917 -1.15068495
vn -1.23418164 0.252394974 -0.48063007
vn -1.11549783 0.131362617 -0.745869398
vn 0.360310316 0.62925452 1.13671803
vn -0.212244272 -0.916005969 0.966332436
vn -0.355287939 1.25319374 -0.348121911
vn -1.12153268 -0.473057896 -0.579908252
vn 0.788799822 0.53628093 0.952948332
vn 0.0907679796 -1.11070979 0.758945167
vn 0.0304668304 1.1983 -0.617302001
vn -0.784508467 -0.599167824 -0.918399215
vn 1.29221821 0.271492332 0.757837594
vn 0.198108643 1.07935309 1.05527377
vn 0.292097449 0.322964638 1.45884418
vn 0.741878092 1.30400205 0.258938283
vn -0.138945609 -0.848416328 1.25647807
vn 1.08374786 -0.769523442 0.742413402
vn -1.15681064 0.70668149 -0.692996383
vn -1.32440543 -0.333026707 -0.672976434
vn -0.620534182 1.38963771 -0.0412006974
vn -0.487249583 -1.32865071 -0.561362982
vn -0.264490128 -0.836997151 1.24391878
vn -0.737396657 -0.238767594 -1.3103776
vn -0.051636871 1.10143244 -1.04977775
vn -0.00655392883 -1.4875797 0.323908448
vn -0.128504023 0.832325578 1.26829565
vn 0.0153696677 1.5218966 -0.0380493402
vn 0.831207871 -1.18270254 -0.477662712
vn -0.792886734 -1.03929567 -0.780415654
vn 0.176867634 -1.03847337 -1.0991559
vn -0.834108353 -1.26951957 -0.1021595
vn 0.241340309 0.341751873 -1.46383524
vn 0.412067771 0.790867031 -1.23392963
vn 1.12177086 0.712056756 -0.743275881
vn 0.534136415 -0.0715733767 -1.42387795
vn 1.33737957 -0.287457138 -0.668309867
vn -0.774310052 -1.17217982 -0.58676362
vn 0.499422491 -1.16490793 -0.843457043
vn -0.739986479 -1.14210701 -0.682542801
vn -0.567844868 -1.02562106 -0.971342742
vn 0.0677983984 -0.298777759 -1.49130416
vn -0.953715622 -0.0850567222 -1.18365753
vn -0.65597415 -0.153656065 -1.36526227
vn -0.508075535 0.694572508 1.25589883
vn -0.441693008 -1.14173412 0.905098796
vn -0.539189637 1.26681089 -0.649859965
vn -0.558912277 -0.821917474 -1.15322244
vn 0.0214408785 0.74934411 1.32509506
vn 0.0179526247 -1.23518372 0.88986069
vn -0.0136265298 1.35635054 -0.691361487
vn -0.0164851192 -0.818808556 -1.28340709

# Mesh 'obj04a' with 68 faces
g obj04a
usemtl Material__90_udeSub0
f  1/1/1 2/2/2 3/3/3
f  2/2/2 1/1/1 4/4/4
f  3/3/3 5/5/5 6/6/6
f  7/7/7 8/8/8 9/9/9
f  10/10/10 5/11/5 11/12/11
f  12/13/12 8/8/8 7/7/7
f  7/7/7 9/9/9 13/14/13
f  6/6/6 1/15/1 3/3/3
f  5/5/5 14/16/14 6/6/6
f  2/17/2 9/9/9 15/18/15
f  4/4/4 16/19/16 2/17/2
f  2/2/2 15/18/15 3/3/3
f  6/20/6 14/21/14 17/22/17
f  14/21/14 18/23/18 17/22/17
f  17/22/17 18/23/18 19/24/19
f  14/21/14 20/25/20 18/23/18
f  21/26/21 22/27/22 23/28/23
f  9/9/9 16/29/16 13/14/13
f  2/17/2 16/29/16 9/9/9
f  15/30/15 11/12/11 3/3/3
f  5/11/5 3/3/3 11/12/11
f  4/4/4 1/1/1 23/4/23
f  16/29/16 22/29/22 13/14/13
f  13/14/13 22/29/22 24/14/24
f  1/31/1 25/32/25 23/28/23
f  17/33/17 25/32/25 6/20/6
f  6/20/6 25/32/25 1/31/1
f  19/34/19 25/32/25 17/33/17
f  23/28/23 25/32/25 21/26/21
f  24/13/24 12/13/12 13/7/13
f  13/7/13 12/13/12 7/7/7
f  12/35/12 26/36/26 8/37/8
f  24/38/24 26/36/26 12/35/12
f  24/38/24 27/39/27 26/36/26
f  22/27/22 27/40/27 24/38/24
f  27/39/27 28/41/28 26/36/26
f  22/27/22 29/42/29 27/40/27
f  20/43/20 29/42/29 18/44/18
f  20/45/20 28/41/28 29/42/29
f  29/42/29 28/41/28 27/39/27
f  10/46/10 8/37/8 28/41/28
f  28/41/28 8/37/8 26/36/26
f  10/10/10 28/47/28 20/45/20
f  5/5/5 20/48/20 14/16/14
f  10/10/10 20/49/20 5/11/5
f  18/44/18 30/50/30 19/34/19
f  21/26/21 30/50/30 22/27/22
f  25/32/25 30/50/30 21/26/21
f  19/34/19 30/50/30 25/32/25
f  30/50/30 31/51/31 22/27/22
f  18/44/18 31/51/31 30/50/30
f  29/42/29 31/51/31 18/44/18
f  22/27/22 31/51/31 29/42/29
f  4/4/4 23/4/23 16/19/16
f  16/19/16 23/4/23 22/19/22
f  8/52/8 32/53/32 9/54/9
f  10/55/10 32/56/32 8/57/8
f  33/58/33 34/59/34 15/60/15
f  11/61/11 15/60/15 34/59/34
f  9/54/9 35/62/35 15/63/15
f  33/64/33 15/63/15 35/62/35
f  11/61/11 34/59/34 10/65/10
f  36/66/36 10/65/10 34/59/34
f  34/67/34 35/62/35 36/68/36
f  36/68/36 35/62/35 32/53/32
f  9/54/9 32/53/32 35/62/35
f  35/62/35 34/69/34 33/64/33
f  10/55/10 36/70/36 32/56/32

# Mesh 'obj04a' with 8 faces
g obj04a
usemtl Material__90_mat1Sub1
f  37/71/37 38/72/38 33/73/33
f  34/74/34 33/73/33 38/72/38
f  37/71/37 33/73/33 39/75/39
f  35/74/35 39/75/39 33/73/33
f  35/74/35 36/76/36 39/75/39
f  40/77/40 39/75/39 36/76/36
f  40/77/40 36/76/36 38/72/38
f  34/74/34 38/72/38 36/76/36

# Mesh '' with 68 faces
usemtl Material__90_udeSub0
f  41/1/41 42/2/42 43/3/43
f  42/2/42 41/1/41 44/4/44
f  43/3/43 45/5/45 46/6/46
f  47/7/47 48/8/48 49/9/49
f  50/10/50 45/11/45 51/12/51
f  52/13/52 48/8/48 47/7/47
f  47/7/47 49/9/49 53/14/53
f  46/6/46 41/15/41 43/3/43
f  45/5/45 54/16/54 46/6/46
f  42/17/42 49/9/49 55/18/55
f  44/4/44 56/19/56 42/17/42
f  42/2/42 55/18/55 43/3/43
f  46/20/46 54/21/54 57/22/57
f  54/21/54 58/23/58 57/22/57
f  57/22/57 58/23/58 59/24/59
f  54/21/54 60/25/60 58/23/58
f  61/26/61 62/27/62 63/28/63
f  49/9/49 56/29/56 53/14/53
f  42/17/42 56/29/56 49/9/49
f  55/30/55 51/12/51 43/3/43
f  45/11/45 43/3/43 51/12/51
f  44/4/44 41/1/41 63/4/63
f  56/29/56 62/29/62 53/14/53
f  53/14/53 62/29/62 64/14/64
f  41/31/41 65/32/65 63/28/63
f  57/33/57 65/32/65 46/20/46
f  46/20/46 65/32/65 41/31/41
f  59/34/59 65/32/65 57/33/57
f  63/28/63 65/32/65 61/26/61
f  64/13/64 52/13/52 53/7/53
f  53/7/53 52/13/52 47/7/47
f  52/35/52 66/36/66 48/37/48
f  64/38/64 66/36/66 52/35/52
f  64/38/64 67/39/67 66/36/66
f  62/27/62 67/40/67 64/38/64
f  67/39/67 68/41/68 66/36/66
f  62/27/62 69/42/69 67/40/67
f  60/43/60 69/42/69 58/44/58
f  60/45/60 68/41/68 69/42/69
f  69/42/69 68/41/68 67/39/67
f  50/46/50 48/37/48 68/41/68
f  68/41/68 48/37/48 66/36/66
f  50/10/50 68/47/68 60/45/60
f  45/5/45 60/48/60 54/16/54
f  50/10/50 60/49/60 45/11/45
f  58/44/58 70/50/70 59/34/59
f  61/26/61 70/50/70 62/27/62
f  65/32/65 70/50/70 61/26/61
f  59/34/59 70/50/70 65/32/65
f  70/50/70 71/51/71 62/27/62
f  58/44/58 71/51/71 70/50/70
f  69/42/69 71/51/71 58/44/58
f  62/27/62 71/51/71 69/42/69
f  44/4/44 63/4/63 56/19/56
f  56/19/56 63/4/63 62/19/62
f  48/52/48 72/53/72 49/54/49
f  50/55/50 72/56/72 48/57/48
f  73/58/73 74/59/74 55/60/55
f  51/61/51 55/60/55 74/59/74
f  49/54/49 75/62/75 55/63/55
f  73/64/73 55/63/55 75/62/75
f  51/61/51 74/59/74 50/65/50
f  76/66/76 50/65/50 74/59/74
f  74/67/74 75/62/75 76/68/76
f  76/68/76 75/62/75 72/53/72
f  49/54/49 72/53/72 75/62/75
f  75/62/75 74/69/74 73/64/73
f  50/55/50 76/70/76 72/56/72

# Mesh '' with 8 faces
usemtl Material__90_mat1Sub1
f  77/71/77 78/72/78 73/73/73
f  74/74/74 73/73/73 78/72/78
f  77/71/77 73/73/73 79/75/79
f  75/74/75 79/75/79 73/73/73
f  75/74/75 76/76/76 79/75/79
f  80/77/80 79/75/79 76/76/76
f  80/77/80 76/76/76 78/72/78
f  74/74/74 78/72/78 76/76/76

# Mesh '' with 68 faces
usemtl Material__90_udeSub0
f  81/1/81 82/2/82 83/3/83
f  82/2/82 81/1/81 84/4/84
f  83/3/83 85/5/85 86/6/86
f  87/7/87 88/8/88 89/9/89
f  90/10/90 85/11/85 91/12/91
f  92/13/92 88/8/88 87/7/87
f  87/7/87 89/9/89 93/14/93
f  86/6/86 81/15/81 83/3/83
f  85/5/85 94/16/94 86/6/86
f  82/17/82 89/9/89 95/18/95
f  84/4/84 96/19/96 82/17/82
f  82/2/82 95/18/95 83/3/83
f  86/20/86 94/21/94 97/22/97
f  94/21/94 98/23/98 97/22/97
f  97/22/97 98/23/98 99/24/99
f  94/21/94 100/25/100 98/23/98
f  101/26/101 102/27/102 103/28/103
f  89/9/89 96/29/96 93/14/93
f  82/17/82 96/29/96 89/9/89
f  95/30/95 91/12/91 83/3/83
f  85/11/85 83/3/83 91/12/91
f  84/4/84 81/1/81 103/4/103
f  96/29/96 102/29/102 93/14/93
f  93/14/93 102/29/102 104/14/104
f  81/31/81 105/32/105 103/28/103
f  97/33/97 105/32/105 86/20/86
f  86/20/86 105/32/105 81/31/81
f  99/34/99 105/32/105 97/33/97
f  103/28/103 105/32/105 101/26/101
f  104/13/104 92/13/92 93/7/93
f  93/7/93 92/13/92 87/7/87
f  92/35/92 106/36/106 88/37/88
f  104/38/104 106/36/106 92/35/92
f  104/38/104 107/39/107 106/36/106
f  102/27/102 107/40/107 104/38/104
f  107/39/107 108/41/108 106/36/106
f  102/27/102 109/42/109 107/40/107
f  100/43/100 109/42/109 98/44/98
f  100/45/100 108/41/108 109/42/109
f  109/42/109 108/41/108 107/39/107
f  90/46/90 88/37/88 108/41/108
f  108/41/108 88/37/88 106/36/106
f  90/10/90 108/47/108 100/45/100
f  85/5/85 100/48/100 94/16/94
f  90/10/90 100/49/100 85/11/85
f  98/44/98 110/50/110 99/34/99
f  101/26/101 110/50/110 102/27/102
f  105/32/105 110/50/110 101/26/101
f  99/34/99 110/50/110 105/32/105
f  110/50/110 111/51/111 102/27/102
f  98/44/98 111/51/111 110/50/110
f  109/42/109 111/51/111 98/44/98
f  102/27/102 111/51/111 109/42/109
f  84/4/84 103/4/103 96/19/96
f  96/19/96 103/4/103 102/19/102
f  88/52/88 112/53/112 89/54/89
f  90/55/90 112/56/112 88/57/88
f  113/58/113 114/59/114 95/60/95
f  91/61/91 95/60/95 114/59/114
f  89/54/89 115/62/115 95/63/95
f  113/64/113 95/63/95 115/62/115
f  91/61/91 114/59/114 90/65/90
f  116/66/116 90/65/90 114/59/114
f  114/67/114 115/62/115 116/68/116
f  116/68/116 115/62/115 112/53/112
f  89/54/89 112/53/112 115/62/115
f  115/62/115 114/69/114 113/64/113
f  90/55/90 116/70/116 112/56/112

# Mesh '' with 8 faces
usemtl Material__90_mat1Sub1
f  117/71/117 118/72/118 113/73/113
f  114/74/114 113/73/113 118/72/118
f  117/71/117 113/73/113 119/75/119
f  115/74/115 119/75/119 113/73/113
f  115/74/115 116/76/116 119/75/119
f  120/77/120 119/75/119 116/76/116
f  120/77/120 116/76/116 118/72/118
f  114/74/114 118/72/118 116/76/116

