# File produced by Open Asset Import Library (http://www.assimp.sf.net)
# (assimp v5.2.3369795085)

mtllib 14.X.mtl

# 32 vertex positions
v  -0.0579622798 -50.7824249 50.7824249
v  -0.0579622798 -50.7824249 -50.7824249
v  -0.0579622798 50.7824249 50.7824249
v  -0.0579622798 50.7824249 -50.7824249
v  4.60606241 0.684432983 6.01523876
v  4.60606241 0.684432983 -6.01523876
v  4.60606241 50.5786133 6.01523876
v  4.60606241 50.5786133 -6.01523876
v  5.67554569 -12.8903151 10.2084942
v  5.6755929 -5.90649128 15.345583
v  5.67554569 -34.195446 39.1726151
v  5.6755929 -27.2116222 44.3097076
v  9.09893703 13.36654 -8.54024506
v  9.09893703 7.16499805 -14.1514301
v  9.09893703 36.6378899 -34.2599945
v  9.09893703 30.4363499 -39.8711777
v  4.60606241 5.53920984 -22.0408478
v  4.60606241 -6.49126005 -22.0270348
v  4.60606241 5.48191881 -71.9349976
v  4.60606241 -6.54855108 -71.9211884
v  4.60606241 -6.82197809 -0.69303894
v  4.60606241 5.20843267 -0.732883453
v  4.60606241 -6.65672541 49.2008667
v  4.60606241 5.37368536 49.161026
v  4.60606241 1.15754318 -12.8077126
v  4.60606241 -9.80130386 8.84045792
v  4.60606241 -43.3577728 -35.3424721
v  4.60606241 -54.3166199 -13.6942997
v  9.09893703 3.01475048 16.0116711
v  9.09893703 15.7914286 -4.01162195
v  9.09893703 24.3305054 29.6130562
v  9.09893703 37.1071854 9.58976364

# 16 UV coordinates
vt 1 1 0
vt 0 1 0
vt 1 0 0
vt 0 0 0
vt 0.142719999 0.885060012 0
vt 0.0215499997 0.885060012 0
vt 0.142719999 0.0766299963 0
vt 0.0215499997 0.0766299963 0
vt 0.940129995 0.885060012 0
vt 0.797410011 0.885060012 0
vt 0.940129995 0.0766299963 0
vt 0.797410011 0.0766299963 0
vt 0.667150021 0.885060012 0
vt 0.577109993 0.885060012 0
vt 0.667150021 0.0766299963 0
vt 0.577109993 0.0766299963 0

# 5 vertex normals
vn 0.739314795 0 0
vn 0.656836033 0 0
vn 0.473344743 -2.08463894e-06 -1.53339738e-06
vn 0.473344743 -2.08463916e-06 -1.53339749e-06
vn 0.456615776 0 0

# Mesh 'obj2' with 2 faces
g obj2
usemtl hitc
f  1/1/1 2/2/1 3/3/1
f  4/4/1 3/3/1 2/2/1

# Mesh '' with 2 faces
usemtl mat1
f  5/5/2 6/6/2 7/7/2
f  8/8/2 7/7/2 6/6/2

# Mesh '' with 2 faces
usemtl mat1
f  9/9/3 10/10/4 11/11/4
f  12/12/3 11/11/4 10/10/4

# Mesh '' with 2 faces
usemtl mat1
f  13/13/5 14/14/5 15/15/5
f  16/16/5 15/15/5 14/14/5

# Mesh '' with 2 faces
usemtl mat1
f  17/5/2 18/6/2 19/7/2
f  20/8/2 19/7/2 18/6/2

# Mesh '' with 2 faces
usemtl mat1
f  21/5/2 22/6/2 23/7/2
f  24/8/2 23/7/2 22/6/2

# Mesh '' with 2 faces
usemtl mat1
f  25/5/2 26/6/2 27/7/2
f  28/8/2 27/7/2 26/6/2

# Mesh '' with 2 faces
usemtl mat1
f  29/13/5 30/14/5 31/15/5
f  32/16/5 31/15/5 30/14/5

