# File produced by Open Asset Import Library (http://www.assimp.sf.net)
# (assimp v5.2.3369795085)

mtllib 15.X.mtl

# 36 vertex positions
v  59.9625359 -18.6771297 18.6123676
v  60.1833992 -18.6564808 -18.4684887
v  59.9626274 18.6564579 18.591711
v  60.1834908 18.6771069 -18.4891453
v  39.0432549 -18.6771297 -21.4491196
v  39.2641182 -18.6564808 -58.5299759
v  39.0433464 18.6564579 -21.4697762
v  39.2642097 18.6771069 -58.5506325
v  -2.68231726 -18.6771297 -21.4491196
v  -2.46145248 -18.6564808 -58.5299759
v  -2.68222475 18.6564579 -21.4697762
v  -2.46135974 18.6771069 -58.5506325
v  -39.6330795 -18.6771297 -6.44318199
v  -39.4122162 -18.6564808 -43.5240402
v  -39.632988 18.6564579 -6.46383858
v  -39.4121246 18.6771069 -43.544693
v  -63.8486404 -18.6771297 20.5964928
v  -63.6277771 -18.6564808 -16.4843636
v  -63.8485489 18.6564579 20.5758362
v  -63.6276855 18.6771069 -16.5050201
v  -50.8295898 -18.6771297 63.0390129
v  -50.6087265 -18.6564808 25.9581566
v  -50.8294983 18.6564579 63.0183563
v  -50.6086349 18.6771069 25.9375
v  -30.1005001 -18.6771297 81.2385101
v  -29.8796349 -18.6564808 44.1576576
v  -30.1004066 18.6564579 81.2178574
v  -29.8795414 18.6771069 44.137001
v  15.7185268 -18.6771297 81.2385101
v  15.9393921 -18.6564808 44.1576576
v  15.7186203 18.6564579 81.2178574
v  15.9394846 18.6771069 44.137001
v  46.5544662 -18.6771297 65.5865021
v  46.7753296 -18.6564808 28.5056496
v  46.5545578 18.6564579 65.5658493
v  46.7754211 18.6771069 28.484993

# 4 UV coordinates
vt 1 1 0
vt 0 1 0
vt 1 0 0
vt 0 0 0

# 1 vertex normals
vn 0.48869133 -2.20981136e-07 0.00290322118

# Mesh '' with 2 faces
usemtl _a__
f  1/1/1 2/2/1 3/3/1
f  4/4/1 3/3/1 2/2/1

# Mesh '' with 2 faces
usemtl _a__
f  5/1/1 6/2/1 7/3/1
f  8/4/1 7/3/1 6/2/1

# Mesh '' with 2 faces
usemtl _a__
f  9/1/1 10/2/1 11/3/1
f  12/4/1 11/3/1 10/2/1

# Mesh '' with 2 faces
usemtl _a__
f  13/1/1 14/2/1 15/3/1
f  16/4/1 15/3/1 14/2/1

# Mesh '' with 2 faces
usemtl _a__
f  17/1/1 18/2/1 19/3/1
f  20/4/1 19/3/1 18/2/1

# Mesh '' with 2 faces
usemtl _a__
f  21/1/1 22/2/1 23/3/1
f  24/4/1 23/3/1 22/2/1

# Mesh '' with 2 faces
usemtl _a__
f  25/1/1 26/2/1 27/3/1
f  28/4/1 27/3/1 26/2/1

# Mesh '' with 2 faces
usemtl _a__
f  29/1/1 30/2/1 31/3/1
f  32/4/1 31/3/1 30/2/1

# Mesh '' with 2 faces
usemtl _a__
f  33/1/1 34/2/1 35/3/1
f  36/4/1 35/3/1 34/2/1

