# File produced by Open Asset Import Library (http://www.assimp.sf.net)
# (assimp v5.2.3369795085)

mtllib 17.X.mtl

# 12 vertex positions
v  32.0976105 45.7981033 48.8494759
v  29.9615803 15.3240318 7.91651917
v  -87.5710449 101.453308 -3.36505914
v  -89.707077 70.9792328 -44.2980156
v  52.8732986 52.0547905 0.450500488
v  39.3678513 70.2368698 -50.4390259
v  -101.210732 107.959961 61.3165779
v  -114.716179 126.142044 10.4270515
v  90.4747543 115.925095 -75.8145599
v  81.000412 44.6283798 -42.9676704
v  -18.4071674 124.567635 -88.4615784
v  -27.8815098 53.2709198 -55.6146851

# 8 UV coordinates
vt 0.542620003 1 0
vt 0 1 0
vt 0.542620003 0 0
vt 0 0 0
vt 0.913789988 1 0
vt 0.53640002 1 0
vt 0.913789988 0 0
vt 0.53640002 0 0

# 3 vertex normals
vn 0.17470324 1.00811005 -0.653541565
vn 0.217091084 0.47593233 0.112430371
vn 0.104967289 -0.628001511 -1.33284903

# Mesh '' with 2 faces
usemtl mat1
f  1/1/1 2/2/1 3/3/1
f  4/4/1 3/3/1 2/2/1

# Mesh '' with 2 faces
usemtl mat1
f  5/5/2 6/6/2 7/7/2
f  8/8/2 7/7/2 6/6/2

# Mesh '' with 2 faces
usemtl mat1
f  9/1/3 10/2/3 11/3/3
f  12/4/3 11/3/3 10/2/3

