# File produced by Open Asset Import Library (http://www.assimp.sf.net)
# (assimp v5.2.3369795085)

mtllib 18.X.mtl

# 28 vertex positions
v  -0.0784000009 15.7714005 100.848801
v  -0.0784000009 15.7714005 -100.848801
v  -0.0784000009 228.843994 100.848801
v  -0.0784000009 228.843994 -100.848801
v  -100.9272 15.7714005 0
v  100.770401 15.7714005 0
v  -100.9272 228.843994 0
v  100.770401 228.843994 0
v  -60.7146988 18.7980003 -79.6201019
v  -60.7146988 18.7980003 48.4916992
v  60.5578995 18.7980003 -79.6201019
v  60.5578995 18.7980003 48.4916992
v  69.4304733 11.0834999 -18.100029
v  -73.3674927 9.20899963 7.71445274
v  53.6321869 142.194901 -95.970993
v  -89.1656265 140.320404 -70.1566772
v  -70.0974655 13.7366581 -37.1680489
v  19.3626289 15.4047613 77.0915527
v  -72.7803497 167.022156 -37.3057175
v  16.6797085 168.690445 76.9539795
v  -50.2300262 16.8346386 60.8661079
v  80.1524658 17.4380417 -2.86139679
v  -29.5516663 162.325943 104.55069
v  100.830788 162.92955 40.8232918
v  29.4406376 6.70749998 65.5809708
v  10.5055466 24.1373005 -77.2433472
v  97.1674271 144.025497 73.3598938
v  78.232338 161.4552 -69.4644241

# 4 UV coordinates
vt 0 0 0
vt 1 0 0
vt 0 1 0
vt 1 1 0

# 17 vertex normals
vn 1 0 0
vn 0 0 1
vn 0 1 0
vn -0.145562306 -0.518121183 -0.842829823
vn -0.145561859 -0.518121481 -0.842829704
vn -0.145561859 -0.518121541 -0.842829645
vn -0.145561412 -0.518121839 -0.842829585
vn -0.787210226 -0.0132244574 0.616542995
vn -0.787210345 -0.0132247182 0.616542816
vn -0.787210345 -0.0132247368 0.616542816
vn -0.787210524 -0.0132249957 0.616542578
vn 0.417915106 -0.315228224 0.852043509
vn 0.417915106 -0.315228254 0.852043569
vn 0.887591541 -0.428144276 -0.169922739
vn 0.887591481 -0.428144366 -0.16992259
vn 0.887591481 -0.428144425 -0.16992256
vn 0.887591481 -0.428144544 -0.169922471

# Mesh 'obj2' with 6 faces
g obj2
usemtl hitc
f  1/1/1 2/2/1 3/3/1
f  4/4/1 3/3/1 2/2/1
f  5/1/2 6/2/2 7/3/2
f  8/4/2 7/3/2 6/2/2
f  9/4/3 10/2/3 11/3/3
f  12/1/3 11/3/3 10/2/3

# Mesh 'obj1' with 8 faces
g obj1
usemtl hitc
f  13/1/4 14/2/5 15/3/6
f  16/4/7 15/3/6 14/2/5
f  17/1/8 18/2/9 19/3/10
f  20/4/11 19/3/10 18/2/9
f  21/1/12 22/2/12 23/3/13
f  24/4/13 23/3/13 22/2/12
f  25/1/14 26/2/15 27/3/16
f  28/4/17 27/3/16 26/2/15

