# File produced by Open Asset Import Library (http://www.assimp.sf.net)
# (assimp v5.2.3369795085)

mtllib 20.X.mtl

# 12 vertex positions
v  123.800003 0 -123.800003
v  -123.800003 0 -123.800003
v  123.800003 0 123.800003
v  -123.800003 0 123.800003
v  0 -123.800003 -123.800003
v  0 123.800003 -123.800003
v  0 -123.800003 123.800003
v  0 123.800003 123.800003
v  123.800003 -123.800003 0
v  123.800003 123.800003 0
v  -123.800003 -123.800003 0
v  -123.800003 123.800003 0

# 4 UV coordinates
vt 1 1 0
vt 0 1 0
vt 1 0 0
vt 0 0 0

# 3 vertex normals
vn 0 1 0
vn 1 0 0
vn 0 0 1

# Mesh 'obj1' with 6 faces
g obj1
usemtl mat1
f  1/1/1 2/2/1 3/3/1
f  4/4/1 3/3/1 2/2/1
f  5/1/2 6/2/2 7/3/2
f  8/4/2 7/3/2 6/2/2
f  9/1/3 10/2/3 11/3/3
f  12/4/3 11/3/3 10/2/3

