# File produced by Open Asset Import Library (http://www.assimp.sf.net)
# (assimp v5.2.3369795085)

mtllib g01.X.mtl

# 33 vertex positions
v  73.1753769 -21.4551716 21.4551716
v  79.2108536 0 0
v  73.1753769 0 30.3421669
v  73.1753769 -30.3421669 0
v  73.1753769 -21.4551716 -21.4551716
v  73.1753769 0 -30.3421669
v  73.1753769 21.4551716 -21.4551716
v  73.1753769 30.3421669 0
v  73.1753769 21.4551716 21.4551716
v  55.9878769 -39.6439972 39.6439972
v  55.9878769 0 56.0650978
v  55.9878769 -56.0650978 0
v  55.9878769 -39.6439972 -39.6439972
v  55.9878769 0 -56.0650978
v  55.9878769 39.6439972 -39.6439972
v  55.9878769 56.0650978 0
v  55.9878769 39.6439972 39.6439972
v  30.2650299 -51.7973404 51.7973404
v  30.2650299 0 73.2525101
v  30.2650299 -73.2525101 0
v  30.2650299 -51.7973404 -51.7973404
v  30.2650299 0 -73.2525101
v  30.2650299 51.7974205 -51.7973404
v  30.2650299 73.2525101 0
v  30.2650299 51.7974205 51.7973404
v  -0.0771408081 -56.0650978 56.0650978
v  -0.0771408081 0 79.2879944
v  -0.0771408081 -79.2879944 0
v  -0.0771408081 -56.0650978 -56.0650978
v  -0.0771408081 0 -79.2879944
v  -0.0771408081 56.0650978 -56.0650978
v  -0.0771408081 79.2879944 0
v  -0.0771408081 56.0650978 56.0650978

# 33 UV coordinates
vt 0.329380006 0.345730007 0
vt 0.498710006 0.517920017 0
vt 0.329380006 0.516730011 0
vt 0.498710006 0.345730007 0
vt 0.683809996 0.345730007 0
vt 0.683809996 0.519129992 0
vt 0.683809996 0.686540008 0
vt 0.498710006 0.686540008 0
vt 0.329380006 0.686540008 0
vt 0.232260004 0.26226002 0
vt 0.232260004 0.517679989 0
vt 0.498710006 0.26226002 0
vt 0.770910025 0.26226002 0
vt 0.770910025 0.52007997 0
vt 0.770910025 0.783879995 0
vt 0.498710006 0.783879995 0
vt 0.232260004 0.783879995 0
vt 0.144060001 0.156899989 0
vt 0.144060001 0.515290022 0
vt 0.498710006 0.156899989 0
vt 0.886309981 0.156899989 0
vt 0.886309981 0.517679989 0
vt 0.886309981 0.889540017 0
vt 0.498710006 0.889540017 0
vt 0.144060001 0.889540017 0
vt 0.00444999989 0.00552999973 0
vt 0.00444999989 0.520480037 0
vt 0.498710006 0.00552999973 0
vt 0.996100008 0.00552999973 0
vt 0.996100008 0.513289988 0
vt 0.996100008 0.99822998 0
vt 0.498710006 0.99822998 0
vt 0.00444999989 0.99822998 0

# 33 vertex normals
vn 0.718606055 -0.236921728 0.236921966
vn 0.792879939 2.74893025e-10 1.79810167e-10
vn 0.718606174 -1.83974635e-07 0.335057825
vn 0.718606174 -0.335057825 -1.79496425e-07
vn 0.718606055 -0.236921966 -0.236921728
vn 0.718606174 1.79496425e-07 -0.335057825
vn 0.718606055 0.236921728 -0.236921966
vn 0.718606174 0.335057825 1.79496425e-07
vn 0.718606055 0.236921966 0.236921728
vn 0.5422135 -0.409061849 0.40906179
vn 0.542213559 -5.6392695e-09 0.578500688
vn 0.542213559 -0.578500688 -1.14080105e-08
vn 0.5422135 -0.40906179 -0.409061849
vn 0.542213559 -8.38426715e-08 -0.578500688
vn 0.542213857 0.409061551 -0.409061551
vn 0.542213619 0.578500628 -2.01092476e-07
vn 0.542213917 0.409061342 0.40906176
vn 0.290823519 -0.521574795 0.521574557
vn 0.290823221 -4.61022402e-08 0.737618089
vn 0.290823162 -0.737618089 1.07848798e-07
vn 0.290823519 -0.521574557 -0.521574795
vn 0.290823162 -2.23697157e-07 -0.737618148
vn 0.29082343 0.521575034 -0.521574378
vn 0.290823191 0.737618089 1.22902302e-08
vn 0.290823281 0.521575034 0.521574378
vn 0.154685125 -0.549877882 0.549877644
vn 0.15468438 -1.24958435e-08 0.777644753
vn 0.154684499 -0.777644694 1.42361273e-07
vn 0.154685125 -0.549877644 -0.549877882
vn 0.154684499 -1.42361273e-07 -0.777644694
vn 0.154683888 0.549877703 -0.54987812
vn 0.154684186 0.777644753 1.81553304e-07
vn 0.154684082 0.549877822 0.549878001

# Mesh '' with 56 faces
usemtl mat1
f  1/1/1 2/2/2 3/3/3
f  4/4/4 2/2/2 1/1/1
f  5/5/5 2/2/2 4/4/4
f  6/6/6 2/2/2 5/5/5
f  7/7/7 2/2/2 6/6/6
f  8/8/8 2/2/2 7/7/7
f  9/9/9 2/2/2 8/8/8
f  3/3/3 2/2/2 9/9/9
f  1/1/1 3/3/3 10/10/10
f  11/11/11 10/10/10 3/3/3
f  4/4/4 1/1/1 12/12/12
f  10/10/10 12/12/12 1/1/1
f  5/5/5 4/4/4 13/13/13
f  12/12/12 13/13/13 4/4/4
f  6/6/6 5/5/5 14/14/14
f  13/13/13 14/14/14 5/5/5
f  7/7/7 6/6/6 15/15/15
f  14/14/14 15/15/15 6/6/6
f  8/8/8 7/7/7 16/16/16
f  15/15/15 16/16/16 7/7/7
f  9/9/9 8/8/8 17/17/17
f  16/16/16 17/17/17 8/8/8
f  3/3/3 9/9/9 11/11/11
f  17/17/17 11/11/11 9/9/9
f  10/10/10 11/11/11 18/18/18
f  19/19/19 18/18/18 11/11/11
f  12/12/12 10/10/10 20/20/20
f  18/18/18 20/20/20 10/10/10
f  13/13/13 12/12/12 21/21/21
f  20/20/20 21/21/21 12/12/12
f  14/14/14 13/13/13 22/22/22
f  21/21/21 22/22/22 13/13/13
f  15/15/15 14/14/14 23/23/23
f  22/22/22 23/23/23 14/14/14
f  16/16/16 15/15/15 24/24/24
f  23/23/23 24/24/24 15/15/15
f  17/17/17 16/16/16 25/25/25
f  24/24/24 25/25/25 16/16/16
f  11/11/11 17/17/17 19/19/19
f  25/25/25 19/19/19 17/17/17
f  18/18/18 19/19/19 26/26/26
f  27/27/27 26/26/26 19/19/19
f  20/20/20 18/18/18 28/28/28
f  26/26/26 28/28/28 18/18/18
f  21/21/21 20/20/20 29/29/29
f  28/28/28 29/29/29 20/20/20
f  22/22/22 21/21/21 30/30/30
f  29/29/29 30/30/30 21/21/21
f  23/23/23 22/22/22 31/31/31
f  30/30/30 31/31/31 22/22/22
f  24/24/24 23/23/23 32/32/32
f  31/31/31 32/32/32 23/23/23
f  25/25/25 24/24/24 33/33/33
f  32/32/32 33/33/33 24/24/24
f  19/19/19 25/25/25 27/27/27
f  33/33/33 27/27/27 25/25/25

