# File produced by Open Asset Import Library (http://www.assimp.sf.net)
# (assimp v5.2.3369795085)

mtllib s04.X.mtl

# 25 vertex positions
v  22.5926895 -14.406559 14.7441044
v  23.8005409 0.337545156 0
v  22.5926895 0.337545156 20.851368
v  22.5926895 -20.5137615 0
v  22.5926895 -14.406559 -14.7441044
v  22.5926895 0.337545156 -20.851368
v  22.5926895 15.0817108 -14.7441044
v  22.5926895 21.1889133 0
v  22.5926895 15.0817108 14.7441044
v  14.7264929 -40.271553 40.6090965
v  14.7264929 0.337545156 57.4299774
v  14.7264929 -57.0923691 0
v  14.7264929 -40.271553 -40.6090965
v  14.7264929 0.337606102 -57.4299774
v  14.7264929 40.946701 -40.6090965
v  14.7264929 57.7675171 0
v  14.7264929 40.946701 40.6090965
v  3.98107815 -70.599968 70.9375076
v  3.98107815 0.337606102 100.320824
v  3.98107815 -99.9832153 0
v  3.98107815 -70.599968 -70.9375076
v  3.98107815 0.337606102 -100.320824
v  3.98107815 71.275116 -70.9375076
v  3.98107815 100.658363 0
v  3.98107815 71.275116 70.9375076

# 25 UV coordinates
vt 0.70322001 0.292710006 0
vt 0.499480009 0.497640014 0
vt 0.499480009 0.285719991 0
vt 0.706330001 0.497640014 0
vt 0.684059978 0.685799956 0
vt 0.499480009 0.709560037 0
vt 0.305319995 0.704959989 0
vt 0.292629987 0.497640014 0
vt 0.3125 0.307079971 0
vt 0.829450011 0.142310023 0
vt 0.499480009 0.130590022 0
vt 0.857760012 0.497640014 0
vt 0.834240019 0.829020023 0
vt 0.499480009 0.864690006 0
vt 0.171900004 0.831420004 0
vt 0.141200006 0.497640014 0
vt 0.157539994 0.156679988 0
vt 0.98281002 0.0250999928 0
vt 0.499419987 0.00915002823 0
vt 0.98281002 0.49691999 0
vt 0.98281002 0.983110011 0
vt 0.499419987 0.984690011 0
vt 0.0184199996 0.983110011 0
vt 0.0184199996 0.49691999 0
vt 0.0184199996 0.0107300282 0

# 25 vertex normals
vn 0.179795161 -0.178468257 0.178467467
vn 0.197526008 -1.65080408e-07 9.64035518e-10
vn 0.179795146 -4.14674837e-08 0.252391785
vn 0.179795131 -0.252391815 8.94727759e-09
vn 0.179795146 -0.178468183 -0.178467721
vn 0.179795131 -3.95392448e-07 -0.252391845
vn 0.179795161 0.178468078 -0.178467602
vn 0.179795161 0.252391696 -1.12017808e-08
vn 0.179795161 0.178468034 0.178467721
vn 0.159700334 -0.253632635 0.253632218
vn 0.159700334 -1.00328535e-07 0.358690351
vn 0.159700319 -0.35869047 -1.19461152e-08
vn 0.159700334 -0.253632516 -0.253632307
vn 0.159700334 7.2331602e-08 -0.358690351
vn 0.159700334 0.253632575 -0.253632188
vn 0.159700319 0.358690411 1.19126753e-09
vn 0.159700334 0.253632516 0.253632277
vn 0.156274199 -0.263596892 0.263596743
vn 0.156274199 1.23830034e-07 0.372782201
vn 0.156274199 -0.372782201 -7.99729172e-09
vn 0.156274214 -0.263596833 -0.263596714
vn 0.156274214 3.5833807e-08 -0.372782141
vn 0.156274214 0.263596892 -0.263596684
vn 0.156274199 0.37278223 7.5571176e-09
vn 0.156274229 0.263596863 0.263596654

# Mesh '' with 40 faces
usemtl mat1
f  1/1/1 2/2/2 3/3/3
f  4/4/4 2/2/2 1/1/1
f  5/5/5 2/2/2 4/4/4
f  6/6/6 2/2/2 5/5/5
f  7/7/7 2/2/2 6/6/6
f  8/8/8 2/2/2 7/7/7
f  9/9/9 2/2/2 8/8/8
f  3/3/3 2/2/2 9/9/9
f  1/1/1 3/3/3 10/10/10
f  11/11/11 10/10/10 3/3/3
f  4/4/4 1/1/1 12/12/12
f  10/10/10 12/12/12 1/1/1
f  5/5/5 4/4/4 13/13/13
f  12/12/12 13/13/13 4/4/4
f  6/6/6 5/5/5 14/14/14
f  13/13/13 14/14/14 5/5/5
f  7/7/7 6/6/6 15/15/15
f  14/14/14 15/15/15 6/6/6
f  8/8/8 7/7/7 16/16/16
f  15/15/15 16/16/16 7/7/7
f  9/9/9 8/8/8 17/17/17
f  16/16/16 17/17/17 8/8/8
f  3/3/3 9/9/9 11/11/11
f  17/17/17 11/11/11 9/9/9
f  10/10/10 11/11/11 18/18/18
f  19/19/19 18/18/18 11/11/11
f  12/12/12 10/10/10 20/20/20
f  18/18/18 20/20/20 10/10/10
f  13/13/13 12/12/12 21/21/21
f  20/20/20 21/21/21 12/12/12
f  14/14/14 13/13/13 22/22/22
f  21/21/21 22/22/22 13/13/13
f  15/15/15 14/14/14 23/23/23
f  22/22/22 23/23/23 14/14/14
f  16/16/16 15/15/15 24/24/24
f  23/23/23 24/24/24 15/15/15
f  17/17/17 16/16/16 25/25/25
f  24/24/24 25/25/25 16/16/16
f  11/11/11 17/17/17 19/19/19
f  25/25/25 19/19/19 17/17/17

