# File produced by Open Asset Import Library (http://www.assimp.sf.net)
# (assimp v5.2.3369795085)

mtllib a01.X.mtl

# 16 vertex positions
v  -202.174789 79.9553986 174.69986
v  -200.107224 80.0305328 165.638153
v  -205.741379 79.7162476 169.570053
v  -196.540634 80.2696838 170.76796
v  -201.822205 74.0261536 174.73114
v  -199.754654 74.1012878 165.669434
v  -196.188049 74.3404388 170.79924
v  -205.388809 73.7870026 169.601334
v  12.623373 98.3341751 25.4921227
v  17.0000706 98.3341751 21.1154251
v  12.623373 98.3341751 21.1154251
v  17.0000706 98.3341751 25.4921227
v  12.623373 94.5827179 25.4921227
v  17.0000706 94.5827179 21.1154251
v  17.0000706 94.5827179 25.4921227
v  12.623373 94.5827179 21.1154251

# 4 UV coordinates
vt 0 0 0
vt 1 1 0
vt 0 1 0
vt 1 0 0

# 12 vertex normals
vn -0.0593583174 0.998222947 -0.00526635582
vn 0.0593583174 -0.998222947 0.00526635582
vn 0.570434093 0.0382487699 0.820452273
vn 0.819195688 0.0456965528 -0.571690679
vn -0.570434093 -0.0382487699 -0.820452273
vn -0.819195688 -0.0456965528 0.571690679
vn 0 1 0
vn 0 -1 0
vn 0 0 1
vn 1 0 0
vn 0 0 -1
vn -1 0 0

# Mesh '' with 12 faces
usemtl material0
f  1/1/1 2/2/1 3/3/1
f  2/2/1 1/1/1 4/4/1
f  5/4/2 6/3/2 7/1/2
f  6/3/2 5/4/2 8/2/2
f  1/1/3 7/2/3 4/4/3
f  7/2/3 1/1/3 5/3/3
f  4/1/4 6/2/4 2/4/4
f  6/2/4 4/1/4 7/3/4
f  2/1/5 8/2/5 3/4/5
f  8/2/5 2/1/5 6/3/5
f  3/1/6 5/2/6 1/4/6
f  5/2/6 3/1/6 8/3/6

# Mesh 'Box02' with 12 faces
g Box02
usemtl material0
f  9/1/7 10/2/7 11/3/7
f  10/2/7 9/1/7 12/4/7
f  13/4/8 14/3/8 15/1/8
f  14/3/8 13/4/8 16/2/8
f  9/1/9 15/2/9 12/4/9
f  15/2/9 9/1/9 13/3/9
f  12/1/10 14/2/10 10/4/10
f  14/2/10 12/1/10 15/3/10
f  10/1/11 16/2/11 11/4/11
f  16/2/11 10/1/11 14/3/11
f  11/1/12 13/2/12 9/4/12
f  13/2/12 11/1/12 16/3/12

