# File produced by Open Asset Import Library (http://www.assimp.sf.net)
# (assimp v5.2.3369795085)

mtllib 03.X.mtl

# 88 vertex positions
v  -10.5130997 7.78709984 -143.060394
v  -89.8395996 0 -121.925102
v  0.364100009 0 -153.7556
v  -10.5130997 -7.78709984 -143.060394
v  -27.9895992 -7.78709984 -127.0177
v  -36.7277985 0 -117.391998
v  -27.9895992 7.78709984 -127.0177
v  138.332108 13.7483997 0
v  124.064201 13.4884005 -62.0321007
v  159.017105 0 0
v  148.152893 0 -62.0321007
v  138.332108 -13.7483997 0
v  124.064201 -13.4869003 -62.0321007
v  68.0850983 -13.7483997 0
v  58.8235016 -13.4869003 -59.8930016
v  36.7048988 0 0
v  25.5163994 0.000699999975 -59.8930016
v  68.0850983 13.7483997 0
v  58.8235016 13.4884005 -59.8930016
v  65.9448013 10.2364998 -121.100998
v  85.0287018 0 -125.737396
v  65.9448013 -10.2364998 -121.100998
v  18.1818008 -10.3945999 -109.090897
v  0 0 -96.2566986
v  18.1818008 10.3957005 -109.090897
v  0.364100009 0 153.7556
v  -89.8395996 0 121.925102
v  -10.5130997 7.78709984 143.060394
v  -10.5130997 -7.78709984 143.060394
v  -27.9895992 -7.78709984 127.0177
v  -36.7277985 0 117.391998
v  -27.9895992 7.78709984 127.0177
v  148.152893 0 62.0321007
v  124.064201 13.4884005 62.0321007
v  124.064201 -13.4869003 62.0321007
v  58.8235016 -13.4869003 59.8930016
v  25.5163994 0.000699999975 59.8930016
v  58.8235016 13.4884005 59.8930016
v  85.0287018 0 125.737396
v  65.9448013 10.2364998 121.100998
v  65.9448013 -10.2364998 121.100998
v  18.1818008 -10.3945999 109.090897
v  0 0 96.2566986
v  18.1818008 10.3957005 109.090897
v  0.407099992 0 -145.356705
v  -61.1959991 0 -127.775299
v  -7.21390009 4.36630011 -140.193298
v  -7.21390009 -4.36630011 -140.193298
v  -22.4598999 -4.36590004 -128.342194
v  -27.0888996 0 -125.020599
v  -22.4598999 4.36670017 -128.342194
v  139.037399 0 -58.8235016
v  118.490196 7.5630002 -60.1077003
v  150.694397 0 0
v  134.167801 7.70889997 0
v  118.490196 -7.56220007 -60.1077003
v  134.167801 -7.70889997 0
v  65.2957993 -7.56220007 -60.3583984
v  79.1125031 -7.70889997 0
v  40.8237 0.000300000014 -62.4973984
v  56.1800003 0 0
v  65.2957993 7.5630002 -60.3583984
v  79.1126022 7.70889997 0
v  75.5374985 0 -121.692497
v  63.4989014 5.73960018 -117.599701
v  63.4989014 -5.73960018 -117.599701
v  25.3379993 -5.82840014 -106.997398
v  7.60279989 0 -104.2239
v  25.3379993 5.829 -106.997398
v  -7.21390009 4.36630011 140.193298
v  -61.1959991 0 127.775299
v  0.407099992 0 145.356705
v  -7.21390009 -4.36630011 140.193298
v  -22.4598999 -4.36590004 128.342194
v  -27.0888996 0 125.020599
v  -22.4598999 4.36670017 128.342194
v  118.490196 7.5630002 60.1077003
v  139.037399 0 58.8235016
v  118.490196 -7.56220007 60.1077003
v  65.2957993 -7.56220007 60.3583984
v  40.8237 0.000300000014 62.4973984
v  65.2957993 7.5630002 60.3583984
v  63.4989014 5.73960018 117.599701
v  75.5374985 0 121.692497
v  63.4989014 -5.73960018 117.599701
v  25.3379993 -5.82840014 106.997498
v  7.60279989 0 104.2239
v  25.3379993 5.829 106.997398

# 68 UV coordinates
vt 0.0218800008 0.374530017 0
vt 0.100309998 0.399529994 0
vt 0.178749993 0.374530017 0
vt 0.257180005 0.399529994 0
vt 0.335610002 0.374530017 0
vt 0.414039999 0.399529994 0
vt 0.492469996 0.374530017 0
vt 0.570900023 0.399529994 0
vt 0.649349988 0.374530017 0
vt 0.727779984 0.399529994 0
vt 0.806209981 0.374530017 0
vt 0.884639978 0.399529994 0
vt 0.963069975 0.374530017 0
vt 0.0218800008 0.324530005 0
vt 0.0218800008 0.349529982 0
vt 0.178749993 0.324530005 0
vt 0.178749993 0.349529982 0
vt 0.335610002 0.324530005 0
vt 0.335610002 0.349529982 0
vt 0.492469996 0.324530005 0
vt 0.492469996 0.349529982 0
vt 0.649349988 0.324530005 0
vt 0.649349988 0.349529982 0
vt 0.806209981 0.324530005 0
vt 0.806209981 0.349529982 0
vt 0.963069975 0.324530005 0
vt 0.963069975 0.349529982 0
vt 0.0218800008 0.363789976 0
vt 0.178749993 0.364380002 0
vt 0.335610002 0.363789976 0
vt 0.492469996 0.363089979 0
vt 0.649349988 0.36085999 0
vt 0.806209981 0.363089979 0
vt 0.963069975 0.363789976 0
vt 0.186700001 0.0235000253 0
vt 0.10971 0.025390029 0
vt 0.0327100009 0.0235000253 0
vt 0.340680003 0.0235000253 0
vt 0.263700008 0.025390029 0
vt 0.494670004 0.0235000253 0
vt 0.417670012 0.025390029 0
vt 0.648660004 0.0235000253 0
vt 0.571659982 0.025390029 0
vt 0.802640021 0.0235000253 0
vt 0.725650012 0.025390029 0
vt 0.956629992 0.0235000253 0
vt 0.879639983 0.025390029 0
vt 0.186700001 0.0216100216 0
vt 0.0327100009 0.0216100216 0
vt 0.186700001 0.0197200179 0
vt 0.0327100009 0.0197200179 0
vt 0.340680003 0.0216100216 0
vt 0.340680003 0.0197200179 0
vt 0.494670004 0.0216100216 0
vt 0.494670004 0.0197200179 0
vt 0.648660004 0.0216100216 0
vt 0.648660004 0.0197200179 0
vt 0.802640021 0.0216100216 0
vt 0.802640021 0.0197200179 0
vt 0.956629992 0.0216100216 0
vt 0.956629992 0.0197200179 0
vt 0.186700001 0.0227299929 0
vt 0.0327100009 0.0226899981 0
vt 0.340680003 0.0226899981 0
vt 0.494670004 0.0226299763 0
vt 0.648660004 0.0224599838 0
vt 0.802640021 0.0226299763 0
vt 0.956629992 0.0226899981 0

# 120 vertex normals
vn 0.0965294838 -0.897591591 0.430129528
vn 0.155994385 -0.987524927 -0.0214548688
vn -0.0584732294 -0.834398508 0.548051059
vn -0.0361074656 0.811680973 0.582983911
vn 0.155994385 0.987524927 -0.0214548633
vn 0.107613169 0.893819451 0.435323089
vn 0.14971678 0.976558685 -0.154654443
vn 0.135184512 0.826738477 -0.54610312
vn 0.123368353 -0.829220116 -0.545136929
vn 0.142346591 -0.975943327 -0.165142491
vn -0.326009363 -0.945366561 8.92253049e-10
vn -0.279111683 -0.940574169 0.193434566
vn -0.536214948 -0.844081461 -2.4573874e-09
vn -0.477721334 -0.853153944 0.209548786
vn -0.553540111 0.832822502 -2.26475216e-09
vn -0.479168385 0.84698844 0.230235219
vn -0.316354185 0.948641121 -2.10313211e-09
vn -0.276216358 0.937359154 0.212278813
vn 0.185615554 0.982622445 4.91664542e-10
vn 0.160709679 0.986481309 -0.0320467316
vn 0.392780244 0.919632375 -1.03879527e-09
vn 0.369054079 0.911364675 -0.182245865
vn 0.401298046 -0.915947556 4.73370398e-10
vn 0.370690256 -0.912670076 -0.172110647
vn 0.181185097 -0.983449042 -2.23759775e-10
vn 0.160075948 -0.986619413 -0.0309492834
vn -0.142888635 -0.902641475 0.405981749
vn -0.323560268 -0.816473305 0.478205085
vn -0.334870994 0.82800287 0.449747294
vn -0.15772292 0.915608466 0.369844049
vn 0.13912715 0.985429347 -0.0978398994
vn 0.282530665 0.895467103 -0.343969643
vn 0.282207996 -0.900849283 -0.329892784
vn 0.144104764 -0.985715926 -0.0871662423
vn -0.0584732294 -0.834398508 -0.548051059
vn 0.155994385 -0.987524927 0.0214548688
vn 0.0965294912 -0.897591591 -0.430129528
vn 0.107613161 0.893819451 -0.43532306
vn 0.155994385 0.987524927 0.0214548633
vn -0.0361074694 0.811680973 -0.582983971
vn 0.149716765 0.976558685 0.154654443
vn 0.135184512 0.826738477 0.54610312
vn 0.142346591 -0.975943327 0.165142491
vn 0.123368353 -0.829220116 0.545136929
vn -0.477721334 -0.853153944 -0.209548786
vn -0.279111683 -0.940574169 -0.193434581
vn -0.276216358 0.937359154 -0.212278813
vn -0.479168385 0.84698844 -0.230235219
vn 0.160709694 0.986481309 0.0320467353
vn 0.369054079 0.911364675 0.182245865
vn 0.160075963 -0.986619413 0.030949289
vn 0.370690256 -0.912670076 0.172110647
vn -0.323560238 -0.816473305 -0.478205144
vn -0.142888635 -0.902641475 -0.405981749
vn -0.15772292 0.915608466 -0.369844049
vn -0.334870994 0.82800287 -0.449747294
vn 0.139127135 0.985429347 0.0978398919
vn 0.282530665 0.895467043 0.343969673
vn 0.144104764 -0.985715926 0.0871662498
vn 0.282207996 -0.900849283 0.329892784
vn 0.0811390877 0.8169052 -0.57103622
vn -0.151849329 0.988290191 0.0149745028
vn -0.0905567408 0.875278831 -0.475064665
vn -0.0938392878 -0.873477519 -0.47773546
vn -0.151832208 -0.988292873 0.0149738183
vn 0.0742643774 -0.808761597 -0.583429098
vn -0.168143332 -0.961319387 0.218157783
vn -0.160503194 -0.699772358 0.696101546
vn -0.158696309 0.957847953 0.239463568
vn -0.14137198 0.703509331 0.696483016
vn 0.349764913 0.924052656 -0.154243827
vn 0.207277119 0.966127276 -0.153734267
vn 0.406274855 0.913750947 1.61850955e-09
vn 0.249381602 0.968405306 -1.46306733e-09
vn 0.204599947 -0.965518177 -0.160976782
vn 0.356967539 -0.918370306 -0.170792803
vn 0.240869328 -0.97055757 -8.96776819e-11
vn 0.422727376 -0.906256914 1.52779803e-10
vn -0.130339727 -0.990740776 0.0380038954
vn -0.138723716 -0.990331113 3.24739985e-10
vn -0.304850698 -0.934478402 0.183891654
vn -0.314670533 -0.949200928 1.03628472e-09
vn -0.130774781 0.99070698 0.0373856798
vn -0.302891016 0.937567711 0.170949608
vn -0.136680648 0.990615189 -3.04628073e-10
vn -0.318633586 0.947877944 -4.7856491e-10
vn 0.279556751 0.872100711 -0.401607215
vn 0.129904851 0.939211369 -0.317815542
vn 0.133724794 -0.94189018 -0.308156729
vn 0.282856971 -0.874399602 -0.394230038
vn -0.121128887 -0.988195896 0.0937907696
vn -0.247237295 -0.894431174 0.37264809
vn -0.125619605 0.987531841 0.0948716775
vn -0.24622193 0.909070909 0.336102366
vn -0.0905567408 0.875278831 0.475064665
vn -0.151849315 0.988290191 -0.0149745038
vn 0.0811390877 0.8169052 0.57103622
vn 0.074264355 -0.808761597 0.583429098
vn -0.151832208 -0.988292873 -0.0149738165
vn -0.0938392952 -0.873477519 0.47773549
vn -0.168143302 -0.961319387 -0.218157828
vn -0.160503194 -0.699772358 -0.696101546
vn -0.141371965 0.703509331 -0.696483016
vn -0.158696279 0.957847953 -0.239463523
vn 0.207277149 0.966127276 0.153734267
vn 0.349764913 0.924052656 0.154243827
vn 0.356967539 -0.918370306 0.170792803
vn 0.204599932 -0.965518177 0.160976768
vn -0.130339757 -0.990740776 -0.038003929
vn -0.304850698 -0.934478402 -0.183891654
vn -0.302891016 0.937567711 -0.170949608
vn -0.130774781 0.99070698 -0.0373856723
vn 0.129904851 0.939211369 0.317815542
vn 0.279556781 0.872100711 0.401607186
vn 0.282856971 -0.874399602 0.394230038
vn 0.133724824 -0.94189018 0.308156759
vn -0.121128254 -0.988196015 -0.0937901288
vn -0.247236103 -0.894432247 -0.372646242
vn -0.246221915 0.909070909 -0.336102396
vn -0.12561962 0.987531781 -0.0948717222

# Mesh 'obj3' with 168 faces
g obj3
usemtl mat1
f  1/1/1 2/2/2 3/3/3
f  3/3/4 2/4/5 4/5/6
f  4/5/6 2/6/5 5/7/7
f  5/7/7 2/8/5 6/9/8
f  6/9/9 2/10/2 7/11/10
f  7/11/10 2/12/2 1/13/1
f  8/14/11 9/15/12 10/16/13
f  11/17/14 10/16/13 9/15/12
f  10/16/15 11/17/16 12/18/17
f  13/19/18 12/18/17 11/17/16
f  12/18/17 13/19/18 14/20/19
f  15/21/20 14/20/19 13/19/18
f  14/20/19 15/21/20 16/22/21
f  17/23/22 16/22/21 15/21/20
f  16/22/23 17/23/24 18/24/25
f  19/25/26 18/24/25 17/23/24
f  18/24/25 19/25/26 8/26/11
f  9/27/12 8/26/11 19/25/26
f  20/28/27 21/29/28 9/15/12
f  11/17/14 9/15/12 21/29/28
f  3/3/3 21/29/28 1/1/1
f  20/28/27 1/1/1 21/29/28
f  21/29/29 22/30/30 11/17/16
f  13/19/18 11/17/16 22/30/30
f  4/5/6 22/30/30 3/3/4
f  21/29/29 3/3/4 22/30/30
f  22/30/30 23/31/31 13/19/18
f  15/21/20 13/19/18 23/31/31
f  5/7/7 23/31/31 4/5/6
f  22/30/30 4/5/6 23/31/31
f  23/31/31 24/32/32 15/21/20
f  17/23/22 15/21/20 24/32/32
f  6/9/8 24/32/32 5/7/7
f  23/31/31 5/7/7 24/32/32
f  24/32/33 25/33/34 17/23/24
f  19/25/26 17/23/24 25/33/34
f  7/11/10 25/33/34 6/9/9
f  24/32/33 6/9/9 25/33/34
f  25/33/34 20/34/27 19/25/26
f  9/27/12 19/25/26 20/34/27
f  1/13/1 20/34/27 7/11/10
f  25/33/34 7/11/10 20/34/27
f  26/3/35 27/2/36 28/1/37
f  29/5/38 27/4/39 26/3/40
f  30/7/41 27/6/39 29/5/38
f  31/9/42 27/8/39 30/7/41
f  32/11/43 27/10/36 31/9/44
f  28/13/37 27/12/36 32/11/43
f  33/17/45 34/15/46 10/16/13
f  8/14/11 10/16/13 34/15/46
f  35/19/47 33/17/48 12/18/17
f  10/16/15 12/18/17 33/17/48
f  36/21/49 35/19/47 14/20/19
f  12/18/17 14/20/19 35/19/47
f  37/23/50 36/21/49 16/22/21
f  14/20/19 16/22/21 36/21/49
f  38/25/51 37/23/52 18/24/25
f  16/22/23 18/24/25 37/23/52
f  34/27/46 38/25/51 8/26/11
f  18/24/25 8/26/11 38/25/51
f  33/17/45 39/29/53 34/15/46
f  40/28/54 34/15/46 39/29/53
f  40/28/54 39/29/53 28/1/37
f  26/3/35 28/1/37 39/29/53
f  35/19/47 41/30/55 33/17/48
f  39/29/56 33/17/48 41/30/55
f  39/29/56 41/30/55 26/3/40
f  29/5/38 26/3/40 41/30/55
f  36/21/49 42/31/57 35/19/47
f  41/30/55 35/19/47 42/31/57
f  41/30/55 42/31/57 29/5/38
f  30/7/41 29/5/38 42/31/57
f  37/23/50 43/32/58 36/21/49
f  42/31/57 36/21/49 43/32/58
f  42/31/57 43/32/58 30/7/41
f  31/9/42 30/7/41 43/32/58
f  38/25/51 44/33/59 37/23/52
f  43/32/60 37/23/52 44/33/59
f  43/32/60 44/33/59 31/9/44
f  32/11/43 31/9/44 44/33/59
f  34/27/46 40/34/54 38/25/51
f  44/33/59 38/25/51 40/34/54
f  44/33/59 40/34/54 32/11/43
f  28/13/37 32/11/43 40/34/54
f  45/35/61 46/36/62 47/37/63
f  48/38/64 46/39/65 45/35/66
f  49/40/67 46/41/65 48/38/64
f  50/42/68 46/43/65 49/40/67
f  51/44/69 46/45/62 50/42/70
f  47/46/63 46/47/62 51/44/69
f  52/48/71 53/49/72 54/50/73
f  55/51/74 54/50/73 53/49/72
f  56/52/75 52/48/76 57/53/77
f  54/50/78 57/53/77 52/48/76
f  58/54/79 56/52/75 59/55/80
f  57/53/77 59/55/80 56/52/75
f  60/56/81 58/54/79 61/57/82
f  59/55/80 61/57/82 58/54/79
f  62/58/83 60/56/84 63/59/85
f  61/57/86 63/59/85 60/56/84
f  53/60/72 62/58/83 55/61/74
f  63/59/85 55/61/74 62/58/83
f  52/48/71 64/62/87 53/49/72
f  65/63/88 53/49/72 64/62/87
f  65/63/88 64/62/87 47/37/63
f  45/35/61 47/37/63 64/62/87
f  56/52/75 66/64/89 52/48/76
f  64/62/90 52/48/76 66/64/89
f  64/62/90 66/64/89 45/35/66
f  48/38/64 45/35/66 66/64/89
f  58/54/79 67/65/91 56/52/75
f  66/64/89 56/52/75 67/65/91
f  66/64/89 67/65/91 48/38/64
f  49/40/67 48/38/64 67/65/91
f  60/56/81 68/66/92 58/54/79
f  67/65/91 58/54/79 68/66/92
f  67/65/91 68/66/92 49/40/67
f  50/42/68 49/40/67 68/66/92
f  62/58/83 69/67/93 60/56/84
f  68/66/94 60/56/84 69/67/93
f  68/66/94 69/67/93 50/42/70
f  51/44/69 50/42/70 69/67/93
f  53/60/72 65/68/88 62/58/83
f  69/67/93 62/58/83 65/68/88
f  69/67/93 65/68/88 51/44/69
f  47/46/63 51/44/69 65/68/88
f  70/37/95 71/36/96 72/35/97
f  72/35/98 71/39/99 73/38/100
f  73/38/100 71/41/99 74/40/101
f  74/40/101 71/43/99 75/42/102
f  75/42/103 71/45/96 76/44/104
f  76/44/104 71/47/96 70/46/95
f  55/51/74 77/49/105 54/50/73
f  78/48/106 54/50/73 77/49/105
f  54/50/78 78/48/107 57/53/77
f  79/52/108 57/53/77 78/48/107
f  57/53/77 79/52/108 59/55/80
f  80/54/109 59/55/80 79/52/108
f  59/55/80 80/54/109 61/57/82
f  81/56/110 61/57/82 80/54/109
f  61/57/86 81/56/111 63/59/85
f  82/58/112 63/59/85 81/56/111
f  63/59/85 82/58/112 55/61/74
f  77/60/105 55/61/74 82/58/112
f  83/63/113 84/62/114 77/49/105
f  78/48/106 77/49/105 84/62/114
f  72/35/97 84/62/114 70/37/95
f  83/63/113 70/37/95 84/62/114
f  84/62/115 85/64/116 78/48/107
f  79/52/108 78/48/107 85/64/116
f  73/38/100 85/64/116 72/35/98
f  84/62/115 72/35/98 85/64/116
f  85/64/116 86/65/117 79/52/108
f  80/54/109 79/52/108 86/65/117
f  74/40/101 86/65/117 73/38/100
f  85/64/116 73/38/100 86/65/117
f  86/65/117 87/66/118 80/54/109
f  81/56/110 80/54/109 87/66/118
f  75/42/102 87/66/118 74/40/101
f  86/65/117 74/40/101 87/66/118
f  87/66/119 88/67/120 81/56/111
f  82/58/112 81/56/111 88/67/120
f  76/44/104 88/67/120 75/42/103
f  87/66/119 75/42/103 88/67/120
f  88/67/120 83/68/113 82/58/112
f  77/60/105 82/58/112 83/68/113
f  70/46/95 83/68/113 76/44/104
f  88/67/120 76/44/104 83/68/113

