# File produced by Open Asset Import Library (http://www.assimp.sf.net)
# (assimp v5.2.3369795085)

mtllib 40.X.mtl

# 60 vertex positions
v  8.57750034 -27.7227001 -3.15949988
v  8.57750034 -27.7227001 2.16540003
v  9.09679985 29.6835995 -3.15949988
v  9.09679985 29.6835995 2.16540003
v  -2.65089989 84.9684982 -0.497099996
v  31.5030994 28.5347996 1.87039995
v  26.5813007 60.6329994 -0.497099996
v  46.9758987 23.5895004 -0.497099996
v  31.5030994 28.5347996 -2.86450005
v  31.4594002 -23.3346004 1.87380004
v  -2.85319996 -82.3348007 -0.497099996
v  46.2532997 -21.6119995 -0.497099996
v  21.4822998 -59.8566017 -0.497099996
v  31.4594002 -23.3346004 -2.86789989
v  -19.7733002 73.3831024 2.15129995
v  -61.6222 100 -0.497099996
v  -19.7404003 73.3491974 -3.21749997
v  -21.7616005 -72.4580994 2.16120005
v  -61.6222 -100 -0.497099996
v  -21.9496002 -72.8964005 -3.17280006
v  3.21569991 28.1935005 5.78900003
v  2.61560011 -27.382 5.78900003
v  3.21569991 28.1935005 -6.70499992
v  2.61560011 -27.382 -6.70499992
v  51.4558983 24.2828999 -0.458000004
v  31.0939999 29.9979 5.09689999
v  29.6602001 64.6409988 -0.458099991
v  -0.0412999988 89.1125031 -0.458099991
v  31.0939999 29.9979 -6.01280022
v  25.0202999 -63.7436981 -0.458099991
v  -1.16499996 -85.990097 -0.458099991
v  51.4558983 -23.7227993 -0.458000004
v  31.0435009 -26.9659004 5.10480022
v  31.0435009 -26.9659004 -6.02080011
v  -23.6958008 70.425499 5.75589991
v  -75.0348969 105.022797 -0.458000004
v  -23.6578999 70.3899994 -6.84119987
v  -76.0273972 -108.000298 -0.458000004
v  -25.0009995 -70.2012024 5.77930021
v  -25.2182999 -70.6595993 -6.73619986
v  -1.17709994 26.6763 10.1886997
v  -2.35319996 -26.8504009 10.1886997
v  -1.17709994 26.6763 -11.0096998
v  -2.35319996 -26.8504009 -11.0096998
v  55.9505005 27.7052994 -0.410600007
v  34.3732986 30.7054005 9.01430035
v  34.2378998 66.9713974 -0.410699993
v  3.5697 91.7149963 -0.410699993
v  34.3732986 30.7054005 -9.83530045
v  27.9894009 -69.0334015 -0.410699993
v  2.2967999 -88.7751999 -0.410699993
v  55.9505005 -26.6753006 -0.410600007
v  33.3236008 -28.8603992 9.02779961
v  33.3236008 -28.8603992 -9.84889984
v  -26.6998005 67.0727005 10.1325998
v  -90.8115997 108.745598 -0.410600007
v  -26.6567993 67.032402 -11.2409
v  -91.9358978 -114.700699 -0.410600007
v  -26.6896 -66.9195023 10.1722002
v  -26.9356995 -67.4386978 -11.0628004

# 47 UV coordinates
vt 0.638390005 0.0210700035 0
vt 0.638830006 0.0210700035 0
vt 0.638710022 0.0210700035 0
vt 0.631959975 0.0210700035 0
vt 0.630020022 0.0210700035 0
vt 0.624419987 0.0210700035 0
vt 0.631969988 0.0210700035 0
vt 0.639469981 0.0210700035 0
vt 0.624570012 0.0210700035 0
vt 0.630159974 0.0210700035 0
vt 0.640879989 0.0210700035 0
vt 0.66249001 0.0210700035 0
vt 0.64102 0.0210700035 0
vt 0.64270997 0.0210700035 0
vt 0.665269971 0.0210700035 0
vt 0.64301002 0.0210700035 0
vt 0.654380023 0.276069999 0
vt 0.653940022 0.276069999 0
vt 0.639970005 0.276069999 0
vt 0.647509992 0.276069999 0
vt 0.645560026 0.276069999 0
vt 0.65425998 0.276069999 0
vt 0.645709991 0.276069999 0
vt 0.655009985 0.276069999 0
vt 0.640110016 0.276069999 0
vt 0.647520006 0.276069999 0
vt 0.656430006 0.276069999 0
vt 0.678040028 0.276069999 0
vt 0.656570017 0.276069999 0
vt 0.680809975 0.276069999 0
vt 0.658259988 0.276069999 0
vt 0.658559978 0.276069999 0
vt 0.673039973 0.45332998 0
vt 0.672599971 0.45332998 0
vt 0.658630013 0.45332998 0
vt 0.666170001 0.45332998 0
vt 0.664219975 0.45332998 0
vt 0.672919989 0.45332998 0
vt 0.66437 0.45332998 0
vt 0.673669994 0.45332998 0
vt 0.658770025 0.45332998 0
vt 0.675090015 0.45332998 0
vt 0.696699977 0.45332998 0
vt 0.675230026 0.45332998 0
vt 0.699469984 0.45332998 0
vt 0.676919997 0.45332998 0
vt 0.677209973 0.45332998 0

# 114 vertex normals
vn -0.954836845 0.297130525 0
vn -0.954830527 0.297150344 -0.000549601042
vn -0.958980083 -0.283473372 0
vn -0.959016502 -0.283350199 -5.55315601e-05
vn 0.0717042834 0.115576066 0.990707159
vn 0.102890946 0.0432689823 0.993751109
vn 0.0844597518 0.0861698389 0.992693961
vn 0.161162704 0.0289461557 0.986503243
vn 0.117159784 0.0678973049 -0.990789354
vn 0.0753322989 0.115892641 -0.99040091
vn 0.153379008 0.0363374725 -0.987499118
vn 0 0 -1
vn 0.106661014 -0.0549729764 0.992774606
vn 0.0836898014 -0.118859544 0.989377797
vn 0.163292438 -0.0459745377 0.985505939
vn 0 0 1
vn 0.0139672104 -0.00638789684 0.999882042
vn 0.0134043926 0.00551806996 0.999894917
vn 0.106694855 -0.0549376644 -0.992772937
vn 0.163285747 -0.0459726453 -0.985507131
vn 0.0855552256 -0.12036451 -0.989036262
vn 0.0133526074 0.00450679101 -0.999900699
vn 0.0139079606 -0.00607875176 -0.999884784
vn 0.0571198538 0.126893342 0.990270376
vn 0.0417162664 0.163660452 0.985634327
vn 0.0588022135 0.129614472 -0.989819348
vn 0.0427503884 0.167717502 -0.984907746
vn -0.536762178 -0.843731105 0.00203906489
vn -0.704477251 -0.709726512 0.000219922964
vn -0.702780366 -0.711406827 0.000186056044
vn 0.0624692477 -0.131525218 0.98934257
vn 0.0505537167 -0.168183297 0.984458566
vn 0.0637207329 -0.135429934 -0.988735735
vn 0.0521125421 -0.173369229 -0.983477175
vn -0.718235373 0.695073187 -0.0318003893
vn -0.704307795 0.709131777 -0.0329046883
vn -0.565654695 0.823260784 -0.0477115065
vn 0.961577952 0.27453208 8.3796549e-05
vn 0.957885563 -0.287149936 0.000415790681
vn 0.961495638 0.274820209 0
vn 0.957892597 -0.28712678 0
vn -0.276116401 -0.0510357432 -0.959768236
vn -0.173126757 -0.0737442523 -0.982134879
vn -0.163178831 -0.16278547 -0.973074257
vn -0.105323188 -0.192112252 -0.975704849
vn 3.67765551e-06 4.46363583e-06 1
vn -0.112386979 -0.190406129 0.975251079
vn -0.262524873 -0.0641122162 0.962792993
vn -0.193379492 -0.107629135 0.975202739
vn -4.83698204e-06 5.69340818e-06 -1
vn -0.125255495 0.19676514 -0.972416878
vn -0.26124087 0.0718248338 -0.962597728
vn -0.182019725 0.100263335 -0.978169739
vn -0.0241431836 -0.00888830796 -0.999669015
vn -0.0241969395 0.0093696937 -0.999663293
vn -0.1821343 0.100172214 0.978157759
vn -0.135561273 0.211194843 0.967997849
vn -0.273283184 0.0751344934 0.958994865
vn 4.8369825e-06 -5.69340773e-06 1
vn 4.83698204e-06 -5.69340773e-06 1
vn -0.0241885092 0.00878472906 0.999668837
vn -0.0242857542 -0.00673871348 0.999682367
vn -0.0792549029 -0.194789782 -0.977637768
vn -0.053718932 -0.253199577 -0.965921462
vn -0.0550177544 -0.25933373 0.964219391
vn -0.0818098336 -0.198491216 0.976682365
vn 0.72054702 0.693406045 0.000213841457
vn 0.721300304 0.692622423 0.000134067173
vn 0.558899164 0.829235375 -0.000655286538
vn -0.0773595423 0.263115495 -0.961657822
vn -0.0959679559 0.20611307 -0.973810852
vn -0.0976007432 0.210358724 0.972740114
vn -0.0790878236 0.269002527 0.959886849
vn 0.593622983 -0.804515183 0.0191596616
vn 0.729947209 -0.6833992 0.0119413985
vn 0.736052692 -0.676817656 0.0120096356
vn 0.963629723 0.267241091 9.71029367e-05
vn 0.960108757 -0.279626548 0.000386389118
vn 0.963486671 0.267756224 0
vn 0.960120559 -0.279586226 0
vn -0.406151056 -0.0819355324 -0.910125196
vn -0.247131616 -0.102009989 -0.963597417
vn -0.243823424 -0.244791254 -0.938417494
vn -0.129206598 -0.264633119 -0.955654204
vn 3.70934708e-06 4.59751163e-06 1
vn -0.139628783 -0.260526836 0.955316484
vn -0.382851422 -0.103113838 0.918037236
vn -0.266273111 -0.138482749 0.953897893
vn -3.68071142e-06 4.790194e-06 -1
vn -0.153574482 0.264937371 -0.951957464
vn -0.373899966 0.109410562 -0.92099303
vn -0.253095925 0.137913421 -0.957560599
vn -0.0316693224 -0.0110404221 -0.999437451
vn -0.0318858065 0.0112699624 -0.999427974
vn -0.253322691 0.137737542 0.957525969
vn -0.16800575 0.287436485 0.942949831
vn -0.391850263 0.11466191 0.912855983
vn 3.68071142e-06 -4.790194e-06 1
vn -0.0319377407 0.01030338 0.999436736
vn -0.0320782587 -0.0074343197 0.999457717
vn -0.0883818567 -0.253997087 -0.963158429
vn -0.0595392995 -0.329953253 -0.94211781
vn -0.0609109364 -0.33756575 0.939329147
vn -0.0914514661 -0.258109719 0.961777508
vn 0.718434632 0.69559449 0.000133910857
vn 0.718909323 0.695103884 3.67869761e-05
vn 0.545046329 0.838405788 -0.000484189717
vn -0.0916012377 0.332943946 -0.938486814
vn -0.11161869 0.260304332 -0.959053159
vn -0.113614693 0.264757305 0.957598686
vn -0.0933682173 0.339373678 0.936006367
vn 0.589418113 -0.807724833 0.0129179014
vn 0.7400617 -0.672497451 0.00747340638
vn 0.74442631 -0.667660236 0.00769688096

# Mesh 'obj1' with 108 faces
g obj1
usemtl mat1
f  1/1/1 2/1/2 3/2/3
f  4/2/4 3/2/3 2/1/2
f  5/3/5 6/4/6 7/5/7
f  8/6/8 7/5/7 6/4/6
f  9/4/9 5/3/10 8/6/11
f  7/5/12 8/6/11 5/3/10
f  10/7/13 11/8/14 12/9/15
f  13/10/16 12/9/16 11/8/16
f  2/1/17 10/7/13 4/2/18
f  6/4/6 4/2/18 10/7/13
f  6/4/6 10/7/13 8/6/8
f  12/9/15 8/6/8 10/7/13
f  13/10/12 11/8/12 12/9/12
f  14/7/19 12/9/20 11/8/21
f  12/9/20 14/7/19 8/6/11
f  9/4/9 8/6/11 14/7/19
f  9/4/9 14/7/19 3/2/22
f  1/1/23 3/2/22 14/7/19
f  6/4/6 15/11/24 4/2/18
f  16/12/25 15/11/24 5/3/5
f  5/3/5 15/11/24 6/4/6
f  5/3/10 17/13/26 16/12/27
f  3/2/22 17/13/26 9/4/9
f  9/4/9 17/13/26 5/3/10
f  16/12/28 17/13/29 15/11/30
f  11/8/14 18/14/31 19/15/32
f  2/1/17 18/14/31 10/7/13
f  10/7/13 18/14/31 11/8/14
f  14/7/19 20/16/33 1/1/23
f  19/15/34 20/16/33 11/8/21
f  11/8/21 20/16/33 14/7/19
f  18/14/35 20/16/36 19/15/37
f  18/14/35 2/1/2 20/16/36
f  1/1/1 20/16/36 2/1/2
f  15/11/30 17/13/29 4/2/4
f  3/2/3 4/2/4 17/13/29
f  21/17/38 22/18/39 23/17/40
f  24/18/41 23/17/40 22/18/39
f  25/19/42 26/20/43 27/21/44
f  28/22/45 27/21/44 26/20/43
f  27/21/46 28/22/47 25/19/48
f  29/20/49 25/19/48 28/22/47
f  30/23/50 31/24/51 32/25/52
f  33/26/53 32/25/52 31/24/51
f  26/20/43 33/26/53 21/17/54
f  22/18/55 21/17/54 33/26/53
f  32/25/52 33/26/53 25/19/42
f  26/20/43 25/19/42 33/26/53
f  34/26/56 31/24/57 32/25/58
f  30/23/59 32/25/60 31/24/60
f  29/20/49 34/26/56 25/19/48
f  32/25/58 25/19/48 34/26/56
f  24/18/61 34/26/56 23/17/62
f  29/20/49 23/17/62 34/26/56
f  21/17/54 35/27/63 26/20/43
f  28/22/45 35/27/63 36/28/64
f  26/20/43 35/27/63 28/22/45
f  36/28/65 37/29/66 28/22/47
f  29/20/49 37/29/66 23/17/62
f  28/22/47 37/29/66 29/20/49
f  35/27/67 37/29/68 36/28/69
f  38/30/70 39/31/71 31/24/51
f  33/26/53 39/31/71 22/18/55
f  31/24/51 39/31/71 33/26/53
f  24/18/61 40/32/72 34/26/56
f  31/24/57 40/32/72 38/30/73
f  34/26/56 40/32/72 31/24/57
f  38/30/74 40/32/75 39/31/76
f  24/18/41 22/18/39 40/32/75
f  39/31/76 40/32/75 22/18/39
f  23/17/40 37/29/68 21/17/38
f  35/27/67 21/17/38 37/29/68
f  41/33/77 42/34/78 43/33/79
f  44/34/80 43/33/79 42/34/78
f  45/35/81 46/36/82 47/37/83
f  48/38/84 47/37/83 46/36/82
f  47/37/85 48/38/86 45/35/87
f  49/36/88 45/35/87 48/38/86
f  50/39/89 51/40/90 52/41/91
f  53/36/92 52/41/91 51/40/90
f  46/36/82 53/36/92 41/33/93
f  42/34/94 41/33/93 53/36/92
f  52/41/91 53/36/92 45/35/81
f  46/36/82 45/35/81 53/36/92
f  54/36/95 51/40/96 52/41/97
f  50/39/98 52/41/98 51/40/98
f  49/36/88 54/36/95 45/35/87
f  52/41/97 45/35/87 54/36/95
f  44/34/99 54/36/95 43/33/100
f  49/36/88 43/33/100 54/36/95
f  41/33/93 55/42/101 46/36/82
f  48/38/84 55/42/101 56/43/102
f  46/36/82 55/42/101 48/38/84
f  56/43/103 57/44/104 48/38/86
f  49/36/88 57/44/104 43/33/100
f  48/38/86 57/44/104 49/36/88
f  55/42/105 57/44/106 56/43/107
f  58/45/108 59/46/109 51/40/90
f  53/36/92 59/46/109 42/34/94
f  51/40/90 59/46/109 53/36/92
f  44/34/99 60/47/110 54/36/95
f  51/40/96 60/47/110 58/45/111
f  54/36/95 60/47/110 51/40/96
f  58/45/112 60/47/113 59/46/114
f  44/34/80 42/34/78 60/47/113
f  59/46/114 60/47/113 42/34/78
f  43/33/79 57/44/106 41/33/77
f  55/42/105 41/33/77 57/44/106

