# File produced by Open Asset Import Library (http://www.assimp.sf.net)
# (assimp v5.2.3369795085)

mtllib 03.X.mtl

# 8 vertex positions
v  52.2891998 104.596901 -69.4829025
v  -52.2891998 104.596901 -69.4829025
v  52.2891998 104.596901 69.4829025
v  -52.2891998 104.596901 69.4829025
v  52.2891998 0.0185000002 69.4829025
v  -52.2891998 0.0185000002 69.4829025
v  52.2891998 0.0185000002 -69.4829025
v  -52.2891998 0.0185000002 -69.4829025

# 15 UV coordinates
vt 1 0.528919995 0
vt 0.467119992 0.528919995 0
vt 1 0 0
vt 0.467119992 0 0
vt 0.46954 0.528919995 0
vt 0 0.528919995 0
vt 0.46954 0 0
vt 0 0 0
vt 1 0.524960041 0
vt 0.463160008 0.524960041 0
vt 0.463160008 0 0
vt 1 0.53046 0
vt 1 1 0
vt 0 0.53046 0
vt 0 1 0

# 8 vertex normals
vn 0.577350259 0.577350259 -0.577350259
vn -0.577350259 0.577350259 -0.577350259
vn 0.577350259 0.577350259 0.577350259
vn -0.577350259 0.577350259 0.577350259
vn 0.577350259 -0.577350259 0.577350259
vn -0.577350259 -0.577350259 0.577350259
vn 0.577350259 -0.577350259 -0.577350259
vn -0.577350259 -0.577350259 -0.577350259

# Mesh 'obj1' with 12 faces
g obj1
usemtl mat1
f  1/1/1 2/2/2 3/3/3
f  4/4/4 3/3/3 2/2/2
f  3/5/3 4/6/4 5/7/5
f  6/8/6 5/7/5 4/6/4
f  5/9/5 6/10/6 7/3/7
f  8/11/8 7/3/7 6/10/6
f  7/8/7 8/7/8 1/6/1
f  2/5/2 1/6/1 8/7/8
f  7/12/7 1/13/1 5/14/5
f  3/15/3 5/14/5 1/13/1
f  2/13/2 8/12/8 4/15/4
f  6/14/6 4/15/4 8/12/8

