# File produced by Open Asset Import Library (http://www.assimp.sf.net)
# (assimp v5.2.3369795085)

mtllib 05.X.mtl

# 38 vertex positions
v  10.6892338 3.06373405 2.25108814
v  5.63973904 4.76002932 -1.62347388
v  5.43157816 4.90476227 3.3149209
v  9.7299366 2.49692178 -3.326334
v  3.72639513 1.580145 7.26826286
v  9.20938206 0.239874989 6.80638981
v  -0.812747002 -1.86759102 -4.1488781
v  -1.48934591 -0.963742018 -1.35329902
v  -1.01383805 2.35582495 -2.942029
v  -1.74891603 -1.35228896 4.46823978
v  -1.51318204 2.99566007 5.04585934
v  0.425512999 -4.59661055 -2.77416706
v  1.84506798 -2.21856594 -5.33714294
v  6.58469486 -2.99222589 7.51894474
v  -0.974852026 4.53459692 0.912837982
v  4.92486095 2.68558979 -4.66327095
v  9.04475212 -3.66236115 6.02343798
v  4.16958332 -5.43450689 4.86405897
v  7.51106691 -5.90668201 5.07171488
v  2.49055886 -2.49369001 6.08817911
v  4.73013306 -2.13514018 -3.25856304
v  2.72114205 -4.58701611 -3.25573492
v  10.8807297 -2.37996387 1.54731989
v  10.3980513 -1.69245696 -3.19109488
v  7.42218685 -3.96192694 -2.90869904
v  0.933441997 -4.6804409 1.02797794
v  2.72427297 -5.15200996 0.991415977
v  1.17634702 -2.76830912 2.07524681
v  3.24755406 -3.74942303 1.6452899
v  7.38774586 -5.75841379 0.196041003
v  4.29260111 -4.68609667 0.580951989
v  -8.75993156 4.71366978 0.96697402
v  -8.69589806 2.74831104 5.28017902
v  -9.01828957 1.95192599 -2.82981801
v  -9.01828957 -1.13029099 -1.30017292
v  7.82790422 0.860520005 -5.31906366
v  7.51591492 -2.39016485 -4.37229013
v  -8.78881836 -1.46571195 4.2829051

# 65 UV coordinates
vt 0.704770029 0.242900014 0
vt 0.799459994 0.571759999 0
vt 0.554149985 0.577829957 0
vt 0.811209977 0.262080014 0
vt 0.395420015 0.580969989 0
vt 0.518589973 0.29786998 0
vt 0.981639981 0.872569978 0
vt 0.98198998 0.963050008 0
vt 0.918479979 0.952189982 0
vt 0.398860008 0.988179982 0
vt 0.506820023 0.986930013 0
vt 0.0716300011 0.61093998 0
vt 0.0275800005 0.50108999 0
vt 0.0196599998 0.662119985 0
vt 0.97043997 0.843119979 0
vt 0.347959995 0.492169976 0
vt 0.711950004 0.97657001 0
vt 0.942640007 0.589130044 0
vt 0.472519994 0.224139988 0
vt 0.36552 0.179270029 0
vt 0.264420003 0.270690024 0
vt 0.425489992 0.295830011 0
vt 0.368809998 0.319199979 0
vt 0.225569993 0.179270029 0
vt 0.479689986 0.895309985 0
vt 0.473280013 0.849070013 0
vt 0.378300011 0.917490005 0
vt 0.0888300017 0.772819996 0
vt 0.198400006 0.713500023 0
vt 0.136950001 0.677529991 0
vt 0.714299977 0.178269982 0
vt 0.435840011 0.567080021 0
vt 0.372550011 0.810959995 0
vt 0.284370005 0.74285996 0
vt 0.126110002 0.417400002 0
vt 0.180539995 0.451279998 0
vt 0.144260004 0.365930021 0
vt 0.203250006 0.425769985 0
vt 0.0792500004 0.179270029 0
vt 0.340259999 0.747179985 0
vt 0.315109998 0.576810002 0
vt 0.224329993 0.501109958 0
vt 0.532159984 0.000349998474 0
vt 0.594959974 0.00135999918 0
vt 0.573599994 0.156710029 0
vt 0.626569986 0.156710029 0
vt 0.441390008 0.156710029 0
vt 0.407079995 0.000800013542 0
vt 0.506009996 0.156710029 0
vt 0.466390014 0.000349998474 0
vt 0.384759992 -0.000370025635 0
vt 0.384759992 0.156710029 0
vt 0.288020015 0.93870002 0
vt 0.383579999 0.960290015 0
vt 0.281610012 0.892459989 0
vt 0.945890009 0.389970005 0
vt 0.859179974 0.185649991 0
vt 0.272249997 0.822520018 0
vt 0.98743999 0.331399977 0
vt 0.991639972 0.640879989 0
vt 0.326559991 0.00103998184 0
vt 0.290250003 0.156710029 0
vt 0.62292999 0.00147002935 0
vt 0.663519979 0.156710029 0
vt 0.420859993 0.00717997551 0

# 38 vertex normals
vn 0.809418678 0.580123425 0.168517649
vn 0.104982771 0.954309404 -0.313643247
vn 0.140280947 0.939873517 0.342138827
vn 0.698908567 0.541298509 -0.488490194
vn -0.112699687 0.360016465 0.936902821
vn 0.6157493 0.253002405 0.75956732
vn -0.757785797 -0.199052259 -0.637368679
vn -0.654677808 -0.695133805 -0.329068303
vn -0.300271451 0.503414631 -0.822502732
vn -0.274907053 -0.746728897 0.622030556
vn -0.156579703 0.572589576 0.817143738
vn -0.502980888 -0.827966392 -0.285625309
vn -0.00122668082 -0.254731178 -0.977348685
vn 0.0605099909 -0.383955181 0.932210743
vn -0.103460647 1.00124943 -0.0830391794
vn -0.0479515716 0.495375633 -0.878864944
vn 0.667011142 -0.468612909 0.59632045
vn -0.482307255 -0.822334111 0.333536148
vn 0.25253728 -0.844846129 0.492503643
vn -0.503491402 -0.515547931 0.707677007
vn 0.135448605 -0.600808263 -0.800489306
vn 0.341748029 -0.838272989 -0.447891295
vn 0.950244844 -0.342183918 0.00669922912
vn 0.831079483 -0.327500761 -0.47132799
vn 0.0903947055 -0.835133374 -0.560786068
vn -0.52712357 -0.720541894 0.472292423
vn 0.31911999 -0.873069763 0.394982964
vn -0.509144723 -0.782433808 0.385576129
vn -0.376718342 -0.894091249 0.280685097
vn 0.211875185 -0.935216486 -0.31714192
vn -0.583188117 -0.745810926 -0.351791978
vn -0.593459725 0.814494014 -0.0671193823
vn -0.575600564 0.37470457 0.740527213
vn -0.612968147 0.201396927 -0.777051687
vn -0.627987921 -0.665849984 -0.427053839
vn 0.182473615 0.0976394787 -0.988569617
vn 0.0253322106 -0.492895693 -0.881199241
vn -0.58634454 -0.660520196 0.489911377

# Mesh 'obj1' with 72 faces
g obj1
usemtl ude
f  1/1/1 2/2/2 3/3/3
f  2/2/2 1/1/1 4/4/4
f  3/3/3 5/5/5 6/6/6
f  7/7/7 8/8/8 9/9/9
f  10/10/10 5/5/5 11/11/11
f  12/12/12 8/13/8 7/14/7
f  7/7/7 9/9/9 13/15/13
f  6/6/6 1/1/1 3/3/3
f  5/5/5 14/16/14 6/6/6
f  2/2/2 9/9/9 15/17/15
f  4/4/4 16/18/16 2/2/2
f  2/2/2 15/17/15 3/3/3
f  6/6/6 14/16/14 17/19/17
f  14/20/14 18/21/18 17/22/17
f  17/22/17 18/21/18 19/23/19
f  14/20/14 20/24/20 18/21/18
f  9/9/9 16/18/16 13/15/13
f  2/2/2 16/18/16 9/9/9
f  15/17/15 11/11/11 3/3/3
f  5/5/5 3/3/3 11/11/11
f  16/25/16 21/26/21 13/27/13
f  13/28/13 21/29/21 22/30/22
f  17/19/17 23/31/23 6/6/6
f  6/6/6 23/31/23 1/1/1
f  19/23/19 23/32/23 17/22/17
f  24/33/24 23/32/23 25/34/25
f  22/30/22 12/12/12 13/28/13
f  13/28/13 12/12/12 7/14/7
f  12/12/12 26/35/26 8/13/8
f  22/30/22 26/35/26 12/12/12
f  22/30/22 27/36/27 26/35/26
f  21/29/21 27/36/27 22/30/22
f  27/36/27 28/37/28 26/35/26
f  21/29/21 29/38/29 27/36/27
f  20/24/20 29/38/29 18/21/18
f  20/24/20 28/37/28 29/38/29
f  29/38/29 28/37/28 27/36/27
f  10/39/10 8/13/8 28/37/28
f  28/37/28 8/13/8 26/35/26
f  10/39/10 28/37/28 20/24/20
f  5/5/5 20/40/20 14/16/14
f  10/10/10 20/40/20 5/5/5
f  18/21/18 30/41/30 19/23/19
f  25/34/25 30/41/30 21/29/21
f  23/32/23 30/41/30 25/34/25
f  19/23/19 30/41/30 23/32/23
f  30/41/30 31/42/31 21/29/21
f  18/21/18 31/42/31 30/41/30
f  29/38/29 31/42/31 18/21/18
f  21/29/21 31/42/31 29/38/29
f  32/43/32 33/44/33 15/45/15
f  11/46/11 15/45/15 33/44/33
f  9/47/9 34/48/34 15/49/15
f  32/50/32 15/49/15 34/48/34
f  35/51/35 34/48/34 8/52/8
f  9/47/9 8/52/8 34/48/34
f  16/53/16 36/54/36 21/55/21
f  4/4/4 36/56/36 16/18/16
f  24/57/24 36/56/36 4/4/4
f  25/34/25 37/58/37 24/33/24
f  21/29/21 37/58/37 25/34/25
f  36/56/36 37/59/37 21/60/21
f  24/57/24 37/59/37 36/56/36
f  35/61/35 8/62/8 38/63/38
f  10/64/10 38/63/38 8/62/8
f  38/63/38 10/64/10 33/44/33
f  11/46/11 33/44/33 10/64/10
f  24/57/24 4/4/4 23/31/23
f  23/31/23 4/4/4 1/1/1
f  33/65/33 35/65/35 38/65/38
f  34/65/34 35/65/35 32/65/32
f  32/65/32 35/65/35 33/65/33

