# File produced by Open Asset Import Library (http://www.assimp.sf.net)
# (assimp v5.2.3369795085)

mtllib 09.X.mtl

# 95 vertex positions
v  10.0872002 81.3632965 13.8837996
v  0 84.7769012 0
v  0 81.3632965 17.1613007
v  16.3213997 81.3632965 5.30310011
v  16.3213997 81.3632965 -5.30310011
v  10.0872002 81.3632965 -13.8837996
v  0 81.3632965 -17.1613007
v  -10.0872002 81.3632965 -13.8837996
v  -16.3213997 81.3632965 -5.30310011
v  -16.3213997 81.3632965 5.30310011
v  -10.0871 81.3632965 13.8837996
v  18.6385994 71.6423035 25.6539001
v  0 71.6423035 31.7098999
v  30.1578999 71.6423035 9.79889965
v  30.1578999 71.6423035 -9.79889965
v  18.6385994 71.6423035 -25.6539001
v  0 71.6423035 -31.7098999
v  -18.6385994 71.6423035 -25.6539001
v  -30.1578999 71.6423035 -9.79889965
v  -30.1578999 71.6423035 9.79889965
v  -18.6385994 71.6423035 25.6539001
v  24.3525009 57.0936012 33.5183983
v  0 57.0936012 41.4309998
v  39.4031982 57.0936012 12.8029003
v  39.4031982 57.0936012 -12.8029003
v  24.3525009 57.0936012 -33.5183983
v  0 57.0936012 -41.4309998
v  -24.3525009 57.0936012 -33.5183983
v  -39.4031982 57.0936012 -12.8029003
v  -39.4031982 57.0936012 12.8029003
v  -24.3525009 57.0936012 33.5183983
v  26.3589993 39.9323997 36.2799988
v  0 39.9323997 44.8446007
v  42.6497002 39.9323997 13.8577003
v  42.6497002 39.9323997 -13.8577003
v  26.3589993 39.9323997 -36.2799988
v  0 39.9323997 -44.8446007
v  -26.3589993 39.9323997 -36.2799988
v  -42.6497002 39.9323997 -13.8577003
v  -42.6497002 39.9323997 13.8577003
v  -26.3589993 39.9323997 36.2801018
v  24.3525009 22.7710991 33.5183983
v  0 22.7710991 41.4309998
v  39.4031982 22.7710991 12.8029003
v  39.4031982 22.7710991 -12.8029003
v  24.3525009 22.7710991 -33.5183983
v  0 22.7710991 -41.4309998
v  -24.3525009 22.7710991 -33.5183983
v  -39.4031982 22.7710991 -12.8029003
v  -39.4031982 22.7710991 12.8029003
v  -24.3525009 22.7710991 33.5183983
v  18.6385994 8.22239971 25.6539001
v  0 8.22239971 31.7098999
v  30.1578999 8.22239971 9.79889965
v  30.1578999 8.22239971 -9.79889965
v  18.6385994 8.22239971 -25.6539001
v  0 8.22239971 -31.7098999
v  -18.6385994 8.22239971 -25.6539001
v  -30.1578999 8.22239971 -9.79889965
v  -30.1578999 8.22239971 9.79889965
v  -18.6385994 8.22239971 25.6539001
v  10.0872002 -1.49860001 13.8837996
v  0 -1.49860001 17.1613007
v  16.3213997 -1.49860001 5.30310011
v  16.3213997 -1.49860001 -5.30310011
v  10.0872002 -1.49860001 -13.8837996
v  0 -1.49860001 -17.1613007
v  -10.0872002 -1.49860001 -13.8837996
v  -16.3213997 -1.49860001 -5.30310011
v  -16.3213997 -1.49860001 5.30310011
v  -10.0871 -1.49860001 13.8837996
v  0 -4.91219997 0
v  8.26640034 91.3378983 4.77260017
v  0 91.3378983 9.54520035
v  8.26640034 79.8597031 4.77260017
v  0 79.8597031 9.54520035
v  8.26640034 91.3378983 -4.77260017
v  8.26640034 79.8597031 -4.77260017
v  0 91.3378983 -9.54520035
v  0 79.8597031 -9.54520035
v  -8.26640034 91.3378983 -4.77260017
v  -8.26640034 79.8597031 -4.77260017
v  -8.26640034 91.3378983 4.77260017
v  -8.26640034 79.8597031 4.77260017
v  0 91.3378983 0
v  0 79.8597031 0
v  1.88870001 106.053299 -1.09039998
v  0.944299996 106.053299 1.63569999
v  1.88870001 89.4509964 -1.09039998
v  0.944299996 89.4509964 1.63569999
v  -0.944299996 106.053299 -1.63569999
v  -0.944299996 89.4509964 -1.63569999
v  -1.88870001 106.053299 1.09039998
v  -1.88870001 89.4509964 1.09039998
v  0 89.4509964 0

# 143 UV coordinates
vt 0.0083999997 0.757239997 0
vt -0.0554499999 0.85777998 0
vt -0.119309999 0.757239997 0
vt 0.136109993 0.757239997 0
vt 0.0722599998 0.85777998 0
vt 0.263819993 0.757239997 0
vt 0.199970007 0.85777998 0
vt 0.391530007 0.757239997 0
vt 0.327679992 0.85777998 0
vt 0.519240022 0.757239997 0
vt 0.455390006 0.85777998 0
vt 0.646950006 0.757239997 0
vt 0.583100021 0.85777998 0
vt 0.774659991 0.757239997 0
vt 0.710810006 0.85777998 0
vt 0.902369976 0.757239997 0
vt 0.83851999 0.85777998 0
vt 1.03007996 0.757239997 0
vt 0.966229975 0.85777998 0
vt 1.15778995 0.757239997 0
vt 1.09394002 0.85777998 0
vt 0.0083999997 0.656700015 0
vt -0.119309999 0.656700015 0
vt 0.136109993 0.656700015 0
vt 0.263819993 0.656700015 0
vt 0.391530007 0.656700015 0
vt 0.519240022 0.656700015 0
vt 0.646950006 0.656700015 0
vt 0.774659991 0.656700015 0
vt 0.902369976 0.656700015 0
vt 1.03007996 0.656700015 0
vt 1.15778995 0.656700015 0
vt 0.0083999997 0.556159973 0
vt -0.119309999 0.556159973 0
vt 0.136109993 0.556159973 0
vt 0.263819993 0.556159973 0
vt 0.391530007 0.556159973 0
vt 0.519240022 0.556159973 0
vt 0.646950006 0.556159973 0
vt 0.774659991 0.556159973 0
vt 0.902369976 0.556159973 0
vt 1.03007996 0.556159973 0
vt 1.15778995 0.556159973 0
vt 0.0083999997 0.455619991 0
vt -0.119309999 0.455619991 0
vt 0.136109993 0.455619991 0
vt 0.263819993 0.455619991 0
vt 0.391530007 0.455619991 0
vt 0.519240022 0.455619991 0
vt 0.646950006 0.455619991 0
vt 0.774659991 0.455619991 0
vt 0.902369976 0.455619991 0
vt 1.03007996 0.455619991 0
vt 1.15778995 0.455619991 0
vt 0.0083999997 0.355069995 0
vt -0.119309999 0.355069995 0
vt 0.136109993 0.355069995 0
vt 0.263819993 0.355069995 0
vt 0.391530007 0.355069995 0
vt 0.519240022 0.355069995 0
vt 0.646950006 0.355069995 0
vt 0.774659991 0.355069995 0
vt 0.902369976 0.355069995 0
vt 1.03007996 0.355069995 0
vt 1.15778995 0.355069995 0
vt 0.0083999997 0.254530013 0
vt -0.119309999 0.254530013 0
vt 0.136109993 0.254530013 0
vt 0.263819993 0.254530013 0
vt 0.391530007 0.254530013 0
vt 0.519240022 0.254530013 0
vt 0.646950006 0.254530013 0
vt 0.774659991 0.254530013 0
vt 0.902369976 0.254530013 0
vt 1.03007996 0.254530013 0
vt 1.15778995 0.254530013 0
vt 0.0083999997 0.153989971 0
vt -0.119309999 0.153989971 0
vt 0.136109993 0.153989971 0
vt 0.263819993 0.153989971 0
vt 0.391530007 0.153989971 0
vt 0.519240022 0.153989971 0
vt 0.646950006 0.153989971 0
vt 0.774659991 0.153989971 0
vt 0.902369976 0.153989971 0
vt 1.03007996 0.153989971 0
vt 1.15778995 0.153989971 0
vt -0.0554499999 0.0534499884 0
vt 0.0722599998 0.0534499884 0
vt 0.199970007 0.0534499884 0
vt 0.327679992 0.0534499884 0
vt 0.455390006 0.0534499884 0
vt 0.583100021 0.0534499884 0
vt 0.710810006 0.0534499884 0
vt 0.83851999 0.0534499884 0
vt 0.966229975 0.0534499884 0
vt 1.09394002 0.0534499884 0
vt 0.097740002 1.00018001 0
vt 0.00341999996 1.00018001 0
vt 0.097740002 0.892729998 0
vt 0.00341999996 0.892729998 0
vt 0.192049995 1.00018001 0
vt 0.192049995 0.892729998 0
vt 0.286370009 1.00018001 0
vt 0.286370009 0.892729998 0
vt 0.380679995 1.00018001 0
vt 0.380679995 0.892729998 0
vt 0.474999994 1.00018001 0
vt 0.474999994 0.892729998 0
vt 0.569310009 1.00018001 0
vt 0.569310009 0.892729998 0
vt 0.097740002 0.993939996 0
vt 0.0505799986 0.993939996 0
vt 0.00341999996 0.993939996 0
vt 0.192049995 0.993939996 0
vt 0.144899994 0.993939996 0
vt 0.286370009 0.993939996 0
vt 0.239209995 0.993939996 0
vt 0.380679995 0.993939996 0
vt 0.333530009 0.993939996 0
vt 0.474999994 0.993939996 0
vt 0.427839994 0.993939996 0
vt 0.569310009 0.993939996 0
vt 0.522159994 0.993939996 0
vt 0.0505799986 0.892729998 0
vt 0.144899994 0.892729998 0
vt 0.239209995 0.892729998 0
vt 0.333530009 0.892729998 0
vt 0.427839994 0.892729998 0
vt 0.522159994 0.892729998 0
vt 0.61729002 0.946919978 0
vt 0.615339994 0.90486002 0
vt 0.931680024 0.946500003 0
vt 0.929729998 0.904439986 0
vt 0.619229972 0.988979995 0
vt 0.933619976 0.988560021 0
vt 0.633979976 0.988950014 0
vt 0.63301003 0.967920005 0
vt 0.632040024 0.94690001 0
vt 0.631060004 0.925870001 0
vt 0.630089998 0.904839993 0
vt 0.930710018 0.925469995 0
vt 0.93265003 0.967530012 0

# 94 vertex normals
vn 0.243876532 0.90986377 0.335666806
vn -8.38488319e-08 1 9.60889963e-08
vn -6.60486364e-07 0.90986383 0.414907008
vn 0.39460063 0.90986371 0.128212422
vn 0.394600719 0.909863591 -0.128212705
vn 0.24387677 0.90986371 -0.335666716
vn -3.1896807e-08 0.909863889 -0.414906889
vn -0.243876532 0.90986377 -0.335666806
vn -0.39460063 0.90986371 -0.128212422
vn -0.394600242 0.90986371 0.12821348
vn -0.243874654 0.909864187 0.335667014
vn 0.426404655 0.688281059 0.586897135
vn 2.86950836e-07 0.688281834 0.725443363
vn 0.689938307 0.688281298 0.224173933
vn 0.689938307 0.688281238 -0.224174276
vn 0.426405132 0.688281238 -0.586896598
vn -3.86042444e-07 0.688281715 -0.725443482
vn -0.426404655 0.688281059 -0.586897135
vn -0.689938307 0.688281298 -0.224173933
vn -0.689938307 0.688281238 0.224174276
vn -0.426404923 0.688281536 0.58689636
vn 0.54613626 0.369720459 0.751692712
vn 5.08289247e-07 0.369721681 0.929142535
vn 0.88366735 0.369720608 0.287121326
vn 0.88366729 0.369720966 -0.287121087
vn 0.546136379 0.369720936 -0.751692414
vn -5.05630965e-07 0.369721651 -0.929142594
vn -0.54613626 0.369720459 -0.751692712
vn -0.88366735 0.369720608 -0.287121326
vn -0.88366729 0.369721293 0.28712067
vn -0.546135783 0.369722694 0.751691997
vn 0.587786615 1.00075692e-06 0.809015989
vn 1.17796503e-06 1.00939758e-06 1
vn 0.951056838 7.61238709e-07 0.309016019
vn 0.951056838 2.960887e-07 -0.309016049
vn 0.587786555 6.16447409e-08 -0.809016049
vn 8.50538573e-09 5.31803892e-07 -1
vn -0.587786615 1.00075692e-06 -0.809015989
vn -0.951056838 7.61238709e-07 -0.309016019
vn -0.951057076 -4.78248818e-09 0.309015334
vn -0.587785721 2.42386932e-07 0.809016645
vn 0.546136558 -0.369720429 0.751692533
vn 1.34547236e-07 -0.369721681 0.929142535
vn 0.883667469 -0.369720459 0.287121147
vn 0.883667588 -0.369720042 -0.287121326
vn 0.54613632 -0.369720012 -0.751692951
vn 5.1321058e-07 -0.369721204 -0.929142714
vn -0.546136558 -0.369720429 -0.751692533
vn -0.883667469 -0.369720459 -0.287121147
vn -0.883667588 -0.369720042 0.287121326
vn -0.546136498 -0.369721949 0.751691818
vn 0.426405221 -0.688281178 0.586896598
vn -3.81028258e-07 -0.688281715 0.725443542
vn 0.689938366 -0.688281178 0.224174291
vn 0.689938426 -0.688281238 -0.224173948
vn 0.426404655 -0.688281059 -0.586897135
vn 3.8677706e-07 -0.688281715 -0.725443542
vn -0.426405221 -0.688281178 -0.586896598
vn -0.689938366 -0.688281178 -0.224174291
vn -0.689938068 -0.688281476 0.224174112
vn -0.426404625 -0.688281476 0.586896658
vn 0.243876845 -0.909863651 0.335666746
vn -3.73794535e-07 -0.909863889 0.414906859
vn 0.394600779 -0.909863591 0.12821272
vn 0.394600689 -0.909863651 -0.128212437
vn 0.243876547 -0.90986371 -0.335666806
vn 3.01879908e-08 -0.909863889 -0.414906919
vn -0.243876845 -0.909863651 -0.335666746
vn -0.394600779 -0.909863591 -0.12821272
vn -0.394600481 -0.909863472 0.128214285
vn -0.243875608 -0.909864068 0.335666656
vn -9.0061107e-08 -1 9.7687284e-08
vn 0.686243474 0.609994233 0.39620319
vn -6.15517015e-09 0.609994411 0.792405725
vn 0.686243474 -0.609994233 0.39620319
vn -5.63253355e-09 -0.609994411 0.792405725
vn 0.686243474 0.609994173 -0.39620319
vn 0.686243474 -0.609994173 -0.39620319
vn -8.64116156e-09 0.609994411 -0.792405725
vn -6.15517015e-09 -0.609994411 -0.792405725
vn -0.686243474 0.609994233 -0.39620319
vn -0.686243474 -0.609994233 -0.39620319
vn -0.686243474 0.609994173 0.39620319
vn -0.686243474 -0.609994173 0.39620319
vn 0 1 0
vn 0 -1 0
vn 0.711463571 0.570185184 -0.410741359
vn 0.405404776 0.585264325 0.702219784
vn 0.711463571 -0.570185184 -0.410741329
vn 0.405404776 -0.585264325 0.702219784
vn -0.405404776 0.585264385 -0.702219725
vn -0.405404776 -0.585264325 -0.702219784
vn -0.711463571 0.570185184 0.410741359
vn -0.711463571 -0.570185184 0.410741329

# Mesh 'obj1' with 178 faces
g obj1
usemtl ude
f  1/1/1 2/2/2 3/3/3
f  4/4/4 2/5/2 1/1/1
f  5/6/5 2/7/2 4/4/4
f  6/8/6 2/9/2 5/6/5
f  7/10/7 2/11/2 6/8/6
f  8/12/8 2/13/2 7/10/7
f  9/14/9 2/15/2 8/12/8
f  10/16/10 2/17/2 9/14/9
f  11/18/11 2/19/2 10/16/10
f  3/20/3 2/21/2 11/18/11
f  1/1/1 3/3/3 12/22/12
f  13/23/13 12/22/12 3/3/3
f  4/4/4 1/1/1 14/24/14
f  12/22/12 14/24/14 1/1/1
f  5/6/5 4/4/4 15/25/15
f  14/24/14 15/25/15 4/4/4
f  6/8/6 5/6/5 16/26/16
f  15/25/15 16/26/16 5/6/5
f  7/10/7 6/8/6 17/27/17
f  16/26/16 17/27/17 6/8/6
f  8/12/8 7/10/7 18/28/18
f  17/27/17 18/28/18 7/10/7
f  9/14/9 8/12/8 19/29/19
f  18/28/18 19/29/19 8/12/8
f  10/16/10 9/14/9 20/30/20
f  19/29/19 20/30/20 9/14/9
f  11/18/11 10/16/10 21/31/21
f  20/30/20 21/31/21 10/16/10
f  3/20/3 11/18/11 13/32/13
f  21/31/21 13/32/13 11/18/11
f  12/22/12 13/23/13 22/33/22
f  23/34/23 22/33/22 13/23/13
f  14/24/14 12/22/12 24/35/24
f  22/33/22 24/35/24 12/22/12
f  15/25/15 14/24/14 25/36/25
f  24/35/24 25/36/25 14/24/14
f  16/26/16 15/25/15 26/37/26
f  25/36/25 26/37/26 15/25/15
f  17/27/17 16/26/16 27/38/27
f  26/37/26 27/38/27 16/26/16
f  18/28/18 17/27/17 28/39/28
f  27/38/27 28/39/28 17/27/17
f  19/29/19 18/28/18 29/40/29
f  28/39/28 29/40/29 18/28/18
f  20/30/20 19/29/19 30/41/30
f  29/40/29 30/41/30 19/29/19
f  21/31/21 20/30/20 31/42/31
f  30/41/30 31/42/31 20/30/20
f  13/32/13 21/31/21 23/43/23
f  31/42/31 23/43/23 21/31/21
f  22/33/22 23/34/23 32/44/32
f  33/45/33 32/44/32 23/34/23
f  24/35/24 22/33/22 34/46/34
f  32/44/32 34/46/34 22/33/22
f  25/36/25 24/35/24 35/47/35
f  34/46/34 35/47/35 24/35/24
f  26/37/26 25/36/25 36/48/36
f  35/47/35 36/48/36 25/36/25
f  27/38/27 26/37/26 37/49/37
f  36/48/36 37/49/37 26/37/26
f  28/39/28 27/38/27 38/50/38
f  37/49/37 38/50/38 27/38/27
f  29/40/29 28/39/28 39/51/39
f  38/50/38 39/51/39 28/39/28
f  30/41/30 29/40/29 40/52/40
f  39/51/39 40/52/40 29/40/29
f  31/42/31 30/41/30 41/53/41
f  40/52/40 41/53/41 30/41/30
f  23/43/23 31/42/31 33/54/33
f  41/53/41 33/54/33 31/42/31
f  32/44/32 33/45/33 42/55/42
f  43/56/43 42/55/42 33/45/33
f  34/46/34 32/44/32 44/57/44
f  42/55/42 44/57/44 32/44/32
f  35/47/35 34/46/34 45/58/45
f  44/57/44 45/58/45 34/46/34
f  36/48/36 35/47/35 46/59/46
f  45/58/45 46/59/46 35/47/35
f  37/49/37 36/48/36 47/60/47
f  46/59/46 47/60/47 36/48/36
f  38/50/38 37/49/37 48/61/48
f  47/60/47 48/61/48 37/49/37
f  39/51/39 38/50/38 49/62/49
f  48/61/48 49/62/49 38/50/38
f  40/52/40 39/51/39 50/63/50
f  49/62/49 50/63/50 39/51/39
f  41/53/41 40/52/40 51/64/51
f  50/63/50 51/64/51 40/52/40
f  33/54/33 41/53/41 43/65/43
f  51/64/51 43/65/43 41/53/41
f  42/55/42 43/56/43 52/66/52
f  53/67/53 52/66/52 43/56/43
f  44/57/44 42/55/42 54/68/54
f  52/66/52 54/68/54 42/55/42
f  45/58/45 44/57/44 55/69/55
f  54/68/54 55/69/55 44/57/44
f  46/59/46 45/58/45 56/70/56
f  55/69/55 56/70/56 45/58/45
f  47/60/47 46/59/46 57/71/57
f  56/70/56 57/71/57 46/59/46
f  48/61/48 47/60/47 58/72/58
f  57/71/57 58/72/58 47/60/47
f  49/62/49 48/61/48 59/73/59
f  58/72/58 59/73/59 48/61/48
f  50/63/50 49/62/49 60/74/60
f  59/73/59 60/74/60 49/62/49
f  51/64/51 50/63/50 61/75/61
f  60/74/60 61/75/61 50/63/50
f  43/65/43 51/64/51 53/76/53
f  61/75/61 53/76/53 51/64/51
f  52/66/52 53/67/53 62/77/62
f  63/78/63 62/77/62 53/67/53
f  54/68/54 52/66/52 64/79/64
f  62/77/62 64/79/64 52/66/52
f  55/69/55 54/68/54 65/80/65
f  64/79/64 65/80/65 54/68/54
f  56/70/56 55/69/55 66/81/66
f  65/80/65 66/81/66 55/69/55
f  57/71/57 56/70/56 67/82/67
f  66/81/66 67/82/67 56/70/56
f  58/72/58 57/71/57 68/83/68
f  67/82/67 68/83/68 57/71/57
f  59/73/59 58/72/58 69/84/69
f  68/83/68 69/84/69 58/72/58
f  60/74/60 59/73/59 70/85/70
f  69/84/69 70/85/70 59/73/59
f  61/75/61 60/74/60 71/86/71
f  70/85/70 71/86/71 60/74/60
f  53/76/53 61/75/61 63/87/63
f  71/86/71 63/87/63 61/75/61
f  62/77/62 63/78/63 72/88/72
f  64/79/64 62/77/62 72/89/72
f  65/80/65 64/79/64 72/90/72
f  66/81/66 65/80/65 72/91/72
f  67/82/67 66/81/66 72/92/72
f  68/83/68 67/82/67 72/93/72
f  69/84/69 68/83/68 72/94/72
f  70/85/70 69/84/69 72/95/72
f  71/86/71 70/85/70 72/96/72
f  63/87/63 71/86/71 72/97/72
f  73/98/73 74/99/74 75/100/75
f  76/101/76 75/100/75 74/99/74
f  77/102/77 73/98/73 78/103/78
f  75/100/75 78/103/78 73/98/73
f  79/104/79 77/102/77 80/105/80
f  78/103/78 80/105/80 77/102/77
f  81/106/81 79/104/79 82/107/82
f  80/105/80 82/107/82 79/104/79
f  83/108/83 81/106/81 84/109/84
f  82/107/82 84/109/84 81/106/81
f  74/110/74 83/108/83 76/111/76
f  84/109/84 76/111/76 83/108/83
f  73/112/73 85/113/85 74/114/74
f  77/115/77 85/116/85 73/112/73
f  79/117/79 85/118/85 77/115/77
f  81/119/81 85/120/85 79/117/79
f  83/121/83 85/122/85 81/119/81
f  74/123/74 85/124/85 83/121/83
f  76/101/76 86/125/86 75/100/75
f  75/100/75 86/126/86 78/103/78
f  78/103/78 86/127/86 80/105/80
f  80/105/80 86/128/86 82/107/82
f  82/107/82 86/129/86 84/109/84
f  84/109/84 86/130/86 76/111/76
f  87/131/87 88/132/88 89/133/89
f  90/134/90 89/133/89 88/132/88
f  91/135/91 87/131/87 92/136/92
f  89/133/89 92/136/92 87/131/87
f  93/131/93 91/132/91 94/133/94
f  92/134/92 94/133/94 91/132/91
f  88/135/88 93/131/93 90/136/90
f  94/133/94 90/136/90 93/131/93
f  91/137/91 88/138/88 87/139/87
f  93/139/93 88/140/88 91/141/91
f  90/134/90 95/142/86 89/133/89
f  89/133/89 95/143/86 92/136/92
f  92/134/92 95/142/86 94/133/94
f  94/133/94 95/143/86 90/136/90

