# File produced by Open Asset Import Library (http://www.assimp.sf.net)
# (assimp v5.2.3369795085)

mtllib 10.X.mtl

# 129 vertex positions
v  4.19579983 14.256012 4.2047925
v  1.34335313e-22 15.4363098 0.00889256038
v  1.34335313e-22 14.256012 5.94279242
v  5.93380022 14.256012 0.00889256038
v  4.19579983 14.256012 -4.18690777
v  1.34335313e-22 14.256012 -5.92490768
v  -4.19589996 14.256012 -4.18690777
v  -5.93380022 14.256012 0.00889256038
v  -4.19589996 14.256012 4.2047925
v  7.75290012 10.8948059 7.76189232
v  1.34335313e-22 10.8948059 10.9731922
v  10.9643002 10.8948059 0.00889256038
v  7.75290012 10.8948059 -7.74400759
v  1.34335313e-22 10.8948059 -10.9554081
v  -7.75290012 10.8948059 -7.74400759
v  -10.9643002 10.8948059 0.00889256038
v  -7.75290012 10.8948059 7.76189232
v  10.1296997 5.86430359 10.1385927
v  1.34335313e-22 5.86430359 14.3344927
v  14.3254995 5.86430359 0.00889256038
v  10.1296997 5.86430359 -10.1207075
v  1.34335313e-22 5.86430359 -14.3166075
v  -10.1296997 5.86430359 -10.1207075
v  -14.3254995 5.86430359 0.00889256038
v  -10.1296997 5.86430359 10.1385927
v  10.9643002 -0.0694885254 10.9731922
v  1.34335313e-22 -0.0694885254 15.5147924
v  15.5058002 -0.0694885254 0.00889256038
v  10.9643002 -0.0694885254 -10.9554081
v  1.34335313e-22 -0.0694885254 -15.4969072
v  -10.9643002 -0.0694885254 -10.955308
v  -15.5058002 -0.0694885254 0.00889256038
v  -10.9643002 -0.0694885254 10.9731922
v  10.1296997 -6.0032959 10.1385927
v  1.34335313e-22 -6.0032959 14.3344927
v  14.3254995 -6.0032959 0.00889256038
v  10.1296997 -6.0032959 -10.1207075
v  1.34335313e-22 -6.0032959 -14.3166075
v  -10.1296997 -6.0032959 -10.1207075
v  -14.3254995 -6.0032959 0.00889256038
v  -10.1296997 -6.0032959 10.1385927
v  7.75290012 -11.0337982 7.76189232
v  1.34335313e-22 -11.0337982 10.9731922
v  10.9643002 -11.0337982 0.00889256038
v  7.75290012 -11.0337982 -7.74400759
v  1.34335313e-22 -11.0337982 -10.9554081
v  -7.75290012 -11.0337982 -7.74400759
v  -10.9643002 -11.0337982 0.00889256038
v  -7.75290012 -11.0337982 7.76189232
v  4.19579983 -14.394989 4.2047925
v  1.34335313e-22 -14.394989 5.94279242
v  5.93380022 -14.394989 0.00889256038
v  4.19579983 -14.394989 -4.18690777
v  1.34335313e-22 -14.394989 -5.92490768
v  -4.19589996 -14.394989 -4.18690777
v  -5.93380022 -14.394989 0.00889256038
v  -4.19589996 -14.394989 4.2047925
v  1.34335313e-22 -15.5752869 0.00889256038
v  1.34335313e-22 29.433609 -0.220907435
v  1.34335313e-22 11.5894012 3.34959269
v  3.5704 11.5894012 -0.220907435
v  1.34335313e-22 11.5894012 -3.79130745
v  -3.5704 11.5894012 -0.220907435
v  29.2194996 -0.0377960205 0.160292566
v  11.3753996 -0.0377960205 3.73079252
v  11.3753996 -3.60820007 0.160292566
v  11.3753996 -0.0377960205 -3.41010737
v  11.3753996 3.53260803 0.160292566
v  -29.0928993 -0.0377960205 0.160292566
v  -11.2488003 -0.0377960205 -3.41010737
v  -11.2488003 -3.60820007 0.160292566
v  -11.2488003 -0.0377960205 3.73079252
v  -11.2488003 3.53260803 0.160292566
v  -0.141100004 -0.0377960205 -29.6192074
v  3.42939997 -0.0377960205 -11.7751074
v  -0.141100004 -3.60820007 -11.7751074
v  -3.71149993 -0.0377960205 -11.7751074
v  -0.141100004 3.53260803 -11.7751074
v  -0.0299999993 -0.0377960205 29.0576916
v  -3.60050011 -0.0377960205 11.2134924
v  -0.0299999993 -3.60820007 11.2134924
v  3.54040003 -0.0377960205 11.2134924
v  -0.0299999993 3.53260803 11.2134924
v  -16.8822002 17.5912018 16.8317928
v  -5.5401001 8.99591064 5.48979235
v  -9.67070007 6.24090576 4.57099247
v  -8.75189972 3.48590088 8.70159245
v  -4.62130022 6.24090576 9.6203928
v  17.0638008 17.5912018 -17.279707
v  5.72179985 8.99591064 -5.93760777
v  9.85229969 6.24090576 -5.01880741
v  8.93360043 3.48590088 -9.14940739
v  4.80299997 6.24090576 -10.0682077
v  17.3948994 17.5912018 17.328392
v  6.05280018 8.99591064 5.9863925
v  5.13409996 6.24090576 10.116992
v  9.2645998 3.48590088 9.1981926
v  10.1834002 6.24090576 5.06759214
v  -18.3719997 17.5912018 -18.2729073
v  -7.02990007 8.99591064 -6.93080759
v  -6.11119986 6.24090576 -11.061408
v  -10.2417002 3.48590088 -10.1426077
v  -11.1604996 6.24090576 -6.01200771
v  18.3171005 -16.2370911 17.328392
v  9.72189999 -4.89509583 5.9863925
v  6.96689987 -3.97628784 10.116992
v  4.2118001 -8.10688782 9.1981926
v  6.96680021 -9.02558899 5.06759214
v  -19.1287003 -16.2370911 -17.6107082
v  -10.5334997 -4.89509583 -6.26870775
v  -7.77839994 -3.97628784 -10.3993073
v  -5.02339983 -8.10688782 -9.48050785
v  -7.77839994 -9.02558899 -5.3499074
v  16.5671997 -16.2370911 -17.8708076
v  5.22520018 -4.89509583 -9.27560806
v  9.35569954 -3.97628784 -6.52060747
v  8.43690014 -8.10688782 -3.76550746
v  4.30639982 -9.02558899 -6.52060747
v  6.83099985 -6.50099182 -6.52060747
v  -16.5510998 -16.2370911 17.4229927
v  -5.20900011 -4.89509583 8.82779217
v  -9.33959961 -3.97628784 6.07279253
v  -8.42080021 -8.10688782 3.31769252
v  -4.29029989 -9.02558899 6.07279253
v  1.34335313e-22 -28.5320892 -0.220907435
v  1.34335313e-22 -10.6878967 3.34959269
v  -3.5704 -10.6878967 -0.220907435
v  1.34335313e-22 -10.6878967 -3.79130745
v  3.5704 -10.6878967 -0.220907435

# 97 UV coordinates
vt 0.138750002 0.917959988 0
vt 0.0791999996 0.987410009 0
vt 0.0196499992 0.917959988 0
vt 0.257849991 0.917959988 0
vt 0.198300004 0.987410009 0
vt 0.376949996 0.917959988 0
vt 0.317400008 0.987410009 0
vt 0.496060014 0.917959988 0
vt 0.436509997 0.987410009 0
vt 0.615159988 0.917959988 0
vt 0.555610001 0.987410009 0
vt 0.734260023 0.917959988 0
vt 0.674709976 0.987410009 0
vt 0.853359997 0.917959988 0
vt 0.79381001 0.987410009 0
vt 0.972469985 0.917959988 0
vt 0.912909985 0.987410009 0
vt 0.138750002 0.848510027 0
vt 0.0196499992 0.848510027 0
vt 0.257849991 0.848510027 0
vt 0.376949996 0.848510027 0
vt 0.496060014 0.848510027 0
vt 0.615159988 0.848510027 0
vt 0.734260023 0.848510027 0
vt 0.853359997 0.848510027 0
vt 0.972469985 0.848510027 0
vt 0.138750002 0.779060006 0
vt 0.0196499992 0.779060006 0
vt 0.257849991 0.779060006 0
vt 0.376949996 0.779060006 0
vt 0.496060014 0.779060006 0
vt 0.615159988 0.779060006 0
vt 0.734260023 0.779060006 0
vt 0.853359997 0.779060006 0
vt 0.972469985 0.779060006 0
vt 0.138750002 0.709609985 0
vt 0.0196499992 0.709609985 0
vt 0.257849991 0.709609985 0
vt 0.376949996 0.709609985 0
vt 0.496060014 0.709609985 0
vt 0.615159988 0.709609985 0
vt 0.734260023 0.709609985 0
vt 0.853359997 0.709609985 0
vt 0.972469985 0.709609985 0
vt 0.138750002 0.640159965 0
vt 0.0196499992 0.640159965 0
vt 0.257849991 0.640159965 0
vt 0.376949996 0.640159965 0
vt 0.496060014 0.640159965 0
vt 0.615159988 0.640159965 0
vt 0.734260023 0.640159965 0
vt 0.853359997 0.640159965 0
vt 0.972469985 0.640159965 0
vt 0.138750002 0.570710003 0
vt 0.0196499992 0.570710003 0
vt 0.257849991 0.570710003 0
vt 0.376949996 0.570710003 0
vt 0.496060014 0.570710003 0
vt 0.615159988 0.570710003 0
vt 0.734260023 0.570710003 0
vt 0.853359997 0.570710003 0
vt 0.972469985 0.570710003 0
vt 0.138750002 0.501260042 0
vt 0.0196499992 0.501260042 0
vt 0.257849991 0.501260042 0
vt 0.376949996 0.501260042 0
vt 0.496060014 0.501260042 0
vt 0.615159988 0.501260042 0
vt 0.734260023 0.501260042 0
vt 0.853359997 0.501260042 0
vt 0.972469985 0.501260042 0
vt 0.0791999996 0.431810021 0
vt 0.198300004 0.431810021 0
vt 0.317400008 0.431810021 0
vt 0.436509997 0.431810021 0
vt 0.555610001 0.431810021 0
vt 0.674709976 0.431810021 0
vt 0.79381001 0.431810021 0
vt 0.912909985 0.431810021 0
vt 0.746060014 0.723720014 0
vt 0.529150009 0.437150002 0
vt 0.644450009 0.437150002 0
vt 0.759750009 0.437150002 0
vt 0.875060022 0.437150002 0
vt 0.990360022 0.437150002 0
vt 0.527270019 1.02866006 0
vt 0.771570027 0.742089987 0
vt 0.839999974 0.814559996 0
vt 0.425660014 0.742089987 0
vt 0.540960014 0.742089987 0
vt 0.656260014 0.742089987 0
vt 0.573650002 0.525590003 0
vt 0.500949979 0.81309998 0
vt 0.522499979 0.815259993 0
vt 0.572109997 0.815259993 0
vt 0.645359993 0.791610003 0
vt 0.630500019 0.812629998 0

# 129 vertex normals
vn 0.298808396 0.906327069 0.298805594
vn 8.96140421e-07 1 -1.68261693e-06
vn -1.0003135e-07 0.90632534 0.42258063
vn 0.422577679 0.906326711 -1.54170107e-06
vn 0.298807055 0.906326771 -0.298807919
vn 1.45195156e-06 0.906326354 -0.422578394
vn -0.298810691 0.906325638 -0.29880771
vn -0.422577769 0.906326652 9.23299751e-07
vn -0.298814207 0.906324923 0.29880631
vn 0.51591748 0.683852673 0.515921175
vn 1.79393066e-06 0.683854759 0.729618132
vn 0.729620218 0.683852553 -4.40367018e-07
vn 0.515917003 0.683853924 -0.515920043
vn 4.40862323e-07 0.683852136 -0.729620636
vn -0.515919089 0.683851779 -0.515920699
vn -0.729620874 0.683851838 -2.25289432e-06
vn -0.515917361 0.683853567 0.515920162
vn 0.657826304 0.366791546 0.657821059
vn 8.45318766e-07 0.366793126 0.93030256
vn 0.930303872 0.366789699 -4.16774952e-07
vn 0.657824695 0.366794378 -0.657821059
vn 2.48274574e-07 0.366788626 -0.930304289
vn -0.657826304 0.366790503 -0.657821596
vn -0.93030405 0.366789311 -2.17210163e-06
vn -0.65782702 0.366789967 0.657821238
vn 0.707109511 1.43604467e-07 0.707104087
vn 3.99101585e-10 2.41168493e-07 1
vn 1 -2.80088926e-07 -5.68716757e-07
vn 0.707105458 9.615311e-07 -0.70710814
vn -2.48651236e-06 1.35849166e-06 -1
vn -0.707108319 1.58157476e-07 -0.707105219
vn -1 2.79768443e-07 -1.59956392e-06
vn -0.707109451 3.24512968e-07 0.707104087
vn 0.657827139 -0.366789669 0.657821298
vn -8.38066455e-07 -0.366792917 0.93030262
vn 0.93030411 -0.366789073 -2.16432909e-06
vn 0.657826602 -0.366795331 -0.657818615
vn -1.83215502e-06 -0.36678949 -0.930303991
vn -0.657825947 -0.366789669 -0.65782243
vn -0.93030417 -0.366789013 -1.083504e-06
vn -0.657826424 -0.366791308 0.657821059
vn 0.51591599 -0.683855355 0.515919149
vn -1.47228911e-06 -0.683855712 0.729617298
vn 0.729619563 -0.683853269 -3.013693e-06
vn 0.515918255 -0.683854043 -0.515918612
vn -1.29260215e-07 -0.683852434 -0.729620337
vn -0.51591748 -0.683853388 -0.515920222
vn -0.729620337 -0.683852434 -1.18492835e-06
vn -0.515917599 -0.683851719 0.515922368
vn 0.298806846 -0.906327009 0.298807234
vn 3.12458837e-06 -0.906325519 0.422580183
vn 0.422576874 -0.906327069 -2.14917418e-06
vn 0.298807085 -0.906327248 -0.29880628
vn 1.5683612e-06 -0.906327248 -0.422576517
vn -0.298812807 -0.906325698 -0.298805326
vn -0.422576308 -0.906327367 -4.61202308e-06
vn -0.298810333 -0.906326473 0.298805386
vn 8.91188336e-07 -1 -1.690045e-06
vn 1.31755357e-07 1 -3.32685408e-06
vn 1.8218655e-08 0.196203783 0.980563164
vn 0.980564177 0.196198493 -6.32625597e-06
vn -2.87376754e-08 0.196198508 -0.980564177
vn -0.980564177 0.196198493 -6.31211196e-06
vn 1 9.12803614e-07 -2.11983843e-06
vn 0.196204871 2.97164959e-09 0.980562925
vn 0.196199819 -0.980563939 -6.29169381e-06
vn 0.196199611 -3.26374092e-08 -0.980563998
vn 0.196199819 0.980563939 -6.30493923e-06
vn -1 3.76698921e-08 -1.13386591e-06
vn -0.196199626 2.56733745e-08 -0.980563998
vn -0.196199834 -0.980563939 -6.30858312e-06
vn -0.196204901 2.97164959e-09 0.980562925
vn -0.196199834 0.980563939 -6.28805037e-06
vn -1.36644837e-06 -4.24847926e-08 -1
vn 0.980562925 2.97165004e-09 -0.196204886
vn -6.35000424e-06 -0.980563939 -0.196199819
vn -0.980563998 2.16293099e-08 -0.196199596
vn -6.34667822e-06 0.980563939 -0.196199819
vn 1.35184018e-06 7.83525991e-08 1
vn -0.980563104 -1.23918165e-08 0.196203858
vn 6.35524748e-06 -0.980564117 0.196198761
vn 0.980564177 1.7991157e-08 0.196198583
vn 6.34143635e-06 0.980564117 0.196198761
vn -0.545623362 0.636078894 0.545617819
vn 0.333984107 0.881425321 -0.33398211
vn -0.80041182 0.124800779 -0.586315334
vn -0.548083365 -0.631828249 0.548085511
vn 0.586310267 0.124805629 0.800414801
vn 0.54561913 0.636078596 -0.545622349
vn -0.333977789 0.881425321 0.333988458
vn 0.800409973 0.124808021 0.586316288
vn 0.548093915 -0.631828189 -0.54807502
vn -0.586315334 0.124800853 -0.80041182
vn 0.545622706 0.636079073 0.545618296
vn -0.333986312 0.881425261 -0.333979994
vn -0.586309493 0.124798447 0.80041647
vn 0.548085332 -0.631828189 0.548083603
vn 0.800411761 0.124800868 -0.586315393
vn -0.545620918 0.63607657 -0.545622945
vn 0.333984017 0.881426156 0.333979964
vn 0.586312771 0.124796405 -0.800414383
vn -0.548085093 -0.631830573 -0.54808104
vn -0.800412595 0.124803595 0.586313725
vn 0.636079431 -0.545622885 0.54561758
vn 0.881426454 0.333969742 -0.333993405
vn 0.124804974 0.586312413 0.800413311
vn -0.631825984 -0.548094034 0.548077404
vn 0.124797374 -0.800413668 -0.586313605
vn -0.636079431 -0.545620859 -0.545619667
vn -0.881426394 0.333976865 0.333986431
vn -0.124795713 0.586307824 -0.800418079
vn 0.631825924 -0.548093915 -0.548077643
vn -0.124797449 -0.800413668 0.586313546
vn 0.545622289 -0.54562068 -0.636077344
vn -0.663456976 0.663456082 -0.34590587
vn 0.335761189 0.885722756 0.320561409
vn 0.113492742 -0.113505632 0.987033904
vn -0.885726154 -0.335756958 0.320556462
vn -0.545625031 0.545624852 0.636071444
vn -0.545622766 -0.545621157 0.63607657
vn 0.333988428 0.333972514 0.881427288
vn -0.800411105 0.58631587 0.12480294
vn -0.548077166 -0.54809165 -0.631828308
vn 0.586315572 -0.800411463 0.124802135
vn -4.76662976e-08 -1 -1.41688099e-06
vn 1.65823284e-08 -0.196203932 0.980563104
vn -0.980564177 -0.196198642 -6.34448588e-06
vn -1.13432774e-08 -0.196198612 -0.980564177
vn 0.980564177 -0.196198642 -6.35219203e-06

# Mesh 'morning' with 172 faces
g morning
usemtl star
f  1/1/1 2/2/2 3/3/3
f  4/4/4 2/5/2 1/1/1
f  5/6/5 2/7/2 4/4/4
f  6/8/6 2/9/2 5/6/5
f  7/10/7 2/11/2 6/8/6
f  8/12/8 2/13/2 7/10/7
f  9/14/9 2/15/2 8/12/8
f  3/16/3 2/17/2 9/14/9
f  1/1/1 3/3/3 10/18/10
f  11/19/11 10/18/10 3/3/3
f  4/4/4 1/1/1 12/20/12
f  10/18/10 12/20/12 1/1/1
f  5/6/5 4/4/4 13/21/13
f  12/20/12 13/21/13 4/4/4
f  6/8/6 5/6/5 14/22/14
f  13/21/13 14/22/14 5/6/5
f  7/10/7 6/8/6 15/23/15
f  14/22/14 15/23/15 6/8/6
f  8/12/8 7/10/7 16/24/16
f  15/23/15 16/24/16 7/10/7
f  9/14/9 8/12/8 17/25/17
f  16/24/16 17/25/17 8/12/8
f  3/16/3 9/14/9 11/26/11
f  17/25/17 11/26/11 9/14/9
f  10/18/10 11/19/11 18/27/18
f  19/28/19 18/27/18 11/19/11
f  12/20/12 10/18/10 20/29/20
f  18/27/18 20/29/20 10/18/10
f  13/21/13 12/20/12 21/30/21
f  20/29/20 21/30/21 12/20/12
f  14/22/14 13/21/13 22/31/22
f  21/30/21 22/31/22 13/21/13
f  15/23/15 14/22/14 23/32/23
f  22/31/22 23/32/23 14/22/14
f  16/24/16 15/23/15 24/33/24
f  23/32/23 24/33/24 15/23/15
f  17/25/17 16/24/16 25/34/25
f  24/33/24 25/34/25 16/24/16
f  11/26/11 17/25/17 19/35/19
f  25/34/25 19/35/19 17/25/17
f  18/27/18 19/28/19 26/36/26
f  27/37/27 26/36/26 19/28/19
f  20/29/20 18/27/18 28/38/28
f  26/36/26 28/38/28 18/27/18
f  21/30/21 20/29/20 29/39/29
f  28/38/28 29/39/29 20/29/20
f  22/31/22 21/30/21 30/40/30
f  29/39/29 30/40/30 21/30/21
f  23/32/23 22/31/22 31/41/31
f  30/40/30 31/41/31 22/31/22
f  24/33/24 23/32/23 32/42/32
f  31/41/31 32/42/32 23/32/23
f  25/34/25 24/33/24 33/43/33
f  32/42/32 33/43/33 24/33/24
f  19/35/19 25/34/25 27/44/27
f  33/43/33 27/44/27 25/34/25
f  26/36/26 27/37/27 34/45/34
f  35/46/35 34/45/34 27/37/27
f  28/38/28 26/36/26 36/47/36
f  34/45/34 36/47/36 26/36/26
f  29/39/29 28/38/28 37/48/37
f  36/47/36 37/48/37 28/38/28
f  30/40/30 29/39/29 38/49/38
f  37/48/37 38/49/38 29/39/29
f  31/41/31 30/40/30 39/50/39
f  38/49/38 39/50/39 30/40/30
f  32/42/32 31/41/31 40/51/40
f  39/50/39 40/51/40 31/41/31
f  33/43/33 32/42/32 41/52/41
f  40/51/40 41/52/41 32/42/32
f  27/44/27 33/43/33 35/53/35
f  41/52/41 35/53/35 33/43/33
f  34/45/34 35/46/35 42/54/42
f  43/55/43 42/54/42 35/46/35
f  36/47/36 34/45/34 44/56/44
f  42/54/42 44/56/44 34/45/34
f  37/48/37 36/47/36 45/57/45
f  44/56/44 45/57/45 36/47/36
f  38/49/38 37/48/37 46/58/46
f  45/57/45 46/58/46 37/48/37
f  39/50/39 38/49/38 47/59/47
f  46/58/46 47/59/47 38/49/38
f  40/51/40 39/50/39 48/60/48
f  47/59/47 48/60/48 39/50/39
f  41/52/41 40/51/40 49/61/49
f  48/60/48 49/61/49 40/51/40
f  35/53/35 41/52/41 43/62/43
f  49/61/49 43/62/43 41/52/41
f  42/54/42 43/55/43 50/63/50
f  51/64/51 50/63/50 43/55/43
f  44/56/44 42/54/42 52/65/52
f  50/63/50 52/65/52 42/54/42
f  45/57/45 44/56/44 53/66/53
f  52/65/52 53/66/53 44/56/44
f  46/58/46 45/57/45 54/67/54
f  53/66/53 54/67/54 45/57/45
f  47/59/47 46/58/46 55/68/55
f  54/67/54 55/68/55 46/58/46
f  48/60/48 47/59/47 56/69/56
f  55/68/55 56/69/56 47/59/47
f  49/61/49 48/60/48 57/70/57
f  56/69/56 57/70/57 48/60/48
f  43/62/43 49/61/49 51/71/51
f  57/70/57 51/71/51 49/61/49
f  50/63/50 51/64/51 58/72/58
f  52/65/52 50/63/50 58/73/58
f  53/66/53 52/65/52 58/74/58
f  54/67/54 53/66/53 58/75/58
f  55/68/55 54/67/54 58/76/58
f  56/69/56 55/68/55 58/77/58
f  57/70/57 56/69/56 58/78/58
f  51/71/51 57/70/57 58/79/58
f  59/80/59 60/81/60 61/82/61
f  59/80/59 61/82/61 62/83/62
f  59/80/59 62/83/62 63/84/63
f  59/80/59 63/84/63 60/85/60
f  64/80/64 65/81/65 66/82/66
f  64/80/64 66/82/66 67/83/67
f  64/80/64 67/83/67 68/84/68
f  64/80/64 68/84/68 65/85/65
f  69/86/69 70/87/70 71/88/71
f  69/86/69 71/89/71 72/90/72
f  69/86/69 72/90/72 73/91/73
f  69/86/69 73/91/73 70/87/70
f  74/80/74 75/81/75 76/82/76
f  74/80/74 76/82/76 77/83/77
f  74/80/74 77/83/77 78/84/78
f  74/80/74 78/84/78 75/85/75
f  79/80/79 80/81/80 81/82/81
f  79/80/79 81/82/81 82/83/82
f  79/80/79 82/83/82 83/84/83
f  79/80/79 83/84/83 80/85/80
f  84/80/84 85/81/85 86/82/86
f  84/80/84 86/82/86 87/83/87
f  84/80/84 87/83/87 88/84/88
f  84/80/84 88/84/88 85/85/85
f  89/80/89 90/81/90 91/82/91
f  89/80/89 91/82/91 92/83/92
f  89/80/89 92/83/92 93/84/93
f  89/80/89 93/84/93 90/85/90
f  94/80/94 95/81/95 96/82/96
f  94/80/94 96/82/96 97/83/97
f  94/80/94 97/83/97 98/84/98
f  94/80/94 98/84/98 95/85/95
f  99/92/99 100/93/100 101/94/101
f  99/92/99 101/94/101 102/95/102
f  99/92/99 102/95/102 103/96/103
f  99/92/99 103/96/103 100/97/100
f  104/80/104 105/81/105 106/82/106
f  104/80/104 106/82/106 107/83/107
f  104/80/104 107/83/107 108/84/108
f  104/80/104 108/84/108 105/85/105
f  109/80/109 110/81/110 111/82/111
f  109/80/109 111/82/111 112/83/112
f  109/80/109 112/83/112 113/84/113
f  109/80/109 113/84/113 110/85/110
f  114/80/114 115/81/115 116/82/116
f  114/80/114 116/82/116 117/83/117
f  114/80/114 117/83/117 118/84/118
f  114/80/114 118/84/118 115/85/115
f  115/2/115 119/2/119 116/2/116
f  116/2/116 119/2/119 117/2/117
f  117/2/117 119/2/119 118/2/118
f  118/2/118 119/2/119 115/2/115
f  120/80/120 121/81/121 122/82/122
f  120/80/120 122/82/122 123/83/123
f  120/80/120 123/83/123 124/84/124
f  120/80/120 124/84/124 121/85/121
f  125/80/125 126/81/126 127/82/127
f  125/80/125 127/82/127 128/83/128
f  125/80/125 128/83/128 129/84/129
f  125/80/125 129/84/129 126/85/126

