# File produced by Open Asset Import Library (http://www.assimp.sf.net)
# (assimp v5.2.3369795085)

mtllib 11.X.mtl

# 114 vertex positions
v  3.12150002 58.0522003 14.0930996
v  -0.343499988 47.8129997 0
v  3.12150002 47.8129997 17.4200001
v  3.12159991 64.3804016 5.38310003
v  3.12159991 64.3804016 -5.38310003
v  3.12150002 58.0522003 -14.0930996
v  3.12150002 47.8129997 -17.4200001
v  3.12150002 37.5737991 -14.0930996
v  3.12150002 31.2455997 -5.38310003
v  3.12150002 31.2455997 5.38310003
v  3.12150002 37.5737991 14.0930996
v  12.9891996 66.7325974 26.0405998
v  12.9891996 47.8129997 32.1879005
v  12.9891996 78.4255981 9.94659996
v  12.9891996 78.4255981 -9.94659996
v  12.9891996 66.7325974 -26.0405998
v  12.9891996 47.8129997 -32.1879005
v  12.9891996 28.8934002 -26.0405998
v  12.9891996 17.2005005 -9.94659996
v  12.9891996 17.2005005 9.94659996
v  12.9891996 28.8934002 26.0405998
v  27.7570992 72.5326996 34.0237007
v  27.7570992 47.8129997 42.0555992
v  27.7570992 87.8103027 12.9959002
v  27.7570992 87.8103027 -12.9959002
v  27.7570992 72.5326996 -34.0237007
v  27.7570992 47.8129997 -42.0555992
v  27.7570992 23.093399 -34.0237007
v  27.7570992 7.81580019 -12.9959002
v  27.7570992 7.81580019 12.9959002
v  27.7570992 23.093399 34.0237007
v  5.6335001 47.8129997 17.0758991
v  2.23690009 47.8129997 0
v  5.6335001 57.8499985 13.8147001
v  5.6335001 64.0531998 5.27670002
v  5.6335001 64.0531998 -5.27670002
v  5.6335001 57.8499985 -13.8147001
v  5.6335001 47.8129997 -17.0758991
v  5.6335001 37.7761002 -13.8147001
v  5.6335001 31.5729008 -5.27670002
v  5.6335001 31.5729008 5.27670002
v  5.6335001 37.7761002 13.8147001
v  15.3062 47.8129997 31.5520992
v  15.3062 66.358902 25.5261993
v  15.3062 77.8209 9.75010014
v  15.3062 77.8209 -9.75010014
v  15.3062 66.358902 -25.5261993
v  15.3062 47.8129997 -31.5520992
v  15.3062 29.2670994 -25.5261993
v  15.3062 17.8052006 -9.75010014
v  15.3062 17.8052006 9.75020027
v  15.3062 29.2672005 25.5261993
v  44.2298012 47.6777 0
v  1.21010005 47.6777 5.11709976
v  1.21010005 43.2461014 2.55859995
v  1.21010005 43.2461014 -2.55859995
v  1.21010005 47.6777 -5.11709976
v  1.21010005 52.1092987 -2.55859995
v  1.21010005 52.1092987 2.55859995
v  1.21010005 47.6777 0
v  44.0625 44.8158989 1.71019995
v  44.7839012 47.7779999 0
v  44.0625 47.7779999 3.4203999
v  44.0625 44.8158989 -1.71019995
v  44.0625 47.7779999 -3.4203999
v  44.0625 50.7402 -1.71019995
v  44.0625 50.7402 1.71019995
v  42.0917015 42.6473999 2.96210003
v  42.0917015 47.7779999 5.92430019
v  42.0917015 42.6473999 -2.96210003
v  42.0917015 47.7779999 -5.92430019
v  42.0917015 52.9085999 -2.96210003
v  42.0917015 52.9085999 2.96210003
v  39.3995018 41.8536987 3.4203999
v  39.3995018 47.7779999 6.84079981
v  39.3995018 41.8536987 -3.4203999
v  39.3995018 47.7779999 -6.84079981
v  39.3995018 53.702301 -3.4203999
v  39.3995018 53.702301 3.4203999
v  36.7072983 42.6473999 2.96210003
v  36.7072983 47.7779999 5.92430019
v  36.7072983 42.6473999 -2.96210003
v  36.7072983 47.7779999 -5.92430019
v  36.7072983 52.9085999 -2.96210003
v  36.7072983 52.9085999 2.96210003
v  34.7364998 44.8158989 1.71019995
v  34.7364998 47.7779999 3.4203999
v  34.7364998 44.8158989 -1.71019995
v  34.7364998 47.7779999 -3.4203999
v  34.7364998 50.7402 -1.71019995
v  34.7364998 50.7402 1.71019995
v  34.0150986 47.7779999 0
v  -1.28219998 53.4592018 0
v  -1.28219998 -2.05380011 7.77990007
v  5.45539999 -2.05380011 3.8900001
v  5.45539999 -2.05380011 -3.8900001
v  -1.28219998 -2.05380011 -7.77990007
v  -8.01990032 -2.05380011 -3.8900001
v  -8.01990032 -2.05380011 3.8900001
v  -1.28219998 -2.05380011 0
v  4.54120016 54.7486992 2.98639989
v  -0.631399989 54.7486992 5.97279978
v  4.54120016 38.3931007 2.98639989
v  -0.631399989 38.3931007 5.97279978
v  4.54120016 54.7486992 -2.98639989
v  4.54120016 38.3931007 -2.98639989
v  -0.631399989 54.7486992 -5.97279978
v  -0.631399989 38.3931007 -5.97279978
v  -5.80389977 54.7486992 -2.98639989
v  -5.80389977 38.3931007 -2.98639989
v  -5.80389977 54.7486992 2.98639989
v  -5.80389977 38.3931007 2.98639989
v  -0.631399989 54.7486992 0
v  -0.631399989 38.3931007 0

# 172 UV coordinates
vt 0.100000001 0.801050007 0
vt 0.0500000007 0.875769973 0
vt 0 0.801050007 0
vt 0.200000003 0.801050007 0
vt 0.150000006 0.875769973 0
vt 0.300000012 0.801050007 0
vt 0.25 0.875769973 0
vt 0.400000006 0.801050007 0
vt 0.349999994 0.875769973 0
vt 0.5 0.801050007 0
vt 0.449999988 0.875769973 0
vt 0.600000024 0.801050007 0
vt 0.550000012 0.875769973 0
vt 0.699999988 0.801050007 0
vt 0.649999976 0.875769973 0
vt 0.800000012 0.801050007 0
vt 0.75 0.875769973 0
vt 0.899999976 0.801050007 0
vt 0.850000024 0.875769973 0
vt 1 0.801050007 0
vt 0.949999988 0.875769973 0
vt 0.100000001 0.676050007 0
vt 0 0.676050007 0
vt 0.200000003 0.676050007 0
vt 0.300000012 0.676050007 0
vt 0.400000006 0.676050007 0
vt 0.5 0.676050007 0
vt 0.600000024 0.676050007 0
vt 0.699999988 0.676050007 0
vt 0.800000012 0.676050007 0
vt 0.899999976 0.676050007 0
vt 1 0.676050007 0
vt 0.100000001 0.551050007 0
vt 0 0.551050007 0
vt 0.200000003 0.551050007 0
vt 0.300000012 0.551050007 0
vt 0.400000006 0.551050007 0
vt 0.5 0.551050007 0
vt 0.600000024 0.551050007 0
vt 0.699999988 0.551050007 0
vt 0.800000012 0.551050007 0
vt 0.899999976 0.551050007 0
vt 1 0.551050007 0
vt 0 0.750840008 0
vt 0.0500000007 0.875840008 0
vt 0.100000001 0.750840008 0
vt 0.150000006 0.875840008 0
vt 0.200000003 0.750840008 0
vt 0.25 0.875840008 0
vt 0.300000012 0.750840008 0
vt 0.349999994 0.875840008 0
vt 0.400000006 0.750840008 0
vt 0.449999988 0.875840008 0
vt 0.5 0.750840008 0
vt 0.550000012 0.875840008 0
vt 0.600000024 0.750840008 0
vt 0.649999976 0.875840008 0
vt 0.699999988 0.750840008 0
vt 0.75 0.875840008 0
vt 0.800000012 0.750840008 0
vt 0.850000024 0.875840008 0
vt 0.899999976 0.750840008 0
vt 0.949999988 0.875840008 0
vt 1 0.750840008 0
vt 0 0.625840008 0
vt 0.100000001 0.625840008 0
vt 0.200000003 0.625840008 0
vt 0.300000012 0.625840008 0
vt 0.400000006 0.625840008 0
vt 0.5 0.625840008 0
vt 0.600000024 0.625840008 0
vt 0.699999988 0.625840008 0
vt 0.800000012 0.625840008 0
vt 0.899999976 0.625840008 0
vt 1 0.625840008 0
vt 0 0.500840008 0
vt 0.100000001 0.500840008 0
vt 0.200000003 0.500840008 0
vt 0.300000012 0.500840008 0
vt 0.400000006 0.500840008 0
vt 0.5 0.500840008 0
vt 0.600000024 0.500840008 0
vt 0.699999988 0.500840008 0
vt 0.800000012 0.500840008 0
vt 0.899999976 0.500840008 0
vt 1 0.500840008 0
vt 0.083329998 1 0
vt 0 0 0
vt 0.166669995 0 0
vt 0.166669995 1 0
vt 0.333330005 0 0
vt 0.25 1 0
vt 0.5 0 0
vt 0.333330005 1 0
vt 0.666670024 0 0
vt 0.416669995 1 0
vt 0.833329976 0 0
vt 0.5 1 0
vt 1 0 0
vt 0.407649994 0.973269999 0
vt 0.380699992 0.984899998 0
vt 0.353760004 0.973269999 0
vt 0.46153 0.973269999 0
vt 0.434590012 0.984899998 0
vt 0.51542002 0.973269999 0
vt 0.488469988 0.984899998 0
vt 0.569299996 0.973269999 0
vt 0.542360008 0.984899998 0
vt 0.623189986 0.973269999 0
vt 0.596239984 0.984899998 0
vt 0.677070022 0.973269999 0
vt 0.650129974 0.984899998 0
vt 0.407649994 0.96164 0
vt 0.353760004 0.96164 0
vt 0.46153 0.96164 0
vt 0.51542002 0.96164 0
vt 0.569299996 0.96164 0
vt 0.623189986 0.96164 0
vt 0.677070022 0.96164 0
vt 0.407649994 0.950010002 0
vt 0.353760004 0.950010002 0
vt 0.46153 0.950010002 0
vt 0.51542002 0.950010002 0
vt 0.569299996 0.950010002 0
vt 0.623189986 0.950010002 0
vt 0.677070022 0.950010002 0
vt 0.407649994 0.938380003 0
vt 0.353760004 0.938380003 0
vt 0.46153 0.938380003 0
vt 0.51542002 0.938380003 0
vt 0.569299996 0.938380003 0
vt 0.623189986 0.938380003 0
vt 0.677070022 0.938380003 0
vt 0.407649994 0.926760018 0
vt 0.353760004 0.926760018 0
vt 0.46153 0.926760018 0
vt 0.51542002 0.926760018 0
vt 0.569299996 0.926760018 0
vt 0.623189986 0.926760018 0
vt 0.677070022 0.926760018 0
vt 0.380699992 0.915130019 0
vt 0.434590012 0.915130019 0
vt 0.488469988 0.915130019 0
vt 0.542360008 0.915130019 0
vt 0.596239984 0.915130019 0
vt 0.650129974 0.915130019 0
vt 0.166669995 0.883599997 0
vt 0 0.883599997 0
vt 0.166669995 0.00612002611 0
vt 0 0.00612002611 0
vt 0.333330005 0.883599997 0
vt 0.333330005 0.00612002611 0
vt 0.5 0.883599997 0
vt 0.5 0.00612002611 0
vt 0.666670024 0.883599997 0
vt 0.666670024 0.00612002611 0
vt 0.833329976 0.883599997 0
vt 0.833329976 0.00612002611 0
vt 1 0.883599997 0
vt 1 0.00612002611 0
vt 0.083329998 0.883599997 0
vt 0.25 0.883599997 0
vt 0.416669995 0.883599997 0
vt 0.583329976 0.883599997 0
vt 0.75 0.883599997 0
vt 0.916670024 0.883599997 0
vt 0.083329998 0.00612002611 0
vt 0.25 0.00612002611 0
vt 0.416669995 0.00612002611 0
vt 0.583329976 0.00612002611 0
vt 0.75 0.00612002611 0
vt 0.916670024 0.00612002611 0

# 132 vertex normals
vn -0.909863293 0.243878424 0.335666716
vn -1 2.08633674e-06 8.29158131e-10
vn -0.909862518 -9.73376899e-08 0.414909929
vn -0.909862995 0.394602805 0.12821041
vn -0.909862578 0.394603312 -0.128212214
vn -0.909862757 0.243880257 -0.335666746
vn -0.909862518 1.03040456e-07 -0.414909899
vn -0.909862578 -0.243877634 -0.335669219
vn -0.90986222 -0.394603193 -0.128214791
vn -0.909862399 -0.394603044 0.12821421
vn -0.909862697 -0.243876979 0.335669398
vn -0.688281715 0.42640394 0.586896896
vn -0.688281834 2.7766049e-07 0.725443363
vn -0.688282967 0.689936757 0.224173695
vn -0.688283443 0.689936221 -0.224173844
vn -0.68828243 0.426403999 -0.586896002
vn -0.688281715 -4.72820545e-07 -0.725443482
vn -0.68828088 -0.426405549 -0.586896718
vn -0.688281298 -0.689938545 -0.224173337
vn -0.688280821 -0.689938843 0.224173903
vn -0.688280702 -0.426406354 0.5868963
vn -0.555573821 0.488723814 0.672671378
vn -0.555573702 1.10594023e-07 0.831467271
vn -0.555573225 0.790772557 0.25693804
vn -0.555573106 0.790772676 -0.256937951
vn -0.555573404 0.488724113 -0.672671497
vn -0.55557394 -7.58071167e-07 -0.831467152
vn -0.555571735 -0.488724291 -0.672672749
vn -0.555572391 -0.790773332 -0.256937474
vn -0.555572987 -0.790772736 0.256937951
vn -0.555571795 -0.488725215 0.672672033
vn 0.909862995 6.48095408e-07 -0.414908826
vn 1 5.7909017e-07 1.28591887e-10
vn 0.909863055 -0.243877009 -0.335668266
vn 0.909863234 -0.394601375 -0.128213331
vn 0.909863234 -0.394601375 0.12821348
vn 0.909863055 -0.243877172 0.335668206
vn 0.909863114 3.85324086e-07 0.414908618
vn 0.909863353 0.243877292 0.335667372
vn 0.909863055 0.394601792 0.12821345
vn 0.909863114 0.394601583 -0.128213421
vn 0.909862936 0.243877739 -0.335668057
vn 0.731891036 4.86862177e-07 -0.681421697
vn 0.731890976 -0.400529236 -0.551282108
vn 0.731891036 -0.648070693 -0.21057044
vn 0.731890976 -0.648070633 0.210570619
vn 0.731890976 -0.400529504 0.551281929
vn 0.731890917 3.56242225e-07 0.681421816
vn 0.731890619 0.400530756 0.551281452
vn 0.731891215 0.648070931 0.210569128
vn 0.731890857 0.648070395 -0.210571975
vn 0.731891155 0.400528938 -0.551282048
vn 0.64480108 3.55450112e-07 -0.764350414
vn 0.644800901 -0.449273586 -0.618372858
vn 0.644800842 -0.726940572 -0.23619765
vn 0.644800901 -0.726940453 0.23619774
vn 0.644800901 -0.449273795 0.618372738
vn 0.644801021 5.33813136e-07 0.764350474
vn 0.644799054 0.449274242 0.618374348
vn 0.644800067 0.726941347 0.236197159
vn 0.644799709 0.726941645 -0.236197338
vn 0.644800484 0.449273944 -0.618373096
vn 0.102470435 -0.49735561 0.861473858
vn 0.102470435 -0.49735564 0.861473858
vn 0.102470428 -0.49735564 0.861473858
vn 0.102470972 -0.994736016 0
vn 0.102470964 -0.994736016 0
vn 0.102470435 -0.49735561 -0.861473858
vn 0.102470428 -0.49735564 -0.861473858
vn 0.102470435 -0.49735564 -0.861473858
vn 0.102470435 0.49735561 -0.861473858
vn 0.102470435 0.49735564 -0.861473858
vn 0.102470428 0.49735564 -0.861473858
vn 0.102470972 0.994736016 0
vn 0.102470964 0.994736016 0
vn 0.102470435 0.49735561 0.861473858
vn 0.102470428 0.49735564 0.861473858
vn 0.102470435 0.49735564 0.861473858
vn -1 0 0
vn 0.876609385 -0.41673255 0.240603417
vn 1 -3.10982205e-06 4.85807838e-10
vn 0.876608193 -4.3701707e-06 0.481204808
vn 0.876609325 -0.41673252 -0.240603596
vn 0.876607418 -1.51208008e-06 -0.481206179
vn 0.876604915 0.416739047 -0.240608424
vn 0.87660563 0.416739404 0.240605131
vn 0.538330019 -0.729833245 0.421359986
vn 0.538325548 9.23790481e-07 0.842736959
vn 0.538329303 -0.729832768 -0.421361715
vn 0.538326383 -1.66795485e-06 -0.842736423
vn 0.538325369 0.729834914 -0.421362996
vn 0.53832382 0.729835331 0.421364307
vn -7.10243057e-07 -0.8660236 0.500003099
vn 1.87777047e-07 -7.95640887e-09 1
vn 1.11222732e-06 -0.8660236 -0.500003099
vn 1.81334698e-07 5.14531795e-09 -1
vn -7.10243057e-07 0.8660236 -0.500003099
vn 1.11222732e-06 0.8660236 0.500003099
vn -0.538329065 -0.729832888 0.421361774
vn -0.538326144 -1.66083078e-06 0.842736602
vn -0.538329899 -0.729833305 -0.421360075
vn -0.53832531 9.21399021e-07 -0.842737138
vn -0.538323581 0.729835451 -0.421364367
vn -0.538325191 0.729835033 0.421363056
vn -0.876609325 -0.41673255 0.240603596
vn -0.876607478 -1.51863367e-06 0.481206149
vn -0.876609385 -0.41673252 -0.240603402
vn -0.876608253 -4.36373875e-06 -0.481204748
vn -0.87660563 0.416739434 -0.240605131
vn -0.876604915 0.416739017 0.240608409
vn -1 -3.10982205e-06 4.85807838e-10
vn 0.496352255 0.120485865 0.859719515
vn 0.496352255 0.120485865 0.859719455
vn 0.992715061 0.120485596 0
vn 0.992715061 0.120485604 0
vn 0.496352226 0.120485872 -0.859719515
vn 0.496352255 0.120485865 -0.859719455
vn 0.496352255 0.120485865 -0.859719515
vn -0.496346682 0.120486304 -0.859722614
vn -0.496346682 0.120486297 -0.859722614
vn -0.992714882 0.120487362 0
vn -0.496346682 0.120486304 0.859722614
vn -0.496346682 0.120486297 0.859722614
vn 0 -1 0
vn 0.499999702 0 0.866025567
vn 0.499999732 0 0.866025567
vn 1 0 0
vn 0.499999702 0 -0.866025567
vn 0.499999732 0 -0.866025567
vn -0.500007033 0 -0.866021335
vn -0.500007033 0 0.866021335
vn 0 1 0

# Mesh 'obj1' with 208 faces
g obj1
usemtl star
f  1/1/1 2/2/2 3/3/3
f  4/4/4 2/5/2 1/1/1
f  5/6/5 2/7/2 4/4/4
f  6/8/6 2/9/2 5/6/5
f  7/10/7 2/11/2 6/8/6
f  8/12/8 2/13/2 7/10/7
f  9/14/9 2/15/2 8/12/8
f  10/16/10 2/17/2 9/14/9
f  11/18/11 2/19/2 10/16/10
f  3/20/3 2/21/2 11/18/11
f  1/1/1 3/3/3 12/22/12
f  13/23/13 12/22/12 3/3/3
f  4/4/4 1/1/1 14/24/14
f  12/22/12 14/24/14 1/1/1
f  5/6/5 4/4/4 15/25/15
f  14/24/14 15/25/15 4/4/4
f  6/8/6 5/6/5 16/26/16
f  15/25/15 16/26/16 5/6/5
f  7/10/7 6/8/6 17/27/17
f  16/26/16 17/27/17 6/8/6
f  8/12/8 7/10/7 18/28/18
f  17/27/17 18/28/18 7/10/7
f  9/14/9 8/12/8 19/29/19
f  18/28/18 19/29/19 8/12/8
f  10/16/10 9/14/9 20/30/20
f  19/29/19 20/30/20 9/14/9
f  11/18/11 10/16/10 21/31/21
f  20/30/20 21/31/21 10/16/10
f  3/20/3 11/18/11 13/32/13
f  21/31/21 13/32/13 11/18/11
f  12/22/12 13/23/13 22/33/22
f  23/34/23 22/33/22 13/23/13
f  14/24/14 12/22/12 24/35/24
f  22/33/22 24/35/24 12/22/12
f  15/25/15 14/24/14 25/36/25
f  24/35/24 25/36/25 14/24/14
f  16/26/16 15/25/15 26/37/26
f  25/36/25 26/37/26 15/25/15
f  17/27/17 16/26/16 27/38/27
f  26/37/26 27/38/27 16/26/16
f  18/28/18 17/27/17 28/39/28
f  27/38/27 28/39/28 17/27/17
f  19/29/19 18/28/18 29/40/29
f  28/39/28 29/40/29 18/28/18
f  20/30/20 19/29/19 30/41/30
f  29/40/29 30/41/30 19/29/19
f  21/31/21 20/30/20 31/42/31
f  30/41/30 31/42/31 20/30/20
f  13/32/13 21/31/21 23/43/23
f  31/42/31 23/43/23 21/31/21
f  32/44/32 33/45/33 34/46/34
f  34/46/34 33/47/33 35/48/35
f  35/48/35 33/49/33 36/50/36
f  36/50/36 33/51/33 37/52/37
f  37/52/37 33/53/33 38/54/38
f  38/54/38 33/55/33 39/56/39
f  39/56/39 33/57/33 40/58/40
f  40/58/40 33/59/33 41/60/41
f  41/60/41 33/61/33 42/62/42
f  42/62/42 33/63/33 32/64/32
f  43/65/43 32/44/32 44/66/44
f  34/46/34 44/66/44 32/44/32
f  44/66/44 34/46/34 45/67/45
f  35/48/35 45/67/45 34/46/34
f  45/67/45 35/48/35 46/68/46
f  36/50/36 46/68/46 35/48/35
f  46/68/46 36/50/36 47/69/47
f  37/52/37 47/69/47 36/50/36
f  47/69/47 37/52/37 48/70/48
f  38/54/38 48/70/48 37/52/37
f  48/70/48 38/54/38 49/71/49
f  39/56/39 49/71/49 38/54/38
f  49/71/49 39/56/39 50/72/50
f  40/58/40 50/72/50 39/56/39
f  50/72/50 40/58/40 51/73/51
f  41/60/41 51/73/51 40/58/40
f  51/73/51 41/60/41 52/74/52
f  42/62/42 52/74/52 41/60/41
f  52/74/52 42/62/42 43/75/43
f  32/64/32 43/75/43 42/62/42
f  23/76/53 43/65/43 22/77/54
f  44/66/44 22/77/54 43/65/43
f  22/77/54 44/66/44 24/78/55
f  45/67/45 24/78/55 44/66/44
f  24/78/55 45/67/45 25/79/56
f  46/68/46 25/79/56 45/67/45
f  25/79/56 46/68/46 26/80/57
f  47/69/47 26/80/57 46/68/46
f  26/80/57 47/69/47 27/81/58
f  48/70/48 27/81/58 47/69/47
f  27/81/58 48/70/48 28/82/59
f  49/71/49 28/82/59 48/70/48
f  28/82/59 49/71/49 29/83/60
f  50/72/50 29/83/60 49/71/49
f  29/83/60 50/72/50 30/84/61
f  51/73/51 30/84/61 50/72/50
f  30/84/61 51/73/51 31/85/62
f  52/74/52 31/85/62 51/73/51
f  31/85/62 52/74/52 23/86/53
f  43/75/43 23/86/53 52/74/52
f  53/87/63 54/88/64 55/89/65
f  53/90/66 55/89/67 56/91/67
f  53/92/68 56/91/69 57/93/70
f  53/94/71 57/93/72 58/95/73
f  53/96/74 58/95/75 59/97/75
f  53/98/76 59/97/77 54/99/78
f  54/2/79 60/2/79 55/2/79
f  55/2/79 60/2/79 56/2/79
f  56/2/79 60/2/79 57/2/79
f  57/2/79 60/2/79 58/2/79
f  58/2/79 60/2/79 59/2/79
f  59/2/79 60/2/79 54/2/79
f  61/100/80 62/101/81 63/102/82
f  64/103/83 62/104/81 61/100/80
f  65/105/84 62/106/81 64/103/83
f  66/107/85 62/108/81 65/105/84
f  67/109/86 62/110/81 66/107/85
f  63/111/82 62/112/81 67/109/86
f  61/100/80 63/102/82 68/113/87
f  69/114/88 68/113/87 63/102/82
f  64/103/83 61/100/80 70/115/89
f  68/113/87 70/115/89 61/100/80
f  65/105/84 64/103/83 71/116/90
f  70/115/89 71/116/90 64/103/83
f  66/107/85 65/105/84 72/117/91
f  71/116/90 72/117/91 65/105/84
f  67/109/86 66/107/85 73/118/92
f  72/117/91 73/118/92 66/107/85
f  63/111/82 67/109/86 69/119/88
f  73/118/92 69/119/88 67/109/86
f  68/113/87 69/114/88 74/120/93
f  75/121/94 74/120/93 69/114/88
f  70/115/89 68/113/87 76/122/95
f  74/120/93 76/122/95 68/113/87
f  71/116/90 70/115/89 77/123/96
f  76/122/95 77/123/96 70/115/89
f  72/117/91 71/116/90 78/124/97
f  77/123/96 78/124/97 71/116/90
f  73/118/92 72/117/91 79/125/98
f  78/124/97 79/125/98 72/117/91
f  69/119/88 73/118/92 75/126/94
f  79/125/98 75/126/94 73/118/92
f  74/120/93 75/121/94 80/127/99
f  81/128/100 80/127/99 75/121/94
f  76/122/95 74/120/93 82/129/101
f  80/127/99 82/129/101 74/120/93
f  77/123/96 76/122/95 83/130/102
f  82/129/101 83/130/102 76/122/95
f  78/124/97 77/123/96 84/131/103
f  83/130/102 84/131/103 77/123/96
f  79/125/98 78/124/97 85/132/104
f  84/131/103 85/132/104 78/124/97
f  75/126/94 79/125/98 81/133/100
f  85/132/104 81/133/100 79/125/98
f  80/127/99 81/128/100 86/134/105
f  87/135/106 86/134/105 81/128/100
f  82/129/101 80/127/99 88/136/107
f  86/134/105 88/136/107 80/127/99
f  83/130/102 82/129/101 89/137/108
f  88/136/107 89/137/108 82/129/101
f  84/131/103 83/130/102 90/138/109
f  89/137/108 90/138/109 83/130/102
f  85/132/104 84/131/103 91/139/110
f  90/138/109 91/139/110 84/131/103
f  81/133/100 85/132/104 87/140/106
f  91/139/110 87/140/106 85/132/104
f  86/134/105 87/135/106 92/141/111
f  88/136/107 86/134/105 92/142/111
f  89/137/108 88/136/107 92/143/111
f  90/138/109 89/137/108 92/144/111
f  91/139/110 90/138/109 92/145/111
f  87/140/106 91/139/110 92/146/111
f  93/87/112 94/88/112 95/89/113
f  93/90/114 95/89/115 96/91/115
f  93/92/116 96/91/117 97/93/118
f  93/94/119 97/93/120 98/95/119
f  93/96/121 98/95/121 99/97/121
f  93/98/122 99/97/122 94/99/123
f  94/2/124 100/2/124 95/2/124
f  95/2/124 100/2/124 96/2/124
f  96/2/124 100/2/124 97/2/124
f  97/2/124 100/2/124 98/2/124
f  98/2/124 100/2/124 99/2/124
f  99/2/124 100/2/124 94/2/124
f  101/147/125 102/148/126 103/149/125
f  104/150/125 103/149/125 102/148/126
f  105/151/127 101/147/127 106/152/127
f  103/149/127 106/152/127 101/147/127
f  107/153/128 105/151/129 108/154/128
f  106/152/128 108/154/128 105/151/129
f  109/155/130 107/153/130 110/156/130
f  108/154/130 110/156/130 107/153/130
f  111/157/79 109/155/79 112/158/79
f  110/156/79 112/158/79 109/155/79
f  102/159/131 111/157/131 104/160/131
f  112/158/131 104/160/131 111/157/131
f  101/147/132 113/161/132 102/148/132
f  105/151/132 113/162/132 101/147/132
f  107/153/132 113/163/132 105/151/132
f  109/155/132 113/164/132 107/153/132
f  111/157/132 113/165/132 109/155/132
f  102/159/132 113/166/132 111/157/132
f  104/150/124 114/167/124 103/149/124
f  103/149/124 114/168/124 106/152/124
f  106/152/124 114/169/124 108/154/124
f  108/154/124 114/170/124 110/156/124
f  110/156/124 114/171/124 112/158/124
f  112/158/124 114/172/124 104/160/124

