# File produced by Open Asset Import Library (http://www.assimp.sf.net)
# (assimp v5.2.3369795085)

mtllib 12.X.mtl

# 12 vertex positions
v  -25.7406921 -6.12649298 -52.1619263
v  51.7267914 6.09140539 -26.2416725
v  -51.9492645 -6.12649298 26.1672344
v  25.518219 6.09140539 52.0874901
v  -33.0517159 -46.970932 -11.0589485
v  44.4157677 -34.7530365 14.8613071
v  -44.6382408 34.7179489 -14.9357452
v  32.8292427 46.9358444 10.9845104
v  18.786314 -40.8619843 -37.263401
v  7.19978762 40.8268967 -41.1401978
v  -7.4222579 -40.8619843 41.0657616
v  -19.0087852 40.8268967 37.1889648

# 4 UV coordinates
vt 1 1 0
vt 0 1 0
vt 1 0 0
vt 0 0 0

# 3 vertex normals
vn 0.212207451 -1.49613333 0.0710036159
vn -0.480010509 -7.33840011e-09 1.43460011
vn 1.41881835 0.223771036 0.474729955

# Mesh '' with 6 faces
usemtl mazuru
f  1/1/1 2/2/1 3/3/1
f  4/4/1 3/3/1 2/2/1
f  5/1/2 6/2/2 7/3/2
f  8/4/2 7/3/2 6/2/2
f  9/1/3 10/2/3 11/3/3
f  12/4/3 11/3/3 10/2/3

