# File produced by Open Asset Import Library (http://www.assimp.sf.net)
# (assimp v5.2.3369795085)

mtllib 15.X.mtl

# 126 vertex positions
v  0 104.6745 60.4337997
v  0 120.867599 0
v  42.7332001 104.6745 42.7332001
v  60.4337997 104.6745 0
v  42.7332001 104.6745 -42.7332001
v  0 104.6745 -60.4337997
v  -42.7332001 104.6745 -42.7332001
v  -60.4337997 104.6745 0
v  -42.7332001 104.6745 42.7332001
v  0 60.4337997 104.6745
v  74.0159988 60.4337997 74.0159988
v  104.6745 60.4337997 0
v  74.0159988 60.4337997 -74.0159988
v  0 60.4337997 -104.6745
v  -74.0159988 60.4337997 -74.0159988
v  -104.6745 60.4337997 0
v  -74.0159988 60.4337997 74.0159988
v  0 0 120.867599
v  85.466301 0 85.466301
v  120.867599 0 0
v  85.466301 0 -85.466301
v  0 0 -120.867599
v  -85.466301 0 -85.466301
v  -120.867599 0 0
v  -85.466301 0 85.466301
v  0 -60.4337997 104.6745
v  74.0159988 -60.4337997 74.0159988
v  104.6745 -60.4337997 0
v  74.0159988 -60.4337997 -74.0159988
v  0 -60.4337997 -104.6745
v  -74.0159988 -60.4337997 -74.0159988
v  -104.6745 -60.4337997 0
v  -74.0159988 -60.4337997 74.0159988
v  0 -104.6745 60.4337997
v  42.7332001 -104.6745 42.7332001
v  60.4337997 -104.6745 0
v  42.7332001 -104.6745 -42.7332001
v  0 -104.6745 -60.4337997
v  -42.7332001 -104.6745 -42.7332001
v  -60.4337997 -104.6745 0
v  -42.7332001 -104.6745 42.7332001
v  0 -120.867599 0
v  35.3553009 86.6025009 35.3553009
v  0 100 0
v  0 86.6025009 50
v  50 86.6025009 0
v  35.3553009 86.6025009 -35.3553009
v  0 86.6025009 -50
v  -35.3553009 86.6025009 -35.3553009
v  -50 86.6025009 0
v  -35.3553009 86.6025009 35.3553009
v  61.2372017 50 61.2372017
v  0 50 86.6025009
v  86.6025009 50 0
v  61.2372017 50 -61.2372017
v  0 50 -86.6025009
v  -61.2373009 50 -61.2372017
v  -86.6025009 50 0
v  -61.2373009 50 61.2372017
v  70.710701 0 70.710701
v  0 0 100
v  100 0 0
v  70.710701 0 -70.710701
v  0 0 -100
v  -70.710701 0 -70.710701
v  -100 0 0
v  -70.710701 0 70.710701
v  61.2372017 -50 61.2372017
v  0 -50 86.6025009
v  86.6025009 -50 0
v  61.2372017 -50 -61.2372017
v  0 -50 -86.6025009
v  -61.2373009 -50 -61.2372017
v  -86.6025009 -50 0
v  -61.2373009 -50 61.2372017
v  35.3553009 -86.6025009 35.3553009
v  0 -86.6025009 50
v  50 -86.6025009 0
v  35.3553009 -86.6025009 -35.3553009
v  0 -86.6025009 -50
v  -35.3554001 -86.6025009 -35.3553009
v  -50 -86.6025009 0
v  -35.3553009 -86.6025009 35.3553009
v  0 -100 0
v  0 97.1292038 56.0775986
v  0 112.155197 0
v  39.6528015 97.1292038 39.6528015
v  56.0775986 97.1292038 0
v  39.6528015 97.1292038 -39.6528015
v  0 97.1292038 -56.0775986
v  -39.6528015 97.1292038 -39.6528015
v  -56.0775986 97.1292038 0
v  -39.6528015 97.1292038 39.6528015
v  0 56.0775986 97.1292038
v  68.6808014 56.0775986 68.6808014
v  97.1292038 56.0775986 0
v  68.6808014 56.0775986 -68.6808014
v  0 56.0775986 -97.1292038
v  -68.6808014 56.0775986 -68.6808014
v  -97.1292038 56.0775986 0
v  -68.6808014 56.0775986 68.6808014
v  0 0 112.155197
v  79.3057022 0 79.3057022
v  112.155197 0 0
v  79.3057022 0 -79.3057022
v  0 0 -112.155197
v  -79.3057022 0 -79.3057022
v  -112.155197 0 0
v  -79.3057022 0 79.3057022
v  0 -56.0775986 97.1292038
v  68.6808014 -56.0775986 68.6808014
v  97.1292038 -56.0775986 0
v  68.6808014 -56.0775986 -68.6808014
v  0 -56.0775986 -97.1292038
v  -68.6808014 -56.0775986 -68.6808014
v  -97.1292038 -56.0775986 0
v  -68.6808014 -56.0775986 68.6808014
v  0 -97.1292038 56.0775986
v  39.6528015 -97.1292038 39.6528015
v  56.0775986 -97.1292038 0
v  39.6528015 -97.1292038 -39.6528015
v  0 -97.1292038 -56.0775986
v  -39.6529007 -97.1292038 -39.6528015
v  -56.0775986 -97.1292038 0
v  -39.6529007 -97.1292038 39.6528015
v  0 -112.155197 0

# 183 UV coordinates
vt 0.0866699964 0.50556004 0
vt 0.138679996 0.506669998 0
vt 0.190699995 0.50556004 0
vt 0.242719993 0.506669998 0
vt 0.294730008 0.50556004 0
vt 0.346749991 0.506669998 0
vt 0.398759991 0.50556004 0
vt 0.450780004 0.506669998 0
vt 0.502799988 0.50556004 0
vt 0.554809988 0.506669998 0
vt 0.606830001 0.50556004 0
vt 0.658840001 0.506669998 0
vt 0.710860014 0.50556004 0
vt 0.762880027 0.506669998 0
vt 0.814890027 0.50556004 0
vt 0.866909981 0.506669998 0
vt 0.918919981 0.50556004 0
vt 0.0866699964 0.50444001 0
vt 0.190699995 0.50444001 0
vt 0.294730008 0.50444001 0
vt 0.398759991 0.50444001 0
vt 0.502799988 0.50444001 0
vt 0.606830001 0.50444001 0
vt 0.710860014 0.50444001 0
vt 0.814890027 0.50444001 0
vt 0.918919981 0.50444001 0
vt 0.0866699964 0.503329992 0
vt 0.190699995 0.503329992 0
vt 0.294730008 0.503329992 0
vt 0.398759991 0.503329992 0
vt 0.502799988 0.503329992 0
vt 0.606830001 0.503329992 0
vt 0.710860014 0.503329992 0
vt 0.814890027 0.503329992 0
vt 0.918919981 0.503329992 0
vt 0.0866699964 0.502220035 0
vt 0.190699995 0.502220035 0
vt 0.294730008 0.502220035 0
vt 0.398759991 0.502220035 0
vt 0.502799988 0.502220035 0
vt 0.606830001 0.502220035 0
vt 0.710860014 0.502220035 0
vt 0.814890027 0.502220035 0
vt 0.918919981 0.502220035 0
vt 0.0866699964 0.501109958 0
vt 0.190699995 0.501109958 0
vt 0.294730008 0.501109958 0
vt 0.398759991 0.501109958 0
vt 0.502799988 0.501109958 0
vt 0.606830001 0.501109958 0
vt 0.710860014 0.501109958 0
vt 0.814890027 0.501109958 0
vt 0.918919981 0.501109958 0
vt 0.138679996 0.5 0
vt 0.242719993 0.5 0
vt 0.346749991 0.5 0
vt 0.450780004 0.5 0
vt 0.554809988 0.5 0
vt 0.658840001 0.5 0
vt 0.762880027 0.5 0
vt 0.866909981 0.5 0
vt 0.190699995 0.975560009 0
vt 0.138679996 0.976670027 0
vt 0.0866699964 0.975560009 0
vt 0.294730008 0.975560009 0
vt 0.242719993 0.976670027 0
vt 0.398759991 0.975560009 0
vt 0.346749991 0.976670027 0
vt 0.502799988 0.975560009 0
vt 0.450780004 0.976670027 0
vt 0.606830001 0.975560009 0
vt 0.554809988 0.976670027 0
vt 0.710860014 0.975560009 0
vt 0.658840001 0.976670027 0
vt 0.814890027 0.975560009 0
vt 0.762880027 0.976670027 0
vt 0.918919981 0.975560009 0
vt 0.866909981 0.976670027 0
vt 0.190699995 0.974439979 0
vt 0.0866699964 0.974439979 0
vt 0.294730008 0.974439979 0
vt 0.398759991 0.974439979 0
vt 0.502799988 0.974439979 0
vt 0.606830001 0.974439979 0
vt 0.710860014 0.974439979 0
vt 0.814890027 0.974439979 0
vt 0.918919981 0.974439979 0
vt 0.190699995 0.973330021 0
vt 0.0866699964 0.973330021 0
vt 0.294730008 0.973330021 0
vt 0.398759991 0.973330021 0
vt 0.502799988 0.973330021 0
vt 0.606830001 0.973330021 0
vt 0.710860014 0.973330021 0
vt 0.814890027 0.973330021 0
vt 0.918919981 0.973330021 0
vt 0.190699995 0.972220004 0
vt 0.0866699964 0.972220004 0
vt 0.294730008 0.972220004 0
vt 0.398759991 0.972220004 0
vt 0.502799988 0.972220004 0
vt 0.606830001 0.972220004 0
vt 0.710860014 0.972220004 0
vt 0.814890027 0.972220004 0
vt 0.918919981 0.972220004 0
vt 0.190699995 0.971109986 0
vt 0.0866699964 0.971109986 0
vt 0.294730008 0.971109986 0
vt 0.398759991 0.971109986 0
vt 0.502799988 0.971109986 0
vt 0.606830001 0.971109986 0
vt 0.710860014 0.971109986 0
vt 0.814890027 0.971109986 0
vt 0.918919981 0.971109986 0
vt 0.138679996 0.970000029 0
vt 0.242719993 0.970000029 0
vt 0.346749991 0.970000029 0
vt 0.450780004 0.970000029 0
vt 0.554809988 0.970000029 0
vt 0.658840001 0.970000029 0
vt 0.762880027 0.970000029 0
vt 0.866909981 0.970000029 0
vt 0.0866699964 0.682219982 0
vt 0.138679996 0.683329999 0
vt 0.190699995 0.682219982 0
vt 0.242719993 0.683329999 0
vt 0.294730008 0.682219982 0
vt 0.346749991 0.683329999 0
vt 0.398759991 0.682219982 0
vt 0.450780004 0.683329999 0
vt 0.502799988 0.682219982 0
vt 0.554809988 0.683329999 0
vt 0.606830001 0.682219982 0
vt 0.658840001 0.683329999 0
vt 0.710860014 0.682219982 0
vt 0.762880027 0.683329999 0
vt 0.814890027 0.682219982 0
vt 0.866909981 0.683329999 0
vt 0.918919981 0.682219982 0
vt 0.0866699964 0.681110024 0
vt 0.190699995 0.681110024 0
vt 0.294730008 0.681110024 0
vt 0.398759991 0.681110024 0
vt 0.502799988 0.681110024 0
vt 0.606830001 0.681110024 0
vt 0.710860014 0.681110024 0
vt 0.814890027 0.681110024 0
vt 0.918919981 0.681110024 0
vt 0.0866699964 0.680000007 0
vt 0.190699995 0.680000007 0
vt 0.294730008 0.680000007 0
vt 0.398759991 0.680000007 0
vt 0.502799988 0.680000007 0
vt 0.606830001 0.680000007 0
vt 0.710860014 0.680000007 0
vt 0.814890027 0.680000007 0
vt 0.918919981 0.680000007 0
vt 0.0866699964 0.67888999 0
vt 0.190699995 0.67888999 0
vt 0.294730008 0.67888999 0
vt 0.398759991 0.67888999 0
vt 0.502799988 0.67888999 0
vt 0.606830001 0.67888999 0
vt 0.710860014 0.67888999 0
vt 0.814890027 0.67888999 0
vt 0.918919981 0.67888999 0
vt 0.0866699964 0.677780032 0
vt 0.190699995 0.677780032 0
vt 0.294730008 0.677780032 0
vt 0.398759991 0.677780032 0
vt 0.502799988 0.677780032 0
vt 0.606830001 0.677780032 0
vt 0.710860014 0.677780032 0
vt 0.814890027 0.677780032 0
vt 0.918919981 0.677780032 0
vt 0.138679996 0.676670015 0
vt 0.242719993 0.676670015 0
vt 0.346749991 0.676670015 0
vt 0.450780004 0.676670015 0
vt 0.554809988 0.676670015 0
vt 0.658840001 0.676670015 0
vt 0.762880027 0.676670015 0
vt 0.866909981 0.676670015 0

# 126 vertex normals
vn -3.86572395e-07 -0.838329315 -0.545164168
vn 6.47682574e-09 -1 -1.77665116e-09
vn -0.385489374 -0.838328958 -0.385489911
vn -0.545164108 -0.838329315 3.84765002e-07
vn -0.385489911 -0.838328958 0.385489374
vn 3.84765002e-07 -0.838329315 0.545164108
vn 0.385489374 -0.838328958 0.385489911
vn 0.545164108 -0.838329315 -3.84765002e-07
vn 0.385489911 -0.838328958 -0.385489374
vn 4.57641747e-08 -0.474389464 -0.880315065
vn -0.622476757 -0.474389523 -0.622476697
vn -0.880315065 -0.474389464 -4.69856225e-08
vn -0.622476697 -0.474389523 0.622476757
vn -4.69856225e-08 -0.474389464 0.880315065
vn 0.622476757 -0.474389523 0.622476697
vn 0.880315065 -0.474389464 4.69856225e-08
vn 0.622476697 -0.474389523 -0.622476757
vn -5.21930443e-10 -1.84474613e-09 -1
vn -0.707106769 3.76555809e-09 -0.707106829
vn -1 3.34189321e-09 5.05870124e-10
vn -0.707106829 3.76555809e-09 0.707106769
vn 5.05870124e-10 3.34189321e-09 1
vn 0.707106769 3.76555809e-09 0.707106829
vn 1 3.34189321e-09 -5.05870124e-10
vn 0.707106829 3.76555809e-09 -0.707106769
vn -4.67782364e-08 0.474389464 -0.880315065
vn -0.622476697 0.474389523 -0.622476757
vn -0.880315065 0.474389464 4.45735608e-08
vn -0.622476757 0.474389523 0.622476697
vn 4.45735608e-08 0.474389464 0.880315065
vn 0.622476697 0.474389523 0.622476757
vn 0.880315065 0.474389464 -4.45735608e-08
vn 0.622476757 0.474389523 -0.622476697
vn 3.82985803e-07 0.838329315 -0.545164168
vn -0.385489941 0.838328958 -0.385489374
vn -0.545164108 0.838329315 -3.85758085e-07
vn -0.385489374 0.838328958 0.385489941
vn -3.85758085e-07 0.838329315 0.545164108
vn 0.385489941 0.838328958 0.385489374
vn 0.545164108 0.838329315 3.85758085e-07
vn 0.385489374 0.838328958 -0.385489941
vn 6.47682574e-09 1 -1.77665116e-09
vn 0.385489702 0.838329077 0.385489404
vn 7.50797291e-09 1 4.04150846e-09
vn -1.71881439e-07 0.838328898 0.545164764
vn 0.545164764 0.838328898 1.76812875e-07
vn 0.385489404 0.838329077 -0.385489702
vn 2.77493427e-07 0.838328958 -0.545164764
vn -0.385489523 0.838329256 -0.385489196
vn -0.545164645 0.838329017 -4.16851833e-07
vn -0.385488957 0.838329315 0.385489613
vn 0.622476339 0.474390984 0.622476041
vn 3.35205748e-08 0.474390686 0.88031441
vn 0.880314469 0.474390626 1.92382828e-07
vn 0.622476041 0.474390984 -0.622476339
vn 3.2479187e-07 0.474390566 -0.880314469
vn -0.622476637 0.474390864 -0.622475803
vn -0.880314469 0.474390596 7.13785309e-10
vn -0.622476637 0.474390656 0.622475982
vn 0.707106769 -1.59721611e-10 0.707106769
vn 8.59957936e-08 -8.46495922e-08 1
vn 1 -4.233075e-10 -1.02251574e-09
vn 0.707106769 -1.59721611e-10 -0.707106769
vn 8.43534949e-08 7.61036603e-08 -1
vn -0.70710665 -1.00923202e-07 -0.707106948
vn -1 -1.56565139e-09 -7.44997619e-09
vn -0.70710665 1.00899612e-07 0.707106888
vn 0.622476041 -0.474390984 0.622476339
vn 3.33628634e-07 -0.474390566 0.880314469
vn 0.880314469 -0.474390596 -2.00673512e-07
vn 0.622476339 -0.474390984 -0.622476041
vn 7.48331246e-08 -0.474390656 -0.88031441
vn -0.622476757 -0.474390477 -0.622475982
vn -0.880314469 -0.474390626 4.8183888e-09
vn -0.622476697 -0.474390805 0.622475803
vn 0.385489404 -0.838329077 0.385489702
vn 2.63589698e-07 -0.838328958 0.545164704
vn 0.545164824 -0.838328898 -1.71597577e-07
vn 0.385489702 -0.838329077 -0.385489404
vn 1.35829751e-07 -0.838328958 -0.545164704
vn -0.385489821 -0.838329077 -0.385489285
vn -0.545164764 -0.838328898 7.5792758e-07
vn -0.385489523 -0.838329256 0.385489136
vn 7.40968105e-08 -1 6.03859078e-08
vn 5.06774199e-07 -0.838329017 -0.545164645
vn -6.82616896e-09 -1 -2.45412601e-09
vn -0.385489404 -0.838329494 -0.385488749
vn -0.545164645 -0.838329017 -5.08164419e-07
vn -0.385488749 -0.838329494 0.385489404
vn -5.08164419e-07 -0.838329017 0.545164645
vn 0.385489404 -0.838329494 0.385488749
vn 0.545164645 -0.838329017 5.08164419e-07
vn 0.385488749 -0.838329494 -0.385489404
vn -1.09576234e-07 -0.474390566 -0.880314469
vn -0.622476339 -0.474390358 -0.622476518
vn -0.880314469 -0.474390566 1.14620647e-07
vn -0.622476518 -0.474390358 0.622476339
vn 1.14620647e-07 -0.474390566 0.880314469
vn 0.622476339 -0.474390358 0.622476518
vn 0.880314469 -0.474390566 -1.14620647e-07
vn 0.622476518 -0.474390358 -0.622476339
vn -1.41571699e-09 6.85468127e-09 -1
vn -0.707106769 -6.78812029e-09 -0.707106829
vn -1 -2.99007219e-09 7.01608327e-09
vn -0.707106829 -6.78812029e-09 0.707106769
vn 7.01608327e-09 -2.99007219e-09 1
vn 0.707106769 -6.78812029e-09 0.707106829
vn 1 -2.99007219e-09 -7.01608327e-09
vn 0.707106829 -6.78812029e-09 -0.707106769
vn 1.19445417e-07 0.474390566 -0.880314469
vn -0.622476518 0.474390388 -0.622476339
vn -0.880314469 0.474390566 -1.13150968e-07
vn -0.622476339 0.474390388 0.622476518
vn -1.58265621e-07 0.474390507 0.880314529
vn 0.622476578 0.474390239 0.622476399
vn 0.880314529 0.474390447 2.25008577e-07
vn 0.622476339 0.474390119 -0.622476697
vn -6.32645254e-07 0.838329017 -0.545164645
vn -0.385488719 0.838329494 -0.385489464
vn -0.545164645 0.838329017 5.05822982e-07
vn -0.385489464 0.838329494 0.385488719
vn 2.27305492e-07 0.838329017 0.545164585
vn 0.385489494 0.838329256 0.385489166
vn 0.545164585 0.838329017 -1.34125855e-07
vn 0.385489792 0.838329315 -0.385488778
vn -1.35276835e-07 1 -1.83008619e-09

# Mesh 'obj1' with 240 faces
g obj1
usemtl mat1
f  1/1/1 2/2/2 3/3/3
f  3/3/3 2/4/2 4/5/4
f  4/5/4 2/6/2 5/7/5
f  5/7/5 2/8/2 6/9/6
f  6/9/6 2/10/2 7/11/7
f  7/11/7 2/12/2 8/13/8
f  8/13/8 2/14/2 9/15/9
f  9/15/9 2/16/2 1/17/1
f  10/18/10 1/1/1 11/19/11
f  3/3/3 11/19/11 1/1/1
f  11/19/11 3/3/3 12/20/12
f  4/5/4 12/20/12 3/3/3
f  12/20/12 4/5/4 13/21/13
f  5/7/5 13/21/13 4/5/4
f  13/21/13 5/7/5 14/22/14
f  6/9/6 14/22/14 5/7/5
f  14/22/14 6/9/6 15/23/15
f  7/11/7 15/23/15 6/9/6
f  15/23/15 7/11/7 16/24/16
f  8/13/8 16/24/16 7/11/7
f  16/24/16 8/13/8 17/25/17
f  9/15/9 17/25/17 8/13/8
f  17/25/17 9/15/9 10/26/10
f  1/17/1 10/26/10 9/15/9
f  18/27/18 10/18/10 19/28/19
f  11/19/11 19/28/19 10/18/10
f  19/28/19 11/19/11 20/29/20
f  12/20/12 20/29/20 11/19/11
f  20/29/20 12/20/12 21/30/21
f  13/21/13 21/30/21 12/20/12
f  21/30/21 13/21/13 22/31/22
f  14/22/14 22/31/22 13/21/13
f  22/31/22 14/22/14 23/32/23
f  15/23/15 23/32/23 14/22/14
f  23/32/23 15/23/15 24/33/24
f  16/24/16 24/33/24 15/23/15
f  24/33/24 16/24/16 25/34/25
f  17/25/17 25/34/25 16/24/16
f  25/34/25 17/25/17 18/35/18
f  10/26/10 18/35/18 17/25/17
f  26/36/26 18/27/18 27/37/27
f  19/28/19 27/37/27 18/27/18
f  27/37/27 19/28/19 28/38/28
f  20/29/20 28/38/28 19/28/19
f  28/38/28 20/29/20 29/39/29
f  21/30/21 29/39/29 20/29/20
f  29/39/29 21/30/21 30/40/30
f  22/31/22 30/40/30 21/30/21
f  30/40/30 22/31/22 31/41/31
f  23/32/23 31/41/31 22/31/22
f  31/41/31 23/32/23 32/42/32
f  24/33/24 32/42/32 23/32/23
f  32/42/32 24/33/24 33/43/33
f  25/34/25 33/43/33 24/33/24
f  33/43/33 25/34/25 26/44/26
f  18/35/18 26/44/26 25/34/25
f  34/45/34 26/36/26 35/46/35
f  27/37/27 35/46/35 26/36/26
f  35/46/35 27/37/27 36/47/36
f  28/38/28 36/47/36 27/37/27
f  36/47/36 28/38/28 37/48/37
f  29/39/29 37/48/37 28/38/28
f  37/48/37 29/39/29 38/49/38
f  30/40/30 38/49/38 29/39/29
f  38/49/38 30/40/30 39/50/39
f  31/41/31 39/50/39 30/40/30
f  39/50/39 31/41/31 40/51/40
f  32/42/32 40/51/40 31/41/31
f  40/51/40 32/42/32 41/52/41
f  33/43/33 41/52/41 32/42/32
f  41/52/41 33/43/33 34/53/34
f  26/44/26 34/53/34 33/43/33
f  42/54/42 34/45/34 35/46/35
f  42/55/42 35/46/35 36/47/36
f  42/56/42 36/47/36 37/48/37
f  42/57/42 37/48/37 38/49/38
f  42/58/42 38/49/38 39/50/39
f  42/59/42 39/50/39 40/51/40
f  42/60/42 40/51/40 41/52/41
f  42/61/42 41/52/41 34/53/34
f  43/62/43 44/63/44 45/64/45
f  46/65/46 44/66/44 43/62/43
f  47/67/47 44/68/44 46/65/46
f  48/69/48 44/70/44 47/67/47
f  49/71/49 44/72/44 48/69/48
f  50/73/50 44/74/44 49/71/49
f  51/75/51 44/76/44 50/73/50
f  45/77/45 44/78/44 51/75/51
f  43/62/43 45/64/45 52/79/52
f  53/80/53 52/79/52 45/64/45
f  46/65/46 43/62/43 54/81/54
f  52/79/52 54/81/54 43/62/43
f  47/67/47 46/65/46 55/82/55
f  54/81/54 55/82/55 46/65/46
f  48/69/48 47/67/47 56/83/56
f  55/82/55 56/83/56 47/67/47
f  49/71/49 48/69/48 57/84/57
f  56/83/56 57/84/57 48/69/48
f  50/73/50 49/71/49 58/85/58
f  57/84/57 58/85/58 49/71/49
f  51/75/51 50/73/50 59/86/59
f  58/85/58 59/86/59 50/73/50
f  45/77/45 51/75/51 53/87/53
f  59/86/59 53/87/53 51/75/51
f  52/79/52 53/80/53 60/88/60
f  61/89/61 60/88/60 53/80/53
f  54/81/54 52/79/52 62/90/62
f  60/88/60 62/90/62 52/79/52
f  55/82/55 54/81/54 63/91/63
f  62/90/62 63/91/63 54/81/54
f  56/83/56 55/82/55 64/92/64
f  63/91/63 64/92/64 55/82/55
f  57/84/57 56/83/56 65/93/65
f  64/92/64 65/93/65 56/83/56
f  58/85/58 57/84/57 66/94/66
f  65/93/65 66/94/66 57/84/57
f  59/86/59 58/85/58 67/95/67
f  66/94/66 67/95/67 58/85/58
f  53/87/53 59/86/59 61/96/61
f  67/95/67 61/96/61 59/86/59
f  60/88/60 61/89/61 68/97/68
f  69/98/69 68/97/68 61/89/61
f  62/90/62 60/88/60 70/99/70
f  68/97/68 70/99/70 60/88/60
f  63/91/63 62/90/62 71/100/71
f  70/99/70 71/100/71 62/90/62
f  64/92/64 63/91/63 72/101/72
f  71/100/71 72/101/72 63/91/63
f  65/93/65 64/92/64 73/102/73
f  72/101/72 73/102/73 64/92/64
f  66/94/66 65/93/65 74/103/74
f  73/102/73 74/103/74 65/93/65
f  67/95/67 66/94/66 75/104/75
f  74/103/74 75/104/75 66/94/66
f  61/96/61 67/95/67 69/105/69
f  75/104/75 69/105/69 67/95/67
f  68/97/68 69/98/69 76/106/76
f  77/107/77 76/106/76 69/98/69
f  70/99/70 68/97/68 78/108/78
f  76/106/76 78/108/78 68/97/68
f  71/100/71 70/99/70 79/109/79
f  78/108/78 79/109/79 70/99/70
f  72/101/72 71/100/71 80/110/80
f  79/109/79 80/110/80 71/100/71
f  73/102/73 72/101/72 81/111/81
f  80/110/80 81/111/81 72/101/72
f  74/103/74 73/102/73 82/112/82
f  81/111/81 82/112/82 73/102/73
f  75/104/75 74/103/74 83/113/83
f  82/112/82 83/113/83 74/103/74
f  69/105/69 75/104/75 77/114/77
f  83/113/83 77/114/77 75/104/75
f  76/106/76 77/107/77 84/115/84
f  78/108/78 76/106/76 84/116/84
f  79/109/79 78/108/78 84/117/84
f  80/110/80 79/109/79 84/118/84
f  81/111/81 80/110/80 84/119/84
f  82/112/82 81/111/81 84/120/84
f  83/113/83 82/112/82 84/121/84
f  77/114/77 83/113/83 84/122/84
f  85/123/85 86/124/86 87/125/87
f  87/125/87 86/126/86 88/127/88
f  88/127/88 86/128/86 89/129/89
f  89/129/89 86/130/86 90/131/90
f  90/131/90 86/132/86 91/133/91
f  91/133/91 86/134/86 92/135/92
f  92/135/92 86/136/86 93/137/93
f  93/137/93 86/138/86 85/139/85
f  94/140/94 85/123/85 95/141/95
f  87/125/87 95/141/95 85/123/85
f  95/141/95 87/125/87 96/142/96
f  88/127/88 96/142/96 87/125/87
f  96/142/96 88/127/88 97/143/97
f  89/129/89 97/143/97 88/127/88
f  97/143/97 89/129/89 98/144/98
f  90/131/90 98/144/98 89/129/89
f  98/144/98 90/131/90 99/145/99
f  91/133/91 99/145/99 90/131/90
f  99/145/99 91/133/91 100/146/100
f  92/135/92 100/146/100 91/133/91
f  100/146/100 92/135/92 101/147/101
f  93/137/93 101/147/101 92/135/92
f  101/147/101 93/137/93 94/148/94
f  85/139/85 94/148/94 93/137/93
f  102/149/102 94/140/94 103/150/103
f  95/141/95 103/150/103 94/140/94
f  103/150/103 95/141/95 104/151/104
f  96/142/96 104/151/104 95/141/95
f  104/151/104 96/142/96 105/152/105
f  97/143/97 105/152/105 96/142/96
f  105/152/105 97/143/97 106/153/106
f  98/144/98 106/153/106 97/143/97
f  106/153/106 98/144/98 107/154/107
f  99/145/99 107/154/107 98/144/98
f  107/154/107 99/145/99 108/155/108
f  100/146/100 108/155/108 99/145/99
f  108/155/108 100/146/100 109/156/109
f  101/147/101 109/156/109 100/146/100
f  109/156/109 101/147/101 102/157/102
f  94/148/94 102/157/102 101/147/101
f  110/158/110 102/149/102 111/159/111
f  103/150/103 111/159/111 102/149/102
f  111/159/111 103/150/103 112/160/112
f  104/151/104 112/160/112 103/150/103
f  112/160/112 104/151/104 113/161/113
f  105/152/105 113/161/113 104/151/104
f  113/161/113 105/152/105 114/162/114
f  106/153/106 114/162/114 105/152/105
f  114/162/114 106/153/106 115/163/115
f  107/154/107 115/163/115 106/153/106
f  115/163/115 107/154/107 116/164/116
f  108/155/108 116/164/116 107/154/107
f  116/164/116 108/155/108 117/165/117
f  109/156/109 117/165/117 108/155/108
f  117/165/117 109/156/109 110/166/110
f  102/157/102 110/166/110 109/156/109
f  118/167/118 110/158/110 119/168/119
f  111/159/111 119/168/119 110/158/110
f  119/168/119 111/159/111 120/169/120
f  112/160/112 120/169/120 111/159/111
f  120/169/120 112/160/112 121/170/121
f  113/161/113 121/170/121 112/160/112
f  121/170/121 113/161/113 122/171/122
f  114/162/114 122/171/122 113/161/113
f  122/171/122 114/162/114 123/172/123
f  115/163/115 123/172/123 114/162/114
f  123/172/123 115/163/115 124/173/124
f  116/164/116 124/173/124 115/163/115
f  124/173/124 116/164/116 125/174/125
f  117/165/117 125/174/125 116/164/116
f  125/174/125 117/165/117 118/175/118
f  110/166/110 118/175/118 117/165/117
f  126/176/126 118/167/118 119/168/119
f  126/177/126 119/168/119 120/169/120
f  126/178/126 120/169/120 121/170/121
f  126/179/126 121/170/121 122/171/122
f  126/180/126 122/171/122 123/172/123
f  126/181/126 123/172/123 124/173/124
f  126/182/126 124/173/124 125/174/125
f  126/183/126 125/174/125 118/175/118

