# File produced by Open Asset Import Library (http://www.assimp.sf.net)
# (assimp v5.2.3369795085)

mtllib 25.X.mtl

# 50 vertex positions
v  28.9762993 -28.4252567 31.1846428
v  31.6952 0.127685547 48.5486679
v  0.0267999992 -32.3817902 39.7181435
v  0.0267999992 -4.20051956 57.8837929
v  0.0267999992 -4.42306519 64.0100098
v  35.0171013 0.359132767 53.695713
v  46.8675995 -18.0667896 8.84338093
v  51.2677002 11.4591675 24.1087971
v  56.6427002 12.8792439 26.6921921
v  46.8675995 -5.26312923 -18.7717056
v  51.2677002 25.4655075 -6.10024071
v  56.6427002 28.3547764 -6.68561935
v  28.9762993 5.09533882 -41.1129723
v  31.6952 36.7969894 -30.5401154
v  35.0171013 40.8748856 -33.6891403
v  0.0267999992 9.0518322 -49.6463814
v  0.0267999992 41.1251526 -39.8751488
v  0.0267999992 45.6570854 -44.0034409
v  -28.9220009 5.09533882 -41.1129723
v  -31.6417007 36.7969894 -30.5401154
v  -34.9636002 40.8748856 -33.6891403
v  -46.8139992 -5.26312923 -18.7717056
v  -51.2136993 25.4655075 -6.10024071
v  -56.5886002 28.3547764 -6.68561935
v  -46.8139992 -18.0667896 8.84338093
v  -51.2136993 11.4591675 24.1087971
v  -56.5886002 12.8792439 26.6921921
v  -28.9220009 -28.4252567 31.1846428
v  -31.6417007 0.127685547 48.5486679
v  -34.9636002 0.359132767 53.695713
v  30.9153004 2.68849182 48.5523796
v  0.0267999992 -1.53316689 57.6577034
v  50.0052986 13.740799 24.7146339
v  50.0052986 27.4021339 -4.75029373
v  30.9153004 38.4543991 -28.587944
v  0.0267999992 42.6760559 -37.6932678
v  -30.8617001 38.4543991 -28.587944
v  -49.9518013 27.4021339 -4.75029373
v  -49.9518013 13.740799 24.7146339
v  -30.8617001 2.68849182 48.5523796
v  28.2630997 -26.6644421 30.9191818
v  0.0267999992 -30.5236416 39.2427444
v  45.7140007 -16.5611725 9.12833023
v  45.7140007 -4.07281971 -17.8066959
v  28.2630997 6.03045082 -39.5975456
v  0.0267999992 9.88960648 -47.9210167
v  -28.2094994 6.03045082 -39.5975456
v  -45.6604004 -4.07281971 -17.8066959
v  -45.6604004 -16.5611725 9.12833023
v  -28.2094994 -26.6644421 30.9191818

# 88 UV coordinates
vt 0.254940003 0.642170012 0
vt 0.254940003 0.939220011 0
vt 0.0175700001 0.642170012 0
vt 0.0175700001 0.939220011 0
vt 0.0175700001 1.04429996 0
vt 0.254940003 1.04429996 0
vt 0.492370009 0.642170012 0
vt 0.492370009 0.939220011 0
vt 0.492370009 1.04429996 0
vt 0.729740024 0.642170012 0
vt 0.729740024 0.939220011 0
vt 0.729740024 1.04429996 0
vt 0.967109978 0.642170012 0
vt 0.967109978 0.939220011 0
vt 0.967109978 1.04429996 0
vt 1.20454001 0.642170012 0
vt 1.20454001 0.939220011 0
vt 1.20454001 1.04429996 0
vt 1.44190001 0.642170012 0
vt 1.44190001 0.939220011 0
vt 1.44190001 1.04429996 0
vt 1.67932999 0.642170012 0
vt 1.67932999 0.939220011 0
vt 1.67932999 1.04429996 0
vt 1.91670001 0.642170012 0
vt 1.91670001 0.939220011 0
vt 1.91670001 1.04429996 0
vt 2.15412998 0.642170012 0
vt 2.15412998 0.939220011 0
vt 2.15412998 1.04429996 0
vt 2.3447299 0.642170012 0
vt 2.3447299 0.939220011 0
vt 2.3447299 1.04429996 0
vt 0.201399997 1.02161002 0
vt 0.0273100007 1.02161002 0
vt 0.438829988 1.02161002 0
vt 0.676199973 1.02161002 0
vt 0.913569987 1.02161002 0
vt 1.15100002 1.02161002 0
vt 1.38837004 1.02161002 0
vt 1.62579 1.02161002 0
vt 1.86316001 1.02161002 0
vt 2.10058999 1.02161002 0
vt 2.33796 1.02161002 0
vt -0.664250016 0.639899969 0
vt -1.17165995 0.639899969 0
vt -0.655350029 1.00615001 0
vt -1.16542006 1.00615001 0
vt 0.822329998 0.401030004 0
vt 0.616840005 0.499570012 0
vt 0.861899972 0.262120008 0
vt -0.185409993 0.639899969 0
vt -0.176850006 1.00615001 0
vt -0.0602600016 0.639899969 0
vt -0.298370004 0.639899969 0
vt -0.0533200018 1.00615001 0
vt -0.289810002 1.00615001 0
vt -0.29629001 0.639899969 0
vt -0.290619999 1.00615001 0
vt 0.223429993 0.425719976 0
vt 0.367830008 0.500200033 0
vt -0.424719989 0.639899969 0
vt -0.183329999 0.639899969 0
vt -0.419860005 1.00615001 0
vt -0.177660003 1.00615001 0
vt 0.151380002 0.273769975 0
vt -0.711440027 0.639899969 0
vt -0.707159996 1.00615001 0
vt 0.210089996 0.129760027 0
vt -0.995859981 0.639899969 0
vt -0.991919994 1.00615001 0
vt -1.22891998 0.639899969 0
vt -1.22498 1.00615001 0
vt -1.49842 0.639899969 0
vt -1.49390996 1.00615001 0
vt 0.601920009 0.0289000273 0
vt 0.801989973 0.119109988 0
vt 0.38628 0.0325000286 0
vt 1.12526 0.190100014 0
vt 1.24728 0.45885998 0
vt 1.24728 0.0699099898 0
vt 1.12526 0.338660002 0
vt 1.75002003 0.0662000179 0
vt 1.49237001 -0.000120043755 0
vt 1.75002003 0.455139995 0
vt 1.50074005 0.510329962 0
vt 1.89716005 0.193809986 0
vt 1.89716005 0.342379987 0

# 50 vertex normals
vn 0.422879368 -0.874943972 0.235894382
vn 0.440768093 -0.855382442 0.27211082
vn -1.60438299e-06 -0.932741523 0.360545903
vn 2.59226823e-07 -0.915623903 0.402036011
vn 8.22609479e-07 -0.259080231 0.965855837
vn 0.579103291 -0.179935992 0.795149326
vn 0.684228599 -0.723635137 -0.090462625
vn 0.713178217 -0.697671711 -0.0680522174
vn 0.937011123 0.0272755027 0.348233014
vn 0.684228897 -0.536605418 -0.493847728
vn 0.713176608 -0.502728403 -0.488511384
vn 0.937011302 0.283403099 -0.204187438
vn 0.42288211 -0.385288715 -0.820197105
vn 0.44076848 -0.345010519 -0.828668177
vn 0.579102695 0.49061662 -0.651103199
vn -2.18366972e-06 -0.327498645 -0.944851637
vn -3.54135636e-08 -0.284772366 -0.958595216
vn 9.13070267e-07 0.56976223 -0.821809649
vn -0.422874928 -0.385294169 -0.820198298
vn -0.440770417 -0.345017314 -0.828664303
vn -0.579107165 0.490614533 -0.651100814
vn -0.684231818 -0.536599338 -0.493850172
vn -0.713182807 -0.502723217 -0.488507569
vn -0.937012255 0.283403993 -0.20418182
vn -0.68423146 -0.723633111 -0.0904568583
vn -0.713184595 -0.697665334 -0.0680506974
vn -0.937012076 0.0272801369 0.348230064
vn -0.422872186 -0.874948502 0.235890478
vn -0.440770328 -0.855383635 0.272103637
vn -0.579107702 -0.179935083 0.795146346
vn -0.337704599 0.938063979 -0.0774056315
vn 2.69891501e-07 0.984219432 -0.176952541
vn -0.546416044 0.817229033 0.183210671
vn -0.546416104 0.66786927 0.505351424
vn -0.337704629 0.547034621 0.765969157
vn 1.41502667e-07 0.500881493 0.865515828
vn 0.337704182 0.547034323 0.765969574
vn 0.546414852 0.667870045 0.505351782
vn 0.54641515 0.817229629 0.183211058
vn 0.337703884 0.938064158 -0.0774064958
vn -0.424237251 0.873553038 -0.238595486
vn 3.70798375e-07 0.93153429 -0.36365357
vn -0.686427891 0.721755803 0.0887993872
vn -0.686427891 0.534124136 0.493485689
vn -0.424236208 0.382327735 0.820883155
vn 2.18218943e-07 0.324345678 0.945938706
vn 0.424235821 0.382327557 0.820883453
vn 0.686426997 0.53412497 0.493486166
vn 0.686426938 0.721756697 0.0888001472
vn 0.424236417 0.873553336 -0.238595933

# Mesh 'uekibati' with 96 faces
g uekibati
usemtl tarai
f  1/1/1 2/2/2 3/3/3
f  4/4/4 3/3/3 2/2/2
f  4/4/4 2/2/2 5/5/5
f  6/6/6 5/5/5 2/2/2
f  7/7/7 8/8/8 1/1/1
f  2/2/2 1/1/1 8/8/8
f  2/2/2 8/8/8 6/6/6
f  9/9/9 6/6/6 8/8/8
f  10/10/10 11/11/11 7/7/7
f  8/8/8 7/7/7 11/11/11
f  8/8/8 11/11/11 9/9/9
f  12/12/12 9/9/9 11/11/11
f  13/13/13 14/14/14 10/10/10
f  11/11/11 10/10/10 14/14/14
f  11/11/11 14/14/14 12/12/12
f  15/15/15 12/12/12 14/14/14
f  16/16/16 17/17/17 13/13/13
f  14/14/14 13/13/13 17/17/17
f  14/14/14 17/17/17 15/15/15
f  18/18/18 15/15/15 17/17/17
f  19/19/19 20/20/20 16/16/16
f  17/17/17 16/16/16 20/20/20
f  17/17/17 20/20/20 18/18/18
f  21/21/21 18/18/18 20/20/20
f  22/22/22 23/23/23 19/19/19
f  20/20/20 19/19/19 23/23/23
f  20/20/20 23/23/23 21/21/21
f  24/24/24 21/21/21 23/23/23
f  25/25/25 26/26/26 22/22/22
f  23/23/23 22/22/22 26/26/26
f  23/23/23 26/26/26 24/24/24
f  27/27/27 24/24/24 26/26/26
f  28/28/28 29/29/29 25/25/25
f  26/26/26 25/25/25 29/29/29
f  26/26/26 29/29/29 27/27/27
f  30/30/30 27/27/27 29/29/29
f  3/31/3 4/32/4 28/28/28
f  29/29/29 28/28/28 4/32/4
f  29/29/29 4/32/4 30/30/30
f  5/33/5 30/30/30 4/32/4
f  31/34/31 32/35/32 6/34/6
f  5/35/5 6/34/6 32/35/32
f  33/36/33 31/34/31 9/36/9
f  6/34/6 9/36/9 31/34/31
f  34/37/34 33/36/33 12/37/12
f  9/36/9 12/37/12 33/36/33
f  35/38/35 34/37/34 15/38/15
f  12/37/12 15/38/15 34/37/34
f  36/39/36 35/38/35 18/39/18
f  15/38/15 18/39/18 35/38/35
f  37/40/37 36/39/36 21/40/21
f  18/39/18 21/40/21 36/39/36
f  38/41/38 37/40/37 24/41/24
f  21/40/21 24/41/24 37/40/37
f  39/42/39 38/41/38 27/42/27
f  24/41/24 27/42/27 38/41/38
f  40/43/40 39/42/39 30/43/30
f  27/42/27 30/43/30 39/42/39
f  32/44/32 40/43/40 5/44/5
f  30/43/30 5/44/5 40/43/40
f  41/45/41 42/46/42 31/47/31
f  32/48/32 31/47/31 42/46/42
f  41/49/41 43/50/43 42/51/42
f  43/52/43 41/45/41 33/53/33
f  31/47/31 33/53/33 41/45/41
f  44/54/44 43/55/43 34/56/34
f  33/57/33 34/56/34 43/55/43
f  45/58/45 44/54/44 35/59/35
f  34/56/34 35/59/35 44/54/44
f  45/60/45 43/50/43 44/61/44
f  46/62/46 45/63/45 36/64/36
f  35/65/35 36/64/36 45/63/45
f  46/66/46 43/50/43 45/60/45
f  47/67/47 46/62/46 37/68/37
f  36/64/36 37/68/37 46/62/46
f  47/69/47 43/50/43 46/66/46
f  48/70/48 47/67/47 38/71/38
f  37/68/37 38/71/38 47/67/47
f  49/72/49 48/70/48 39/73/39
f  38/71/38 39/73/39 48/70/48
f  50/74/50 49/72/49 40/75/40
f  39/73/39 40/75/40 49/72/49
f  42/46/42 50/74/50 32/48/32
f  40/75/40 32/48/32 50/74/50
f  42/51/42 49/76/49 50/77/50
f  49/76/49 42/51/42 48/78/48
f  48/78/48 42/51/42 47/69/47
f  47/69/47 42/51/42 43/50/43
f  25/79/25 19/80/19 28/81/28
f  22/82/22 19/80/19 25/79/25
f  28/81/28 1/83/1 3/84/3
f  28/81/28 19/80/19 13/85/13
f  13/85/13 19/80/19 16/86/16
f  7/87/7 13/85/13 10/88/10
f  7/87/7 1/83/1 13/85/13
f  13/85/13 1/83/1 28/81/28

