# File produced by Open Asset Import Library (http://www.assimp.sf.net)
# (assimp v5.2.3369795085)

mtllib 04.X.mtl

# 56 vertex positions
v  15.9456997 0 19.3803997
v  34.5144997 0 0
v  15.9456997 16.7838993 9.69019985
v  15.9456997 16.7838993 -9.69019985
v  15.9456997 0 -19.3803997
v  15.9456997 -16.7840004 -9.69019985
v  15.9456997 -16.7840004 9.69019985
v  -94.7626038 12.4431 7.18400002
v  -94.7626038 0 14.3681002
v  -94.7626038 12.4431 -7.18400002
v  -94.7626038 0 -14.3681002
v  -94.7626038 -12.4432001 -7.18400002
v  -94.7626038 -12.4432001 7.18400002
v  -322.816803 0 0
v  18.4536991 21.5375996 12.4347
v  42.2815018 0 0
v  18.4536991 0 24.8694992
v  18.4536991 21.5375996 -12.4347
v  18.4536991 0 -24.8694992
v  18.4536991 -21.5377007 -12.4347
v  18.4536991 -21.5377007 12.4347
v  -54.6567001 0 24.8694992
v  -54.6567001 21.5375996 12.4347
v  -54.6567001 21.5375996 -12.4347
v  -54.6567001 0 -24.8694992
v  -54.6567001 -21.5377007 -12.4347
v  -54.6567001 -21.5377007 12.4347
v  -231.064301 0 0
v  16.1287003 35.2888985 20.3740005
v  55.1702003 0 0
v  16.1287003 0 40.7481003
v  16.1287003 35.2888985 -20.3740005
v  16.1287003 0 -40.7481003
v  16.1287003 -35.2890015 -20.3740005
v  16.1287003 -35.2890015 20.3740005
v  -61.5369987 0 40.7481003
v  -61.5369987 35.2888985 20.3740005
v  -61.5369987 35.2888985 -20.3740005
v  -61.5369987 0 -40.7481003
v  -61.5369987 -35.2890015 -20.3740005
v  -61.5369987 -35.2890015 20.3740005
v  -370.06839 0 0
v  19.5018005 38.411499 22.1769009
v  61.9977989 0 0
v  19.5018005 0 44.3536987
v  19.5018005 38.411499 -22.1769009
v  19.5018005 0 -44.3536987
v  19.5018005 -38.4115982 -22.1769009
v  19.5018005 -38.4115982 22.1769009
v  -65.0363007 0 44.3536987
v  -65.0363007 38.411499 22.1769009
v  -65.0363007 38.411499 -22.1769009
v  -65.0363007 0 -44.3536987
v  -65.0363007 -38.4115982 -22.1769009
v  -65.0363007 -38.4115982 22.1769009
v  -400.868286 0 0

# 104 UV coordinates
vt 0.0166699998 0.0247099996 0
vt 0.0972200036 0.0247099996 0
vt 0.177780002 0.0247099996 0
vt 0.258329988 0.0247099996 0
vt 0.338889986 0.0247099996 0
vt 0.419440001 0.0247099996 0
vt 0.5 0.0247099996 0
vt 0.580560029 0.0247099996 0
vt 0.661109984 0.0247099996 0
vt 0.741670012 0.0247099996 0
vt 0.822220027 0.0247099996 0
vt 0.902779996 0.0247099996 0
vt 0.983330011 0.0247099996 0
vt 0.177780002 0.212539971 0
vt 0.0166699998 0.212539971 0
vt 0.338889986 0.212539971 0
vt 0.5 0.212539971 0
vt 0.661109984 0.212539971 0
vt 0.822220027 0.212539971 0
vt 0.983330011 0.212539971 0
vt 0.0972200036 0.649989963 0
vt 0.258329988 0.649989963 0
vt 0.419440001 0.649989963 0
vt 0.580560029 0.649989963 0
vt 0.741670012 0.649989963 0
vt 0.902779996 0.649989963 0
vt 0.177780002 0.322730005 0
vt 0.0972200036 0.322730005 0
vt 0.0166699998 0.322730005 0
vt 0.338889986 0.322730005 0
vt 0.258329988 0.322730005 0
vt 0.5 0.322730005 0
vt 0.419440001 0.322730005 0
vt 0.661109984 0.322730005 0
vt 0.580560029 0.322730005 0
vt 0.822220027 0.322730005 0
vt 0.741670012 0.322730005 0
vt 0.983330011 0.322730005 0
vt 0.902779996 0.322730005 0
vt 0.0166699998 0.461359978 0
vt 0.177780002 0.461359978 0
vt 0.338889986 0.461359978 0
vt 0.5 0.461359978 0
vt 0.661109984 0.461359978 0
vt 0.822220027 0.461359978 0
vt 0.983330011 0.461359978 0
vt 0.0972200036 0.59999001 0
vt 0.258329988 0.59999001 0
vt 0.419440001 0.59999001 0
vt 0.580560029 0.59999001 0
vt 0.741670012 0.59999001 0
vt 0.902779996 0.59999001 0
vt 0.177780002 0.426069975 0
vt 0.0972200036 0.426069975 0
vt 0.0166699998 0.426069975 0
vt 0.338889986 0.426069975 0
vt 0.258329988 0.426069975 0
vt 0.5 0.426069975 0
vt 0.419440001 0.426069975 0
vt 0.661109984 0.426069975 0
vt 0.580560029 0.426069975 0
vt 0.822220027 0.426069975 0
vt 0.741670012 0.426069975 0
vt 0.983330011 0.426069975 0
vt 0.902779996 0.426069975 0
vt 0.0166699998 0.574699998 0
vt 0.177780002 0.574699998 0
vt 0.338889986 0.574699998 0
vt 0.5 0.574699998 0
vt 0.661109984 0.574699998 0
vt 0.822220027 0.574699998 0
vt 0.983330011 0.574699998 0
vt 0.0972200036 0.633329988 0
vt 0.258329988 0.633329988 0
vt 0.419440001 0.633329988 0
vt 0.580560029 0.633329988 0
vt 0.741670012 0.633329988 0
vt 0.902779996 0.633329988 0
vt 0.177780002 0.516070008 0
vt 0.0972200036 0.516070008 0
vt 0.0166699998 0.516070008 0
vt 0.338889986 0.516070008 0
vt 0.258329988 0.516070008 0
vt 0.5 0.516070008 0
vt 0.419440001 0.516070008 0
vt 0.661109984 0.516070008 0
vt 0.580560029 0.516070008 0
vt 0.822220027 0.516070008 0
vt 0.741670012 0.516070008 0
vt 0.983330011 0.516070008 0
vt 0.902779996 0.516070008 0
vt 0.0166699998 0.648030043 0
vt 0.177780002 0.648030043 0
vt 0.338889986 0.648030043 0
vt 0.5 0.648030043 0
vt 0.661109984 0.648030043 0
vt 0.822220027 0.648030043 0
vt 0.983330011 0.648030043 0
vt 0.0972200036 0.756659985 0
vt 0.258329988 0.756659985 0
vt 0.419440001 0.756659985 0
vt 0.580560029 0.756659985 0
vt 0.741670012 0.756659985 0
vt 0.902779996 0.756659985 0

# 56 vertex normals
vn 0.332694948 1.18423077e-06 0.94303453
vn 1 1.28447175e-06 -3.68298814e-09
vn 0.33269465 0.816691995 0.471517205
vn 0.332694769 0.816691995 -0.471517086
vn 0.332694948 1.1097834e-06 -0.94303453
vn 0.332695454 -0.81669122 -0.47151792
vn 0.332695514 -0.816691279 0.471517831
vn -0.0539041758 0.864767373 0.499271184
vn -0.0539044216 1.84581177e-06 0.998546124
vn -0.0539043546 0.864767432 -0.499271065
vn -0.0539044663 1.61520791e-06 -0.998546124
vn -0.0539044105 -0.864766479 -0.499272674
vn -0.0539045446 -0.864766538 0.499272585
vn -1 -8.23138544e-05 -7.74302311e-09
vn -0.353443533 -0.810129046 -0.467727065
vn -1 -1.01641206e-06 -1.72644876e-09
vn -0.353443682 -8.995043e-07 -0.935455799
vn -0.353443474 -0.810129046 0.467727035
vn -0.353443682 -8.94199275e-07 0.935455799
vn -0.353444099 0.81012845 0.467727631
vn -0.353444099 0.81012845 -0.467727631
vn 0.0684641302 -1.00064619e-06 -0.997653604
vn 0.0684640259 -0.863993883 -0.498825908
vn 0.0684640259 -0.863993883 0.498825908
vn 0.0684641302 -1.00064619e-06 0.997653604
vn 0.0684642568 0.863993406 0.498826712
vn 0.0684642568 0.863993406 -0.498826712
vn 1 -1.93077403e-06 6.35634834e-08
vn -0.353442729 -0.810129046 -0.467727661
vn -1 -6.53881273e-07 8.31848312e-10
vn -0.353442788 -5.67914128e-07 -0.935456157
vn -0.353442729 -0.810129046 0.467727661
vn -0.353442758 -5.51152993e-07 0.935456157
vn -0.353443086 0.810128689 0.467728019
vn -0.353443116 0.810128689 -0.467728019
vn 0.0642814785 -6.23595099e-07 -0.997931778
vn 0.0642814562 -0.864234567 -0.498965472
vn 0.0642814562 -0.864234567 0.498965472
vn 0.0642814785 -6.34794674e-07 0.997931778
vn 0.0642815903 0.864234209 0.498966008
vn 0.0642815828 0.864234269 -0.498965979
vn 1 5.27937755e-06 7.12635284e-08
vn -0.353443503 -0.810128152 -0.467728645
vn -1 -5.3618902e-07 -2.23449614e-09
vn -0.353443354 -4.88219712e-07 -0.935455918
vn -0.353443503 -0.810128152 0.467728645
vn -0.353443354 -4.94549568e-07 0.935455918
vn -0.353443861 0.810127795 0.467728943
vn -0.353443861 0.810127795 -0.467728943
vn 0.0642814636 -5.5295402e-07 -0.997931778
vn 0.0642815754 -0.864233851 -0.498966664
vn 0.0642815754 -0.864233851 0.498966634
vn 0.0642814562 -5.52953964e-07 0.997931838
vn 0.0642816946 0.864233613 0.498967111
vn 0.0642816946 0.864233613 -0.498967111
vn 1 6.64545087e-06 -4.46086723e-08

# Mesh 'obj1' with 96 faces
g obj1
usemtl mat1
f  1/1/1 2/2/2 3/3/3
f  3/3/3 2/4/2 4/5/4
f  4/5/4 2/6/2 5/7/5
f  5/7/5 2/8/2 6/9/6
f  6/9/6 2/10/2 7/11/7
f  7/11/7 2/12/2 1/13/1
f  3/3/3 8/14/8 1/1/1
f  9/15/9 1/1/1 8/14/8
f  4/5/4 10/16/10 3/3/3
f  8/14/8 3/3/3 10/16/10
f  5/7/5 11/17/11 4/5/4
f  10/16/10 4/5/4 11/17/11
f  6/9/6 12/18/12 5/7/5
f  11/17/11 5/7/5 12/18/12
f  7/11/7 13/19/13 6/9/6
f  12/18/12 6/9/6 13/19/13
f  1/13/1 9/20/9 7/11/7
f  13/19/13 7/11/7 9/20/9
f  8/14/8 14/21/14 9/15/9
f  10/16/10 14/22/14 8/14/8
f  11/17/11 14/23/14 10/16/10
f  12/18/12 14/24/14 11/17/11
f  13/19/13 14/25/14 12/18/12
f  9/20/9 14/26/14 13/19/13
f  15/27/15 16/28/16 17/29/17
f  18/30/18 16/31/16 15/27/15
f  19/32/19 16/33/16 18/30/18
f  20/34/20 16/35/16 19/32/19
f  21/36/21 16/37/16 20/34/20
f  17/38/17 16/39/16 21/36/21
f  22/40/22 23/41/23 17/29/17
f  15/27/15 17/29/17 23/41/23
f  23/41/23 24/42/24 15/27/15
f  18/30/18 15/27/15 24/42/24
f  24/42/24 25/43/25 18/30/18
f  19/32/19 18/30/18 25/43/25
f  25/43/25 26/44/26 19/32/19
f  20/34/20 19/32/19 26/44/26
f  26/44/26 27/45/27 20/34/20
f  21/36/21 20/34/20 27/45/27
f  27/45/27 22/46/22 21/36/21
f  17/38/17 21/36/21 22/46/22
f  22/40/22 28/47/28 23/41/23
f  23/41/23 28/48/28 24/42/24
f  24/42/24 28/49/28 25/43/25
f  25/43/25 28/50/28 26/44/26
f  26/44/26 28/51/28 27/45/27
f  27/45/27 28/52/28 22/46/22
f  29/53/29 30/54/30 31/55/31
f  32/56/32 30/57/30 29/53/29
f  33/58/33 30/59/30 32/56/32
f  34/60/34 30/61/30 33/58/33
f  35/62/35 30/63/30 34/60/34
f  31/64/31 30/65/30 35/62/35
f  36/66/36 37/67/37 31/55/31
f  29/53/29 31/55/31 37/67/37
f  37/67/37 38/68/38 29/53/29
f  32/56/32 29/53/29 38/68/38
f  38/68/38 39/69/39 32/56/32
f  33/58/33 32/56/32 39/69/39
f  39/69/39 40/70/40 33/58/33
f  34/60/34 33/58/33 40/70/40
f  40/70/40 41/71/41 34/60/34
f  35/62/35 34/60/34 41/71/41
f  41/71/41 36/72/36 35/62/35
f  31/64/31 35/62/35 36/72/36
f  36/66/36 42/73/42 37/67/37
f  37/67/37 42/74/42 38/68/38
f  38/68/38 42/75/42 39/69/39
f  39/69/39 42/76/42 40/70/40
f  40/70/40 42/77/42 41/71/41
f  41/71/41 42/78/42 36/72/36
f  43/79/43 44/80/44 45/81/45
f  46/82/46 44/83/44 43/79/43
f  47/84/47 44/85/44 46/82/46
f  48/86/48 44/87/44 47/84/47
f  49/88/49 44/89/44 48/86/48
f  45/90/45 44/91/44 49/88/49
f  50/92/50 51/93/51 45/81/45
f  43/79/43 45/81/45 51/93/51
f  51/93/51 52/94/52 43/79/43
f  46/82/46 43/79/43 52/94/52
f  52/94/52 53/95/53 46/82/46
f  47/84/47 46/82/46 53/95/53
f  53/95/53 54/96/54 47/84/47
f  48/86/48 47/84/47 54/96/54
f  54/96/54 55/97/55 48/86/48
f  49/88/49 48/86/48 55/97/55
f  55/97/55 50/98/50 49/88/49
f  45/90/45 49/88/49 50/98/50
f  50/92/50 56/99/56 51/93/51
f  51/93/51 56/100/56 52/94/52
f  52/94/52 56/101/56 53/95/53
f  53/95/53 56/102/56 54/96/54
f  54/96/54 56/103/56 55/97/55
f  55/97/55 56/104/56 50/98/50

