# File produced by Open Asset Import Library (http://www.assimp.sf.net)
# (assimp v5.2.3369795085)

mtllib 17.X.mtl

# 12 vertex positions
v  -6.80885124 0.164438993 -6.41949081
v  6.11217308 0.164434642 6.89307594
v  -6.80885124 0.164435849 6.8930769
v  6.11217308 0.164437786 -6.41949177
v  -6.75808287 -6.49184895 0.23679176
v  6.16293669 6.82072258 0.236793846
v  -6.75808287 6.82072258 0.236793742
v  6.16293669 -6.49184895 0.236791864
v  -0.348338395 6.62494802 -6.41949463
v  -0.348339766 -6.29607439 6.89307976
v  -0.348339826 6.62494898 6.89307785
v  -0.348338336 -6.29607534 -6.41949272

# 4 UV coordinates
vt 0 0 0
vt 1 1 0
vt 0 1 0
vt 1 0 0

# 3 vertex normals
vn 3.78466808e-07 -3.62052846 -1.45662273e-06
vn 3.26509024e-08 -6.4404702e-07 3.62052846
vn -3.62052727 -1.29897865e-06 -3.46822901e-07

# Mesh '' with 2 faces
usemtl eye
f  1/1/1 2/2/1 3/3/1
f  2/2/1 1/1/1 4/4/1

# Mesh '' with 2 faces
usemtl eye
f  5/1/2 6/2/2 7/3/2
f  6/2/2 5/1/2 8/4/2

# Mesh '' with 2 faces
usemtl eye
f  9/1/3 10/2/3 11/3/3
f  10/2/3 9/1/3 12/4/3

