# File produced by Open Asset Import Library (http://www.assimp.sf.net)
# (assimp v5.2.3369795085)

mtllib 03.X.mtl

# 66 vertex positions
v  -51.4190407 1.82003641 6.28230047
v  -51.4190407 1.82003641 -1.88496792
v  -51.4190407 -1.82003641 6.28230047
v  -51.4190407 -1.82003641 -1.88496792
v  11.0269289 1.82003641 -5.12392712
v  11.0269289 1.82003641 6.28230047
v  13.809309 0 -3.91883588
v  13.809309 1.30305421 5.58307791
v  11.0269289 -1.82003641 6.28230047
v  11.0269289 -1.82003641 -5.12392712
v  13.809309 -1.30305421 5.58307791
v  32.6870804 -1.30305421 5.58307791
v  47.6062965 0 5.58307791
v  32.6870804 1.30305421 5.58307791
v  -10.885746 1.82003641 6.28230047
v  -10.885746 1.82003641 -1.88496792
v  -10.885746 -1.82003641 -1.88496792
v  -10.885746 -1.82003641 6.28230047
v  23.746294 1.30305421 5.58307791
v  23.746294 0 -5.76686144
v  39.8490944 0 -3.05167651
v  23.746294 -1.30305421 5.58307791
v  -55.2204628 -2.89413261 -5.43747091
v  -55.2204628 2.89413261 -5.43747091
v  -55.2204628 -2.89413261 9.83778763
v  -55.2204628 2.89413261 9.83778763
v  13.7542562 2.07204485 8.7259264
v  10.9401817 2.89413261 9.83778763
v  13.7542562 0 -6.38365936
v  10.9401817 2.89413261 -8.30001259
v  10.9401817 -2.89413261 -8.30001259
v  13.7542562 -2.07204485 8.7259264
v  10.9401817 -2.89413261 9.83778763
v  30.7081623 2.07204485 8.64319229
v  54.9433479 0 8.87760448
v  30.7081623 -2.07204485 8.64319229
v  -11.2356148 2.89413261 -5.43747091
v  -11.2356148 2.89413261 9.83778763
v  -11.2356148 -2.89413261 9.83778763
v  -11.2356148 -2.89413261 -5.43747091
v  23.6157112 0 -9.32245159
v  23.6157112 2.07204485 8.7259264
v  41.7384872 0 -5.95476151
v  23.6157112 -2.07204485 8.7259264
v  -53.1119919 -2.27805543 -3.39094591
v  -53.1119919 2.27805543 -3.39094591
v  -53.1119919 -2.27805543 7.79815674
v  -53.1119919 2.27805543 7.79815674
v  13.7830696 1.63090169 6.92307377
v  10.8729868 2.27805543 7.79815674
v  13.7830696 0 -4.96967602
v  10.8729868 2.27805543 -6.47802067
v  10.8729868 -2.27805543 -6.47802067
v  13.7830696 -1.63090169 6.92307377
v  10.8729868 -2.27805543 7.79815674
v  32.0319023 1.63090169 6.77355671
v  50.4776878 0 6.92307377
v  32.0319023 -1.63090169 6.77355671
v  -11.1484556 2.27805543 -3.39094591
v  -11.1484556 2.27805543 7.79815674
v  -11.1484556 -2.27805543 7.79815674
v  -11.1484556 -2.27805543 -3.39094591
v  23.8771858 0 -7.28282166
v  23.8771858 1.63090169 6.92307377
v  40.5696182 0 -4.6321559
v  23.8771858 -1.63090169 6.92307377

# 3 UV coordinates
vt 0.265249997 0.0146999955 0
vt 0.165169999 0.528329968 0
vt 0.216979995 0.359619975 0

# 91 vertex normals
vn -1.02902496 0 -3.43966845e-16
vn 0.271510303 0.992559612 9.07563378e-17
vn 0.116917014 1.02113664 -0.0500268228
vn 0.266086698 0.991187334 -0.0750860572
vn 0.0824508592 1.01620543 -0.139358327
vn 0.0865004808 -1.02538288 2.89140685e-17
vn 0.248519525 -0.997589469 -0.0441098027
vn 0.136012077 -1.01759779 -0.0699125156
vn 0.307281822 -0.972968161 -0.133428946
vn 0.118750438 0 1.02215004
vn 0.118750431 0 1.02215004
vn 0.133138835 0 1.02037561
vn 0.13313885 0 1.02037561
vn 0.0738194063 0 -1.02637374
vn 0.408974648 0 -0.944262743
vn 0.0738194585 0 -1.02637374
vn -3.43966845e-16 0 1.02902496
vn 0 1.02902496 0
vn 0 -1.02902496 0
vn 3.43966845e-16 0 -1.02902496
vn -0.0754367113 0 -1.02625608
vn -0.0754367337 0 -1.02625608
vn 0.00118538737 1.02095854 -0.128586397
vn -0.000893727527 1.02230918 -0.117368415
vn 0.0567661077 1.02241087 -0.101715557
vn 0.0249426477 1.02005661 -0.133246362
vn -0.000218347806 -1.02109957 -0.127467364
vn 3.92321441e-17 -1.02230966 -0.117368445
vn 0.0347595476 -1.02202082 -0.114706717
vn 0.0611198619 -1.02197766 -0.103529409
vn 0.0892625898 1.02200484 -0.0801907927
vn 0.0892625898 -1.02200484 -0.0801907927
vn 1.02902496 0 3.43966845e-16
vn -0.132185504 -1.01103711 0.138648033
vn -0.151924163 -1.01653492 0.0496814735
vn -0.372876406 -0.956317365 0.0728881061
vn -0.350918114 -0.967341125 -1.17299584e-16
vn -0.406305015 0.936648309 0.128446758
vn -0.334907055 0.972241461 0.0384207442
vn -0.194095761 1.00860476 0.0627337769
vn -0.126713008 1.0211935 -4.23557039e-17
vn -0.20742543 0 -1.00790226
vn -0.17468299 0 -1.01408982
vn -0.207425416 0 -1.00790226
vn -0.128635347 0 1.02095318
vn -0.579206049 0 0.850536704
vn -0.00133150187 0 -1.02902412
vn 0.00995266903 0 -1.0289768
vn 0.066004768 0 1.02690589
vn 0.0660047606 0 1.02690589
vn 0.00546033494 -1.02229548 0.11736469
vn 0.000612987962 -1.02069569 0.130661353
vn -0.024796471 -1.02095854 0.126179233
vn -0.0562711321 -1.02273226 0.0987150669
vn 0.000682009617 1.02230966 0.117366306
vn 0.00347526511 1.02106905 0.127665207
vn -0.0593712665 1.0224067 0.100259818
vn -0.033075545 1.02268696 0.10913182
vn -0.00600152882 0 -1.02900743
vn -0.088157393 -1.02223325 0.078484185
vn -0.088157393 1.02223325 0.078484185
vn -0.0994945765 -1.01470697 0.139150932
vn -0.129707471 -1.01957572 0.0503353775
vn -0.308080047 -0.979054511 0.0736976042
vn -0.303469747 -0.983259141 -1.01439256e-16
vn -0.346762091 0.959855318 0.131628901
vn -0.283255249 0.988365471 0.0423379205
vn -0.156008154 1.01493537 0.0667826831
vn -0.101123624 1.02404416 -3.38020707e-17
vn -0.159127578 0 -1.01664686
vn -0.139032155 0 -1.0195893
vn -0.139032111 0 -1.0195893
vn -0.0957346708 0 1.024562
vn -0.473532587 0 0.913596869
vn -0.0957347378 0 1.02456188
vn -0.00565499021 0 -1.02900946
vn 0.00834076107 0 -1.02899122
vn -0.00565498974 0 -1.02900946
vn 0.0716020241 0 1.02653086
vn 0.0716020465 0 1.02653074
vn 0.00357198622 -1.02230382 0.117365152
vn 0.000801399525 -1.02085912 0.129376486
vn -0.0249639396 -1.02081788 0.127279952
vn -0.0559559464 -1.02265644 0.0996755362
vn 0.00106967916 1.02230942 0.117365777
vn 0.00221578754 1.02108741 0.127545297
vn -0.0597012602 1.02226663 0.101484567
vn -0.0337519348 1.0225004 0.110662363
vn -0.00943242945 0 -1.02898169
vn -0.0909952819 -1.02201986 0.0780242234
vn -0.0909952819 1.02201986 0.0780242234

# Mesh '' with 120 faces
usemtl mat1
f  1/1/1 2/1/1 3/1/1
f  4/1/1 3/1/1 2/1/1
f  5/1/2 6/1/3 7/1/4
f  8/1/5 7/1/4 6/1/3
f  9/1/6 10/1/7 11/1/8
f  7/1/9 11/1/8 10/1/7
f  6/1/10 9/1/11 8/1/12
f  11/1/13 8/1/12 9/1/11
f  5/1/14 7/1/15 10/1/16
f  12/1/17 13/1/17 14/1/17
f  1/1/18 15/1/18 2/1/18
f  16/1/18 2/1/18 15/1/18
f  16/1/18 15/1/18 5/1/2
f  6/1/3 5/1/2 15/1/18
f  4/1/19 17/1/19 3/1/19
f  18/1/19 3/1/19 17/1/19
f  18/1/19 17/1/19 9/1/6
f  10/1/7 9/1/6 17/1/19
f  3/1/17 18/1/17 1/1/17
f  15/1/17 1/1/17 18/1/17
f  15/1/17 18/1/17 6/1/10
f  9/1/11 6/1/10 18/1/17
f  2/1/20 16/1/21 4/1/20
f  17/1/22 4/1/20 16/1/21
f  17/1/22 16/1/21 10/1/16
f  5/1/14 10/1/16 16/1/21
f  8/1/5 19/1/23 7/1/4
f  20/1/24 7/1/4 19/1/23
f  20/1/24 19/1/23 21/1/25
f  14/1/26 21/1/25 19/1/23
f  7/1/9 20/1/27 11/1/8
f  22/1/28 11/1/8 20/1/27
f  22/1/28 20/1/27 12/1/29
f  21/1/30 12/1/29 20/1/27
f  11/1/13 22/1/17 8/1/12
f  19/1/17 8/1/12 22/1/17
f  19/1/17 22/1/17 14/1/17
f  12/1/17 14/1/17 22/1/17
f  13/1/31 21/1/25 14/1/26
f  13/1/32 12/1/29 21/1/30
f  23/2/33 24/2/33 25/2/33
f  26/2/33 25/2/33 24/2/33
f  27/2/34 28/2/35 29/2/36
f  30/2/37 29/2/36 28/2/35
f  29/2/38 31/2/39 32/2/40
f  33/2/41 32/2/40 31/2/39
f  32/2/42 33/2/43 27/2/44
f  28/2/43 27/2/44 33/2/43
f  31/2/45 29/2/46 30/2/45
f  34/2/47 35/2/48 36/2/47
f  37/2/19 38/2/19 24/2/19
f  26/2/19 24/2/19 38/2/19
f  28/2/35 38/2/19 30/2/37
f  37/2/19 30/2/37 38/2/19
f  39/2/18 40/2/18 25/2/18
f  23/2/18 25/2/18 40/2/18
f  31/2/39 40/2/18 33/2/41
f  39/2/18 33/2/41 40/2/18
f  38/2/20 39/2/20 26/2/20
f  25/2/20 26/2/20 39/2/20
f  33/2/43 39/2/20 28/2/43
f  38/2/20 28/2/43 39/2/20
f  40/2/49 37/2/50 23/2/17
f  24/2/17 23/2/17 37/2/50
f  30/2/45 37/2/50 31/2/45
f  40/2/49 31/2/45 37/2/50
f  41/2/51 42/2/52 29/2/36
f  27/2/34 29/2/36 42/2/52
f  34/2/53 42/2/52 43/2/54
f  41/2/51 43/2/54 42/2/52
f  44/2/55 41/2/56 32/2/40
f  29/2/38 32/2/40 41/2/56
f  43/2/57 41/2/56 36/2/58
f  44/2/55 36/2/58 41/2/56
f  42/2/59 44/2/59 27/2/44
f  32/2/42 27/2/44 44/2/59
f  36/2/47 44/2/59 34/2/47
f  42/2/59 34/2/47 44/2/59
f  34/2/53 43/2/54 35/2/60
f  43/2/57 36/2/58 35/2/61
f  45/3/33 46/3/33 47/3/33
f  48/3/33 47/3/33 46/3/33
f  49/3/62 50/3/63 51/3/64
f  52/3/65 51/3/64 50/3/63
f  51/3/66 53/3/67 54/3/68
f  55/3/69 54/3/68 53/3/67
f  54/3/70 55/3/71 49/3/70
f  50/3/72 49/3/70 55/3/71
f  53/3/73 51/3/74 52/3/75
f  56/3/76 57/3/77 58/3/78
f  59/3/19 60/3/19 46/3/19
f  48/3/19 46/3/19 60/3/19
f  50/3/63 60/3/19 52/3/65
f  59/3/19 52/3/65 60/3/19
f  61/3/18 62/3/18 47/3/18
f  45/3/18 47/3/18 62/3/18
f  53/3/67 62/3/18 55/3/69
f  61/3/18 55/3/69 62/3/18
f  60/3/20 61/3/20 48/3/20
f  47/3/20 48/3/20 61/3/20
f  55/3/71 61/3/20 50/3/72
f  60/3/20 50/3/72 61/3/20
f  62/3/79 59/3/80 45/3/17
f  46/3/17 45/3/17 59/3/80
f  52/3/75 59/3/80 53/3/73
f  62/3/79 53/3/73 59/3/80
f  63/3/81 64/3/82 51/3/64
f  49/3/62 51/3/64 64/3/82
f  56/3/83 64/3/82 65/3/84
f  63/3/81 65/3/84 64/3/82
f  66/3/85 63/3/86 54/3/68
f  51/3/66 54/3/68 63/3/86
f  65/3/87 63/3/86 58/3/88
f  66/3/85 58/3/88 63/3/86
f  64/3/89 66/3/89 49/3/70
f  54/3/70 49/3/70 66/3/89
f  58/3/78 66/3/89 56/3/76
f  64/3/89 56/3/76 66/3/89
f  56/3/83 65/3/84 57/3/90
f  65/3/87 58/3/88 57/3/91

