# File produced by Open Asset Import Library (http://www.assimp.sf.net)
# (assimp v5.2.3369795085)

mtllib 30.X.mtl

# 10 vertex positions
v  32.4662132 21.8933983 -0.0175966881
v  -0.383328587 21.8933983 32.4662132
v  32.4662132 -21.8933983 -0.0175966881
v  -0.383328587 -21.8933983 32.4662132
v  -32.4662132 -21.8933983 -0.0175966881
v  -32.4662132 21.8933983 -0.0175966881
v  -0.383328587 21.8933983 -32.4662132
v  -0.383328587 -21.8933983 -32.4662132
v  -0.383328587 53.7284698 -0.0175966881
v  -0.383328587 -53.7284698 -0.0175966881

# 23 UV coordinates
vt 1 1 0
vt 0.494100004 1 0
vt 1 0.511929989 0
vt 0.494100004 0.511929989 0
vt 0.494100004 0 0
vt 0.494100004 0.506889999 0
vt 0 0 0
vt 0 0.506889999 0
vt 1.00978994 0.0112900138 0
vt 1.00978994 0.491829991 0
vt 0.515690029 0.0112900138 0
vt 0.515690029 0.491829991 0
vt 0 0.500270009 0
vt 0.495599985 0.500270009 0
vt 0 0.958590031 0
vt 0.495599985 0.958590031 0
vt 1 0.500270009 0
vt 0.494100004 0.500270009 0
vt 1 0 0
vt 0 1 0
vt 0.494100004 0.499729991 0
vt 1 0.499729991 0
vt 0 0.750140011 0

# 24 vertex normals
vn 0.221343681 0.079435654 0.223835796
vn 0.221262097 0.0798940733 0.223753273
vn 0.221343681 -0.079435654 0.223835796
vn 0.221262097 -0.0798940733 0.223753273
vn -0.224069327 -0.078886427 0.221303821
vn -0.224069342 0.078886427 0.221303806
vn -0.223979786 -0.0793871582 0.221215382
vn -0.223979786 0.0793871582 0.221215382
vn -0.223949671 0.0788847134 -0.221425503
vn -0.223949671 -0.0788847134 -0.221425503
vn -0.223868087 0.0793414116 -0.221344829
vn -0.223868072 -0.079341419 -0.221344829
vn 0.221230626 0.0793889388 -0.223964095
vn 0.221230626 -0.0793889388 -0.223964095
vn 0.221141294 0.0798913836 -0.223873645
vn 0.221141294 -0.0798913836 -0.223873645
vn 0.184705421 0.190591335 -0.186987594
vn 0.184771791 0.190659836 0.186852127
vn -0.187722534 0.189183831 0.185405612
vn -0.187722534 -0.189183831 0.185405612
vn -0.187656134 -0.18911691 -0.185541034
vn 0.184705421 -0.190591335 -0.186987594
vn 0.184771791 -0.190659836 0.186852127
vn -0.187656134 0.18911691 -0.185541034

# Mesh 'obj2' with 16 faces
g obj2
usemtl mat2
f  1/1/1 2/2/2 3/3/3
f  4/4/4 3/3/3 2/2/2
f  4/5/5 2/6/6 5/7/7
f  6/8/8 5/7/7 2/6/6
f  7/9/9 8/10/10 6/11/11
f  5/12/12 6/11/11 8/10/10
f  1/13/13 3/14/14 7/15/15
f  8/16/16 7/15/15 3/14/14
f  1/17/13 7/1/15 9/18/17
f  2/5/2 1/19/1 9/18/18
f  9/18/19 6/7/8 2/5/6
f  5/20/7 10/21/20 4/2/5
f  8/5/10 10/21/21 5/7/12
f  3/22/14 10/21/22 8/19/16
f  4/2/4 10/21/23 3/1/3
f  7/2/9 6/23/11 9/18/24

