# File produced by Open Asset Import Library (http://www.assimp.sf.net)
# (assimp v5.2.3369795085)

mtllib 04.X.mtl

# 148 vertex positions
v  1618.69373 9.91041565 -2882.19214
v  1059.89331 9.91041565 -2869.61353
v  1619.21094 9.91041565 -2052.12134
v  1060.16968 9.91041565 -2041.36755
v  1327.56702 9.91041565 -3769.29907
v  768.766663 9.91041565 -3756.72046
v  1328.08423 9.91041565 -2939.22827
v  769.043091 9.91041565 -2928.47437
v  485.638885 9.91041565 -2709.47485
v  -306.646027 9.91041565 -2702.66455
v  486.372284 9.91041565 -2260.0166
v  -306.253815 9.91041565 -2254.19409
v  3001.93921 9.91041565 -5448.78516
v  2034.396 9.91041565 -5445.3623
v  3003.72241 9.91041565 -4999.32715
v  2034.396 9.91041565 -4996.39697
v  1077.84912 9.91041565 -4993.50488
v  1076.89612 9.91041565 -5441.97461
v  304.782288 9.91041565 -2218.62109
v  -716.98114 9.91041565 -2204.79199
v  305.728058 9.91041565 -1306.04224
v  -716.475708 9.91041565 -1294.21924
v  -38.8726273 9.91041565 -5155.75049
v  -2701.03271 9.91041565 -5133.65039
v  -36.4090271 9.91041565 -3697.33911
v  -2699.71631 9.91041565 -3678.44409
v  638.254456 9.91041565 -5404.87793
v  59.5999718 9.91041565 -5396.60352
v  638.790588 9.91041565 -4858.91064
v  59.8865738 9.91041565 -4851.83887
v  953.807861 9.91041565 -5128.64844
v  804.040588 9.91041565 -5126.50684
v  953.946655 9.91041565 -4987.34131
v  804.114746 9.91041565 -4985.51074
v  749.913147 9.91041565 -5128.64844
v  600.145996 9.91041565 -5126.50684
v  750.052002 9.91041565 -4987.34131
v  600.220154 9.91041565 -4985.51074
v  1151.78467 9.91041565 -5128.64844
v  1002.01746 9.91041565 -5126.50684
v  1151.92358 9.91041565 -4987.34131
v  1002.0918 9.91041565 -4985.51074
v  3848.1416 9.91041565 973.810181
v  3105.59644 9.91041565 984.428406
v  3848.82935 9.91041565 1674.4093
v  3105.9646 9.91041565 1683.48425
v  -2426.87524 100.658615 1419.64526
v  -3169.42041 100.658615 1430.26343
v  -2426.18726 100.658615 2120.24487
v  -3169.05225 100.658615 2129.31958
v  -966.874451 9.91041565 -1797.47949
v  -1545.52881 9.91041565 -1789.20508
v  -966.33844 9.91041565 -1251.51172
v  -1545.24243 9.91041565 -1244.4397
v  -1003.65253 9.91041565 -3915.24487
v  -1333.07971 9.91041565 -3908.95483
v  -1003.4541 9.91041565 -3500.84375
v  -1332.91663 9.91041565 -3494.78149
v  -674.225403 9.91041565 -3921.53369
v  -673.991211 9.91041565 -3506.90479
v  -344.797913 9.91041565 -3927.82324
v  -344.528442 9.91041565 -3512.96655
v  -15.3706274 9.91041565 -3934.11304
v  -15.0657272 9.91041565 -3519.02783
v  -1003.25562 9.91041565 -3086.44189
v  -1332.75378 9.91041565 -3080.60815
v  -673.757446 9.91041565 -3092.27563
v  -344.259125 9.91041565 -3098.10938
v  -14.7610273 9.91041565 -3103.94336
v  -1003.05725 9.91041565 -2672.04126
v  -1332.59094 9.91041565 -2666.4353
v  -673.523621 9.91041565 -2677.64673
v  -343.989716 9.91041565 -2683.25269
v  -14.4561272 9.91041565 -2688.85815
v  -1002.8587 9.91041565 -2257.63916
v  -1332.42786 9.91041565 -2252.26245
v  -673.289734 9.91041565 -2263.01758
v  -343.720428 9.91041565 -2268.39551
v  -14.151227 9.91041565 -2273.77222
v  1833.16296 9.91041565 -4510.58057
v  1260.1134 9.91041565 -4504.25732
v  1833.50818 9.91041565 -4094.10645
v  1260.39697 9.91041565 -4088.01392
v  2406.21289 9.91041565 -4516.90186
v  2406.61963 9.91041565 -4100.19873
v  2979.26245 9.91041565 -4523.22119
v  2979.73071 9.91041565 -4106.29053
v  3552.31201 9.91041565 -4529.54443
v  3552.84253 9.91041565 -4112.38232
v  1833.85327 9.91041565 -3677.6333
v  1260.68005 9.91041565 -3671.77002
v  2407.02637 9.91041565 -3683.49658
v  2980.19946 9.91041565 -3689.35938
v  3553.37305 9.91041565 -3695.22217
v  1834.19849 9.91041565 -3261.15918
v  1260.9635 9.91041565 -3255.52588
v  2407.43311 9.91041565 -3266.7937
v  2980.66821 9.91041565 -3272.42822
v  3553.90283 9.91041565 -3278.06177
v  1834.5437 9.91041565 -2844.68604
v  1261.24695 9.91041565 -2839.28125
v  2407.84009 9.91041565 -2850.09106
v  2981.13672 9.91041565 -2855.49561
v  3554.43359 9.91041565 -2860.90039
v  1469.09985 9.91041565 -5108.47607
v  866.890076 9.91041565 -5081.76904
v  1469.65747 9.91041565 -3345.729
v  867.188171 9.91041565 -3322.89258
v  -1755.28015 9.91041565 -5839.10742
v  -3053.41992 9.91041565 -5827.08203
v  -1754.078 9.91041565 -5045.4707
v  -3052.77734 9.91041565 -5035.18848
v  520.042358 9.91041565 -5740.3877
v  -739.825745 9.91041565 -5736.86182
v  521.209045 9.91041565 -5507.70117
v  -739.202209 9.91041565 -5504.68555
v  2847.80884 9.91041565 -6238.49365
v  731.41925 9.91041565 -6228.64062
v  2849.76807 9.91041565 -5588.39111
v  732.466553 9.91041565 -5579.96533
v  2655.97437 24.2038116 -7967.52588
v  2667.30347 24.2038116 -5923.75049
v  3403.5105 24.2038116 -7969.41943
v  3413.19409 24.2038116 -5924.76221
v  2942.23633 28.568222 -6929.79346
v  2504.59399 28.568222 -6913.40771
v  2942.64087 28.568222 -5848.55859
v  2504.80908 28.568222 -5834.54736
v  5024.31494 -18.4322815 -12764.2344
v  -2601.2583 -18.4322815 -12661.5312
v  5031.3667 -18.4322815 -5987.34277
v  -2597.50928 -18.4322815 -5899.52002
v  5405.6748 -18.4322815 -21568
v  -3719.698 -18.4322815 -21430.1484
v  5414.11328 -18.4322815 -12472.4668
v  -3715.21313 -18.4322815 -12354.5967
v  3908.8667 9.91041565 -5924.82666
v  3198.91675 9.91041565 -5914.67529
v  3909.52466 9.91041565 -5254.98145
v  3199.26831 9.91041565 -5246.30518
v  3887.41187 9.91041565 -5263.54395
v  3650.44116 9.91041565 -5252.36182
v  3887.63062 9.91041565 -2098.13525
v  3650.55811 9.91041565 -2056.80103
v  6215.57178 325.299316 -5457.78613
v  5536.78516 253.628113 -5442.58154
v  6216.20068 276.853912 -4454.49854
v  5537.12061 200.954514 -4441.50293

# 88 UV coordinates
vt 0.755900025 0.983910024 0
vt 0.125019997 0.984350026 0
vt 0.755550027 0.00281000137 0
vt 0.12545 0.00247001648 0
vt 0.988449991 0.983910024 0
vt 0.988099992 0.00281000137 0
vt 0.890709996 0.983910024 0
vt 0.0137999998 0.984350026 0
vt 0.890359998 0.390380025 0
vt 0.0142299999 0.39003998 0
vt 0.992980003 0.414139986 0
vt 0.495330006 0.414359987 0
vt 0.992630005 0.0032299757 0
vt 0.494670004 0.00305998325 0
vt 0.00326999999 0.00288999081 0
vt 0.00283999997 0.414579988 0
vt 1.00866997 0.983910024 0
vt 0.000319999992 0.984350026 0
vt 1.00831997 0.00281000137 0
vt 0.000750000007 0.00247001648 0
vt 0.998080015 0.99752003 0
vt 0.00408999994 0.997579992 0
vt 0.998090029 0.00255000591 0
vt 0.00414999994 0.00256001949 0
vt 0.730470002 0.972729981 0
vt 0.0287100002 0.973169982 0
vt 0.730120003 0.312129974 0
vt 0.0291399993 0.311789989 0
vt 0.894439995 0.909129977 0
vt 0.792649984 0.909129977 0
vt 0.894089997 0.796409965 0
vt 0.793079972 0.796409965 0
vt 0.252590001 0.997560024 0
vt 0.252600014 0.748809993 0
vt 0.00410000002 0.748820007 0
vt 0.50108999 0.997550011 0
vt 0.50108999 0.748800039 0
vt 0.749580026 0.997529984 0
vt 0.74958998 0.748790026 0
vt 0.998080015 0.748769999 0
vt 0.252609998 0.500059962 0
vt 0.00412000017 0.500069976 0
vt 0.501100004 0.500050008 0
vt 0.74958998 0.500039995 0
vt 0.998090029 0.500030041 0
vt 0.252620012 0.251309991 0
vt 0.00412999978 0.251320004 0
vt 0.501110017 0.251299977 0
vt 0.749599993 0.251299977 0
vt 0.998090029 0.251290023 0
vt 0.252629995 0.00256001949 0
vt 0.501119971 0.00256001949 0
vt 0.749610007 0.00255000591 0
vt 0.996550024 0.983910024 0
vt 0.996200025 0.000450015068 0
vt 0.0142299999 0.00010997057 0
vt 0.481570005 0.558830023 0
vt 0.00283999997 0.559270024 0
vt 0.481220007 0.219590008 0
vt 0.00326999999 0.219250023 0
vt 0.995270014 0.99950999 0
vt 0.00283999997 0.999949992 0
vt 0.994920015 0.896969974 0
vt 0.00326999999 0.896629989 0
vt 0.892019987 0.866039991 0
vt 0.0255100001 0.866479993 0
vt 0.891669989 0.642639995 0
vt 0.0259399991 0.64230001 0
vt 0.960009992 0.221400023 0
vt 0.0131299999 0.221840024 0
vt 0.959659994 0.00555002689 0
vt 0.0131299999 0.0052099824 0
vt 0.995090008 0.431110024 0
vt 0.995090008 0.531129956 0
vt 0.602379978 0.43076998 0
vt 0.602379978 0.531569958 0
vt 0.995530009 0.99642998 0
vt 0.00601000013 0.99642998 0
vt 0.995790005 0.0591999888 0
vt 0.00601000013 0.0591999888 0
vt 0.997650027 0.996500015 0
vt 0.0049800002 0.996500015 0
vt 0.997690022 -9.00030136e-05 0
vt 0.00498999981 -9.00030136e-05 0
vt 0.990729988 0.990700006 0
vt 0.0139199998 0.990700006 0
vt 0.990379989 0.0134199858 0
vt 0.0143499998 0.0130800009 0

# 5 vertex normals
vn 0 1 0
vn -0.103818163 0.993435681 0.0480347537
vn -0.106139161 0.993111551 0.0496383235
vn -0.107614577 0.992901266 0.0506577753
vn -0.109936677 0.992563605 0.0522624068

# Mesh '' with 2 faces
usemtl Material__40__e____Sub0
f  1/1/1 2/2/1 3/3/1
f  4/4/1 3/3/1 2/2/1

# Mesh '' with 2 faces
usemtl Material__40__e_d__01Sub1
f  5/5/1 6/2/1 7/6/1
f  8/4/1 7/6/1 6/2/1

# Mesh '' with 6 faces
usemtl Material__40__e____02Sub2
f  9/7/1 10/8/1 11/9/1
f  12/10/1 11/9/1 10/8/1
f  13/11/1 14/12/1 15/13/1
f  16/14/1 15/13/1 14/12/1
f  16/14/1 14/12/1 17/15/1
f  18/16/1 17/15/1 14/12/1

# Mesh '' with 2 faces
usemtl Material__40__e_m________Sub3
f  19/17/1 20/18/1 21/19/1
f  22/20/1 21/19/1 20/18/1

# Mesh '' with 2 faces
usemtl Material__40__e_q__Sub4
f  23/21/1 24/22/1 25/23/1
f  26/24/1 25/23/1 24/22/1

# Mesh '' with 14 faces
usemtl Material__40__e__01Sub5
f  27/25/1 28/26/1 29/27/1
f  30/28/1 29/27/1 28/26/1
f  31/29/1 32/30/1 33/31/1
f  34/32/1 33/31/1 32/30/1
f  35/29/1 36/30/1 37/31/1
f  38/32/1 37/31/1 36/30/1
f  39/29/1 40/30/1 41/31/1
f  42/32/1 41/31/1 40/30/1
f  43/25/1 44/26/1 45/27/1
f  46/28/1 45/27/1 44/26/1
f  47/25/1 48/26/1 49/27/1
f  50/28/1 49/27/1 48/26/1
f  51/25/1 52/26/1 53/27/1
f  54/28/1 53/27/1 52/26/1

# Mesh '' with 32 faces
usemtl Material__40__e__02Sub6
f  55/33/1 56/22/1 57/34/1
f  58/35/1 57/34/1 56/22/1
f  59/36/1 55/33/1 60/37/1
f  57/34/1 60/37/1 55/33/1
f  61/38/1 59/36/1 62/39/1
f  60/37/1 62/39/1 59/36/1
f  63/21/1 61/38/1 64/40/1
f  62/39/1 64/40/1 61/38/1
f  57/34/1 58/35/1 65/41/1
f  66/42/1 65/41/1 58/35/1
f  60/37/1 57/34/1 67/43/1
f  65/41/1 67/43/1 57/34/1
f  62/39/1 60/37/1 68/44/1
f  67/43/1 68/44/1 60/37/1
f  64/40/1 62/39/1 69/45/1
f  68/44/1 69/45/1 62/39/1
f  65/41/1 66/42/1 70/46/1
f  71/47/1 70/46/1 66/42/1
f  67/43/1 65/41/1 72/48/1
f  70/46/1 72/48/1 65/41/1
f  68/44/1 67/43/1 73/49/1
f  72/48/1 73/49/1 67/43/1
f  69/45/1 68/44/1 74/50/1
f  73/49/1 74/50/1 68/44/1
f  70/46/1 71/47/1 75/51/1
f  76/24/1 75/51/1 71/47/1
f  72/48/1 70/46/1 77/52/1
f  75/51/1 77/52/1 70/46/1
f  73/49/1 72/48/1 78/53/1
f  77/52/1 78/53/1 72/48/1
f  74/50/1 73/49/1 79/23/1
f  78/53/1 79/23/1 73/49/1

# Mesh '' with 32 faces
usemtl Material__40__e____Sub7
f  80/33/1 81/22/1 82/34/1
f  83/35/1 82/34/1 81/22/1
f  84/36/1 80/33/1 85/37/1
f  82/34/1 85/37/1 80/33/1
f  86/38/1 84/36/1 87/39/1
f  85/37/1 87/39/1 84/36/1
f  88/21/1 86/38/1 89/40/1
f  87/39/1 89/40/1 86/38/1
f  82/34/1 83/35/1 90/41/1
f  91/42/1 90/41/1 83/35/1
f  85/37/1 82/34/1 92/43/1
f  90/41/1 92/43/1 82/34/1
f  87/39/1 85/37/1 93/44/1
f  92/43/1 93/44/1 85/37/1
f  89/40/1 87/39/1 94/45/1
f  93/44/1 94/45/1 87/39/1
f  90/41/1 91/42/1 95/46/1
f  96/47/1 95/46/1 91/42/1
f  92/43/1 90/41/1 97/48/1
f  95/46/1 97/48/1 90/41/1
f  93/44/1 92/43/1 98/49/1
f  97/48/1 98/49/1 92/43/1
f  94/45/1 93/44/1 99/50/1
f  98/49/1 99/50/1 93/44/1
f  95/46/1 96/47/1 100/51/1
f  101/24/1 100/51/1 96/47/1
f  97/48/1 95/46/1 102/52/1
f  100/51/1 102/52/1 95/46/1
f  98/49/1 97/48/1 103/53/1
f  102/52/1 103/53/1 97/48/1
f  99/50/1 98/49/1 104/23/1
f  103/53/1 104/23/1 98/49/1

# Mesh '' with 2 faces
usemtl Material__40__e__01Sub8
f  105/54/1 106/8/1 107/55/1
f  108/56/1 107/55/1 106/8/1

# Mesh '' with 10 faces
usemtl Material__40__e_____iSub9
f  109/57/1 110/58/1 111/59/1
f  112/60/1 111/59/1 110/58/1
f  113/61/1 114/62/1 115/63/1
f  116/64/1 115/63/1 114/62/1
f  117/65/1 118/66/1 119/67/1
f  120/68/1 119/67/1 118/66/1
f  121/69/1 122/70/1 123/71/1
f  124/72/1 123/71/1 122/70/1
f  125/73/1 126/74/1 127/75/1
f  128/76/1 127/75/1 126/74/1

# Mesh '' with 2 faces
usemtl Material__40______iSub10
f  129/77/1 130/78/1 131/79/1
f  132/80/1 131/79/1 130/78/1

# Mesh '' with 2 faces
usemtl Material__40______i02Sub11
f  133/81/1 134/82/1 135/83/1
f  136/84/1 135/83/1 134/82/1

# Mesh '' with 2 faces
usemtl Material__40__e__03Sub12
f  137/85/1 138/86/1 139/87/1
f  140/88/1 139/87/1 138/86/1

# Mesh '' with 2 faces
usemtl Material__40__e__02Sub13
f  141/85/1 142/86/1 143/87/1
f  144/88/1 143/87/1 142/86/1

# Mesh '' with 2 faces
usemtl Material__40__e____03Sub14
f  145/85/2 146/86/3 147/87/4
f  148/88/5 147/87/4 146/86/3

