# File produced by Open Asset Import Library (http://www.assimp.sf.net)
# (assimp v5.2.3369795085)

mtllib 00.X.mtl

# 12 vertex positions
v  -17.0155449 -4.04983664 -34.4809608
v  34.1933136 4.02664232 -17.3467159
v  -34.3403778 -4.04983664 17.2975082
v  16.8684826 4.02664232 34.4317551
v  -21.848402 -31.0495148 -7.31037235
v  29.3604584 -22.9730358 9.82387161
v  -29.5075207 22.9498405 -9.87307835
v  21.7013397 31.0263195 7.26116562
v  12.4184456 -27.0112743 -24.6324844
v  4.75932598 26.988081 -27.1951904
v  -4.90638733 -27.0112743 27.1459846
v  -12.5655069 26.988081 24.5832787

# 4 UV coordinates
vt 1 1 0
vt 0 1 0
vt 1 0 0
vt 0 0 0

# 3 vertex normals
vn 0.140276924 -0.988999188 0.0469360091
vn -0.317304641 -8.49321236e-09 0.948323607
vn 0.937891185 0.147920862 0.313813984

# Mesh '' with 6 faces
usemtl mazuru
f  1/1/1 2/2/1 3/3/1
f  4/4/1 3/3/1 2/2/1
f  5/1/2 6/2/2 7/3/2
f  8/4/2 7/3/2 6/2/2
f  9/1/3 10/2/3 11/3/3
f  12/4/3 11/3/3 10/2/3

