# File produced by Open Asset Import Library (http://www.assimp.sf.net)
# (assimp v5.2.3369795085)

mtllib 03.X.mtl

# 12 vertex positions
v  35.518734 0.229166687 -35.5194702
v  -35.518734 -0.229166895 -35.5194702
v  35.518734 0.229166687 35.5194702
v  -35.518734 -0.229166895 35.5194702
v  1.07876986e-07 -1.07183951e-07 50.2320824
v  0.324090779 -50.2310524 0
v  -0.32409054 50.2310524 0
v  1.07876986e-07 -1.07183951e-07 -50.2320824
v  -50.2310181 -0.32409057 0
v  0.32409066 -50.2310371 0
v  -0.324090421 50.2310371 0
v  50.2310181 0.324090332 0

# 4 UV coordinates
vt 1 1 0
vt 0 1 0
vt 1 0 0
vt 0 0 0

# 3 vertex normals
vn -0.00114583399 0.177593663 0
vn 0.177593663 0.00114583399 0
vn 0 0 0.177597359

# Mesh '' with 2 faces
usemtl mat1
f  1/1/1 2/2/1 3/3/1
f  4/4/1 3/3/1 2/2/1

# Mesh '' with 2 faces
usemtl mat1
f  5/1/2 6/2/2 7/3/2
f  8/4/2 7/3/2 6/2/2

# Mesh '' with 2 faces
usemtl mat1
f  9/1/3 10/2/3 11/3/3
f  12/4/3 11/3/3 10/2/3

