# File produced by Open Asset Import Library (http://www.assimp.sf.net)
# (assimp v5.2.3369795085)

mtllib 04.X.mtl

# 40 vertex positions
v  62.573555 -24.05513 -18.3007469
v  -4.60691643 -32.5225945 -27.3821392
v  62.573555 -6.21218729 -26.618269
v  -4.60691643 -7.72435522 -38.9456139
v  62.573555 -33.5987206 -1.0813179
v  -4.60691643 -45.788105 -3.44979548
v  62.573555 -31.2006931 18.4588699
v  -4.60691643 -42.4541054 23.7071362
v  62.573555 -17.7732639 32.8558121
v  -4.60691643 -23.7925873 43.7161064
v  62.573555 1.55269742 36.6116753
v  -4.60691643 3.06486535 48.9396172
v  62.573555 19.3956394 28.2937527
v  -4.60691643 27.863102 37.3751488
v  62.573555 28.9392281 11.0741253
v  -4.60691643 41.1286125 13.4451981
v  62.573555 26.5412045 -8.46366882
v  -4.60691643 37.7944145 -13.7117348
v  62.573555 13.1105804 -22.8630047
v  -4.60691643 19.1330986 -33.722702
v  -4.36074495 -29.6563816 -24.3070908
v  -4.36074495 -7.21264601 -34.7730751
v  -4.36074495 -41.6618881 -2.64699268
v  -4.36074495 -38.6447372 21.9324245
v  -4.36074495 -21.7551327 40.0429001
v  -4.36074495 2.55315614 44.7684784
v  -4.36074495 24.996891 34.3024979
v  -4.36074495 37.0023956 12.642395
v  -4.36074495 33.9852448 -11.9368229
v  -4.36074495 17.095644 -30.0475006
v  57.1186485 -20.9419479 -14.9615593
v  57.1186485 -5.65595579 -22.0905495
v  57.1186485 -29.1187172 -0.210833028
v  57.1186485 -27.0634937 16.5308285
v  57.1186485 -15.5597172 28.865757
v  57.1186485 0.996465564 32.0833549
v  57.1186485 16.2824593 24.9563618
v  57.1186485 24.4592285 10.20364
v  57.1186485 22.4040051 -6.53762054
v  57.1186485 10.9002275 -18.8711529

# 61 UV coordinates
vt 0.09454 0.45322001 0
vt 0.09454 0.995790005 0
vt -0.00443999982 0.45322001 0
vt -0.00443999982 0.995790005 0
vt 0.193550006 0.45322001 0
vt 0.193550006 0.995790005 0
vt 0.29253 0.45322001 0
vt 0.29253 0.995790005 0
vt 0.391519994 0.45322001 0
vt 0.391519994 0.995790005 0
vt 0.490530014 0.45322001 0
vt 0.490530014 0.995790005 0
vt 0.589510024 0.45322001 0
vt 0.589510024 0.995790005 0
vt 0.688520014 0.45322001 0
vt 0.688520014 0.995790005 0
vt 0.787500024 0.45322001 0
vt 0.787500024 0.995790005 0
vt 0.886510015 0.45322001 0
vt 0.886510015 0.995790005 0
vt 0.985490024 0.45322001 0
vt 0.985490024 0.995790005 0
vt 0.419090003 1.00106001 0
vt 0.379000008 1.00106001 0
vt 0.459190011 1.00106001 0
vt 0.499280006 1.00106001 0
vt 0.53937 1.00106001 0
vt 0.579469979 1.00106001 0
vt 0.619560003 1.00106001 0
vt 0.659659982 1.00106001 0
vt 0.699750006 1.00106001 0
vt 0.739849985 1.00106001 0
vt 0.779940009 1.00106001 0
vt 0.33208999 0.281289995 0
vt 0.288100004 0.281289995 0
vt 0.33208999 0.286010027 0
vt 0.288100004 0.286010027 0
vt 0.512160003 0.425859988 0
vt 0.451770008 0.423919976 0
vt 0.508899987 0.1954 0
vt 0.373470008 0.281289995 0
vt 0.373470008 0.286010027 0
vt 0.384220004 0.281289995 0
vt 0.384220004 0.286010027 0
vt 0.0316499993 0.355780005 0
vt 0.0284199994 0.432420015 0
vt 0.352620006 0.281289995 0
vt 0.352620006 0.286010027 0
vt 0.0267399997 0.224179983 0
vt 0.32762 0.281289995 0
vt 0.327989995 0.286010027 0
vt 0.0289799999 0.0130699873 0
vt 0.303030014 0.281289995 0
vt 0.303369999 0.286010027 0
vt 0.283050001 0.281289995 0
vt 0.283050001 0.286010027 0
vt 0.273880005 0.281289995 0
vt 0.274269998 0.286010027 0
vt 0.339789987 0.0113099813 0
vt 0.512250006 0.020359993 0
vt 0.174470007 0.0125799775 0

# 62 vertex normals
vn 0.362872332 -1.33889091 -1.43589926
vn 0.362888038 -1.33893383 -1.43585515
vn 0.36291188 -0.239207059 -1.94863713
vn 0.362921536 -0.239190057 -1.94863737
vn 0.362868875 -1.92720187 -0.374607444
vn 0.362871945 -1.92720258 -0.374601215
vn 0.362874627 -1.77932274 0.829725325
vn 0.362885028 -1.77930403 0.829761326
vn 0.362912297 -0.951743186 1.71714628
vn 0.362868249 -0.951835215 1.71710467
vn 0.362924069 0.239230528 1.948632
vn 0.362932891 0.239203945 1.94863355
vn 0.362886965 1.33889759 1.43588936
vn 0.362891555 1.33892512 1.43586254
vn 0.362885147 1.92720532 0.374574184
vn 0.362874568 1.9271946 0.37463966
vn 0.362895131 1.77930713 -0.829750001
vn 0.3628757 1.77932441 -0.82972151
vn 0.362934262 0.951689303 -1.71717155
vn 0.362875551 0.951863766 -1.71708715
vn -1.99311042 0.0796077996 0.0853553265
vn -1.99311054 0.0142268129 0.115844309
vn -1.9931103 0.0795996562 0.0853646174
vn -1.9931103 0.014220098 0.115848422
vn -1.99311018 0.114578247 0.0222649612
vn -1.99311006 0.11457675 0.0222740192
vn -1.99310827 0.105807826 -0.0493548848
vn -1.99310839 0.105813839 -0.0493373871
vn -1.99310517 0.0566244237 -0.102162652
vn -1.99310517 0.0566360764 -0.102157459
vn -1.99310815 -0.014232602 -0.115883462
vn -1.99310803 -0.014227082 -0.115887314
vn -1.99310756 -0.0796285942 -0.0854004025
vn -1.99310756 -0.0796354935 -0.0853955969
vn -1.99311006 -0.11457853 -0.0222644974
vn -1.99310994 -0.114578575 -0.0222743191
vn -1.99310827 -0.105811223 0.0493500158
vn -1.99310827 -0.105816595 0.0493370071
vn -1.99310803 -0.0566069111 0.102117874
vn -1.9931078 -0.0566097088 0.102119267
vn -0.406268567 1.33317685 1.42957938
vn -0.406283498 0.238201112 1.94018197
vn -0.406273037 1.33317006 1.4295845
vn -0.406281292 0.238204405 1.94018197
vn -1.99652493 3.4552619e-15 0
vn -0.406268716 1.91882765 0.373038322
vn -0.406276315 1.91883707 0.372981817
vn -0.406314254 1.77158988 -0.826129496
vn -0.406307071 1.77159476 -0.826122582
vn -0.406337172 0.947608888 -1.70968986
vn -0.406316698 0.947660267 -1.70966613
vn -0.406329483 -0.238225862 -1.94016922
vn -0.406336397 -0.238217145 -1.94016886
vn -0.406299323 -1.3331269 -1.42961717
vn -0.406310499 -1.33315098 -1.42959166
vn -0.406284362 -1.91883934 -0.37296173
vn -0.406278461 -1.91883576 -0.372986525
vn -0.406302184 -1.77156711 0.826184273
vn -0.40627569 -1.77160764 0.826110244
vn -0.406284183 -0.947632074 1.7096895
vn -0.406281501 -0.947661996 1.70967364
vn 1.99652493 -3.4552619e-15 0

# Mesh '' with 76 faces
usemtl kyatatu
f  1/1/1 2/2/2 3/3/3
f  4/4/4 3/3/3 2/2/2
f  5/5/5 6/6/6 1/1/1
f  2/2/2 1/1/1 6/6/6
f  7/7/7 8/8/8 5/5/5
f  6/6/6 5/5/5 8/8/8
f  9/9/9 10/10/10 7/7/7
f  8/8/8 7/7/7 10/10/10
f  11/11/11 12/12/12 9/9/9
f  10/10/10 9/9/9 12/12/12
f  13/13/13 14/14/14 11/11/11
f  12/12/12 11/11/11 14/14/14
f  15/15/15 16/16/16 13/13/13
f  14/14/14 13/13/13 16/16/16
f  17/17/17 18/18/18 15/15/15
f  16/16/16 15/15/15 18/18/18
f  19/19/19 20/20/20 17/17/17
f  18/18/18 17/17/17 20/20/20
f  3/21/3 4/22/4 19/19/19
f  20/20/20 19/19/19 4/22/4
f  21/23/21 22/24/22 2/23/23
f  4/24/24 2/23/23 22/24/22
f  23/25/25 21/23/21 6/25/26
f  2/23/23 6/25/26 21/23/21
f  24/26/27 23/25/25 8/26/28
f  6/25/26 8/26/28 23/25/25
f  25/27/29 24/26/27 10/27/30
f  8/26/28 10/27/30 24/26/27
f  26/28/31 25/27/29 12/28/32
f  10/27/30 12/28/32 25/27/29
f  27/29/33 26/28/31 14/29/34
f  12/28/32 14/29/34 26/28/31
f  28/30/35 27/29/33 16/30/36
f  14/29/34 16/30/36 27/29/33
f  29/31/37 28/30/35 18/31/38
f  16/30/36 18/31/38 28/30/35
f  30/32/39 29/31/37 20/32/40
f  18/31/38 20/32/40 29/31/37
f  22/33/22 30/32/39 4/33/24
f  20/32/40 4/33/24 30/32/39
f  31/34/41 32/35/42 21/36/43
f  22/37/44 21/36/43 32/35/42
f  31/38/45 33/39/45 32/40/45
f  33/41/46 31/34/41 23/42/47
f  21/36/43 23/42/47 31/34/41
f  34/43/48 33/41/46 24/44/49
f  23/42/47 24/44/49 33/41/46
f  35/41/50 34/43/48 25/42/51
f  24/44/49 25/42/51 34/43/48
f  35/45/45 33/39/45 34/46/45
f  36/47/52 35/41/50 26/48/53
f  25/42/51 26/48/53 35/41/50
f  36/49/45 33/39/45 35/45/45
f  37/50/54 36/47/52 27/51/55
f  26/48/53 27/51/55 36/47/52
f  37/52/45 33/39/45 36/49/45
f  38/53/56 37/50/54 28/54/57
f  27/51/55 28/54/57 37/50/54
f  39/55/58 38/53/56 29/56/59
f  28/54/57 29/56/59 38/53/56
f  40/57/60 39/55/58 30/58/61
f  29/56/59 30/58/61 39/55/58
f  32/35/42 40/57/60 22/37/44
f  30/58/61 22/37/44 40/57/60
f  32/40/45 39/59/45 40/60/45
f  39/59/45 32/40/45 38/61/45
f  38/61/45 32/40/45 37/52/45
f  37/52/45 32/40/45 33/39/45
f  17/38/62 15/39/62 19/40/62
f  11/45/62 15/39/62 13/46/62
f  9/49/62 15/39/62 11/45/62
f  7/52/62 15/39/62 9/49/62
f  19/40/62 1/59/62 3/60/62
f  1/59/62 19/40/62 5/61/62
f  5/61/62 19/40/62 7/52/62
f  7/52/62 19/40/62 15/39/62

