# File produced by Open Asset Import Library (http://www.assimp.sf.net)
# (assimp v5.2.3369795085)

mtllib 02.x.mtl

# 60 vertex positions
v  51.1777992 -26.3738995 -3.35730004
v  51.1777992 -26.3738995 1.96759999
v  51.6971016 28.2394009 -3.35730004
v  51.6971016 28.2394009 1.96759999
v  27.1152 84.9684982 -0.694899976
v  61.2691994 28.5347996 1.67260003
v  56.3474007 60.6329994 -0.694899976
v  76.7419968 23.5895004 -0.694899976
v  61.2691994 28.5347996 -3.06229997
v  61.2254982 -23.3346004 1.676
v  26.9129009 -82.3348007 -0.694899976
v  76.0193024 -21.6119995 -0.694899976
v  51.2484016 -59.8566017 -0.694899976
v  61.2254982 -23.3346004 -3.06570005
v  22.8269997 69.8128967 1.95350003
v  -19.0219002 95.1348038 -0.694899976
v  22.8598995 69.7806015 -3.41529989
v  20.8386993 -68.9328995 1.96340001
v  -19.0219002 -95.1348038 -0.694899976
v  20.6506996 -69.3498001 -3.37059999
v  32.9818001 28.1935005 5.59119987
v  32.3816986 -27.382 5.59119987
v  32.9818001 28.1935005 -6.90280008
v  32.3816986 -27.382 -6.90280008
v  81.2220001 24.2828999 -0.655799985
v  60.8600998 29.9979 4.89909983
v  59.4263 64.6409988 -0.655900002
v  29.7248001 89.1125031 -0.655900002
v  60.8600998 29.9979 -6.2105999
v  54.7863998 -63.7436981 -0.655900002
v  28.6011009 -85.990097 -0.655900002
v  81.2220001 -23.7227993 -0.655799985
v  60.8096008 -26.9659004 4.90700006
v  60.8096008 -26.9659004 -6.2185998
v  6.0703001 70.425499 5.55810022
v  -45.2687988 105.022797 -0.655799985
v  6.10820007 70.3899994 -7.03900003
v  -46.2612991 -108.000298 -0.655799985
v  4.7651 -70.2012024 5.58150005
v  4.54780006 -70.6595993 -6.93400002
v  3.99000001 28.9799004 9.99090004
v  2.81389999 -28.7049007 9.99090004
v  3.99000001 28.9799004 -11.2075005
v  2.81389999 -28.7049007 -11.2075005
v  85.7164993 27.7052994 -0.608399987
v  64.1393967 30.7054005 8.81649971
v  64.0039978 66.9713974 -0.608500004
v  33.3358002 91.7149963 -0.608500004
v  64.1393967 30.7054005 -10.0331001
v  57.7555008 -69.0334015 -0.608500004
v  32.0629005 -88.7751999 -0.608500004
v  85.7164993 -26.6753006 -0.608399987
v  63.0896988 -28.8603992 8.82999992
v  63.0896988 -28.8603992 -10.0466995
v  -21.5326996 72.5142975 9.93480015
v  -85.6445007 117.4245 -0.608399987
v  -21.4897003 72.4709015 -11.4386997
v  -86.7687988 -123.379601 -0.608399987
v  -21.5224991 -71.8867035 9.97439957
v  -21.7686005 -72.4461975 -11.2606001

# 47 UV coordinates
vt 0.638390005 0.0210700035 0
vt 0.638830006 0.0210700035 0
vt 0.638710022 0.0210700035 0
vt 0.631959975 0.0210700035 0
vt 0.630020022 0.0210700035 0
vt 0.624419987 0.0210700035 0
vt 0.631969988 0.0210700035 0
vt 0.639469981 0.0210700035 0
vt 0.624570012 0.0210700035 0
vt 0.630159974 0.0210700035 0
vt 0.640879989 0.0210700035 0
vt 0.66249001 0.0210700035 0
vt 0.64102 0.0210700035 0
vt 0.64270997 0.0210700035 0
vt 0.665269971 0.0210700035 0
vt 0.64301002 0.0210700035 0
vt 0.654380023 0.276069999 0
vt 0.653940022 0.276069999 0
vt 0.639970005 0.276069999 0
vt 0.647509992 0.276069999 0
vt 0.645560026 0.276069999 0
vt 0.65425998 0.276069999 0
vt 0.645709991 0.276069999 0
vt 0.655009985 0.276069999 0
vt 0.640110016 0.276069999 0
vt 0.647520006 0.276069999 0
vt 0.656430006 0.276069999 0
vt 0.678040028 0.276069999 0
vt 0.656570017 0.276069999 0
vt 0.680809975 0.276069999 0
vt 0.658259988 0.276069999 0
vt 0.658559978 0.276069999 0
vt 0.673039973 0.45332998 0
vt 0.672599971 0.45332998 0
vt 0.658630013 0.45332998 0
vt 0.666170001 0.45332998 0
vt 0.664219975 0.45332998 0
vt 0.672919989 0.45332998 0
vt 0.66437 0.45332998 0
vt 0.673669994 0.45332998 0
vt 0.658770025 0.45332998 0
vt 0.675090015 0.45332998 0
vt 0.696699977 0.45332998 0
vt 0.675230026 0.45332998 0
vt 0.699469984 0.45332998 0
vt 0.676919997 0.45332998 0
vt 0.677209973 0.45332998 0

# 114 vertex normals
vn -0.951231599 0.3084777 0
vn -0.951224923 0.308497667 -0.000560838089
vn -0.95569998 -0.294342667 -0
vn -0.95574075 -0.294210136 -5.66147901e-05
vn 0.0743857771 0.142673358 0.986970663
vn 0.110141098 0.0447542928 0.992907822
vn 0.0844597518 0.0861698464 0.992693961
vn 0.161162868 0.0289461371 0.986503243
vn 0.124450631 0.0693272278 -0.98980087
vn 0.0781203434 0.143922299 -0.98650068
vn 0.153379127 0.0363374576 -0.987499058
vn 0 0 -1
vn 0.114124812 -0.0560536236 0.991883814
vn 0.0944988206 -0.153773993 0.983576894
vn 0.163293496 -0.0459749512 0.9855057
vn 0 0 1
vn 0.0343305022 -0.0176224019 0.99925518
vn 0.0303391758 0.0121520115 0.999465764
vn 0.114158906 -0.0560144819 -0.991882086
vn 0.16328682 -0.0459730588 -0.985506892
vn 0.0973892212 -0.156901985 -0.982800663
vn 0.0303695723 0.0111778565 -0.999476254
vn 0.0342017971 -0.0171957687 -0.999266982
vn 0.101567291 0.137586623 0.985268474
vn 0.0357422493 0.162206799 0.986109257
vn 0.105034702 0.140798181 -0.984450877
vn 0.036630746 0.166238979 -0.985404909
vn -0.517778039 -0.855512679 0.00197346578
vn -0.688160121 -0.725558817 0.000203310236
vn -0.686471045 -0.727157116 0.000167523933
vn 0.105750285 -0.142583057 0.984117329
vn 0.0482740849 -0.173239052 0.983695984
vn 0.107265741 -0.146039575 -0.98344624
vn 0.0497411191 -0.178503737 -0.982681155
vn -0.701651096 0.711850047 -0.0309074838
vn -0.688024223 0.724987805 -0.0318635665
vn -0.546560228 0.836150527 -0.04608896
vn 0.961577952 0.27453202 8.37912594e-05
vn 0.957885563 -0.287149936 0.000415793358
vn 0.961495638 0.274820179 0
vn 0.957892597 -0.28712678 0
vn -0.276116341 -0.051035732 -0.959768236
vn -0.173126712 -0.0737442449 -0.982134879
vn -0.163178816 -0.162785485 -0.973074257
vn -0.105323188 -0.192112237 -0.975704849
vn 3.67875168e-06 4.46496642e-06 1
vn -0.112386994 -0.190406114 0.975251079
vn -0.262524873 -0.0641122088 0.962792993
vn -0.193379521 -0.10762912 0.975202739
vn -4.83842587e-06 5.69510667e-06 -1
vn -0.12525551 0.196765125 -0.972416878
vn -0.261240751 0.0718248039 -0.962597787
vn -0.182019696 0.100263327 -0.978169739
vn -0.0241431836 -0.00888830144 -0.999669015
vn -0.0241969377 0.0093696937 -0.999663293
vn -0.182134286 0.100172207 0.978157759
vn -0.135561273 0.211194843 0.967997849
vn -0.273283154 0.075134486 0.958994865
vn 4.83842587e-06 -5.69510667e-06 1
vn 4.83842541e-06 -5.69510667e-06 1
vn -0.0241885241 0.00878473558 0.999668837
vn -0.0242857747 -0.00673871953 0.999682367
vn -0.0792549178 -0.194789782 -0.977637768
vn -0.053718932 -0.253199577 -0.965921462
vn -0.0550177544 -0.25933373 0.964219391
vn -0.0818098411 -0.198491201 0.976682365
vn 0.72054702 0.693406045 0.000213786931
vn 0.721300304 0.692622423 0.000134017784
vn 0.558899105 0.829235435 -0.000655328797
vn -0.0773595423 0.263115436 -0.961657822
vn -0.0959679559 0.20611307 -0.973810852
vn -0.0976007283 0.210358754 0.972740114
vn -0.0790878162 0.269002527 0.959886849
vn 0.593622983 -0.804515183 0.0191596616
vn 0.729947209 -0.6833992 0.0119414106
vn 0.736052692 -0.676817656 0.0120096533
vn 0.967732608 0.251979321 9.39981401e-05
vn 0.964744985 -0.263186127 0.000373106392
vn 0.96761328 0.252437115 0
vn 0.964756191 -0.263145417 0
vn -0.406152666 -0.0819355324 -0.910124481
vn -0.24067612 -0.102021433 -0.965228796
vn -0.243823662 -0.24479121 -0.938417435
vn -0.118795313 -0.238767713 -0.963782966
vn 3.71043984e-06 4.59886587e-06 1
vn -0.12854813 -0.23349075 0.963824391
vn -0.382852793 -0.103114061 0.91803664
vn -0.259606719 -0.138700813 0.955702066
vn -3.68179485e-06 4.79160417e-06 -1
vn -0.133868605 0.234405145 -0.962877691
vn -0.373901278 0.1094108 -0.920992434
vn -0.246224716 0.138181672 -0.959311843
vn -0.0192609467 -0.00691556418 -0.999790549
vn -0.0192388147 0.00659192586 -0.999793172
vn -0.246409252 0.138042152 0.959284544
vn -0.14613764 0.253916323 0.956122518
vn -0.391851664 0.114662178 0.912855327
vn 3.68179485e-06 -4.79160417e-06 1
vn -0.0192396827 0.00566028198 0.999798894
vn -0.0193655733 -0.0032668598 0.999807119
vn -0.0716461837 -0.245644689 -0.966708601
vn -0.0692963749 -0.320691139 -0.944645524
vn -0.0709015056 -0.328126788 0.941969097
vn -0.0736617371 -0.249598846 0.965543568
vn 0.741438508 0.671020806 0.000129211228
vn 0.741921723 0.67048651 3.50637965e-05
vn 0.57379216 0.819000781 -0.000508513302
vn -0.0898185447 0.308434635 -0.946995616
vn -0.0860584155 0.239370763 -0.967106819
vn -0.0877199396 0.243635863 0.965891719
vn -0.0915741399 0.314468771 0.944840491
vn 0.618104219 -0.78597945 0.0135453036
vn 0.76235646 -0.647109926 0.00783482846
vn 0.766802013 -0.641833544 0.00802406576

# Mesh 'obj1' with 108 faces
g obj1
usemtl mat1
f  1/1/1 2/1/2 3/2/3
f  4/2/4 3/2/3 2/1/2
f  5/3/5 6/4/6 7/5/7
f  8/6/8 7/5/7 6/4/6
f  9/4/9 5/3/10 8/6/11
f  7/5/12 8/6/11 5/3/10
f  10/7/13 11/8/14 12/9/15
f  13/10/16 12/9/16 11/8/16
f  2/1/17 10/7/13 4/2/18
f  6/4/6 4/2/18 10/7/13
f  6/4/6 10/7/13 8/6/8
f  12/9/15 8/6/8 10/7/13
f  13/10/12 11/8/12 12/9/12
f  14/7/19 12/9/20 11/8/21
f  12/9/20 14/7/19 8/6/11
f  9/4/9 8/6/11 14/7/19
f  9/4/9 14/7/19 3/2/22
f  1/1/23 3/2/22 14/7/19
f  6/4/6 15/11/24 4/2/18
f  16/12/25 15/11/24 5/3/5
f  5/3/5 15/11/24 6/4/6
f  5/3/10 17/13/26 16/12/27
f  3/2/22 17/13/26 9/4/9
f  9/4/9 17/13/26 5/3/10
f  16/12/28 17/13/29 15/11/30
f  11/8/14 18/14/31 19/15/32
f  2/1/17 18/14/31 10/7/13
f  10/7/13 18/14/31 11/8/14
f  14/7/19 20/16/33 1/1/23
f  19/15/34 20/16/33 11/8/21
f  11/8/21 20/16/33 14/7/19
f  18/14/35 20/16/36 19/15/37
f  18/14/35 2/1/2 20/16/36
f  1/1/1 20/16/36 2/1/2
f  15/11/30 17/13/29 4/2/4
f  3/2/3 4/2/4 17/13/29
f  21/17/38 22/18/39 23/17/40
f  24/18/41 23/17/40 22/18/39
f  25/19/42 26/20/43 27/21/44
f  28/22/45 27/21/44 26/20/43
f  27/21/46 28/22/47 25/19/48
f  29/20/49 25/19/48 28/22/47
f  30/23/50 31/24/51 32/25/52
f  33/26/53 32/25/52 31/24/51
f  26/20/43 33/26/53 21/17/54
f  22/18/55 21/17/54 33/26/53
f  32/25/52 33/26/53 25/19/42
f  26/20/43 25/19/42 33/26/53
f  34/26/56 31/24/57 32/25/58
f  30/23/59 32/25/60 31/24/60
f  29/20/49 34/26/56 25/19/48
f  32/25/58 25/19/48 34/26/56
f  24/18/61 34/26/56 23/17/62
f  29/20/49 23/17/62 34/26/56
f  21/17/54 35/27/63 26/20/43
f  28/22/45 35/27/63 36/28/64
f  26/20/43 35/27/63 28/22/45
f  36/28/65 37/29/66 28/22/47
f  29/20/49 37/29/66 23/17/62
f  28/22/47 37/29/66 29/20/49
f  35/27/67 37/29/68 36/28/69
f  38/30/70 39/31/71 31/24/51
f  33/26/53 39/31/71 22/18/55
f  31/24/51 39/31/71 33/26/53
f  24/18/61 40/32/72 34/26/56
f  31/24/57 40/32/72 38/30/73
f  34/26/56 40/32/72 31/24/57
f  38/30/74 40/32/75 39/31/76
f  24/18/41 22/18/39 40/32/75
f  39/31/76 40/32/75 22/18/39
f  23/17/40 37/29/68 21/17/38
f  35/27/67 21/17/38 37/29/68
f  41/33/77 42/34/78 43/33/79
f  44/34/80 43/33/79 42/34/78
f  45/35/81 46/36/82 47/37/83
f  48/38/84 47/37/83 46/36/82
f  47/37/85 48/38/86 45/35/87
f  49/36/88 45/35/87 48/38/86
f  50/39/89 51/40/90 52/41/91
f  53/36/92 52/41/91 51/40/90
f  46/36/82 53/36/92 41/33/93
f  42/34/94 41/33/93 53/36/92
f  52/41/91 53/36/92 45/35/81
f  46/36/82 45/35/81 53/36/92
f  54/36/95 51/40/96 52/41/97
f  50/39/98 52/41/98 51/40/98
f  49/36/88 54/36/95 45/35/87
f  52/41/97 45/35/87 54/36/95
f  44/34/99 54/36/95 43/33/100
f  49/36/88 43/33/100 54/36/95
f  41/33/93 55/42/101 46/36/82
f  48/38/84 55/42/101 56/43/102
f  46/36/82 55/42/101 48/38/84
f  56/43/103 57/44/104 48/38/86
f  49/36/88 57/44/104 43/33/100
f  48/38/86 57/44/104 49/36/88
f  55/42/105 57/44/106 56/43/107
f  58/45/108 59/46/109 51/40/90
f  53/36/92 59/46/109 42/34/94
f  51/40/90 59/46/109 53/36/92
f  44/34/99 60/47/110 54/36/95
f  51/40/96 60/47/110 58/45/111
f  54/36/95 60/47/110 51/40/96
f  58/45/112 60/47/113 59/46/114
f  44/34/80 42/34/78 60/47/113
f  59/46/114 60/47/113 42/34/78
f  43/33/79 57/44/106 41/33/77
f  55/42/105 41/33/77 57/44/106

