# File produced by Open Asset Import Library (http://www.assimp.sf.net)
# (assimp v5.2.3369795085)

mtllib 90.X.mtl

# 135 vertex positions
v  62.2373009 -12.8388004 22.2374992
v  67.344902 0 0
v  62.2373009 0 25.6776009
v  62.2373009 -22.2374992 12.8388004
v  62.2373009 -25.6776009 0
v  62.2373009 -22.2374992 -12.8388004
v  62.2373009 -12.8388004 -22.2374992
v  62.2373009 0 -25.6776009
v  62.2373009 12.8388004 -22.2374992
v  62.2373009 22.2374001 -12.8388004
v  62.2373009 25.6776009 0
v  62.2373009 22.2374992 12.8388004
v  62.2373009 12.8388004 22.2374001
v  47.6921997 -23.7229996 41.0894012
v  47.6921997 0 47.4459991
v  47.6921997 -41.0895004 23.7229996
v  47.6921997 -47.4459991 0
v  47.6921997 -41.0894012 -23.7229996
v  47.6921997 -23.7229996 -41.0894012
v  47.6921997 0 -47.4459991
v  47.6921997 23.7229996 -41.0895004
v  47.6921997 41.0894012 -23.7229996
v  47.6921997 47.4459991 0
v  47.6921997 41.0895004 23.7229996
v  47.6921997 23.7229996 41.0894012
v  25.9237003 -30.9955997 53.6859016
v  25.9237003 0 61.9911995
v  25.9237003 -53.6859016 30.9955997
v  25.9237003 -61.9911995 0
v  25.9237003 -53.6859016 -30.9955997
v  25.9237003 -30.9955997 -53.6859016
v  25.9237003 0 -61.9911995
v  25.9237003 30.9955997 -53.6859016
v  25.9237003 53.6859016 -30.9955997
v  25.9237003 61.9911995 0
v  25.9237003 53.6859016 30.9955997
v  25.9237003 30.9955997 53.6859016
v  0.246199995 -33.5494003 58.1091995
v  0.246199995 0 67.0988007
v  0.246199995 -58.1091995 33.5494003
v  0.246199995 -67.0988007 0
v  0.246199995 -58.1091995 -33.5494003
v  0.246199995 -33.5494003 -58.1091995
v  0.246199995 0 -67.0988007
v  0.246199995 33.5494003 -58.1092987
v  0.246199995 58.1091995 -33.5494003
v  0.246199995 67.0988007 0
v  0.246199995 58.1092987 33.5494003
v  0.246199995 33.5494995 58.1091995
v  -25.4314995 -30.9955997 53.6859016
v  -25.4314995 0 61.9911995
v  -25.4314995 -53.6859016 30.9955997
v  -25.4314995 -61.9911995 0
v  -25.4314995 -53.6859016 -30.9955997
v  -25.4314995 -30.9955997 -53.6859016
v  -25.4314995 0 -61.9911995
v  -25.4314003 30.9955997 -53.6859016
v  -25.4314003 53.6859016 -30.9955997
v  -25.4314003 61.9911995 0
v  -25.4314003 53.6859016 30.9955997
v  -25.4314003 30.9955997 53.6859016
v  -47.1999016 -23.7229996 41.0894012
v  -47.1999016 0 47.4459991
v  -47.1999016 -41.0894012 23.7229996
v  -47.1999016 -47.4459991 0
v  -47.1999016 -41.0894012 -23.7229996
v  -47.1999016 -23.7229996 -41.0894012
v  -47.1999016 0 -47.4459991
v  -47.1999016 23.7229996 -41.0895004
v  -47.1999016 41.0894012 -23.7229996
v  -47.1999016 47.4459991 0
v  -47.1999016 41.0895004 23.7229996
v  -47.1999016 23.7229996 41.0894012
v  -61.7449989 -12.8388004 22.2374992
v  -61.7449989 0 25.6776009
v  -61.7449989 -22.2374992 12.8388004
v  -61.7449989 -25.6776009 0
v  -61.7449989 -22.2374992 -12.8388004
v  -61.7449989 -12.8388004 -22.2374992
v  -61.7449989 0 -25.6776009
v  -61.7449989 12.8388004 -22.2374992
v  -61.7449989 22.2374992 -12.8388004
v  -61.7449989 25.6776009 0
v  -61.7449989 22.2374992 12.8388004
v  -61.7449989 12.8388004 22.2374001
v  -66.8526001 0 0
v  64.2257996 -18.2031994 31.5289001
v  71.467598 0 0
v  64.2257996 0 36.4065018
v  64.2257996 -31.5289001 18.2031994
v  64.2257996 -36.4065018 0
v  64.2257996 -31.5289001 -18.2031994
v  64.2257996 -18.2031994 -31.5289001
v  64.2257996 0 -36.4065018
v  64.2257996 18.2031994 -31.5289001
v  64.2257996 31.5289001 -18.2031994
v  64.2257996 36.4065018 0
v  64.2257996 31.5289001 18.2031994
v  64.2257996 18.2031994 31.5289001
v  43.6032982 -33.6352005 58.2578011
v  43.6032982 0 67.270401
v  43.6032982 -58.2579002 33.6352005
v  43.6032982 -67.270401 0
v  43.6032982 -58.2579002 -33.6352005
v  43.6032982 -33.6352005 -58.2578011
v  43.6032982 0 -67.270401
v  43.6032982 33.6351013 -58.2579002
v  43.6032982 58.2578011 -33.6352005
v  43.6032982 67.270401 0
v  43.6032982 58.2579002 33.6351013
v  43.6032982 33.6352005 58.2578011
v  12.7392998 -43.9464989 76.1175995
v  12.7392998 0 87.8929977
v  12.7392998 -76.1175995 43.9464989
v  12.7392998 -87.8929977 0
v  12.7392998 -76.1175995 -43.9464989
v  12.7392998 -43.9464989 -76.1175995
v  12.7392998 0 -87.8929977
v  12.7392998 43.9464989 -76.1175995
v  12.7392998 76.1175003 -43.9466019
v  12.7392998 87.8929977 -9.99999975e-05
v  12.7392998 76.1175995 43.9464989
v  12.7392998 43.9466019 76.1175003
v  -23.6671009 -47.5674019 82.3890991
v  -23.6671009 0 95.134697
v  -23.6671009 -82.3890991 47.5674019
v  -23.6671009 -95.134697 0
v  -23.6671009 -82.3890991 -47.5674019
v  -23.6671009 -47.5674019 -82.3890991
v  -23.6671009 0 -95.134697
v  -23.6671009 47.5674019 -82.3890991
v  -23.6671009 82.3890991 -47.5674019
v  -23.6671009 95.134697 -9.99999975e-05
v  -23.6671009 82.3890991 47.5672989
v  -23.6671009 47.5674019 82.3890991

# 128 UV coordinates
vt 0.083329998 0.875 0
vt 0.0416699983 1 0
vt 0 0.875 0
vt 0.166669995 0.875 0
vt 0.125 1 0
vt 0.25 0.875 0
vt 0.208330005 1 0
vt 0.333330005 0.875 0
vt 0.291669995 1 0
vt 0.416669995 0.875 0
vt 0.375 1 0
vt 0.5 0.875 0
vt 0.458330005 1 0
vt 0.583329976 0.875 0
vt 0.541670024 1 0
vt 0.666670024 0.875 0
vt 0.625 1 0
vt 0.75 0.875 0
vt 0.708329976 1 0
vt 0.833329976 0.875 0
vt 0.791670024 1 0
vt 0.916670024 0.875 0
vt 0.875 1 0
vt 1 0.875 0
vt 0.958329976 1 0
vt 0.083329998 0.75 0
vt 0 0.75 0
vt 0.166669995 0.75 0
vt 0.25 0.75 0
vt 0.333330005 0.75 0
vt 0.416669995 0.75 0
vt 0.5 0.75 0
vt 0.583329976 0.75 0
vt 0.666670024 0.75 0
vt 0.75 0.75 0
vt 0.833329976 0.75 0
vt 0.916670024 0.75 0
vt 1 0.75 0
vt 0.083329998 0.625 0
vt 0 0.625 0
vt 0.166669995 0.625 0
vt 0.25 0.625 0
vt 0.333330005 0.625 0
vt 0.416669995 0.625 0
vt 0.5 0.625 0
vt 0.583329976 0.625 0
vt 0.666670024 0.625 0
vt 0.75 0.625 0
vt 0.833329976 0.625 0
vt 0.916670024 0.625 0
vt 1 0.625 0
vt 0.083329998 0.5 0
vt 0 0.5 0
vt 0.166669995 0.5 0
vt 0.25 0.5 0
vt 0.333330005 0.5 0
vt 0.416669995 0.5 0
vt 0.5 0.5 0
vt 0.583329976 0.5 0
vt 0.666670024 0.5 0
vt 0.75 0.5 0
vt 0.833329976 0.5 0
vt 0.916670024 0.5 0
vt 1 0.5 0
vt 0.083329998 0.375 0
vt 0 0.375 0
vt 0.166669995 0.375 0
vt 0.25 0.375 0
vt 0.333330005 0.375 0
vt 0.416669995 0.375 0
vt 0.5 0.375 0
vt 0.583329976 0.375 0
vt 0.666670024 0.375 0
vt 0.75 0.375 0
vt 0.833329976 0.375 0
vt 0.916670024 0.375 0
vt 1 0.375 0
vt 0.083329998 0.25 0
vt 0 0.25 0
vt 0.166669995 0.25 0
vt 0.25 0.25 0
vt 0.333330005 0.25 0
vt 0.416669995 0.25 0
vt 0.5 0.25 0
vt 0.583329976 0.25 0
vt 0.666670024 0.25 0
vt 0.75 0.25 0
vt 0.833329976 0.25 0
vt 0.916670024 0.25 0
vt 1 0.25 0
vt 0.083329998 0.125 0
vt 0 0.125 0
vt 0.166669995 0.125 0
vt 0.25 0.125 0
vt 0.333330005 0.125 0
vt 0.416669995 0.125 0
vt 0.5 0.125 0
vt 0.583329976 0.125 0
vt 0.666670024 0.125 0
vt 0.75 0.125 0
vt 0.833329976 0.125 0
vt 0.916670024 0.125 0
vt 1 0.125 0
vt 0.0416699983 0 0
vt 0.125 0 0
vt 0.208330005 0 0
vt 0.291669995 0 0
vt 0.375 0 0
vt 0.458330005 0 0
vt 0.541670024 0 0
vt 0.625 0 0
vt 0.708329976 0 0
vt 0.791670024 0 0
vt 0.875 0 0
vt 0.958329976 0 0
vt 0.083329998 0.468789995 0
vt 0 0.468789995 0
vt 0.166669995 0.468789995 0
vt 0.25 0.468789995 0
vt 0.333330005 0.468789995 0
vt 0.416669995 0.468789995 0
vt 0.5 0.468789995 0
vt 0.583329976 0.468789995 0
vt 0.666670024 0.468789995 0
vt 0.75 0.468789995 0
vt 0.833329976 0.468789995 0
vt 0.916670024 0.468789995 0
vt 1 0.468789995 0

# 135 vertex normals
vn 0.912220418 -0.204848886 0.354810953
vn 1 1.4623815e-07 4.18347099e-08
vn 0.912220538 1.15942032e-06 0.4096995
vn 0.912220776 -0.354810029 0.204848915
vn 0.912220716 -0.409699112 -4.81213021e-07
vn 0.912220359 -0.354811013 -0.204849228
vn 0.912220478 -0.204849482 -0.354810476
vn 0.912220836 9.39611695e-08 -0.409698814
vn 0.912220716 0.204849735 -0.354809701
vn 0.912220895 0.354809791 -0.204848945
vn 0.912220716 0.409699172 -1.54765905e-06
vn 0.912220716 0.354809701 0.204849735
vn 0.912220895 0.204848945 0.354809791
vn 0.691304564 -0.361281574 0.62575841
vn 0.691305161 7.26332487e-08 0.722562909
vn 0.691304147 -0.62575841 0.361282378
vn 0.691305161 -0.722562909 -1.47900516e-06
vn 0.691304743 -0.625757992 -0.36128208
vn 0.691304564 -0.361282289 -0.625757992
vn 0.691304743 -6.91132072e-07 -0.722563326
vn 0.691304207 0.361281514 -0.625758886
vn 0.691305161 0.625758171 -0.361280948
vn 0.691304922 0.722563148 -9.12934922e-07
vn 0.691304207 0.625758886 0.361281514
vn 0.691305161 0.361280948 0.625758171
vn 0.371750414 -0.464166969 0.80395937
vn 0.371750653 -5.22732684e-08 0.928332627
vn 0.37174949 -0.803959489 0.464167476
vn 0.371750325 -0.928332746 -3.73023312e-07
vn 0.371750414 -0.80395937 -0.464166969
vn 0.371750444 -0.464166999 -0.80395931
vn 0.37175101 -4.02760747e-07 -0.928332448
vn 0.371750861 0.464167118 -0.803959072
vn 0.371750176 0.803959548 -0.46416685
vn 0.37175101 0.928332448 -4.02760747e-07
vn 0.37175113 0.803959131 0.46416679
vn 0.37175101 0.464166343 0.803959429
vn 7.68562188e-07 -0.500000775 0.866024971
vn 8.19149534e-07 -2.5588497e-07 1
vn 6.85383384e-07 -0.866024911 0.500000834
vn 7.19677985e-07 -1 4.69016115e-09
vn 7.68562188e-07 -0.866024971 -0.500000775
vn 6.85383384e-07 -0.500000834 -0.866024911
vn 2.87440116e-07 -8.89269529e-07 -1
vn 3.16721696e-07 0.500000298 -0.866025209
vn 5.93364007e-07 0.866025269 -0.500000238
vn 3.5408585e-09 1 -9.69397661e-07
vn 4.80647984e-08 0.866025567 0.499999672
vn 5.05499031e-07 0.500001073 0.866024792
vn -0.371750593 -0.464166999 0.80395925
vn -0.371751159 3.58567718e-07 0.928332448
vn -0.371750534 -0.80395931 0.464166909
vn -0.371750802 -0.928332567 4.45698376e-08
vn -0.371750593 -0.80395925 -0.464166999
vn -0.371750534 -0.464166909 -0.80395931
vn -0.371750444 -6.00237549e-09 -0.928332686
vn -0.371750116 0.464167506 -0.803959191
vn -0.371750295 0.803959608 -0.464166671
vn -0.371749938 0.928332925 -3.74824083e-07
vn -0.371750325 0.80395931 0.464167088
vn -0.371750891 0.464166909 0.803959191
vn -0.691305459 -0.361281842 0.625757277
vn -0.691305578 4.59253613e-07 0.722562492
vn -0.691305578 -0.625757277 0.361281693
vn -0.691305816 -0.722562313 1.51055033e-07
vn -0.691305459 -0.625757277 -0.361281842
vn -0.691305578 -0.361281693 -0.625757277
vn -0.691305995 -1.47934998e-06 -0.722562134
vn -0.691304386 0.361282557 -0.625758052
vn -0.691304624 0.62575835 -0.361281604
vn -0.691305161 0.722562909 -1.47683011e-06
vn -0.691304326 0.625758171 0.361282468
vn -0.691304982 0.361281574 0.625757992
vn -0.912220538 -0.204849437 0.354810417
vn -0.912220836 1.39427107e-06 0.409698904
vn -0.912220359 -0.354810953 0.204849198
vn -0.912220776 -0.409699023 4.74431715e-07
vn -0.912220538 -0.354810417 -0.204849437
vn -0.912220359 -0.204849198 -0.354810953
vn -0.912220776 -4.74431715e-07 -0.409699023
vn -0.912220836 0.204848886 -0.35480994
vn -0.912220478 0.354810923 -0.204848871
vn -0.912220776 0.409699023 -4.74431715e-07
vn -0.912220716 0.354809612 0.204850063
vn -0.912220895 0.204849333 0.354809493
vn -1 5.48519417e-08 9.37025391e-08
vn 0.912220418 -0.204850361 0.354810208
vn 1 -1.79521986e-09 2.21535318e-10
vn 0.91222018 1.45285895e-07 0.409700364
vn 0.912220478 -0.354810089 0.204850137
vn 0.912220299 -0.409700096 4.21690714e-07
vn 0.912220538 -0.354809672 -0.204850584
vn 0.912220299 -0.20485054 -0.354810387
vn 0.91222024 -3.4552167e-07 -0.409700185
vn 0.912220418 0.204850674 -0.35480994
vn 0.912220299 0.354810387 -0.20485054
vn 0.91222024 0.409700185 -3.4552167e-07
vn 0.912220418 0.35480994 0.204850674
vn 0.912220299 0.20485054 0.354810387
vn 0.691305816 -0.361281663 0.625757039
vn 0.69130522 4.69767997e-07 0.72256285
vn 0.691305399 -0.625757456 0.361281723
vn 0.69130528 -0.72256285 1.26872138e-07
vn 0.691305578 -0.625757337 -0.361281574
vn 0.691305876 -0.361280978 -0.625757337
vn 0.691305161 -9.05702109e-07 -0.722562969
vn 0.691305637 0.361281067 -0.625757515
vn 0.691305637 0.625757217 -0.361281693
vn 0.691305161 0.722562909 -7.46799913e-07
vn 0.691305637 0.625757515 0.361281067
vn 0.691305578 0.361281633 0.625757277
vn 0.371751368 -0.464165926 0.803959489
vn 0.371750504 8.47627462e-07 0.928332686
vn 0.371750981 -0.803959608 0.464166045
vn 0.371750504 -0.928332686 5.39160006e-08
vn 0.371750832 -0.803959787 -0.464165926
vn 0.371751428 -0.464165568 -0.803959668
vn 0.371750712 -2.79710434e-07 -0.928332627
vn 0.371751219 0.464165986 -0.803959548
vn 0.371751517 0.803958952 -0.46416679
vn 0.371750444 0.928332686 -1.37276095e-06
vn 0.371750712 0.803959846 0.464165896
vn 0.371751517 0.464166552 0.803959072
vn 0.195091426 -0.490392387 0.849384844
vn 0.195091203 4.75261857e-07 0.980785131
vn 0.195091516 -0.849384904 0.490392268
vn 0.195090801 -0.980785191 6.93067648e-08
vn 0.195091426 -0.849384844 -0.490392387
vn 0.195091516 -0.490392268 -0.849384904
vn 0.195090801 -6.93067648e-08 -0.980785191
vn 0.195091426 0.490392387 -0.849384844
vn 0.19509241 0.849384904 -0.49039191
vn 0.195091233 0.980785072 -7.38176993e-07
vn 0.195090249 0.849385679 0.490391463
vn 0.195092022 0.490391999 0.849384964

# Mesh 'obj2' with 168 faces
g obj2
usemtl mat1
f  1/1/1 2/2/2 3/3/3
f  4/4/4 2/5/2 1/1/1
f  5/6/5 2/7/2 4/4/4
f  6/8/6 2/9/2 5/6/5
f  7/10/7 2/11/2 6/8/6
f  8/12/8 2/13/2 7/10/7
f  9/14/9 2/15/2 8/12/8
f  10/16/10 2/17/2 9/14/9
f  11/18/11 2/19/2 10/16/10
f  12/20/12 2/21/2 11/18/11
f  13/22/13 2/23/2 12/20/12
f  3/24/3 2/25/2 13/22/13
f  1/1/1 3/3/3 14/26/14
f  15/27/15 14/26/14 3/3/3
f  4/4/4 1/1/1 16/28/16
f  14/26/14 16/28/16 1/1/1
f  5/6/5 4/4/4 17/29/17
f  16/28/16 17/29/17 4/4/4
f  6/8/6 5/6/5 18/30/18
f  17/29/17 18/30/18 5/6/5
f  7/10/7 6/8/6 19/31/19
f  18/30/18 19/31/19 6/8/6
f  8/12/8 7/10/7 20/32/20
f  19/31/19 20/32/20 7/10/7
f  9/14/9 8/12/8 21/33/21
f  20/32/20 21/33/21 8/12/8
f  10/16/10 9/14/9 22/34/22
f  21/33/21 22/34/22 9/14/9
f  11/18/11 10/16/10 23/35/23
f  22/34/22 23/35/23 10/16/10
f  12/20/12 11/18/11 24/36/24
f  23/35/23 24/36/24 11/18/11
f  13/22/13 12/20/12 25/37/25
f  24/36/24 25/37/25 12/20/12
f  3/24/3 13/22/13 15/38/15
f  25/37/25 15/38/15 13/22/13
f  14/26/14 15/27/15 26/39/26
f  27/40/27 26/39/26 15/27/15
f  16/28/16 14/26/14 28/41/28
f  26/39/26 28/41/28 14/26/14
f  17/29/17 16/28/16 29/42/29
f  28/41/28 29/42/29 16/28/16
f  18/30/18 17/29/17 30/43/30
f  29/42/29 30/43/30 17/29/17
f  19/31/19 18/30/18 31/44/31
f  30/43/30 31/44/31 18/30/18
f  20/32/20 19/31/19 32/45/32
f  31/44/31 32/45/32 19/31/19
f  21/33/21 20/32/20 33/46/33
f  32/45/32 33/46/33 20/32/20
f  22/34/22 21/33/21 34/47/34
f  33/46/33 34/47/34 21/33/21
f  23/35/23 22/34/22 35/48/35
f  34/47/34 35/48/35 22/34/22
f  24/36/24 23/35/23 36/49/36
f  35/48/35 36/49/36 23/35/23
f  25/37/25 24/36/24 37/50/37
f  36/49/36 37/50/37 24/36/24
f  15/38/15 25/37/25 27/51/27
f  37/50/37 27/51/27 25/37/25
f  26/39/26 27/40/27 38/52/38
f  39/53/39 38/52/38 27/40/27
f  28/41/28 26/39/26 40/54/40
f  38/52/38 40/54/40 26/39/26
f  29/42/29 28/41/28 41/55/41
f  40/54/40 41/55/41 28/41/28
f  30/43/30 29/42/29 42/56/42
f  41/55/41 42/56/42 29/42/29
f  31/44/31 30/43/30 43/57/43
f  42/56/42 43/57/43 30/43/30
f  32/45/32 31/44/31 44/58/44
f  43/57/43 44/58/44 31/44/31
f  33/46/33 32/45/32 45/59/45
f  44/58/44 45/59/45 32/45/32
f  34/47/34 33/46/33 46/60/46
f  45/59/45 46/60/46 33/46/33
f  35/48/35 34/47/34 47/61/47
f  46/60/46 47/61/47 34/47/34
f  36/49/36 35/48/35 48/62/48
f  47/61/47 48/62/48 35/48/35
f  37/50/37 36/49/36 49/63/49
f  48/62/48 49/63/49 36/49/36
f  27/51/27 37/50/37 39/64/39
f  49/63/49 39/64/39 37/50/37
f  38/52/38 39/53/39 50/65/50
f  51/66/51 50/65/50 39/53/39
f  40/54/40 38/52/38 52/67/52
f  50/65/50 52/67/52 38/52/38
f  41/55/41 40/54/40 53/68/53
f  52/67/52 53/68/53 40/54/40
f  42/56/42 41/55/41 54/69/54
f  53/68/53 54/69/54 41/55/41
f  43/57/43 42/56/42 55/70/55
f  54/69/54 55/70/55 42/56/42
f  44/58/44 43/57/43 56/71/56
f  55/70/55 56/71/56 43/57/43
f  45/59/45 44/58/44 57/72/57
f  56/71/56 57/72/57 44/58/44
f  46/60/46 45/59/45 58/73/58
f  57/72/57 58/73/58 45/59/45
f  47/61/47 46/60/46 59/74/59
f  58/73/58 59/74/59 46/60/46
f  48/62/48 47/61/47 60/75/60
f  59/74/59 60/75/60 47/61/47
f  49/63/49 48/62/48 61/76/61
f  60/75/60 61/76/61 48/62/48
f  39/64/39 49/63/49 51/77/51
f  61/76/61 51/77/51 49/63/49
f  50/65/50 51/66/51 62/78/62
f  63/79/63 62/78/62 51/66/51
f  52/67/52 50/65/50 64/80/64
f  62/78/62 64/80/64 50/65/50
f  53/68/53 52/67/52 65/81/65
f  64/80/64 65/81/65 52/67/52
f  54/69/54 53/68/53 66/82/66
f  65/81/65 66/82/66 53/68/53
f  55/70/55 54/69/54 67/83/67
f  66/82/66 67/83/67 54/69/54
f  56/71/56 55/70/55 68/84/68
f  67/83/67 68/84/68 55/70/55
f  57/72/57 56/71/56 69/85/69
f  68/84/68 69/85/69 56/71/56
f  58/73/58 57/72/57 70/86/70
f  69/85/69 70/86/70 57/72/57
f  59/74/59 58/73/58 71/87/71
f  70/86/70 71/87/71 58/73/58
f  60/75/60 59/74/59 72/88/72
f  71/87/71 72/88/72 59/74/59
f  61/76/61 60/75/60 73/89/73
f  72/88/72 73/89/73 60/75/60
f  51/77/51 61/76/61 63/90/63
f  73/89/73 63/90/63 61/76/61
f  62/78/62 63/79/63 74/91/74
f  75/92/75 74/91/74 63/79/63
f  64/80/64 62/78/62 76/93/76
f  74/91/74 76/93/76 62/78/62
f  65/81/65 64/80/64 77/94/77
f  76/93/76 77/94/77 64/80/64
f  66/82/66 65/81/65 78/95/78
f  77/94/77 78/95/78 65/81/65
f  67/83/67 66/82/66 79/96/79
f  78/95/78 79/96/79 66/82/66
f  68/84/68 67/83/67 80/97/80
f  79/96/79 80/97/80 67/83/67
f  69/85/69 68/84/68 81/98/81
f  80/97/80 81/98/81 68/84/68
f  70/86/70 69/85/69 82/99/82
f  81/98/81 82/99/82 69/85/69
f  71/87/71 70/86/70 83/100/83
f  82/99/82 83/100/83 70/86/70
f  72/88/72 71/87/71 84/101/84
f  83/100/83 84/101/84 71/87/71
f  73/89/73 72/88/72 85/102/85
f  84/101/84 85/102/85 72/88/72
f  63/90/63 73/89/73 75/103/75
f  85/102/85 75/103/75 73/89/73
f  74/91/74 75/92/75 86/104/86
f  76/93/76 74/91/74 86/105/86
f  77/94/77 76/93/76 86/106/86
f  78/95/78 77/94/77 86/107/86
f  79/96/79 78/95/78 86/108/86
f  80/97/80 79/96/79 86/109/86
f  81/98/81 80/97/80 86/110/86
f  82/99/82 81/98/81 86/111/86
f  83/100/83 82/99/82 86/112/86
f  84/101/84 83/100/83 86/113/86
f  85/102/85 84/101/84 86/114/86
f  75/103/75 85/102/85 86/115/86

# Mesh 'obj5' with 84 faces
g obj5
usemtl mat2
f  87/1/87 88/2/88 89/3/89
f  90/4/90 88/5/88 87/1/87
f  91/6/91 88/7/88 90/4/90
f  92/8/92 88/9/88 91/6/91
f  93/10/93 88/11/88 92/8/92
f  94/12/94 88/13/88 93/10/93
f  95/14/95 88/15/88 94/12/94
f  96/16/96 88/17/88 95/14/95
f  97/18/97 88/19/88 96/16/96
f  98/20/98 88/21/88 97/18/97
f  99/22/99 88/23/88 98/20/98
f  89/24/89 88/25/88 99/22/99
f  87/1/87 89/3/89 100/26/100
f  101/27/101 100/26/100 89/3/89
f  90/4/90 87/1/87 102/28/102
f  100/26/100 102/28/102 87/1/87
f  91/6/91 90/4/90 103/29/103
f  102/28/102 103/29/103 90/4/90
f  92/8/92 91/6/91 104/30/104
f  103/29/103 104/30/104 91/6/91
f  93/10/93 92/8/92 105/31/105
f  104/30/104 105/31/105 92/8/92
f  94/12/94 93/10/93 106/32/106
f  105/31/105 106/32/106 93/10/93
f  95/14/95 94/12/94 107/33/107
f  106/32/106 107/33/107 94/12/94
f  96/16/96 95/14/95 108/34/108
f  107/33/107 108/34/108 95/14/95
f  97/18/97 96/16/96 109/35/109
f  108/34/108 109/35/109 96/16/96
f  98/20/98 97/18/97 110/36/110
f  109/35/109 110/36/110 97/18/97
f  99/22/99 98/20/98 111/37/111
f  110/36/110 111/37/111 98/20/98
f  89/24/89 99/22/99 101/38/101
f  111/37/111 101/38/101 99/22/99
f  100/26/100 101/27/101 112/39/112
f  113/40/113 112/39/112 101/27/101
f  102/28/102 100/26/100 114/41/114
f  112/39/112 114/41/114 100/26/100
f  103/29/103 102/28/102 115/42/115
f  114/41/114 115/42/115 102/28/102
f  104/30/104 103/29/103 116/43/116
f  115/42/115 116/43/116 103/29/103
f  105/31/105 104/30/104 117/44/117
f  116/43/116 117/44/117 104/30/104
f  106/32/106 105/31/105 118/45/118
f  117/44/117 118/45/118 105/31/105
f  107/33/107 106/32/106 119/46/119
f  118/45/118 119/46/119 106/32/106
f  108/34/108 107/33/107 120/47/120
f  119/46/119 120/47/120 107/33/107
f  109/35/109 108/34/108 121/48/121
f  120/47/120 121/48/121 108/34/108
f  110/36/110 109/35/109 122/49/122
f  121/48/121 122/49/122 109/35/109
f  111/37/111 110/36/110 123/50/123
f  122/49/122 123/50/123 110/36/110
f  101/38/101 111/37/111 113/51/113
f  123/50/123 113/51/113 111/37/111
f  112/39/112 113/40/113 124/116/124
f  125/117/125 124/116/124 113/40/113
f  114/41/114 112/39/112 126/118/126
f  124/116/124 126/118/126 112/39/112
f  115/42/115 114/41/114 127/119/127
f  126/118/126 127/119/127 114/41/114
f  116/43/116 115/42/115 128/120/128
f  127/119/127 128/120/128 115/42/115
f  117/44/117 116/43/116 129/121/129
f  128/120/128 129/121/129 116/43/116
f  118/45/118 117/44/117 130/122/130
f  129/121/129 130/122/130 117/44/117
f  119/46/119 118/45/118 131/123/131
f  130/122/130 131/123/131 118/45/118
f  120/47/120 119/46/119 132/124/132
f  131/123/131 132/124/132 119/46/119
f  121/48/121 120/47/120 133/125/133
f  132/124/132 133/125/133 120/47/120
f  122/49/122 121/48/121 134/126/134
f  133/125/133 134/126/134 121/48/121
f  123/50/123 122/49/122 135/127/135
f  134/126/134 135/127/135 122/49/122
f  113/51/113 123/50/123 125/128/125
f  135/127/135 125/128/125 123/50/123

