# File produced by Open Asset Import Library (http://www.assimp.sf.net)
# (assimp v5.2.3369795085)

mtllib 03.X.mtl

# 32 vertex positions
v  -23.2434006 0.862600029 6.73759985
v  -23.2434006 -0.0557000004 6.73759985
v  31.2155991 0.862600029 -22.4694004
v  31.2155991 -0.0557000004 -22.4694004
v  39.4085999 0.862600029 -34.7123985
v  39.4085999 -0.0557000004 -34.7123985
v  -51.1915016 0.862600029 14.7631998
v  -51.1915016 -0.0557000004 14.7631998
v  31.2155991 0.862600029 6.73759985
v  31.2155991 -0.0557000004 6.73759985
v  39.4085999 0.862600029 14.7631998
v  39.4085999 -0.0557000004 14.7631998
v  4.51170015 0.69690001 13.4236002
v  4.51170015 0.0443000011 12.5503998
v  7.45590019 0.69690001 13.4236002
v  7.45590019 0.0443000011 12.5503998
v  4.51170015 0.113700002 -13.5214005
v  4.51170015 0.766300023 -14.3945999
v  7.45590019 0.113700002 -13.5214005
v  7.45590019 0.766300023 -14.3945999
v  6.90089989 2.36170006 9.13049984
v  5.20539999 2.36170006 9.13049984
v  6.90089989 1.40310001 9.13049984
v  5.20539999 1.40310001 9.13049984
v  5.20539999 2.36170006 -11.0129995
v  6.90089989 2.36170006 -11.0129995
v  6.90089989 1.40310001 -11.0129995
v  5.20539999 1.40310001 -11.0129995
v  52.4187012 0.931999981 -52.4187012
v  -52.4187012 0.931999981 -52.4187012
v  52.4187012 0.931999981 52.4187012
v  -52.4187012 0.931999981 52.4187012

# 29 UV coordinates
vt 0 0.5 0
vt 1 1 0
vt 0.968240023 0.537779987 0
vt 0.852320015 0.915260017 0
vt 0.645470023 0.239400029 0
vt 0.0106800003 0.153219998 0
vt 1 0 0
vt 1.56651998 1.28322005 0
vt 1.88808 1.13971996 0
vt 1.56651998 1.89227009 0
vt 1.88808 1.98496008 0
vt 0.963509977 1.18631005 0
vt 0.963509977 1.00585997 0
vt 0.00810999982 1.18631005 0
vt 0.00810999982 1.00585997 0
vt 0.301919997 0.418590009 0
vt -0.00405000011 0.0988699794 0
vt 0.898140013 0.418590009 0
vt 0.987829983 0.0988699794 0
vt 0 1 0
vt 0 0 0
vt 1.7062 0.334819973 0
vt 1.53783 0.334819973 0
vt 1.76130998 0.214909971 0
vt 1.46894002 0.214909971 0
vt 1.53783 0.897440016 0
vt 1.7062 0.897440016 0
vt 1.46894002 0.991890013 0
vt 1.76130998 0.991890013 0

# 29 vertex normals
vn 0.127096355 0.991376281 -0.0319307148
vn 0.127096504 -0.991376281 -0.0319302529
vn -0.152027532 0.955169201 0.254046112
vn -0.152027562 -0.955169261 0.254045814
vn 0.424277723 0.555521488 -0.715111375
vn 0.424277514 -0.555521548 -0.715111494
vn -0.814883471 0.541018009 0.208001122
vn -0.814882457 -0.541018546 0.208003625
vn -0.301511228 0.904534042 -0.301511377
vn -0.301511347 -0.904533982 -0.301511556
vn 0.57735014 0.57735002 0.577350676
vn 0.577350199 -0.577350259 0.577350378
vn -0.600097179 0.125010863 0.790098488
vn -0.686156392 -0.725593805 0.0519908816
vn 0.584953845 0.121542454 0.801908016
vn 0.661578417 -0.746626377 0.0697358698
vn -0.675558865 -0.737122416 -0.0164536797
vn -0.60412699 0.0996715724 -0.790630221
vn 0.677512705 -0.73528564 -0.0182088446
vn 0.604078472 0.097772859 -0.790904343
vn 0.653059721 0.750279307 0.102926798
vn -0.652769148 0.750710487 0.10161794
vn 0.725793123 -0.659137309 -0.196881637
vn -0.725806057 -0.658734679 -0.198177233
vn -0.636884093 0.762290359 -0.115291238
vn 0.646835208 0.751113117 -0.132035196
vn 0.736373305 -0.635607302 0.231857166
vn -0.713503778 -0.643573165 0.276994467
vn 0 1 0

# Mesh '_O_p___K' with 52 faces
g _O_p___K
usemtl ___K
f  1/1/1 2/1/2 3/2/3
f  4/2/4 3/2/3 2/1/2
f  5/2/5 6/2/6 7/1/7
f  8/1/8 7/1/7 6/2/6
f  3/3/3 5/4/5 1/5/1
f  7/6/7 1/5/1 5/4/5
f  3/2/3 4/2/4 9/7/9
f  10/7/10 9/7/9 4/2/4
f  11/7/11 12/7/12 5/2/5
f  6/2/6 5/2/5 12/7/12
f  9/8/9 11/9/11 3/10/3
f  5/11/5 3/10/3 11/9/11
f  9/7/9 10/7/10 1/1/1
f  2/1/2 1/1/1 10/7/10
f  7/12/7 8/13/8 11/14/11
f  12/15/12 11/14/11 8/13/8
f  1/16/1 7/17/7 9/18/9
f  11/19/11 9/18/9 7/17/7
f  13/20/13 14/21/14 15/2/15
f  16/7/16 15/2/15 14/21/14
f  17/20/17 18/21/18 19/2/19
f  20/7/20 19/2/19 18/21/18
f  21/22/21 22/23/22 15/24/15
f  13/25/13 15/24/15 22/23/22
f  23/22/23 16/24/16 24/23/24
f  14/25/14 24/23/24 16/24/16
f  23/22/23 21/22/21 16/24/16
f  15/24/15 16/24/16 21/22/21
f  22/23/22 24/23/24 13/25/13
f  14/25/14 13/25/13 24/23/24
f  25/26/25 26/27/26 18/28/18
f  20/29/20 18/28/18 26/27/26
f  25/26/25 22/23/22 26/27/26
f  21/22/21 26/27/26 22/23/22
f  27/27/27 28/26/28 19/29/19
f  17/28/17 19/29/19 28/26/28
f  27/27/27 23/22/23 28/26/28
f  24/23/24 28/26/28 23/22/23
f  26/27/26 27/27/27 20/29/20
f  19/29/19 20/29/20 27/27/27
f  26/27/26 21/22/21 27/27/27
f  23/22/23 27/27/27 21/22/21
f  28/26/28 25/26/25 17/28/17
f  18/28/18 17/28/17 25/26/25
f  28/26/28 24/23/24 25/26/25
f  22/23/22 25/26/25 24/23/24
f  8/6/8 6/4/6 2/5/2
f  4/3/4 2/5/2 6/4/6
f  6/11/6 12/9/12 4/10/4
f  10/8/10 4/10/4 12/9/12
f  12/19/12 8/17/8 10/18/10
f  2/16/2 10/18/10 8/17/8

# Mesh 'obj1' with 2 faces
g obj1
usemtl mat1
f  29/2/29 30/20/29 31/7/29
f  32/21/29 31/7/29 30/20/29

