# File produced by Open Asset Import Library (http://www.assimp.sf.net)
# (assimp v5.2.3369795085)

mtllib 00.X.mtl

# 36 vertex positions
v  6.92589998 1.26479995 13.2999001
v  61.6531982 0.213599995 -0.369899988
v  6.92980003 13.1541996 0.518899977
v  6.91860008 -13.5620003 5.02629995
v  6.91860008 -11.3397999 -11.0712996
v  6.91860008 4.7578001 -13.2940998
v  6.76210022 17.6354008 0.691900015
v  62.8816986 0.353599995 -0.495099992
v  6.75689983 1.75759995 17.7605
v  6.74700022 -18.0431995 6.71150017
v  6.74700022 -15.0754004 -14.7862997
v  6.74700022 6.4222002 -17.7546997
v  6.87220001 23.3712006 0.490099996
v  64.9182968 0.949199975 -0.655300021
v  6.86880016 2.80559993 23.4818993
v  6.86219978 -23.3756008 8.87290001
v  6.86219978 -19.4512005 -19.5517006
v  6.86219978 8.97299957 -23.4761009
v  -108.039803 -0.506299973 -0.105499998
v  -93.0482025 0.396800011 9.00039959
v  -93.0482025 5.65579987 0.318599999
v  -93.0481033 -6.16219997 3.38059998
v  -93.0482025 -5.17920017 -7.55480003
v  -93.0482025 1.94200003 -9.06470013
v  -125.362801 -0.641600013 -0.141800001
v  -93.0482025 8.12049961 0.460299999
v  -93.0482025 0.653500021 12.7872
v  -93.0481033 -8.65929985 4.80800009
v  -93.0479965 -7.26350021 -10.7187996
v  -93.0482025 2.84750009 -12.8627005
v  -131.863205 -0.607200027 -0.1884
v  -93.0482025 11.0185003 0.310000002
v  -93.0482025 1.1803 17.2005005
v  -93.0481033 -11.3451996 6.4685998
v  -93.0481033 -9.4677 -14.4139004
v  -93.0482025 4.13089991 -17.2971001

# 78 UV coordinates
vt 0.205689996 0.697820008 0
vt 0.17757 0.874989986 0
vt 0.149450004 0.697820008 0
vt 0.261990011 0.697820008 0
vt 0.233840004 0.874989986 0
vt 0.318239987 0.697820008 0
vt 0.290109992 0.874989986 0
vt 0.374529988 0.697820008 0
vt 0.346390009 0.874989986 0
vt 0.430779994 0.697820008 0
vt 0.402660012 0.874989986 0
vt 0.626839995 0.620400012 0
vt 0.628050029 0.80697 0
vt 0.62924999 0.620400012 0
vt 0.630460024 0.80697 0
vt 0.631659985 0.620400012 0
vt 0.632870018 0.80697 0
vt 0.634079993 0.620400012 0
vt 0.635280013 0.80697 0
vt 0.636489987 0.620400012 0
vt 0.637690008 0.80697 0
vt 0.638899982 0.620400012 0
vt 0.365280002 0.259109974 0
vt 0.367359996 0.283410013 0
vt 0.369450003 0.259109974 0
vt 0.371529996 0.283410013 0
vt 0.373620003 0.259109974 0
vt 0.375699997 0.283410013 0
vt 0.37777999 0.259109974 0
vt 0.379869998 0.283410013 0
vt 0.381949991 0.259109974 0
vt 0.384039998 0.283410013 0
vt 0.386119992 0.259109974 0
vt 0.17757 0.159200013 0
vt 0.196669996 0.525070012 0
vt 0.158470005 0.525059998 0
vt 0.233840004 0.159200013 0
vt 0.252959996 0.525089979 0
vt 0.214719996 0.525070012 0
vt 0.290109992 0.159200013 0
vt 0.309219986 0.525089979 0
vt 0.271010011 0.525089979 0
vt 0.346390009 0.159200013 0
vt 0.365509987 0.525089979 0
vt 0.327270001 0.525089979 0
vt 0.402660012 0.159200013 0
vt 0.421759993 0.525059998 0
vt 0.383549988 0.525089979 0
vt 0.628050029 0.229700029 0
vt 0.62717998 0.511849999 0
vt 0.628920019 0.511860013 0
vt 0.630460024 0.229700029 0
vt 0.629589975 0.511860013 0
vt 0.631330013 0.51188004 0
vt 0.632870018 0.229700029 0
vt 0.632000029 0.51188004 0
vt 0.633740008 0.51188004 0
vt 0.635280013 0.229700029 0
vt 0.634410024 0.51188004 0
vt 0.636150002 0.51188004 0
vt 0.637690008 0.229700029 0
vt 0.636820018 0.51188004 0
vt 0.638559997 0.511849999 0
vt 0.367359996 0.123049974 0
vt 0.365830004 0.22299999 0
vt 0.368900001 0.22299999 0
vt 0.371529996 0.123049974 0
vt 0.370000005 0.22299999 0
vt 0.373070002 0.223010004 0
vt 0.375699997 0.123049974 0
vt 0.374170005 0.223010004 0
vt 0.377229989 0.223010004 0
vt 0.379869998 0.123049974 0
vt 0.378329992 0.223010004 0
vt 0.381399989 0.223010004 0
vt 0.384039998 0.123049974 0
vt 0.382499993 0.223010004 0
vt 0.38556999 0.22299999 0

# 36 vertex normals
vn 0.0901450515 0.14951764 0.984641254
vn 0.999697268 0.0226211157 0.00967975426
vn 0.0804329962 0.992177248 0.0954715312
vn 0.090847671 -0.893957973 0.438845992
vn 0.100647822 -0.707844794 -0.699160755
vn 0.0874873251 0.427808046 -0.899625599
vn -0.101758949 -0.989593446 -0.101734363
vn -0.9995206 -0.0284682661 -0.0121714333
vn -0.114839621 -0.15611124 -0.981040835
vn -0.119963147 0.894115925 -0.431469083
vn -0.124375552 0.707491457 0.695691466
vn -0.11724522 -0.422886401 0.898565888
vn -0.120967098 -0.988157749 -0.0943990126
vn -0.999198079 -0.0368473828 -0.0156666208
vn -0.140484363 -0.166036695 -0.976061463
vn -0.146414325 0.89238739 -0.426857769
vn -0.151096418 0.706427991 0.691469014
vn -0.143662632 -0.423471063 0.894445837
vn -0.99955374 0.00781453121 0.0288315453
vn -0.273706764 0.140744269 0.951459765
vn -0.214538753 0.97366184 0.0771735683
vn -0.222128868 -0.897313535 0.381427795
vn -0.270380437 -0.705544353 -0.655058503
vn -0.272480875 0.442894757 -0.854165316
vn 0.999748349 -0.00527664181 -0.0218033977
vn 0.163526312 -0.982328951 -0.0910435617
vn 0.214110032 -0.158302188 -0.96389693
vn 0.178883255 0.908833981 -0.376857489
vn 0.205126107 0.717675865 0.665480793
vn 0.215773329 -0.443365693 0.869982004
vn 0.999675155 -0.00637208857 -0.0246774741
vn 0.186676964 -0.978619456 -0.0863464177
vn 0.241193756 -0.166985363 -0.956002831
vn 0.205184758 0.903757334 -0.375661969
vn 0.231790334 0.710931957 0.663964629
vn 0.243612289 -0.438605487 0.865030766

# Mesh 'obj4' with 60 faces
g obj4
usemtl mat1
f  1/1/1 2/2/2 3/3/3
f  4/4/4 2/5/2 1/1/1
f  5/6/5 2/7/2 4/4/4
f  6/8/6 2/9/2 5/6/5
f  3/10/3 2/11/2 6/8/6
f  7/12/7 8/13/8 9/14/9
f  9/14/9 8/15/8 10/16/10
f  10/16/10 8/17/8 11/18/11
f  11/18/11 8/19/8 12/20/12
f  12/20/12 8/21/8 7/22/7
f  13/23/13 14/24/14 15/25/15
f  15/25/15 14/26/14 16/27/16
f  16/27/16 14/28/14 17/29/17
f  17/29/17 14/30/14 18/31/18
f  18/31/18 14/32/14 13/33/13
f  19/34/19 20/35/20 21/36/21
f  21/36/21 20/35/20 3/3/3
f  1/1/1 3/3/3 20/35/20
f  19/37/19 22/38/22 20/39/20
f  20/39/20 22/38/22 1/1/1
f  4/4/4 1/1/1 22/38/22
f  19/40/19 23/41/23 22/42/22
f  22/42/22 23/41/23 4/4/4
f  5/6/5 4/4/4 23/41/23
f  19/43/19 24/44/24 23/45/23
f  23/45/23 24/44/24 5/6/5
f  6/8/6 5/6/5 24/44/24
f  19/46/19 21/47/21 24/48/24
f  24/48/24 21/47/21 6/8/6
f  3/10/3 6/8/6 21/47/21
f  25/49/25 26/50/26 27/51/27
f  27/51/27 26/50/26 9/14/9
f  7/12/7 9/14/9 26/50/26
f  25/52/25 27/53/27 28/54/28
f  28/54/28 27/53/27 10/16/10
f  9/14/9 10/16/10 27/53/27
f  25/55/25 28/56/28 29/57/29
f  29/57/29 28/56/28 11/18/11
f  10/16/10 11/18/11 28/56/28
f  25/58/25 29/59/29 30/60/30
f  30/60/30 29/59/29 12/20/12
f  11/18/11 12/20/12 29/59/29
f  25/61/25 30/62/30 26/63/26
f  26/63/26 30/62/30 7/22/7
f  12/20/12 7/22/7 30/62/30
f  31/64/31 32/65/32 33/66/33
f  33/66/33 32/65/32 15/25/15
f  13/23/13 15/25/15 32/65/32
f  31/67/31 33/68/33 34/69/34
f  34/69/34 33/68/33 16/27/16
f  15/25/15 16/27/16 33/68/33
f  31/70/31 34/71/34 35/72/35
f  35/72/35 34/71/34 17/29/17
f  16/27/16 17/29/17 34/71/34
f  31/73/31 35/74/35 36/75/36
f  36/75/36 35/74/35 18/31/18
f  17/29/17 18/31/18 35/74/35
f  31/76/31 36/77/36 32/78/32
f  32/78/32 36/77/36 13/33/13
f  18/31/18 13/33/13 36/77/36

