# File produced by Open Asset Import Library (http://www.assimp.sf.net)
# (assimp v5.2.3369795085)

mtllib 04b.X.mtl

# 146 vertex positions
v  1295.30212 -21.4151001 -1119.50122
v  711.590271 -21.4151001 -1119.50122
v  1295.30212 -21.4151001 77.5457993
v  711.590271 -21.4151001 77.5454025
v  1879.01318 -21.4151001 -1119.50122
v  1879.01318 -21.4151001 77.5457993
v  2462.72485 -21.4151001 -1119.50122
v  2462.72485 -21.4151001 77.5457993
v  3046.4375 -21.4151001 -1119.50122
v  3046.4375 -21.4151001 77.5457993
v  1295.30212 -21.4151001 1274.59216
v  711.590271 -21.4151001 1274.59216
v  1879.01318 -21.4151001 1274.59216
v  2462.72485 -21.4151001 1274.59216
v  3046.4375 -21.4151001 1274.59216
v  1295.30212 -21.4151001 2471.63818
v  711.590271 -21.4151001 2471.63818
v  1879.01318 -21.4151001 2471.63818
v  2462.72485 -21.4151001 2471.63818
v  3046.4375 -21.4151001 2471.63818
v  1295.30212 -21.4151001 3668.68701
v  711.590271 -21.4151001 3668.68701
v  1879.01318 -21.4151001 3668.68701
v  2462.72485 -21.4151001 3668.68701
v  3046.4375 -21.4151001 3668.68701
v  -2436.95239 -21.4151001 -773.11322
v  -3038.39624 -21.4151001 -773.113525
v  -2436.95239 -21.4151001 -101.919296
v  -3038.39624 -21.4151001 -101.919296
v  2897.27222 -16.5576992 -1211.11218
v  2863.46802 -16.5576992 -1378.00476
v  2183.80273 -16.5576992 -1211.11218
v  2183.80273 -16.5576992 -1395.99329
v  2183.80273 -16.5576992 -2128.29248
v  2832.92334 -16.5576992 -2128.29248
v  2933.23291 -116.342003 -1211.11218
v  2908.18848 -93.5229034 -1501.51965
v  2978.61865 -126.448502 -1337.0647
v  3040.53613 -136.065002 -1176.45959
v  2886.92822 -110.128601 -2254.62988
v  2978.61865 -126.448502 -2093.63892
v  887.680115 -303.354187 -3592.33936
v  289.723907 -349.018402 -3592.33936
v  887.680115 -246.504395 -3010.38232
v  309.103699 -340.688385 -3013.59644
v  -215.408096 -351.363708 -3016.50977
v  -215.408096 -359.575104 -3592.33936
v  887.680115 -343.991089 -2575.12012
v  326.668304 -348.362 -2503.17627
v  -215.408096 -365.384186 -2489.28076
v  1710.44519 -21.6382008 3998.43164
v  1709.90894 -21.6382008 3476.68872
v  1404.3761 -21.6382008 3973.85181
v  1404.3761 -21.6382008 3476.68872
v  1710.77576 315.275787 4170.39941
v  1404.3761 315.275787 4101.68359
v  2344.73975 -21.6382008 3476.68872
v  2073.58789 -21.6382008 3476.68872
v  2344.73975 -21.6382008 4191.09473
v  2065.5835 -21.6382008 4092.97363
v  2344.73975 315.275787 4368.65576
v  2048.33521 315.275787 4264.84375
v  63.1169014 -21.3332996 3574.49268
v  -242.348404 -21.3332996 3574.49268
v  63.1169014 -21.3332996 4016.13721
v  -235.340302 -21.3332996 3923.86108
v  63.1169014 212.753006 4171.27344
v  -229.3396 226.683502 4093.50391
v  -691.956726 -21.3332996 3962.16626
v  -569.051392 -21.3332996 3941.0918
v  -691.956726 -21.3332996 3574.49268
v  -553.390503 -21.3332996 3574.49268
v  -691.956726 226.683502 4114.3501
v  -557.997314 226.683502 4102.03467
v  -1718.46802 -22.8309002 3590.83911
v  -2050.29248 -22.8309002 3590.83911
v  -1718.46802 -22.8309002 4066.85352
v  -2040.83484 -22.8309002 4035.5957
v  -1753.08057 104.090103 4158.54346
v  -2045.60327 130.337601 4132.75879
v  -2416.8269 -22.8309002 4023.5083
v  -2280.20776 -21.9545002 4063.47607
v  -2447.63477 -22.8309002 3590.83911
v  -2294.46655 -22.8309002 3590.83887
v  -2385.94482 132.490707 4171.72461
v  -2297.2627 131.763397 4207.67236
v  603.006104 -21.4151001 -2325.57642
v  403.694214 -21.4151001 -2325.57642
v  603.006104 -21.4151001 -2203.05273
v  403.694214 -21.4151001 -2203.05273
v  804.087891 -21.4151001 -2325.57642
v  804.087891 -21.4151001 -2203.05273
v  1005.14911 -21.4151001 -2325.57642
v  1005.14911 -21.4151001 -2203.05273
v  1203.70068 -21.4151001 -2322.04712
v  1191.9574 -21.4151001 -2200.08765
v  1401.24231 -21.4151001 -2303.56738
v  1389.49902 -21.4151001 -2181.60791
v  1600.31396 -21.4151001 -2282.36987
v  1593.08752 -21.4151001 -2160.07495
v  1807.07825 -21.4151001 -2268.2019
v  1807.07825 -21.4151001 -2145.67847
v  2006.7439 -21.4151001 -2268.2019
v  2006.7439 -21.4151001 -2145.67847
v  2207.59546 -21.4151001 -2268.2019
v  2207.59546 -21.4151001 -2145.67847
v  2408.91748 -21.4151001 -2268.2019
v  2408.91748 -21.4151001 -2145.67847
v  2617.19482 -21.4151001 -2268.2019
v  2617.19482 -21.4151001 -2145.67847
v  2826.09937 -21.4151001 -2268.20166
v  2826.09937 -21.4151001 -2145.67822
v  203.6091 -21.4151001 -2325.57642
v  203.6091 -21.4151001 -2203.05273
v  4.44029999 -21.4151001 -2325.57642
v  4.44029999 -21.4151001 -2203.05273
v  -194.543503 -21.4151001 -2325.57642
v  -183.426407 -21.4151001 -2203.05273
v  -391.804199 -21.4151001 -2287.41821
v  -365.285309 -21.4151001 -2167.79883
v  -585.203003 -21.4151001 -2235.88306
v  -570.522522 -21.4151001 -2116.26367
v  -786.5401 -21.4151001 -2251.87256
v  -795.086975 -21.4151001 -2129.64771
v  -1117.69666 -21.4151001 -2263.13281
v  -1322.70032 -21.4151001 -2257.77563
v  -1116.62732 -21.4151001 -2140.61401
v  -1335.25623 -21.4151001 -2138.61987
v  -1515.2218 -21.4151001 -2300.45386
v  -1527.10608 -21.4151001 -2178.9541
v  -1715.1947 -21.4151001 -2268.64624
v  -1706.09387 -21.4151001 -2147.31543
v  -1915.22876 -21.4151001 -2254.97241
v  -1911.25598 -21.4151001 -2130.83887
v  -2114.38281 -21.4151001 -2250.98364
v  -2114.21021 -21.4151001 -2132.46777
v  -2315.56934 -21.4151001 -2252.9873
v  -2514.18042 -21.4151001 -2252.9873
v  -2308.11694 -21.4151001 -2128.479
v  -2512.21069 -21.4151001 -2130.46411
v  -2713.41846 -21.4151001 -2252.9873
v  -2714.25098 -21.4151001 -2130.46411
v  -2913.30518 -21.4151001 -2252.9873
v  -2919.76221 -21.4151001 -2130.46411
v  -3116.35815 -21.4151001 -2252.9873
v  -3116.3584 -21.4151001 -2130.46411

# 80 UV coordinates
vt 0.249939993 0.99800998 0
vt -0.000760000024 0.99800998 0
vt 0.249939993 0.749369979 0
vt -0.000760000024 0.749369979 0
vt 0.500639975 0.99800998 0
vt 0.500639975 0.749369979 0
vt 0.751339972 0.99800998 0
vt 0.751339972 0.749369979 0
vt 1.00204003 0.99800998 0
vt 1.00204003 0.749369979 0
vt 0.249939993 0.500739992 0
vt -0.000760000024 0.500739992 0
vt 0.500639975 0.500739992 0
vt 0.751339972 0.500739992 0
vt 1.00204003 0.500739992 0
vt 0.249939993 0.252110004 0
vt -0.000760000024 0.252110004 0
vt 0.500639975 0.252110004 0
vt 0.751339972 0.252110004 0
vt 1.00204003 0.252110004 0
vt 0.249939993 0.00348001719 0
vt -0.000760000024 0.00348001719 0
vt 0.500639975 0.00348001719 0
vt 0.751339972 0.00348001719 0
vt 1.00204003 0.00348001719 0
vt 0.983699977 0.98931998 0
vt 0.00315 0.98931998 0
vt 0.983699977 0.0128999949 0
vt 0.00315 0.0128999949 0
vt 0.745280027 0.00406998396 0
vt 0.736670017 0.184819996 0
vt 0.00353999995 0.00388002396 0
vt 0.00347999996 0.204159975 0
vt 0.00322999991 0.997430027 0
vt 0.69799 0.997430027 0
vt 0.85698998 0.0041000247 0
vt 0.851719975 0.181789994 0
vt 0.992919981 0.178059995 0
vt 0.992919981 0.00413000584 0
vt 0.82753998 0.997430027 0
vt 0.992919981 0.997430027 0
vt 0.456429988 0.997430027 0
vt 0.992919981 0.473380029 0
vt 0.473910004 0.476209998 0
vt 0.00338999997 0.478770018 0
vt 0.489740014 0.00400000811 0
vt 0.325470001 0.382529974 0
vt 0.324790001 0.997430027 0
vt 0.00340000005 0.464209974 0
vt 0.325910002 0.00396001339 0
vt 0.707539976 0.997430027 0
vt 0.992919981 0.213280022 0
vt 0.699169993 0.287769973 0
vt 0.695850015 0.0040500164 0
vt 0.592540026 0.997430027 0
vt 0.992919981 0.44095999 0
vt 0.601790011 0.462279975 0
vt 0.609709978 0.00402998924 0
vt 0.00338999997 0.494880021 0
vt 0.164460003 0.486109972 0
vt 0.184850007 0.997430027 0
vt 0.179069996 0.00392001867 0
vt 0.542540014 0.997430027 0
vt 0.992919981 0.286759973 0
vt 0.55546999 0.303569973 0
vt 0.561049998 0.00401997566 0
vt 0.00343999988 0.324779987 0
vt 0.209649995 0.31686002 0
vt 0.211119995 0.997430027 0
vt 0.153219998 0.00392001867 0
vt 0.932229996 0.98931998 0
vt 0.0724000037 0.98931998 0
vt 0.932229996 0.0128999949 0
vt 0.0724000037 0.0128999949 0
vt 0.0589100011 0.98931998 0
vt 0.0589100011 0.0128999949 0
vt 0.940810025 0.98931998 0
vt 0.0674899966 0.98931998 0
vt 0.940810025 0.0128999949 0
vt 0.0674899966 0.0128999949 0

# 46 vertex normals
vn 0 1 0
vn 0.61502707 0.778603196 -0.124574132
vn 0.476637125 0.878494024 -0.0326382965
vn 0.573876798 0.8185848 -0.0241734572
vn 0.570648432 0.818775117 -0.0629894957
vn 0.657364845 0.753398001 -0.0162150469
vn 0.315935493 0.948376715 0.0276825652
vn 0.184614733 0.982733607 -0.0123309921
vn 0.631400108 0.774671197 -0.0349054895
vn 0.232494891 0.972239017 -0.0264083557
vn -0.0757867843 0.992400169 -0.0969448611
vn -0.0685794652 0.997096539 -0.0330966339
vn -0.139009401 0.986950696 0.0812690482
vn -0.0703246519 0.997217298 0.0247419514
vn -0.0205261465 0.999769866 0.00624050293
vn -0.0208922103 0.999680102 -0.0142555516
vn -0.0899053439 0.987938583 0.126072899
vn -0.0187560972 0.999701202 0.0156748611
vn -0.0256418642 0.999441624 0.0214232598
vn 0.217275038 0.446262985 -0.868124962
vn 0.178235546 0.419050634 -0.890296936
vn 0.143909618 0.407150388 -0.901952684
vn 0.0748744011 0.353747785 -0.932339191
vn 0.296927005 0.445208341 -0.844762623
vn 0.26428172 0.446192294 -0.855024934
vn 0.296303988 0.44569397 -0.844725311
vn 0.269907415 0.448482007 -0.85206449
vn 0.16382356 0.832105756 -0.529869676
vn 0.0510763265 0.903058946 -0.426468968
vn 0.244748712 0.539464891 -0.80565238
vn 0.115430787 0.558886111 -0.821171165
vn -0.0772176906 0.853669763 -0.515058577
vn -0.0507548824 0.886405647 -0.460118443
vn -0.0781191736 0.521397293 -0.84973073
vn -0.063736923 0.541195571 -0.83847779
vn 0.000551052217 0.999999642 -0.000671626825
vn 0.0423309766 0.89867574 -0.436566174
vn -0.015119045 0.901175022 -0.433191687
vn 0.0913172811 0.578290999 -0.810703814
vn -0.0746314079 0.532515585 -0.843123555
vn 0.0924171433 0.949151039 -0.300950885
vn 0.0344849788 0.89925468 -0.436063975
vn -0.0011766922 0.999998271 -0.00143744238
vn -5.96960648e-10 0.999998271 -0.00185427314
vn 0.296856374 0.627693534 -0.719636798
vn 0.0636803955 0.646716237 -0.760067701

# Mesh '' with 32 faces
usemtl _n___e
f  1/1/1 2/2/1 3/3/1
f  4/4/1 3/3/1 2/2/1
f  5/5/1 1/1/1 6/6/1
f  3/3/1 6/6/1 1/1/1
f  7/7/1 5/5/1 8/8/1
f  6/6/1 8/8/1 5/5/1
f  9/9/1 7/7/1 10/10/1
f  8/8/1 10/10/1 7/7/1
f  3/3/1 4/4/1 11/11/1
f  12/12/1 11/11/1 4/4/1
f  6/6/1 3/3/1 13/13/1
f  11/11/1 13/13/1 3/3/1
f  8/8/1 6/6/1 14/14/1
f  13/13/1 14/14/1 6/6/1
f  10/10/1 8/8/1 15/15/1
f  14/14/1 15/15/1 8/8/1
f  11/11/1 12/12/1 16/16/1
f  17/17/1 16/16/1 12/12/1
f  13/13/1 11/11/1 18/18/1
f  16/16/1 18/18/1 11/11/1
f  14/14/1 13/13/1 19/19/1
f  18/18/1 19/19/1 13/13/1
f  15/15/1 14/14/1 20/20/1
f  19/19/1 20/20/1 14/14/1
f  16/16/1 17/17/1 21/21/1
f  22/22/1 21/21/1 17/17/1
f  18/18/1 16/16/1 23/23/1
f  21/21/1 23/23/1 16/16/1
f  19/19/1 18/18/1 24/24/1
f  23/23/1 24/24/1 18/18/1
f  20/20/1 19/19/1 25/25/1
f  24/24/1 25/25/1 19/19/1

# Mesh '' with 2 faces
usemtl mat3
f  26/26/1 27/27/1 28/28/1
f  29/29/1 28/28/1 27/27/1

# Mesh '' with 56 faces
usemtl mat1
f  30/30/2 31/31/3 32/32/1
f  33/33/1 32/32/1 31/31/3
f  33/33/1 31/31/3 34/34/1
f  35/35/4 34/34/1 31/31/3
f  30/30/2 36/36/5 31/31/3
f  37/37/6 31/31/3 36/36/5
f  37/37/6 36/36/5 38/38/7
f  39/39/8 38/38/7 36/36/5
f  31/31/3 37/37/6 35/35/4
f  40/40/9 35/35/4 37/37/6
f  40/40/9 37/37/6 41/41/10
f  38/38/7 41/41/10 37/37/6
f  42/41/11 43/42/12 44/43/13
f  45/44/14 44/43/13 43/42/12
f  45/44/14 43/42/12 46/45/15
f  47/34/16 46/45/15 43/42/12
f  44/43/13 45/44/14 48/39/17
f  49/46/18 48/39/17 45/44/14
f  49/46/18 45/44/14 50/32/19
f  46/45/15 50/32/19 45/44/14
f  51/47/1 52/48/1 53/49/1
f  54/34/1 53/49/1 52/48/1
f  55/50/20 51/47/21 56/32/22
f  53/49/23 56/32/22 51/47/21
f  57/41/1 58/51/1 59/52/1
f  60/53/1 59/52/1 58/51/1
f  60/53/1 58/51/1 51/47/1
f  52/48/1 51/47/1 58/51/1
f  59/52/24 60/53/25 61/39/26
f  62/54/27 61/39/26 60/53/25
f  62/54/27 60/53/25 55/50/20
f  51/47/21 55/50/20 60/53/25
f  63/41/1 64/55/1 65/56/28
f  66/57/29 65/56/28 64/55/1
f  65/56/28 66/57/29 67/39/30
f  68/58/31 67/39/30 66/57/29
f  69/59/32 70/60/33 71/34/1
f  72/61/1 71/34/1 70/60/33
f  72/61/1 70/60/33 64/55/1
f  66/57/29 64/55/1 70/60/33
f  73/32/34 74/62/35 69/59/32
f  70/60/33 69/59/32 74/62/35
f  70/60/33 74/62/35 66/57/29
f  68/58/31 66/57/29 74/62/35
f  75/41/1 76/63/36 77/64/37
f  78/65/38 77/64/37 76/63/36
f  77/64/37 78/65/38 79/39/39
f  80/66/40 79/39/39 78/65/38
f  81/67/41 82/68/42 83/34/43
f  84/69/44 83/34/43 82/68/42
f  84/69/44 82/68/42 76/63/36
f  78/65/38 76/63/36 82/68/42
f  85/32/45 86/70/46 81/67/41
f  82/68/42 81/67/41 86/70/46
f  82/68/42 86/70/46 78/65/38
f  80/66/40 78/65/38 86/70/46

# Mesh '' with 56 faces
usemtl _n___e03
f  87/71/1 88/72/1 89/73/1
f  90/74/1 89/73/1 88/72/1
f  91/71/1 87/72/1 92/73/1
f  89/74/1 92/73/1 87/72/1
f  93/71/1 91/72/1 94/73/1
f  92/74/1 94/73/1 91/72/1
f  95/71/1 93/72/1 96/73/1
f  94/74/1 96/73/1 93/72/1
f  97/71/1 95/72/1 98/73/1
f  96/74/1 98/73/1 95/72/1
f  99/71/1 97/72/1 100/73/1
f  98/74/1 100/73/1 97/72/1
f  101/71/1 99/72/1 102/73/1
f  100/74/1 102/73/1 99/72/1
f  103/71/1 101/72/1 104/73/1
f  102/74/1 104/73/1 101/72/1
f  105/71/1 103/72/1 106/73/1
f  104/74/1 106/73/1 103/72/1
f  107/71/1 105/72/1 108/73/1
f  106/74/1 108/73/1 105/72/1
f  109/71/1 107/72/1 110/73/1
f  108/74/1 110/73/1 107/72/1
f  111/71/1 109/72/1 112/73/1
f  110/74/1 112/73/1 109/72/1
f  88/71/1 113/72/1 90/73/1
f  114/74/1 90/73/1 113/72/1
f  113/71/1 115/72/1 114/73/1
f  116/74/1 114/73/1 115/72/1
f  115/71/1 117/72/1 116/73/1
f  118/74/1 116/73/1 117/72/1
f  117/71/1 119/72/1 118/73/1
f  120/74/1 118/73/1 119/72/1
f  119/71/1 121/72/1 120/73/1
f  122/74/1 120/73/1 121/72/1
f  121/71/1 123/75/1 122/73/1
f  124/76/1 122/73/1 123/75/1
f  125/77/1 126/78/1 127/79/1
f  128/80/1 127/79/1 126/78/1
f  126/71/1 129/72/1 128/73/1
f  130/74/1 128/73/1 129/72/1
f  129/71/1 131/72/1 130/73/1
f  132/74/1 130/73/1 131/72/1
f  131/71/1 133/72/1 132/73/1
f  134/74/1 132/73/1 133/72/1
f  133/71/1 135/72/1 134/73/1
f  136/74/1 134/73/1 135/72/1
f  137/71/1 138/72/1 139/73/1
f  140/74/1 139/73/1 138/72/1
f  138/71/1 141/72/1 140/73/1
f  142/74/1 140/73/1 141/72/1
f  141/71/1 143/72/1 142/73/1
f  144/74/1 142/73/1 143/72/1
f  143/71/1 145/72/1 144/73/1
f  146/74/1 144/73/1 145/72/1
f  135/71/1 137/72/1 136/73/1
f  139/74/1 136/73/1 137/72/1

