# File produced by Open Asset Import Library (http://www.assimp.sf.net)
# (assimp v5.2.3369795085)

mtllib 30.X.mtl

# 49 vertex positions
v  6.47410011 11.2277508 3.73779917
v  1.42289839e-23 11.2277508 7.47559881
v  6.47410011 -20.207449 3.73779917
v  1.42289839e-23 -20.207449 7.47559881
v  6.47410011 11.2277508 -3.7378006
v  6.47410011 -20.207449 -3.7378006
v  1.42289839e-23 11.2277508 -7.47560072
v  1.42289839e-23 -20.207449 -7.47560072
v  -6.47410011 11.2277508 -3.7378006
v  -6.47410011 -20.207449 -3.7378006
v  -6.47410011 11.2277508 3.73779917
v  -6.47410011 -20.207449 3.73779917
v  1.42289839e-23 11.2277508 -7.88035379e-07
v  1.42289839e-23 -18.1924496 -7.88035379e-07
v  3.31839991 13.9118519 1.91589916
v  1.42289839e-23 13.9118519 3.83169937
v  3.31839991 10.7577515 1.91589916
v  1.42289839e-23 10.7577515 3.83169937
v  3.31839991 13.9118519 -1.91590083
v  3.31839991 10.7577515 -1.91590083
v  1.42289839e-23 13.9118519 -3.8317008
v  1.42289839e-23 10.7577515 -3.8317008
v  -3.31839991 13.9118519 -1.91590083
v  -3.31839991 10.7577515 -1.91590083
v  -3.31839991 13.9118519 1.91589916
v  -3.31839991 10.7577515 1.91589916
v  1.42289839e-23 13.9118519 -7.88035379e-07
v  2.77080011 23.28125 -1.83640087
v  -2.77080011 23.28125 -1.83640087
v  2.77080011 23.2672501 5.24999905
v  -2.77080011 23.2672501 5.24999905
v  2.77080011 13.7371521 9.16729927
v  2.77080011 18.5260506 5.97699928
v  -2.77080011 13.7371521 9.16729927
v  -2.77080011 18.5260506 5.97699928
v  2.77080011 18.5260506 -2.44730067
v  -2.77080011 18.5260506 -2.44730067
v  -2.77080011 13.7371521 -2.44730067
v  2.77080011 13.7371521 -2.44730067
v  -2.81539989 13.8279514 7.70619917
v  2.84209991 13.8653507 7.68129921
v  -2.76729989 9.42825127 10.2125988
v  2.77419996 9.42825127 10.2125988
v  2.84549999 9.24405098 9.17779922
v  -2.81049991 9.28055191 9.19879913
v  -2.78390002 -3.77494907 10.4252987
v  2.75769997 -3.77494907 10.4252987
v  2.829 -3.71614838 9.32109928
v  -2.82710004 -3.67954826 9.34209919

# 84 UV coordinates
vt 0.166669995 0.507869959 0
vt 0 0.507869959 0
vt 0.166669995 0.00694000721 0
vt 0 0.00694000721 0
vt 0.333330005 0.507869959 0
vt 0.333330005 0.00694000721 0
vt 0.5 0.507869959 0
vt 0.5 0.00694000721 0
vt 0.666670024 0.507869959 0
vt 0.666670024 0.00694000721 0
vt 0.833329976 0.507869959 0
vt 0.833329976 0.00694000721 0
vt 1 0.507869959 0
vt 1 0.00694000721 0
vt 0.23522 1.59082007 0
vt 0.124519996 1.65555 0
vt 0.124519996 1.52609003 0
vt 0.23522 1.72027993 0
vt 0.124519996 1.78500998 0
vt 0.01382 1.72027993 0
vt 0.01382 1.59082007 0
vt 0.281500012 0.875289977 0
vt 0.240470007 0.875289977 0
vt 0.281500012 1.00277996 0
vt 0.240470007 1.00277996 0
vt 0.322530001 0.875289977 0
vt 0.322530001 1.00277996 0
vt 0.363550007 0.875289977 0
vt 0.363550007 1.00277996 0
vt 0.404579997 0.875289977 0
vt 0.404579997 1.00277996 0
vt 0.445600003 0.875289977 0
vt 0.445600003 1.00277996 0
vt 0.486629993 0.875289977 0
vt 0.486629993 1.00277996 0
vt 0.260989994 0.875289977 0
vt 0.30201 0.875289977 0
vt 0.343039989 0.875289977 0
vt 0.384059995 0.875289977 0
vt 0.425089985 0.875289977 0
vt 0.466120005 0.875289977 0
vt 0.0085699996 0.848879993 0
vt 0.0085699996 0.507889986 0
vt 0.231619999 0.848879993 0
vt 0.231619999 0.507889986 0
vt 0.492280006 0.793950021 0
vt 0.492280006 0.861710012 0
vt 0.251890004 0.793950021 0
vt 0.251890004 0.861710012 0
vt 0.00535999984 0.754109979 0
vt 0.231619999 0.754109979 0
vt 0.00535999984 1 0
vt 0.231619999 1 0
vt 0.00749999983 1 0
vt 0.00749999983 0.754809976 0
vt 0.231619999 0.754809976 0
vt 0.00749999983 0.507889986 0
vt 0.00965000037 0.755180001 0
vt 0.00965000037 1 0
vt 0.00965000037 0.754809976 0
vt 0.231619999 0.755180001 0
vt 0.0560100004 0.506819963 0
vt 0.231619999 0.506819963 0
vt 0.183579996 0.507889986 0
vt 0.00965000037 0.507889986 0
vt 0.0522800013 1 0
vt 0.053989999 0.507889986 0
vt 0.252009988 0.732980013 0
vt 0.492280006 0.732980013 0
vt 0.0325700007 0.752900004 0
vt 0.231580004 0.752900004 0
vt 0.0325700007 0.835240006 0
vt 0.231580004 0.835240006 0
vt 0.146310002 0.783649981 0
vt 0.0206599999 0.783649981 0
vt 0.146310002 0.886059999 0
vt 0.0205499995 0.885230005 0
vt 0.251419991 0.514109969 0
vt 0.492280006 0.514109969 0
vt 0.0325700007 0.505789995 0
vt 0.231580004 0.505789995 0
vt 0.146310002 0.512239993 0
vt 0.0202900004 0.512239993 0
vt 0.00749999983 0.506819963 0

# 48 vertex normals
vn 0.686243176 0.609994054 0.396203905
vn 7.17192794e-09 0.609994709 0.792405486
vn 0.631539047 -0.684258938 0.364620566
vn 5.90078475e-09 -0.684259951 0.729238153
vn 0.686243117 0.609994113 -0.396203905
vn 0.631539106 -0.684258878 -0.364620566
vn 1.21067814e-08 0.609994709 -0.792405486
vn -1.4115856e-08 -0.684259951 -0.729238153
vn -0.686243176 0.609994054 -0.396203905
vn -0.631539047 -0.684258938 -0.364620566
vn -0.686243117 0.609994113 0.396203905
vn -0.631539106 -0.684258878 0.364620566
vn 0 1 0
vn -1.62955538e-10 -1 -2.87570656e-09
vn 0.686240911 0.609992981 0.396209508
vn -2.02682593e-10 0.609996915 0.792403817
vn 0.866020918 0 0.500007749
vn 2.76866574e-09 0 1
vn 0.686240911 0.609992981 -0.396209508
vn 0.866020977 0 -0.500007689
vn -3.38785799e-09 0.609996915 -0.792403817
vn -2.55781951e-10 0 -1
vn -0.686240911 0.609992981 -0.396209508
vn -0.866020918 0 -0.500007749
vn -0.686240911 0.609992981 0.396209508
vn -0.866020977 0 0.500007689
vn 0.584255219 0.609861732 -0.535457253
vn -0.584255219 0.609861732 -0.535457313
vn 0.585891008 0.614404917 0.528430045
vn -0.585891008 0.614404917 0.528430045
vn 0.651053548 0.304388046 0.695325255
vn 0.756482482 0.242456749 0.607411742
vn -0.658920646 0.300605237 0.689536154
vn -0.757492125 0.239764646 0.607222021
vn 0.692044854 0.0474756435 -0.720291555
vn -0.692411721 0.0469300225 -0.719974697
vn -0.575501442 -0.580397367 -0.576139748
vn 0.57482481 -0.580807507 -0.57640183
vn -0.875574529 -0.397233993 -0.274907887
vn 0.88236481 -0.390735716 -0.262217343
vn -0.668639898 0.0951708332 0.737470806
vn 0.659846127 0.09511742 0.745356143
vn 0.765281081 -0.105576247 -0.634979129
vn -0.759401202 -0.105823435 -0.641958892
vn -0.561834753 -0.600556374 0.568923295
vn 0.553379595 -0.593794942 0.584104955
vn 0.599778473 -0.56058979 -0.57096833
vn -0.598649502 -0.548281014 -0.583957791

# Mesh 'obj1' with 82 faces
g obj1
usemtl mat1
f  1/1/1 2/2/2 3/3/3
f  4/4/4 3/3/3 2/2/2
f  5/5/5 1/1/1 6/6/6
f  3/3/3 6/6/6 1/1/1
f  7/7/7 5/5/5 8/8/8
f  6/6/6 8/8/8 5/5/5
f  9/9/9 7/7/7 10/10/10
f  8/8/8 10/10/10 7/7/7
f  11/11/11 9/9/9 12/12/12
f  10/10/10 12/12/12 9/9/9
f  2/13/2 11/11/11 4/14/4
f  12/12/12 4/14/4 11/11/11
f  1/15/1 13/16/13 2/17/2
f  5/18/5 13/16/13 1/15/1
f  7/19/7 13/16/13 5/18/5
f  9/20/9 13/16/13 7/19/7
f  11/21/11 13/16/13 9/20/9
f  2/17/2 13/16/13 11/21/11
f  4/17/4 14/16/14 3/15/3
f  3/15/3 14/16/14 6/18/6
f  6/18/6 14/16/14 8/19/8
f  8/19/8 14/16/14 10/20/10
f  10/20/10 14/16/14 12/21/12
f  12/21/12 14/16/14 4/17/4
f  15/22/15 16/23/16 17/24/17
f  18/25/18 17/24/17 16/23/16
f  19/26/19 15/22/15 20/27/20
f  17/24/17 20/27/20 15/22/15
f  21/28/21 19/26/19 22/29/22
f  20/27/20 22/29/22 19/26/19
f  23/30/23 21/28/21 24/31/24
f  22/29/22 24/31/24 21/28/21
f  25/32/25 23/30/23 26/33/26
f  24/31/24 26/33/26 23/30/23
f  16/34/16 25/32/25 18/35/18
f  26/33/26 18/35/18 25/32/25
f  15/22/15 27/36/13 16/23/16
f  19/26/19 27/37/13 15/22/15
f  21/28/21 27/38/13 19/26/19
f  23/30/23 27/39/13 21/28/21
f  25/32/25 27/40/13 23/30/23
f  16/34/16 27/41/13 25/32/25
f  28/42/27 29/43/28 30/44/29
f  31/45/30 30/44/29 29/43/28
f  32/46/31 33/47/32 34/48/33
f  35/49/34 34/48/33 33/47/32
f  35/50/34 33/51/32 31/52/30
f  30/53/29 31/52/30 33/51/32
f  28/54/27 36/55/35 29/53/28
f  37/56/36 29/53/28 36/55/35
f  37/56/36 36/55/35 38/45/37
f  39/57/38 38/45/37 36/55/35
f  33/58/32 36/56/35 30/59/29
f  28/53/27 30/59/29 36/56/35
f  29/59/28 37/60/36 31/53/30
f  35/61/34 31/53/30 37/60/36
f  39/53/38 40/62/39 38/63/37
f  35/61/34 40/64/39 34/45/33
f  38/65/37 40/64/39 37/60/36
f  37/60/36 40/64/39 35/61/34
f  39/53/38 41/66/40 40/62/39
f  36/56/35 41/67/40 39/45/38
f  32/65/31 41/67/40 33/58/32
f  33/58/32 41/67/40 36/56/35
f  42/68/41 43/69/42 34/48/33
f  32/46/31 34/48/33 43/69/42
f  43/70/42 44/71/43 32/72/31
f  41/73/40 32/72/31 44/71/43
f  44/74/43 45/75/44 41/76/40
f  40/77/39 41/76/40 45/75/44
f  45/71/44 42/70/41 40/73/39
f  34/72/33 40/73/39 42/70/41
f  46/78/45 47/79/46 42/68/41
f  43/69/42 42/68/41 47/79/46
f  47/80/46 48/81/47 43/70/42
f  44/71/43 43/70/42 48/81/47
f  48/82/47 49/83/48 44/74/43
f  45/75/44 44/74/43 49/83/48
f  49/81/48 46/80/45 45/71/44
f  42/70/41 45/71/44 46/80/45
f  47/54/46 46/84/45 48/66/47
f  49/62/48 48/66/47 46/84/45

