# File produced by Open Asset Import Library (http://www.assimp.sf.net)
# (assimp v5.2.3369795085)

mtllib 32.X.mtl

# 116 vertex positions
v  13.5646057 46.3124695 13.5646057
v  0 50.1283073 0
v  0 46.3124695 19.1832561
v  19.1832561 46.3124695 0
v  13.5646057 46.3124695 -13.5646057
v  0 46.3124695 -19.1832561
v  -13.5646057 46.3124695 -13.5646057
v  -19.1832561 46.3124695 0
v  -13.5646057 46.3124695 13.5646057
v  25.0641537 35.4460373 25.0641537
v  0 35.4460373 35.4460373
v  35.4460373 35.4460373 0
v  25.0641537 35.4460373 -25.0641537
v  0 35.4460373 -35.4460373
v  -25.0641537 35.4460373 -25.0641537
v  -35.4460373 35.4460373 0
v  -25.0641537 35.4460373 25.0641537
v  32.74786 19.1832561 32.74786
v  0 19.1832561 46.3124695
v  46.3124695 19.1832561 0
v  32.74786 19.1832561 -32.74786
v  0 19.1832561 -46.3124695
v  -32.74786 19.1832561 -32.74786
v  -46.3124695 19.1832561 0
v  -32.74786 19.1832561 32.74786
v  35.4460373 0 35.4460373
v  0 0 50.1283073
v  50.1283073 0 0
v  35.4460373 0 -35.4460373
v  0 0 -50.1283073
v  -35.4460373 0 -35.4460373
v  -50.1283073 0 0
v  -35.4460373 0 35.4460373
v  32.74786 -19.1832561 32.74786
v  0 -19.1832561 46.3124695
v  46.3124695 -19.1832561 0
v  32.74786 -19.1832561 -32.74786
v  0 -19.1832561 -46.3124695
v  -32.74786 -19.1832561 -32.74786
v  -46.3124695 -19.1832561 0
v  -32.74786 -19.1832561 32.74786
v  25.0641537 -35.4460373 25.0641537
v  0 -35.4460373 35.4460373
v  35.4460373 -35.4460373 0
v  25.0641537 -35.4460373 -25.0641537
v  0 -35.4460373 -35.4460373
v  -25.0641537 -35.4460373 -25.0641537
v  -35.4460373 -35.4460373 0
v  -25.0641537 -35.4460373 25.0641537
v  13.5646057 -46.3124695 13.5646057
v  0 -46.3124695 19.1832561
v  19.1832561 -46.3124695 0
v  13.5646057 -46.3124695 -13.5646057
v  0 -46.3124695 -19.1832561
v  -13.5646057 -46.3124695 -13.5646057
v  -19.1832561 -46.3124695 0
v  -13.5646057 -46.3124695 13.5646057
v  0 -50.1283073 0
v  0 50.1597939 20.7768993
v  0 54.2924767 0
v  14.691494 50.1597939 14.691494
v  20.7768993 50.1597939 0
v  14.691494 50.1597939 -14.691494
v  0 50.1597939 -20.7768993
v  -14.691494 50.1597939 -14.691494
v  -20.7768993 50.1597939 0
v  -14.691494 50.1597939 14.691494
v  0 38.3905792 38.3905792
v  27.1462383 38.3905792 27.1462383
v  38.3905792 38.3905792 0
v  27.1462383 38.3905792 -27.1462383
v  0 38.3905792 -38.3905792
v  -27.1462383 38.3905792 -27.1462383
v  -38.3905792 38.3905792 0
v  -27.1462383 38.3905792 27.1462383
v  0 20.7768993 50.1597939
v  35.4682961 20.7768993 35.4682961
v  50.1597939 20.7768993 0
v  35.4682961 20.7768993 -35.4682961
v  0 20.7768993 -50.1597939
v  -35.4682961 20.7768993 -35.4682961
v  -50.1597939 20.7768993 0
v  -35.4682961 20.7768993 35.4682961
v  0 0 54.2924767
v  38.3905792 0 38.3905792
v  54.2924767 0 0
v  38.3905792 0 -38.3905792
v  0 0 -54.2924767
v  -38.3905792 0 -38.3905792
v  -54.2924767 0 0
v  -38.3905792 0 38.3905792
v  0 -20.7768993 50.1597939
v  35.4682961 -20.7768993 35.4682961
v  50.1597939 -20.7768993 0
v  35.4682961 -20.7768993 -35.4682961
v  0 -20.7768993 -50.1597939
v  -35.4682961 -20.7768993 -35.4682961
v  -50.1597939 -20.7768993 0
v  -35.4682961 -20.7768993 35.4682961
v  0 -38.3905792 38.3905792
v  27.1462383 -38.3905792 27.1462383
v  38.3905792 -38.3905792 0
v  27.1462383 -38.3905792 -27.1462383
v  0 -38.3905792 -38.3905792
v  -27.1462383 -38.3905792 -27.1462383
v  -38.3905792 -38.3905792 0
v  -27.1462383 -38.3905792 27.1462383
v  0 -50.1597939 20.7768993
v  14.691494 -50.1597939 14.691494
v  20.7768993 -50.1597939 0
v  14.691494 -50.1597939 -14.691494
v  0 -50.1597939 -20.7768993
v  -14.691494 -50.1597939 -14.691494
v  -20.7768993 -50.1597939 0
v  -14.691494 -50.1597939 14.691494
v  0 -54.2924767 0

# 34 UV coordinates
vt 0.423489988 0.512019992 0
vt 0.410439998 0.512019992 0
vt 0.397379994 0.512019992 0
vt 0.449600011 0.512019992 0
vt 0.436549991 0.512019992 0
vt 0.475710005 0.512019992 0
vt 0.462650001 0.512019992 0
vt 0.501810014 0.512019992 0
vt 0.488759995 0.512019992 0
vt 0.527920008 0.512019992 0
vt 0.514869988 0.512019992 0
vt 0.554030001 0.512019992 0
vt 0.540979981 0.512019992 0
vt 0.580139995 0.512019992 0
vt 0.567080021 0.512019992 0
vt 0.606249988 0.512019992 0
vt 0.593190014 0.512019992 0
vt 0.365509987 0.690510035 0
vt 0.37856999 0.690510035 0
vt 0.39162001 0.690510035 0
vt 0.40467 0.690510035 0
vt 0.417730004 0.690510035 0
vt 0.430779994 0.690510035 0
vt 0.443830013 0.690510035 0
vt 0.456889987 0.690510035 0
vt 0.469940007 0.690510035 0
vt 0.48300001 0.690510035 0
vt 0.49605 0.690510035 0
vt 0.50910002 0.690510035 0
vt 0.522159994 0.690510035 0
vt 0.535210013 0.690510035 0
vt 0.548269987 0.690510035 0
vt 0.561320007 0.690510035 0
vt 0.574370027 0.690510035 0

# 116 vertex normals
vn 0.284229904 0.862096727 0.284229606
vn -1.0244941e-10 0.95120126 -2.28910599e-10
vn -1.94210799e-07 0.862096548 0.401961952
vn 0.401961952 0.862096548 1.9937157e-07
vn 0.284229606 0.862096727 -0.284229904
vn 1.9937157e-07 0.862096548 -0.401961952
vn -0.284229904 0.862096727 -0.284229606
vn -0.401961952 0.862096548 -1.9937157e-07
vn -0.284229606 0.862096727 0.284229904
vn 0.490742534 0.650482178 0.490742773
vn 1.23653038e-07 0.650482357 0.694014847
vn 0.694014788 0.650482357 -1.28981839e-07
vn 0.490742773 0.650482178 -0.490742534
vn -1.28981839e-07 0.650482357 -0.694014788
vn -0.490742534 0.650482178 -0.490742773
vn -0.694014788 0.650482357 1.28981839e-07
vn -0.490742773 0.650482178 0.490742534
vn 0.62572217 0.348893911 0.625722528
vn 2.56243823e-07 0.348894835 0.884904623
vn 0.884904623 0.348894835 -2.59180325e-07
vn 0.625722528 0.348893911 -0.62572217
vn -2.59180325e-07 0.348894835 -0.884904623
vn -0.62572217 0.348893911 -0.625722528
vn -0.884904623 0.348894835 2.59180325e-07
vn -0.625722528 0.348893911 0.62572217
vn 0.672600865 7.22588167e-09 0.672600925
vn -1.51294255e-09 4.85498219e-09 0.95120126
vn 0.95120126 4.1610293e-09 3.93785893e-09
vn 0.672600925 7.22588167e-09 -0.672600865
vn 3.93785893e-09 4.1610293e-09 -0.95120126
vn -0.672600865 7.22588167e-09 -0.672600925
vn -0.95120126 4.1610293e-09 -3.93785893e-09
vn -0.672600925 7.22588167e-09 0.672600865
vn 0.625722528 -0.34889394 0.62572217
vn -2.64994156e-07 -0.348894835 0.884904623
vn 0.884904683 -0.348894805 2.57350848e-07
vn 0.62572217 -0.34889394 -0.625722528
vn 2.57350848e-07 -0.348894805 -0.884904683
vn -0.625722528 -0.34889394 -0.62572217
vn -0.884904683 -0.348894805 -2.57350848e-07
vn -0.62572217 -0.34889394 0.625722528
vn 0.490742773 -0.650482178 0.490742534
vn -1.26836213e-07 -0.650482357 0.694014788
vn 0.694014788 -0.650482357 1.31681347e-07
vn 0.490742534 -0.650482178 -0.490742773
vn 1.31681347e-07 -0.650482357 -0.694014788
vn -0.490742773 -0.650482178 -0.490742534
vn -0.694014788 -0.650482357 -1.31681347e-07
vn -0.490742534 -0.650482178 0.490742773
vn 0.284229606 -0.862096727 0.284229904
vn 1.98257297e-07 -0.862096548 0.401961952
vn 0.401961952 -0.862096548 -1.98619333e-07
vn 0.284229904 -0.862096727 -0.284229606
vn -1.98619333e-07 -0.862096548 -0.401961952
vn -0.284229606 -0.862096727 -0.284229904
vn -0.401961952 -0.862096548 1.98619333e-07
vn -0.284229904 -0.862096727 0.284229606
vn -1.0244941e-10 -0.95120126 -2.28910599e-10
vn -8.46696793e-08 -0.86209619 -0.401962608
vn -1.92920147e-09 -0.95120126 -4.6258733e-10
vn -0.2842305 -0.86209619 -0.284230679
vn -0.401962548 -0.86209625 8.58738503e-08
vn -0.284230679 -0.86209619 0.2842305
vn 8.58738503e-08 -0.86209625 0.401962548
vn 0.2842305 -0.86209619 0.284230679
vn 0.401962548 -0.86209625 -8.58738503e-08
vn 0.284230679 -0.86209619 -0.2842305
vn -2.42230186e-07 -0.650482893 -0.694014311
vn -0.490742445 -0.650482297 -0.490742773
vn -0.694014311 -0.650482893 2.44722827e-07
vn -0.490742773 -0.650482297 0.490742445
vn 2.44722827e-07 -0.650482893 0.694014311
vn 0.490742445 -0.650482297 0.490742773
vn 0.694014311 -0.650482893 -2.44722827e-07
vn 0.490742773 -0.650482297 -0.490742445
vn 1.08019741e-07 -0.34889397 -0.884904981
vn -0.625722289 -0.348894238 -0.62572217
vn -0.884904981 -0.34889397 -1.14120951e-07
vn -0.62572217 -0.348894238 0.625722289
vn -1.14120951e-07 -0.34889397 0.884904981
vn 0.625722289 -0.348894238 0.62572217
vn 0.884904981 -0.34889397 1.14120951e-07
vn 0.62572217 -0.348894238 -0.625722289
vn 2.92013635e-09 1.66980552e-09 -0.95120126
vn -0.672600865 6.31221209e-09 -0.672600925
vn -0.95120126 -1.45013901e-09 5.30959765e-09
vn -0.672600925 6.31221209e-09 0.672600865
vn 5.30959765e-09 -1.45013901e-09 0.95120126
vn 0.672600865 6.31221209e-09 0.672600925
vn 0.95120126 -1.45013901e-09 -5.30959765e-09
vn 0.672600925 6.31221209e-09 -0.672600865
vn -1.05746999e-07 0.34889397 -0.884904981
vn -0.625722229 0.348894238 -0.625722289
vn -0.884904981 0.34889397 1.12071518e-07
vn -0.625722289 0.348894238 0.625722229
vn 1.12071518e-07 0.34889397 0.884904981
vn 0.625722229 0.348894238 0.625722289
vn 0.884904981 0.34889397 -1.12071518e-07
vn 0.625722289 0.348894238 -0.625722229
vn 2.40513117e-07 0.650482833 -0.694014311
vn -0.490742773 0.650482297 -0.490742445
vn -0.694014311 0.650482833 -2.47517164e-07
vn -0.490742445 0.650482297 0.490742773
vn -2.47517164e-07 0.650482833 0.694014311
vn 0.490742773 0.650482297 0.490742445
vn 0.694014311 0.650482833 2.47517164e-07
vn 0.490742445 0.650482297 -0.490742773
vn 8.69865247e-08 0.86209619 -0.401962578
vn -0.284230649 0.86209619 -0.2842305
vn -0.401962548 0.86209625 -8.46361488e-08
vn -0.2842305 0.86209619 0.284230649
vn -8.46361488e-08 0.86209625 0.401962548
vn 0.284230649 0.86209619 0.2842305
vn 0.401962548 0.86209625 8.46361488e-08
vn 0.2842305 0.86209619 -0.284230649
vn -1.92920147e-09 0.95120126 -4.6258733e-10

# Mesh 'obj1' with 224 faces
g obj1
usemtl mat1
f  1/1/1 2/2/2 3/3/3
f  4/4/4 2/5/2 1/1/1
f  5/6/5 2/7/2 4/4/4
f  6/8/6 2/9/2 5/6/5
f  7/10/7 2/11/2 6/8/6
f  8/12/8 2/13/2 7/10/7
f  9/14/9 2/15/2 8/12/8
f  3/16/3 2/17/2 9/14/9
f  1/1/1 3/3/3 10/1/10
f  11/3/11 10/1/10 3/3/3
f  4/4/4 1/1/1 12/4/12
f  10/1/10 12/4/12 1/1/1
f  5/6/5 4/4/4 13/6/13
f  12/4/12 13/6/13 4/4/4
f  6/8/6 5/6/5 14/8/14
f  13/6/13 14/8/14 5/6/5
f  7/10/7 6/8/6 15/10/15
f  14/8/14 15/10/15 6/8/6
f  8/12/8 7/10/7 16/12/16
f  15/10/15 16/12/16 7/10/7
f  9/14/9 8/12/8 17/14/17
f  16/12/16 17/14/17 8/12/8
f  3/16/3 9/14/9 11/16/11
f  17/14/17 11/16/11 9/14/9
f  10/1/10 11/3/11 18/1/18
f  19/3/19 18/1/18 11/3/11
f  12/4/12 10/1/10 20/4/20
f  18/1/18 20/4/20 10/1/10
f  13/6/13 12/4/12 21/6/21
f  20/4/20 21/6/21 12/4/12
f  14/8/14 13/6/13 22/8/22
f  21/6/21 22/8/22 13/6/13
f  15/10/15 14/8/14 23/10/23
f  22/8/22 23/10/23 14/8/14
f  16/12/16 15/10/15 24/12/24
f  23/10/23 24/12/24 15/10/15
f  17/14/17 16/12/16 25/14/25
f  24/12/24 25/14/25 16/12/16
f  11/16/11 17/14/17 19/16/19
f  25/14/25 19/16/19 17/14/17
f  18/1/18 19/3/19 26/1/26
f  27/3/27 26/1/26 19/3/19
f  20/4/20 18/1/18 28/4/28
f  26/1/26 28/4/28 18/1/18
f  21/6/21 20/4/20 29/6/29
f  28/4/28 29/6/29 20/4/20
f  22/8/22 21/6/21 30/8/30
f  29/6/29 30/8/30 21/6/21
f  23/10/23 22/8/22 31/10/31
f  30/8/30 31/10/31 22/8/22
f  24/12/24 23/10/23 32/12/32
f  31/10/31 32/12/32 23/10/23
f  25/14/25 24/12/24 33/14/33
f  32/12/32 33/14/33 24/12/24
f  19/16/19 25/14/25 27/16/27
f  33/14/33 27/16/27 25/14/25
f  26/1/26 27/3/27 34/1/34
f  35/3/35 34/1/34 27/3/27
f  28/4/28 26/1/26 36/4/36
f  34/1/34 36/4/36 26/1/26
f  29/6/29 28/4/28 37/6/37
f  36/4/36 37/6/37 28/4/28
f  30/8/30 29/6/29 38/8/38
f  37/6/37 38/8/38 29/6/29
f  31/10/31 30/8/30 39/10/39
f  38/8/38 39/10/39 30/8/30
f  32/12/32 31/10/31 40/12/40
f  39/10/39 40/12/40 31/10/31
f  33/14/33 32/12/32 41/14/41
f  40/12/40 41/14/41 32/12/32
f  27/16/27 33/14/33 35/16/35
f  41/14/41 35/16/35 33/14/33
f  34/1/34 35/3/35 42/1/42
f  43/3/43 42/1/42 35/3/35
f  36/4/36 34/1/34 44/4/44
f  42/1/42 44/4/44 34/1/34
f  37/6/37 36/4/36 45/6/45
f  44/4/44 45/6/45 36/4/36
f  38/8/38 37/6/37 46/8/46
f  45/6/45 46/8/46 37/6/37
f  39/10/39 38/8/38 47/10/47
f  46/8/46 47/10/47 38/8/38
f  40/12/40 39/10/39 48/12/48
f  47/10/47 48/12/48 39/10/39
f  41/14/41 40/12/40 49/14/49
f  48/12/48 49/14/49 40/12/40
f  35/16/35 41/14/41 43/16/43
f  49/14/49 43/16/43 41/14/41
f  42/1/42 43/3/43 50/1/50
f  51/3/51 50/1/50 43/3/43
f  44/4/44 42/1/42 52/4/52
f  50/1/50 52/4/52 42/1/42
f  45/6/45 44/4/44 53/6/53
f  52/4/52 53/6/53 44/4/44
f  46/8/46 45/6/45 54/8/54
f  53/6/53 54/8/54 45/6/45
f  47/10/47 46/8/46 55/10/55
f  54/8/54 55/10/55 46/8/46
f  48/12/48 47/10/47 56/12/56
f  55/10/55 56/12/56 47/10/47
f  49/14/49 48/12/48 57/14/57
f  56/12/56 57/14/57 48/12/48
f  43/16/43 49/14/49 51/16/51
f  57/14/57 51/16/51 49/14/49
f  50/1/50 51/3/51 58/2/58
f  52/4/52 50/1/50 58/5/58
f  53/6/53 52/4/52 58/7/58
f  54/8/54 53/6/53 58/9/58
f  55/10/55 54/8/54 58/11/58
f  56/12/56 55/10/55 58/13/58
f  57/14/57 56/12/56 58/15/58
f  51/16/51 57/14/57 58/17/58
f  59/18/59 60/19/60 61/20/61
f  61/20/61 60/21/60 62/22/62
f  62/22/62 60/23/60 63/24/63
f  63/24/63 60/25/60 64/26/64
f  64/26/64 60/27/60 65/28/65
f  65/28/65 60/29/60 66/30/66
f  66/30/66 60/31/60 67/32/67
f  67/32/67 60/33/60 59/34/59
f  68/18/68 59/18/59 69/20/69
f  61/20/61 69/20/69 59/18/59
f  69/20/69 61/20/61 70/22/70
f  62/22/62 70/22/70 61/20/61
f  70/22/70 62/22/62 71/24/71
f  63/24/63 71/24/71 62/22/62
f  71/24/71 63/24/63 72/26/72
f  64/26/64 72/26/72 63/24/63
f  72/26/72 64/26/64 73/28/73
f  65/28/65 73/28/73 64/26/64
f  73/28/73 65/28/65 74/30/74
f  66/30/66 74/30/74 65/28/65
f  74/30/74 66/30/66 75/32/75
f  67/32/67 75/32/75 66/30/66
f  75/32/75 67/32/67 68/34/68
f  59/34/59 68/34/68 67/32/67
f  76/18/76 68/18/68 77/20/77
f  69/20/69 77/20/77 68/18/68
f  77/20/77 69/20/69 78/22/78
f  70/22/70 78/22/78 69/20/69
f  78/22/78 70/22/70 79/24/79
f  71/24/71 79/24/79 70/22/70
f  79/24/79 71/24/71 80/26/80
f  72/26/72 80/26/80 71/24/71
f  80/26/80 72/26/72 81/28/81
f  73/28/73 81/28/81 72/26/72
f  81/28/81 73/28/73 82/30/82
f  74/30/74 82/30/82 73/28/73
f  82/30/82 74/30/74 83/32/83
f  75/32/75 83/32/83 74/30/74
f  83/32/83 75/32/75 76/34/76
f  68/34/68 76/34/76 75/32/75
f  84/18/84 76/18/76 85/20/85
f  77/20/77 85/20/85 76/18/76
f  85/20/85 77/20/77 86/22/86
f  78/22/78 86/22/86 77/20/77
f  86/22/86 78/22/78 87/24/87
f  79/24/79 87/24/87 78/22/78
f  87/24/87 79/24/79 88/26/88
f  80/26/80 88/26/88 79/24/79
f  88/26/88 80/26/80 89/28/89
f  81/28/81 89/28/89 80/26/80
f  89/28/89 81/28/81 90/30/90
f  82/30/82 90/30/90 81/28/81
f  90/30/90 82/30/82 91/32/91
f  83/32/83 91/32/91 82/30/82
f  91/32/91 83/32/83 84/34/84
f  76/34/76 84/34/84 83/32/83
f  92/18/92 84/18/84 93/20/93
f  85/20/85 93/20/93 84/18/84
f  93/20/93 85/20/85 94/22/94
f  86/22/86 94/22/94 85/20/85
f  94/22/94 86/22/86 95/24/95
f  87/24/87 95/24/95 86/22/86
f  95/24/95 87/24/87 96/26/96
f  88/26/88 96/26/96 87/24/87
f  96/26/96 88/26/88 97/28/97
f  89/28/89 97/28/97 88/26/88
f  97/28/97 89/28/89 98/30/98
f  90/30/90 98/30/98 89/28/89
f  98/30/98 90/30/90 99/32/99
f  91/32/91 99/32/99 90/30/90
f  99/32/99 91/32/91 92/34/92
f  84/34/84 92/34/92 91/32/91
f  100/18/100 92/18/92 101/20/101
f  93/20/93 101/20/101 92/18/92
f  101/20/101 93/20/93 102/22/102
f  94/22/94 102/22/102 93/20/93
f  102/22/102 94/22/94 103/24/103
f  95/24/95 103/24/103 94/22/94
f  103/24/103 95/24/95 104/26/104
f  96/26/96 104/26/104 95/24/95
f  104/26/104 96/26/96 105/28/105
f  97/28/97 105/28/105 96/26/96
f  105/28/105 97/28/97 106/30/106
f  98/30/98 106/30/106 97/28/97
f  106/30/106 98/30/98 107/32/107
f  99/32/99 107/32/107 98/30/98
f  107/32/107 99/32/99 100/34/100
f  92/34/92 100/34/100 99/32/99
f  108/18/108 100/18/100 109/20/109
f  101/20/101 109/20/109 100/18/100
f  109/20/109 101/20/101 110/22/110
f  102/22/102 110/22/110 101/20/101
f  110/22/110 102/22/102 111/24/111
f  103/24/103 111/24/111 102/22/102
f  111/24/111 103/24/103 112/26/112
f  104/26/104 112/26/112 103/24/103
f  112/26/112 104/26/104 113/28/113
f  105/28/105 113/28/113 104/26/104
f  113/28/113 105/28/105 114/30/114
f  106/30/106 114/30/114 105/28/105
f  114/30/114 106/30/106 115/32/115
f  107/32/107 115/32/115 106/30/106
f  115/32/115 107/32/107 108/34/108
f  100/34/100 108/34/108 107/32/107
f  116/19/116 108/18/108 109/20/109
f  116/21/116 109/20/109 110/22/110
f  116/23/116 110/22/110 111/24/111
f  116/25/116 111/24/111 112/26/112
f  116/27/116 112/26/112 113/28/113
f  116/29/116 113/28/113 114/30/114
f  116/31/116 114/30/114 115/32/115
f  116/33/116 115/32/115 108/34/108

