# File produced by Open Asset Import Library (http://www.assimp.sf.net)
# (assimp v5.2.3369795085)

mtllib collision_camera.X.mtl

# 161 vertex positions
v  1741.67749 337.158813 1926.70447
v  2224.8562 337.158813 1960.4917
v  1741.67749 -46.4625015 1926.70447
v  2224.8562 -46.4625015 1960.4917
v  2206.88452 337.158813 2263.75757
v  2206.88452 -46.4625015 2263.75757
v  1723.7063 337.158813 2229.97046
v  1723.7063 -46.4625015 2229.97046
v  1191.2085 167.034805 2243.81104
v  1195.70508 167.034805 1939.95667
v  1191.2085 -22.9993992 2243.81104
v  1195.70508 -22.9993992 1939.95667
v  1804.26526 167.034805 1948.40991
v  1804.26526 -22.9993992 1948.40991
v  1799.76917 167.034805 2252.2644
v  1799.76917 -22.9993992 2252.2644
v  -282.152588 167.034805 2196.82104
v  -277.656189 167.034805 1916.40967
v  -282.152588 -22.9993992 2196.82104
v  -277.656189 -22.9993992 1916.40967
v  306.609406 167.034805 1924.86292
v  306.609406 -22.9993992 1924.86292
v  302.113312 167.034805 2205.27417
v  302.113312 -22.9993992 2205.27417
v  215.542206 358.948486 2219.66528
v  235.755997 358.948486 1922.37903
v  215.542206 -66.8460999 2219.66528
v  235.755997 -66.8460999 1922.37903
v  1232.82312 358.948486 1937.29272
v  1232.82312 -66.8460999 1937.29272
v  1212.60974 358.948486 2234.58008
v  1212.60974 -66.8460999 2234.58008
v  538.359497 541.034302 1928.28333
v  1022.6991 541.034302 1932.50977
v  538.359497 -48.2818985 1928.28333
v  1022.6991 -48.2818985 1932.50977
v  1020.45099 541.034302 2230.58081
v  1020.45099 -48.2818985 2230.58081
v  536.111023 541.034302 2226.35425
v  536.111023 -48.2818985 2226.35425
v  -398.687012 226.535797 -680.421082
v  363.366791 259.350311 -659.836182
v  -547.249023 -38.5479012 -812.736572
v  384.981995 -38.5479012 -965.836182
v  1066.12341 202.336502 -542.612122
v  1274.07751 -38.1548004 -730.80249
v  -440.138397 223.518204 903.813416
v  -690.653381 -55.1363983 1156.40955
v  979.370483 209.858307 798.17688
v  1169.15417 -71.9735031 938.3573
v  564.308228 440.566193 314.473297
v  502.525787 440.566193 44.9440002
v  563.630981 435.105988 314.490814
v  501.848511 434.541992 44.9595985
v  930.671814 440.566193 216.204697
v  854.548706 440.566193 -66.4382019
v  305.076691 457.068787 -412.5354
v  306.675812 457.068787 54.5065002
v  721.37677 457.068787 -416.837189
v  722.776184 457.068787 50.2715988
v  331.484406 442.224915 774.979126
v  -230.049606 442.224915 855.859009
v  332.491302 201.669693 775.043823
v  -229.025208 201.669693 855.919128
v  -305.601593 442.224915 355.819489
v  -304.59079 201.669693 355.898987
v  256.045502 442.224915 275.168091
v  257.066986 201.669693 275.229095
v  -175.675797 410.968994 -672.828918
v  -175.675797 242.694397 -672.828918
v  -264.080811 410.968994 -230.557907
v  -264.080811 242.694397 -230.557907
v  219.098694 410.968994 -596.750183
v  219.098694 242.694397 -596.750183
v  130.491699 410.968994 -154.4543
v  130.491699 242.694397 -154.4543
v  358.804688 414.710785 -280.597412
v  358.804688 189.838806 -280.597412
v  402.730011 414.710785 -636.453796
v  402.730011 189.838806 -636.453796
v  192.667694 414.710785 -660.546082
v  192.667694 189.838806 -660.546082
v  148.778595 414.710785 -304.685303
v  148.778595 189.838806 -304.685303
v  124.4655 586.537109 -46.0183983
v  18.8055 586.537109 -46.0183983
v  124.4655 450.999298 -46.0183983
v  18.8055 450.999298 -46.0183983
v  124.4655 586.537109 -154.753204
v  124.4655 450.999298 -154.753204
v  18.8055 586.537109 -154.753204
v  18.8055 450.999298 -154.753204
v  754.630676 370.849915 -296.001801
v  386.661194 450.33609 -292.393311
v  703.153992 347.796204 534.330994
v  283.319214 436.477386 482.797302
v  -66.6256027 396.53421 -311.216492
v  -79.2782974 313.997498 581.305603
v  246.062103 211.352005 861.213196
v  231.389099 -105.278198 1084.49463
v  2238.53711 143.571701 -1711.93652
v  1605.01794 143.571701 -1649.06689
v  2238.53711 -46.4625015 -1711.93652
v  1605.01794 -46.4625015 -1649.06689
v  1575.85339 143.571701 -1994.81628
v  2209.37256 143.571701 -2057.68701
v  1575.85339 -46.4625015 -1994.81628
v  2209.37256 -46.4625015 -2057.68701
v  2551.46631 143.571701 -2075.69482
v  2604.63525 143.570007 -974.816711
v  2551.46631 -46.4625015 -2075.69482
v  2604.63525 -46.4625015 -974.816711
v  2197.46899 143.570007 -968.07312
v  2144.30054 143.571701 -2068.95068
v  2197.46899 -46.4625015 -968.07312
v  2144.30054 -46.4625015 -2068.95068
v  2518.83887 325.687408 -1698.9624
v  1884.93079 325.687408 -1707.41553
v  2518.83887 135.653198 -1698.9624
v  1884.93079 135.653198 -1707.41553
v  1889.42688 325.687408 -2054.78125
v  1889.42688 135.653198 -2054.78125
v  2523.33594 325.687408 -2046.32898
v  2523.33594 135.653198 -2046.32898
v  2194.4104 143.240005 -969.015503
v  2655.60791 -75.353302 -656.360718
v  2212.073 -67.2060013 -628.918274
v  1619.02246 184.478302 -1735.48987
v  967.004395 184.478302 -1759.17981
v  1619.02246 -46.4625015 -1735.48987
v  967.004395 -46.4625015 -1759.17981
v  1626.61768 184.478302 -2186.646
v  1626.61768 -46.4625015 -2186.646
v  974.599121 184.478302 -2210.33398
v  974.599121 -46.4625015 -2210.33398
v  974.123474 184.478302 -1790.59851
v  571.323486 184.478302 -1836.72571
v  974.123474 -46.4625015 -1790.59851
v  571.323486 -46.4625015 -1836.72571
v  981.817505 184.478302 -2213.73438
v  981.817505 -46.4625015 -2213.73438
v  609.745422 184.478302 -2285.46729
v  53.3065987 184.478302 -1922.83081
v  53.3065987 -46.4625015 -1922.83081
v  103.462097 184.478302 -2370.4126
v  103.462097 -46.4625015 -2370.4126
v  1847.50525 172.326202 2173.80078
v  1831.27026 172.326202 1690.60583
v  1847.50525 -17.7080002 2173.80078
v  1831.27026 -17.7080002 1690.60583
v  2582.11206 172.326202 1662.53198
v  2582.11206 -17.7080002 1662.53198
v  2598.34595 172.326202 2145.72852
v  2598.34595 -17.7080002 2145.72852
v  2246.99707 172.326202 1928.43896
v  2287.87744 172.326202 -360.444611
v  2246.99707 -17.7080002 1928.43896
v  2287.87744 -17.7080002 -360.444611
v  2839.98608 172.326202 -363.111389
v  2839.98608 -17.7080002 -363.111389
v  2799.10718 172.326202 1925.77441

# 98 UV coordinates
vt 0.535860002 0.315980017 0
vt -0.00240999996 0.315980017 0
vt 0.535000026 0.00998997688 0
vt -0.00319999992 0.00998997688 0
vt 0.00667000003 0.303229988 0
vt 0.341219991 0.303229988 0
vt 0.00667000003 0.00713998079 0
vt 0.341179997 0.00713998079 0
vt 0.294759989 0.30963999 0
vt 0.00667000003 0.30963999 0
vt 0.294719994 0.00713998079 0
vt 0.00120000006 0.0901499987 0
vt 0.973020017 0.0901499987 0
vt 0.00120000006 0.995819986 0
vt 0.973020017 0.995819986 0
vt -0.00240999996 0.31437999 0
vt 0.540669978 0.31437999 0
vt 0.539810002 0.00998997688 0
vt -0.443650007 -0.0140000582 0
vt -0.470770001 0.238619983 0
vt -0.821659982 -0.217110038 0
vt -0.859539986 0.135770023 0
vt -0.708649993 0.491240025 0
vt -0.624719977 0.90941 0
vt -1.16987002 0.50406003 0
vt -1.05157006 0.922219992 0
vt 0.518289983 -0.548789978 0
vt 0.117289998 -0.591660023 0
vt 0.522029996 -0.964130044 0
vt 0.110200003 -0.98913002 0
vt -0.102650002 1.42012 0
vt 0.253140002 1.47634006 0
vt -0.269840002 1.80451 0
vt 0.206740007 1.87897003 0
vt -0.0370200016 0.747070014 0
vt 1.23728001 0.785349965 0
vt -0.0252999999 0.472630024 0
vt 1.24899995 0.510900021 0
vt 1 1 0
vt 0 1 0
vt 1 0 0
vt 0 0 0
vt 1.98552001 -0.992609978 0
vt 1.98552001 1 0
vt 0 -0.992609978 0
vt 0.555040002 0.521440029 0
vt 0.997640014 0.521440029 0
vt 0.997640014 0.754069984 0
vt 0.555040002 0.754069984 0
vt 0.577650011 0.599409997 0
vt 0.577650011 0.698199987 0
vt 0.00827000011 0.599409997 0
vt 0.00827000011 0.698199987 0
vt 0.577650011 0.40180999 0
vt 0.577650011 0.500609994 0
vt 0.00827000011 0.40180999 0
vt 0.00827000011 0.500609994 0
vt 0.577650011 0.105419993 0
vt 0.577650011 0.204209983 0
vt 0.00827000011 0.105419993 0
vt 0.00827000011 0.204209983 0
vt 1.79566002 0.774320006 0
vt 1.99575996 0.706609964 0
vt 1.66918004 0.599449992 0
vt 1.79929996 0.556349993 0
vt -0.282070011 0.494840026 0
vt -0.0998800024 0.643040001 0
vt -0.129920006 0.772119999 0
vt -0.0662399977 0.498440027 0
vt 0.176750004 0.638069987 0
vt 0.156090006 0.495069981 0
vt 0.422199994 0.743430018 0
vt 0.378430009 0.491699994 0
vt 0.548210025 0.964320004 0
vt 0.67881 1.33840001 0
vt 0.195189998 0.765740037 0
vt -0.25455001 0.239229977 0
vt -0.0224200003 0.0923100114 0
vt -0.0383399986 0.239849985 0
vt -0.227039993 -0.0163700581 0
vt 0.217500001 0.0410400033 0
vt 0.234280005 -0.0831099749 0
vt 0.448540002 0.0461599827 0
vt 0.479009986 -0.147469997 0
vt 0.195189998 0.205980003 0
vt 0.428719997 0.172110021 0
vt 1.95011997 0.143930018 0
vt 1.42254996 0.347970009 0
vt 1.42542005 0.220690012 0
vt 1.41942 0.486859977 0
vt 1.70450997 0.490140021 0
vt 0.839020014 0.894980013 0
vt 0.519810021 1.10830998 0
vt 1.14820004 0.336149991 0
vt 0.927770019 0.444670022 0
vt 1.01532996 0.354099989 0
vt 1.14994001 0.214860022 0
vt 1.82770002 0.316500008 0

# 121 vertex normals
vn 0.0697566494 0 -0.997564018
vn 0.998248696 0 0.0591566935
vn -0.998248816 0 -0.0591550656
vn 0 1 0
vn -0.999890506 0 -0.0147968577
vn 0.0138892289 0 -0.99990356
vn 0.999890566 0 0.0147952456
vn -0.999871492 0 -0.0160329491
vn 0.0144666433 0 -0.999895334
vn 0.999871492 0 0.0160318669
vn -0.99769634 0 -0.0678377301
vn 0.0149558922 0 -0.999888182
vn 0.997696459 0 0.0678361058
vn 0.00872585922 0 -0.999961913
vn 0.999971569 0 0.00754197408
vn -0.999971569 0 -0.00754320575
vn -0.440040022 0.751263082 -0.491902947
vn 0.0421079844 0.806711972 -0.58944267
vn -0.547652841 0.642071605 -0.53648901
vn 0.0320013389 0.71552825 -0.697850406
vn 0.483835876 0.816106915 -0.316025943
vn 0.528026462 0.753866196 -0.390990824
vn -0.352529436 0.857537985 0.374635309
vn -0.417792052 0.769635201 0.48281613
vn 0.435453475 0.763675988 0.476633191
vn 0.545658231 0.649777472 0.529194057
vn -0.967591166 0.120724857 0.221794605
vn -0.968893051 0.10964521 0.221865296
vn -0.967610061 0.120570958 0.221795782
vn -0.968908727 0.109504983 0.221866012
vn 0.142562553 0.000862929563 0.989785433
vn 0.142559931 0.000856618688 0.98978579
vn 0.142561659 0.000860762841 0.989785552
vn 0.142559022 0.000854451908 0.98978591
vn -0.988768756 -0.00417331187 0.149395078
vn -0.988765538 -0.00412457483 0.149418026
vn -0.988767505 -0.00415410195 0.149404123
vn -0.988764226 -0.00410536444 0.149427071
vn -0.142139912 -0.000924388878 -0.98984617
vn -0.142161742 -0.00087248924 -0.989843071
vn -0.142147392 -0.000906624133 -0.989845097
vn -0.142169222 -0.000854725135 -0.989841998
vn 0.988791764 0.00416091969 -0.149243131
vn 0.988795102 0.00411628699 -0.14922215
vn 0.988793075 0.00414332701 -0.149234876
vn 0.988796473 0.00409869477 -0.149213865
vn -0.980601668 0 -0.19601126
vn -0.980601668 0 -0.196011275
vn 0.189232528 0 -0.981932282
vn 0.189232513 0 -0.981932282
vn 0.980517626 0 0.19643122
vn 0.980517626 0 0.196431234
vn -0.189385578 0 0.981902778
vn -0.189385563 0 0.981902778
vn 0.992467821 0 0.122505784
vn 0.992467821 0 0.122505791
vn -0.992480278 0 -0.122404784
vn -0.992480278 0 -0.122404791
vn 0.113944158 0 -0.993487179
vn 0.113944165 0 -0.993487179
vn 0 -1 0
vn 0 0 1
vn 1 0 0
vn 0 0 -1
vn -1 0 0
vn 0.297921211 0.940716147 -0.162160739
vn 0.0434521399 0.977964401 -0.204199865
vn 0.22823742 0.948185027 0.221026704
vn -0.0353046097 0.977454126 0.20817554
vn -0.25406149 0.960333765 -0.114942707
vn -0.306155026 0.950658441 -0.0501758084
vn 0.0808875486 0.732978821 0.675425231
vn 0.100320481 0.57028383 0.815298796
vn 0.0987536237 0 0.995111942
vn 0.0987536162 0 0.995111942
vn -0.0987553373 0 -0.995111763
vn -0.0987553298 0 -0.995111763
vn 0.996461272 0 -0.0840529427
vn 0.998835742 0 -0.0482406206
vn 0.995904505 0 -0.0904110521
vn 0.994490862 0 -0.104823269
vn -0.998835742 0 0.0482401997
vn -0.998835742 0 0.0482402034
vn -0.998835742 0 0.0482402071
vn -0.0165613517 0 -0.99986285
vn 2.54610324e-08 1 1.53729275e-06
vn 2.54626755e-08 1 1.5372932e-06
vn 2.54615014e-08 1 1.53729286e-06
vn 2.5463148e-08 1 1.53729331e-06
vn -0.0133337518 0 0.999911129
vn -0.0133337528 0 0.999911129
vn -0.999916255 0 -0.0129423169
vn 0.0133323837 0 -0.999911129
vn 0.0133323846 0 -0.999911129
vn 0.0133323828 0 -0.999911129
vn 0.999916196 0 0.012945096
vn 0.00733638182 0.824585915 0.565689206
vn 0.0294650812 0.839092791 0.543189704
vn 0.0274786465 0.83783102 0.54523766
vn 0.0480301492 0.850499034 0.523779035
vn -0.996461272 0 0.0840532035
vn -0.996461272 0 0.0840532184
vn 0.987431109 0 -0.158050045
vn -0.998989284 -0.0158979483 0.0420441143
vn -0.998989284 -0.0158979483 0.0420441106
vn -0.0363093019 0 0.999340594
vn 0.99985832 0 0.016832618
vn -0.99985832 0 -0.0168316085
vn -0.113772817 0 0.993506789
vn -0.138916478 0 0.990304112
vn -0.113772802 0 0.993506789
vn 0.999834716 0 0.0181803517
vn -0.163970888 0 0.986465156
vn -0.993779898 0 -0.111361831
vn -0.993779898 0 -0.111361839
vn -0.999436021 0 0.0335802957
vn -0.0373637266 0 -0.999301732
vn 0.99943608 0 -0.0335779153
vn 0.99943608 0 -0.033577919
vn -0.999840558 0 -0.0178575497
vn -0.00483011361 0 -0.999988317

# Mesh '' with 40 faces
usemtl material0
f  1/1/1 2/2/1 3/3/1
f  4/4/1 3/3/1 2/2/1
f  2/5/2 5/6/2 4/7/2
f  6/8/2 4/7/2 5/6/2
f  7/9/3 1/10/3 8/11/3
f  3/7/3 8/11/3 1/10/3
f  2/12/4 1/13/4 5/14/4
f  7/15/4 5/14/4 1/13/4
f  9/5/5 10/6/5 11/7/5
f  12/8/5 11/7/5 10/6/5
f  10/16/6 13/17/6 12/4/6
f  14/18/6 12/4/6 13/17/6
f  13/9/7 15/10/7 14/11/7
f  16/7/7 14/11/7 15/10/7
f  9/12/4 15/13/4 10/14/4
f  13/15/4 10/14/4 15/13/4
f  17/5/8 18/6/8 19/7/8
f  20/8/8 19/7/8 18/6/8
f  18/16/9 21/17/9 20/4/9
f  22/18/9 20/4/9 21/17/9
f  21/9/10 23/10/10 22/11/10
f  24/7/10 22/11/10 23/10/10
f  17/12/4 23/13/4 18/14/4
f  21/15/4 18/14/4 23/13/4
f  25/5/11 26/6/11 27/7/11
f  28/8/11 27/7/11 26/6/11
f  26/16/12 29/17/12 28/4/12
f  30/18/12 28/4/12 29/17/12
f  29/9/13 31/10/13 30/11/13
f  32/7/13 30/11/13 31/10/13
f  25/12/4 31/13/4 26/14/4
f  29/15/4 26/14/4 31/13/4
f  33/1/14 34/2/14 35/3/14
f  36/4/14 35/3/14 34/2/14
f  34/5/15 37/6/15 36/7/15
f  38/8/15 36/7/15 37/6/15
f  39/9/16 33/10/16 40/11/16
f  35/7/16 40/11/16 33/10/16
f  34/12/4 33/13/4 37/14/4
f  39/15/4 37/14/4 33/13/4

# Mesh '' with 74 faces
usemtl material0
f  41/19/17 42/20/18 43/21/19
f  44/22/20 43/21/19 42/20/18
f  42/23/18 45/24/21 44/25/20
f  46/26/22 44/25/20 45/24/21
f  47/27/23 41/28/17 48/29/24
f  43/30/19 48/29/24 41/28/17
f  45/31/21 49/32/25 46/33/22
f  50/34/26 46/33/22 49/32/25
f  51/35/27 52/36/28 53/37/29
f  54/38/30 53/37/29 52/36/28
f  51/39/4 55/40/4 52/41/4
f  56/42/4 52/41/4 55/40/4
f  57/43/4 58/44/4 59/45/4
f  60/40/4 59/45/4 58/44/4
f  61/39/31 62/41/32 63/39/33
f  64/41/34 63/39/33 62/41/32
f  62/41/35 65/42/36 64/41/37
f  66/42/38 64/41/37 65/42/36
f  65/42/39 67/40/40 66/42/41
f  68/40/42 66/42/41 67/40/40
f  67/40/43 61/39/44 68/40/45
f  63/39/46 68/40/45 61/39/44
f  62/43/4 61/44/4 65/45/4
f  67/40/4 65/45/4 61/44/4
f  69/43/47 70/43/47 71/44/48
f  72/44/47 71/44/48 70/43/47
f  73/45/49 74/45/50 69/43/50
f  70/43/49 69/43/50 74/45/50
f  75/40/51 76/40/51 73/45/52
f  74/45/51 73/45/52 76/40/51
f  71/44/53 72/44/54 75/40/53
f  76/40/53 75/40/53 72/44/54
f  75/45/4 73/45/4 71/43/4
f  69/43/4 71/43/4 73/45/4
f  77/46/55 78/46/56 79/47/56
f  80/47/55 79/47/56 78/46/56
f  81/48/57 82/48/58 83/49/58
f  84/49/57 83/49/58 82/48/58
f  79/47/59 80/47/60 81/48/59
f  82/48/59 81/48/59 80/47/60
f  82/48/61 80/47/61 84/49/61
f  78/46/61 84/49/61 80/47/61
f  77/47/4 79/47/4 83/48/4
f  81/48/4 83/48/4 79/47/4
f  85/50/62 86/51/62 87/52/62
f  88/53/62 87/52/62 86/51/62
f  89/54/63 85/55/63 90/56/63
f  87/57/63 90/56/63 85/55/63
f  91/58/64 89/59/64 92/60/64
f  90/61/64 92/60/64 89/59/64
f  91/62/4 86/63/4 89/64/4
f  85/65/4 89/64/4 86/63/4
f  86/58/65 91/58/65 88/60/65
f  92/60/65 88/60/65 91/58/65
f  42/66/18 93/67/66 45/68/21
f  94/69/67 93/67/66 42/66/18
f  93/70/66 94/71/67 95/72/68
f  96/73/69 95/72/68 94/71/67
f  95/74/68 49/75/25 93/70/66
f  45/76/21 93/70/66 49/75/25
f  42/77/18 97/78/70 94/79/67
f  41/80/17 97/78/70 42/77/18
f  97/81/70 41/82/17 98/83/71
f  47/84/23 98/83/71 41/82/17
f  97/81/70 98/83/71 94/85/67
f  96/86/69 94/85/67 98/83/71
f  48/87/24 99/88/72 47/89/23
f  49/90/25 99/88/72 50/91/26
f  49/92/25 95/93/68 99/94/72
f  96/95/69 99/94/72 95/93/68
f  98/96/71 47/97/23 96/95/69
f  99/94/72 96/95/69 47/97/23
f  99/88/72 100/98/73 50/91/26
f  48/87/24 100/98/73 99/88/72

# Mesh '' with 32 faces
usemtl material0
f  101/1/74 102/2/75 103/3/75
f  104/4/74 103/3/75 102/2/75
f  105/16/76 106/17/77 107/4/76
f  108/18/76 107/4/76 106/17/77
f  106/9/78 101/10/78 108/11/78
f  103/7/78 108/11/78 101/10/78
f  102/12/4 101/13/4 105/14/4
f  106/15/4 105/14/4 101/13/4
f  109/1/79 110/2/80 111/3/79
f  112/4/81 111/3/79 110/2/80
f  113/16/82 114/17/83 115/4/83
f  116/18/84 115/4/83 114/17/83
f  114/9/85 109/10/85 116/11/85
f  111/7/85 116/11/85 109/10/85
f  110/12/86 109/13/87 113/14/88
f  114/15/89 113/14/88 109/13/87
f  117/1/90 118/2/91 119/3/90
f  120/4/90 119/3/90 118/2/91
f  118/5/92 121/6/92 120/7/92
f  122/8/92 120/7/92 121/6/92
f  121/16/93 123/17/94 122/4/95
f  124/18/93 122/4/95 123/17/94
f  123/9/96 117/10/96 124/11/96
f  119/7/96 124/11/96 117/10/96
f  118/12/4 117/13/4 121/14/4
f  123/15/4 121/14/4 117/13/4
f  110/43/97 125/43/98 126/44/99
f  127/44/100 126/44/99 125/43/98
f  102/16/101 105/16/101 104/4/102
f  107/4/101 104/4/102 105/16/101
f  110/45/80 126/40/103 112/45/81
f  115/43/104 127/44/105 125/43/104

# Mesh '' with 20 faces
usemtl material0
f  128/1/106 129/2/106 130/3/106
f  131/4/106 130/3/106 129/2/106
f  132/9/107 128/10/107 133/11/107
f  130/7/107 133/11/107 128/10/107
f  129/12/4 128/13/4 134/14/4
f  132/15/4 134/14/4 128/13/4
f  129/16/108 134/16/108 131/4/108
f  135/4/108 131/4/108 134/16/108
f  136/1/109 137/2/110 138/3/111
f  139/4/110 138/3/111 137/2/110
f  140/9/112 136/10/112 141/11/112
f  138/7/112 141/11/112 136/10/112
f  137/12/4 136/13/4 142/14/4
f  140/15/4 142/14/4 136/13/4
f  137/1/110 143/2/113 139/3/110
f  144/4/113 139/3/110 143/2/113
f  143/12/4 137/13/4 145/14/4
f  142/15/4 145/14/4 137/13/4
f  143/16/114 145/16/115 144/4/115
f  146/4/114 144/4/115 145/16/115

# Mesh '' with 14 faces
usemtl material0
f  147/5/116 148/6/116 149/7/116
f  150/8/116 149/7/116 148/6/116
f  148/16/117 151/17/117 150/4/117
f  152/18/117 150/4/117 151/17/117
f  151/9/118 153/10/119 152/11/119
f  154/7/118 152/11/119 153/10/119
f  147/12/4 153/13/4 148/14/4
f  151/15/4 148/14/4 153/13/4
f  155/1/120 156/2/120 157/3/120
f  158/4/120 157/3/120 156/2/120
f  156/5/121 159/6/121 158/7/121
f  160/8/121 158/7/121 159/6/121
f  156/12/4 155/13/4 159/14/4
f  161/15/4 159/14/4 155/13/4

