# File produced by Open Asset Import Library (http://www.assimp.sf.net)
# (assimp v5.2.3369795085)

mtllib 30.X.mtl

# 34 vertex positions
v  5.40490007 10.5206003 5.40490007
v  0 13.0040998 0
v  0 10.5206003 7.64359999
v  7.64359999 10.5206003 0
v  5.40490007 10.5206003 -5.40490007
v  0 10.5206003 -7.64359999
v  -5.40490007 10.5206003 -5.40490007
v  -7.64359999 10.5206003 0
v  -5.40490007 10.5206003 5.40490007
v  8.74530029 4.01849985 8.74530029
v  0 4.01849985 12.3676996
v  12.3676996 4.01849985 0
v  8.74530029 4.01849985 -8.74530029
v  0 4.01849985 -12.3676996
v  -8.74530029 4.01849985 -8.74520016
v  -12.3676996 4.01849985 0
v  -8.74530029 4.01849985 8.74520016
v  8.74530029 -4.01849985 8.74530029
v  0 -4.01849985 12.3676996
v  12.3676996 -4.01849985 0
v  8.74530029 -4.01849985 -8.74530029
v  0 -4.01849985 -12.3676996
v  -8.74530029 -4.01849985 -8.74520016
v  -12.3676996 -4.01849985 0
v  -8.74530029 -4.01849985 8.74520016
v  5.40490007 -10.5206003 5.40490007
v  0 -10.5206003 7.64359999
v  7.64359999 -10.5206003 0
v  5.40490007 -10.5206003 -5.40490007
v  0 -10.5206003 -7.64359999
v  -5.40490007 -10.5206003 -5.40490007
v  -7.64359999 -10.5206003 0
v  -5.40490007 -10.5206003 5.40490007
v  0 -13.0040998 0

# 52 UV coordinates
vt 0.125 0.800000012 0
vt 0.0625 1 0
vt 0 0.800000012 0
vt 0.25 0.800000012 0
vt 0.1875 1 0
vt 0.375 0.800000012 0
vt 0.3125 1 0
vt 0.5 0.800000012 0
vt 0.4375 1 0
vt 0.625 0.800000012 0
vt 0.5625 1 0
vt 0.75 0.800000012 0
vt 0.6875 1 0
vt 0.875 0.800000012 0
vt 0.8125 1 0
vt 1 0.800000012 0
vt 0.9375 1 0
vt 0.125 0.600000024 0
vt 0 0.600000024 0
vt 0.25 0.600000024 0
vt 0.375 0.600000024 0
vt 0.5 0.600000024 0
vt 0.625 0.600000024 0
vt 0.75 0.600000024 0
vt 0.875 0.600000024 0
vt 1 0.600000024 0
vt 0.125 0.399999976 0
vt 0 0.399999976 0
vt 0.25 0.399999976 0
vt 0.375 0.399999976 0
vt 0.5 0.399999976 0
vt 0.625 0.399999976 0
vt 0.75 0.399999976 0
vt 0.875 0.399999976 0
vt 1 0.399999976 0
vt 0.125 0.199999988 0
vt 0 0.199999988 0
vt 0.25 0.199999988 0
vt 0.375 0.199999988 0
vt 0.5 0.199999988 0
vt 0.625 0.199999988 0
vt 0.75 0.199999988 0
vt 0.875 0.199999988 0
vt 1 0.199999988 0
vt 0.0625 0 0
vt 0.1875 0 0
vt 0.3125 0 0
vt 0.4375 0 0
vt 0.5625 0 0
vt 0.6875 0 0
vt 0.8125 0 0
vt 0.9375 0 0

# 34 vertex normals
vn 0.448019356 0.773663282 0.448022068
vn -2.5402711e-09 1 -4.03831768e-09
vn 1.94285462e-06 0.77366519 0.633594632
vn 0.633594632 0.77366519 -1.94558811e-06
vn 0.448022068 0.773663282 -0.448019356
vn -3.68169958e-06 0.773664474 -0.633595526
vn -0.448019773 0.773661077 -0.448025435
vn -0.633595049 0.773664892 2.66499751e-06
vn -0.448023856 0.773661494 0.448020607
vn 0.676956773 0.288890123 0.676957905
vn -3.10819746e-06 0.288890213 0.957362235
vn 0.957361937 0.288891166 -7.10301208e-07
vn 0.676957905 0.288890123 -0.676956773
vn -5.16317004e-06 0.288890988 -0.957361996
vn -0.676959157 0.288888186 -0.676956356
vn -0.957362115 0.28889066 9.69546477e-07
vn -0.676960886 0.288887739 0.676954865
vn 0.676957846 -0.288890123 0.676956832
vn -5.16792943e-06 -0.288890958 0.957361996
vn 0.957361937 -0.288891166 7.06945173e-07
vn 0.676956832 -0.288890123 -0.676957846
vn -3.10357996e-06 -0.288890213 -0.957362235
vn -0.676960886 -0.288887769 -0.676954865
vn -0.957362115 -0.28889066 -9.82821689e-07
vn -0.676959157 -0.288888186 0.676956356
vn 0.448022097 -0.773663282 0.448019326
vn -3.68221572e-06 -0.773664474 0.633595526
vn 0.633594632 -0.77366519 1.94330573e-06
vn 0.448019326 -0.773663282 -0.448022097
vn 1.94330573e-06 -0.77366519 -0.633594632
vn -0.448023885 -0.773661494 -0.448020607
vn -0.633595049 -0.773664892 -2.66778466e-06
vn -0.448019773 -0.773661077 0.448025435
vn -2.5402711e-09 -1 -4.03831768e-09

# Mesh 'obj4' with 64 faces
g obj4
usemtl mat000
f  1/1/1 2/2/2 3/3/3
f  4/4/4 2/5/2 1/1/1
f  5/6/5 2/7/2 4/4/4
f  6/8/6 2/9/2 5/6/5
f  7/10/7 2/11/2 6/8/6
f  8/12/8 2/13/2 7/10/7
f  9/14/9 2/15/2 8/12/8
f  3/16/3 2/17/2 9/14/9
f  1/1/1 3/3/3 10/18/10
f  11/19/11 10/18/10 3/3/3
f  4/4/4 1/1/1 12/20/12
f  10/18/10 12/20/12 1/1/1
f  5/6/5 4/4/4 13/21/13
f  12/20/12 13/21/13 4/4/4
f  6/8/6 5/6/5 14/22/14
f  13/21/13 14/22/14 5/6/5
f  7/10/7 6/8/6 15/23/15
f  14/22/14 15/23/15 6/8/6
f  8/12/8 7/10/7 16/24/16
f  15/23/15 16/24/16 7/10/7
f  9/14/9 8/12/8 17/25/17
f  16/24/16 17/25/17 8/12/8
f  3/16/3 9/14/9 11/26/11
f  17/25/17 11/26/11 9/14/9
f  10/18/10 11/19/11 18/27/18
f  19/28/19 18/27/18 11/19/11
f  12/20/12 10/18/10 20/29/20
f  18/27/18 20/29/20 10/18/10
f  13/21/13 12/20/12 21/30/21
f  20/29/20 21/30/21 12/20/12
f  14/22/14 13/21/13 22/31/22
f  21/30/21 22/31/22 13/21/13
f  15/23/15 14/22/14 23/32/23
f  22/31/22 23/32/23 14/22/14
f  16/24/16 15/23/15 24/33/24
f  23/32/23 24/33/24 15/23/15
f  17/25/17 16/24/16 25/34/25
f  24/33/24 25/34/25 16/24/16
f  11/26/11 17/25/17 19/35/19
f  25/34/25 19/35/19 17/25/17
f  18/27/18 19/28/19 26/36/26
f  27/37/27 26/36/26 19/28/19
f  20/29/20 18/27/18 28/38/28
f  26/36/26 28/38/28 18/27/18
f  21/30/21 20/29/20 29/39/29
f  28/38/28 29/39/29 20/29/20
f  22/31/22 21/30/21 30/40/30
f  29/39/29 30/40/30 21/30/21
f  23/32/23 22/31/22 31/41/31
f  30/40/30 31/41/31 22/31/22
f  24/33/24 23/32/23 32/42/32
f  31/41/31 32/42/32 23/32/23
f  25/34/25 24/33/24 33/43/33
f  32/42/32 33/43/33 24/33/24
f  19/35/19 25/34/25 27/44/27
f  33/43/33 27/44/27 25/34/25
f  26/36/26 27/37/27 34/45/34
f  28/38/28 26/36/26 34/46/34
f  29/39/29 28/38/28 34/47/34
f  30/40/30 29/39/29 34/48/34
f  31/41/31 30/40/30 34/49/34
f  32/42/32 31/41/31 34/50/34
f  33/43/33 32/42/32 34/51/34
f  27/44/27 33/43/33 34/52/34

