# File produced by Open Asset Import Library (http://www.assimp.sf.net)
# (assimp v5.2.3369795085)

mtllib 05.X.mtl

# 36 vertex positions
v  5.65397644 -6.40980721 0.884408832
v  6.06002903 3.17219448 5.44522333
v  1.54339528 -7.58782768 3.72532701
v  1.94944787 1.99417448 8.2861414
v  -5.57463312 -3.24177504 -4.77174711
v  -5.16858053 6.34022617 -0.210932612
v  -1.4640522 -2.06375504 -7.61266565
v  -1.05799961 7.51824665 -3.0518508
v  5.95785046 2.87273788 5.17320585
v  12.3068924 -1.00379443 12.7523117
v  1.8472693 1.69471788 8.01412392
v  8.19631195 -2.18181443 15.5932293
v  2.07065034 6.96604443 10.5231552
v  8.41969299 3.08951211 18.1022606
v  6.1812315 8.1440649 7.68223715
v  12.5302734 4.26753235 15.261342
v  7.42483521 -6.39018774 5.11761475
v  7.6853323 -0.24299258 8.04353905
v  4.78777599 -7.14592218 6.9401474
v  5.04827309 -0.998727143 9.8660717
v  2.19872165 -5.56512356 3.84948969
v  2.45921874 0.582071245 6.77541447
v  4.83578014 -4.80938911 2.02695704
v  5.09627724 1.33780575 4.95288181
v  8.7456789 1.37658644 1.64765739
v  8.74567699 -11.5444317 14.9602318
v  8.74567986 1.3765893 14.9602299
v  8.74567604 -11.5444336 1.6476593
v  2.33593464 -11.7402086 8.30394363
v  15.2569513 1.57236385 8.30394363
v  2.33593273 1.57236195 8.30394554
v  15.2569532 -11.7402067 8.30394173
v  2.28516769 -5.08392334 1.64765978
v  15.2061882 -5.08392143 14.9602299
v  2.28516769 -5.08392239 14.9602299
v  15.2061882 -5.08392239 1.64765882

# 32 UV coordinates
vt 0.298370004 1 0
vt 0 1 0
vt 0.298370004 0.581900001 0
vt 0 0.581900001 0
vt 0.834770024 1 0
vt 0.313699991 1 0
vt 0.834770024 0 0
vt 0.313699991 0 0
vt 0.851530015 1 0
vt 0.851530015 0 0
vt 0.291189998 1 0
vt 0.00479000015 1 0
vt 0.291189998 0.651340008 0
vt 0.00479000015 0.651340008 0
vt 0.315780014 0.970489979 0
vt 0.315780014 0.0152599812 0
vt 0.847150028 0.970489979 0
vt 0.847150028 0.0152599812 0
vt 0.288060009 0.990840018 0
vt 0.00858999975 0.990840018 0
vt 0.288060009 0.656180024 0
vt 0.00858999975 0.656180024 0
vt 0.298370004 0.32950002 0
vt 0 0.32950002 0
vt 0.298370004 0 0
vt 0 0 0
vt 0.290639997 0.994279981 0
vt 0.00858999975 0.994279981 0
vt 0.290639997 0.655330002 0
vt 0.00858999975 0.655330002 0
vt 1 1 0
vt 1 0 0

# 9 vertex normals
vn 0.300902456 -0.183721915 0.359199256
vn -0.402998149 -0.115492165 0.278521419
vn -0.300902456 0.183721915 -0.359199256
vn 0.402998149 0.115492165 -0.278521419
vn -0.0192441978 -0.454123318 -0.216152355
vn 0.0192441978 0.454123318 0.216152355
vn -3.62052727 -1.1920929e-07 2.38418579e-07
vn 5.96046448e-07 -1.1920929e-07 3.62052774
vn 5.36441803e-07 -3.62052727 -8.34465027e-07

# Mesh '' with 34 faces
usemtl mat1
f  1/1/1 2/2/1 3/3/1
f  4/4/1 3/3/1 2/2/1
f  3/5/2 4/6/2 5/7/2
f  6/8/2 5/7/2 4/6/2
f  5/9/3 6/6/3 7/10/3
f  8/8/3 7/10/3 6/6/3
f  7/8/4 8/10/4 1/6/4
f  2/9/4 1/6/4 8/10/4
f  7/6/5 1/8/5 5/9/5
f  3/10/5 5/9/5 1/8/5
f  2/6/6 8/8/6 4/9/6
f  6/10/6 4/9/6 8/8/6
f  9/11/5 10/12/5 11/13/5
f  12/14/5 11/13/5 10/12/5
f  11/6/2 12/8/2 13/9/2
f  14/10/2 13/9/2 12/8/2
f  13/15/6 14/16/6 15/17/6
f  16/18/6 15/17/6 14/16/6
f  15/6/4 16/8/4 9/9/4
f  10/10/4 9/9/4 16/8/4
f  15/9/3 9/6/3 13/10/3
f  11/8/3 13/10/3 9/6/3
f  10/8/1 16/10/1 12/6/1
f  14/9/1 12/6/1 16/10/1
f  17/19/1 18/20/1 19/21/1
f  20/22/1 19/21/1 18/20/1
f  19/23/2 20/24/2 21/25/2
f  22/26/2 21/25/2 20/24/2
f  23/23/4 24/24/4 17/25/4
f  18/26/4 17/25/4 24/24/4
f  23/19/5 17/20/5 21/21/5
f  19/22/5 21/21/5 17/20/5
f  18/27/6 24/28/6 20/29/6
f  22/30/6 20/29/6 24/28/6

# Mesh '' with 2 faces
usemtl eye
f  25/26/7 26/31/7 27/2/7
f  26/31/7 25/26/7 28/32/7

# Mesh '' with 2 faces
usemtl eye
f  29/26/8 30/31/8 31/2/8
f  30/31/8 29/26/8 32/32/8

# Mesh '' with 2 faces
usemtl eye
f  33/26/9 34/31/9 35/2/9
f  34/31/9 33/26/9 36/32/9

