# File produced by Open Asset Import Library (http://www.assimp.sf.net)
# (assimp v5.2.3369795085)

mtllib 03.X.mtl

# 57 vertex positions
v  -67.1116028 4.10879993 -1.83440006
v  -67.1116028 4.10879993 12.4298
v  -67.1116028 -4.10879993 -1.83440006
v  -67.1116028 -4.10879993 12.4298
v  -24.0785007 4.10879993 -1.83440006
v  -24.0785999 4.10879993 12.4298
v  -24.0785999 -4.10879993 12.4298
v  -24.0785007 -4.10879993 -1.83440006
v  41.3205986 0.678799987 12.4298
v  40.7420006 0 -4.70510006
v  54.2108002 0.678799987 12.4298
v  26.5051003 0 -12.1239004
v  -24.0785007 0 -12.4366999
v  41.3205986 -0.678799987 12.4298
v  54.2108002 -0.678799987 12.4298
v  -24.0785999 0.69749999 12.4336004
v  -24.0785999 -0.710300028 12.4327002
v  -24.0785007 -0.370900005 -1.83440006
v  -24.0785007 0.359299988 -1.83440006
v  -64.218399 -3.33229995 10.0804005
v  -64.218399 3.33229995 10.0804005
v  -64.218399 -3.33229995 0.366899997
v  -64.218399 3.33229995 0.366899997
v  -21.7408009 3.33229995 10.0804005
v  -21.7408009 3.33229995 0.366899997
v  -21.7408009 -3.33229995 0.366899997
v  -21.7408009 -3.33229995 10.0804005
v  49.4878998 0.550599992 10.0804005
v  37.0522003 0 -3.81620002
v  37.5863991 0.550599992 10.0804005
v  -21.7408009 0 -10.0866003
v  23.9073009 0 -9.83290005
v  49.4878998 -0.550599992 10.0804005
v  37.5863991 -0.550599992 10.0804005
v  -21.7408009 -0.576099992 10.0826998
v  -21.7408009 0.565699995 10.0834999
v  -21.7408009 -0.300799996 0.366899997
v  -21.7408009 0.291399986 0.366899997
v  -70.2752991 4.94150019 -4.51779985
v  -70.2752991 4.94150019 14.8747997
v  -70.2752991 -4.94150019 -4.51779985
v  -70.2752991 -4.94150019 14.8747997
v  -25.4479008 4.94150019 -4.51779985
v  -25.448 4.94150019 14.8747997
v  -25.448 -4.94150019 14.8747997
v  -25.4479008 -4.94150019 -4.51779985
v  45.031601 0.816399992 14.8747997
v  44.4080009 0 -5.63019991
v  58.9230995 0.816399992 14.8747997
v  29.0652008 0 -14.5080996
v  -25.4479008 0 -14.8824997
v  45.031601 -0.816399992 14.8747997
v  58.9230995 -0.816399992 14.8747997
v  -25.448 0.83890003 14.8794003
v  -25.448 -0.854300022 14.8782997
v  -25.4479008 -0.446099997 -4.51779985
v  -25.4479008 0.432099998 -4.51779985

# 3 UV coordinates
vt 1.04495001 0.467679977 0
vt 0.569689989 0.0590800047 0
vt 1.04495001 0.558990002 0

# 88 vertex normals
vn 1 0 0
vn 0 -1 0
vn 0 1 0
vn -0.00161039003 -0.9992553 0.0385513566
vn -0.00241317996 -0.999417305 0.0340477899
vn 0 -0.999216259 0.0395840071
vn -0.00374941435 -0.999498785 0.031434495
vn -0.0161078796 0.999064922 0.0401219316
vn -0.00360923889 0.999349117 0.0358938649
vn 0 0.999216259 0.0395840071
vn -0.00229263911 0.999442339 0.0333122052
vn -0.00444830023 0.999530435 0.0303166118
vn -2.21758692e-05 0 -1
vn -2.2267508e-05 4.38017423e-06 -1
vn 0 0 -1
vn -1.05080589e-05 5.85433736e-05 -1
vn -1.33323747e-05 0.000704389066 -0.999999762
vn -0.78619206 0 0.617982209
vn 0 -0.00111405912 -0.999999404
vn 8.38659471e-05 -5.6104258e-05 -1
vn 8.24086092e-05 5.60115404e-05 -1
vn 0 0.000853353704 -0.999999642
vn -0.00186723238 0.999544024 0.0301366281
vn -0.000480467017 0.999717057 0.0237822644
vn -0.000284478941 -0.999719143 0.0236967318
vn -0.00239749625 -0.999548197 0.0299609825
vn 0 0 1
vn -1 -7.74630315e-09 -6.95322069e-06
vn -1 -1.15732202e-09 -6.95164499e-06
vn -1 -6.49017196e-09 -6.95292101e-06
vn -1 0 -6.9513685e-06
vn -1 0 -6.95322069e-06
vn -1 4.96487695e-09 -6.9519192e-06
vn -1 8.91555774e-10 -6.95298741e-06
vn -1 5.93223204e-09 -6.95166591e-06
vn -1 0 0
vn 0 0.99921602 -0.0395901352
vn 0.0013932914 0.999414325 -0.0341922268
vn 0.000941891631 0.999237299 -0.0390380695
vn 0.00278073875 0.9996562 -0.0260729734
vn 0 -0.99921602 -0.0395901352
vn 0.00338753173 -0.999340713 -0.0361470468
vn 0.0137720807 -0.999100149 -0.0401149616
vn 0.00378799834 -0.999535501 -0.0302391201
vn 0.000429220352 -0.999592185 -0.0285535734
vn 1.94612712e-05 -4.29193051e-06 1
vn 1.93808501e-05 0 1
vn 1.4293284e-05 -0.000740661926 0.999999702
vn 1.2210261e-05 -9.5561998e-05 1
vn 0.74519074 0 -0.666851401
vn -6.99453449e-05 4.63858487e-05 1
vn 0 0.00112030644 0.999999344
vn -6.88630753e-05 -4.63286997e-05 1
vn 0 -0.000834231207 0.999999642
vn 0.000468251208 -0.999591768 -0.028566232
vn 0.00042854948 -0.999598682 -0.0283239186
vn 0.00169033115 0.99958086 -0.0289012585
vn 0.000252945145 0.999601722 -0.0282188002
vn -0.00227183383 -0.999265909 0.038242925
vn -0.00354274339 -0.999408007 0.0342209637
vn 0 -0.999208331 0.0397831611
vn -0.00507691409 -0.9992522 0.0383312739
vn -0.0183682013 0.999017417 0.0403341725
vn -0.00384641206 0.999349117 0.035868939
vn 0 0.999208331 0.0397831611
vn -0.00497751404 0.999218881 0.0392029844
vn -0.00505207852 0.999521494 0.0305168256
vn -2.48340202e-05 0 -1
vn -2.49500936e-05 4.96919256e-06 -1
vn -1.11454356e-05 6.35183387e-05 -1
vn -1.49730822e-05 0.000711590576 -0.999999762
vn -0.816198587 0 0.577771425
vn 0 -0.00112136744 -0.999999344
vn 9.66649459e-05 -6.51528389e-05 -1
vn 9.46962755e-05 6.50078364e-05 -1
vn 0 0.000856327824 -0.999999642
vn -0.00407649484 0.999416947 0.033899188
vn -0.000536580686 0.99977845 0.0210408047
vn -0.000317803031 -0.999780118 0.0209674872
vn -0.00336438627 -0.999452114 0.0329257734
vn -1 -5.73516123e-09 -5.11443204e-06
vn -1 -7.61013363e-10 -5.11338021e-06
vn -1 -4.90803753e-09 -5.11425651e-06
vn -1 0 -5.11321878e-06
vn -1 0 -5.11443204e-06
vn -1 3.74412856e-09 -5.11356347e-06
vn -1 5.84148452e-10 -5.11429653e-06
vn -1 4.37876313e-09 -5.11341659e-06

# Mesh 'obj1' with 68 faces
g obj1
usemtl mat1
f  1/1/1 2/1/1 3/1/1
f  4/1/1 3/1/1 2/1/1
f  5/1/2 6/1/2 1/1/2
f  2/1/2 1/1/2 6/1/2
f  7/1/3 8/1/3 4/1/3
f  3/1/3 4/1/3 8/1/3
f  9/1/4 10/1/5 11/1/6
f  12/1/2 10/1/5 13/1/7
f  10/1/8 14/1/9 15/1/10
f  13/1/11 14/1/9 12/1/12
f  10/1/8 12/1/12 14/1/9
f  14/1/13 9/1/14 15/1/15
f  11/1/15 15/1/15 9/1/14
f  16/1/16 9/1/14 17/1/17
f  14/1/13 17/1/17 9/1/14
f  11/1/18 10/1/18 15/1/18
f  6/1/19 16/1/16 2/1/20
f  2/1/20 16/1/16 4/1/21
f  16/1/16 17/1/17 4/1/21
f  4/1/21 17/1/17 7/1/22
f  13/1/11 18/1/23 14/1/9
f  14/1/9 18/1/23 17/1/24
f  16/1/25 19/1/26 9/1/4
f  10/1/5 19/1/26 13/1/7
f  9/1/4 19/1/26 10/1/5
f  1/1/27 19/1/27 5/1/27
f  3/1/27 19/1/27 1/1/27
f  8/1/27 18/1/27 3/1/27
f  3/1/27 18/1/27 19/1/27
f  6/1/28 5/1/29 16/1/30
f  19/1/31 16/1/30 5/1/29
f  8/1/32 7/1/33 18/1/34
f  17/1/35 18/1/34 7/1/33
f  18/1/1 13/1/1 19/1/1
f  20/2/36 21/2/36 22/2/36
f  23/2/36 22/2/36 21/2/36
f  21/2/3 24/2/3 23/2/3
f  25/2/3 23/2/3 24/2/3
f  22/2/2 26/2/2 20/2/2
f  27/2/2 20/2/2 26/2/2
f  28/2/37 29/2/38 30/2/39
f  31/2/40 29/2/38 32/2/3
f  33/2/41 34/2/42 29/2/43
f  29/2/43 34/2/42 32/2/44
f  31/2/45 32/2/44 34/2/42
f  28/2/27 30/2/46 33/2/27
f  34/2/47 33/2/27 30/2/46
f  34/2/47 30/2/46 35/2/48
f  36/2/49 35/2/48 30/2/46
f  33/2/50 29/2/50 28/2/50
f  21/2/51 36/2/49 24/2/52
f  20/2/53 36/2/49 21/2/51
f  20/2/53 35/2/48 36/2/49
f  27/2/54 35/2/48 20/2/53
f  34/2/42 37/2/55 31/2/45
f  35/2/56 37/2/55 34/2/42
f  30/2/39 38/2/57 36/2/58
f  31/2/40 38/2/57 29/2/38
f  29/2/38 38/2/57 30/2/39
f  25/2/15 38/2/15 23/2/15
f  23/2/15 38/2/15 22/2/15
f  22/2/15 37/2/15 26/2/15
f  38/2/15 37/2/15 22/2/15
f  38/2/1 25/2/1 36/2/1
f  24/2/1 36/2/1 25/2/1
f  35/2/1 27/2/1 37/2/1
f  26/2/1 37/2/1 27/2/1
f  38/2/36 31/2/36 37/2/36

# Mesh 'obj2' with 34 faces
g obj2
usemtl mat1
f  39/3/1 40/3/1 41/3/1
f  42/3/1 41/3/1 40/3/1
f  43/3/2 44/3/2 39/3/2
f  40/3/2 39/3/2 44/3/2
f  45/3/3 46/3/3 42/3/3
f  41/3/3 42/3/3 46/3/3
f  47/3/59 48/3/60 49/3/61
f  50/3/2 48/3/60 51/3/62
f  48/3/63 52/3/64 53/3/65
f  51/3/66 52/3/64 50/3/67
f  48/3/63 50/3/67 52/3/64
f  52/3/68 47/3/69 53/3/15
f  49/3/15 53/3/15 47/3/69
f  54/3/70 47/3/69 55/3/71
f  52/3/68 55/3/71 47/3/69
f  49/3/72 48/3/72 53/3/72
f  44/3/73 54/3/70 40/3/74
f  40/3/74 54/3/70 42/3/75
f  54/3/70 55/3/71 42/3/75
f  42/3/75 55/3/71 45/3/76
f  51/3/66 56/3/77 52/3/64
f  52/3/64 56/3/77 55/3/78
f  54/3/79 57/3/80 47/3/59
f  48/3/60 57/3/80 51/3/62
f  47/3/59 57/3/80 48/3/60
f  39/3/27 57/3/27 43/3/27
f  41/3/27 57/3/27 39/3/27
f  46/3/27 56/3/27 41/3/27
f  41/3/27 56/3/27 57/3/27
f  44/3/81 43/3/82 54/3/83
f  57/3/84 54/3/83 43/3/82
f  46/3/85 45/3/86 56/3/87
f  55/3/88 56/3/87 45/3/86
f  56/3/1 51/3/1 57/3/1

