# File produced by Open Asset Import Library (http://www.assimp.sf.net)
# (assimp v5.2.3369795085)

mtllib 09.X.mtl

# 37 vertex positions
v  92.0976486 19.577322 19.9632378
v  98.7175369 -24.0429535 19.7580452
v  93.3725128 19.2542248 13.1718073
v  -12.4864979 19.0083981 -6.6879878
v  -13.7662859 -7.22449398 -2.15715551
v  -13.7613621 19.3314953 0.103443712
v  22.0393181 16.7862282 6.94491291
v  23.3141823 16.463129 0.153481632
v  21.9387932 -13.6961002 4.85316133
v  57.7944336 17.1878681 13.6376333
v  59.0692978 16.8647709 6.8462019
v  57.6700058 -14.2760458 11.5880919
v  91.4159012 -12.362463 17.8317146
v  -10.4242353 5.46072245 -6.76087189
v  -10.8842716 18.311655 -7.45860243
v  -12.1672535 5.90246773 2.52450085
v  -12.6272898 18.7534008 1.82677019
v  -95.6320267 24.2148762 -23.6479988
v  -97.3814697 7.46421623 -23.1794968
v  -97.3750458 24.6566219 -14.362627
v  -99.1244888 7.90596151 -13.894124
v  -36.8438683 17.3927269 -12.2879305
v  -38.5868835 17.8344707 -3.00255871
v  -38.6499825 3.19598818 -2.31798697
v  -36.9069672 2.7542429 -11.6033592
v  -70.6654968 19.9334908 -9.12410355
v  -68.9224777 19.491745 -18.4094772
v  -72.1731567 4.641294 -8.67959976
v  -70.4301376 4.19954872 -17.9649754
v  115.443169 127.181213 15.6339302
v  -124.144356 116.191025 -28.8177891
v  124.156776 -116.228638 28.8496838
v  -115.430748 -127.218826 -15.6020336
v  163.571045 51.6498985 19.8707809
v  51.3234024 -164.644272 9.09008694
v  -48.2746429 163.837143 -25.2333069
v  -160.522278 -52.4570351 -36.0139999

# 51 UV coordinates
vt 0.95776999 0.959580004 0
vt 0.973129988 0.582669973 0
vt 0.99119997 0.959630013 0
vt 0.921999991 0.994040012 0
vt 0.96043998 0.579020023 0
vt 0.992370009 0.992959976 0
vt 0.275700003 0.918470025 0
vt 0.275700003 0.966639996 0
vt 0.00505999988 0.918470025 0
vt 0.00505999988 0.966639996 0
vt 0.30599001 0.589810014 0
vt 0.319319993 0.969299972 0
vt 0.00668000011 0.583979964 0
vt 0.00527000008 0.974080026 0
vt 0.707989991 0.918470025 0
vt 0.707989991 0.966639996 0
vt 0.78591001 0.586589992 0
vt 0.785080016 0.972570002 0
vt 0.979260027 0.918470025 0
vt 0.979260027 0.966639996 0
vt 0.921320021 0.58908999 0
vt 0.994700015 0.97112 0
vt 0.997099996 0.585049987 0
vt 1.00146997 0.412230015 0
vt 0.977760017 0.408829987 0
vt 0.999629974 0.340430021 0
vt 0.977320015 0.342890024 0
vt 0.0027999999 0.514500022 0
vt 0.0027999999 0.320460021 0
vt 0.0665099993 0.514500022 0
vt 0.0665099993 0.320460021 0
vt 0.99891001 0.560180008 0
vt 0.687950015 0.560180008 0
vt 0.99891001 0.350419998 0
vt 0.687950015 0.350419998 0
vt 0.99879998 0.369189978 0
vt 0.687950015 0.369189978 0
vt 0.99879998 0.0968899727 0
vt 0.687950015 0.0947899818 0
vt 0.0684700012 0.350419998 0
vt 0.29497999 0.350419998 0
vt 0.0680600032 0.560180008 0
vt 0.29497999 0.560180008 0
vt 0.0684700012 0.0962100029 0
vt 0.29497999 0.0951399803 0
vt 0.0680600032 0.369189978 0
vt 0.29497999 0.369189978 0
vt 1 1 0
vt 0 1 0
vt 1 0 0
vt 0 0 0

# 31 vertex normals
vn 1.17515278 1.90470445 2.02100825
vn 0.822636545 -2.88643646 0.291742861
vn 1.8597666 1.73164737 -1.62358356
vn -1.2754401 1.63008451 -2.19304228
vn -1.80323565 -2.40753102 -0.213292435
vn -1.95145226 1.79789531 1.43274736
vn -0.355469435 2.07480502 2.15920925
vn 0.491844475 1.86649036 -2.31682134
vn -0.248804808 -3.00351477 0.101758227
vn -0.480024993 2.0898447 2.12025547
vn 0.356507182 1.87937915 -2.33113599
vn 0.0459872596 -3.0112524 0.153634608
vn -1.9866991 -2.25298858 -0.265380919
vn 2.13486743 -1.68577051 -1.30149007
vn 1.97734463 1.72497654 -1.48590815
vn 1.48986852 -1.52230406 2.13453484
vn 1.33502889 1.88776326 1.93582177
vn -1.1353308 1.88236594 -2.06423831
vn -1.57522047 -1.62188506 -1.99537647
vn -1.77277625 2.04391813 1.33154833
vn -2.21819377 -1.4589318 1.42985737
vn 0.447665274 1.99390817 -2.21749496
vn -0.350847185 2.19628048 2.0363245
vn -0.341001809 -2.07793021 2.15853715
vn 0.427484065 -2.27269292 -1.93532503
vn -0.139283687 2.1789341 2.07995319
vn 0.660346746 1.97627819 -2.17982244
vn -0.577180266 -2.04979587 2.13507795
vn 0.199344009 -2.24659586 -2.00160646
vn -0.648679256 0.164400116 3.45562935
vn 0.648678184 -0.164399654 -3.45562887

# Mesh '' with 50 faces
usemtl PDX__
f  1/1/1 2/2/2 3/3/3
f  4/4/4 5/5/5 6/6/6
f  7/7/7 8/8/8 6/9/6
f  4/10/4 6/9/6 8/8/8
f  9/11/9 7/12/7 5/13/5
f  6/14/6 5/13/5 7/12/7
f  8/12/8 9/11/9 4/14/4
f  5/13/5 4/14/4 9/11/9
f  10/15/10 11/16/11 7/7/7
f  8/8/8 7/7/7 11/16/11
f  12/17/12 10/18/10 9/11/9
f  7/12/7 9/11/9 10/18/10
f  11/18/11 12/17/12 8/12/8
f  9/11/9 8/12/8 12/17/12
f  1/19/1 3/20/3 10/15/10
f  11/16/11 10/15/10 3/20/3
f  13/21/13 1/22/1 12/17/12
f  10/18/10 12/17/12 1/22/1
f  3/22/3 13/21/13 11/18/11
f  12/17/12 11/18/11 13/21/13
f  1/22/1 13/21/13 2/23/2
f  2/23/2 13/21/13 3/22/3
f  14/24/14 15/25/15 16/26/16
f  17/27/17 16/26/16 15/25/15
f  18/28/18 19/29/19 20/30/20
f  21/31/21 20/30/20 19/29/19
f  15/32/15 22/33/22 17/34/17
f  23/35/23 17/34/17 22/33/22
f  17/36/17 23/37/23 16/38/16
f  24/39/24 16/38/16 23/37/23
f  16/32/16 24/33/24 14/34/14
f  25/35/25 14/34/14 24/33/24
f  14/36/14 25/37/25 15/38/15
f  22/39/22 15/38/15 25/37/25
f  20/40/20 26/41/26 18/42/18
f  27/43/27 18/42/18 26/41/26
f  27/43/27 26/41/26 22/33/22
f  23/35/23 22/33/22 26/41/26
f  21/44/21 28/45/28 20/46/20
f  26/47/26 20/46/20 28/45/28
f  26/47/26 28/45/28 23/37/23
f  24/39/24 23/37/23 28/45/28
f  19/40/19 29/41/29 21/42/21
f  28/43/28 21/42/21 29/41/29
f  28/43/28 29/41/29 24/33/24
f  25/35/25 24/33/24 29/41/29
f  18/44/18 27/45/27 19/46/19
f  29/47/29 19/46/19 27/45/27
f  29/47/29 27/45/27 25/37/25
f  22/39/22 25/37/25 27/45/27

# Mesh '' with 2 faces
usemtl mat1
f  30/48/30 31/49/30 32/50/30
f  33/51/30 32/50/30 31/49/30

# Mesh '' with 2 faces
usemtl mat1
f  34/48/31 35/49/31 36/50/31
f  37/51/31 36/50/31 35/49/31

