# File produced by Open Asset Import Library (http://www.assimp.sf.net)
# (assimp v5.2.3369795085)

mtllib 15.X.mtl

# 29 vertex positions
v  -0.742481232 2.61993861 -11.7855377
v  9.91930771 -10.0116882 4.69639683
v  -1.70755386 -0.603507578 -13.2253246
v  -52.8711624 3.67170167 11.4975929
v  -47.6886177 -1.23431647 23.6592693
v  -51.9060898 6.8951478 12.9373798
v  -34.103981 4.79763746 5.7008028
v  -35.0690536 1.57419121 4.26101494
v  -29.1873779 -4.30137968 18.1247406
v  -16.8833618 3.43262959 -2.78596115
v  -17.8484344 0.209183156 -4.22574997
v  -11.791975 -5.90877581 10.063488
v  4.16963577 -6.81662226 1.39711571
v  -49.5591888 -0.2562415 16.6132545
v  -52.2213745 2.94877267 11.2221899
v  -48.2397232 4.15091467 18.5817585
v  -50.9019051 7.3559289 13.1906948
v  -94.3395538 7.88378143 28.4048729
v  -92.0058899 3.80240059 35.9781876
v  -93.0200882 12.2909384 30.3733749
v  -90.6864319 8.20955658 37.9466934
v  -64.6051178 3.78428698 17.652298
v  -63.2856522 8.19144344 19.6208038
v  -60.5371857 4.56466484 25.8982964
v  -61.8566551 0.15750879 23.9297924
v  -79.2024536 10.0258512 26.182724
v  -80.5219269 5.61869478 24.2142181
v  -77.0287018 6.29616737 33.0758324
v  -78.348175 1.88901114 31.1073265

# 47 UV coordinates
vt 0.95776999 0.959580004 0
vt 0.973129988 0.582669973 0
vt 0.99119997 0.959630013 0
vt 0.921999991 0.994040012 0
vt 0.96043998 0.579020023 0
vt 0.992370009 0.992959976 0
vt 0.275700003 0.918470025 0
vt 0.275700003 0.966639996 0
vt 0.00505999988 0.918470025 0
vt 0.00505999988 0.966639996 0
vt 0.30599001 0.589810014 0
vt 0.319319993 0.969299972 0
vt 0.00668000011 0.583979964 0
vt 0.00527000008 0.974080026 0
vt 0.707989991 0.918470025 0
vt 0.707989991 0.966639996 0
vt 0.78591001 0.586589992 0
vt 0.785080016 0.972570002 0
vt 0.979260027 0.918470025 0
vt 0.979260027 0.966639996 0
vt 0.921320021 0.58908999 0
vt 0.994700015 0.97112 0
vt 0.997099996 0.585049987 0
vt 1.00146997 0.412230015 0
vt 0.977760017 0.408829987 0
vt 0.999629974 0.340430021 0
vt 0.977320015 0.342890024 0
vt 0.0027999999 0.514500022 0
vt 0.0027999999 0.320460021 0
vt 0.0665099993 0.514500022 0
vt 0.0665099993 0.320460021 0
vt 0.99891001 0.560180008 0
vt 0.687950015 0.560180008 0
vt 0.99891001 0.350419998 0
vt 0.687950015 0.350419998 0
vt 0.99879998 0.369189978 0
vt 0.687950015 0.369189978 0
vt 0.99879998 0.0968899727 0
vt 0.687950015 0.0947899818 0
vt 0.0684700012 0.350419998 0
vt 0.29497999 0.350419998 0
vt 0.0680600032 0.560180008 0
vt 0.29497999 0.560180008 0
vt 0.0684700012 0.0962100029 0
vt 0.29497999 0.0951399803 0
vt 0.0680600032 0.369189978 0
vt 0.29497999 0.369189978 0

# 29 vertex normals
vn 0.647882938 1.25369358 -0.744239092
vn 0.945922732 -0.749339402 1.04360569
vn 0.130125076 -0.476122648 -1.51715732
vn -1.36395872 -0.366633475 -0.742016435
vn -0.412795454 -0.51836288 1.45130694
vn -0.845863104 1.35246348 0.0273872614
vn -0.023743391 1.54879069 -0.382198006
vn -0.657503366 -0.575316489 -1.33495021
vn 0.45112896 -0.732034266 1.34387517
vn -0.0903181136 1.55110371 -0.362369001
vn -0.722691536 -0.56144309 -1.30686283
vn 0.594313323 -0.747707605 1.27793467
vn -0.533287346 -0.477049053 1.42598069
vn 0.937129855 -1.287359 -0.0994303226
vn 0.215155423 -0.432016641 -1.52067804
vn 1.42539454 0.343496203 0.629009008
vn 0.701388717 1.19205379 -0.79526943
vn -1.31737065 -0.259590328 -0.861707211
vn -0.868482232 -1.11709261 0.737044573
vn -0.834823728 1.35216665 -0.141798437
vn -0.381750822 0.508640885 1.46319604
vn -0.676554382 -0.492044091 -1.35851336
vn -0.0720795095 1.52696443 -0.45670104
vn 0.724754453 0.430441082 1.35456395
vn 0.143009871 -1.51264644 0.486662775
vn 0.0342797637 1.51535308 -0.497917354
vn -0.571041346 -0.506482482 -1.40099216
vn 0.610340118 0.456835806 1.40149128
vn 0.022510469 -1.5065763 0.524511814

# Mesh '' with 50 faces
usemtl PDX__
f  1/1/1 2/2/2 3/3/3
f  4/4/4 5/5/5 6/6/6
f  7/7/7 8/8/8 6/9/6
f  4/10/4 6/9/6 8/8/8
f  9/11/9 7/12/7 5/13/5
f  6/14/6 5/13/5 7/12/7
f  8/12/8 9/11/9 4/14/4
f  5/13/5 4/14/4 9/11/9
f  10/15/10 11/16/11 7/7/7
f  8/8/8 7/7/7 11/16/11
f  12/17/12 10/18/10 9/11/9
f  7/12/7 9/11/9 10/18/10
f  11/18/11 12/17/12 8/12/8
f  9/11/9 8/12/8 12/17/12
f  1/19/1 3/20/3 10/15/10
f  11/16/11 10/15/10 3/20/3
f  13/21/13 1/22/1 12/17/12
f  10/18/10 12/17/12 1/22/1
f  3/22/3 13/21/13 11/18/11
f  12/17/12 11/18/11 13/21/13
f  1/22/1 13/21/13 2/23/2
f  2/23/2 13/21/13 3/22/3
f  14/24/14 15/25/15 16/26/16
f  17/27/17 16/26/16 15/25/15
f  18/28/18 19/29/19 20/30/20
f  21/31/21 20/30/20 19/29/19
f  15/32/15 22/33/22 17/34/17
f  23/35/23 17/34/17 22/33/22
f  17/36/17 23/37/23 16/38/16
f  24/39/24 16/38/16 23/37/23
f  16/32/16 24/33/24 14/34/14
f  25/35/25 14/34/14 24/33/24
f  14/36/14 25/37/25 15/38/15
f  22/39/22 15/38/15 25/37/25
f  20/40/20 26/41/26 18/42/18
f  27/43/27 18/42/18 26/41/26
f  27/43/27 26/41/26 22/33/22
f  23/35/23 22/33/22 26/41/26
f  21/44/21 28/45/28 20/46/20
f  26/47/26 20/46/20 28/45/28
f  26/47/26 28/45/28 23/37/23
f  24/39/24 23/37/23 28/45/28
f  19/40/19 29/41/29 21/42/21
f  28/43/28 21/42/21 29/41/29
f  28/43/28 29/41/29 24/33/24
f  25/35/25 24/33/24 29/41/29
f  18/44/18 27/45/27 19/46/19
f  29/47/29 19/46/19 27/45/27
f  29/47/29 27/45/27 25/37/25
f  22/39/22 25/37/25 27/45/27

