# File produced by Open Asset Import Library (http://www.assimp.sf.net)
# (assimp v5.2.3369795085)

mtllib 84.X.mtl

# 16 vertex positions
v  8.6576004 19.0450878 10.7479
v  3.11630011 16.2891884 5.04589987
v  6.4769001 19.4491882 11.9816999
v  -8.36320019 19.4491882 -14.2482004
v  -6.18260002 19.0450878 -15.4820004
v  5.5935998 15.3795891 4.04180002
v  9.80350018 3.47128868 14.5422001
v  2.84610009 -15.9319115 11.9302998
v  0.665400028 -15.5278111 13.1639996
v  7.50409985 3.35488892 15.8359003
v  -2.84829998 -13.8598118 -1.80420005
v  -10.1892004 -15.9319115 -11.1094999
v  -12.3698997 -15.5278111 -9.87580013
v  -5.09439993 -13.6223116 -0.528299987
v  -9.49650002 -2.08421135 -18.0055008
v  -7.28420019 -2.18671131 -19.2800007

# 12 UV coordinates
vt 0.453429997 0.514429986 0
vt 0.542949975 0.514429986 0
vt 0.744340003 0.514429986 0
vt 0.539520025 0.514429986 0
vt 0.453429997 0.359499991 0
vt 0.453429997 0.135649979 0
vt 0.453429997 0.353789985 0
vt 0.619050026 0.135649979 0
vt 0.744340003 0.135649979 0
vt 0.619009972 0.135649979 0
vt 0.744340003 0.309700012 0
vt 0.744340003 0.312960029 0

# 40 vertex normals
vn -0.0213663038 0.90812552 -0.418152481
vn 0.214015245 0.942107558 -0.258129507
vn -0.0522148162 0.918064594 -0.392977089
vn 0.203459263 0.978299439 0.0391733907
vn 0.213557154 0.976327062 0.034334369
vn 0.224851146 0.930737376 -0.288391978
vn 0.5066728 0.238268152 0.828559577
vn 0.490566254 0.00555910915 0.87138617
vn 0.511326849 0.238755599 0.825554729
vn 0.435266942 -0.27161777 0.858351052
vn 0.438956857 -0.273219109 0.855960369
vn 0.915329516 -0.0304823965 -0.401550382
vn 0.896304131 -0.148499906 -0.417835772
vn 0.896527171 -0.0344420001 -0.441647828
vn -0.893726528 0.0346111096 0.447275102
vn -0.894561112 0.14848429 0.42155996
vn -0.906598806 0.042676691 0.419830114
vn 0.491770059 -0.0604727902 0.868622601
vn 0.877370596 -0.260344535 -0.403040439
vn 0.851097465 -0.309295595 -0.424227953
vn -0.206268966 -0.976628661 -0.0604113415
vn -0.0787620172 -0.994840086 0.0639510155
vn -0.213783264 -0.975129128 -0.0584802963
vn -0.0397179164 -0.968217611 0.246935517
vn -0.0331392139 -0.97030443 0.239606246
vn -0.0704735741 -0.995630324 0.0612675101
vn -0.850765407 0.311732382 0.423108906
vn -0.876552165 0.260160327 0.404935658
vn -0.861672282 -0.0428797528 0.505650282
vn -0.864363968 0.182486579 0.468586802
vn -0.461530089 0.176224947 -0.869445086
vn -0.500225723 -0.125059485 -0.856816411
vn -0.45983541 0.176070094 -0.870373905
vn -0.508850813 -0.363215148 -0.780477822
vn -0.506137431 -0.364037961 -0.78185755
vn 0.863407016 -0.180394858 -0.471153975
vn 0.859205961 0.0465624519 -0.509506702
vn -0.500394166 -0.069299832 -0.863019824
vn 0.747415066 -0.449020594 -0.489643991
vn -0.74553448 0.4542588 0.487675399

# Mesh 'obj3' with 28 faces
g obj3
usemtl mat000
f  1/1/1 2/2/2 3/1/3
f  4/3/4 2/2/2 5/3/5
f  2/2/2 6/4/6 5/3/5
f  1/1/1 6/4/6 2/2/2
f  3/1/7 7/5/8 1/1/9
f  8/6/10 7/5/8 9/6/11
f  1/1/12 7/5/13 6/4/14
f  2/2/15 10/7/16 3/1/17
f  7/5/8 10/7/18 9/6/11
f  3/1/7 10/7/18 7/5/8
f  8/6/19 11/8/20 7/5/13
f  9/6/21 11/8/22 8/6/23
f  12/9/24 11/8/22 13/9/25
f  11/8/22 14/10/26 13/9/25
f  9/6/21 14/10/26 11/8/22
f  10/7/16 14/10/27 9/6/28
f  4/3/29 15/11/30 2/2/15
f  5/3/31 15/11/32 4/3/33
f  13/9/34 15/11/32 12/9/35
f  6/4/14 16/12/36 5/3/37
f  15/11/32 16/12/38 12/9/35
f  5/3/31 16/12/38 15/11/32
f  7/5/13 16/12/36 6/4/14
f  12/9/39 16/12/36 11/8/20
f  11/8/20 16/12/36 7/5/13
f  13/9/40 14/10/27 15/11/30
f  14/10/27 10/7/16 15/11/30
f  15/11/30 10/7/16 2/2/15

