# File produced by Open Asset Import Library (http://www.assimp.sf.net)
# (assimp v5.2.3369795085)

mtllib 07.X.mtl

# 163 vertex positions and colors
v  -2043.14124 -33.3997002 -2956.90161 0.945544124 0.954338193 0.948141754
v  -3098.81543 -33.3983994 -2115.78076 0.945544124 0.954338193 0.948141754
v  978.50238 -33.3983994 -1899.51794 0.945544124 0.954338193 0.948141754
v  -768.740784 -33.3997002 -1079.47009 0.945544124 0.954338193 0.948141754
v  744.948425 -33.3997002 1515.23828 0.945544124 0.954338193 0.948141754
v  -2077.80273 -33.3997002 2278.23633 0.945544124 0.954338193 0.948141754
v  1803.72351 -33.3997002 3302.5249 0.945544124 0.954338193 0.948141754
v  -1890.78748 -33.3997002 3104.70898 0.945544124 0.954338193 0.948141754
v  -747.114624 -33.3997002 445.643005 0.945544124 0.954338193 0.948141754
v  -3241.94873 -33.3997002 1056.12537 0.945544124 0.954338193 0.948141754
v  -3594.01953 -33.3997002 -515.083496 0.945544124 0.954338193 0.948141754
v  -963.377625 -33.3997002 -228.475998 0.945544124 0.954338193 0.948141754
v  -2169.78247 -33.3997002 3812.04199 0.945544124 0.954338193 0.948141754
v  1334.74292 -33.3997002 4527.30957 0.945544124 0.954338193 0.948141754
v  -208.732605 -33.3997002 5893.05762 0.945544124 0.954338193 0.948141754
v  -3036.45874 -33.3997002 4748.19922 0.945544124 0.954338193 0.948141754
v  -3547.11084 -33.3997002 6364.01318 0.945544124 0.954338193 0.948141754
v  -237.355301 -33.3997002 6698.0957 0.945544124 0.954338193 0.948141754
v  -185.302795 -33.3997002 7581.46924 0.945544124 0.954338193 0.948141754
v  -3396.62891 -33.3997002 8037.7876 0.945544124 0.954338193 0.948141754
v  -2313.6377 -33.3997002 9579.02344 0.945544124 0.954338193 0.948141754
v  578.919983 -33.3997002 8749.27051 0.945544124 0.954338193 0.948141754
v  1903.28052 -33.3997002 10057.7998 0.945544124 0.954338193 0.948141754
v  -1028.35681 -33.3997002 10670.1357 0.945544124 0.954338193 0.948141754
v  -1868.00024 -33.3983994 -4887.31006 0.945544124 0.954338193 0.948141754
v  -1752.26489 -33.3991013 -3851.26636 0.945544124 0.954338193 0.948141754
v  1865.16553 -33.3997002 -5006.07959 0.945544124 0.954338193 0.948141754
v  1941.73096 -33.3991013 -3401.10449 0.945544124 0.954338193 0.948141754
v  -3050.30054 -33.3997002 -7935.04541 0.945544124 0.954338193 0.948141754
v  -2943.87329 -33.3991013 -6412.729 0.945544124 0.954338193 0.948141754
v  936.68512 -33.3997002 -7293.08105 0.945544124 0.954338193 0.948141754
v  1298.37988 -33.3997002 -6196.21436 0.945544124 0.954338193 0.948141754
v  -1351.26416 -33.3997002 -10211.7246 0.945544124 0.954338193 0.948141754
v  -2715.26831 -33.3997002 -9260.91406 0.945544124 0.954338193 0.948141754
v  2130.31567 -33.3997002 -10116.8271 0.945544124 0.954338193 0.948141754
v  1141.67188 -33.3997002 -8466.16016 0.945544124 0.954338193 0.948141754
v  -1164.68274 -32.7723007 1458.71741 0.945544124 0.954338193 0.948141754
v  -1720.19702 -32.7723007 878.064575 0.945544124 0.954338193 0.948141754
v  -1233.83972 -32.7723007 1561.57629 0.945544124 0.954338193 0.948141754
v  -1812.3114 -32.7723007 953.997803 0.945544124 0.954338193 0.948141754
v  -426.848694 -32.7723007 1796.33215 0.945544124 0.954338193 0.948141754
v  -487.437408 -32.7723007 1899.19055 0.945544124 0.954338193 0.948141754
v  250.711304 -32.7723007 1891.25916 0.945544124 0.954338193 0.948141754
v  -452.245911 -32.7723007 1780.86011 0.945544124 0.954338193 0.948141754
v  220.821396 -32.7723007 2044.3772 0.945544124 0.954338193 0.948141754
v  866.864075 -32.7723007 2349.23584 0.945544124 0.954338193 0.948141754
v  163.906799 -32.7723007 2238.83691 0.945544124 0.954338193 0.948141754
v  836.974121 -32.7723007 2502.354 0.945544124 0.954338193 0.948141754
v  134.017303 -32.7723007 2391.95508 0.945544124 0.954338193 0.948141754
v  1302.67432 -32.7723007 3424.26416 0.945544124 0.954338193 0.948141754
v  1429.09521 -32.7723007 2920.44092 0.945544124 0.954338193 0.948141754
v  1165.63 -32.7723007 3382.12378 0.945544124 0.954338193 0.948141754
v  1292.05139 -32.7723007 2878.30078 0.945544124 0.954338193 0.948141754
v  524.56781 -33.6314011 4078.3396 0.945544124 0.954338193 0.948141754
v  1243.37561 -32.7723007 3925.32935 0.945544124 0.954338193 0.948141754
v  467.937714 -25.4139004 3924.73608 0.945544124 0.954338193 0.948141754
v  1231.78674 -32.7723007 3769.32812 0.945544124 0.954338193 0.948141754
v  -340.578094 -32.7723007 4516.77832 0.945544124 0.954338193 0.948141754
v  -401.06781 -32.7723007 4372.51611 0.945544124 0.954338193 0.948141754
v  -1129.86865 -32.7723007 4905.01807 0.945544124 0.954338193 0.948141754
v  -1217.9054 -32.7723007 4775.71094 0.945544124 0.954338193 0.948141754
v  -1724.05017 -32.7723007 5483.01367 0.945544124 0.954338193 0.948141754
v  -1843.73669 -32.7723007 5390.95752 0.945544124 0.954338193 0.948141754
v  -2008.21338 -32.7723007 6292.49219 0.945544124 0.954338193 0.948141754
v  -2175.01392 -32.7723007 6246.76904 0.945544124 0.954338193 0.948141754
v  -2577.79492 -32.7723007 5250.52539 0.945544124 0.954338193 0.948141754
v  -3064.11084 -32.7723007 6453.42676 0.945544124 0.954338193 0.948141754
v  -2355.82446 -30.1074009 5367.69092 0.945544124 0.954338193 0.948141754
v  -2926.31445 -32.7723007 6527.47168 0.945544124 0.954338193 0.948141754
v  320.523895 -32.7723007 3599.03735 0.945544124 0.954338193 0.948141754
v  -202.921906 -32.7723007 3826.12183 0.945544124 0.954338193 0.948141754
v  368.691895 -32.7723007 3697.04541 0.945544124 0.954338193 0.948141754
v  -154.753906 -32.7723007 3979.96484 0.945544124 0.954338193 0.948141754
v  -1776.02063 -32.7723007 634.392029 0.945544124 0.954338193 0.948141754
v  -1781.05481 -31.3903999 -643.823181 0.945544124 0.954338193 0.948141754
v  -1955.63452 -32.7723007 666.593872 0.945544124 0.954338193 0.948141754
v  -1929.0238 -32.7723007 -662.857178 0.945544124 0.954338193 0.948141754
v  -1416.8103 -32.7723007 -1394.83154 0.945544124 0.954338193 0.948141754
v  -1561.54407 -32.7723007 -1460.42517 0.945544124 0.954338193 0.948141754
v  -820.6521 -32.7723007 -1946.26123 0.945544124 0.954338193 0.948141754
v  -910.816528 -32.7723007 -2057.23999 0.945544124 0.954338193 0.948141754
v  -1622.66504 -32.7723007 -2260.27222 0.945544124 0.954338193 0.948141754
v  -2113.36719 -32.7723007 -1760.54297 0.945544124 0.954338193 0.948141754
v  -1488.11292 -32.7723007 -2184.22729 0.945544124 0.954338193 0.948141754
v  -1978.81604 -32.7723007 -1684.49695 0.945544124 0.954338193 0.948141754
v  -2629.41772 -32.7723007 -262.8414 0.945544124 0.954338193 0.948141754
v  -2943.06909 -32.7723007 508.542297 0.945544124 0.954338193 0.948141754
v  -2454.41284 -32.7723007 -186.796799 0.945544124 0.954338193 0.948141754
v  -2768.06519 -32.7723007 584.588379 0.945544124 0.954338193 0.948141754
v  35.7382011 -32.7723007 -2320.70435 0.945544124 0.954338193 0.948141754
v  -77.7959976 -32.7723007 -2474.06421 0.945544124 0.954338193 0.948141754
v  455.390594 -32.7723007 -3152.29297 0.945544124 0.954338193 0.948141754
v  -807.20929 -32.7723007 -2648.2688 0.945544124 0.954338193 0.948141754
v  568.927185 -32.7723007 -2998.93457 0.945544124 0.954338193 0.948141754
v  -693.67511 -32.7723007 -2494.90894 0.945544124 0.954338193 0.948141754
v  871.652771 -32.7723007 -2679.41064 0.945544124 0.954338193 0.948141754
v  1787.09265 -32.7723007 -3103.49927 0.945544124 0.954338193 0.948141754
v  758.116211 -32.7723007 -2832.76953 0.945544124 0.954338193 0.948141754
v  1673.55847 -32.7723007 -3256.85913 0.945544124 0.954338193 0.948141754
v  1702.60718 -32.7723007 -3825.80396 0.945544124 0.954338193 0.948141754
v  855.806396 -32.7723007 -4522.11719 0.945544124 0.954338193 0.948141754
v  1601.53076 -32.7723007 -3663.96191 0.945544124 0.954338193 0.948141754
v  754.729492 -32.7723007 -4360.27637 0.945544124 0.954338193 0.948141754
v  858.638 -32.7723007 -2697.38477 0.945544124 0.954338193 0.948141754
v  745.103821 -32.7723007 -2850.74463 0.945544124 0.954338193 0.948141754
v  -1791.02832 -31.7837009 4633.03027 0.945544124 0.954338193 0.948141754
v  -1691.31079 -31.7837009 4774.42529 0.945544124 0.954338193 0.948141754
v  -1173.38525 -31.1516991 4083.44897 0.945544124 0.954338193 0.948141754
v  -1082.89917 -32.7723007 4260.97754 0.945544124 0.954338193 0.948141754
v  -680.675415 -32.7723007 2697.99268 0.945544124 0.954338193 0.948141754
v  33.1976013 -32.7723007 3346.17896 0.945544124 0.954338193 0.948141754
v  -624.09552 -32.7723007 2530.84839 0.945544124 0.954338193 0.948141754
v  148.007294 -32.7723007 3242.71069 0.945544124 0.954338193 0.948141754
v  -1578.09729 -32.7723007 2177.4231 0.945544124 0.954338193 0.948141754
v  -1521.5177 -32.7723007 2033.59814 0.945544124 0.954338193 0.948141754
v  -2887.54541 -32.7723007 1045.76318 0.945544124 0.954338193 0.948141754
v  -2251.09155 -32.7723007 1887.69409 0.945544124 0.954338193 0.948141754
v  -2748.40234 -32.7723007 915.376587 0.945544124 0.954338193 0.948141754
v  -2111.948 -32.7723007 1757.30786 0.945544124 0.954338193 0.948141754
v  -2311.46875 -32.7723007 -1373.72034 0.945544124 0.954338193 0.948141754
v  -2646.53955 -32.7723007 -856.241028 0.945544124 0.954338193 0.948141754
v  -2136.46387 -32.7723007 -1297.67566 0.945544124 0.954338193 0.948141754
v  -2471.53564 -32.7723007 -780.194824 0.945544124 0.954338193 0.948141754
v  1347.80286 -32.7723007 2883.30908 0.945544124 0.954338193 0.948141754
v  810.163391 -32.7723007 2417.17505 0.945544124 0.954338193 0.948141754
v  1241.31396 -32.7723007 2997.32202 0.945544124 0.954338193 0.948141754
v  703.675293 -32.7723007 2531.18799 0.945544124 0.954338193 0.948141754
v  -1907.02893 -118.197998 -2956.90161 0.945544124 0.954338193 0.948141754
v  -3536.33496 -118.196701 -1790.72266 0.945544124 0.954338193 0.948141754
v  999.888184 -118.196701 -1536.21765 0.945544124 0.954338193 0.948141754
v  -537.023193 -118.197998 -888.259521 0.945544124 0.954338193 0.948141754
v  766.33429 -118.197998 1082.70557 0.945544124 0.954338193 0.948141754
v  -2132.90112 -118.197998 2565.05225 0.945544124 0.954338193 0.948141754
v  1901.59363 -118.197998 2843.61938 0.945544124 0.954338193 0.948141754
v  -2022.37012 -118.197998 3295.91968 0.945544124 0.954338193 0.948141754
v  -611.002319 -118.197998 445.643005 0.945544124 0.954338193 0.948141754
v  -3124.95752 -118.197998 1667.99939 0.945544124 0.954338193 0.948141754
v  -3859.44995 -118.197998 211.516998 0.945544124 0.954338193 0.948141754
v  -827.26532 -118.197998 -477.049896 0.945544124 0.954338193 0.948141754
v  -2033.67017 -118.197998 3812.04199 0.945544124 0.954338193 0.948141754
v  1383.35938 -118.198196 5041.31055 0.945544124 0.954338193 0.948141754
v  -72.6203003 -118.197998 5893.05762 0.945544124 0.954338193 0.948141754
v  -3320.42236 -118.198196 4869.22217 0.945544124 0.954338193 0.948141754
v  -3831.66211 -118.197998 6536.10303 0.945544124 0.954338193 0.948141754
v  -158.606293 -118.197998 6411.27979 0.945544124 0.954338193 0.948141754
v  -49.1904984 -118.197998 7478.04541 0.945544124 0.954338193 0.948141754
v  -3260.5166 -118.197998 8668.78223 0.945544124 0.954338193 0.948141754
v  -2120.16211 -118.197998 10343.8662 0.945544124 0.954338193 0.948141754
v  657.669006 -118.197998 8366.84961 0.945544124 0.954338193 0.948141754
v  2039.39282 -118.197998 10057.7998 0.945544124 0.954338193 0.948141754
v  -662.791687 -118.197998 11033.4355 0.945544124 0.954338193 0.948141754
v  -2115.79517 -118.196297 -4633.94189 0.945544124 0.954338193 0.948141754
v  -1941.21045 -118.197403 -3679.17676 0.945544124 0.954338193 0.948141754
v  2020.39893 -118.197998 -5426.74316 0.945544124 0.954338193 0.948141754
v  2282.04932 -118.197304 -3830.85718 0.945544124 0.954338193 0.948141754
v  -3124.52002 -118.197998 -8470.43555 0.945544124 0.954338193 0.948141754
v  -3209.30322 -118.197403 -6871.63428 0.945544124 0.954338193 0.948141754
v  1244.88696 -118.197998 -7120.9917 0.945544124 0.954338193 0.948141754
v  1434.49219 -118.197998 -6196.21436 0.945544124 0.954338193 0.948141754
v  -1215.15186 -118.197998 -10211.7246 0.945544124 0.954338193 0.948141754
v  -2483.55078 -118.197998 -9872.78809 0.945544124 0.954338193 0.948141754
v  2266.42798 -118.197998 -10116.8271 0.945544124 0.954338193 0.948141754
v  1277.78418 -118.197998 -8466.16016 0.945544124 0.954338193 0.948141754

# 40 UV coordinates
vt -0.00200000009 7.28489017 0
vt -0.00200000009 6.06620979 0
vt 1 7.28489017 0
vt 1 6.06620979 0
vt 1 4.2177701 0
vt -0.00200000009 4.21805 0
vt 1 3.62882996 0
vt -0.00200000009 3.62882996 0
vt 1 4.84751987 0
vt -0.00200000009 4.84751987 0
vt -0.00200000009 5.38295984 0
vt 1 5.48480988 0
vt -0.00200000009 3.08025002 0
vt 1 2.88198996 0
vt 1 2.41015005 0
vt -0.00200000009 2.41015005 0
vt -0.00200000009 1.75559998 0
vt 1 1.74752998 0
vt 1 1.19146001 0
vt -0.00200000009 1.19146001 0
vt -0.00200000009 0.483449996 0
vt 1 0.57525003 0
vt 1 -0.0272300243 0
vt -0.00200000009 -0.0272300243 0
vt -0.00200000009 8.50358009 0
vt -0.00200000009 7.81783009 0
vt 1 8.50358009 0
vt 1 7.9457202 0
vt -0.00200000009 9.72227001 0
vt -0.00200000009 9.14251041 0
vt 1 9.72227001 0
vt 1 9.19493961 0
vt -0.00200000009 10.9409504 0
vt -0.00200000009 10.4691696 0
vt 1 10.9409504 0
vt 1 10.3482399 0
vt 0.0103200004 1 0
vt 0.0103200004 0.00344002247 0
vt 0.16787 1 0
vt 0.16787 0.00344002247 0

# 54 vertex normals
vn -2.11226492e-07 1 -6.26603764e-07
vn 1.0987975e-07 1 2.85641391e-07
vn -4.05031351e-08 1 -9.09254751e-08
vn -1.63384808e-08 1 9.35811045e-07
vn 0 1 0
vn 7.08727583e-08 1 3.54783964e-07
vn 3.4375384e-07 1 -1.47527018e-07
vn -5.67970417e-08 1 3.07540517e-07
vn 1.41061264e-07 1 -2.15509303e-07
vn 4.889311e-08 1 -4.01213356e-07
vn 3.0427902e-08 1 -1.88975605e-07
vn 1.47606542e-07 1 -4.06997827e-07
vn 7.26046494e-08 1 -6.3632605e-08
vn 1.44289174e-07 1 -6.09827566e-08
vn 0.0119868219 0.998847425 0.0464769192
vn 0.00948452856 0.99993962 0.00555150071
vn 0.0127730854 0.998897851 0.0451658368
vn 0.00948945899 0.9999547 -0.000704943726
vn 0.000392204471 0.999999881 -0.000164452897
vn 0.00123807217 0.999996424 0.00237063458
vn -0.00806812756 0.999949336 -0.00602391968
vn -0.00200566254 0.999997318 0.00114605157
vn -0.00779202208 0.999943674 -0.00720285904
vn -0.000976572745 0.999997854 0.0018173859
vn 0.000756515656 0.999999702 -0.000236863809
vn 0.000874738675 0.999999583 0.000293733116
vn 0.000193689862 0.999999404 0.00108035398
vn -0.00856069569 0.999958217 -0.00319765182
vn -0.000584744499 0.999999344 0.000976647367
vn -0.00840675831 0.999961555 -0.00248973724
vn -0.000387610227 0.999999881 -0.000271237921
vn 0.00044543072 0.999999821 0.000452039676
vn -0.000384828658 0.999999583 -0.000836855033
vn 0.00356856943 0.999970615 0.00678813038
vn 0.00342094363 0.999970913 0.00681385025
vn -4.06310448e-07 1 -8.15708461e-08
vn 1.45251917e-07 1 2.98997662e-07
vn -8.99101096e-08 1 5.48589121e-08
vn -2.8183317e-08 1 1.28352349e-06
vn 1.10762981e-08 1 4.50094362e-08
vn 9.82963471e-08 1 2.96953459e-07
vn -2.1810294e-08 1 3.78527574e-08
vn 4.76794817e-08 1 2.883184e-08
vn 2.57183945e-08 1 -4.14667198e-08
vn -4.68958454e-08 1 -4.49836328e-08
vn -9.18326837e-09 1 -5.36825056e-08
vn 4.38598903e-07 1 1.42249135e-07
vn 1.19750776e-09 1 5.56270777e-07
vn 1.18226048e-07 1 -2.60599535e-07
vn -3.66849697e-08 1 -3.67536046e-07
vn 5.41503233e-08 1 -1.75335046e-07
vn 1.72707075e-07 1 -4.14898921e-07
vn 7.92722048e-08 1 -5.24542045e-08
vn 1.40008851e-07 1 -8.15488406e-08

# Mesh '' with 34 faces
usemtl __
f  1/1/1 2/2/2 3/3/3
f  4/4/4 3/3/3 2/2/2
f  5/5/5 6/6/5 7/7/5
f  8/8/5 7/7/5 6/6/5
f  5/5/5 9/9/5 6/6/5
f  10/10/5 6/6/5 9/9/5
f  2/2/2 11/11/6 4/4/4
f  12/12/5 4/4/4 11/11/6
f  12/12/5 11/11/6 9/9/5
f  10/10/5 9/9/5 11/11/6
f  8/8/5 13/13/5 7/7/5
f  14/14/5 7/7/5 13/13/5
f  14/14/5 13/13/5 15/15/5
f  16/16/5 15/15/5 13/13/5
f  16/16/5 17/17/5 15/15/5
f  18/18/5 15/15/5 17/17/5
f  18/18/5 17/17/5 19/19/5
f  20/20/5 19/19/5 17/17/5
f  20/20/5 21/21/5 19/19/5
f  22/22/5 19/19/5 21/21/5
f  22/22/5 21/21/5 23/23/5
f  24/24/5 23/23/5 21/21/5
f  25/25/7 26/26/8 27/27/9
f  28/28/10 27/27/9 26/26/8
f  28/28/10 26/26/8 3/3/3
f  1/1/1 3/3/3 26/26/8
f  29/29/11 30/30/12 31/31/13
f  32/32/14 31/31/13 30/30/12
f  32/32/14 30/30/12 27/27/9
f  25/25/7 27/27/9 30/30/12
f  33/33/5 34/34/5 35/35/5
f  36/36/5 35/35/5 34/34/5
f  36/36/5 34/34/5 31/31/13
f  29/29/11 31/31/13 34/34/5

# Mesh '' with 60 faces
usemtl __
f  37/37/5 38/38/5 39/39/5
f  40/40/5 39/39/5 38/38/5
f  41/37/5 37/38/5 42/39/5
f  39/40/5 42/39/5 37/38/5
f  43/37/5 44/38/5 45/39/5
f  42/40/5 45/39/5 44/38/5
f  46/37/5 47/38/5 48/39/5
f  49/40/5 48/39/5 47/38/5
f  50/37/5 51/38/5 52/39/5
f  53/40/5 52/39/5 51/38/5
f  54/37/15 55/38/16 56/39/17
f  57/40/18 56/39/17 55/38/16
f  58/37/19 54/38/15 59/39/20
f  56/40/17 59/39/20 54/38/15
f  60/37/5 58/38/19 61/39/5
f  59/40/20 61/39/5 58/38/19
f  62/37/5 60/38/5 63/39/5
f  61/40/5 63/39/5 60/38/5
f  64/37/5 62/38/5 65/39/5
f  63/40/5 65/39/5 62/38/5
f  66/37/21 67/38/22 68/39/23
f  69/40/24 68/39/23 67/38/22
f  70/37/5 71/38/25 72/39/5
f  73/40/26 72/39/5 71/38/25
f  74/37/27 75/38/28 76/39/29
f  77/40/30 76/39/29 75/38/28
f  75/37/28 78/38/31 77/39/30
f  79/40/5 77/39/30 78/38/31
f  78/37/31 80/38/5 79/39/5
f  81/40/5 79/39/5 80/38/5
f  82/37/5 83/38/5 84/39/5
f  85/40/5 84/39/5 83/38/5
f  86/37/5 87/38/5 88/39/5
f  89/40/5 88/39/5 87/38/5
f  80/37/5 90/38/5 81/39/5
f  91/40/5 81/39/5 90/38/5
f  92/37/5 93/38/5 94/39/5
f  95/40/5 94/39/5 93/38/5
f  96/37/5 97/38/5 98/39/5
f  99/40/5 98/39/5 97/38/5
f  100/37/5 101/38/5 102/39/5
f  103/40/5 102/39/5 101/38/5
f  90/37/5 104/38/5 91/39/5
f  105/40/5 91/39/5 104/38/5
f  106/37/32 66/38/21 107/39/33
f  68/40/23 107/39/33 66/38/21
f  108/37/34 106/38/32 109/39/35
f  107/40/33 109/39/35 106/38/32
f  110/37/5 111/38/5 112/39/5
f  113/40/5 112/39/5 111/38/5
f  114/37/5 110/38/5 115/39/5
f  112/40/5 115/39/5 110/38/5
f  116/37/5 117/38/5 118/39/5
f  119/40/5 118/39/5 117/38/5
f  120/37/5 121/38/5 122/39/5
f  123/40/5 122/39/5 121/38/5
f  71/37/25 108/38/34 73/39/26
f  109/40/35 73/39/26 108/38/34
f  124/37/5 125/38/5 126/39/5
f  127/40/5 126/39/5 125/38/5

# Mesh '' with 34 faces
usemtl __
f  128/1/36 129/2/37 130/3/38
f  131/4/39 130/3/38 129/2/37
f  132/5/5 133/6/5 134/7/40
f  135/8/5 134/7/40 133/6/5
f  132/5/5 136/9/5 133/6/5
f  137/10/5 133/6/5 136/9/5
f  129/2/37 138/11/41 131/4/39
f  139/12/5 131/4/39 138/11/41
f  139/12/5 138/11/41 136/9/5
f  137/10/5 136/9/5 138/11/41
f  135/8/5 140/13/42 134/7/40
f  141/14/43 134/7/40 140/13/42
f  141/14/43 140/13/42 142/15/44
f  143/16/45 142/15/44 140/13/42
f  143/16/45 144/17/46 142/15/44
f  145/18/5 142/15/44 144/17/46
f  145/18/5 144/17/46 146/19/5
f  147/20/5 146/19/5 144/17/46
f  147/20/5 148/21/5 146/19/5
f  149/22/5 146/19/5 148/21/5
f  149/22/5 148/21/5 150/23/5
f  151/24/5 150/23/5 148/21/5
f  152/25/47 153/26/48 154/27/49
f  155/28/50 154/27/49 153/26/48
f  155/28/50 153/26/48 130/3/38
f  128/1/36 130/3/38 153/26/48
f  156/29/51 157/30/52 158/31/53
f  159/32/54 158/31/53 157/30/52
f  159/32/54 157/30/52 154/27/49
f  152/25/47 154/27/49 157/30/52
f  160/33/5 161/34/5 162/35/5
f  163/36/5 162/35/5 161/34/5
f  163/36/5 161/34/5 158/31/53
f  156/29/51 158/31/53 161/34/5

