# File produced by Open Asset Import Library (http://www.assimp.sf.net)
# (assimp v5.2.3369795085)

mtllib 50.X.mtl

# 29 vertex positions
v  25.9202995 -5.50279999 1.99860001
v  25.9202995 0.588400006 6.42420006
v  -16.0463009 -5.50279999 1.99860001
v  -16.0463009 0.588400006 6.42420006
v  25.9202995 -3.17619991 -5.16209984
v  -16.0463009 -3.17619991 -5.16209984
v  25.9202995 4.35300016 -5.16209984
v  -16.0463009 4.35300016 -5.16209984
v  25.9202995 6.6796999 1.99860001
v  -16.0463009 6.6796999 1.99860001
v  25.9202995 0.588400006 -0.252400011
v  59.4426994 0.574699998 0.0932999998
v  25.9202995 0.237100005 0.327699989
v  25.9202995 0.939800024 0.327699989
v  -29.1375008 2.79119992 2.14660001
v  -29.1375008 -1.61430001 2.14660001
v  -11.0614996 2.79119992 2.14660001
v  -11.0614996 -1.61430001 2.14660001
v  -11.0614996 -1.61430001 -2.25889993
v  -29.1375008 -1.61430001 -2.25889993
v  -11.0614996 2.79119992 -2.25889993
v  -29.1375008 2.79119992 -2.25889993
v  -31.4822006 -7.67789984 4.77260017
v  -21.4253998 0.588400006 0
v  -31.4822006 0.588400006 9.54520035
v  -31.4822006 -7.67789984 -4.77260017
v  -31.4822006 0.588400006 -9.54520035
v  -31.4822006 8.85480022 -4.77260017
v  -31.4822006 8.85480022 4.77260017

# 46 UV coordinates
vt 0.200000003 0.791669965 0
vt 0 0.791669965 0
vt 0.200000003 0 0
vt 0 0 0
vt 0.400000006 0.791669965 0
vt 0.400000006 0 0
vt 0.600000024 0.791669965 0
vt 0.600000024 0 0
vt 0.800000012 0.791669965 0
vt 0.800000012 0 0
vt 1 0.791669965 0
vt 1 0 0
vt 0.5 0.791669965 0
vt 0.699999988 0.791669965 0
vt 0.899999976 0.791669965 0
vt 0.400000006 1 0
vt 0.300000012 1 0
vt 0.200000003 1 0
vt 0.800000012 1 0
vt 0.699999988 1 0
vt 0.600000024 1 0
vt 0.947319984 0.973659992 0
vt 0.84732002 0.973659992 0
vt 0.747319996 0.973659992 0
vt 0.408520013 0.973749995 0
vt 0.408520013 0.895470023 0
vt 0.637989998 0.895470023 0
vt 0.637989998 0.973749995 0
vt 0.166669995 0 0
vt 0.083329998 0.0948299766 0
vt 0.333330005 0 0
vt 0.25 0.0948299766 0
vt 0.5 0 0
vt 0.416669995 0.0948299766 0
vt 0.666670024 0 0
vt 0.583329976 0.0948299766 0
vt 0.833329976 0 0
vt 0.75 0.0948299766 0
vt 0.916670024 0.0948299766 0
vt 0.400000006 0.822799981 0
vt 0.5 0.822799981 0
vt 0.600000024 0.822799981 0
vt 0.699999988 0.822799981 0
vt 0.800000012 0.822799981 0
vt 0.899999976 0.822799981 0
vt 1 0.822799981 0

# 29 vertex normals
vn 0.595695198 -0.763898969 0.248204738
vn 0.595693529 -3.19092146e-06 0.803211808
vn -0.595695198 -0.763898969 0.248204842
vn -0.595693529 -3.10928226e-06 0.803211808
vn 0.595693767 -0.47211805 -0.649810314
vn -0.595693767 -0.472118139 -0.649810255
vn 0.595694542 0.472113729 -0.649812758
vn -0.595694542 0.472113609 -0.649812818
vn 0.595693946 0.763900459 0.248203292
vn -0.595693946 0.763900459 0.248203233
vn 0.0103120236 0.000158004128 -0.999946833
vn 0.999993086 -0.00192623574 0.00317649171
vn 0.0122062797 -0.870832801 0.49142772
vn 0.0129203415 0.870964527 0.491176009
vn 0 0.707106769 0.707106769
vn 0 -0.707106769 0.707106829
vn 0 0.707106829 0.707106709
vn 0 -0.707106829 0.707106769
vn 0 -0.707106769 -0.707106769
vn 0 -0.707106709 -0.707106829
vn 0 0.707106709 -0.707106888
vn 0 0.707106888 -0.707106709
vn -0.31722948 -0.821294725 0.474173456
vn 1 -2.53848339e-06 1.97490557e-09
vn -0.317227483 -2.07514677e-06 0.948349476
vn -0.31722945 -0.821294725 -0.474173486
vn -0.317227483 -2.07514677e-06 -0.948349476
vn -0.317227453 0.821294665 -0.474174917
vn -0.317227453 0.821294665 0.474174917

# Mesh 'tyusya' with 37 faces
g tyusya
usemtl mat1
f  1/1/1 2/2/2 3/3/3
f  4/4/4 3/3/3 2/2/2
f  5/5/5 1/1/1 6/6/6
f  3/3/3 6/6/6 1/1/1
f  7/7/7 5/5/5 8/8/8
f  6/6/6 8/8/8 5/5/5
f  9/9/9 7/7/7 10/10/10
f  8/8/8 10/10/10 7/7/7
f  2/11/2 9/9/9 4/12/4
f  10/10/10 4/12/4 9/9/9
f  7/7/7 1/13/1 5/5/5
f  9/9/9 1/14/1 7/7/7
f  2/11/2 1/15/1 9/9/9
f  11/16/11 12/17/12 13/18/13
f  14/19/14 12/20/12 11/21/11
f  13/22/13 12/23/12 14/24/14
f  15/25/15 16/25/16 17/26/17
f  18/26/18 17/26/17 16/25/16
f  19/27/19 20/28/20 21/27/21
f  22/28/22 21/27/21 20/28/20
f  16/25/16 20/28/20 18/26/18
f  19/27/19 18/26/18 20/28/20
f  21/27/21 22/28/22 17/26/17
f  15/25/15 17/26/17 22/28/22
f  23/29/23 24/30/24 25/4/25
f  26/31/26 24/32/24 23/29/23
f  27/33/27 24/34/24 26/31/26
f  28/35/28 24/36/24 27/33/27
f  29/37/29 24/38/24 28/35/28
f  25/12/25 24/39/24 29/37/29
f  6/40/6 3/41/3 8/42/8
f  8/42/8 3/43/3 10/44/10
f  10/44/10 3/45/3 4/46/4
f  25/37/25 29/37/29 27/35/27
f  28/35/28 27/35/27 29/37/29
f  27/31/27 26/31/26 25/29/25
f  23/29/23 25/29/25 26/31/26

