# File produced by Open Asset Import Library (http://www.assimp.sf.net)
# (assimp v5.2.3369795085)

mtllib 103.X.mtl

# 57 vertex positions
v  1.22414887 96.5698853 0.984818935
v  1.22414887 96.5647812 -0.851830006
v  -0.940710247 96.5698853 0.984818935
v  -0.940710247 96.5647812 -0.851830006
v  2.29610896 -10.6474142 -1.75951481
v  2.29610896 -10.6426477 1.91037846
v  -2.01250005 -10.6474142 -1.75951481
v  -2.01250005 -10.6426477 1.91037846
v  2.29610896 76.8571854 -1.79373169
v  -2.01250005 76.8571854 -1.79373169
v  -2.01250005 76.873703 1.89522767
v  2.29610896 76.873703 1.89522767
v  -2.01250005 36.3099556 -1.78351784
v  2.29610896 36.3099556 -1.78351784
v  -2.01250005 36.202198 1.8834815
v  2.29610896 36.202198 1.8834815
v  0 79.6279068 -1.08913517
v  17.3484936 79.6376114 3.59466839
v  0 79.6279068 1.12713432
v  16.9990044 94.5619812 3.59466839
v  0 94.762001 1.12713432
v  0 94.762001 -1.08913517
v  14.7463055 108.157677 5.01203251
v  0 108.716553 2.92496991
v  0 108.828911 0.70870018
v  9.67011261 117.006927 6.43535423
v  0 119.332481 4.99075317
v  0 119.332481 3.77188158
v  0 124.323219 7.20651197
v  -17.3484936 79.6376114 3.59466839
v  -16.9990044 94.5619812 3.59466839
v  -14.7463055 108.157677 5.01203251
v  -9.67011261 117.006927 6.43535423
v  -4.77521896 -12.8112516 -1.75900412
v  -6.48674631 -10.5639992 -1.75900412
v  5.50773382 -12.8112516 -1.75900412
v  7.08818102 -10.5639992 -1.75900412
v  -6.48674631 -10.5617867 1.83615673
v  7.08818102 -10.5617867 1.83615673
v  -4.77521896 -12.8088684 1.83615673
v  5.50773382 -12.8088684 1.83615673
v  -10.7192621 -27.0642204 -1.75900412
v  -7.8675108 -24.8888073 -1.75900412
v  10.6549129 -27.0642204 -1.75900412
v  7.80316162 -24.8888073 -1.75900412
v  -7.8675108 -24.9126396 1.83615673
v  7.80316162 -24.9126396 1.83615673
v  -10.7192621 -27.0882225 1.83615673
v  10.6549129 -27.0882225 1.83615673
v  -9.05301571 -22.656023 -1.75900412
v  -11.8962564 -22.663002 -1.75900412
v  -11.8909779 -22.663002 1.83615673
v  -9.04688835 -22.656023 1.83615673
v  11.9966936 -22.6034222 -1.75900412
v  9.12110901 -22.6105709 -1.75900412
v  9.11668396 -22.6105709 1.83615673
v  11.9920969 -22.6034222 1.83615673

# 64 UV coordinates
vt 0.725229979 0.913150012 0
vt 0.711690009 0.912140012 0
vt 0.724179983 0.891960025 0
vt 0.711430013 0.892690003 0
vt 0.0027999999 0.514500022 0
vt 0.0027999999 0.320460021 0
vt 0.0665099993 0.514500022 0
vt 0.0665099993 0.320460021 0
vt 0.723770022 0.956799984 0
vt 0.546079993 0.956799984 0
vt 0.723770022 0.894909978 0
vt 0.546079993 0.894909978 0
vt 0.723710001 0.900449991 0
vt 0.546079993 0.900449991 0
vt 0.723710001 0.820100009 0
vt 0.546079993 0.819480002 0
vt 0.0684700012 0.350419998 0
vt 0.29497999 0.350419998 0
vt 0.0680600032 0.560180008 0
vt 0.29497999 0.560180008 0
vt 0.687950015 0.560180008 0
vt 0.687950015 0.350419998 0
vt 0.0684700012 0.0962100029 0
vt 0.29497999 0.0951399803 0
vt 0.0680600032 0.369189978 0
vt 0.29497999 0.369189978 0
vt 0.687950015 0.369189978 0
vt 0.687950015 0.0947899818 0
vt 0.921999991 0.994040012 0
vt 0.96043998 0.724699974 0
vt 0.992370009 0.992959976 0
vt 0.30599001 0.735489964 0
vt 0.319319993 0.969299972 0
vt 0.00668000011 0.729660034 0
vt 0.00527000008 0.974080026 0
vt 0.78591001 0.716439962 0
vt 0.785080016 0.929470003 0
vt 0.921320021 0.713010013 0
vt 0.952950001 0.819649994 0
vt 0.988749981 0.712339997 0
vt 0.132129997 0.954829991 0
vt 0.132129997 0.880299985 0
vt 0.896669984 0.954829991 0
vt 0.896669984 0.880299985 0
vt 0.132129997 0.886969984 0
vt 0.132129997 0.789590001 0
vt 0.896669984 0.886969984 0
vt 0.896669984 0.789470017 0
vt 0.273470014 0.954829991 0
vt 0.336059988 0.880299985 0
vt 0.336059988 0.886969984 0
vt 0.336849988 0.78956002 0
vt 0.336849988 0.954829991 0
vt 0.274679989 0.880299985 0
vt 0.274679989 0.886969984 0
vt 0.273470014 0.789569974 0
vt 0.338829994 0.954829991 0
vt 0.276349992 0.880299985 0
vt 0.276349992 0.886969984 0
vt 0.277539998 0.789569974 0
vt 0.277539998 0.954829991 0
vt 0.33961001 0.880299985 0
vt 0.33961001 0.886969984 0
vt 0.338829994 0.78956002 0

# 57 vertex normals
vn 0.956800461 1.02909195 0.960961103
vn 0.957381368 1.02692866 -0.962695301
vn -0.956814051 1.0290817 0.960958481
vn -0.957395196 1.02691853 -0.96269238
vn 0.982772887 -0.983767807 -0.981988788
vn 0.98290813 -0.981890321 0.983730972
vn -0.982772887 -0.983767867 -0.981988788
vn -0.982908368 -0.981890261 0.983730733
vn 1.20404351 0.060175091 -1.20191586
vn -1.20404363 0.0601747669 -1.20191586
vn -1.20448101 0.0594420396 1.20151401
vn 1.20448112 0.0594423786 1.20151389
vn -1.20368266 -0.000459286472 -1.20378208
vn 1.2036829 -0.000459286442 -1.20378184
vn -1.20389783 0.000171727734 1.20356703
vn 1.20389783 0.000171727588 1.20356703
vn 0.00184086314 -1.11083102 -1.28995919
vn 1.41859937 -0.895842433 0.288072318
vn 0.000891881995 -1.26075566 1.14386976
vn 1.67295682 0.120812692 0.290798038
vn 0.0006081069 -0.109737523 1.69879401
vn 0.00542943832 0.113184027 -1.69855928
vn 1.57805955 0.5048877 0.390845388
vn 0.0103374738 -0.281875372 1.67880404
vn 0.0124232275 0.3582232 -1.6641711
vn 1.41996765 0.718217969 0.604812682
vn 0.00968053658 -0.541074574 1.61402857
vn 0.00863517169 0.751455188 -1.52747643
vn -6.83706025e-09 1.56100368 0.679125488
vn -1.41115785 -0.90771842 0.287445039
vn -1.67466056 0.0913860649 0.291726261
vn -1.61249244 0.394052207 0.377537459
vn -1.2432704 0.979694605 0.626434982
vn 0.486857206 -0.741786003 -1.45281363
vn -0.738919437 1.13949656 -1.02639627
vn -0.495726436 -0.710937619 -1.46518481
vn 0.759625435 1.1293416 -1.02249718
vn -0.73896265 1.1400516 1.02574861
vn 0.759656191 1.12990022 1.0218569
vn 0.486322016 -0.741279244 1.45325136
vn -0.495170265 -0.710481822 1.46559393
vn -0.835410535 -1.08462274 -1.01174426
vn 0.474587917 0.785036862 -1.43402481
vn 0.817962468 -1.09510398 -1.01470602
vn -0.466100097 0.806140602 -1.42507243
vn 0.470117748 0.778131247 1.43925142
vn -0.461723983 0.799191475 1.43040121
vn -0.835512936 -1.09067535 1.00513148
vn 0.818140149 -1.10114169 1.00800657
vn 0.974961758 0.0381188989 -1.39496958
vn -1.3056047 0.104767829 -1.08736539
vn -1.30402374 0.105345406 1.08920527
vn 0.978203416 0.0363961309 1.39274442
vn 1.30830669 0.0621381178 -1.08738959
vn -0.980127156 0.0830686167 -1.38938618
vn -0.982689977 0.0816378221 1.38765967
vn 1.30694497 0.0627259016 1.08899212

# Mesh '' with 106 faces
usemtl houtyou
f  1/1/1 2/2/2 3/3/3
f  4/4/4 3/3/3 2/2/2
f  5/5/5 6/6/6 7/7/7
f  8/8/8 7/7/7 6/6/6
f  2/9/2 9/10/9 4/11/4
f  10/12/10 4/11/4 9/10/9
f  4/13/4 10/14/10 3/15/3
f  11/16/11 3/15/3 10/14/10
f  3/9/3 11/10/11 1/11/1
f  12/12/12 1/11/1 11/10/11
f  1/13/1 12/14/12 2/15/2
f  9/16/9 2/15/2 12/14/12
f  7/17/7 13/18/13 5/19/5
f  14/20/14 5/19/5 13/18/13
f  14/20/14 13/18/13 9/21/9
f  10/22/10 9/21/9 13/18/13
f  8/23/8 15/24/15 7/25/7
f  13/26/13 7/25/7 15/24/15
f  13/26/13 15/24/15 10/27/10
f  11/28/11 10/27/10 15/24/15
f  6/17/6 16/18/16 8/19/8
f  15/20/15 8/19/8 16/18/16
f  15/20/15 16/18/16 11/21/11
f  12/22/12 11/21/11 16/18/16
f  5/23/5 14/24/14 6/25/6
f  16/26/16 6/25/6 14/24/14
f  16/26/16 14/24/14 12/27/12
f  9/28/9 12/27/12 14/24/14
f  17/29/17 18/30/18 19/31/19
f  20/32/20 21/33/21 18/34/18
f  19/35/19 18/34/18 21/33/21
f  22/33/22 20/32/20 17/35/17
f  18/34/18 17/35/17 20/32/20
f  23/36/23 24/37/24 20/32/20
f  21/33/21 20/32/20 24/37/24
f  25/37/25 23/36/23 22/33/22
f  20/32/20 22/33/22 23/36/23
f  26/38/26 27/39/27 23/36/23
f  24/37/24 23/36/23 27/39/27
f  28/39/28 26/38/26 25/37/25
f  23/36/23 25/37/25 26/38/26
f  27/39/27 26/38/26 29/40/29
f  29/40/29 26/38/26 28/39/28
f  17/29/17 19/31/19 30/30/30
f  30/34/30 19/35/19 31/32/31
f  21/33/21 31/32/31 19/35/19
f  17/35/17 30/34/30 22/33/22
f  31/32/31 22/33/22 30/34/30
f  31/32/31 21/33/21 32/36/32
f  24/37/24 32/36/32 21/33/21
f  22/33/22 31/32/31 25/37/25
f  32/36/32 25/37/25 31/32/31
f  32/36/32 24/37/24 33/38/33
f  27/39/27 33/38/33 24/37/24
f  25/37/25 32/36/32 28/39/28
f  33/38/33 28/39/28 32/36/32
f  27/39/27 29/40/29 33/38/33
f  29/40/29 28/39/28 33/38/33
f  34/41/34 35/42/35 36/43/36
f  37/44/37 36/43/36 35/42/35
f  35/45/35 38/46/38 37/47/37
f  39/48/39 37/47/37 38/46/38
f  38/41/38 40/42/40 39/43/39
f  41/44/41 39/43/39 40/42/40
f  40/45/40 34/46/34 41/47/41
f  36/48/36 41/47/41 34/46/34
f  42/41/42 43/42/43 44/43/44
f  45/44/45 44/43/44 43/42/43
f  43/45/43 46/46/46 45/47/45
f  47/48/47 45/47/45 46/46/46
f  46/41/46 48/42/48 47/43/47
f  49/44/49 47/43/47 48/42/48
f  48/45/48 42/46/42 49/47/49
f  44/48/44 49/47/49 42/46/42
f  34/43/34 50/49/50 35/44/35
f  51/50/51 35/44/35 50/49/50
f  51/50/51 50/49/50 42/42/42
f  43/41/43 42/42/42 50/49/50
f  35/47/35 51/51/51 38/48/38
f  52/52/52 38/48/38 51/51/51
f  52/52/52 51/51/51 48/46/48
f  42/45/42 48/46/48 51/51/51
f  38/43/38 52/53/52 40/44/40
f  53/54/53 40/44/40 52/53/52
f  53/54/53 52/53/52 46/42/46
f  48/41/48 46/42/46 52/53/52
f  40/47/40 53/55/53 34/48/34
f  50/56/50 34/48/34 53/55/53
f  50/56/50 53/55/53 43/46/43
f  46/45/46 43/46/43 53/55/53
f  37/43/37 54/57/54 36/44/36
f  55/58/55 36/44/36 54/57/54
f  55/58/55 54/57/54 45/42/45
f  44/41/44 45/42/45 54/57/54
f  36/47/36 55/59/55 41/48/41
f  56/60/56 41/48/41 55/59/55
f  56/60/56 55/59/55 47/46/47
f  45/45/45 47/46/47 55/59/55
f  41/43/41 56/61/56 39/44/39
f  57/62/57 39/44/39 56/61/56
f  57/62/57 56/61/56 49/42/49
f  47/41/47 49/42/49 56/61/56
f  39/47/39 57/63/57 37/48/37
f  54/64/54 37/48/37 57/63/57
f  54/64/54 57/63/57 44/46/44
f  49/45/49 44/46/44 57/63/57

