# File produced by Open Asset Import Library (http://www.assimp.sf.net)
# (assimp v5.2.3369795085)

mtllib 105.X.mtl

# 14 vertex positions
v  17.2084961 42.5959206 44.7307434
v  24.0060558 40.8128204 -272.690704
v  14.0025511 73.1038208 44.6710205
v  -13.2942123 39.3893204 44.1625366
v  -8.3943224 40.8128204 -273.294281
v  -16.5001564 69.8973236 44.1028137
v  -8.3943224 73.2188187 -273.294281
v  20.7214413 71.8348236 -273.504303
v  -11.3782158 73.2121201 -113.623352
v  -0.969949722 73.1662216 -188.689728
v  -5.16726303 68.3731232 -162.919632
v  7.93158865 73.2498169 -138.726044
v  -10.3381844 62.5771179 -169.0979
v  24.2122841 68.3989182 -272.641846

# 28 UV coordinates
vt 0.676150024 0.557929993 0
vt 0 0.557929993 0
vt 0.676150024 0.0256999731 0
vt 0.691579998 0.578490019 0
vt 0 0.578490019 0
vt 0.691579998 0 0
vt 0 0 0
vt 1 1 0
vt 0.683669984 1 0
vt 1 0 0
vt 0.683669984 0 0
vt 0.696720004 0.588770032 0
vt 0.350450009 0.588770032 0
vt 0.696720004 0 0
vt 0.342689991 0.586009979 0
vt 0.181009993 0.695789993 0
vt 0.246329993 0.586009979 0
vt 0 0.586009979 0
vt 0 1 0
vt 0.288029999 0.824970007 0
vt 0.681289971 1 0
vt 0.681289971 0.586009979 0
vt 0 0.588770032 0
vt 0.228689998 0.395510018 0
vt 0.251910001 0.588770032 0
vt 0 0.104929984 0
vt 0 0.0256999731 0
vt 1 0.148850024 0

# 14 vertex normals
vn 0.622781515 -0.515427351 0.588623703
vn 0.589317679 -0.579821408 -0.562593877
vn 0.50273335 0.63262409 0.589106083
vn -0.528613031 -0.635238945 0.563062966
vn -0.566414237 -0.581376374 -0.584103048
vn -0.650000691 0.510360122 0.563055634
vn -0.561944306 0.593469262 -0.576205552
vn 0.349016517 0.660518944 -0.664757252
vn -0.7030828 0.71107465 -0.00688584335
vn -0.296847939 0.954768777 0.0172610618
vn -0.871549249 0.476495892 -0.115557946
vn 0.041789338 0.999126434 0.000202229654
vn -0.946970224 0.321125418 -0.0112206517
vn 0.770050168 0.266263902 -0.579764009

# Mesh '' with 24 faces
usemtl Material__102
f  1/1/1 2/2/2 3/3/3
f  4/4/4 5/5/5 1/6/1
f  2/7/2 1/6/1 5/5/5
f  4/8/4 1/9/1 6/10/6
f  3/11/3 6/10/6 1/9/1
f  7/11/7 8/10/8 5/9/5
f  6/12/6 9/13/9 4/14/4
f  9/15/9 10/16/10 11/17/11
f  7/18/7 10/16/10 8/19/8
f  11/17/11 10/16/10 7/18/7
f  10/16/10 12/20/12 8/19/8
f  3/21/3 12/20/12 6/22/6
f  8/19/8 12/20/12 3/21/3
f  10/16/10 9/15/9 12/20/12
f  12/20/12 9/15/9 6/22/6
f  7/23/7 13/24/13 11/25/11
f  5/7/5 13/24/13 7/23/7
f  4/14/4 13/24/13 5/7/5
f  11/25/11 13/24/13 9/13/9
f  9/13/9 13/24/13 4/14/4
f  3/3/3 14/26/14 8/27/8
f  2/2/2 14/26/14 3/3/3
f  5/9/5 14/28/14 2/8/2
f  8/10/8 14/28/14 5/9/5

