# File produced by Open Asset Import Library (http://www.assimp.sf.net)
# (assimp v5.2.3369795085)

mtllib 50.X.mtl

# 29 vertex positions
v  -2.28469992 52.6571007 0.654600024
v  -2.34179997 56.6511993 0.130500004
v  -2.28469992 52.6571007 -0.393700004
v  -2.29640007 20.8817005 -0.686600029
v  6.46409988 20.8894005 0.130500004
v  -2.29640007 20.8817005 0.94749999
v  -2.31660008 32.9934998 0.94749999
v  -2.31660008 32.9934998 -0.686600029
v  6.85930014 33.257 0.130500004
v  -2.24780011 43.4418983 0.94749999
v  -2.24780011 43.4418983 -0.686600029
v  5.65570021 43.7140007 0.130500004
v  2.94339991 50.7960014 0.130500004
v  2.00440001 21.368 -1.37609994
v  -2.10220003 21.3652992 -1.37609994
v  2.00440001 21.368 1.76030004
v  -2.10220003 21.3652992 1.76030004
v  -2.10019994 -1.02919996 -1.37609994
v  3.25679994 -1.05470002 -1.37609994
v  -2.10019994 -1.02919996 1.76030004
v  3.25679994 -1.05470002 1.76030004
v  -2.13870001 13.5174999 -1.37609994
v  -2.13870001 13.5174999 1.76030004
v  2.00550008 13.5218 1.76030004
v  2.00550008 13.5218 -1.37609994
v  -2.12719989 5.74620008 1.76030004
v  -2.12719989 5.74620008 -1.37609994
v  2.53559995 5.71799994 1.76030004
v  2.53559995 5.71799994 -1.37609994

# 47 UV coordinates
vt 0.95776999 0.959580004 0
vt 0.973129988 0.582669973 0
vt 0.99119997 0.959630013 0
vt 0.921999991 0.994040012 0
vt 0.96043998 0.579020023 0
vt 0.992370009 0.992959976 0
vt 0.275700003 0.918470025 0
vt 0.275700003 0.966639996 0
vt 0.00505999988 0.918470025 0
vt 0.00505999988 0.966639996 0
vt 0.30599001 0.589810014 0
vt 0.319319993 0.969299972 0
vt 0.00668000011 0.583979964 0
vt 0.00527000008 0.974080026 0
vt 0.707989991 0.918470025 0
vt 0.707989991 0.966639996 0
vt 0.78591001 0.586589992 0
vt 0.785080016 0.972570002 0
vt 0.979260027 0.918470025 0
vt 0.979260027 0.966639996 0
vt 0.921320021 0.58908999 0
vt 0.994700015 0.97112 0
vt 0.997099996 0.585049987 0
vt 1.00146997 0.412230015 0
vt 0.977760017 0.408829987 0
vt 0.999629974 0.340430021 0
vt 0.977320015 0.342890024 0
vt 0.0027999999 0.514500022 0
vt 0.0027999999 0.320460021 0
vt 0.0665099993 0.514500022 0
vt 0.0665099993 0.320460021 0
vt 0.99891001 0.560180008 0
vt 0.687950015 0.560180008 0
vt 0.99891001 0.350419998 0
vt 0.687950015 0.350419998 0
vt 0.99879998 0.369189978 0
vt 0.687950015 0.369189978 0
vt 0.99879998 0.0968899727 0
vt 0.687950015 0.0947899818 0
vt 0.0684700012 0.350419998 0
vt 0.29497999 0.350419998 0
vt 0.0680600032 0.560180008 0
vt 0.29497999 0.560180008 0
vt 0.0684700012 0.0962100029 0
vt 0.29497999 0.0951399803 0
vt 0.0680600032 0.369189978 0
vt 0.29497999 0.369189978 0

# 38 vertex normals
vn -0.999960601 -0.00887522101 -0
vn -0.210311964 0.124260984 -0.969705164
vn -0.646248698 0.0644097179 -0.760403872
vn -0.551697552 -0.573694348 -0.605396271
vn 0.0923205763 -0.1181271 -0.988697588
vn -0.727447033 -0.686163783 -0
vn -0.99999696 0.00245842198 0
vn -0.675039053 0.00394643517 -0.737771451
vn 0.0915649086 0.00083059445 0.995798767
vn 0.0895556509 -0.00113309897 0.995981157
vn 0.0911698788 -0.00107911031 0.995834768
vn 0.0928564519 0.000154865644 0.995679498
vn 0.0893973783 0.00448820787 -0.995985925
vn -0.999999106 0.00134431093 0
vn -0.664195657 0.0139837647 -0.747428
vn 0.103803352 0.0219890047 0.994354725
vn 0.0988533944 0.0187623855 0.994925141
vn 0.0984860882 0.019128345 -0.994954586
vn 0.120633759 0.0598349161 0.990892172
vn 0.130280748 0.0941380188 0.986997962
vn 0.113837853 0.0523536429 -0.992118955
vn 0.144869447 0.130766541 0.980771601
vn 0.577133477 0.577594101 -0.577323079
vn -0.576056778 0.57836175 -0.577629864
vn 0.577133477 0.577594161 0.577323079
vn -0.576056719 0.57836169 0.577629924
vn -0.577343106 -0.576895773 -0.577811539
vn 0.60876739 -0.550009727 -0.571744263
vn -0.577343166 -0.576895773 0.57781148
vn 0.60876745 -0.550009727 0.571744263
vn -0.707794547 0.00112225534 -0.706417501
vn -0.707794547 0.00112225546 0.706417441
vn 0.698922753 0.0237600934 0.714802384
vn 0.698922753 0.0237600934 -0.714802384
vn -0.707385838 -0.00193286373 0.706824958
vn -0.707385838 -0.00193286396 -0.706824958
vn 0.700093687 0.0610308275 0.711438
vn 0.700093746 0.0610308275 -0.711438

# Mesh '____' with 50 faces
g ____
usemtl houtyou
f  1/1/1 2/2/2 3/3/3
f  4/4/4 5/5/5 6/6/6
f  7/7/7 8/8/8 6/9/6
f  4/10/4 6/9/6 8/8/8
f  9/11/9 7/12/10 5/13/11
f  6/14/12 5/13/11 7/12/10
f  8/12/8 9/11/13 4/14/4
f  5/13/5 4/14/4 9/11/13
f  10/15/14 11/16/15 7/7/7
f  8/8/8 7/7/7 11/16/15
f  12/17/16 10/18/17 9/11/9
f  7/12/10 9/11/9 10/18/17
f  11/18/15 12/17/18 8/12/8
f  9/11/13 8/12/8 12/17/18
f  1/19/1 3/20/3 10/15/14
f  11/16/15 10/15/14 3/20/3
f  13/21/19 1/22/20 12/17/16
f  10/18/17 12/17/16 1/22/20
f  3/22/3 13/21/21 11/18/15
f  12/17/18 11/18/15 13/21/21
f  1/22/20 13/21/19 2/23/22
f  2/23/2 13/21/21 3/22/3
f  14/24/23 15/25/24 16/26/25
f  17/27/26 16/26/25 15/25/24
f  18/28/27 19/29/28 20/30/29
f  21/31/30 20/30/29 19/29/28
f  15/32/24 22/33/31 17/34/26
f  23/35/32 17/34/26 22/33/31
f  17/36/26 23/37/32 16/38/25
f  24/39/33 16/38/25 23/37/32
f  16/32/25 24/33/33 14/34/23
f  25/35/34 14/34/23 24/33/33
f  14/36/23 25/37/34 15/38/24
f  22/39/31 15/38/24 25/37/34
f  20/40/29 26/41/35 18/42/27
f  27/43/36 18/42/27 26/41/35
f  27/43/36 26/41/35 22/33/31
f  23/35/32 22/33/31 26/41/35
f  21/44/30 28/45/37 20/46/29
f  26/47/35 20/46/29 28/45/37
f  26/47/35 28/45/37 23/37/32
f  24/39/33 23/37/32 28/45/37
f  19/40/28 29/41/38 21/42/30
f  28/43/37 21/42/30 29/41/38
f  28/43/37 29/41/38 24/33/33
f  25/35/34 24/33/33 29/41/38
f  18/44/27 27/45/36 19/46/28
f  29/47/38 19/46/28 27/45/36
f  29/47/38 27/45/36 25/37/34
f  22/39/31 25/37/34 27/45/36

