# File produced by Open Asset Import Library (http://www.assimp.sf.net)
# (assimp v5.2.3369795085)

mtllib 54.X.mtl

# 95 vertex positions
v  0.664717913 19.3058739 2.75511217
v  0.105548769 19.3058739 0.130510777
v  -1.88788438 19.3058739 1.9271003
v  2.65810132 19.3058739 0.9585675
v  2.09898186 19.3058739 -1.66607869
v  -0.453620344 19.3058739 -2.49409056
v  -2.4470036 19.3058739 -0.697545886
v  -1.8878845 -42.2684517 1.92710102
v  0.105548739 -42.2684517 0.130511314
v  0.664717913 -42.2684517 2.75511265
v  2.65810132 -42.2684517 0.958568096
v  2.09898186 -42.2684517 -1.66607821
v  -0.453620344 -42.2684517 -2.49409008
v  -2.4470036 -42.2684517 -0.697545409
v  -1.88788438 -34.548748 1.92710066
v  0.664718032 -34.548748 2.75511265
v  2.65810132 -34.548748 0.958568096
v  2.09898186 -34.548748 -1.66607821
v  -0.453620344 -34.548748 -2.49409008
v  -2.4470036 -34.548748 -0.697545409
v  1.0733875 -38.1393509 4.67342615
v  -3.34482121 -38.1393509 3.24017096
v  4.52375746 -38.1393509 1.56376708
v  3.55591869 -38.1393509 -2.97914815
v  -0.862290382 -38.1393509 -4.41240358
v  -4.31266022 -38.1393509 -1.30274451
v  10.7188387 22.9362354 10.1169672
v  9.33780479 21.7047234 10.6061134
v  4.35150719 23.4558334 3.05199838
v  3.6634624 22.1882401 4.31006145
v  10.0892553 24.1676979 11.4398956
v  3.02889967 24.7234802 3.60597229
v  8.70822239 22.9362354 11.9290438
v  2.34089041 23.4558334 4.86407471
v  0.957872033 18.1668396 -0.713460922
v  0.777036786 17.6056175 1.10738373
v  -0.871874213 18.7280064 -0.722190499
v  -1.05274463 18.1668396 1.09861541
v  0.846551418 13.5528431 -0.836978436
v  0.689870596 13.5724506 1.0106672
v  -1.00741947 13.5559807 -0.872586608
v  -1.16406536 13.5528431 0.975097895
v  6.82832241 4.46132803 0.547131062
v  6.19873905 5.69278955 1.87006044
v  11.5137129 3.53204584 5.98792267
v  10.1911049 4.79969072 6.54189682
v  5.44728947 3.22981405 1.03627849
v  10.8257036 2.2644515 7.24602413
v  4.81770563 4.46132803 2.35920763
v  9.50309658 3.53204584 7.79999876
v  14.9945316 9.40401268 12.5522099
v  13.1647501 9.96523285 12.5434418
v  14.8136606 8.84279251 14.3730164
v  12.9839144 9.40401268 14.3642864
v  13.7095499 17.8306198 13.436059
v  11.8555775 17.356617 13.4004498
v  13.5528669 18.3045673 15.2837038
v  11.6989326 17.8306198 15.2481346
v  3.70480943 9.53332329 -2.65508676
v  3.44163871 10.1778927 -0.925598264
v  1.95732808 8.8887558 -2.57253742
v  1.69419241 9.53332329 -0.843010426
v  3.54835105 15.2036648 -2.14191675
v  3.38886976 14.7186298 -0.297378808
v  1.69718063 15.6886463 -2.17441797
v  1.53773415 15.2036648 -0.32984072
v  14.3220911 11.5274754 9.03378582
v  12.4238377 12.1413498 8.94904232
v  13.9972582 16.4789448 10.1591377
v  12.1642561 15.9284973 10.1467953
v  14.131629 10.8698864 10.8439484
v  13.8196774 17.0293922 11.983593
v  12.3114748 11.5274754 10.8458624
v  11.9866409 16.4789448 11.9712133
v  12.0458937 20.5774212 7.69592619
v  10.7159004 19.3139572 8.24170494
v  11.3653059 21.8408833 8.96226311
v  10.0352764 20.5774212 9.50800228
v  6.13096094 20.9129066 2.4101615
v  5.4941659 19.6765823 3.72508907
v  4.75713921 22.149231 2.90731001
v  4.12034416 20.9129066 4.22223759
v  12.8938255 9.47470665 6.93791866
v  11.2534084 10.3015556 7.14683676
v  12.5224934 8.64832878 8.54153442
v  10.8832445 9.47470665 8.75003338
v  10.7943707 7.93981218 3.19435859
v  9.09060001 8.40633583 3.81754136
v  12.0085087 6.55200529 3.32380152
v  9.98777294 5.52488947 3.58279395
v  12.1018505 5.51751661 4.83426046
v  11.1838627 4.94746065 6.14983892
v  8.56448174 7.87256765 5.19778872
v  8.40846729 6.5683198 6.46304703
v  9.67418194 5.49628782 6.68939447

# 110 UV coordinates
vt -0.0480699986 0.642570019 0
vt -0.120119996 0.684159994 0
vt -0.120119996 0.60097003 0
vt -0.0480699986 0.725759983 0
vt -0.120119996 0.767359972 0
vt -0.192179993 0.725759983 0
vt -0.192179993 0.642570019 0
vt 0.906279981 0.217190027 0
vt 0.906279981 0.283909976 0
vt 0.973829985 0.250549972 0
vt 0.973829985 0.317269981 0
vt 0.906279981 0.350629985 0
vt 0.838720024 0.317269981 0
vt 0.838720024 0.250549972 0
vt 0.789550006 0.213400006 0
vt 0.822570026 0.213400006 0
vt 0.789550006 0.975629985 0
vt 0.822570026 0.975629985 0
vt 0.855599999 0.213400006 0
vt 0.855599999 0.975629985 0
vt 0.888620019 0.213400006 0
vt 0.888620019 0.975629985 0
vt 0.921639979 0.213400006 0
vt 0.921639979 0.975629985 0
vt 0.954670012 0.213400006 0
vt 0.954670012 0.975629985 0
vt 0.987689972 0.213400006 0
vt 0.987689972 0.975629985 0
vt 0.822570026 0.000169992447 0
vt 0.822570026 0.114220023 0
vt 0.789550006 0.000169992447 0
vt 0.789550006 0.114220023 0
vt 0.855599999 0.000169992447 0
vt 0.855599999 0.114220023 0
vt 0.888620019 0.000169992447 0
vt 0.888620019 0.114220023 0
vt 0.921639979 0.000169992447 0
vt 0.921639979 0.114220023 0
vt 0.954670012 0.000169992447 0
vt 0.954670012 0.114220023 0
vt 0.987689972 0.000169992447 0
vt 0.987689972 0.114220023 0
vt 0.465629995 3.0552001 0
vt 0.385879993 3.05414009 0
vt 0.467799991 2.67918015 0
vt 0.388040006 2.67813015 0
vt 0.54539001 3.05626011 0
vt 0.547559977 2.68024015 0
vt 0.625150025 3.0573101 0
vt 0.627319992 2.68129015 0
vt 0.70490998 3.05837011 0
vt 0.707080007 2.68235016 0
vt 0.469960004 2.30315995 0
vt 0.390199989 2.30210996 0
vt 0.549719989 2.30421996 0
vt 0.629480004 2.30526996 0
vt 0.709240019 2.30632997 0
vt 0.472130001 1.92715001 0
vt 0.392369986 1.92609 0
vt 0.551890016 1.92820001 0
vt 0.631649971 1.92926002 0
vt 0.711399972 1.93031001 0
vt 0.474290013 1.55113006 0
vt 0.394529998 1.55007005 0
vt 0.47646001 1.17510998 0
vt 0.396699995 1.17404997 0
vt 0.554050028 1.55218005 0
vt 0.556209981 1.17615998 0
vt 0.633809984 1.55324006 0
vt 0.635969996 1.17721999 0
vt 0.713569999 1.55429006 0
vt 0.715730011 1.17826998 0
vt 0.478619993 0.799090028 0
vt 0.398860008 0.798030019 0
vt 0.558380008 0.800140023 0
vt 0.638140023 0.801200032 0
vt 0.717899978 0.802250028 0
vt 0.480780005 0.423070014 0
vt 0.40101999 0.422010005 0
vt 0.56054002 0.424120009 0
vt 0.640299976 0.425180018 0
vt 0.720059991 0.426240027 0
vt 0.482950002 0.0470499992 0
vt 0.403189987 0.0460000038 0
vt 0.562709987 0.0481100082 0
vt 0.642470002 0.0491600037 0
vt 0.722220004 0.0502200127 0
vt 0.472369999 1.88443995 0
vt 0.392580003 1.88863993 0
vt 0.552160025 1.88129997 0
vt 0.631889999 1.88654995 0
vt 0.711619973 1.89285994 0
vt 0.473329991 1.71844006 0
vt 0.39357999 1.71595001 0
vt 0.553080022 1.72043991 0
vt 0.632849991 1.72055006 0
vt 0.712610006 1.72017002 0
vt 0.431439996 1.79499006 0
vt 0.393119991 1.79575002 0
vt 0.47288999 1.79416001 0
vt 0.432480007 1.88653994 0
vt 0.514500022 1.79358006 0
vt 0.552659988 1.79305005 0
vt 0.51226002 1.88286996 0
vt 0.671760023 1.88970995 0
vt 0.676169991 1.79830003 0
vt 0.712149978 1.79996991 0
vt 0.63240999 1.79628003 0
vt 0.594070017 1.79471993 0
vt 0.592019975 1.88392997 0

# 95 vertex normals
vn 0 0.669601738 0
vn 0 -0.669601738 0
vn -0.479116291 0.179889515 0.431802988
vn 0.134403497 0.179889515 0.630826354
vn -0.49740088 4.29495328e-09 0.448284328
vn 0.139531538 7.14200876e-09 0.654902577
vn 0.613509774 0.179887831 0.199029118
vn 0.636924028 2.57362931e-09 0.206625864
vn 0.479116291 0.179889485 -0.431802988
vn 0.49740088 -4.01358768e-09 -0.448284328
vn -0.134403497 0.179889515 -0.630826354
vn -0.139531523 -5.42297895e-09 -0.654902577
vn -0.613509774 0.179887831 -0.199029118
vn -0.636924028 -1.6515026e-09 -0.206625864
vn 0.126037434 -0.287301898 0.591556132
vn 0.139483795 0.0166552868 0.654700935
vn -0.449291795 -0.287300766 0.40492177
vn -0.497247934 0.0166551843 0.448144555
vn 0.575318575 -0.287299305 0.186639056
vn 0.636729002 0.0166553035 0.206555694
vn 0.449291795 -0.287300766 -0.40492174
vn 0.497247934 0.0166551564 -0.448144555
vn -0.126037434 -0.287301928 -0.591556132
vn -0.139483795 0.0166552775 -0.654700935
vn -0.575318575 -0.287299365 -0.186639056
vn -0.636729002 0.0166552775 -0.206555724
vn 0.410406291 0.0815244988 -0.313585639
vn -0.156586632 -0.46804446 -0.172715187
vn 0.356900543 0.0906480476 -0.371241719
vn 0.131378427 -0.48495546 0.144822076
vn 0.151897669 0.471265107 0.168082774
vn -0.127432033 0.487120062 -0.14103429
vn -0.354863822 0.0809387267 0.37541455
vn -0.406751692 0.0909527615 0.315746963
vn 0.331988096 0.0310684592 -0.402782977
vn 0.324562043 -0.198724121 0.358585715
vn -0.321927518 0.206681207 -0.35645625
vn -0.43557024 0.0317236818 0.287554681
vn 0.38175109 0.00110189349 -0.357323915
vn 0.350199074 -0.0176162552 0.38789922
vn -0.35007298 0.0198405255 -0.387905568
vn -0.3954615 0.00107631856 0.342088491
vn 0.355484962 -0.0702114403 -0.376983166
vn 0.1754383 0.45697239 0.183883607
vn 0.425870836 -0.0715846196 -0.294830769
vn -0.0663931742 0.507192373 -0.108459122
vn -0.157090366 -0.464545041 -0.181482986
vn 0.1152182 -0.499889821 0.101244584
vn -0.411549419 -0.072608918 0.314277768
vn -0.400925457 -0.114360929 0.315588146
vn 0.463798195 0.0410102941 -0.237959832
vn -0.319510639 0.218248859 -0.35170427
vn 0.317373931 -0.218614116 0.353407919
vn -0.337150365 -0.128427893 0.37848568
vn 0.422196925 0.0798075125 -0.297986567
vn -0.345755994 -0.194098532 -0.340872496
vn 0.313918471 0.188022181 0.373521537
vn -0.327003986 -0.0116545632 0.407857865
vn 0.311248899 0.0101876454 -0.420042634
vn 0.342072964 0.14641124 0.367376268
vn -0.323851258 -0.187942669 -0.364984125
vn -0.437003523 -0.0420975015 0.284026772
vn 0.347313344 0.079971686 -0.382613987
vn 0.328282356 -0.204349056 0.351976782
vn -0.319562435 0.19495374 -0.365086824
vn -0.444353342 -0.0248586442 0.274495244
vn 0.453328133 0.0171392504 -0.260029554
vn -0.29829827 0.26086694 -0.341148198
vn 0.438226521 0.0661562756 -0.277482241
vn -0.382442325 -0.103990696 -0.341085434
vn 0.313244462 -0.252599597 0.333896458
vn 0.322464108 0.155244723 0.381223679
vn -0.348820984 -0.118630834 0.371033937
vn -0.323386967 -0.0196263772 0.410428047
vn 0.408404887 0.0876896381 -0.31453374
vn -0.161072358 -0.451656073 -0.208513796
vn 0.165187836 0.469354808 0.160731316
vn -0.331038624 0.0808092281 0.396609128
vn 0.355918556 0.105498359 -0.368249357
vn 0.0950482637 -0.484148085 0.173153058
vn -0.155409291 0.479282051 -0.139829218
vn -0.412809193 0.0786576495 0.311154336
vn 0.449490666 0.125340044 -0.235931158
vn -0.187437713 0.455446392 -0.175645128
vn 0.262421519 -0.337708503 0.300837934
vn -0.377157062 0.0215159971 0.361531615
vn 0.0643445402 0.222341001 -0.468870759
vn -0.328989118 0.250462562 -0.320078403
vn 0.327716291 -0.090205349 -0.397341847
vn -0.188593149 -0.346817225 -0.342878908
vn 0.37842828 -0.350036144 -0.0876485556
vn 0.127230853 -0.479925871 0.164009199
vn -0.501418829 0.13868317 -0.0525510162
vn -0.475800931 -0.138981521 0.166472524
vn -0.203513801 -0.399481237 0.26909554

# Mesh '' with 48 faces
usemtl mat1
f  1/1/1 2/2/1 3/3/1
f  4/4/1 2/2/1 1/1/1
f  5/5/1 2/2/1 4/4/1
f  6/6/1 2/2/1 5/5/1
f  7/7/1 2/2/1 6/6/1
f  3/3/1 2/2/1 7/7/1
f  8/8/2 9/9/2 10/10/2
f  10/10/2 9/9/2 11/11/2
f  11/11/2 9/9/2 12/12/2
f  12/12/2 9/9/2 13/13/2
f  13/13/2 9/9/2 14/14/2
f  14/14/2 9/9/2 8/8/2
f  15/15/3 16/16/4 3/17/5
f  1/18/6 3/17/5 16/16/4
f  16/16/4 17/19/7 1/18/6
f  4/20/8 1/18/6 17/19/7
f  17/19/7 18/21/9 4/20/8
f  5/22/10 4/20/8 18/21/9
f  18/21/9 19/23/11 5/22/10
f  6/24/12 5/22/10 19/23/11
f  19/23/11 20/25/13 6/24/12
f  7/26/14 6/24/12 20/25/13
f  20/25/13 15/27/3 7/26/14
f  3/28/5 7/26/14 15/27/3
f  10/29/15 21/30/16 8/31/17
f  22/32/18 8/31/17 21/30/16
f  22/32/18 21/30/16 15/15/3
f  16/16/4 15/15/3 21/30/16
f  11/33/19 23/34/20 10/29/15
f  21/30/16 10/29/15 23/34/20
f  21/30/16 23/34/20 16/16/4
f  17/19/7 16/16/4 23/34/20
f  12/35/21 24/36/22 11/33/19
f  23/34/20 11/33/19 24/36/22
f  23/34/20 24/36/22 17/19/7
f  18/21/9 17/19/7 24/36/22
f  13/37/23 25/38/24 12/35/21
f  24/36/22 12/35/21 25/38/24
f  24/36/22 25/38/24 18/21/9
f  19/23/11 18/21/9 25/38/24
f  14/39/25 26/40/26 13/37/23
f  25/38/24 13/37/23 26/40/26
f  25/38/24 26/40/26 19/23/11
f  20/25/13 19/23/11 26/40/26
f  8/41/17 22/42/18 14/39/25
f  26/40/26 14/39/25 22/42/18
f  26/40/26 22/42/18 20/25/13
f  15/27/3 20/25/13 22/42/18

# Mesh '' with 132 faces
usemtl mat1
f  27/43/27 28/44/28 29/45/29
f  30/46/30 29/45/29 28/44/28
f  31/47/31 27/43/27 32/48/32
f  29/45/29 32/48/32 27/43/27
f  33/49/33 31/47/31 34/50/34
f  32/48/32 34/50/34 31/47/31
f  28/51/28 33/49/33 30/52/30
f  34/50/34 30/52/30 33/49/33
f  29/45/29 30/46/30 35/53/35
f  36/54/36 35/53/35 30/46/30
f  32/48/32 29/45/29 37/55/37
f  35/53/35 37/55/37 29/45/29
f  34/50/34 32/48/32 38/56/38
f  37/55/37 38/56/38 32/48/32
f  30/52/30 34/50/34 36/57/36
f  38/56/38 36/57/36 34/50/34
f  35/53/35 36/54/36 39/58/39
f  40/59/40 39/58/39 36/54/36
f  37/55/37 35/53/35 41/60/41
f  39/58/39 41/60/41 35/53/35
f  38/56/38 37/55/37 42/61/42
f  41/60/41 42/61/42 37/55/37
f  36/57/36 38/56/38 40/62/40
f  42/61/42 40/62/40 38/56/38
f  43/63/43 44/64/44 45/65/45
f  46/66/46 45/65/45 44/64/44
f  47/67/47 43/63/43 48/68/48
f  45/65/45 48/68/48 43/63/43
f  49/69/49 47/67/47 50/70/50
f  48/68/48 50/70/50 47/67/47
f  44/71/44 49/69/49 46/72/46
f  50/70/50 46/72/46 49/69/49
f  45/65/45 46/66/46 51/73/51
f  52/74/52 51/73/51 46/66/46
f  48/68/48 45/65/45 53/75/53
f  51/73/51 53/75/53 45/65/45
f  50/70/50 48/68/48 54/76/54
f  53/75/53 54/76/54 48/68/48
f  46/72/46 50/70/50 52/77/52
f  54/76/54 52/77/52 50/70/50
f  51/73/51 52/74/52 55/78/55
f  56/79/56 55/78/55 52/74/52
f  53/75/53 51/73/51 57/80/57
f  55/78/55 57/80/57 51/73/51
f  54/76/54 53/75/53 58/81/58
f  57/80/57 58/81/58 53/75/53
f  52/77/52 54/76/54 56/82/56
f  58/81/58 56/82/56 54/76/54
f  55/78/55 56/79/56 27/83/27
f  28/84/28 27/83/27 56/79/56
f  57/80/57 55/78/55 31/85/31
f  27/83/27 31/85/31 55/78/55
f  58/81/58 57/80/57 33/86/33
f  31/85/31 33/86/33 57/80/57
f  56/82/56 58/81/58 28/87/28
f  33/86/33 28/87/28 58/81/58
f  43/63/43 59/88/59 44/64/44
f  60/89/60 44/64/44 59/88/59
f  47/67/47 61/90/61 43/63/43
f  59/88/59 43/63/43 61/90/61
f  49/69/49 62/91/62 47/67/47
f  61/90/61 47/67/47 62/91/62
f  44/71/44 60/92/60 49/69/49
f  62/91/62 49/69/49 60/92/60
f  63/43/63 64/44/64 59/45/59
f  60/46/60 59/45/59 64/44/64
f  65/47/65 63/43/63 61/48/61
f  59/45/59 61/48/61 63/43/63
f  66/49/66 65/47/65 62/50/62
f  61/48/61 62/50/62 65/47/65
f  64/51/64 66/49/66 60/52/60
f  62/50/62 60/52/60 66/49/66
f  67/63/67 68/64/68 69/65/69
f  70/66/70 69/65/69 68/64/68
f  71/67/71 67/63/67 72/68/72
f  69/65/69 72/68/72 67/63/67
f  73/69/73 71/67/71 74/70/74
f  72/68/72 74/70/74 71/67/71
f  68/71/68 73/69/73 70/72/70
f  74/70/74 70/72/70 73/69/73
f  69/65/69 70/66/70 75/73/75
f  76/74/76 75/73/75 70/66/70
f  72/68/72 69/65/69 77/75/77
f  75/73/75 77/75/77 69/65/69
f  74/70/74 72/68/72 78/76/78
f  77/75/77 78/76/78 72/68/72
f  70/72/70 74/70/74 76/77/76
f  78/76/78 76/77/76 74/70/74
f  75/73/75 76/74/76 79/78/79
f  80/79/80 79/78/79 76/74/76
f  77/75/77 75/73/75 81/80/81
f  79/78/79 81/80/81 75/73/75
f  78/76/78 77/75/77 82/81/82
f  81/80/81 82/81/82 77/75/77
f  76/77/76 78/76/78 80/82/80
f  82/81/82 80/82/80 78/76/78
f  79/78/79 80/79/80 63/83/63
f  64/84/64 63/83/63 80/79/80
f  81/80/81 79/78/79 65/85/65
f  63/83/63 65/85/65 79/78/79
f  82/81/82 81/80/81 66/86/66
f  65/85/65 66/86/66 81/80/81
f  80/82/80 82/81/82 64/87/64
f  66/86/66 64/87/64 82/81/82
f  67/63/67 83/93/83 68/64/68
f  84/94/84 68/64/68 83/93/83
f  71/67/71 85/95/85 67/63/67
f  83/93/83 67/63/67 85/95/85
f  73/69/73 86/96/86 71/67/71
f  85/95/85 71/67/71 86/96/86
f  68/71/68 84/97/84 73/69/73
f  86/96/86 73/69/73 84/97/84
f  84/94/84 87/98/87 88/99/88
f  89/100/89 87/98/87 83/93/83
f  83/93/83 87/98/87 84/94/84
f  90/101/90 87/98/87 89/100/89
f  88/99/88 87/98/87 90/101/90
f  83/93/83 91/102/91 89/100/89
f  92/103/92 91/102/91 85/95/85
f  85/95/85 91/102/91 83/93/83
f  90/104/90 91/102/91 92/103/92
f  89/100/89 91/102/91 90/104/90
f  90/105/90 93/106/93 88/107/88
f  94/108/94 93/106/93 90/105/90
f  86/96/86 93/106/93 94/108/94
f  88/107/88 93/106/93 84/97/84
f  84/97/84 93/106/93 86/96/86
f  85/95/85 95/109/95 92/103/92
f  94/108/94 95/109/95 86/96/86
f  86/96/86 95/109/95 85/95/85
f  90/110/90 95/109/95 94/108/94
f  92/103/92 95/109/95 90/110/90

