# File produced by Open Asset Import Library (http://www.assimp.sf.net)
# (assimp v5.2.3369795085)

mtllib 56.X.mtl

# 78 vertex positions
v  -14.8813553 142.257523 10.862361
v  -16.9633598 141.763184 10.9742603
v  -17.4199028 146.783966 11.6558809
v  -16.8388901 141.728653 11.5509777
v  -20.3337479 148.752914 12.3856659
v  -19.7892952 146.20755 11.9765053
v  -19.7276993 146.19046 12.2630348
v  -18.4535522 141.311813 11.8548813
v  -18.5716019 141.345062 11.3079834
v  -0.54486084 18.8514156 0.585024834
v  1.8571701 18.8897972 0.545198441
v  -0.352294922 18.7973804 1.4777956
v  -4.77866364 70.6916504 4.23110676
v  -2.80647278 42.5245247 2.25345516
v  -4.56491852 70.6324158 5.22059917
v  -2.57554626 42.4599075 3.32416916
v  -2.45402527 18.7195282 2.06068516
v  -2.70454407 18.7895927 0.899971008
v  -0.444297791 42.5723076 1.81777573
v  -2.75653839 70.8541641 3.80444908
v  1.7397995 42.5890388 1.85260868
v  -0.355613708 71.064682 3.83061314
v  -0.264633179 42.5126915 2.79843998
v  -2.59087372 70.8123474 4.86633778
v  -14.3772774 125.941483 9.35011959
v  -8.64450073 99.7033844 6.66920185
v  -14.1934433 125.890045 10.2020245
v  -8.4472847 99.6492462 7.58070087
v  -6.80781555 100.0513 6.2783041
v  -12.772438 126.212601 8.99363041
v  -4.56164551 100.426834 6.31935692
v  -10.5872803 126.950119 9.04878712
v  -6.62268066 99.9890289 7.25269079
v  -12.5761795 126.157761 9.9030323
v  -3.13474274 18.261734 0.760263443
v  -2.78911591 18.1803226 2.33841705
v  -3.11766815 22.709074 0.994207382
v  -2.77211761 22.6277351 2.57231045
v  1.78553009 18.2170734 -0.298475266
v  1.80259705 22.6643486 -0.0646028519
v  2.13097382 18.1356544 1.27978516
v  2.14810944 22.5829315 1.51364517
v  -4.83634949 -28.0496941 -0.597243309
v  -2.76006317 -28.1823807 -1.0239563
v  -5.75989532 -26.679142 0.848398209
v  -1.3325119 -26.9982338 -0.0875692368
v  -1.77590179 -26.8878059 -2.171525
v  -6.20331573 -26.5686531 -1.23540592
v  -3.66690063 18.2320919 0.667355537
v  -3.6100235 3.58012486 -0.155342102
v  -3.2233963 18.1215324 2.75120926
v  -3.16654205 3.46977234 1.92845535
v  1.91973877 18.244875 -0.491184235
v  1.0654068 3.51946354 -1.13872242
v  2.36309814 18.1345863 1.59271049
v  1.50862885 3.40890312 0.945115089
v  -4.13098907 -11.1354656 1.33254814
v  -4.57434845 -11.0251064 -0.75134182
v  0.052192688 -11.1209297 -1.71658421
v  0.495567322 -11.2314224 0.36729908
v  6.10874176 16.5201912 4.24223518
v  6.75447083 16.7540569 -0.58782959
v  6.13452148 18.0277462 4.31867599
v  6.78030396 18.2614746 -0.511408806
v  4.44190216 18.5305099 -5.02958584
v  4.41614532 17.022953 -5.1059618
v  -7.94435883 17.0837593 -2.12523556
v  -8.29489517 16.8534279 2.54041767
v  -7.91858673 18.5912457 -2.04879856
v  -8.26892853 18.3607826 2.61674118
v  -5.99197388 18.1078415 6.83932495
v  -6.01766968 16.6002808 6.76300335
v  -1.7350235 17.1095276 -4.73256969
v  -1.7091217 18.6169491 -4.65622997
v  0.564338684 18.0227585 6.29943657
v  0.538360596 16.515337 6.22304249
v  -0.533485413 18.3096352 1.00885773
v  -0.55947113 16.8022842 0.932467461

# 114 UV coordinates
vt 0.281489998 0.670230031 0
vt 0.281489998 0.829460025 0
vt 0.122649997 0.829460025 0
vt 0.0234500002 0.985080004 0
vt 0.122649997 0.985080004 0
vt 0.281489998 0.985080004 0
vt 0.181209996 0.254530013 0
vt 0.186519995 0.175930023 0
vt 0.200949997 0.254310012 0
vt 0.375180006 0.986079991 0
vt 0.966820002 0.986090004 0
vt 1.10720003 0.986090004 0
vt 1.10720003 0.83039999 0
vt 0.375239998 0.830540001 0
vt 0.966820002 0.83039999 0
vt 0.375200003 0.671119988 0
vt 1.10720003 0.671380043 0
vt 0.966820002 0.671380043 0
vt 0.75387001 0.985080004 0
vt 0.280930012 0.985080004 0
vt 0.75387001 0.829460025 0
vt 0.280930012 0.829460025 0
vt 0.75387001 0.670230031 0
vt 0.280930012 0.670230031 0
vt 0.177289993 0.327109993 0
vt 0.205500007 0.326820016 0
vt 0.0404499993 0.541190028 0
vt 0.149100006 0.541190028 0
vt 0.0404499993 0.61748004 0
vt 0.149100006 0.61748004 0
vt 0.17024 0.172630012 0
vt 0.211620003 0.172029972 0
vt 0.171299994 0.339919984 0
vt 0.212679997 0.339320004 0
vt 0.995630026 0.102670014 0
vt 0.995630026 0.0823199749 0
vt 0.977729976 0.123660028 0
vt 0.977729976 0.0592399836 0
vt 0.428030014 0.256269991 0
vt 0.762040019 0.256269991 0
vt 0.428030014 0.35461998 0
vt 0.762040019 0.35461998 0
vt 0.40347001 0.00928997993 0
vt 0.734329998 0.0104699731 0
vt 0.402810007 0.243040025 0
vt 0.734430015 0.239660025 0
vt 0.462630004 0.355870008 0
vt 0.643019974 0.353380024 0
vt 0.462630004 0.25752002 0
vt 0.643019974 0.255029976 0
vt 0.405809999 0.243040025 0
vt 0.737749994 0.239660025 0
vt 0.406470001 0.00928997993 0
vt 0.745289981 0.0104699731 0
vt 0.990859985 0.352129996 0
vt 0.647759974 0.353380024 0
vt 0.994019985 0.253780007 0
vt 0.647759974 0.255029976 0
vt 0.895500004 0.255029976 0
vt 0.895500004 0.353380024 0
vt 0.993669987 0.245299995 0
vt 0.682820022 0.239099979 0
vt 0.993600011 0.0070400238 0
vt 0.676919997 0.00822001696 0
vt 0.86897999 0.0072799921 0
vt 0.865059972 0.242850006 0
vt 0.598659992 0.00876998901 0
vt 0.598510027 0.241190016 0
vt 0.888580024 0.350610018 0
vt 0.888580024 0.252260029 0
vt 0.641629994 0.350610018 0
vt 0.641629994 0.252260029 0
vt 0.340539992 0.339969993 0
vt 0.340759993 0.264020026 0
vt 0.30735001 0.337329984 0
vt 0.311839998 0.261439979 0
vt 0.31110999 0.260020018 0
vt 0.341470003 0.261889994 0
vt 0.308149993 0.338819981 0
vt 0.341129988 0.341939986 0
vt 0.340220004 0.264590025 0
vt 0.338910013 0.343020022 0
vt 0.311349988 0.260580003 0
vt 0.30715999 0.33901 0
vt 0.305020005 0.33829999 0
vt 0.339630008 0.342310011 0
vt 0.310770005 0.259769976 0
vt 0.339540005 0.260819972 0
vt 0.339729995 0.263090014 0
vt 0.341670007 0.340529978 0
vt 0.311729997 0.261489987 0
vt 0.306939989 0.338639975 0
vt 0.339419991 0.343079984 0
vt 0.307390004 0.339079976 0
vt 0.33792001 0.261749983 0
vt 0.311580002 0.260850012 0
vt 0.339329988 0.341440022 0
vt 0.340440005 0.260839999 0
vt 0.307289988 0.339250028 0
vt 0.311569989 0.260749996 0
vt 0.307249993 0.338310003 0
vt 0.340530008 0.340749979 0
vt 0.311010003 0.259729981 0
vt 0.339179993 0.260209978 0
vt 0.335429996 0.444270015 0
vt 0.341749996 0.259509981 0
vt 0.195969999 0.520959973 0
vt 0.186489999 0.257969975 0
vt 0.189019993 0.00976997614 0
vt 0.325560004 0.0630099773 0
vt 0.0569300018 0.468529999 0
vt 0.023 0.264490008 0
vt 0.0482000001 0.0674399734 0
vt 0.186489999 0.258170009 0

# 78 vertex normals
vn 0.622971892 0.266112804 -0.116745248
vn -0.101939417 0.064717643 -0.676727176
vn 0.446346521 0.51865381 -0.0656690449
vn 0.182917535 -0.0123743489 0.662516177
vn -0.310917258 0.604857326 0.100087747
vn -0.558954358 -0.0663780198 -0.394592881
vn -0.351555496 -0.120977983 0.578197658
vn -0.362051606 -0.151093349 0.564472318
vn -0.564444542 -0.0970017835 -0.380174279
vn -0.0327971503 -0.445850253 -0.522189081
vn 0.570418179 -0.356924117 -0.140597507
vn 0.17173931 -0.500938058 0.438299268
vn -0.571061671 -0.0287154503 -0.381580323
vn -0.567361236 0.00226932019 -0.388117969
vn -0.373350263 -0.080440864 0.571557879
vn -0.362505615 -0.0504469313 0.581879973
vn -0.286275089 -0.426312268 0.456994504
vn -0.458363712 -0.380023032 -0.343547285
vn -0.0558074415 0.0395287983 -0.684004843
vn -0.0696995333 0.0455998033 -0.682350576
vn 0.671553135 0.0295311548 -0.143818706
vn 0.667313695 0.0837060511 -0.142215103
vn 0.226750627 -0.0328445323 0.64810878
vn 0.210956484 -0.0268532168 0.653694093
vn -0.562542379 -0.0937771872 -0.383785695
vn -0.566408575 -0.0638487488 -0.384244978
vn -0.359940797 -0.147313654 0.566816509
vn -0.365023941 -0.115862891 0.570852757
vn -0.0721947551 0.0511133894 -0.68170011
vn -0.081036225 0.0578687452 -0.680164635
vn 0.659995914 0.136664778 -0.135157868
vn 0.647152662 0.19373855 -0.127272367
vn 0.210120678 -0.0215545259 0.654159248
vn 0.203072876 -0.0175791923 0.656499863
vn -0.476300687 -0.375302106 -0.323767662
vn -0.308048576 -0.416261286 0.452075362
vn -0.467589796 0.417041063 -0.282800287
vn -0.299561888 0.37681973 0.490723073
vn 0.299577951 -0.376807809 -0.490722358
vn 0.308069646 0.416251719 -0.452069849
vn 0.467564315 -0.417053223 0.282824636
vn 0.476289421 0.375298142 0.323788822
vn -0.197800592 -0.658037722 -0.0200191494
vn 0.107927948 -0.674328089 -0.0785657167
vn -0.373266816 -0.243669763 0.523293853
vn 0.508017838 -0.312660098 0.341615379
vn 0.327447891 -0.256697714 -0.547196209
vn -0.561158717 -0.189078987 -0.349126816
vn -0.577439487 0.0189272482 -0.372484803
vn -0.571259916 0.0362153128 -0.380644321
vn -0.37782827 -0.0336581096 0.573282242
vn -0.368593395 -0.0167133231 0.579999268
vn 0.384921551 0.00270924717 -0.569532812
vn 0.37538743 0.000132221729 -0.575867832
vn 0.580385149 -0.0494801253 0.365026474
vn 0.575702906 -0.0521510653 0.372002631
vn -0.370603055 0.0108222142 0.578857303
vn -0.571280181 0.0622234829 -0.37723574
vn 0.377998143 -0.0153584778 -0.573952198
vn 0.576279759 -0.0660557747 0.368887216
vn 0.417411566 -0.44097203 0.32225889
vn 0.509673417 -0.447292417 -0.112702958
vn 0.431666106 0.391619623 0.364469409
vn 0.524852216 0.438718051 -0.0677943677
vn 0.278217673 0.4330948 -0.455591261
vn 0.264060497 -0.394090682 -0.497497886
vn -0.45060721 -0.392460883 -0.3398045
vn -0.519084811 -0.442278951 0.0864855647
vn -0.436358839 0.439952314 -0.297611296
vn -0.503768086 0.44881016 0.131630674
vn -0.254914254 0.393451989 0.502746224
vn -0.269044787 -0.433305025 0.460870028
vn -0.123318903 -0.433646083 -0.518924892
vn -0.107524641 0.487821162 -0.472237825
vn 0.113820314 0.439355314 0.516286194
vn 0.0978341997 -0.49292627 0.469032794
vn 0.0117608653 0.686433494 0.034787599
vn -0.0117647797 -0.686433256 -0.0347916894

# Mesh '' with 138 faces
usemtl katana
f  1/1/1 2/2/2 3/3/3
f  1/1/1 3/3/3 4/2/4
f  5/4/5 6/5/6 7/5/7
f  5/4/5 3/3/3 6/5/6
f  5/4/5 7/5/7 3/3/3
f  4/2/4 7/5/7 8/6/8
f  4/2/4 3/3/3 7/5/7
f  9/6/9 6/5/6 2/2/2
f  2/2/2 6/5/6 3/3/3
f  10/7/10 11/8/11 12/9/12
f  7/5/7 6/5/6 8/6/8
f  8/6/8 6/5/6 9/6/9
f  13/10/13 14/11/14 15/10/15
f  15/10/15 14/11/14 16/11/16
f  16/10/16 14/10/14 17/12/17
f  17/12/17 14/10/14 18/12/18
f  18/12/18 14/10/14 10/13/10
f  10/13/10 14/10/14 19/14/19
f  19/15/19 14/11/14 20/14/20
f  20/14/20 14/11/14 13/10/13
f  19/14/19 21/16/21 10/13/10
f  10/13/10 21/16/21 11/17/11
f  21/18/21 19/15/19 22/16/22
f  22/16/22 19/15/19 20/14/20
f  11/17/11 21/16/21 12/13/12
f  12/13/12 21/16/21 23/14/23
f  21/18/21 22/16/22 23/15/23
f  23/15/23 22/16/22 24/14/24
f  23/14/23 16/10/16 12/13/12
f  12/13/12 16/10/16 17/12/17
f  23/15/23 24/14/24 16/11/16
f  16/11/16 24/14/24 15/10/15
f  25/10/25 26/11/26 27/10/27
f  27/10/27 26/11/26 28/11/28
f  28/10/28 26/10/26 15/11/15
f  15/11/15 26/10/26 13/11/13
f  26/10/26 29/14/29 13/11/13
f  13/11/13 29/14/29 20/15/20
f  29/15/29 26/11/26 30/14/30
f  30/14/30 26/11/26 25/10/25
f  20/15/20 29/14/29 22/18/22
f  22/18/22 29/14/29 31/16/31
f  29/15/29 30/14/30 31/18/31
f  31/18/31 30/14/30 32/16/32
f  22/18/22 31/16/31 24/15/24
f  24/15/24 31/16/31 33/14/33
f  33/15/33 31/18/31 34/14/34
f  34/14/34 31/18/31 32/16/32
f  24/15/24 33/14/33 15/11/15
f  15/11/15 33/14/33 28/10/28
f  28/11/28 33/15/33 27/10/27
f  27/10/27 33/15/33 34/14/34
f  27/19/27 8/20/8 25/19/25
f  25/19/25 8/20/8 9/20/9
f  25/19/25 9/20/9 30/21/30
f  30/21/30 9/20/9 2/22/2
f  30/21/30 2/22/2 32/23/32
f  32/23/32 2/22/2 1/24/1
f  1/24/1 4/22/4 32/23/32
f  32/23/32 4/22/4 34/21/34
f  34/21/34 4/22/4 27/19/27
f  27/19/27 4/22/4 8/20/8
f  18/25/18 10/7/10 17/26/17
f  17/26/17 10/7/10 12/9/12
f  35/27/35 36/28/36 37/29/37
f  37/29/37 36/28/36 38/30/38
f  39/27/39 35/28/35 40/29/40
f  40/29/40 35/28/35 37/30/37
f  41/27/41 39/28/39 42/29/42
f  42/29/42 39/28/39 40/30/40
f  36/27/36 41/28/41 38/29/38
f  38/29/38 41/28/41 42/30/42
f  39/31/39 41/32/41 35/33/35
f  35/33/35 41/32/41 36/34/36
f  37/27/37 38/28/38 40/29/40
f  40/29/40 38/28/38 42/30/42
f  43/35/43 44/36/44 45/37/45
f  46/38/46 45/37/45 44/36/44
f  44/36/44 43/35/43 47/38/47
f  48/37/48 47/38/47 43/35/43
f  48/37/48 43/35/43 45/37/45
f  46/38/46 44/36/44 47/38/47
f  49/39/49 50/40/50 51/41/51
f  52/42/52 51/41/51 50/40/50
f  53/43/53 54/44/54 49/45/49
f  50/46/50 49/45/49 54/44/54
f  55/47/55 56/48/56 53/49/53
f  54/50/54 53/49/53 56/48/56
f  51/51/51 52/52/52 55/53/55
f  56/54/56 55/53/55 52/52/52
f  45/55/45 57/56/57 48/57/48
f  58/58/58 48/57/48 57/56/57
f  58/59/58 57/60/57 50/50/50
f  52/48/52 50/50/50 57/60/57
f  48/61/48 58/62/58 47/63/47
f  59/64/59 47/63/47 58/62/58
f  59/65/59 58/66/58 54/67/54
f  50/68/50 54/67/54 58/66/58
f  47/57/47 59/58/59 46/55/46
f  60/56/60 46/55/46 59/58/59
f  60/69/60 59/70/59 56/71/56
f  54/72/54 56/71/56 59/70/59
f  46/63/46 60/64/60 45/61/45
f  57/62/57 45/61/45 60/64/60
f  57/66/57 60/65/60 52/68/52
f  56/67/56 52/68/52 60/65/60
f  61/73/61 62/74/62 63/75/63
f  64/76/64 63/75/63 62/74/62
f  64/77/64 62/78/62 65/79/65
f  66/80/66 65/79/65 62/78/62
f  67/81/67 68/82/68 69/83/69
f  70/84/70 69/83/69 68/82/68
f  70/85/70 68/86/68 71/87/71
f  72/88/72 71/87/71 68/86/68
f  66/89/66 73/90/73 65/91/65
f  74/92/74 65/91/65 73/90/73
f  74/93/74 73/94/73 69/95/69
f  67/96/67 69/95/69 73/94/73
f  63/97/63 75/98/75 61/99/61
f  76/100/76 61/99/61 75/98/75
f  76/101/76 75/102/75 72/103/72
f  71/104/71 72/103/72 75/102/75
f  71/105/71 75/106/75 70/107/70
f  77/108/77 70/107/70 75/106/75
f  77/108/77 75/106/75 64/109/64
f  63/110/63 64/109/64 75/106/75
f  70/107/70 77/108/77 69/111/69
f  74/112/74 69/111/69 77/108/77
f  74/112/74 77/108/77 65/113/65
f  64/109/64 65/113/65 77/108/77
f  67/111/67 73/112/73 68/107/68
f  78/114/78 68/107/68 73/112/73
f  78/114/78 73/112/73 62/109/62
f  66/113/66 62/109/62 73/112/73
f  68/107/68 78/114/78 72/105/72
f  76/106/76 72/105/72 78/114/78
f  76/106/76 78/114/78 61/110/61
f  62/109/62 61/110/61 78/114/78

