# File produced by Open Asset Import Library (http://www.assimp.sf.net)
# (assimp v5.2.3369795085)

mtllib 58.X.mtl

# 44 vertex positions
v  -3.13474274 18.261734 0.760263443
v  -2.78911591 18.1803226 2.33841705
v  -3.11766815 22.709074 0.994207382
v  -2.77211761 22.6277351 2.57231045
v  1.78553009 18.2170734 -0.298475266
v  1.80259705 22.6643486 -0.0646028519
v  2.13097382 18.1356544 1.27978516
v  2.14810944 22.5829315 1.51364517
v  -4.83634949 -28.0496941 -0.597243309
v  -2.76006317 -28.1823807 -1.0239563
v  -5.75989532 -26.679142 0.848398209
v  -1.3325119 -26.9982338 -0.0875692368
v  -1.77590179 -26.8878059 -2.171525
v  -6.20331573 -26.5686531 -1.23540592
v  -3.66690063 18.2320919 0.667355537
v  -3.6100235 3.58012486 -0.155342102
v  -3.2233963 18.1215324 2.75120926
v  -3.16654205 3.46977234 1.92845535
v  1.91973877 18.244875 -0.491184235
v  1.0654068 3.51946354 -1.13872242
v  2.36309814 18.1345863 1.59271049
v  1.50862885 3.40890312 0.945115089
v  -4.13098907 -11.1354656 1.33254814
v  -4.57434845 -11.0251064 -0.75134182
v  0.052192688 -11.1209297 -1.71658421
v  0.495567322 -11.2314224 0.36729908
v  6.10874176 16.5201912 4.24223518
v  6.75447083 16.7540569 -0.58782959
v  6.13452148 18.0277462 4.31867599
v  6.78030396 18.2614746 -0.511408806
v  4.44190216 18.5305099 -5.02958584
v  4.41614532 17.022953 -5.1059618
v  -7.94435883 17.0837593 -2.12523556
v  -8.29489517 16.8534279 2.54041767
v  -7.91858673 18.5912457 -2.04879856
v  -8.26892853 18.3607826 2.61674118
v  -5.99197388 18.1078415 6.83932495
v  -6.01766968 16.6002808 6.76300335
v  -1.7350235 17.1095276 -4.73256969
v  -1.7091217 18.6169491 -4.65622997
v  0.564338684 18.0227585 6.29943657
v  0.538360596 16.515337 6.22304249
v  -0.533485413 18.3096352 1.00885773
v  -0.55947113 16.8022842 0.932467461

# 88 UV coordinates
vt 0.0404499993 0.541190028 0
vt 0.149100006 0.541190028 0
vt 0.0404499993 0.61748004 0
vt 0.149100006 0.61748004 0
vt 0.17024 0.172630012 0
vt 0.211620003 0.172029972 0
vt 0.171299994 0.339919984 0
vt 0.212679997 0.339320004 0
vt 0.995630026 0.102670014 0
vt 0.995630026 0.0823199749 0
vt 0.977729976 0.123660028 0
vt 0.977729976 0.0592399836 0
vt 0.428030014 0.256269991 0
vt 0.762040019 0.256269991 0
vt 0.428030014 0.35461998 0
vt 0.762040019 0.35461998 0
vt 0.40347001 0.00928997993 0
vt 0.734329998 0.0104699731 0
vt 0.402810007 0.243040025 0
vt 0.734430015 0.239660025 0
vt 0.462630004 0.355870008 0
vt 0.643019974 0.353380024 0
vt 0.462630004 0.25752002 0
vt 0.643019974 0.255029976 0
vt 0.405809999 0.243040025 0
vt 0.737749994 0.239660025 0
vt 0.406470001 0.00928997993 0
vt 0.745289981 0.0104699731 0
vt 0.990859985 0.352129996 0
vt 0.647759974 0.353380024 0
vt 0.994019985 0.253780007 0
vt 0.647759974 0.255029976 0
vt 0.895500004 0.255029976 0
vt 0.895500004 0.353380024 0
vt 0.993669987 0.245299995 0
vt 0.682820022 0.239099979 0
vt 0.993600011 0.0070400238 0
vt 0.676919997 0.00822001696 0
vt 0.86897999 0.0072799921 0
vt 0.865059972 0.242850006 0
vt 0.598659992 0.00876998901 0
vt 0.598510027 0.241190016 0
vt 0.888580024 0.350610018 0
vt 0.888580024 0.252260029 0
vt 0.641629994 0.350610018 0
vt 0.641629994 0.252260029 0
vt 0.340539992 0.339969993 0
vt 0.340759993 0.264020026 0
vt 0.30735001 0.337329984 0
vt 0.311839998 0.261439979 0
vt 0.31110999 0.260020018 0
vt 0.341470003 0.261889994 0
vt 0.308149993 0.338819981 0
vt 0.341129988 0.341939986 0
vt 0.340220004 0.264590025 0
vt 0.338910013 0.343020022 0
vt 0.311349988 0.260580003 0
vt 0.30715999 0.33901 0
vt 0.305020005 0.33829999 0
vt 0.339630008 0.342310011 0
vt 0.310770005 0.259769976 0
vt 0.339540005 0.260819972 0
vt 0.339729995 0.263090014 0
vt 0.341670007 0.340529978 0
vt 0.311729997 0.261489987 0
vt 0.306939989 0.338639975 0
vt 0.339419991 0.343079984 0
vt 0.307390004 0.339079976 0
vt 0.33792001 0.261749983 0
vt 0.311580002 0.260850012 0
vt 0.339329988 0.341440022 0
vt 0.340440005 0.260839999 0
vt 0.307289988 0.339250028 0
vt 0.311569989 0.260749996 0
vt 0.307249993 0.338310003 0
vt 0.340530008 0.340749979 0
vt 0.311010003 0.259729981 0
vt 0.339179993 0.260209978 0
vt 0.335429996 0.444270015 0
vt 0.341749996 0.259509981 0
vt 0.195969999 0.520959973 0
vt 0.186489999 0.257969975 0
vt 0.189019993 0.00976997614 0
vt 0.325560004 0.0630099773 0
vt 0.0569300018 0.468529999 0
vt 0.023 0.264490008 0
vt 0.0482000001 0.0674399734 0
vt 0.186489999 0.258170009 0

# 44 vertex normals
vn -0.476300687 -0.375302106 -0.323767662
vn -0.308048576 -0.416261286 0.452075362
vn -0.467589796 0.417041063 -0.282800287
vn -0.299561888 0.37681973 0.490723073
vn 0.299577951 -0.376807809 -0.490722358
vn 0.308069646 0.416251719 -0.452069849
vn 0.467564315 -0.417053223 0.282824636
vn 0.476289421 0.375298142 0.323788822
vn -0.197800592 -0.658037722 -0.0200191494
vn 0.107927948 -0.674328089 -0.0785657167
vn -0.373266816 -0.243669763 0.523293853
vn 0.508017838 -0.312660098 0.341615379
vn 0.327447891 -0.256697714 -0.547196209
vn -0.561158717 -0.189078987 -0.349126816
vn -0.577439487 0.0189272482 -0.372484803
vn -0.571259916 0.0362153128 -0.380644321
vn -0.37782827 -0.0336581096 0.573282242
vn -0.368593395 -0.0167133231 0.579999268
vn 0.384921551 0.00270924717 -0.569532812
vn 0.37538743 0.000132221729 -0.575867832
vn 0.580385149 -0.0494801253 0.365026474
vn 0.575702906 -0.0521510653 0.372002631
vn -0.370603055 0.0108222142 0.578857303
vn -0.571280181 0.0622234829 -0.37723574
vn 0.377998143 -0.0153584778 -0.573952198
vn 0.576279759 -0.0660557747 0.368887216
vn 0.417411566 -0.44097203 0.32225889
vn 0.509673417 -0.447292417 -0.112702958
vn 0.431666106 0.391619623 0.364469409
vn 0.524852216 0.438718051 -0.0677943677
vn 0.278217673 0.4330948 -0.455591261
vn 0.264060497 -0.394090682 -0.497497886
vn -0.45060721 -0.392460883 -0.3398045
vn -0.519084811 -0.442278951 0.0864855647
vn -0.436358839 0.439952314 -0.297611296
vn -0.503768086 0.44881016 0.131630674
vn -0.254914254 0.393451989 0.502746224
vn -0.269044787 -0.433305025 0.460870028
vn -0.123318903 -0.433646083 -0.518924892
vn -0.107524641 0.487821162 -0.472237825
vn 0.113820314 0.439355314 0.516286194
vn 0.0978341997 -0.49292627 0.469032794
vn 0.0117608653 0.686433494 0.034787599
vn -0.0117647797 -0.686433256 -0.0347916894

# Mesh '' with 74 faces
usemtl katana
f  1/1/1 2/2/2 3/3/3
f  3/3/3 2/2/2 4/4/4
f  5/1/5 1/2/1 6/3/6
f  6/3/6 1/2/1 3/4/3
f  7/1/7 5/2/5 8/3/8
f  8/3/8 5/2/5 6/4/6
f  2/1/2 7/2/7 4/3/4
f  4/3/4 7/2/7 8/4/8
f  5/5/5 7/6/7 1/7/1
f  1/7/1 7/6/7 2/8/2
f  3/1/3 4/2/4 6/3/6
f  6/3/6 4/2/4 8/4/8
f  9/9/9 10/10/10 11/11/11
f  12/12/12 11/11/11 10/10/10
f  10/10/10 9/9/9 13/12/13
f  14/11/14 13/12/13 9/9/9
f  14/11/14 9/9/9 11/11/11
f  12/12/12 10/10/10 13/12/13
f  15/13/15 16/14/16 17/15/17
f  18/16/18 17/15/17 16/14/16
f  19/17/19 20/18/20 15/19/15
f  16/20/16 15/19/15 20/18/20
f  21/21/21 22/22/22 19/23/19
f  20/24/20 19/23/19 22/22/22
f  17/25/17 18/26/18 21/27/21
f  22/28/22 21/27/21 18/26/18
f  11/29/11 23/30/23 14/31/14
f  24/32/24 14/31/14 23/30/23
f  24/33/24 23/34/23 16/24/16
f  18/22/18 16/24/16 23/34/23
f  14/35/14 24/36/24 13/37/13
f  25/38/25 13/37/13 24/36/24
f  25/39/25 24/40/24 20/41/20
f  16/42/16 20/41/20 24/40/24
f  13/31/13 25/32/25 12/29/12
f  26/30/26 12/29/12 25/32/25
f  26/43/26 25/44/25 22/45/22
f  20/46/20 22/45/22 25/44/25
f  12/37/12 26/38/26 11/35/11
f  23/36/23 11/35/11 26/38/26
f  23/40/23 26/39/26 18/42/18
f  22/41/22 18/42/18 26/39/26
f  27/47/27 28/48/28 29/49/29
f  30/50/30 29/49/29 28/48/28
f  30/51/30 28/52/28 31/53/31
f  32/54/32 31/53/31 28/52/28
f  33/55/33 34/56/34 35/57/35
f  36/58/36 35/57/35 34/56/34
f  36/59/36 34/60/34 37/61/37
f  38/62/38 37/61/37 34/60/34
f  32/63/32 39/64/39 31/65/31
f  40/66/40 31/65/31 39/64/39
f  40/67/40 39/68/39 35/69/35
f  33/70/33 35/69/35 39/68/39
f  29/71/29 41/72/41 27/73/27
f  42/74/42 27/73/27 41/72/41
f  42/75/42 41/76/41 38/77/38
f  37/78/37 38/77/38 41/76/41
f  37/79/37 41/80/41 36/81/36
f  43/82/43 36/81/36 41/80/41
f  43/82/43 41/80/41 30/83/30
f  29/84/29 30/83/30 41/80/41
f  36/81/36 43/82/43 35/85/35
f  40/86/40 35/85/35 43/82/43
f  40/86/40 43/82/43 31/87/31
f  30/83/30 31/87/31 43/82/43
f  33/85/33 39/86/39 34/81/34
f  44/88/44 34/81/34 39/86/39
f  44/88/44 39/86/39 28/83/28
f  32/87/32 28/83/28 39/86/39
f  34/81/34 44/88/44 38/79/38
f  42/80/42 38/79/38 44/88/44
f  42/80/42 44/88/44 27/84/27
f  28/83/28 27/84/27 44/88/44

