# File produced by Open Asset Import Library (http://www.assimp.sf.net)
# (assimp v5.2.3369795085)

mtllib 80.X.mtl

# 62 vertex positions
v  16.0709991 70.9039001 22.1198006
v  0 59.8891983 0
v  0 70.9039001 27.3416004
v  26.0034008 70.9039001 8.44900036
v  26.0034008 70.9039001 -8.44900036
v  16.0709991 70.9039001 -22.1198006
v  0 70.9039001 -27.3416004
v  -16.0709991 70.9039001 -22.1198006
v  -26.0034008 70.9039001 -8.44900036
v  -26.0034008 70.9039001 8.44900036
v  -16.0709991 70.9039001 22.1198006
v  0 0.0295000002 17.8050003
v  0 0.0295000002 0
v  10.4654999 0.0295000002 14.4046001
v  16.9335995 0.0295000002 5.50209999
v  16.9335995 0.0295000002 -5.50209999
v  10.4654999 0.0295000002 -14.4046001
v  0 0.0295000002 -17.8050003
v  -10.4654999 0.0295000002 -14.4046001
v  -16.9335995 0.0295000002 -5.50209999
v  -16.9335995 0.0295000002 5.50209999
v  -10.4654999 0.0295000002 14.4046001
v  16.0709991 9.95569992 22.1198006
v  0 9.95569992 27.3416004
v  26.0034008 9.95569992 8.44900036
v  26.0034008 9.95569992 -8.44900036
v  16.0709991 9.95569992 -22.1198006
v  0 9.95569992 -27.3416004
v  -16.0709991 9.95569992 -22.1198006
v  -26.0034008 9.95569992 -8.44900036
v  -26.0034008 9.95569992 8.44900036
v  -16.0709991 9.95569992 22.1198006
v  0 62.0527992 19.9692993
v  11.7376003 62.0527992 16.1555004
v  16.0709991 50.2324982 22.1198006
v  0 50.2324982 27.3416004
v  18.9918995 62.0527992 6.17080021
v  26.0034008 50.2324982 8.44900036
v  18.9918995 62.0527992 -6.17080021
v  26.0034008 50.2324982 -8.44900036
v  11.7376003 62.0527992 -16.1555004
v  16.0709991 50.2324982 -22.1198006
v  0 62.0527992 -19.9692993
v  0 50.2324982 -27.3416004
v  -11.7376003 62.0527992 -16.1555004
v  -16.0709991 50.2324982 -22.1198006
v  -18.9918995 62.0527992 -6.17080021
v  -26.0034008 50.2324982 -8.44900036
v  -18.9918995 62.0527992 6.17080021
v  -26.0034008 50.2324982 8.44900036
v  -11.7376003 62.0527992 16.1555004
v  -16.0709991 50.2324982 22.1198006
v  0 32.2831001 31.1273003
v  18.2961998 32.2831001 25.1825008
v  29.6037998 32.2831001 9.6189003
v  29.6037998 32.2831001 -9.6189003
v  18.2961998 32.2831001 -25.1825008
v  0 32.2831001 -31.1273003
v  -18.2961998 32.2831001 -25.1825008
v  -29.6037998 32.2831001 -9.6189003
v  -29.6037998 32.2831001 9.6189003
v  -18.2961998 32.2831001 25.1825008

# 88 UV coordinates
vt 0.565439999 0.122359991 0
vt 0.484160006 0.255079985 0
vt 0.484160006 0.0910300016 0
vt 0.615670025 0.204379976 0
vt 0.615670025 0.30576998 0
vt 0.565439999 0.387790024 0
vt 0.484160006 0.419120014 0
vt 0.402880013 0.387790024 0
vt 0.352640003 0.30576998 0
vt 0.352640003 0.204379976 0
vt 0.402880013 0.122359991 0
vt 0.466349989 0.0607100129 0
vt 0.466349989 0.244159997 0
vt 0.574180007 0.0957499743 0
vt 0.640820026 0.187470019 0
vt 0.640820026 0.300849974 0
vt 0.574180007 0.392570019 0
vt 0.466349989 0.42760998 0
vt 0.358520001 0.392570019 0
vt 0.291880012 0.300849974 0
vt 0.291880012 0.187470019 0
vt 0.358520001 0.0957499743 0
vt 0.100000001 0 0
vt 0.100000001 0.140049994 0
vt 0 0 0
vt 0 0.140049994 0
vt 0.200000003 0 0
vt 0.200000003 0.140049994 0
vt 0.300000012 0 0
vt 0.300000012 0.140049994 0
vt 0.400000006 0 0
vt 0.400000006 0.140049994 0
vt 0.5 0 0
vt 0.5 0.140049994 0
vt 0.600000024 0 0
vt 0.600000024 0.140049994 0
vt 0.699999988 0 0
vt 0.699999988 0.140049994 0
vt 0.800000012 0 0
vt 0.800000012 0.140049994 0
vt 0.899999976 0 0
vt 0.899999976 0.140049994 0
vt 1 0 0
vt 1 0.140049994 0
vt 0 1 0
vt 0 0.875119984 0
vt 0.100000001 1 0
vt 0.100000001 0.875119984 0
vt 0.100000001 0.708339989 0
vt 0 0.708339989 0
vt 0.200000003 1 0
vt 0.200000003 0.875119984 0
vt 0.200000003 0.708339989 0
vt 0.300000012 1 0
vt 0.300000012 0.875119984 0
vt 0.300000012 0.708339989 0
vt 0.400000006 1 0
vt 0.400000006 0.875119984 0
vt 0.400000006 0.708339989 0
vt 0.5 1 0
vt 0.5 0.875119984 0
vt 0.5 0.708339989 0
vt 0.600000024 1 0
vt 0.600000024 0.875119984 0
vt 0.600000024 0.708339989 0
vt 0.699999988 1 0
vt 0.699999988 0.875119984 0
vt 0.699999988 0.708339989 0
vt 0.800000012 1 0
vt 0.800000012 0.875119984 0
vt 0.800000012 0.708339989 0
vt 0.899999976 1 0
vt 0.899999976 0.875119984 0
vt 0.899999976 0.708339989 0
vt 1 1 0
vt 1 0.875119984 0
vt 1 0.708339989 0
vt 0 0.455079973 0
vt 0.100000001 0.455079973 0
vt 0.200000003 0.455079973 0
vt 0.300000012 0.455079973 0
vt 0.400000006 0.455079973 0
vt 0.5 0.455079973 0
vt 0.600000024 0.455079973 0
vt 0.699999988 0.455079973 0
vt 0.800000012 0.455079973 0
vt 0.899999976 0.455079973 0
vt 1 0.455079973 0

# 82 vertex normals
vn -0.21963951 0.927560627 -0.302307338
vn -1.8671098e-09 1 7.07407258e-11
vn 2.5841802e-09 0.927560687 -0.373672515
vn -0.355383843 0.927560627 -0.11547105
vn -0.355383903 0.927560627 0.115471058
vn -0.21963951 0.927560627 0.302307338
vn 2.5841802e-09 0.927560687 0.373672515
vn 0.21963951 0.927560627 0.302307338
vn 0.355383843 0.927560627 0.11547105
vn 0.355383903 0.927560627 -0.115471058
vn 0.21963951 0.927560627 -0.302307338
vn 8.03368152e-07 -0.891003549 0.45399639
vn 0 -1 0
vn 0.266851962 -0.891002595 0.367293388
vn 0.431777954 -0.891002357 0.140294746
vn 0.431777745 -0.891002595 -0.140293866
vn 0.266851395 -0.891003072 -0.367292613
vn -8.02165005e-07 -0.891003549 -0.45399636
vn -0.266851962 -0.891002595 -0.367293388
vn -0.431777954 -0.891002357 -0.140294746
vn -0.431777745 -0.891002595 0.140293866
vn -0.266851395 -0.891003072 0.367292613
vn 0.531198204 -0.428107947 0.73113066
vn 3.91522633e-07 -0.428107828 0.903727651
vn 0.859496534 -0.428107262 0.279266775
vn 0.859496772 -0.428106934 -0.279266536
vn 0.531198442 -0.428107351 -0.731130838
vn -3.92888666e-07 -0.428107888 -0.903727651
vn -0.531198204 -0.428107947 -0.73113066
vn -0.859496534 -0.428107262 -0.279266775
vn -0.859496772 -0.428106934 0.279266536
vn -0.531198442 -0.428107351 0.731130838
vn -1.29596501e-07 -0.639999211 0.768375576
vn -2.19476405e-07 -0.639999211 0.768375516
vn 0.451640397 -0.640000403 0.621627271
vn 0.451639175 -0.640000522 0.621628046
vn 0.49873209 0.529205799 0.686445594
vn -2.08869821e-07 0.529204547 0.848494291
vn 0.547897637 0.36210379 0.754114747
vn 4.71180677e-08 0.362102926 0.932138145
vn 0.73076725 -0.640000939 0.237440661
vn 0.730767429 -0.640000939 0.237440005
vn 0.806965172 0.529206276 0.26219821
vn 0.886515915 0.36210376 0.288045883
vn 0.73076725 -0.640000939 -0.237440661
vn 0.730767429 -0.640000939 -0.23743999
vn 0.806965172 0.529206276 -0.26219815
vn 0.886515915 0.36210376 -0.288045883
vn 0.451640248 -0.640000463 -0.621627271
vn 0.451639056 -0.640000343 -0.621628284
vn 0.498731971 0.52920568 -0.686445713
vn 0.547897577 0.362103969 -0.754114687
vn 1.29817664e-07 -0.639999211 -0.768375576
vn 2.20545559e-07 -0.639999211 -0.768375516
vn 2.05987547e-07 0.529204547 -0.848494291
vn -4.17788044e-08 0.362102926 -0.932138145
vn -0.451640397 -0.640000403 -0.621627271
vn -0.451639175 -0.640000522 -0.621628046
vn -0.49873209 0.529205799 -0.686445594
vn -0.547897637 0.36210379 -0.754114747
vn -0.73076725 -0.640000939 -0.237440661
vn -0.730767429 -0.640000939 -0.237440005
vn -0.806965172 0.529206276 -0.26219821
vn -0.886515915 0.36210376 -0.288045883
vn -0.73076725 -0.640000939 0.237440661
vn -0.730767429 -0.640000939 0.23743999
vn -0.806965172 0.529206276 0.26219815
vn -0.886515915 0.36210376 0.288045883
vn -0.451640248 -0.640000463 0.621627271
vn -0.451639056 -0.640000343 0.621628284
vn -0.498731971 0.52920568 0.686445713
vn -0.547897577 0.362103969 0.754114687
vn 1.37306998e-07 0.0192562956 0.99981457
vn 0.587676704 0.0192563683 0.80886668
vn 0.95088011 0.0192563031 0.308959842
vn 0.95088011 0.0192563012 -0.308959842
vn 0.587676823 0.0192563627 -0.80886656
vn -1.37097246e-07 0.0192562956 -0.99981457
vn -0.587676704 0.0192563683 -0.80886668
vn -0.95088011 0.0192563031 -0.308959842
vn -0.95088011 0.0192563012 0.308959842
vn -0.587676823 0.0192563627 0.80886656

# Mesh 'obj1' with 120 faces
g obj1
usemtl mat000
f  1/1/1 2/2/2 3/3/3
f  4/4/4 2/2/2 1/1/1
f  5/5/5 2/2/2 4/4/4
f  6/6/6 2/2/2 5/5/5
f  7/7/7 2/2/2 6/6/6
f  8/8/8 2/2/2 7/7/7
f  9/9/9 2/2/2 8/8/8
f  10/10/10 2/2/2 9/9/9
f  11/11/11 2/2/2 10/10/10
f  3/3/3 2/2/2 11/11/11
f  12/12/12 13/13/13 14/14/14
f  14/14/14 13/13/13 15/15/15
f  15/15/15 13/13/13 16/16/16
f  16/16/16 13/13/13 17/17/17
f  17/17/17 13/13/13 18/18/18
f  18/18/18 13/13/13 19/19/19
f  19/19/19 13/13/13 20/20/20
f  20/20/20 13/13/13 21/21/21
f  21/21/21 13/13/13 22/22/22
f  22/22/22 13/13/13 12/12/12
f  14/23/14 23/24/23 12/25/12
f  24/26/24 12/25/12 23/24/23
f  15/27/15 25/28/25 14/23/14
f  23/24/23 14/23/14 25/28/25
f  16/29/16 26/30/26 15/27/15
f  25/28/25 15/27/15 26/30/26
f  17/31/17 27/32/27 16/29/16
f  26/30/26 16/29/16 27/32/27
f  18/33/18 28/34/28 17/31/17
f  27/32/27 17/31/17 28/34/28
f  19/35/19 29/36/29 18/33/18
f  28/34/28 18/33/18 29/36/29
f  20/37/20 30/38/30 19/35/19
f  29/36/29 19/35/19 30/38/30
f  21/39/21 31/40/31 20/37/20
f  30/38/30 20/37/20 31/40/31
f  22/41/22 32/42/32 21/39/21
f  31/40/31 21/39/21 32/42/32
f  12/43/12 24/44/24 22/41/22
f  32/42/32 22/41/22 24/44/24
f  3/45/33 33/46/34 1/47/35
f  34/48/36 1/47/35 33/46/34
f  34/48/37 33/46/38 35/49/39
f  36/50/40 35/49/39 33/46/38
f  1/47/35 34/48/36 4/51/41
f  37/52/42 4/51/41 34/48/36
f  37/52/43 34/48/37 38/53/44
f  35/49/39 38/53/44 34/48/37
f  4/51/41 37/52/42 5/54/45
f  39/55/46 5/54/45 37/52/42
f  39/55/47 37/52/43 40/56/48
f  38/53/44 40/56/48 37/52/43
f  5/54/45 39/55/46 6/57/49
f  41/58/50 6/57/49 39/55/46
f  41/58/51 39/55/47 42/59/52
f  40/56/48 42/59/52 39/55/47
f  6/57/49 41/58/50 7/60/53
f  43/61/54 7/60/53 41/58/50
f  43/61/55 41/58/51 44/62/56
f  42/59/52 44/62/56 41/58/51
f  7/60/53 43/61/54 8/63/57
f  45/64/58 8/63/57 43/61/54
f  45/64/59 43/61/55 46/65/60
f  44/62/56 46/65/60 43/61/55
f  8/63/57 45/64/58 9/66/61
f  47/67/62 9/66/61 45/64/58
f  47/67/63 45/64/59 48/68/64
f  46/65/60 48/68/64 45/64/59
f  9/66/61 47/67/62 10/69/65
f  49/70/66 10/69/65 47/67/62
f  49/70/67 47/67/63 50/71/68
f  48/68/64 50/71/68 47/67/63
f  10/69/65 49/70/66 11/72/69
f  51/73/70 11/72/69 49/70/66
f  51/73/71 49/70/67 52/74/72
f  50/71/68 52/74/72 49/70/67
f  11/72/69 51/73/70 3/75/33
f  33/76/34 3/75/33 51/73/70
f  33/76/38 51/73/71 36/77/40
f  52/74/72 36/77/40 51/73/71
f  36/50/40 53/78/73 35/49/39
f  54/79/74 35/49/39 53/78/73
f  54/79/74 53/78/73 23/24/23
f  24/26/24 23/24/23 53/78/73
f  35/49/39 54/79/74 38/53/44
f  55/80/75 38/53/44 54/79/74
f  55/80/75 54/79/74 25/28/25
f  23/24/23 25/28/25 54/79/74
f  38/53/44 55/80/75 40/56/48
f  56/81/76 40/56/48 55/80/75
f  56/81/76 55/80/75 26/30/26
f  25/28/25 26/30/26 55/80/75
f  40/56/48 56/81/76 42/59/52
f  57/82/77 42/59/52 56/81/76
f  57/82/77 56/81/76 27/32/27
f  26/30/26 27/32/27 56/81/76
f  42/59/52 57/82/77 44/62/56
f  58/83/78 44/62/56 57/82/77
f  58/83/78 57/82/77 28/34/28
f  27/32/27 28/34/28 57/82/77
f  44/62/56 58/83/78 46/65/60
f  59/84/79 46/65/60 58/83/78
f  59/84/79 58/83/78 29/36/29
f  28/34/28 29/36/29 58/83/78
f  46/65/60 59/84/79 48/68/64
f  60/85/80 48/68/64 59/84/79
f  60/85/80 59/84/79 30/38/30
f  29/36/29 30/38/30 59/84/79
f  48/68/64 60/85/80 50/71/68
f  61/86/81 50/71/68 60/85/80
f  61/86/81 60/85/80 31/40/31
f  30/38/30 31/40/31 60/85/80
f  50/71/68 61/86/81 52/74/72
f  62/87/82 52/74/72 61/86/81
f  62/87/82 61/86/81 32/42/32
f  31/40/31 32/42/32 61/86/81
f  52/74/72 62/87/82 36/77/40
f  53/88/73 36/77/40 62/87/82
f  53/88/73 62/87/82 24/44/24
f  32/42/32 24/44/24 62/87/82

