# File produced by Open Asset Import Library (http://www.assimp.sf.net)
# (assimp v5.2.3369795085)

mtllib 01.x.mtl

# 29 vertex positions
v  1.11478293 92.6905289 1.67660153
v  21.2936993 94.8240891 13.9354372
v  2.40009046 92.6845322 -0.223499805
v  0.597688675 34.3943024 -1.25892878
v  12.4738569 33.8039398 8.16124439
v  -0.687618852 34.4002914 0.641172588
v  0.817171395 53.7554893 1.59804785
v  2.10247898 53.7494965 -0.302053481
v  15.0560389 53.0745125 9.84717846
v  1.24785602 73.1358948 1.82827389
v  2.53316355 73.1299057 -0.0718274042
v  15.7560701 72.4337616 10.2596693
v  15.7458401 91.79422 10.1917057
v  4.53382683 34.8408585 0.968084157
v  0.996562421 34.8573456 -1.42472053
v  2.77653027 34.8490524 3.56593847
v  -0.7607342 34.8655396 1.17313385
v  -3.65761352 -8.02982616 -4.43777418
v  0.919762433 -8.84296894 -1.33888304
v  -5.41491032 -8.02163506 -1.83991992
v  -0.837534189 -8.83477783 1.25897133
v  0.172111243 19.547924 -1.93414259
v  -1.58518541 19.5561142 0.663711727
v  2.43578482 19.3394718 3.38434625
v  4.19308138 19.3312798 0.786491871
v  -3.17681837 5.00877714 -0.36706689
v  -1.41952181 5.00058603 -2.96492124
v  1.0032779 4.29658222 2.46276951
v  2.76057458 4.28839111 -0.135084718

# 47 UV coordinates
vt 0.95776999 0.959580004 0
vt 0.973129988 0.582669973 0
vt 0.99119997 0.959630013 0
vt 0.921999991 0.994040012 0
vt 0.96043998 0.579020023 0
vt 0.992370009 0.992959976 0
vt 0.275700003 0.918470025 0
vt 0.275700003 0.966639996 0
vt 0.00505999988 0.918470025 0
vt 0.00505999988 0.966639996 0
vt 0.30599001 0.589810014 0
vt 0.319319993 0.969299972 0
vt 0.00668000011 0.583979964 0
vt 0.00527000008 0.974080026 0
vt 0.707989991 0.918470025 0
vt 0.707989991 0.966639996 0
vt 0.78591001 0.586589992 0
vt 0.785080016 0.972570002 0
vt 0.979260027 0.918470025 0
vt 0.979260027 0.966639996 0
vt 0.921320021 0.58908999 0
vt 0.994700015 0.97112 0
vt 0.997099996 0.585049987 0
vt 1.00146997 0.412230015 0
vt 0.977760017 0.408829987 0
vt 0.999629974 0.340430021 0
vt 0.977320015 0.342890024 0
vt 0.0027999999 0.514500022 0
vt 0.0027999999 0.320460021 0
vt 0.0665099993 0.514500022 0
vt 0.0665099993 0.320460021 0
vt 0.99891001 0.560180008 0
vt 0.687950015 0.560180008 0
vt 0.99891001 0.350419998 0
vt 0.687950015 0.350419998 0
vt 0.99879998 0.369189978 0
vt 0.687950015 0.369189978 0
vt 0.99879998 0.0968899727 0
vt 0.687950015 0.0947899818 0
vt 0.0684700012 0.350419998 0
vt 0.29497999 0.350419998 0
vt 0.0680600032 0.560180008 0
vt 0.29497999 0.560180008 0
vt 0.0684700012 0.0962100029 0
vt 0.29497999 0.0951399803 0
vt 0.0680600032 0.369189978 0
vt 0.29497999 0.369189978 0

# 29 vertex normals
vn -0.821400106 0.544166088 0.170836657
vn 0.811672568 0.200964093 0.548453331
vn -0.145609468 0.54107666 -0.828271627
vn -0.16012457 -0.539082289 -0.826892018
vn 0.656544209 -0.607191801 0.447512925
vn -0.828776956 -0.5354442 0.162567809
vn -0.970918894 0.0401810892 0.236012727
vn -0.142912656 0.0371603668 -0.989037454
vn 0.824618936 -0.0871252418 0.55893904
vn -0.973413765 0.0068179192 0.228952318
vn -0.149941266 0.00310419197 -0.988690019
vn 0.828031778 -0.0167383421 0.560431242
vn 0.502656519 -0.793772995 0.342433751
vn 0.809172511 0.568061352 -0.150153786
vn -0.134507939 0.593202472 -0.793737054
vn 0.163426504 0.571071208 0.804468393
vn -0.785042763 0.596234679 0.167964444
vn -0.234184712 -0.471082956 -0.850434244
vn 0.720856845 -0.660945296 -0.208606765
vn -0.87787652 -0.468082547 0.10115096
vn 0.0727089122 -0.657924175 0.749566019
vn -0.1761664 0.065444015 -0.982182503
vn -0.97699964 0.0691768527 0.201708511
vn 0.201481342 -0.0474065207 0.97834444
vn 0.982910931 -0.0510489196 -0.176861733
vn -0.971422493 0.117443107 0.20626539
vn -0.169720292 0.113706216 -0.978910565
vn 0.191845581 -0.0971890464 0.976601005
vn 0.977561057 -0.100851409 -0.184941396

# Mesh '' with 50 faces
usemtl PDX__
f  1/1/1 2/2/2 3/3/3
f  4/4/4 5/5/5 6/6/6
f  7/7/7 8/8/8 6/9/6
f  4/10/4 6/9/6 8/8/8
f  9/11/9 7/12/7 5/13/5
f  6/14/6 5/13/5 7/12/7
f  8/12/8 9/11/9 4/14/4
f  5/13/5 4/14/4 9/11/9
f  10/15/10 11/16/11 7/7/7
f  8/8/8 7/7/7 11/16/11
f  12/17/12 10/18/10 9/11/9
f  7/12/7 9/11/9 10/18/10
f  11/18/11 12/17/12 8/12/8
f  9/11/9 8/12/8 12/17/12
f  1/19/1 3/20/3 10/15/10
f  11/16/11 10/15/10 3/20/3
f  13/21/13 1/22/1 12/17/12
f  10/18/10 12/17/12 1/22/1
f  3/22/3 13/21/13 11/18/11
f  12/17/12 11/18/11 13/21/13
f  1/22/1 13/21/13 2/23/2
f  2/23/2 13/21/13 3/22/3
f  14/24/14 15/25/15 16/26/16
f  17/27/17 16/26/16 15/25/15
f  18/28/18 19/29/19 20/30/20
f  21/31/21 20/30/20 19/29/19
f  15/32/15 22/33/22 17/34/17
f  23/35/23 17/34/17 22/33/22
f  17/36/17 23/37/23 16/38/16
f  24/39/24 16/38/16 23/37/23
f  16/32/16 24/33/24 14/34/14
f  25/35/25 14/34/14 24/33/24
f  14/36/14 25/37/25 15/38/15
f  22/39/22 15/38/15 25/37/25
f  20/40/20 26/41/26 18/42/18
f  27/43/27 18/42/18 26/41/26
f  27/43/27 26/41/26 22/33/22
f  23/35/23 22/33/22 26/41/26
f  21/44/21 28/45/28 20/46/20
f  26/47/26 20/46/20 28/45/28
f  26/47/26 28/45/28 23/37/23
f  24/39/24 23/37/23 28/45/28
f  19/40/19 29/41/29 21/42/21
f  28/43/28 21/42/21 29/41/29
f  28/43/28 29/41/29 24/33/24
f  25/35/25 24/33/24 29/41/29
f  18/44/18 27/45/27 19/46/19
f  29/47/29 19/46/19 27/45/27
f  29/47/29 27/45/27 25/37/25
f  22/39/22 25/37/25 27/45/27

