# File produced by Open Asset Import Library (http://www.assimp.sf.net)
# (assimp v5.2.3369795085)

mtllib 04.X.mtl

# 123 vertex positions
v  -2.36846519 20.8802204 -1.5764004
v  6.0276351 20.8802204 -1.57639956
v  -3.26596522 14.5185204 -1.5764004
v  5.49373484 16.2162209 -1.57639968
v  -3.26596546 14.5185204 1.3093996
v  5.49373484 16.2162209 1.30940032
v  -2.36846542 20.8802204 1.3093996
v  6.02763462 20.8802204 1.30940044
v  -4.23506546 3.61212063 -1.57640052
v  1.74063504 3.61212063 -1.57640004
v  -4.23506546 3.61212063 1.30939949
v  1.7406348 3.61212063 1.30939996
v  -5.94146538 16.7527218 1.30939937
v  -5.62456512 19.6487217 1.30939937
v  -5.94146538 16.7527218 -1.57640064
v  -5.62456512 19.6487217 -1.57640064
v  -4.50576496 20.8889198 1.30939949
v  -4.27316475 15.9119205 1.30939949
v  -4.27316475 15.9119205 -1.57640052
v  -4.50576496 20.8889198 -1.57640052
v  -4.71636486 4.73182106 -1.57640052
v  2.18123507 4.73182106 -1.57639992
v  3.5822351 11.6782207 -1.5763998
v  -3.32796454 12.0135212 -1.5764004
v  -4.71636486 4.73182106 1.30939949
v  -3.32796478 12.0135212 1.3093996
v  2.18123484 4.73182106 1.30940008
v  3.58223486 11.6782207 1.3094002
v  4.59863472 13.0988207 -1.57639968
v  4.59863472 13.0988207 1.30940032
v  16.2721348 16.6008205 1.30940127
v  16.2721348 16.6008205 -1.57639873
v  16.775135 18.1371212 0.773901343
v  16.775135 18.1371212 -1.04089868
v  17.1427345 19.2452202 -1.57479858
v  22.9342346 18.1371212 -1.04089808
v  22.9342346 19.2452202 -1.57639813
v  22.9342346 20.8802204 -1.57639813
v  16.2721348 20.8802204 -1.57639873
v  16.2721348 20.8802204 1.30940127
v  17.1427345 19.2452202 1.30810142
v  22.9342346 20.8802204 1.30940187
v  22.9342346 19.2452202 1.30940187
v  22.9342346 18.1371212 0.77390188
v  11.2953348 20.8802204 -1.57639921
v  11.2953348 16.2162209 -1.57639921
v  11.2953348 16.2162209 1.3094008
v  11.2953348 20.8802204 1.3094008
v  12.4831352 16.6008205 -1.57639909
v  12.4831343 16.6008205 1.30940092
v  16.1820354 17.2174206 -0.906998694
v  16.1820354 17.2174206 0.640001297
v  22.9342346 17.2174206 0.640001893
v  22.9342346 17.2174206 -0.906998098
v  16.1820354 16.9287205 -0.143198684
v  22.9342346 16.9287205 -0.143198088
v  -2.36846542 21.5174217 -0.147900298
v  6.0276351 21.5174217 -0.147899568
v  16.2721348 21.5174217 -0.147898674
v  22.9342346 21.5174217 -0.147898093
v  11.2953348 21.5174217 -0.147899106
v  -1.81366527 20.2522202 -1.32550025
v  -1.81366527 22.3784218 -0.997000217
v  -1.81366551 20.2522202 1.14469981
v  -1.81366551 22.3784218 0.816099763
v  -2.26876545 20.2522202 -1.32550025
v  -2.26876545 22.3784218 -0.997000277
v  -2.26876545 20.2522202 1.14469981
v  -2.26876545 22.3784218 0.816099703
v  22.3400345 21.3431206 0.137101844
v  22.339735 21.9730206 0.137101844
v  21.2983341 21.3431206 0.137101755
v  21.2987347 22.10812 0.137101755
v  22.3400345 21.3431206 -0.317998141
v  22.339735 21.9730206 -0.317998141
v  21.298336 21.3431206 -0.31799823
v  21.2987347 22.10812 -0.31799823
v  10.5502348 14.9830208 0.683800817
v  10.5502348 14.9830208 -0.972599149
v  11.4069347 16.5459213 0.683800876
v  11.4069347 16.5459213 -0.972599089
v  10.3632345 13.1658211 0.683800817
v  10.3632345 13.1658211 -0.972599149
v  3.35313463 11.4471207 -0.972599804
v  4.92563486 12.0461206 -0.972599626
v  3.35313463 11.4471207 0.683800161
v  4.92563486 12.0461206 0.68380034
v  8.67423439 16.5459213 0.683800638
v  10.1598349 14.9650211 0.683800757
v  10.1598349 14.9650211 -0.972599208
v  8.67423534 16.5459213 -0.972599328
v  9.84693432 13.0766211 0.683800757
v  9.84693527 13.0766211 -0.972599208
v  9.4500351 12.2653208 0.683800697
v  8.79973507 12.1027212 0.683800638
v  9.4500351 12.2653208 -0.972599268
v  8.79973507 12.1027212 -0.972599328
v  9.98663521 12.6439209 -0.972599208
v  9.98663521 12.6439209 0.683800757
v  9.23733521 12.5488205 0.683800697
v  9.23733521 12.5488205 -0.972599268
v  3.35313463 14.9830208 0.683800161
v  6.76763487 15.7418213 0.683800459
v  3.35313463 16.5462208 0.683800161
v  6.01033449 16.3654213 0.683800399
v  3.35313463 16.5462208 -0.972599804
v  6.01033497 16.3654213 -0.972599566
v  3.35313463 14.9830208 -0.972599804
v  6.76763487 15.7418213 -0.972599506
v  3.35313463 12.9355211 0.683800161
v  6.57643461 14.1692209 0.683800459
v  3.35313463 12.9355211 -0.972599804
v  6.57643509 14.1692209 -0.972599506
v  6.94043493 12.0755215 -0.972599447
v  6.94043493 12.0755215 0.683800519
v  7.42073488 12.5577211 0.683800519
v  7.42073488 12.5577211 -0.972599447
v  6.91033459 19.6393204 1.35640049
v  11.1980343 19.6393204 1.35640085
v  6.91033459 20.9084206 1.35640049
v  11.1980343 20.9084206 1.35640085
v  6.91033459 21.2832203 0.536200464
v  11.196435 21.2832203 0.536200881

# 139 UV coordinates
vt 0.903900027 0.902580023 0
vt 0.69709003 0.902580023 0
vt 0.925999999 0.587000012 0
vt 0.710240006 0.690999985 0
vt -0.297030002 0.0741400123 0
vt -0.496390015 0.0741400123 0
vt -0.297030002 0.19619 0
vt -0.496390015 0.19619 0
vt 0.167270005 0.0103800297 0
vt 0.167270005 0.282589972 0
vt 0.00899 0.0103800297 0
vt 0.00899 0.282589972 0
vt 0.956539989 0.903010011 0
vt 0.950810015 0.652530015 0
vt 0.995500028 0.699630022 0
vt 0.987699986 0.834299982 0
vt 1.37162995 0.504480004 0
vt 1.37162995 0.562290013 0
vt 1.25189996 0.504480004 0
vt 1.25189996 0.562290013 0
vt 1.25189996 0.692860007 0
vt 1.37162995 0.692860007 0
vt 0.167270005 0.398459971 0
vt 0.00863999967 0.399160028 0
vt 0.94986999 0.0459799767 0
vt 0.961730003 0.101520002 0
vt 0.802680016 0.0459799767 0
vt 0.791830003 0.101520002 0
vt 0.757319987 0.44611001 0
vt 0.927529991 0.462740004 0
vt 1.37162995 0.0519899726 0
vt 1.37162995 0.0984399915 0
vt 1.25189996 0.0519899726 0
vt 1.25189996 0.0984399915 0
vt 1.25189996 0.400550008 0
vt 1.37162995 0.400550008 0
vt -0.741079986 0.0253499746 0
vt -0.741079986 0.119239986 0
vt -0.631780028 0.0253499746 0
vt -0.631780028 0.119239986 0
vt -0.631780028 0.438019991 0
vt -0.741079986 0.438019991 0
vt 0.724330008 0.513589978 0
vt -0.741079986 0.512830019 0
vt -0.631780028 0.512830019 0
vt -0.631780028 0.67701 0
vt -0.741079986 0.67701 0
vt 0.444750011 0.710080028 0
vt 0.444319993 0.773699999 0
vt 0.423299998 0.821470022 0
vt 0.275139987 0.773699999 0
vt 0.275139987 0.821470022 0
vt 0.275139987 0.902580023 0
vt 0.444750011 0.902580023 0
vt 0.567330003 0.902580023 0
vt 0.567330003 0.690999985 0
vt 0.270649999 0.340250015 0
vt 0.270649999 0.523209989 0
vt 0.361660004 0.340250015 0
vt 0.361660004 0.523209989 0
vt 0.538079977 0.710080028 0
vt 0.361660004 0.680159986 0
vt 0.361660004 0.560670018 0
vt 0.270649999 0.680159986 0
vt 0.270649999 0.560670018 0
vt 0.446969986 0.744269967 0
vt 0.275139987 0.744269967 0
vt 0.0198100004 0.628329992 0
vt 0.00584000023 0.747159958 0
vt 0.126149997 0.628329992 0
vt 0.150450006 0.747159958 0
vt 0.446969986 0.726350009 0
vt 0.275139987 0.726350009 0
vt 0.0692100003 0.498740017 0
vt 0.0271700006 0.529700041 0
vt 0.118780002 0.529700041 0
vt 0.903900027 0.926999986 0
vt 0.69709003 0.926999986 0
vt 0.444750011 0.926999986 0
vt 0.275139987 0.926999986 0
vt 0.567330003 0.926999986 0
vt 0.00906000007 0.459630013 0
vt 0.0873399973 0.460699975 0
vt 0.166569993 0.459429979 0
vt 0.0818800032 0.996010005 0
vt 0.150450006 0.922500014 0
vt 0.00712999981 0.93283999 0
vt 0.500280023 0.26967001 0
vt 0.508819997 0.358799994 0
vt 0.577109993 0.26967001 0
vt 0.56566 0.358799994 0
vt 0.634140015 0.786729991 0
vt 0.634140015 0.877920032 0
vt 0.772800028 0.786729991 0
vt 0.772800028 0.877920032 0
vt 0.390329987 0.55874002 0
vt 0.266460001 0.55874002 0
vt 0.390329987 0.675610006 0
vt 0.266460001 0.675610006 0
vt 0.390329987 0.414629996 0
vt 0.266460001 0.414629996 0
vt 0.266460001 0.0663599968 0
vt 0.266460001 0.17869997 0
vt 0.390329987 0.0663599968 0
vt 0.390329987 0.17869997 0
vt 0.569930017 0.679989994 0
vt 0.626820028 0.679270029 0
vt 0.58276999 0.608200014 0
vt 0.595910013 0.611079991 0
vt 0.589020014 0.525959969 0
vt 0.605270028 0.52899003 0
vt 0.390329987 0.358099997 0
vt 0.390329987 0.328750014 0
vt 0.266460001 0.358099997 0
vt 0.266460001 0.328750014 0
vt 0.266460001 0.378300011 0
vt 0.390329987 0.378300011 0
vt 0.617860019 0.481599987 0
vt 0.607559979 0.493740022 0
vt 0.63391 0.475510001 0
vt 0.625649989 0.49800998 0
vt 0.747169971 0.608200014 0
vt 0.670170009 0.641380012 0
vt 0.747169971 0.680000007 0
vt 0.685079992 0.670619965 0
vt 0.747169971 0.520560026 0
vt 0.68118 0.570819974 0
vt 0.266460001 0.25673002 0
vt 0.390329987 0.25673002 0
vt 0.661450028 0.494700015 0
vt 0.673280001 0.474740028 0
vt 0.715939999 0.47390002 0
vt 0.752569973 0.470539987 0
vt 0.57792002 0.441609979 0
vt 0.453130007 0.441609979 0
vt 0.57792002 0.545920014 0
vt 0.453130007 0.545920014 0
vt 0.57792002 0.612659991 0
vt 0.453170002 0.612659991 0

# 116 vertex normals
vn 0.00110635755 0.543849945 -0.839181781
vn 7.33354639e-08 0.544347405 -0.838859916
vn -0.589780986 -0.182810009 -0.786599576
vn 0.296401232 -0.393483192 -0.870239794
vn -0.589781106 -0.182809979 0.786599457
vn 0.296401054 -0.393483222 0.870239854
vn 0.00111250579 0.546939671 0.837171257
vn -7.31594412e-08 0.547437668 0.836846471
vn -0.439307213 -0.667007685 -0.601755679
vn 0.450502306 -0.661397338 -0.599667609
vn -0.439307332 -0.667007685 0.601755559
vn 0.450502217 -0.661397278 0.599667728
vn -0.703989923 -0.382296473 0.598537862
vn -0.698062003 0.312981337 0.644012511
vn -0.703989863 -0.382296503 -0.598537922
vn -0.698061883 0.312981337 -0.64401263
vn -0.368693084 0.661475301 0.653081775
vn -0.418178678 -0.490605533 0.764482021
vn -0.418178529 -0.490605533 -0.764482141
vn -0.369230956 0.6611287 -0.653128922
vn -0.75819236 -0.0828031227 -0.646751881
vn 0.696160734 -0.205435246 -0.687863767
vn 0.598799407 -0.260275394 -0.757427216
vn -0.683817565 0.0731562451 -0.725976348
vn -0.75819248 -0.0828031525 0.646751761
vn -0.683817744 0.07315626 0.725976169
vn 0.696160614 -0.205435246 0.687863886
vn 0.598799229 -0.260275394 0.757427394
vn 0.667707682 -0.322804362 -0.670793414
vn 0.667707562 -0.322804362 0.670793533
vn 0.471249491 -0.650325656 0.595819175
vn 0.471254557 -0.650318921 -0.595822513
vn 0.626013339 -0.310708225 0.715239644
vn 0.626039863 -0.310655862 -0.715239167
vn 0.0669474378 -0.153385222 -0.985896051
vn 0.742986679 -0.196061596 -0.639945805
vn 0.660052538 -0.167656183 -0.73227185
vn 0.602633715 0.434341639 -0.669462383
vn 0.000170702624 0.544206083 -0.838951588
vn 0.00013888914 0.547323048 0.836921394
vn 0.0668393224 -0.153392822 0.98590219
vn 0.602139771 0.437022537 0.668160915
vn 0.660071135 -0.16765368 0.732255697
vn 0.742993474 -0.196068704 0.639935732
vn 7.33354568e-08 0.544347405 -0.838859856
vn 0.115242518 -0.730022669 -0.673636436
vn 0.115242392 -0.730022669 0.673636496
vn -7.31594483e-08 0.547437549 0.83684653
vn 0.104198992 -0.660065591 -0.743946254
vn 0.104198866 -0.660065591 0.743946254
vn -0.642333806 -0.314531505 -0.698911428
vn -0.644372463 -0.317574561 0.695651174
vn 0.608137071 -0.499837637 0.616710305
vn 0.608724535 -0.497017384 -0.618407726
vn 3.59191427e-10 -0.999991536 -0.0041086711
vn 0.636211038 -0.771508574 -0.00316987233
vn -0.055688411 0.998441935 -0.00353663531
vn 3.22434468e-10 0.999993205 -0.0036882204
vn 3.22434107e-10 0.999993205 -0.00368821621
vn 0.626476347 0.779435098 -0.00287468708
vn 3.2243383e-10 0.999993205 -0.00368821318
vn 0.669953942 0.113357008 -0.733697414
vn 0.585842252 0.615253448 -0.52749598
vn 0.669941902 0.113392353 0.733702958
vn 0.585844815 0.615264118 0.527480721
vn -0.669953883 0.113357008 -0.733697474
vn -0.585842133 0.615253448 -0.527496159
vn -0.669942081 0.113392353 0.733702779
vn -0.585844874 0.615264118 0.527480662
vn 0.70721364 0.000336208584 0.706999838
vn 0.609434247 0.535710096 0.584469438
vn -0.707224309 0.000369411078 0.70698911
vn -0.541747391 0.616922736 0.570890605
vn 0.707213759 0.000336208584 -0.706999719
vn 0.609434366 0.535710156 -0.584469318
vn -0.70722419 0.000369411049 -0.706989229
vn -0.541747272 0.616922736 -0.570890725
vn 0.626561403 -0.19517985 0.754536688
vn 0.626561522 -0.195179865 -0.754536629
vn 0.724867463 -0.397334427 0.562754393
vn 0.724867582 -0.397334427 -0.562754273
vn 0.707524538 -0.269395053 0.653326333
vn 0.707524717 -0.269394994 -0.653326213
vn 0.282277793 -0.741037846 -0.609247208
vn 0.124786615 -0.651406288 -0.748397052
vn 0.282277673 -0.741037846 0.609247208
vn 0.124786466 -0.651406288 0.748397052
vn -0.646600425 -0.607621908 0.461197913
vn -0.545290887 -0.165733114 0.821699679
vn -0.545290768 -0.165733129 -0.821699798
vn -0.646600306 -0.607621908 -0.461198002
vn -0.532502949 0.298348695 0.792103946
vn -0.53250283 0.298348695 -0.792104065
vn 0.310032248 -0.676493466 0.6680094
vn 0.0946630538 -0.72507894 0.682128608
vn 0.310032338 -0.676493406 -0.66800946
vn 0.0946631804 -0.72507894 -0.682128549
vn 0.52098 -0.526546896 -0.671809614
vn 0.520979881 -0.526546896 0.671809733
vn -0.210287035 0.56839186 0.795430779
vn -0.2102869 0.56839186 -0.795430779
vn -8.74227766e-08 0 1
vn 0.733416259 0.293331355 0.613235056
vn 0.336195171 0.408275694 0.848695338
vn 8.74227766e-08 0 -1
vn 0.33619526 0.408275664 -0.848695278
vn 0.733416378 0.293331325 -0.613234997
vn 0.614944339 0.112413637 0.780516922
vn 0.614944458 0.112413645 -0.780516803
vn 0.010330284 -0.707035482 -0.707102597
vn 0.0103301611 -0.707035482 0.707102656
vn 0.27928248 0.459071189 0.843359292
vn 0.27928257 0.459071189 -0.843359292
vn -7.35501331e-08 0.54054445 0.841315448
vn -7.35672785e-08 0.540239096 0.841511548
vn -3.63349351e-08 0.909536898 0.415623218

# Mesh '' with 207 faces
usemtl PDX_g_J___t
f  1/1/1 2/2/2 3/3/3
f  4/4/4 3/3/3 2/2/2
f  5/3/5 6/4/6 7/1/7
f  8/2/8 7/1/7 6/4/6
f  9/5/9 10/6/10 11/7/11
f  12/8/12 11/7/11 10/6/10
f  13/9/13 14/10/14 15/11/15
f  16/12/16 15/11/15 14/10/14
f  7/1/7 17/13/17 5/3/5
f  18/14/18 5/3/5 17/13/17
f  18/14/18 17/13/17 13/15/13
f  14/16/14 13/15/13 17/13/17
f  5/17/5 18/18/18 3/19/3
f  19/20/19 3/19/3 18/18/18
f  19/20/19 18/18/18 15/21/15
f  13/22/13 15/21/15 18/18/18
f  3/3/3 19/14/19 1/1/1
f  20/13/20 1/1/1 19/14/19
f  20/13/20 19/14/19 16/16/16
f  15/15/15 16/16/16 19/14/19
f  17/23/17 20/24/20 14/10/14
f  16/12/16 14/10/14 20/24/20
f  9/25/9 21/26/21 10/27/10
f  22/28/22 10/27/10 21/26/21
f  22/28/22 21/26/21 23/29/23
f  24/30/24 23/29/23 21/26/21
f  11/31/11 25/32/25 9/33/9
f  21/34/21 9/33/9 25/32/25
f  21/34/21 25/32/25 24/35/24
f  26/36/26 24/35/24 25/32/25
f  12/27/12 27/28/27 11/25/11
f  25/26/25 11/25/11 27/28/27
f  25/26/25 27/28/27 26/30/26
f  28/29/28 26/30/26 27/28/27
f  10/37/10 22/38/22 12/39/12
f  27/40/27 12/39/12 22/38/22
f  27/40/27 22/38/22 28/41/28
f  23/42/23 28/41/28 22/38/22
f  3/3/3 29/43/29 24/30/24
f  23/29/23 24/30/24 29/43/29
f  5/17/5 3/19/3 26/36/26
f  24/35/24 26/36/26 3/19/3
f  30/43/30 5/3/5 28/29/28
f  26/30/26 28/29/28 5/3/5
f  29/44/29 30/45/30 23/42/23
f  28/41/28 23/42/23 30/45/30
f  6/46/6 30/45/30 4/47/4
f  29/44/29 4/47/4 30/45/30
f  31/48/31 32/48/32 33/49/33
f  34/49/34 33/49/33 32/48/32
f  34/49/34 35/50/35 36/51/36
f  37/52/37 36/51/36 35/50/35
f  37/52/37 35/50/35 38/53/38
f  39/54/39 38/53/38 35/50/35
f  40/54/40 41/50/41 42/53/42
f  43/52/43 42/53/42 41/50/41
f  43/52/43 41/50/41 44/51/44
f  33/49/33 44/51/44 41/50/41
f  32/48/32 35/50/35 34/49/34
f  39/54/39 35/50/35 32/48/32
f  33/49/33 41/50/41 31/48/31
f  31/48/31 41/50/41 40/54/40
f  2/2/2 45/55/45 4/4/4
f  46/56/46 4/4/4 45/55/45
f  4/57/4 46/58/46 6/59/6
f  47/60/47 6/59/6 46/58/46
f  6/4/6 47/56/47 8/2/8
f  48/55/48 8/2/8 47/56/47
f  32/48/32 49/61/49 39/54/39
f  45/55/45 39/54/39 49/61/49
f  31/62/31 50/63/50 32/64/32
f  49/65/49 32/64/32 50/63/50
f  49/65/49 50/63/50 46/58/46
f  47/60/47 46/58/46 50/63/50
f  40/54/40 48/55/48 31/48/31
f  50/61/50 31/48/31 48/55/48
f  4/4/4 29/43/29 3/3/3
f  5/3/5 30/43/30 6/4/6
f  51/66/51 52/66/52 34/49/34
f  33/49/33 34/49/34 52/66/52
f  52/66/52 53/67/53 33/49/33
f  44/51/44 33/49/33 53/67/53
f  54/67/54 51/66/51 36/51/36
f  34/49/34 36/51/36 51/66/51
f  46/56/46 45/55/45 49/61/49
f  50/61/50 48/55/48 47/56/47
f  36/68/36 37/69/37 44/70/44
f  43/71/43 44/70/44 37/69/37
f  52/66/52 55/72/55 53/67/53
f  56/73/56 53/67/53 55/72/55
f  56/73/56 55/72/55 54/67/54
f  51/66/51 54/67/54 55/72/55
f  36/68/36 56/74/56 54/75/54
f  53/76/53 56/74/56 44/70/44
f  44/70/44 56/74/56 36/68/36
f  1/1/1 57/77/57 2/2/2
f  58/78/58 2/2/2 57/77/57
f  58/78/58 57/77/57 8/2/8
f  7/1/7 8/2/8 57/77/57
f  39/54/39 59/79/59 38/53/38
f  60/80/60 38/53/38 59/79/59
f  60/80/60 59/79/59 42/53/42
f  40/54/40 42/53/42 59/79/59
f  2/2/2 58/78/58 45/55/45
f  61/81/61 45/55/45 58/78/58
f  61/81/61 58/78/58 48/55/48
f  8/2/8 48/55/48 58/78/58
f  40/54/40 59/79/59 48/55/48
f  61/81/61 48/55/48 59/79/59
f  61/81/61 59/79/59 45/55/45
f  39/54/39 45/55/45 59/79/59
f  20/24/20 57/82/57 1/83/1
f  7/84/7 57/83/57 17/23/17
f  17/23/17 57/83/57 20/24/20
f  43/71/43 60/85/60 42/86/42
f  38/87/38 60/85/60 37/69/37
f  37/69/37 60/85/60 43/71/43
f  62/88/62 63/89/63 64/90/64
f  65/91/65 64/90/64 63/89/63
f  66/88/66 67/89/67 62/88/62
f  63/89/63 62/88/62 67/89/67
f  68/90/68 69/91/69 66/88/66
f  67/89/67 66/88/66 69/91/69
f  64/90/64 65/91/65 68/90/68
f  69/91/69 68/90/68 65/91/65
f  69/91/69 65/91/65 67/89/67
f  63/89/63 67/89/67 65/91/65
f  70/92/70 71/92/71 72/93/72
f  73/93/73 72/93/72 71/92/71
f  74/94/74 75/94/75 70/92/70
f  71/92/71 70/92/70 75/94/75
f  76/95/76 77/95/77 74/94/74
f  75/94/75 74/94/74 77/95/77
f  72/93/72 73/93/73 76/95/76
f  77/95/77 76/95/76 73/93/73
f  77/95/77 73/93/73 75/94/75
f  71/92/71 75/94/75 73/93/73
f  78/96/78 79/97/79 80/98/80
f  81/99/81 80/98/80 79/97/79
f  82/100/82 83/101/83 78/96/78
f  79/97/79 78/96/78 83/101/83
f  84/102/84 85/103/85 86/104/86
f  87/105/87 86/104/86 85/103/85
f  80/106/80 88/107/88 78/108/78
f  89/109/89 78/108/78 88/107/88
f  79/108/79 90/109/90 81/106/81
f  91/107/91 81/106/81 90/109/90
f  78/108/78 89/109/89 82/110/82
f  92/111/92 82/110/82 89/109/89
f  83/110/83 93/111/93 79/108/79
f  90/109/90 79/108/79 93/111/93
f  94/112/94 95/113/95 96/114/96
f  97/115/97 96/114/96 95/113/95
f  96/114/96 98/116/98 94/112/94
f  99/117/99 94/112/94 98/116/98
f  99/117/99 98/116/98 82/100/82
f  83/101/83 82/100/82 98/116/98
f  94/118/94 99/119/99 95/120/95
f  100/121/100 95/120/95 99/119/99
f  100/121/100 99/119/99 92/111/92
f  82/110/82 92/111/92 99/119/99
f  83/110/83 98/119/98 93/111/93
f  101/121/101 93/111/93 98/119/98
f  101/121/101 98/119/98 97/120/97
f  96/118/96 97/120/97 98/119/98
f  102/122/102 103/123/103 104/124/102
f  105/125/104 104/124/102 103/123/103
f  106/124/105 107/125/106 108/122/105
f  109/123/107 108/122/105 107/125/106
f  110/126/102 111/127/108 102/122/102
f  103/123/103 102/122/102 111/127/108
f  108/122/105 109/123/107 112/126/105
f  113/127/109 112/126/105 109/123/107
f  85/103/85 114/128/110 87/105/87
f  115/129/111 87/105/87 114/128/110
f  115/129/111 114/128/110 95/113/95
f  97/115/97 95/113/95 114/128/110
f  116/130/112 115/131/111 100/121/100
f  95/120/95 100/121/100 115/131/111
f  114/131/110 117/130/113 97/120/97
f  101/121/101 97/120/97 117/130/113
f  89/109/89 90/109/90 92/111/92
f  93/111/93 92/111/92 90/109/90
f  88/107/88 91/107/91 89/109/89
f  90/109/90 89/109/89 91/107/91
f  92/111/92 93/111/93 100/121/100
f  101/121/101 100/121/100 93/111/93
f  100/121/100 101/121/101 116/130/112
f  117/130/113 116/130/112 101/121/101
f  116/130/112 117/130/113 111/127/108
f  113/127/109 111/127/108 117/130/113
f  111/127/108 113/127/109 103/123/103
f  109/123/107 103/123/103 113/127/109
f  103/123/103 109/123/107 105/125/104
f  107/125/106 105/125/104 109/123/107
f  87/132/87 110/126/102 86/133/86
f  84/133/84 112/126/105 85/132/85
f  114/131/110 85/132/85 117/130/113
f  112/126/105 113/127/109 85/132/85
f  85/132/85 113/127/109 117/130/113
f  115/131/111 116/130/112 87/132/87
f  116/130/112 111/127/108 87/132/87
f  87/132/87 111/127/108 110/126/102
f  118/134/102 119/135/102 120/136/114
f  121/137/115 120/136/114 119/135/102
f  120/136/114 121/137/115 122/138/116
f  123/139/116 122/138/116 121/137/115

