# File produced by Open Asset Import Library (http://www.assimp.sf.net)
# (assimp v5.2.3369795085)

mtllib 10.X.mtl

# 134 vertex positions
v  -2.38945603 20.90769 -1.57639825
v  6.00664425 20.90769 -1.57639956
v  -3.28695607 14.54599 -1.57639813
v  5.47274446 16.2436905 -1.57639945
v  -3.2869556 14.54599 1.30940187
v  5.47274446 16.2436905 1.30940056
v  -2.38945556 20.90769 1.30940175
v  6.00664473 20.90769 1.30940044
v  -4.25605583 3.63958931 -1.57639802
v  1.71964431 3.63958931 -1.57639897
v  -4.25605583 3.63958931 1.30940199
v  1.71964478 3.63958931 1.30940104
v  -5.96245575 16.7801895 1.30940223
v  -5.6455555 19.6761894 1.30940223
v  -5.96245575 16.7801895 -1.57639778
v  -5.6455555 19.6761894 -1.57639778
v  -4.52675533 20.9163895 1.30940199
v  -4.29415512 15.9393892 1.30940199
v  -4.29415512 15.9393892 -1.57639802
v  -4.52675533 20.9163895 -1.57639802
v  -4.73735523 4.75928974 -1.5763979
v  2.16024423 4.75928974 -1.57639897
v  3.56124425 11.7056894 -1.57639921
v  -3.34895539 12.0409899 -1.57639813
v  -4.73735523 4.75928974 1.30940211
v  -3.34895492 12.0409899 1.30940187
v  2.1602447 4.75928974 1.30940104
v  3.56124473 11.7056894 1.3094008
v  4.57764435 13.1262894 -1.57639933
v  4.57764435 13.1262894 1.30940068
v  13.746645 16.6282902 1.30939925
v  13.746644 16.6282902 -1.57640076
v  13.7367449 18.5299892 0.532499313
v  13.7367439 18.5299892 -0.799500704
v  13.7367439 19.41749 -1.22900069
v  13.746644 20.90769 -1.57640076
v  13.7367449 19.41749 0.962299287
v  13.746645 20.90769 1.30939925
v  11.2743444 20.90769 -1.5764004
v  11.2743444 16.2436905 -1.5764004
v  11.2743444 16.2436905 1.3093996
v  11.2743444 20.90769 1.3093996
v  12.4621439 16.6282902 -1.57640052
v  12.4621449 16.6282902 1.30939949
v  23.3668442 18.397789 -0.86940217
v  23.3668442 19.4014893 -1.3453021
v  23.3668442 18.397789 0.602397859
v  23.3668442 19.4014893 1.07829785
v  -2.3894558 21.5448895 -0.147898272
v  6.00664425 21.5448895 -0.147899538
v  11.2743444 21.5448895 -0.147900328
v  13.746644 21.5448895 -0.147900701
v  23.3668442 21.1832886 -0.149402156
v  23.3668442 20.47929 1.07829785
v  23.3668442 20.47929 -1.3453021
v  -1.834656 20.2796898 -1.32549834
v  -1.83465588 22.4058895 -0.99699831
v  -1.83465564 20.2796898 1.14470172
v  -1.83465564 22.4058895 0.81610167
v  -2.28975606 20.2796898 -1.32549834
v  -2.28975606 22.4058895 -0.99699825
v  -2.28975558 20.2796898 1.14470172
v  -2.28975558 22.4058895 0.81610173
v  22.9909458 20.9735889 0.137097895
v  22.9906445 21.6034889 0.137097895
v  21.4418449 20.9735889 0.137098134
v  21.4422455 21.7385902 0.137098134
v  22.9909439 20.9735889 -0.318002075
v  22.9906445 21.6034889 -0.318002075
v  21.441843 20.9735889 -0.318001866
v  21.4422436 21.7385902 -0.318001866
v  10.5292444 15.0104895 0.683799744
v  10.5292444 15.0104895 -0.972600222
v  11.3859444 16.5733891 0.683799624
v  11.3859444 16.5733891 -0.972600341
v  10.3422441 13.1932898 0.683799803
v  10.3422441 13.1932898 -0.972600162
v  3.33214402 11.4745893 -0.972599089
v  4.90464449 12.0735893 -0.972599328
v  3.33214426 11.4745893 0.683800876
v  4.90464449 12.0735893 0.683800638
v  8.65324497 16.5733891 0.683800042
v  10.1388445 14.9924898 0.683799803
v  10.1388445 14.9924898 -0.972600162
v  8.65324402 16.5733891 -0.972599924
v  9.8259449 13.1040897 0.683799863
v  9.82594395 13.1040897 -0.972600102
v  9.42904472 12.2927895 0.683799922
v  8.7787447 12.1301899 0.683800042
v  9.42904472 12.2927895 -0.972600043
v  8.7787447 12.1301899 -0.972599924
v  9.96564388 12.6713896 -0.972600102
v  9.96564484 12.6713896 0.683799863
v  9.21634483 12.5762901 0.683799982
v  9.21634388 12.5762901 -0.972599983
v  3.33214426 15.0104895 0.683800876
v  6.7466445 15.76929 0.68380034
v  3.33214426 16.5736904 0.683800876
v  5.9893446 16.392889 0.683800459
v  3.33214402 16.5736904 -0.972599089
v  5.98934412 16.392889 -0.972599506
v  3.33214402 15.0104895 -0.972599089
v  6.7466445 15.76929 -0.972599626
v  3.33214426 12.9629898 0.683800876
v  6.55544472 14.1966896 0.68380034
v  3.33214402 12.9629898 -0.972599089
v  6.55544424 14.1966896 -0.972599626
v  6.91944456 12.1029892 -0.972599685
v  6.91944456 12.1029892 0.68380028
v  7.39974451 12.5851898 0.68380022
v  7.39974451 12.5851898 -0.972599745
v  6.88934469 19.66679 1.35640037
v  11.1770449 19.66679 1.35639966
v  6.88934469 20.9358902 1.35640037
v  11.1770449 20.9358902 1.35639966
v  6.88934469 21.3106899 0.536200345
v  11.1754446 21.3106899 0.536199689
v  13.7367439 21.0510902 -0.147900701
v  13.7367439 20.4138889 -1.23020077
v  13.7367449 20.4138889 0.963199258
v  20.9937439 18.397789 -0.869401813
v  20.9937439 19.4014893 -1.3449018
v  20.9937458 19.4014893 1.07799816
v  20.9937458 18.397789 0.602398217
v  20.9937439 20.47929 -1.34530175
v  20.9937458 20.47929 1.07829821
v  20.9937439 21.1832886 -0.149401799
v  20.775444 19.41749 -1.22990179
v  20.775444 18.5299892 -0.799501777
v  20.775444 18.5299892 0.53249824
v  20.775444 19.41749 0.962998211
v  20.775444 20.4138889 -1.23020184
v  20.775444 20.4138889 0.963198185
v  20.775444 21.0510902 -0.147901759

# 150 UV coordinates
vt 0.903900027 0.902580023 0
vt 0.69709003 0.902580023 0
vt 0.925999999 0.587000012 0
vt 0.710240006 0.690999985 0
vt -0.297030002 0.0741400123 0
vt -0.496390015 0.0741400123 0
vt -0.297030002 0.19619 0
vt -0.496390015 0.19619 0
vt 0.167270005 0.0103800297 0
vt 0.167270005 0.282589972 0
vt 0.00899 0.0103800297 0
vt 0.00899 0.282589972 0
vt 0.956539989 0.903010011 0
vt 0.950810015 0.652530015 0
vt 0.995500028 0.699630022 0
vt 0.987699986 0.834299982 0
vt 1.37162995 0.504480004 0
vt 1.37162995 0.562290013 0
vt 1.25189996 0.504480004 0
vt 1.25189996 0.562290013 0
vt 1.25189996 0.692860007 0
vt 1.37162995 0.692860007 0
vt 0.167270005 0.398459971 0
vt 0.00863999967 0.399160028 0
vt 0.94986999 0.0459799767 0
vt 0.961730003 0.101520002 0
vt 0.802680016 0.0459799767 0
vt 0.791830003 0.101520002 0
vt 0.757319987 0.44611001 0
vt 0.927529991 0.462740004 0
vt 1.37162995 0.0519899726 0
vt 1.37162995 0.0984399915 0
vt 1.25189996 0.0519899726 0
vt 1.25189996 0.0984399915 0
vt 1.25189996 0.400550008 0
vt 1.37162995 0.400550008 0
vt -0.741079986 0.0253499746 0
vt -0.741079986 0.119239986 0
vt -0.631780028 0.0253499746 0
vt -0.631780028 0.119239986 0
vt -0.631780028 0.438019991 0
vt -0.741079986 0.438019991 0
vt 0.724330008 0.513589978 0
vt -0.741079986 0.512830019 0
vt -0.631780028 0.512830019 0
vt -0.631780028 0.67701 0
vt -0.741079986 0.67701 0
vt 0.444750011 0.710080028 0
vt 0.444319993 0.773699999 0
vt 0.423299998 0.821470022 0
vt 0.444750011 0.902580023 0
vt 0.567330003 0.902580023 0
vt 0.567330003 0.690999985 0
vt 0.270649999 0.340250015 0
vt 0.270649999 0.523209989 0
vt 0.361660004 0.340250015 0
vt 0.361660004 0.523209989 0
vt 0.538079977 0.710080028 0
vt 0.361660004 0.680159986 0
vt 0.361660004 0.560670018 0
vt 0.270649999 0.680159986 0
vt 0.270649999 0.560670018 0
vt 0.0198100004 0.698449969 0
vt 0.00584000023 0.817279994 0
vt 0.126149997 0.698449969 0
vt 0.150450006 0.817279994 0
vt 0.903900027 0.926999986 0
vt 0.69709003 0.926999986 0
vt 0.567330003 0.926999986 0
vt 0.444750011 0.926999986 0
vt 0.00906000007 0.459630013 0
vt 0.0873399973 0.460699975 0
vt 0.166569993 0.459429979 0
vt 0.0818800032 0.996010005 0
vt 0.150450006 0.922500014 0
vt 0.00712999981 0.93283999 0
vt 0.500280023 0.26967001 0
vt 0.508819997 0.358799994 0
vt 0.577109993 0.26967001 0
vt 0.56566 0.358799994 0
vt 0.634140015 0.786729991 0
vt 0.634140015 0.877920032 0
vt 0.772800028 0.786729991 0
vt 0.772800028 0.877920032 0
vt 0.390329987 0.55874002 0
vt 0.266460001 0.55874002 0
vt 0.390329987 0.675610006 0
vt 0.266460001 0.675610006 0
vt 0.390329987 0.414629996 0
vt 0.266460001 0.414629996 0
vt 0.266460001 0.0663599968 0
vt 0.266460001 0.17869997 0
vt 0.390329987 0.0663599968 0
vt 0.390329987 0.17869997 0
vt 0.569930017 0.679989994 0
vt 0.626820028 0.679270029 0
vt 0.58276999 0.608200014 0
vt 0.595910013 0.611079991 0
vt 0.589020014 0.525959969 0
vt 0.605270028 0.52899003 0
vt 0.390329987 0.358099997 0
vt 0.390329987 0.328750014 0
vt 0.266460001 0.358099997 0
vt 0.266460001 0.328750014 0
vt 0.266460001 0.378300011 0
vt 0.390329987 0.378300011 0
vt 0.617860019 0.481599987 0
vt 0.607559979 0.493740022 0
vt 0.63391 0.475510001 0
vt 0.625649989 0.49800998 0
vt 0.747169971 0.608200014 0
vt 0.670170009 0.641380012 0
vt 0.747169971 0.680000007 0
vt 0.685079992 0.670619965 0
vt 0.747169971 0.520560026 0
vt 0.68118 0.570819974 0
vt 0.266460001 0.25673002 0
vt 0.390329987 0.25673002 0
vt 0.661450028 0.494700015 0
vt 0.673280001 0.474740028 0
vt 0.715939999 0.47390002 0
vt 0.752569973 0.470539987 0
vt 0.57792002 0.441609979 0
vt 0.453130007 0.441609979 0
vt 0.57792002 0.545920014 0
vt 0.453130007 0.545920014 0
vt 0.57792002 0.612659991 0
vt 0.453170002 0.612659991 0
vt 0.421950012 0.926999986 0
vt 0.421950012 0.902580023 0
vt 0.422980011 0.821470022 0
vt 0.275139987 0.773699999 0
vt 0.317880005 0.773699999 0
vt 0.275139987 0.821470022 0
vt 0.312570006 0.821470022 0
vt 0.275139987 0.744269967 0
vt 0.318549991 0.744269967 0
vt 0.312409997 0.821470022 0
vt 0.275139987 0.902580023 0
vt 0.312229991 0.902580023 0
vt 0.275139987 0.926999986 0
vt 0.312229991 0.926999986 0
vt 0.31832999 0.821470022 0
vt 0.32446 0.773699999 0
vt 0.446969986 0.744269967 0
vt 0.325230002 0.744269967 0
vt 0.317939997 0.902580023 0
vt 0.422659993 0.821470022 0
vt 0.318150014 0.821470022 0
vt 0.317939997 0.926999986 0

# 126 vertex normals
vn 0.00110615755 0.543849945 -0.839181781
vn -1.26664332e-07 0.544347405 -0.838859916
vn -0.589781165 -0.182810009 -0.786599457
vn 0.296401024 -0.393483192 -0.870239854
vn -0.589780927 -0.182809979 0.786599636
vn 0.296401262 -0.393483192 0.870239794
vn 0.00111270545 0.546939671 0.837171257
vn 1.26360305e-07 0.547437668 0.836846471
vn -0.439307362 -0.667007685 -0.601755559
vn 0.450502157 -0.661397338 -0.599667728
vn -0.439307183 -0.667007685 0.601755679
vn 0.450502366 -0.661397278 0.599667609
vn -0.703989744 -0.382296473 0.598538041
vn -0.698061824 0.312981337 0.64401269
vn -0.703990042 -0.382296503 -0.598537743
vn -0.698062062 0.312981337 -0.644012451
vn -0.368692935 0.661475301 0.653081894
vn -0.418178499 -0.490605533 0.764482141
vn -0.418178707 -0.490605533 -0.764482021
vn -0.369231105 0.6611287 -0.653128803
vn -0.758192539 -0.0828031227 -0.646751702
vn 0.696160555 -0.205435246 -0.687863946
vn 0.598799229 -0.260275394 -0.757427394
vn -0.683817744 0.0731562451 -0.725976169
vn -0.758192301 -0.0828031525 0.64675194
vn -0.683817565 0.07315626 0.725976348
vn 0.696160793 -0.205435246 0.687863708
vn 0.598799407 -0.260275394 0.757427216
vn 0.667707503 -0.322804362 -0.670793593
vn 0.667707741 -0.322804362 0.670793355
vn 0.578816175 -0.57627809 0.57695353
vn 0.578816116 -0.57627821 -0.57695353
vn 0.850027144 -0.446575463 0.279328227
vn 0.850048244 -0.446518779 -0.279354453
vn 0.769917786 -0.146796912 -0.621029258
vn 0.607617795 0.431561828 -0.666749537
vn 0.770000041 -0.146812931 0.62092346
vn 0.607406139 0.434343934 0.665133953
vn 0.115242355 -0.730022669 -0.673636436
vn 0.115242548 -0.730022669 0.673636496
vn 1.2636032e-07 0.547437608 0.83684653
vn 0.104198813 -0.660065591 -0.743946254
vn 0.104199044 -0.660065591 0.743946254
vn 0.604274511 -0.673364639 -0.425948769
vn 0.660822272 -0.164760917 -0.732234776
vn 0.60425818 -0.673360705 0.425978124
vn 0.660834551 -0.164820388 0.732210338
vn -0.055688411 0.998441935 -0.00353662204
vn -5.56905799e-10 0.999993205 -0.0036882204
vn -5.56904689e-10 0.999993205 -0.00368821318
vn 0.632343233 0.77468431 -0.00249255961
vn 0.609596491 0.792698979 -0.00451825699
vn 0.609781563 0.397295117 0.68580097
vn 0.610582769 0.393038899 -0.687538445
vn 0.669953763 0.113357008 -0.733697593
vn 0.585842133 0.615253448 -0.527496099
vn 0.669942081 0.113392353 0.733702779
vn 0.585844934 0.615264118 0.527480602
vn -0.669954062 0.113357008 -0.733697295
vn -0.585842252 0.615253448 -0.52749604
vn -0.669941902 0.113392353 0.733702958
vn -0.585844755 0.615264118 0.527480781
vn 0.707214177 0.000337279518 0.706999302
vn 0.599301577 0.549551368 0.582091928
vn -0.707224429 0.000370292604 0.70698905
vn -0.55362606 0.604351819 0.572937191
vn 0.707213879 0.000337279489 -0.70699954
vn 0.599301398 0.549551368 -0.582092106
vn -0.707224667 0.000370292633 -0.706988752
vn -0.55362618 0.604351819 -0.572937131
vn 0.626561582 -0.19517985 0.75453651
vn 0.626561344 -0.19517985 -0.754536748
vn 0.724867582 -0.397334427 0.562754214
vn 0.724867463 -0.397334427 -0.562754452
vn 0.707524717 -0.269395053 0.653326154
vn 0.707524538 -0.269394994 -0.653326392
vn 0.282277644 -0.741037846 -0.609247267
vn 0.124786437 -0.651406288 -0.748397052
vn 0.282277822 -0.741037846 0.609247148
vn 0.124786645 -0.651406288 0.748397052
vn -0.646600306 -0.607621908 0.461198062
vn -0.545290709 -0.165733114 0.821699798
vn -0.545290947 -0.165733129 -0.821699679
vn -0.646600425 -0.607621908 -0.461197853
vn -0.53250277 0.298348695 0.792104065
vn -0.532503009 0.298348695 -0.792103946
vn 0.310032398 -0.676493466 0.668009341
vn 0.0946632177 -0.72507894 0.682128608
vn 0.310032189 -0.676493406 -0.66800952
vn 0.0946630239 -0.725079 -0.682128549
vn 0.520979822 -0.526546896 -0.671809733
vn 0.52098006 -0.526546896 0.671809614
vn -0.210286826 0.56839186 0.795430779
vn -0.210287094 0.56839186 -0.79543072
vn 1.50995803e-07 0 1
vn 0.733416438 0.293331355 0.613234878
vn 0.33619535 0.408275694 0.848695278
vn -1.50995803e-07 0 -1
vn 0.336195111 0.408275694 -0.848695338
vn 0.7334162 0.293331325 -0.613235176
vn 0.614944518 0.112413637 0.780516744
vn 0.614944279 0.112413645 -0.780516982
vn 0.0103301154 -0.707035482 -0.707102597
vn 0.0103303296 -0.707035482 0.707102656
vn 0.279282659 0.459071189 0.843359232
vn 0.279282391 0.459071189 -0.843359351
vn 1.27035108e-07 0.54054445 0.841315448
vn 1.27064709e-07 0.540239096 0.841511548
vn 6.27573584e-08 0.909536898 0.415623218
vn 0.84673363 0.532014072 -0.00177114969
vn 0.84553498 0.268084556 -0.461737186
vn 0.846894741 0.270298481 0.45793891
vn -0.269231021 -0.816936851 -0.510028243
vn -0.233888313 -0.211329162 -0.949018538
vn -0.234984815 -0.212812468 0.948416054
vn -0.270292282 -0.816054046 0.510879517
vn -0.249398828 0.480371505 -0.840858757
vn -0.249240443 0.4849765 0.838258326
vn -0.24895528 0.968497455 -0.00582363503
vn -0.250997841 -0.217769355 -0.943173707
vn -0.327525258 -0.795700669 -0.509497404
vn -0.325812578 -0.794825435 0.511955738
vn -0.249573857 -0.219924748 0.943051457
vn -0.294303238 0.474401265 -0.829655945
vn -0.294547558 0.479705364 0.826513469
vn -0.294297218 0.955701709 -0.00483538117

# Mesh '' with 230 faces
usemtl PDX___S_C
f  1/1/1 2/2/2 3/3/3
f  4/4/4 3/3/3 2/2/2
f  5/3/5 6/4/6 7/1/7
f  8/2/8 7/1/7 6/4/6
f  9/5/9 10/6/10 11/7/11
f  12/8/12 11/7/11 10/6/10
f  13/9/13 14/10/14 15/11/15
f  16/12/16 15/11/15 14/10/14
f  7/1/7 17/13/17 5/3/5
f  18/14/18 5/3/5 17/13/17
f  18/14/18 17/13/17 13/15/13
f  14/16/14 13/15/13 17/13/17
f  5/17/5 18/18/18 3/19/3
f  19/20/19 3/19/3 18/18/18
f  19/20/19 18/18/18 15/21/15
f  13/22/13 15/21/15 18/18/18
f  3/3/3 19/14/19 1/1/1
f  20/13/20 1/1/1 19/14/19
f  20/13/20 19/14/19 16/16/16
f  15/15/15 16/16/16 19/14/19
f  17/23/17 20/24/20 14/10/14
f  16/12/16 14/10/14 20/24/20
f  9/25/9 21/26/21 10/27/10
f  22/28/22 10/27/10 21/26/21
f  22/28/22 21/26/21 23/29/23
f  24/30/24 23/29/23 21/26/21
f  11/31/11 25/32/25 9/33/9
f  21/34/21 9/33/9 25/32/25
f  21/34/21 25/32/25 24/35/24
f  26/36/26 24/35/24 25/32/25
f  12/27/12 27/28/27 11/25/11
f  25/26/25 11/25/11 27/28/27
f  25/26/25 27/28/27 26/30/26
f  28/29/28 26/30/26 27/28/27
f  10/37/10 22/38/22 12/39/12
f  27/40/27 12/39/12 22/38/22
f  27/40/27 22/38/22 28/41/28
f  23/42/23 28/41/28 22/38/22
f  3/3/3 29/43/29 24/30/24
f  23/29/23 24/30/24 29/43/29
f  5/17/5 3/19/3 26/36/26
f  24/35/24 26/36/26 3/19/3
f  30/43/30 5/3/5 28/29/28
f  26/30/26 28/29/28 5/3/5
f  29/44/29 30/45/30 23/42/23
f  28/41/28 23/42/23 30/45/30
f  6/46/6 30/45/30 4/47/4
f  29/44/29 4/47/4 30/45/30
f  31/48/31 32/48/32 33/49/33
f  34/49/34 33/49/33 32/48/32
f  32/48/32 35/50/35 34/49/34
f  36/51/36 35/50/35 32/48/32
f  33/49/33 37/50/37 31/48/31
f  31/48/31 37/50/37 38/51/38
f  2/2/2 39/52/2 4/4/4
f  40/53/39 4/4/4 39/52/2
f  4/54/4 40/55/39 6/56/6
f  41/57/40 6/56/6 40/55/39
f  6/4/6 41/53/40 8/2/8
f  42/52/41 8/2/8 41/53/40
f  32/48/32 43/58/42 36/51/36
f  39/52/2 36/51/36 43/58/42
f  31/59/31 44/60/43 32/61/32
f  43/62/42 32/61/32 44/60/43
f  43/62/42 44/60/43 40/55/39
f  41/57/40 40/55/39 44/60/43
f  38/51/38 42/52/41 31/48/31
f  44/58/43 31/48/31 42/52/41
f  4/4/4 29/43/29 3/3/3
f  5/3/5 30/43/30 6/4/6
f  40/53/39 39/52/2 43/58/42
f  44/58/43 42/52/41 41/53/40
f  45/63/44 46/64/45 47/65/46
f  48/66/47 47/65/46 46/64/45
f  1/1/1 49/67/48 2/2/2
f  50/68/49 2/2/2 49/67/48
f  50/68/49 49/67/48 8/2/8
f  7/1/7 8/2/8 49/67/48
f  2/2/2 50/68/49 39/52/2
f  51/69/50 39/52/2 50/68/49
f  51/69/50 50/68/49 42/52/41
f  8/2/8 42/52/41 50/68/49
f  38/51/38 52/70/51 42/52/41
f  51/69/50 42/52/41 52/70/51
f  51/69/50 52/70/51 39/52/2
f  36/51/36 39/52/2 52/70/51
f  20/24/20 49/71/48 1/72/1
f  7/73/7 49/72/48 17/23/17
f  17/23/17 49/72/48 20/24/20
f  48/66/47 53/74/52 54/75/53
f  55/76/54 53/74/52 46/64/45
f  46/64/45 53/74/52 48/66/47
f  56/77/55 57/78/56 58/79/57
f  59/80/58 58/79/57 57/78/56
f  60/77/59 61/78/60 56/77/55
f  57/78/56 56/77/55 61/78/60
f  62/79/61 63/80/62 60/77/59
f  61/78/60 60/77/59 63/80/62
f  58/79/57 59/80/58 62/79/61
f  63/80/62 62/79/61 59/80/58
f  63/80/62 59/80/58 61/78/60
f  57/78/56 61/78/60 59/80/58
f  64/81/63 65/81/64 66/82/65
f  67/82/66 66/82/65 65/81/64
f  68/83/67 69/83/68 64/81/63
f  65/81/64 64/81/63 69/83/68
f  70/84/69 71/84/70 68/83/67
f  69/83/68 68/83/67 71/84/70
f  66/82/65 67/82/66 70/84/69
f  71/84/70 70/84/69 67/82/66
f  71/84/70 67/82/66 69/83/68
f  65/81/64 69/83/68 67/82/66
f  72/85/71 73/86/72 74/87/73
f  75/88/74 74/87/73 73/86/72
f  76/89/75 77/90/76 72/85/71
f  73/86/72 72/85/71 77/90/76
f  78/91/77 79/92/78 80/93/79
f  81/94/80 80/93/79 79/92/78
f  74/95/73 82/96/81 72/97/71
f  83/98/82 72/97/71 82/96/81
f  73/97/72 84/98/83 75/95/74
f  85/96/84 75/95/74 84/98/83
f  72/97/71 83/98/82 76/99/75
f  86/100/85 76/99/75 83/98/82
f  77/99/76 87/100/86 73/97/72
f  84/98/83 73/97/72 87/100/86
f  88/101/87 89/102/88 90/103/89
f  91/104/90 90/103/89 89/102/88
f  90/103/89 92/105/91 88/101/87
f  93/106/92 88/101/87 92/105/91
f  93/106/92 92/105/91 76/89/75
f  77/90/76 76/89/75 92/105/91
f  88/107/87 93/108/92 89/109/88
f  94/110/93 89/109/88 93/108/92
f  94/110/93 93/108/92 86/100/85
f  76/99/75 86/100/85 93/108/92
f  77/99/76 92/108/91 87/100/86
f  95/110/94 87/100/86 92/108/91
f  95/110/94 92/108/91 91/109/90
f  90/107/89 91/109/90 92/108/91
f  96/111/95 97/112/96 98/113/95
f  99/114/97 98/113/95 97/112/96
f  100/113/98 101/114/99 102/111/98
f  103/112/100 102/111/98 101/114/99
f  104/115/95 105/116/101 96/111/95
f  97/112/96 96/111/95 105/116/101
f  102/111/98 103/112/100 106/115/98
f  107/116/102 106/115/98 103/112/100
f  79/92/78 108/117/103 81/94/80
f  109/118/104 81/94/80 108/117/103
f  109/118/104 108/117/103 89/102/88
f  91/104/90 89/102/88 108/117/103
f  110/119/105 109/120/104 94/110/93
f  89/109/88 94/110/93 109/120/104
f  108/120/103 111/119/106 91/109/90
f  95/110/94 91/109/90 111/119/106
f  83/98/82 84/98/83 86/100/85
f  87/100/86 86/100/85 84/98/83
f  82/96/81 85/96/84 83/98/82
f  84/98/83 83/98/82 85/96/84
f  86/100/85 87/100/86 94/110/93
f  95/110/94 94/110/93 87/100/86
f  94/110/93 95/110/94 110/119/105
f  111/119/106 110/119/105 95/110/94
f  110/119/105 111/119/106 105/116/101
f  107/116/102 105/116/101 111/119/106
f  105/116/101 107/116/102 97/112/96
f  103/112/100 97/112/96 107/116/102
f  97/112/96 103/112/100 99/114/97
f  101/114/99 99/114/97 103/112/100
f  81/121/80 104/115/95 80/122/79
f  78/122/77 106/115/98 79/121/78
f  108/120/103 79/121/78 111/119/106
f  106/115/98 107/116/102 79/121/78
f  79/121/78 107/116/102 111/119/106
f  109/120/104 110/119/105 81/121/80
f  110/119/105 105/116/101 81/121/80
f  81/121/80 105/116/101 104/115/95
f  112/123/95 113/124/95 114/125/107
f  115/126/108 114/125/107 113/124/95
f  114/125/107 115/126/108 116/127/109
f  117/128/109 116/127/109 115/126/108
f  118/129/110 119/130/111 52/70/51
f  36/51/36 52/70/51 119/130/111
f  120/130/112 118/129/110 38/51/38
f  52/70/51 38/51/38 118/129/110
f  119/130/111 35/131/35 36/51/36
f  38/51/38 37/131/37 120/130/112
f  45/132/44 121/133/113 46/134/45
f  122/135/114 46/134/45 121/133/113
f  48/134/47 123/135/115 47/132/46
f  124/133/116 47/132/46 123/135/115
f  47/136/46 124/137/116 45/132/44
f  121/133/113 45/132/44 124/137/116
f  46/134/45 122/138/114 55/139/54
f  125/140/117 55/139/54 122/138/114
f  54/139/53 126/140/118 48/134/47
f  123/138/115 48/134/47 126/140/118
f  55/139/54 125/140/117 53/141/52
f  127/142/119 53/141/52 125/140/117
f  53/141/52 127/142/119 54/139/53
f  126/140/118 54/139/53 127/142/119
f  35/50/35 128/143/120 34/49/34
f  129/144/121 34/49/34 128/143/120
f  129/144/121 128/143/120 121/133/113
f  122/135/114 121/133/113 128/143/120
f  33/49/33 130/144/122 37/50/37
f  131/143/123 37/50/37 130/144/122
f  131/143/123 130/144/122 123/135/115
f  124/133/116 123/135/115 130/144/122
f  34/49/34 129/144/121 33/145/33
f  130/146/122 33/145/33 129/144/121
f  130/146/122 129/144/121 124/137/116
f  121/133/113 124/137/116 129/144/121
f  119/130/111 132/147/124 35/148/35
f  128/149/120 35/148/35 132/147/124
f  128/149/120 132/147/124 122/138/114
f  125/140/117 122/138/114 132/147/124
f  37/148/37 131/149/123 120/130/112
f  133/147/125 120/130/112 131/149/123
f  133/147/125 131/149/123 126/140/118
f  123/138/115 126/140/118 131/149/123
f  118/129/110 134/150/126 119/130/111
f  132/147/124 119/130/111 134/150/126
f  132/147/124 134/150/126 125/140/117
f  127/142/119 125/140/117 134/150/126
f  120/130/112 133/147/125 118/129/110
f  134/150/126 118/129/110 133/147/125
f  134/150/126 133/147/125 127/142/119
f  126/140/118 127/142/119 133/147/125

