# File produced by Open Asset Import Library (http://www.assimp.sf.net)
# (assimp v5.2.3369795085)

mtllib 14.X.mtl

# 44 vertex positions
v  -2.04869986 -12.1927052 -0.341973066
v  -1.02376986 -12.1927052 -1.57137907
v  -1.79368579 -27.5322056 -0.454595417
v  -1.08860636 -27.5322056 -1.30034006
v  -1.1042074 0.787673473 -1.63843811
v  -2.12913728 0.787673473 -0.409032136
v  -1.86275351 -40.1699448 -1.22888792
v  1.26322138 -37.0918121 1.37717175
v  3.03100157 -33.0324097 2.85093284
v  3.80701494 -27.4770794 3.49787903
v  3.19190073 -12.1430416 2.98507142
v  3.76623893 -20.8969936 3.46388507
v  3.46290064 -4.13713408 3.2109983
v  1.4851706 0.838601053 2.1324513
v  5.05468273 3.23552537 4.53803349
v  2.02436757 0.840550721 1.39851463
v  0.620719671 0.198961303 2.27521634
v  -1.42360723 0.182715565 1.58276367
v  2.03100681 0.198961303 0.58357358
v  0.94648701 0.182715565 -1.26017034
v  -1.06214738 0.166471437 -1.99512422
v  -2.47243452 0.166471437 -0.303481281
v  2.44775701 19.0611668 0.585347116
v  0.70583725 19.0611668 2.67478418
v  1.46483028 17.9418182 0.406971812
v  0.338022083 17.9418182 1.75858092
v  -3.1145215 19.0210381 -0.510168791
v  -1.37260175 19.0210381 -2.5996058
v  -2.13330603 17.9158592 -0.301713437
v  -1.00649798 17.9158592 -1.65332258
v  -1.24584019 20.2486629 1.116714
v  -1.81901824 19.0411015 1.81945705
v  0.934793949 20.262104 1.10284793
v  -1.29530656 17.9288368 1.20527732
v  -1.62432408 20.2352238 -1.030635
v  0.520028353 20.2486629 -1.0014497
v  1.10817277 19.0411015 -1.69171584
v  0.598245978 17.9288368 -1.06604362
v  1.92702627 16.9785156 0.496887207
v  0.51673919 16.9785156 2.18853021
v  -2.57623172 16.9164257 -0.390014708
v  -1.16594446 16.9164257 -2.08165765
v  -1.52749538 16.9473705 1.49615431
v  0.842598915 16.9473705 -1.3467797

# 64 UV coordinates
vt 0.588769972 -0.0272400379 0
vt 0.588769972 -0.110229969 0
vt 0.15535 -0.0272400379 0
vt 0.15535 -0.110229969 0
vt 0.955529988 -0.110229969 0
vt 0.955529988 -0.0272400379 0
vt -0.206619993 -0.0271799564 0
vt -0.153040007 0.480740011 0
vt 0.0614599995 0.480740011 0
vt 0.332480013 0.978999972 0
vt 0.210859999 0.480740011 0
vt 0.319819987 0.480740011 0
vt 0.697420001 0.480740011 0
vt 0.693799973 0.978999972 0
vt 0.483859986 0.480740011 0
vt 0.885919988 0.480740011 0
vt 0.999559999 0.978999972 0
vt 0.999559999 0.695739985 0
vt 1.08264995 0.480740011 0
vt 0.999559999 0.699409962 0
vt -0.124370001 0.110599995 0
vt -0.151409999 0.0855399966 0
vt -0.124370001 0.159449995 0
vt -0.151409999 0.167620003 0
vt -0.174510002 0.153569996 0
vt -0.174510002 0.10473001 0
vt 0.875940025 0.305079997 0
vt 0.875940025 0.375310004 0
vt 0.824919999 0.305079997 0
vt 0.824919999 0.375310004 0
vt 0.875940025 0.0771499872 0
vt 0.875940025 0.156700015 0
vt 0.824919999 0.0771499872 0
vt 0.824919999 0.156700015 0
vt -0.748870015 0.19046998 0
vt -0.748870015 0.131359994 0
vt -0.647970021 0.282190025 0
vt -0.598249972 0.219479978 0
vt 0.875940025 0.438730001 0
vt 0.824919999 0.438730001 0
vt -0.849749982 0.282190025 0
vt -0.899469972 0.19392997 0
vt 0.875940025 0.00382000208 0
vt 0.824919999 0.00382000208 0
vt -0.598249972 0.371249974 0
vt -0.748870015 0.370239973 0
vt -0.748870015 0.429350019 0
vt 0.875940025 0.224439979 0
vt 0.824919999 0.224439979 0
vt -0.899469972 0.371249974 0
vt 0.0107100001 0.305079997 0
vt 0.787360013 0.305079997 0
vt 0.0107100001 0.375310004 0
vt 0.787360013 0.375310004 0
vt 0.0107100001 0.0771499872 0
vt 0.785899997 0.0771499872 0
vt 0.0107100001 0.156700015 0
vt 0.785899997 0.156700015 0
vt 0.0107100001 0.438730001 0
vt 0.786629975 0.438730001 0
vt 0.0107100001 0.00382000208 0
vt 0.786629975 0.00382000208 0
vt 0.0107100001 0.224439979 0
vt 0.786629975 0.224439979 0

# 44 vertex normals
vn -0.988252103 -0.00717821997 0.152663842
vn -0.0276407097 -0.00717718387 -0.999592185
vn -0.98999083 -0.000814399624 0.141129196
vn -0.0392917171 -0.000815111445 -0.999227464
vn -0.0363601223 0.563408732 -0.825377822
vn -0.81806159 0.56375283 0.11383298
vn -0.258859962 -0.941499174 -0.215802819
vn 0.549431503 -0.698791265 0.458056509
vn 0.711709738 -0.376045555 0.593345582
vn 0.765582442 -0.0806787387 0.638258994
vn 0.767919242 0.0211261604 0.640198171
vn 0.766597986 -0.0622615479 0.639101744
vn 0.760480404 -0.137167037 0.634708405
vn -0.575558126 0.601127863 0.554416955
vn 0.546984494 0.700301468 0.458678395
vn 0.443530113 0.613231122 -0.653627276
vn 0.220802724 -0.593886912 0.773656607
vn -0.491103768 -0.634307623 0.597051919
vn 0.802784503 -0.592329085 0.0684341043
vn 0.496786386 -0.638443649 -0.587871552
vn -0.204364717 -0.602909982 -0.771190405
vn -0.793329358 -0.604541481 -0.0718196705
vn 0.995814562 0.0367440768 0.0836850628
vn 0.243414238 0.0729185268 0.96717757
vn 0.982775629 -0.177639499 0.0509533323
vn 0.237820074 -0.174509481 0.95550406
vn -0.994993329 0.0240457188 -0.097005263
vn -0.232023358 0.0590779595 -0.970914483
vn -0.979216456 -0.193426803 -0.0610019676
vn -0.225288197 -0.196512684 -0.954268277
vn -0.283261329 0.837825119 0.466703475
vn -0.611121893 0.0381391235 0.790617168
vn 0.320518732 0.891420186 0.32037136
vn -0.632687032 -0.148836106 0.759970367
vn -0.327263296 0.884032547 -0.333744109
vn 0.271670789 0.838515043 -0.472321361
vn 0.610200942 0.0377917327 -0.791344762
vn 0.633758843 -0.148414254 -0.759159327
vn 0.973597825 0.212302625 0.0838740766
vn 0.269857556 0.21027334 0.939660609
vn -0.976406574 0.191847056 -0.0991209149
vn -0.261048198 0.193965331 -0.945638061
vn -0.632314026 0.172946498 0.755161226
vn 0.628921032 0.173984125 -0.757751882

# Mesh '' with 80 faces
usemtl knife
f  1/1/1 2/2/2 3/3/3
f  4/4/4 3/3/3 2/2/2
f  5/5/5 2/2/2 6/6/6
f  1/1/1 6/6/6 2/2/2
f  4/4/4 7/7/7 3/3/3
f  7/8/7 8/9/8 3/10/3
f  3/10/3 8/9/8 9/11/9
f  9/11/9 8/9/8 4/10/4
f  4/10/4 8/9/8 7/8/7
f  10/12/10 3/10/3 9/11/9
f  9/11/9 4/10/4 10/12/10
f  11/13/11 1/14/1 12/15/12
f  12/15/12 2/14/2 11/13/11
f  10/12/10 4/10/4 12/15/12
f  12/15/12 4/10/4 2/14/2
f  10/12/10 12/15/12 3/10/3
f  3/10/3 12/15/12 1/14/1
f  13/16/13 1/14/1 11/13/11
f  11/13/11 2/14/2 13/16/13
f  5/17/5 13/16/13 2/14/2
f  1/14/1 13/16/13 6/17/6
f  6/17/6 14/18/14 5/17/5
f  13/16/13 14/18/14 6/17/6
f  15/19/15 14/18/14 13/16/13
f  14/18/14 16/20/16 5/17/5
f  15/19/15 16/20/16 14/18/14
f  13/16/13 16/20/16 15/19/15
f  5/17/5 16/20/16 13/16/13
f  17/21/17 18/22/18 19/23/19
f  20/24/20 19/23/19 18/22/18
f  20/24/20 18/22/18 21/25/21
f  22/26/22 21/25/21 18/22/18
f  23/27/23 24/28/24 25/29/25
f  26/30/26 25/29/25 24/28/24
f  27/31/27 28/32/28 29/33/29
f  30/34/30 29/33/29 28/32/28
f  31/35/31 32/36/32 33/37/33
f  24/38/24 33/37/33 32/36/32
f  24/28/24 32/39/32 26/30/26
f  34/40/34 26/30/26 32/39/32
f  35/41/35 27/42/27 31/35/31
f  32/36/32 31/35/31 27/42/27
f  32/43/32 27/31/27 34/44/34
f  29/33/29 34/44/34 27/31/27
f  33/37/33 23/45/23 36/46/36
f  37/47/37 36/46/36 23/45/23
f  37/48/37 23/27/23 38/49/38
f  25/29/25 38/49/38 23/27/23
f  36/46/36 37/47/37 35/41/35
f  28/50/28 35/41/35 37/47/37
f  28/32/28 37/48/37 30/34/30
f  38/49/38 30/34/30 37/48/37
f  19/51/19 39/52/39 17/53/17
f  40/54/40 17/53/17 39/52/39
f  40/54/40 39/52/39 26/30/26
f  25/29/25 26/30/26 39/52/39
f  22/55/22 41/56/41 21/57/21
f  42/58/42 21/57/21 41/56/41
f  42/58/42 41/56/41 30/34/30
f  29/33/29 30/34/30 41/56/41
f  17/53/17 40/54/40 18/59/18
f  43/60/43 18/59/18 40/54/40
f  43/60/43 40/54/40 34/40/34
f  26/30/26 34/40/34 40/54/40
f  18/61/18 43/62/43 22/55/22
f  41/56/41 22/55/22 43/62/43
f  41/56/41 43/62/43 29/33/29
f  34/44/34 29/33/29 43/62/43
f  20/63/20 44/64/44 19/51/19
f  39/52/39 19/51/19 44/64/44
f  39/52/39 44/64/44 25/29/25
f  38/49/38 25/29/25 44/64/44
f  21/57/21 42/58/42 20/63/20
f  44/64/44 20/63/20 42/58/42
f  44/64/44 42/58/42 38/49/38
f  30/34/30 38/49/38 42/58/42
f  36/46/36 35/41/35 31/35/31
f  27/42/27 35/41/35 28/50/28
f  31/35/31 33/37/33 36/46/36
f  23/45/23 33/37/33 24/38/24

