# File produced by Open Asset Import Library (http://www.assimp.sf.net)
# (assimp v5.2.3369795085)

mtllib 15.X.mtl

# 78 vertex positions
v  0.381409705 31.2642059 2.61243224
v  2.14277101 31.2642059 1.40592945
v  0.381409705 96.223999 2.61243224
v  2.14277101 96.1945038 1.40592945
v  2.52005291 96.1663971 -0.612112403
v  2.52005291 31.2642059 -0.612112403
v  -0.470565736 31.2642059 -2.5956068
v  -2.18273401 31.2642059 -1.46291327
v  -0.470565736 96.1663971 -2.5956068
v  -2.18273401 96.1945038 -1.46291327
v  -2.60920906 96.223999 0.628937721
v  -2.60920906 31.2642059 0.628937721
v  -1.48987031 31.2642059 1.92666459
v  -1.48987031 96.223999 1.92666459
v  1.16031611 31.2642059 -2.0691607
v  1.16031611 96.1663971 -2.0691607
v  2.99391174 102.882706 -0.726813853
v  2.54704094 102.882706 1.66409755
v  2.54704094 116.664505 1.66409755
v  2.99391174 116.664505 -0.726813853
v  0.460072935 102.882706 3.09358764
v  0.460072935 116.664505 3.09358764
v  -3.08306766 102.882706 0.74363929
v  -2.57782888 102.882706 -1.73491526
v  -2.57782888 116.664505 -1.73491526
v  -3.08306766 116.664505 0.74363929
v  -0.549228907 102.882706 -3.0767622
v  -0.549228907 116.664505 -3.0767622
v  -1.75689328 102.882706 2.28114343
v  -1.75689328 116.664505 2.28114343
v  1.38305926 102.882706 -2.45312762
v  1.38305926 116.664505 -2.45312762
v  2.1421876 -49.7917976 1.40554261
v  -0.140725806 -50.5154953 -0.0924948528
v  2.51963615 -49.7917976 -0.612388849
v  1.16031611 -49.7917976 -2.0691607
v  -1.48987031 -49.7917976 1.92666459
v  0.380992979 -49.7917976 2.61215568
v  -2.60962558 -49.7917976 0.628661335
v  -0.470982373 -49.7917976 -2.59588313
v  -2.18331718 -49.7917976 -1.46330023
v  -0.157811537 117.508896 -0.104546741
v  9.50141144 106.070496 -7.28931522
v  9.50141144 111.025696 -7.28931522
v  15.262907 106.070496 -4.74469709
v  15.262907 111.025696 -4.74469709
v  -3.01915479 111.025696 11.5886002
v  -3.01915479 106.070496 11.5886002
v  1.56626093 111.025696 15.906455
v  1.56626093 106.070496 15.906455
v  6.63472891 111.025696 1.56216264
v  -3.54442477 111.025696 -5.18904781
v  3.60731053 111.025696 6.12676048
v  -6.57184315 111.025696 -0.624449909
v  -3.54442477 106.070496 -5.18904781
v  6.63472891 106.070496 1.56216264
v  -6.57184315 106.070496 -0.624449909
v  3.60731053 106.070496 6.12676048
v  -6.48090982 111.025696 4.78572893
v  2.38317442 111.025696 11.065877
v  2.38317442 106.070496 11.065877
v  -6.48090982 106.070496 4.78572893
v  10.8032703 111.025696 -1.62954259
v  1.56958151 111.025696 -7.35241985
v  10.8032703 106.070496 -1.62954259
v  1.56958151 106.070496 -7.35241985
v  33.5127144 109.278503 19.3886852
v  40.1209755 106.070496 23.7715416
v  37.0935555 106.070496 28.3361397
v  30.4852943 109.278503 23.9532833
v  34.4445305 106.070496 32.3302155
v  31.9653015 106.070496 36.0682793
v  25.3570385 109.278503 31.6854229
v  27.8362694 109.278503 27.9473591
v  36.2563629 109.278503 15.2519379
v  39.0536842 109.278503 11.0342712
v  45.6619453 106.070496 15.4171267
v  42.8646278 106.070496 19.6347942

# 140 UV coordinates
vt 0.981469989 -0.812909961 0
vt 0.981469989 -0.711089969 0
vt 0.01095 -0.812909961 0
vt 0.01095 -0.71092999 0
vt 0.01095 -0.613520026 0
vt 0.981469989 -0.61382997 0
vt 0.981469989 -0.715649962 0
vt 0.01095 -0.715510011 0
vt 0.981469989 -0.981050014 0
vt 0.981469989 -0.896149993 0
vt 0.01095 -0.981050014 0
vt 0.01095 -0.896149993 0
vt 0.01095 -0.796399951 0
vt 0.981469989 -0.796399951 0
vt 0.981469989 -0.881309986 0
vt 0.01095 -0.881309986 0
vt 0.0286299996 0.0273900032 0
vt 0.274230003 0.0273900032 0
vt 0.0286299996 0.116720021 0
vt 0.27414 0.11729002 0
vt 0.772790015 0.117709994 0
vt 0.772790015 0.0273900032 0
vt 0.0286299996 0.223760009 0
vt 0.274040014 0.223760009 0
vt 0.772790015 0.223760009 0
vt 0.274040014 0.0273900032 0
vt 0.0286299996 0.121519983 0
vt 0.27414 0.122060001 0
vt 0.772790015 0.122470021 0
vt 0.274230003 0.223760009 0
vt 0.0286299996 0.206420004 0
vt 0.274089992 0.206420004 0
vt 0.0286299996 0.311100006 0
vt 0.274089992 0.311100006 0
vt 0.772870004 0.311100006 0
vt 0.772870004 0.206420004 0
vt 0.0286299996 0.392750025 0
vt 0.274089992 0.392750025 0
vt 0.772870004 0.392750025 0
vt 0.274269998 0.206420004 0
vt 0.0286299996 0.295530021 0
vt 0.274269998 0.295530021 0
vt 0.772870004 0.295530021 0
vt 0.274269998 0.392750025 0
vt 1.52630997 0.124059975 0
vt 1.38007998 0.209469974 0
vt 1.40797997 0.0426499844 0
vt 1.26865995 0.0633900166 0
vt 1.47438002 0.365480006 0
vt 1.55727005 0.280889988 0
vt 1.34327996 0.402530015 0
vt 1.17727005 0.15872997 0
vt 1.20440996 0.309970021 0
vt 0.000479999988 0.112399995 0
vt 0.000539999979 0.0194500089 0
vt 0.993499994 0.112230003 0
vt 0.993499994 0.0194500089 0
vt 0.000419999997 0.227909982 0
vt 0.993499994 0.227909982 0
vt 0.000479999988 0.117579997 0
vt 0.993499994 0.117420018 0
vt 0.000479999988 0.322430015 0
vt 0.000539999979 0.209140003 0
vt 0.993499994 0.322440028 0
vt 0.993499994 0.209140003 0
vt 0.000419999997 0.391770005 0
vt 0.993499994 0.391770005 0
vt 0.000490000006 0.305599988 0
vt 0.993499994 0.305589974 0
vt 1.70165002 1.10176003 0
vt 1.53225005 1.19832003 0
vt 1.57025003 1.01478004 0
vt 1.42385006 1.06338 0
vt 1.62400997 1.36547995 0
vt 1.73177004 1.25858998 0
vt 1.49644995 1.40252995 0
vt 1.33492994 1.15872002 0
vt 1.36133003 1.30996001 0
vt 0.68058002 0.464380026 0
vt 0.68058002 0.585489988 0
vt 0.531140029 0.464380026 0
vt 0.531140029 0.585489988 0
vt -0.250959992 0.654510021 0
vt -0.00465000002 0.64576 0
vt -0.244399995 0.814700007 0
vt -0.00465000002 0.814700007 0
vt -0.0121400002 1.64908004 0
vt -0.239899993 1.64908004 0
vt -0.0121400002 1.78420997 0
vt -0.239899993 1.78420997 0
vt 0.914349973 0.585489988 0
vt 0.914349973 0.464380026 0
vt -0.00465000002 0.994329989 0
vt -0.275739998 0.903760016 0
vt 0.99691999 0.890320003 0
vt 0.705910027 0.890320003 0
vt 0.99691999 0.788900018 0
vt 0.705910027 0.788900018 0
vt -0.271789998 1.86172998 0
vt -0.069310002 1.85632002 0
vt 0.840539992 0.585489988 0
vt 0.840539992 0.464380026 0
vt -0.271369994 0.564460039 0
vt -0.00465000002 0.455079973 0
vt 0.705910027 0.56795001 0
vt 0.99691999 0.56795001 0
vt 0.705910027 0.672989964 0
vt 0.99691999 0.672989964 0
vt -0.069310002 1.57419002 0
vt -0.271789998 1.56877995 0
vt -0.802359998 -0.00850999355 0
vt -0.987360001 -0.151299953 0
vt -0.0411499999 -0.00993001461 0
vt -0.0411499999 -0.151299953 0
vt -0.989180028 1.64908004 0
vt -0.989180028 1.78420997 0
vt -0.835709989 0.814700007 0
vt -0.835709989 0.661069989 0
vt -0.993290007 0.661069989 0
vt -0.993290007 0.814700007 0
vt -0.989180028 1.86172998 0
vt -0.989180028 1.98831999 0
vt -0.308979988 1.98831999 0
vt -0.826960027 0.994329989 0
vt -0.835709989 0.903760016 0
vt -0.31013 0.994329989 0
vt -0.984539986 0.994329989 0
vt -0.993290007 0.903760016 0
vt -0.835709989 0.568830013 0
vt -0.833519995 0.455079973 0
vt -0.314500004 0.455079973 0
vt -0.989180028 1.45780003 0
vt -0.989180028 1.56877995 0
vt -0.308979988 1.45780003 0
vt -0.991100013 0.455079973 0
vt -0.993290007 0.568830013 0
vt -0.194130003 0.455079973 0
vt -0.200690001 0.994329989 0
vt -0.193220004 1.47501004 0
vt -0.193220004 1.97110999 0

# 77 vertex normals
vn 0.124331117 -2.6436619e-06 0.992240787
vn 0.837818742 -3.71324518e-06 0.545948505
vn 0.123652175 -0.0369938686 0.991635799
vn 0.837005198 -0.0360293314 0.546007454
vn 0.959507167 -0.0364077613 -0.279321522
vn 0.960216105 -1.59742115e-06 -0.279258013
vn -0.135687307 2.65782614e-06 -0.990751684
vn -0.828860164 3.70921362e-06 -0.559455812
vn -0.135505736 -0.0364935547 -0.990104258
vn -0.828596056 -0.0361747295 -0.558676958
vn -0.966813028 -0.0370735154 0.252780855
vn -0.9675861 1.59868966e-06 0.252541423
vn -0.568901539 -3.64242027e-07 0.822405636
vn -0.568403542 -0.0334193856 0.822070897
vn 0.536332369 4.243322e-07 -0.844006836
vn 0.536219001 -0.0331366844 -0.843428195
vn 0.959736466 -0.035882879 -0.278600633
vn 0.837317586 -0.0355419293 0.5455603
vn 0.70088768 0.54784584 0.45675087
vn 0.810444057 0.537431359 -0.23312664
vn 0.124620765 -0.0361292847 0.991546452
vn 0.106665947 0.537611723 0.836418569
vn -0.966984808 -0.0361003615 0.252264142
vn -0.82831198 -0.0354175866 -0.559146523
vn -0.698146164 0.539024413 -0.471216112
vn -0.817507446 0.534608185 0.214186072
vn -0.135838866 -0.0358587578 -0.990081787
vn -0.114544794 0.534280896 -0.837510228
vn -0.56875962 -0.0330678858 0.821838796
vn -0.47223556 0.556982636 0.683201253
vn 0.535866976 -0.0327904597 -0.843665421
vn 0.446476877 0.554800451 -0.702036202
vn 0.701495528 -0.546679497 0.457215011
vn -0.00985555071 -0.999895513 -0.0105723245
vn 0.811269641 -0.536145389 -0.233215988
vn 0.447163641 -0.55308795 -0.702949822
vn -0.472670972 -0.555656791 0.683979273
vn 0.106825002 -0.536539853 0.83708626
vn -0.818255961 -0.533334255 0.214503407
vn -0.114618465 -0.532754481 -0.838471949
vn -0.698984921 -0.537505925 -0.471706957
vn -0.00974176452 0.999904156 -0.00983991101
vn 0.15723747 -0.664230049 -0.730804265
vn 0.15723747 0.664230049 -0.730804265
vn 0.34817329 -0.688516974 -0.636175811
vn 0.364603013 0.701445878 -0.612403691
vn -0.593741775 0.67046392 0.444914401
vn -0.593741775 -0.670463979 0.444914341
vn -0.423239201 0.701418221 0.57348156
vn -0.450630367 -0.688516974 0.568222404
vn 0.346770346 0.937933207 0.00562076224
vn -0.486604691 0.647601008 -0.586369216
vn 0.140711769 0.938991189 0.313840359
vn -0.732649863 0.646027505 -0.214179069
vn -0.486604631 -0.647601008 -0.586369216
vn 0.339896202 -0.940392256 -0.0115312748
vn -0.732649922 -0.646027386 -0.214179084
vn 0.122258604 -0.941459894 0.314175367
vn -0.729231417 0.659794152 0.18136473
vn 0.479266554 0.860704362 -0.171731114
vn 0.472129494 -0.862170994 -0.183725104
vn -0.729231477 -0.659794092 0.18136473
vn 0.0324640274 0.862035275 0.505807579
vn -0.145672336 0.664209068 -0.733216107
vn 0.017096024 -0.863579273 0.503923178
vn -0.145672381 -0.664209127 -0.733216047
vn 0.505636752 0.722901285 -0.470898271
vn 0.986949503 -0.160862356 0.00734533742
vn 0.390689284 -0.16086252 0.906358182
vn -0.237117261 0.722901285 0.64899087
vn 0.986949563 -0.160862267 0.00734469341
vn -0.235514611 0.721708775 0.650898814
vn 0.507902265 0.721734107 -0.47025013
vn -0.236424878 0.722388029 0.649814487
vn 0.506786883 0.722361267 -0.470490426
vn 0.986949503 -0.160862446 0.0073459493
vn 0.390689313 -0.160862193 0.906358242

# Mesh '' with 148 faces
usemtl kuwa
f  1/1/1 2/2/2 3/3/3
f  4/4/4 3/3/3 2/2/2
f  4/4/4 2/2/2 5/5/5
f  6/6/6 5/5/5 2/2/2
f  7/1/7 8/7/8 9/3/9
f  10/8/10 9/3/9 8/7/8
f  10/8/10 8/7/8 11/5/11
f  12/6/12 11/5/11 8/7/8
f  12/9/12 13/10/13 11/11/11
f  14/12/14 11/11/11 13/10/13
f  14/12/14 13/10/13 3/13/3
f  1/14/1 3/13/3 13/10/13
f  6/9/6 15/15/15 5/11/5
f  16/16/16 5/11/5 15/15/15
f  16/16/16 15/15/15 9/13/9
f  7/14/7 9/13/9 15/15/15
f  5/17/5 17/18/17 4/19/4
f  18/20/18 4/19/4 17/18/17
f  18/20/18 17/18/17 19/21/19
f  20/22/20 19/21/19 17/18/17
f  4/19/4 18/20/18 3/23/3
f  21/24/21 3/23/3 18/20/18
f  21/24/21 18/20/18 22/25/22
f  19/21/19 22/25/22 18/20/18
f  11/17/11 23/26/23 10/27/10
f  24/28/24 10/27/10 23/26/23
f  24/28/24 23/26/23 25/29/25
f  26/22/26 25/29/25 23/26/23
f  10/27/10 24/28/24 9/23/9
f  27/30/27 9/23/9 24/28/24
f  27/30/27 24/28/24 28/25/28
f  25/29/25 28/25/28 24/28/24
f  3/31/3 21/32/21 14/33/14
f  29/34/29 14/33/14 21/32/21
f  29/34/29 21/32/21 30/35/30
f  22/36/22 30/35/30 21/32/21
f  14/33/14 29/34/29 11/37/11
f  23/38/23 11/37/11 29/34/29
f  23/38/23 29/34/29 26/39/26
f  30/35/30 26/39/26 29/34/29
f  9/31/9 27/40/27 16/41/16
f  31/42/31 16/41/16 27/40/27
f  31/42/31 27/40/27 32/43/32
f  28/36/28 32/43/32 27/40/27
f  16/41/16 31/42/31 5/37/5
f  17/44/17 5/37/5 31/42/31
f  17/44/17 31/42/31 20/39/20
f  32/43/32 20/39/20 31/42/31
f  33/45/33 34/46/34 35/47/35
f  35/47/35 34/46/34 36/48/36
f  37/49/37 34/46/34 38/50/38
f  39/51/39 34/46/34 37/49/37
f  36/48/36 34/46/34 40/52/40
f  41/53/41 34/46/34 39/51/39
f  40/52/40 34/46/34 41/53/41
f  38/50/38 34/46/34 33/45/33
f  33/54/33 35/55/35 2/56/2
f  6/57/6 2/56/2 35/55/35
f  38/58/38 33/54/33 1/59/1
f  2/56/2 1/59/1 33/54/33
f  41/60/41 39/55/39 8/61/8
f  12/57/12 8/61/8 39/55/39
f  40/58/40 41/60/41 7/59/7
f  8/61/8 7/59/7 41/60/41
f  37/62/37 38/63/38 13/64/13
f  1/65/1 13/64/13 38/63/38
f  39/66/39 37/62/37 12/67/12
f  13/64/13 12/67/12 37/62/37
f  36/68/36 40/63/40 15/69/15
f  7/65/7 15/69/15 40/63/40
f  35/66/35 36/68/36 6/67/6
f  15/69/15 6/67/6 36/68/36
f  19/70/19 42/71/42 22/72/22
f  22/72/22 42/71/42 30/73/30
f  32/74/32 42/71/42 20/75/20
f  28/76/28 42/71/42 32/74/32
f  30/73/30 42/71/42 26/77/26
f  25/78/25 42/71/42 28/76/28
f  26/77/26 42/71/42 25/78/25
f  20/75/20 42/71/42 19/70/19
f  43/79/43 44/80/44 45/81/45
f  46/82/46 45/81/45 44/80/44
f  47/80/47 48/79/48 49/82/49
f  50/81/50 49/82/49 48/79/48
f  51/83/51 52/84/52 53/85/53
f  54/86/54 53/85/53 52/84/52
f  55/87/55 56/88/56 57/89/57
f  58/90/58 57/89/57 56/88/56
f  52/91/52 55/92/55 54/91/54
f  57/92/57 54/91/54 55/92/55
f  59/93/59 60/94/60 54/86/54
f  53/85/53 54/86/54 60/94/60
f  60/95/60 61/96/61 53/97/53
f  58/98/58 53/97/53 61/96/61
f  61/99/61 62/100/62 58/90/58
f  57/89/57 58/90/58 62/100/62
f  47/80/47 59/101/59 48/79/48
f  62/102/62 48/79/48 59/101/59
f  62/102/62 59/101/59 57/92/57
f  54/91/54 57/92/57 59/101/59
f  63/103/63 64/104/64 51/83/51
f  52/84/52 51/83/51 64/104/64
f  65/105/65 63/106/63 56/107/56
f  51/108/51 56/107/56 63/106/63
f  66/109/66 65/110/65 55/87/55
f  56/88/56 55/87/55 65/110/65
f  43/79/43 66/102/66 44/80/44
f  64/101/64 44/80/44 66/102/66
f  64/101/64 66/102/66 52/91/52
f  55/92/55 52/91/52 66/102/66
f  67/111/67 68/112/68 51/113/51
f  56/114/56 51/113/51 68/112/68
f  68/115/68 69/116/69 56/88/56
f  58/90/58 56/88/56 69/116/69
f  69/112/69 70/111/70 58/114/58
f  53/113/53 58/114/58 70/111/70
f  70/117/70 67/118/67 53/85/53
f  51/83/51 53/85/53 67/118/67
f  68/119/68 67/118/67 69/120/69
f  70/117/70 69/120/69 67/118/67
f  71/121/71 72/122/69 61/99/61
f  50/123/50 61/99/61 72/122/69
f  72/112/69 73/111/72 50/114/50
f  49/113/49 50/114/50 73/111/72
f  73/124/72 74/125/73 49/126/49
f  60/94/60 49/126/49 74/125/73
f  74/111/73 71/112/71 60/113/60
f  61/114/61 60/113/60 71/112/71
f  72/127/69 71/128/71 73/124/72
f  74/125/73 73/124/72 71/128/71
f  75/129/74 76/130/75 63/103/63
f  46/131/46 63/103/63 76/130/75
f  76/111/75 77/112/76 46/113/46
f  45/114/45 46/113/46 77/112/76
f  77/132/76 78/133/77 45/134/45
f  65/110/65 45/134/45 78/133/77
f  78/112/77 75/111/74 65/114/65
f  63/113/63 65/114/65 75/111/74
f  76/130/75 75/129/74 77/135/76
f  78/136/77 77/135/76 75/129/74
f  46/131/46 44/137/44 63/103/63
f  63/103/63 44/137/44 64/104/64
f  59/93/59 47/138/47 60/94/60
f  60/94/60 47/138/47 49/126/49
f  66/109/66 43/139/43 65/110/65
f  65/110/65 43/139/43 45/134/45
f  50/123/50 48/140/48 61/99/61
f  61/99/61 48/140/48 62/100/62

