# File produced by Open Asset Import Library (http://www.assimp.sf.net)
# (assimp v5.2.3369795085)

mtllib 19.x.mtl

# 78 vertex positions
v  -8.24475479 144.299683 -6.30443096
v  -9.7554512 143.860092 -7.71408176
v  -10.2748947 148.848618 -7.70967054
v  -10.0872183 143.856796 -7.23518276
v  -12.6535797 150.884613 -9.3633976
v  -12.1336126 148.345825 -9.18342495
v  -12.2986622 148.344391 -8.94565392
v  -11.4164696 143.495285 -8.18134975
v  -11.1018944 143.499023 -8.63553524
v  1.97682488 21.9963474 0.190075114
v  3.62639594 21.9852467 1.89001191
v  1.46319711 21.9908638 0.931481421
v  -0.629980624 73.3001175 -1.70377135
v  0.562716067 45.4310074 -0.908607423
v  -1.1990006 73.2945633 -0.881857634
v  -0.053377524 45.4245834 -0.0194225125
v  -0.375829399 21.9885883 -0.185620397
v  0.291998863 21.9955864 -1.14956582
v  2.47003508 45.4072456 0.495812416
v  1.04792488 73.3962631 -0.540887535
v  3.91791415 45.3832245 2.08977509
v  2.65895152 73.5583115 1.1984297
v  1.88416123 45.4014282 1.2872262
v  0.395484 73.4128494 0.294825256
v  -7.72088385 128.147614 -6.54988432
v  -3.38263965 102.06356 -3.57221341
v  -8.21103096 128.142502 -5.84246206
v  -3.90665078 102.058647 -2.81486773
v  -1.84511459 102.347664 -2.5232203
v  -6.36860132 128.362717 -5.64261627
v  -0.340016395 102.675911 -0.889307916
v  -4.89477348 129.049225 -4.05230618
v  -2.42279816 102.338768 -1.73195505
v  -6.89180326 128.357193 -4.88740206
v  0.0730925053 21.4765663 -1.53980827
v  -0.830686986 21.4803886 -0.225836188
v  0.162268251 25.8658638 -1.48198795
v  -0.741514623 25.8698921 -0.16801776
v  4.14630985 21.2761841 1.28698587
v  4.23556709 25.6654835 1.34486473
v  3.24238968 21.2801037 2.60097909
v  3.33156443 25.6694088 2.65880084
v  -2.65699124 -24.1398468 -2.51247811
v  -0.958897889 -24.3352966 -1.30319333
v  -4.24091816 -22.6902027 -2.23719382
v  -0.603135526 -23.1439896 0.324750602
v  0.599215448 -23.1465569 -1.40108442
v  -3.03862786 -22.6926727 -3.96294785
v  -0.220607758 21.452301 -1.98453701
v  -0.400997669 6.98607397 -2.12897897
v  -1.42273569 21.4547729 -0.258666217
v  -1.60321128 6.98874378 -0.403166801
v  4.37644053 21.2897892 1.25299168
v  3.45216966 6.77909279 0.572973132
v  3.17422676 21.2924595 2.97880363
v  2.24985766 6.78146172 2.29858899
v  -2.63215876 -7.39879894 -1.13075292
v  -1.42978442 -7.40136576 -2.85644889
v  2.37549186 -7.64094734 -0.176628605
v  1.17320061 -7.63848162 1.54912698
v  3.70859623 19.7835846 7.49876785
v  7.62197495 19.7233791 4.70296717
v  3.75437164 21.2709064 7.53085756
v  7.66775179 21.2106018 4.73505783
v  9.3480711 21.2609653 0.00214748993
v  9.30229473 19.7736435 -0.0299407039
v  -1.1633929 20.2448463 -6.91385412
v  -4.75958395 20.2932358 -4.01659203
v  -1.11761642 21.732069 -6.88176155
v  -4.71358395 21.7803631 -3.9844656
v  -6.2223444 21.7300949 0.504760087
v  -6.26815462 20.2426758 0.472891986
v  4.89354658 19.999752 -4.20492363
v  4.93946409 21.4869766 -4.17285633
v  -1.42106509 21.4880486 4.85898829
v  -1.46700454 20.0008221 4.82678032
v  1.65049827 21.4873772 0.497508019
v  1.60455704 20.0002575 0.465299517

# 114 UV coordinates
vt 0.281489998 0.670230031 0
vt 0.281489998 0.829460025 0
vt 0.122649997 0.829460025 0
vt 0.0234500002 0.985080004 0
vt 0.122649997 0.985080004 0
vt 0.281489998 0.985080004 0
vt 0.181209996 0.254530013 0
vt 0.186519995 0.175930023 0
vt 0.200949997 0.254310012 0
vt 0.375180006 0.986079991 0
vt 0.966820002 0.986090004 0
vt 1.10720003 0.986090004 0
vt 1.10720003 0.83039999 0
vt 0.375239998 0.830540001 0
vt 0.966820002 0.83039999 0
vt 0.375200003 0.671119988 0
vt 1.10720003 0.671380043 0
vt 0.966820002 0.671380043 0
vt 0.75387001 0.985080004 0
vt 0.280930012 0.985080004 0
vt 0.75387001 0.829460025 0
vt 0.280930012 0.829460025 0
vt 0.75387001 0.670230031 0
vt 0.280930012 0.670230031 0
vt 0.177289993 0.327109993 0
vt 0.205500007 0.326820016 0
vt 0.0404499993 0.541190028 0
vt 0.149100006 0.541190028 0
vt 0.0404499993 0.61748004 0
vt 0.149100006 0.61748004 0
vt 0.17024 0.172630012 0
vt 0.211620003 0.172029972 0
vt 0.171299994 0.339919984 0
vt 0.212679997 0.339320004 0
vt 0.995630026 0.102670014 0
vt 0.995630026 0.0823199749 0
vt 0.977729976 0.123660028 0
vt 0.977729976 0.0592399836 0
vt 0.428030014 0.256269991 0
vt 0.762040019 0.256269991 0
vt 0.428030014 0.35461998 0
vt 0.762040019 0.35461998 0
vt 0.40347001 0.00928997993 0
vt 0.734329998 0.0104699731 0
vt 0.402810007 0.243040025 0
vt 0.734430015 0.239660025 0
vt 0.462630004 0.355870008 0
vt 0.643019974 0.353380024 0
vt 0.462630004 0.25752002 0
vt 0.643019974 0.255029976 0
vt 0.405809999 0.243040025 0
vt 0.737749994 0.239660025 0
vt 0.406470001 0.00928997993 0
vt 0.745289981 0.0104699731 0
vt 0.990859985 0.352129996 0
vt 0.647759974 0.353380024 0
vt 0.994019985 0.253780007 0
vt 0.647759974 0.255029976 0
vt 0.895500004 0.255029976 0
vt 0.895500004 0.353380024 0
vt 0.993669987 0.245299995 0
vt 0.682820022 0.239099979 0
vt 0.993600011 0.0070400238 0
vt 0.676919997 0.00822001696 0
vt 0.86897999 0.0072799921 0
vt 0.865059972 0.242850006 0
vt 0.598659992 0.00876998901 0
vt 0.598510027 0.241190016 0
vt 0.888580024 0.350610018 0
vt 0.888580024 0.252260029 0
vt 0.641629994 0.350610018 0
vt 0.641629994 0.252260029 0
vt 0.340539992 0.339969993 0
vt 0.340759993 0.264020026 0
vt 0.30735001 0.337329984 0
vt 0.311839998 0.261439979 0
vt 0.31110999 0.260020018 0
vt 0.341470003 0.261889994 0
vt 0.308149993 0.338819981 0
vt 0.341129988 0.341939986 0
vt 0.340220004 0.264590025 0
vt 0.338910013 0.343020022 0
vt 0.311349988 0.260580003 0
vt 0.30715999 0.33901 0
vt 0.305020005 0.33829999 0
vt 0.339630008 0.342310011 0
vt 0.310770005 0.259769976 0
vt 0.339540005 0.260819972 0
vt 0.339729995 0.263090014 0
vt 0.341670007 0.340529978 0
vt 0.311729997 0.261489987 0
vt 0.306939989 0.338639975 0
vt 0.339419991 0.343079984 0
vt 0.307390004 0.339079976 0
vt 0.33792001 0.261749983 0
vt 0.311580002 0.260850012 0
vt 0.339329988 0.341440022 0
vt 0.340440005 0.260839999 0
vt 0.307289988 0.339250028 0
vt 0.311569989 0.260749996 0
vt 0.307249993 0.338310003 0
vt 0.340530008 0.340749979 0
vt 0.311010003 0.259729981 0
vt 0.339179993 0.260209978 0
vt 0.335429996 0.444270015 0
vt 0.341749996 0.259509981 0
vt 0.195969999 0.520959973 0
vt 0.186489999 0.257969975 0
vt 0.189019993 0.00976997614 0
vt 0.325560004 0.0630099773 0
vt 0.0569300018 0.468529999 0
vt 0.023 0.264490008 0
vt 0.0482000001 0.0674399734 0
vt 0.186489999 0.258170009 0

# 78 vertex normals
vn 0.764783561 0.358635366 0.535244524
vn 0.620283723 0.0394716635 -0.783383727
vn 0.555670142 0.734686852 0.389186144
vn -0.52045542 0.0329947323 0.8532511
vn -0.365873516 0.895632744 -0.25293988
vn -0.143491298 -0.113829255 -0.983083487
vn -0.971556187 -0.116537347 0.206149638
vn -0.969910741 -0.161128744 0.182512254
vn -0.166753232 -0.156926125 -0.973430812
vn 0.483828604 -0.690762401 -0.537361324
vn 0.687016189 -0.546508729 0.478891402
vn -0.334033549 -0.695043385 0.636660278
vn -0.166334465 -0.0577085949 -0.984379292
vn -0.153182939 -0.0133772977 -0.988107324
vn -0.982883334 -0.0576094873 0.174989924
vn -0.98058337 -0.0134972194 0.195637509
vn -0.803221345 -0.571991444 0.166316807
vn -0.12308 -0.567815959 -0.813901901
vn 0.671809018 0.000963501749 -0.740723729
vn 0.656729221 0.0103160301 -0.754055917
vn 0.822494805 0.0114356177 0.568657696
vn 0.820986748 0.090355888 0.563752234
vn -0.46325922 0.000798849738 0.886222482
vn -0.484405786 0.0104245394 0.874781311
vn -0.160771415 -0.152601302 -0.975123286
vn -0.161684304 -0.109081298 -0.980795324
vn -0.96998477 -0.155503228 0.186944634
vn -0.976752281 -0.109342247 0.184388861
vn 0.654027283 0.0184521861 -0.756245852
vn 0.644143939 0.0286408346 -0.764367878
vn 0.810538173 0.168064445 0.561054587
vn 0.794080496 0.251969188 0.553125322
vn -0.485306501 0.0181792881 0.874155104
vn -0.494460166 0.0243523065 0.868859053
vn -0.16149123 -0.558744311 -0.813465059
vn -0.81880486 -0.557247996 0.137961209
vn -0.131663129 0.59491235 -0.792933822
vn -0.786676645 0.597346783 0.155938104
vn 0.786695838 -0.597322524 -0.155933961
vn 0.818842769 0.557201982 -0.137922063
vn 0.131638154 -0.594936073 0.792920172
vn 0.16144906 0.558753729 0.813466907
vn -0.229123622 -0.951475322 -0.205419138
vn 0.135537669 -0.988862276 0.0614889562
vn -0.945009768 -0.298717827 0.133132279
vn 0.11810337 -0.439549953 0.890419781
vn 0.883974195 -0.428534389 -0.186943486
vn -0.203863174 -0.288080513 -0.935654521
vn -0.178418681 0.0124167399 -0.983876288
vn -0.162186772 0.0366553143 -0.986079037
vn -0.985351026 0.010588089 0.170209527
vn -0.981900036 0.0354976803 0.186043486
vn 0.985913217 -0.055410523 -0.157812461
vn 0.98293072 -0.059416309 -0.174117595
vn 0.186745375 -0.0575007275 0.980724156
vn 0.17448689 -0.0606559068 0.982789516
vn -0.980449498 0.0754415318 0.181734204
vn -0.16369018 0.0747069716 -0.983678997
vn 0.982236922 -0.0818213299 -0.168866664
vn 0.177212372 -0.0811255947 0.980823338
vn 0.0380258039 -0.624887764 0.779787958
vn 0.589722872 -0.6736058 0.445513368
vn 0.075358279 0.587177336 0.805942833
vn 0.629450381 0.616232932 0.473338306
vn 0.794244766 0.582229137 -0.173736721
vn 0.757147014 -0.621964335 -0.199721754
vn -0.120374888 -0.585757256 -0.801497519
vn -0.643802702 -0.619965076 -0.44851014
vn -0.0830511749 0.626046717 -0.775350213
vn -0.603753805 0.677256942 -0.420481145
vn -0.753646076 0.621246815 0.214639217
vn -0.790733099 -0.582333922 0.188754633
vn 0.391364098 -0.6701352 -0.630676568
vn 0.432724863 0.671314478 -0.60173589
vn -0.397547901 0.678476155 0.617758691
vn -0.439382643 -0.678719938 0.588457465
vn 0.0307985805 0.99929297 0.0215637013
vn -0.0307951756 -0.99929285 -0.0215754043

# Mesh '' with 138 faces
usemtl katana
f  1/1/1 2/2/2 3/3/3
f  1/1/1 3/3/3 4/2/4
f  5/4/5 6/5/6 7/5/7
f  5/4/5 3/3/3 6/5/6
f  5/4/5 7/5/7 3/3/3
f  4/2/4 7/5/7 8/6/8
f  4/2/4 3/3/3 7/5/7
f  9/6/9 6/5/6 2/2/2
f  2/2/2 6/5/6 3/3/3
f  10/7/10 11/8/11 12/9/12
f  7/5/7 6/5/6 8/6/8
f  8/6/8 6/5/6 9/6/9
f  13/10/13 14/11/14 15/10/15
f  15/10/15 14/11/14 16/11/16
f  16/10/16 14/10/14 17/12/17
f  17/12/17 14/10/14 18/12/18
f  18/12/18 14/10/14 10/13/10
f  10/13/10 14/10/14 19/14/19
f  19/15/19 14/11/14 20/14/20
f  20/14/20 14/11/14 13/10/13
f  19/14/19 21/16/21 10/13/10
f  10/13/10 21/16/21 11/17/11
f  21/18/21 19/15/19 22/16/22
f  22/16/22 19/15/19 20/14/20
f  11/17/11 21/16/21 12/13/12
f  12/13/12 21/16/21 23/14/23
f  21/18/21 22/16/22 23/15/23
f  23/15/23 22/16/22 24/14/24
f  23/14/23 16/10/16 12/13/12
f  12/13/12 16/10/16 17/12/17
f  23/15/23 24/14/24 16/11/16
f  16/11/16 24/14/24 15/10/15
f  25/10/25 26/11/26 27/10/27
f  27/10/27 26/11/26 28/11/28
f  28/10/28 26/10/26 15/11/15
f  15/11/15 26/10/26 13/11/13
f  26/10/26 29/14/29 13/11/13
f  13/11/13 29/14/29 20/15/20
f  29/15/29 26/11/26 30/14/30
f  30/14/30 26/11/26 25/10/25
f  20/15/20 29/14/29 22/18/22
f  22/18/22 29/14/29 31/16/31
f  29/15/29 30/14/30 31/18/31
f  31/18/31 30/14/30 32/16/32
f  22/18/22 31/16/31 24/15/24
f  24/15/24 31/16/31 33/14/33
f  33/15/33 31/18/31 34/14/34
f  34/14/34 31/18/31 32/16/32
f  24/15/24 33/14/33 15/11/15
f  15/11/15 33/14/33 28/10/28
f  28/11/28 33/15/33 27/10/27
f  27/10/27 33/15/33 34/14/34
f  27/19/27 8/20/8 25/19/25
f  25/19/25 8/20/8 9/20/9
f  25/19/25 9/20/9 30/21/30
f  30/21/30 9/20/9 2/22/2
f  30/21/30 2/22/2 32/23/32
f  32/23/32 2/22/2 1/24/1
f  1/24/1 4/22/4 32/23/32
f  32/23/32 4/22/4 34/21/34
f  34/21/34 4/22/4 27/19/27
f  27/19/27 4/22/4 8/20/8
f  18/25/18 10/7/10 17/26/17
f  17/26/17 10/7/10 12/9/12
f  35/27/35 36/28/36 37/29/37
f  37/29/37 36/28/36 38/30/38
f  39/27/39 35/28/35 40/29/40
f  40/29/40 35/28/35 37/30/37
f  41/27/41 39/28/39 42/29/42
f  42/29/42 39/28/39 40/30/40
f  36/27/36 41/28/41 38/29/38
f  38/29/38 41/28/41 42/30/42
f  39/31/39 41/32/41 35/33/35
f  35/33/35 41/32/41 36/34/36
f  37/27/37 38/28/38 40/29/40
f  40/29/40 38/28/38 42/30/42
f  43/35/43 44/36/44 45/37/45
f  46/38/46 45/37/45 44/36/44
f  44/36/44 43/35/43 47/38/47
f  48/37/48 47/38/47 43/35/43
f  48/37/48 43/35/43 45/37/45
f  46/38/46 44/36/44 47/38/47
f  49/39/49 50/40/50 51/41/51
f  52/42/52 51/41/51 50/40/50
f  53/43/53 54/44/54 49/45/49
f  50/46/50 49/45/49 54/44/54
f  55/47/55 56/48/56 53/49/53
f  54/50/54 53/49/53 56/48/56
f  51/51/51 52/52/52 55/53/55
f  56/54/56 55/53/55 52/52/52
f  45/55/45 57/56/57 48/57/48
f  58/58/58 48/57/48 57/56/57
f  58/59/58 57/60/57 50/50/50
f  52/48/52 50/50/50 57/60/57
f  48/61/48 58/62/58 47/63/47
f  59/64/59 47/63/47 58/62/58
f  59/65/59 58/66/58 54/67/54
f  50/68/50 54/67/54 58/66/58
f  47/57/47 59/58/59 46/55/46
f  60/56/60 46/55/46 59/58/59
f  60/69/60 59/70/59 56/71/56
f  54/72/54 56/71/56 59/70/59
f  46/63/46 60/64/60 45/61/45
f  57/62/57 45/61/45 60/64/60
f  57/66/57 60/65/60 52/68/52
f  56/67/56 52/68/52 60/65/60
f  61/73/61 62/74/62 63/75/63
f  64/76/64 63/75/63 62/74/62
f  64/77/64 62/78/62 65/79/65
f  66/80/66 65/79/65 62/78/62
f  67/81/67 68/82/68 69/83/69
f  70/84/70 69/83/69 68/82/68
f  70/85/70 68/86/68 71/87/71
f  72/88/72 71/87/71 68/86/68
f  66/89/66 73/90/73 65/91/65
f  74/92/74 65/91/65 73/90/73
f  74/93/74 73/94/73 69/95/69
f  67/96/67 69/95/69 73/94/73
f  63/97/63 75/98/75 61/99/61
f  76/100/76 61/99/61 75/98/75
f  76/101/76 75/102/75 72/103/72
f  71/104/71 72/103/72 75/102/75
f  71/105/71 75/106/75 70/107/70
f  77/108/77 70/107/70 75/106/75
f  77/108/77 75/106/75 64/109/64
f  63/110/63 64/109/64 75/106/75
f  70/107/70 77/108/77 69/111/69
f  74/112/74 69/111/69 77/108/77
f  74/112/74 77/108/77 65/113/65
f  64/109/64 65/113/65 77/108/77
f  67/111/67 73/112/73 68/107/68
f  78/114/78 68/107/68 73/112/73
f  78/114/78 73/112/73 62/109/62
f  66/113/66 62/109/62 73/112/73
f  68/107/68 78/114/78 72/105/72
f  76/106/76 72/105/72 78/114/78
f  76/106/76 78/114/78 61/110/61
f  62/109/62 61/110/61 78/114/78

