# File produced by Open Asset Import Library (http://www.assimp.sf.net)
# (assimp v5.2.3369795085)

mtllib 20.X.mtl

# 81 vertex positions
v  -5.00829315 5.10004377 -2.30920076
v  0.35408178 3.99031734 -2.32739496
v  -5.0015173 5.06567717 1.78404868
v  0.360857606 3.95595098 1.7658546
v  6.4129796 17.0232067 -2.70502114
v  2.36134458 20.708004 -2.66727781
v  10.0421658 18.6830082 -2.69709349
v  9.18999481 25.7726631 -2.63615918
v  9.19834995 25.7302876 2.41095495
v  2.36969924 20.6656303 2.37984014
v  10.0505199 18.6406326 2.35002041
v  6.42133427 16.9808331 2.34209275
v  17.5808506 28.9721718 2.43789673
v  17.5725098 29.0144749 -2.6007185
v  35.5527115 29.7927246 2.41503477
v  36.0079689 19.8192692 2.33054519
v  35.5443726 29.8350296 -2.62358046
v  35.99963 19.8615723 -2.7080698
v  -5.56310368 6.7870698 -2.771137
v  1.51081741 5.23947144 -2.79584074
v  1.51917231 5.19709635 2.25127316
v  -5.55474854 6.74469519 2.27597713
v  3.04120612 12.4018717 -2.73823953
v  -2.67840624 14.2279263 -2.7137413
v  -2.67005157 14.1855507 2.33337665
v  3.04956102 12.3594971 2.30887437
v  12.1190472 15.4708071 -0.800828874
v  17.5112019 15.7438297 -0.807462931
v  12.1210241 15.4607811 0.393326133
v  17.5131779 15.7338037 0.386692077
v  10.3481359 19.4833679 -0.764208317
v  22.2359409 20.0261364 -0.779330671
v  22.2379169 20.0161114 0.414824307
v  10.3501129 19.473341 0.429946691
v  34.7711029 28.5205021 -2.16751862
v  34.7203178 29.6904392 -0.0990379304
v  78.5705338 30.5202827 -2.22323537
v  78.5197449 31.6902218 -0.154754817
v  34.8794861 26.1460533 -2.18763351
v  78.6789169 28.145834 -2.24335051
v  34.9370842 24.9416485 -0.139267012
v  78.7365189 26.941431 -0.1949839
v  34.8863029 26.1114883 1.92911744
v  78.6857376 28.111269 1.87349975
v  34.777916 28.4859371 1.94923246
v  78.5773468 30.4857197 1.89361465
v  78.6281357 29.3157806 -0.174869746
v  35.0154839 23.7973289 -2.16367722
v  34.9649582 24.9613609 -0.10544356
v  57.534008 24.8254719 -2.19232273
v  57.4834785 25.9895058 -0.134089187
v  35.1233292 21.4347763 -2.18369126
v  57.6418495 22.4629192 -2.21233702
v  35.180645 20.2362499 -0.145472035
v  57.6991653 21.2643948 -0.174117669
v  35.1301117 21.400383 1.91265941
v  57.648632 22.4285278 1.88401377
v  35.0222664 23.7629356 1.93267357
v  57.5407906 24.7910805 1.90402794
v  35.0727997 22.5988026 -0.125457838
v  57.5913239 23.6269455 -0.154103458
v  49.483696 25.0378666 -3.16644979
v  48.5287704 23.213171 -0.142575055
v  49.4087601 26.7641792 -0.114218019
v  49.6436195 21.5344391 -3.19612885
v  49.7286072 19.7572231 -0.173576996
v  49.6536751 21.4834366 2.87845159
v  49.4937515 24.986866 2.90813065
v  75.3679657 26.7021618 -0.157712311
v  75.471077 24.4432945 -0.176848143
v  75.4162827 25.58922 -2.12560892
v  75.5193863 23.3303528 -2.14474487
v  75.5741882 22.1845284 -0.195983142
v  75.5258713 23.2974701 1.77181053
v  75.42276 25.5563374 1.79094636
v  72.701889 26.0979557 -3.19598532
v  72.6269531 27.8242683 -0.143753693
v  72.8618088 22.5945282 -3.22566438
v  72.9468002 20.8173122 -0.203112662
v  72.8718643 22.5435257 2.84891605
v  72.7119446 26.0469551 2.87859511

# 156 UV coordinates
vt 0.967400014 0.904699981 0
vt 0.860040009 0.904699981 0
vt 0.967400014 0.743659973 0
vt 0.860040009 0.743659973 0
vt 0.650059998 0.779340029 0
vt 0.654219985 0.977259994 0
vt 0.488279998 0.748360038 0
vt 0.488779992 0.914460003 0
vt 0.695249975 0.78986001 0
vt 0.695249975 0.910600007 0
vt 0.488189995 0.78986001 0
vt 0.488189995 0.910600007 0
vt 0.486209989 0.749590039 0
vt 0.64240998 0.749590039 0
vt 0.486209989 0.862150013 0
vt 0.64240998 0.862150013 0
vt 0.475389987 0.990379989 0
vt 0.380019993 0.990379989 0
vt 0.475389987 0.846159995 0
vt 0.380019993 0.846159995 0
vt 0 1 0
vt 0 0.764180005 0
vt 0.245849997 1 0
vt 0.245849997 0.764180005 0
vt 0.00466000009 0.846159995 0
vt 0.00466000009 0.990379989 0
vt 0.47626999 0.742579997 0
vt 0.334060013 0.991829991 0
vt 0.0104099996 0.742540002 0
vt 0.0104099996 0.991829991 0
vt 0.477299988 0.802410007 0
vt 0.477299988 0.988099992 0
vt 0.00297000003 0.802410007 0
vt 0.00297000003 0.988099992 0
vt 0.875630021 0.233959973 0
vt 0.996460021 0.0060300231 0
vt 0.610800028 0.233959973 0
vt 0.610800028 0.00599002838 0
vt 0.932860017 0.864610016 0
vt 0.911040008 0.892180026 0
vt 0.83405 0.744449973 0
vt 0.80637002 0.762660027 0
vt 0.996150017 0.910539985 0
vt 0.956139982 0.910539985 0
vt 0.996150017 0.789799988 0
vt 0.956139982 0.789799988 0
vt 0.993560016 0.862360001 0
vt 0.959879994 0.862360001 0
vt 0.993560016 0.749799967 0
vt 0.959879994 0.749799967 0
vt 0.47626999 0.991829991 0
vt 0.996460021 0.233959973 0
vt 0.762679994 0.786960006 0
vt 0.787129998 0.964540005 0
vt 0.838850021 0.78986001 0
vt 0.838850021 0.910600007 0
vt 0.956139982 0.910600007 0
vt 0.956139982 0.78986001 0
vt 0.817849994 0.749590039 0
vt 0.817849994 0.862150013 0
vt 0.958679974 0.862150013 0
vt 0.958679974 0.749590039 0
vt 0.354990005 1.00399005 0
vt 0.568859994 1.00679004 0
vt 0.354339987 1.02662003 0
vt 0.570370018 1.03083003 0
vt 0.585990012 1.01003003 0
vt 0.579869986 1.18585002 0
vt 0.329979986 1.01429999 0
vt 0.273119986 1.19720995 0
vt 0.323009998 1.02628005 0
vt 0.274509996 1.19861996 0
vt 0.343820006 1.03649998 0
vt 0.310380012 1.19929004 0
vt 0.587989986 1.18816996 0
vt 0.556110024 1.18454003 0
vt 0.581809998 1.03381002 0
vt 0.555559993 1.04419994 0
vt 0.988780022 0.662829995 0
vt 0.988780022 0.72615999 0
vt 0.00107 0.662829995 0
vt 0.00107 0.72615999 0
vt 0.988780022 0.599489987 0
vt 0.00107 0.599489987 0
vt 0.988780022 0.536159992 0
vt 0.00107 0.536159992 0
vt 0.988780022 0.66286999 0
vt 0.988780022 0.726209998 0
vt 0.00107 0.66286999 0
vt 0.00107 0.726209998 0
vt 0.988780022 0.599539995 0
vt 0.00107 0.599539995 0
vt 0.988780022 0.536210001 0
vt 0.00107 0.536210001 0
vt 0.0120999999 -0.891780019 0
vt 0.120800003 -0.891780019 0
vt 0.0664499998 -0.988620043 0
vt 0.175150007 -0.988620043 0
vt 0.229499996 -0.891780019 0
vt 0.175150007 -0.794939995 0
vt 0.0664499998 -0.794939995 0
vt 0.98943001 0.671999991 0
vt 0.98943001 0.73071003 0
vt 0.49770999 0.671999991 0
vt 0.49770999 0.73071003 0
vt 0.98943001 0.613290012 0
vt 0.49770999 0.613290012 0
vt 0.98943001 0.55456996 0
vt 0.49770999 0.55456996 0
vt 0.98943001 0.672109962 0
vt 0.98943001 0.730830014 0
vt 0.49770999 0.672109962 0
vt 0.49770999 0.730830014 0
vt 0.98943001 0.613399982 0
vt 0.49770999 0.613399982 0
vt 0.98943001 0.554690003 0
vt 0.49770999 0.554690003 0
vt 0.166669995 1 0
vt 0.083329998 1 0
vt 0.333330005 1 0
vt 0.25 1 0
vt 0.5 1 0
vt 0.416669995 1 0
vt 0.666670024 1 0
vt 0.583329976 1 0
vt 0.833329976 1 0
vt 0.75 1 0
vt 1 1 0
vt 0.916670024 1 0
vt -0.201250002 0.47052002 0
vt -0.187450007 0.47052002 0
vt -0.194350004 0.457719982 0
vt -0.180549994 0.457719982 0
vt -0.173649997 0.47052002 0
vt -0.180549994 0.483319998 0
vt -0.194350004 0.483319998 0
vt 0.99563998 0.451780021 0
vt 0.99563998 0.386479974 0
vt 0.99563998 0.517080009 0
vt 0.99563998 0.321179986 0
vt 0.99563998 0.255879998 0
vt 1.09469998 0.873579979 0
vt 1.21608996 0.873579979 0
vt 1.15540004 0.753639996 0
vt 1.27678001 0.753639996 0
vt 1.33747995 0.873579979 0
vt 1.27678001 0.993529975 0
vt 1.15540004 0.993529975 0
vt 0.160850003 0.42859 0
vt 0.239069998 0.451780021 0
vt 0.160850003 0.470690012 0
vt 0.239069998 0.517080009 0
vt 0.160850003 0.344380021 0
vt 0.239069998 0.321179986 0
vt 0.160850003 0.302280009 0
vt 0.239069998 0.255879998 0

# 79 vertex normals
vn -0.546037138 -0.673042059 -0.498856574
vn 0.219648212 -0.839049518 -0.497745484
vn -0.545348227 -0.681536555 0.487958282
vn 0.222084731 -0.847872376 0.481446534
vn 0.403225511 -0.48893252 -0.773533523
vn -0.515007675 0.531434298 -0.672565699
vn 0.154027626 -0.633296788 -0.758426428
vn -0.354762137 0.649428964 -0.672596395
vn -0.35418573 0.637957275 0.683785796
vn -0.512764096 0.520024598 0.683115959
vn 0.155644879 -0.64650631 0.746862948
vn 0.40576756 -0.50185883 0.763865411
vn -0.151379317 0.717955768 0.679429054
vn -0.152856633 0.730414152 -0.66568011
vn 0.55128783 0.59816432 0.581619382
vn 0.603831291 -0.555303812 0.571861446
vn 0.549467266 0.607909262 -0.573177159
vn 0.602153003 -0.545590937 -0.582874179
vn -0.75303489 -0.0355075337 -0.657021821
vn 0.626840711 -0.392532915 -0.673044324
vn 0.629542232 -0.403370887 0.664054632
vn -0.751102448 -0.0460163131 0.658580005
vn 0.595114946 -0.260233521 -0.760339856
vn -0.642371237 0.368919492 -0.671757162
vn -0.640171766 0.357589394 0.679933786
vn 0.597590566 -0.272936434 0.753917217
vn -0.421096772 -0.676637232 -0.604019463
vn 0.293940365 -0.705282807 -0.645116389
vn -0.419113636 -0.686695278 0.5939641
vn 0.29605478 -0.716007173 0.632206678
vn -0.727826715 -0.31566444 -0.608789206
vn 0.614094436 -0.674852073 -0.409222126
vn 0.615426958 -0.681610942 0.395798087
vn -0.725816011 -0.325861961 0.60580945
vn -0.0242322721 0.506728828 -0.861764848
vn -0.0455978066 0.998923957 0.00847235601
vn 0.590157807 0.429356605 -0.683642209
vn 0.573225498 0.819376171 0.00593033805
vn 0.0213659164 -0.492202997 -0.870218217
vn 0.62628746 -0.362203389 -0.690342486
vn 0.0455972068 -0.998924136 -0.00845267903
vn 0.645494759 -0.763728082 -0.00748103671
vn 0.0242306404 -0.5067361 0.861760676
vn 0.628558815 -0.373726159 0.682086885
vn -0.0213661361 0.492179066 0.870231748
vn 0.592428863 0.417834133 0.68879801
vn 0.998958528 0.0456101634 -0.00127076684
vn -0.628559172 0.373727649 -0.682085752
vn -0.645493746 0.763728797 0.00748937158
vn 0.590154231 0.429371297 -0.683636069
vn 0.573229969 0.819373012 0.0059390259
vn -0.59242934 -0.417835236 -0.688796937
vn 0.626289308 -0.36219129 -0.690347195
vn -0.573224545 -0.819376945 -0.00592183974
vn 0.645488679 -0.763733327 -0.00747215608
vn -0.590159416 -0.429350019 0.68364495
vn 0.628562391 -0.373705983 0.682094693
vn -0.626288414 0.362196684 0.690345109
vn 0.592428088 0.41784063 0.688794732
vn -0.998958528 -0.0456101634 0.00127076684
vn -0.540841222 0.408869833 -0.735062063
vn -0.998958349 -0.0456127562 0.00127902173
vn -0.559078932 0.829076827 0.00789817236
vn -0.501910627 -0.443962187 -0.74228251
vn -0.481221497 -0.876574576 -0.00655112136
vn -0.499460518 -0.456368238 0.736387968
vn -0.538390279 0.396446615 0.743616819
vn 0.736746967 0.676153898 0.00445878599
vn 0.75045532 0.360251367 -0.554108024
vn 0.77973026 -0.280957758 -0.559538603
vn 0.795284033 -0.606203258 -0.00639473228
vn 0.781562328 -0.290286988 0.552171886
vn 0.752291799 0.350901753 0.557606459
vn 0.178282812 0.505485475 -0.844215393
vn 0.157354742 0.987509429 0.00804114621
vn 0.222942159 -0.472807676 -0.852496147
vn 0.246669725 -0.96906209 -0.00853053387
vn 0.225739837 -0.487041146 0.843701661
vn 0.181077018 0.49123323 0.85199827

# Mesh '' with 136 faces
usemtl M870
f  1/1/1 2/2/2 3/3/3
f  4/4/4 3/3/3 2/2/2
f  5/5/5 6/6/6 7/7/7
f  8/8/8 7/7/7 6/6/6
f  9/8/9 10/6/10 11/7/11
f  12/5/12 11/7/11 10/6/10
f  6/9/6 10/10/10 8/11/8
f  9/12/9 8/11/8 10/10/10
f  11/13/11 12/14/12 7/15/7
f  5/16/5 7/15/7 12/14/12
f  9/17/9 13/18/13 8/19/8
f  14/20/14 8/19/8 13/18/13
f  15/21/15 16/22/16 17/23/17
f  18/24/18 17/23/17 16/22/16
f  14/20/14 13/18/13 17/25/17
f  15/26/15 17/25/17 13/18/13
f  7/27/7 14/28/14 18/29/18
f  17/30/17 18/29/18 14/28/14
f  11/31/11 7/32/7 16/33/16
f  18/34/18 16/33/16 7/32/7
f  13/35/13 11/36/11 15/37/15
f  16/38/16 15/37/15 11/36/11
f  1/39/1 19/40/19 2/41/2
f  20/42/20 2/41/2 19/40/19
f  4/41/4 21/42/21 3/39/3
f  22/40/22 3/39/3 21/42/21
f  3/43/3 22/44/22 1/45/1
f  19/46/19 1/45/1 22/44/22
f  2/47/2 20/48/20 4/49/4
f  21/50/21 4/49/4 20/48/20
f  8/51/8 14/28/14 7/27/7
f  11/36/11 13/35/13 9/52/9
f  5/5/5 23/53/23 6/6/6
f  24/54/24 6/6/6 23/53/23
f  24/54/24 23/53/23 19/40/19
f  20/42/20 19/40/19 23/53/23
f  10/6/10 25/54/25 12/5/12
f  26/53/26 12/5/12 25/54/25
f  26/53/26 25/54/25 21/42/21
f  22/40/22 21/42/21 25/54/25
f  6/9/6 24/55/24 10/10/10
f  25/56/25 10/10/10 24/55/24
f  25/56/25 24/55/24 22/57/22
f  19/58/19 22/57/22 24/55/24
f  12/14/12 26/59/26 5/16/5
f  23/60/23 5/16/5 26/59/26
f  23/60/23 26/59/26 20/61/20
f  21/62/21 20/61/20 26/59/26
f  27/63/27 28/64/28 29/65/29
f  30/66/30 29/65/29 28/64/28
f  27/67/27 31/68/31 28/69/28
f  32/70/32 28/69/28 31/68/31
f  33/70/33 34/68/34 30/69/30
f  29/67/29 30/69/30 34/68/34
f  29/71/29 34/72/34 27/73/27
f  31/74/31 27/73/27 34/72/34
f  32/75/32 33/76/33 28/77/28
f  30/78/30 28/77/28 33/76/33
f  35/79/35 36/80/36 37/81/37
f  38/82/38 37/81/37 36/80/36
f  39/83/39 35/79/35 40/84/40
f  37/81/37 40/84/40 35/79/35
f  41/85/41 39/83/39 42/86/42
f  40/84/40 42/86/42 39/83/39
f  43/87/43 41/88/41 44/89/44
f  42/90/42 44/89/44 41/88/41
f  45/91/45 43/87/43 46/92/46
f  44/89/44 46/92/46 43/87/43
f  36/93/36 45/91/45 38/94/38
f  46/92/46 38/94/38 45/91/45
f  38/95/38 47/96/47 37/97/37
f  37/97/37 47/96/47 40/98/40
f  40/98/40 47/96/47 42/99/42
f  42/99/42 47/96/47 44/100/44
f  44/100/44 47/96/47 46/101/46
f  46/101/46 47/96/47 38/95/38
f  48/102/48 49/103/49 50/104/50
f  51/105/51 50/104/50 49/103/49
f  52/106/52 48/102/48 53/107/53
f  50/104/50 53/107/53 48/102/48
f  54/108/54 52/106/52 55/109/55
f  53/107/53 55/109/55 52/106/52
f  56/110/56 54/111/54 57/112/57
f  55/113/55 57/112/57 54/111/54
f  58/114/58 56/110/56 59/115/59
f  57/112/57 59/115/59 56/110/56
f  49/116/49 58/114/58 51/117/51
f  59/115/59 51/117/51 58/114/58
f  48/118/48 60/119/60 49/21/49
f  52/120/52 60/121/60 48/118/48
f  54/122/54 60/123/60 52/120/52
f  56/124/56 60/125/60 54/122/54
f  58/126/58 60/127/60 56/124/56
f  49/128/49 60/129/60 58/126/58
f  51/130/51 61/131/47 50/132/50
f  50/132/50 61/131/47 53/133/53
f  53/133/53 61/131/47 55/134/55
f  55/134/55 61/131/47 57/135/57
f  57/135/57 61/131/47 59/136/59
f  59/136/59 61/131/47 51/130/51
f  62/137/61 63/138/62 64/139/63
f  65/140/64 63/138/62 62/137/61
f  66/141/65 63/138/62 65/140/64
f  67/140/66 63/138/62 66/141/65
f  68/137/67 63/138/62 67/140/66
f  64/139/63 63/138/62 68/137/67
f  69/142/68 70/143/47 71/144/69
f  71/144/69 70/143/47 72/145/70
f  72/145/70 70/143/47 73/146/71
f  73/146/71 70/143/47 74/147/72
f  74/147/72 70/143/47 75/148/73
f  75/148/73 70/143/47 69/142/68
f  71/149/69 76/150/74 69/151/68
f  77/152/75 69/151/68 76/150/74
f  77/152/75 76/150/74 64/139/63
f  62/137/61 64/139/63 76/150/74
f  72/153/70 78/154/76 71/149/69
f  76/150/74 71/149/69 78/154/76
f  76/150/74 78/154/76 62/137/61
f  65/140/64 62/137/61 78/154/76
f  73/155/71 79/156/77 72/153/70
f  78/154/76 72/153/70 79/156/77
f  78/154/76 79/156/77 65/140/64
f  66/141/65 65/140/64 79/156/77
f  74/153/72 80/154/78 73/155/71
f  79/156/77 73/155/71 80/154/78
f  79/156/77 80/154/78 66/141/65
f  67/140/66 66/141/65 80/154/78
f  75/149/73 81/150/79 74/153/72
f  80/154/78 74/153/72 81/150/79
f  80/154/78 81/150/79 67/140/66
f  68/137/67 67/140/66 81/150/79
f  69/151/68 77/152/75 75/149/73
f  81/150/79 75/149/73 77/152/75
f  81/150/79 77/152/75 68/137/67
f  64/139/63 68/137/67 77/152/75

