# File produced by Open Asset Import Library (http://www.assimp.sf.net)
# (assimp v5.2.3369795085)

mtllib 21.X.mtl

# 78 vertex positions
v  -16.9198551 139.779022 7.22600603
v  -18.9123001 139.296295 6.71640062
v  -19.5394974 144.242813 7.25850248
v  -18.9646034 139.258148 7.29539347
v  -22.4950733 146.186691 7.10313749
v  -21.8638515 143.678558 6.86029816
v  -21.8901119 143.65979 7.1479373
v  -20.5736656 138.849258 7.10422945
v  -20.5241451 138.886032 6.55518389
v  -0.474231273 18.1467438 0.909724474
v  1.79807281 18.1787205 1.57800949
v  -0.555195928 18.0873127 1.80607235
v  -5.50215578 69.2416763 3.45676398
v  -3.08022022 41.4802856 1.97961569
v  -5.59159946 69.1763382 4.45028687
v  -3.17740536 41.4091568 3.05467749
v  -2.70449758 18.0122147 1.73676968
v  -2.5991993 18.0893555 0.571352959
v  -0.729019165 41.5242691 2.26377106
v  -3.47371435 69.3994598 3.65025234
v  1.31616807 41.5348358 2.93811941
v  -1.22168326 69.6006622 4.38152742
v  -0.848137259 41.4586449 3.23902631
v  -3.62967229 69.350853 4.69795656
v  -16.0097828 123.702057 5.83784819
v  -9.84112835 97.8376083 4.81675529
v  -16.0870953 123.645477 6.69314814
v  -9.92328548 97.777626 5.73208952
v  -7.9975605 98.1782837 4.99075842
v  -14.3946505 123.967491 5.97557163
v  -5.89549208 98.5424347 5.69178915
v  -12.3540239 124.688637 6.67438507
v  -8.10952187 98.1100769 5.96169138
v  -14.4771328 123.907021 6.88862133
v  -2.96334267 17.5710449 0.309922993
v  -3.10165882 17.4796124 1.89607036
v  -3.01373291 21.9538746 0.565842271
v  -3.15206027 21.8626461 2.15200138
v  1.9781636 17.5211678 0.758306086
v  1.92787278 21.9040031 1.01423645
v  1.83973193 17.4298229 2.34454632
v  1.78934133 21.8126602 2.60046792
v  -4.19066381 -28.0726585 -1.78834784
v  -2.11141229 -28.2060947 -1.58098316
v  -5.48371506 -26.7284946 -0.689566016
v  -1.04226959 -27.048439 -0.272262156
v  -0.847398937 -26.9249973 -2.36294365
v  -5.2888608 -26.6049614 -2.78014159
v  -3.43699479 17.5437031 0.065918237
v  -3.14949918 3.1040175 -0.793122649
v  -3.63165069 17.4201775 2.15651608
v  -3.34426522 2.98068595 1.29747725
v  2.16100025 17.5494022 0.616621912
v  1.5394057 3.03855991 -0.345717311
v  1.96623397 17.4260712 2.70722175
v  1.34446824 2.91492844 1.74474311
v  -4.08469629 -11.4119358 0.352125704
v  -3.88973713 -11.288496 -1.73844624
v  0.747786164 -11.3885994 -1.28864324
v  0.552931905 -11.5121374 0.801934063
v  4.71214914 15.8078594 6.28963327
v  6.73872232 16.0678616 1.93531835
v  4.71475983 17.2935085 6.37958622
v  6.74133825 17.5534115 2.02526569
v  5.8678937 17.8538303 -2.91166592
v  5.86528349 16.3681812 -3.00161719
v  -6.6429286 16.4406738 -3.82641721
v  -8.34331608 16.1843567 0.459845632
v  -6.64031267 17.9262257 -3.73646784
v  -8.34048557 17.6698246 0.54970926
v  -7.43798685 17.3873959 5.19058895
v  -7.44051456 15.9016399 5.10084009
v  -0.0332743563 16.4669628 -4.45623922
v  -0.0305483565 17.9525242 -4.36638069
v  -1.10925829 17.2901459 6.60759735
v  -1.11207259 15.8045874 6.51762772
v  -0.58828938 17.6098595 1.30822134
v  -0.591109574 16.1244068 1.21825778

# 114 UV coordinates
vt 0.281489998 0.670230031 0
vt 0.281489998 0.829460025 0
vt 0.122649997 0.829460025 0
vt 0.0234500002 0.985080004 0
vt 0.122649997 0.985080004 0
vt 0.281489998 0.985080004 0
vt 0.181209996 0.254530013 0
vt 0.186519995 0.175930023 0
vt 0.200949997 0.254310012 0
vt 0.375180006 0.986079991 0
vt 0.966820002 0.986090004 0
vt 1.10720003 0.986090004 0
vt 1.10720003 0.83039999 0
vt 0.375239998 0.830540001 0
vt 0.966820002 0.83039999 0
vt 0.375200003 0.671119988 0
vt 1.10720003 0.671380043 0
vt 0.966820002 0.671380043 0
vt 0.75387001 0.985080004 0
vt 0.280930012 0.985080004 0
vt 0.75387001 0.829460025 0
vt 0.280930012 0.829460025 0
vt 0.75387001 0.670230031 0
vt 0.280930012 0.670230031 0
vt 0.177289993 0.327109993 0
vt 0.205500007 0.326820016 0
vt 0.0404499993 0.541190028 0
vt 0.149100006 0.541190028 0
vt 0.0404499993 0.61748004 0
vt 0.149100006 0.61748004 0
vt 0.17024 0.172630012 0
vt 0.211620003 0.172029972 0
vt 0.171299994 0.339919984 0
vt 0.212679997 0.339320004 0
vt 0.995630026 0.102670014 0
vt 0.995630026 0.0823199749 0
vt 0.977729976 0.123660028 0
vt 0.977729976 0.0592399836 0
vt 0.428030014 0.256269991 0
vt 0.762040019 0.256269991 0
vt 0.428030014 0.35461998 0
vt 0.762040019 0.35461998 0
vt 0.40347001 0.00928997993 0
vt 0.734329998 0.0104699731 0
vt 0.402810007 0.243040025 0
vt 0.734430015 0.239660025 0
vt 0.462630004 0.355870008 0
vt 0.643019974 0.353380024 0
vt 0.462630004 0.25752002 0
vt 0.643019974 0.255029976 0
vt 0.405809999 0.243040025 0
vt 0.737749994 0.239660025 0
vt 0.406470001 0.00928997993 0
vt 0.745289981 0.0104699731 0
vt 0.990859985 0.352129996 0
vt 0.647759974 0.353380024 0
vt 0.994019985 0.253780007 0
vt 0.647759974 0.255029976 0
vt 0.895500004 0.255029976 0
vt 0.895500004 0.353380024 0
vt 0.993669987 0.245299995 0
vt 0.682820022 0.239099979 0
vt 0.993600011 0.0070400238 0
vt 0.676919997 0.00822001696 0
vt 0.86897999 0.0072799921 0
vt 0.865059972 0.242850006 0
vt 0.598659992 0.00876998901 0
vt 0.598510027 0.241190016 0
vt 0.888580024 0.350610018 0
vt 0.888580024 0.252260029 0
vt 0.641629994 0.350610018 0
vt 0.641629994 0.252260029 0
vt 0.340539992 0.339969993 0
vt 0.340759993 0.264020026 0
vt 0.30735001 0.337329984 0
vt 0.311839998 0.261439979 0
vt 0.31110999 0.260020018 0
vt 0.341470003 0.261889994 0
vt 0.308149993 0.338819981 0
vt 0.341129988 0.341939986 0
vt 0.340220004 0.264590025 0
vt 0.338910013 0.343020022 0
vt 0.311349988 0.260580003 0
vt 0.30715999 0.33901 0
vt 0.305020005 0.33829999 0
vt 0.339630008 0.342310011 0
vt 0.310770005 0.259769976 0
vt 0.339540005 0.260819972 0
vt 0.339729995 0.263090014 0
vt 0.341670007 0.340529978 0
vt 0.311729997 0.261489987 0
vt 0.306939989 0.338639975 0
vt 0.339419991 0.343079984 0
vt 0.307390004 0.339079976 0
vt 0.33792001 0.261749983 0
vt 0.311580002 0.260850012 0
vt 0.339329988 0.341440022 0
vt 0.340440005 0.260839999 0
vt 0.307289988 0.339250028 0
vt 0.311569989 0.260749996 0
vt 0.307249993 0.338310003 0
vt 0.340530008 0.340749979 0
vt 0.311010003 0.259729981 0
vt 0.339179993 0.260209978 0
vt 0.335429996 0.444270015 0
vt 0.341749996 0.259509981 0
vt 0.195969999 0.520959973 0
vt 0.186489999 0.257969975 0
vt 0.189019993 0.00976997614 0
vt 0.325560004 0.0630099773 0
vt 0.0569300018 0.468529999 0
vt 0.023 0.264490008 0
vt 0.0482000001 0.0674399734 0
vt 0.186489999 0.258170009 0

# 78 vertex normals
vn 0.915903747 0.385858506 0.110605292
vn 0.151792124 0.100973785 -0.98324132
vn 0.648718774 0.753389597 0.107555084
vn -0.0331514701 -0.025011709 0.999137342
vn -0.47466141 0.880106568 0.0104370369
vn -0.605185986 -0.0906620473 -0.79090476
vn -0.738918245 -0.180164322 0.649261653
vn -0.747547865 -0.223803848 0.625367165
vn -0.619116902 -0.135342106 -0.773548126
vn 0.180427596 -0.643517077 -0.743862629
vn 0.852775812 -0.520036399 0.0483268909
vn 0.0481249057 -0.733501434 0.677982092
vn -0.627684236 -0.0359738655 -0.777636409
vn -0.619667411 0.00915237796 -0.784811139
vn -0.766222358 -0.121042848 0.631072044
vn -0.755619049 -0.0775532052 0.650404036
vn -0.595968962 -0.623391867 0.506165504
vn -0.487884939 -0.547821939 -0.679602385
vn 0.218984351 0.0642302036 -0.97361201
vn 0.198970258 0.0730976462 -0.97727561
vn 0.994917214 0.0417784005 0.091620177
vn 0.98837626 0.120588571 0.0925786123
vn 0.0339712314 -0.054813493 0.997918546
vn 0.00960495975 -0.0460917279 0.998891056
vn -0.614904523 -0.130620167 -0.77770865
vn -0.62004441 -0.0870709643 -0.779720187
vn -0.745628238 -0.218336836 0.629577279
vn -0.754416466 -0.172597438 0.633297682
vn 0.195252016 0.0811259896 -0.977392077
vn 0.182293579 0.090967916 -0.979027033
vn 0.97519362 0.197591916 0.099774003
vn 0.953987658 0.280590028 0.105720289
vn 0.00823691394 -0.0383875817 0.999228954
vn -0.00255127205 -0.032599397 0.999465227
vn -0.521387458 -0.541050434 -0.659863234
vn -0.624017 -0.608695984 0.489991844
vn -0.526447773 0.611112833 -0.591095388
vn -0.628369927 0.544620574 0.555463493
vn 0.628387809 -0.544595361 -0.555467963
vn 0.624070942 0.608650982 -0.489979029
vn 0.526420236 -0.611137569 0.591094434
vn 0.521351457 0.541057348 0.659886122
vn -0.266529381 -0.95629257 -0.120277263
vn 0.183378085 -0.980603099 -0.0692100599
vn -0.745331824 -0.358038336 0.562395811
vn 0.557166457 -0.460011333 0.691343009
vn 0.69166404 -0.369459391 -0.620564818
vn -0.628089249 -0.269595861 -0.729946554
vn -0.640441298 0.0332647003 -0.76728642
vn -0.628278613 0.0584764853 -0.775787652
vn -0.773153901 -0.0529918224 0.632000744
vn -0.763237894 -0.0284400955 0.645491362
vn 0.781349599 0.0079078218 -0.624043524
vn 0.770863712 0.00425550109 -0.636985898
vn 0.647733569 -0.0776553974 0.757898986
vn 0.638206422 -0.0815924928 0.765529394
vn -0.76552397 0.0116369175 0.643302143
vn -0.629758894 0.0962771848 -0.770801187
vn 0.773646772 -0.0183075815 -0.633352637
vn 0.640336394 -0.101792566 0.761319637
vn 0.439629376 -0.646124721 0.623898089
vn 0.756268978 -0.651521146 0.0598122478
vn 0.441783428 0.564578772 0.697193086
vn 0.758556783 0.636868775 0.137803361
vn 0.584143221 0.633313894 -0.507632017
vn 0.581996381 -0.569527209 -0.580447197
vn -0.478780538 -0.565959156 -0.671162724
vn -0.758665621 -0.642231524 -0.109385297
vn -0.476628542 0.644483447 -0.597884893
vn -0.756260872 0.653537512 -0.0309549309
vn -0.571575344 0.568541825 0.591660261
vn -0.573685169 -0.633690536 0.518962026
vn 0.0533158146 -0.625412464 -0.778470755
vn 0.0557342544 0.714532852 -0.697378278
vn -0.0653555319 0.633782089 0.770745695
vn -0.0678026229 -0.721890628 0.68867749
vn 0.00179308245 0.998171508 0.060418915
vn -0.00179589249 -0.998170793 -0.0604307503

# Mesh '' with 138 faces
usemtl katana
f  1/1/1 2/2/2 3/3/3
f  1/1/1 3/3/3 4/2/4
f  5/4/5 6/5/6 7/5/7
f  5/4/5 3/3/3 6/5/6
f  5/4/5 7/5/7 3/3/3
f  4/2/4 7/5/7 8/6/8
f  4/2/4 3/3/3 7/5/7
f  9/6/9 6/5/6 2/2/2
f  2/2/2 6/5/6 3/3/3
f  10/7/10 11/8/11 12/9/12
f  7/5/7 6/5/6 8/6/8
f  8/6/8 6/5/6 9/6/9
f  13/10/13 14/11/14 15/10/15
f  15/10/15 14/11/14 16/11/16
f  16/10/16 14/10/14 17/12/17
f  17/12/17 14/10/14 18/12/18
f  18/12/18 14/10/14 10/13/10
f  10/13/10 14/10/14 19/14/19
f  19/15/19 14/11/14 20/14/20
f  20/14/20 14/11/14 13/10/13
f  19/14/19 21/16/21 10/13/10
f  10/13/10 21/16/21 11/17/11
f  21/18/21 19/15/19 22/16/22
f  22/16/22 19/15/19 20/14/20
f  11/17/11 21/16/21 12/13/12
f  12/13/12 21/16/21 23/14/23
f  21/18/21 22/16/22 23/15/23
f  23/15/23 22/16/22 24/14/24
f  23/14/23 16/10/16 12/13/12
f  12/13/12 16/10/16 17/12/17
f  23/15/23 24/14/24 16/11/16
f  16/11/16 24/14/24 15/10/15
f  25/10/25 26/11/26 27/10/27
f  27/10/27 26/11/26 28/11/28
f  28/10/28 26/10/26 15/11/15
f  15/11/15 26/10/26 13/11/13
f  26/10/26 29/14/29 13/11/13
f  13/11/13 29/14/29 20/15/20
f  29/15/29 26/11/26 30/14/30
f  30/14/30 26/11/26 25/10/25
f  20/15/20 29/14/29 22/18/22
f  22/18/22 29/14/29 31/16/31
f  29/15/29 30/14/30 31/18/31
f  31/18/31 30/14/30 32/16/32
f  22/18/22 31/16/31 24/15/24
f  24/15/24 31/16/31 33/14/33
f  33/15/33 31/18/31 34/14/34
f  34/14/34 31/18/31 32/16/32
f  24/15/24 33/14/33 15/11/15
f  15/11/15 33/14/33 28/10/28
f  28/11/28 33/15/33 27/10/27
f  27/10/27 33/15/33 34/14/34
f  27/19/27 8/20/8 25/19/25
f  25/19/25 8/20/8 9/20/9
f  25/19/25 9/20/9 30/21/30
f  30/21/30 9/20/9 2/22/2
f  30/21/30 2/22/2 32/23/32
f  32/23/32 2/22/2 1/24/1
f  1/24/1 4/22/4 32/23/32
f  32/23/32 4/22/4 34/21/34
f  34/21/34 4/22/4 27/19/27
f  27/19/27 4/22/4 8/20/8
f  18/25/18 10/7/10 17/26/17
f  17/26/17 10/7/10 12/9/12
f  35/27/35 36/28/36 37/29/37
f  37/29/37 36/28/36 38/30/38
f  39/27/39 35/28/35 40/29/40
f  40/29/40 35/28/35 37/30/37
f  41/27/41 39/28/39 42/29/42
f  42/29/42 39/28/39 40/30/40
f  36/27/36 41/28/41 38/29/38
f  38/29/38 41/28/41 42/30/42
f  39/31/39 41/32/41 35/33/35
f  35/33/35 41/32/41 36/34/36
f  37/27/37 38/28/38 40/29/40
f  40/29/40 38/28/38 42/30/42
f  43/35/43 44/36/44 45/37/45
f  46/38/46 45/37/45 44/36/44
f  44/36/44 43/35/43 47/38/47
f  48/37/48 47/38/47 43/35/43
f  48/37/48 43/35/43 45/37/45
f  46/38/46 44/36/44 47/38/47
f  49/39/49 50/40/50 51/41/51
f  52/42/52 51/41/51 50/40/50
f  53/43/53 54/44/54 49/45/49
f  50/46/50 49/45/49 54/44/54
f  55/47/55 56/48/56 53/49/53
f  54/50/54 53/49/53 56/48/56
f  51/51/51 52/52/52 55/53/55
f  56/54/56 55/53/55 52/52/52
f  45/55/45 57/56/57 48/57/48
f  58/58/58 48/57/48 57/56/57
f  58/59/58 57/60/57 50/50/50
f  52/48/52 50/50/50 57/60/57
f  48/61/48 58/62/58 47/63/47
f  59/64/59 47/63/47 58/62/58
f  59/65/59 58/66/58 54/67/54
f  50/68/50 54/67/54 58/66/58
f  47/57/47 59/58/59 46/55/46
f  60/56/60 46/55/46 59/58/59
f  60/69/60 59/70/59 56/71/56
f  54/72/54 56/71/56 59/70/59
f  46/63/46 60/64/60 45/61/45
f  57/62/57 45/61/45 60/64/60
f  57/66/57 60/65/60 52/68/52
f  56/67/56 52/68/52 60/65/60
f  61/73/61 62/74/62 63/75/63
f  64/76/64 63/75/63 62/74/62
f  64/77/64 62/78/62 65/79/65
f  66/80/66 65/79/65 62/78/62
f  67/81/67 68/82/68 69/83/69
f  70/84/70 69/83/69 68/82/68
f  70/85/70 68/86/68 71/87/71
f  72/88/72 71/87/71 68/86/68
f  66/89/66 73/90/73 65/91/65
f  74/92/74 65/91/65 73/90/73
f  74/93/74 73/94/73 69/95/69
f  67/96/67 69/95/69 73/94/73
f  63/97/63 75/98/75 61/99/61
f  76/100/76 61/99/61 75/98/75
f  76/101/76 75/102/75 72/103/72
f  71/104/71 72/103/72 75/102/75
f  71/105/71 75/106/75 70/107/70
f  77/108/77 70/107/70 75/106/75
f  77/108/77 75/106/75 64/109/64
f  63/110/63 64/109/64 75/106/75
f  70/107/70 77/108/77 69/111/69
f  74/112/74 69/111/69 77/108/77
f  74/112/74 77/108/77 65/113/65
f  64/109/64 65/113/65 77/108/77
f  67/111/67 73/112/73 68/107/68
f  78/114/78 68/107/68 73/112/73
f  78/114/78 73/112/73 62/109/62
f  66/113/66 62/109/62 73/112/73
f  68/107/68 78/114/78 72/105/72
f  76/106/76 72/105/72 78/114/78
f  76/106/76 78/114/78 61/110/61
f  62/109/62 61/110/61 78/114/78

