# File produced by Open Asset Import Library (http://www.assimp.sf.net)
# (assimp v5.2.3369795085)

mtllib 22.X.mtl

# 28 vertex positions
v  -3.94092989 25.8448753 -5.07505369
v  -4.77953529 25.5958405 -1.5723145
v  2.70241904 26.0123768 -3.47263265
v  1.8638134 25.7633419 0.0301066227
v  26.080698 -105.823898 -6.5641017
v  25.5506878 -105.981293 -4.35032177
v  20.5139122 -107.526764 -8.01793861
v  19.983902 -107.684158 -5.80415821
v  -2.97239208 1.66153789 -6.56254244
v  -3.81099772 1.41250241 -3.05980325
v  -0.982677817 -26.9664478 -4.40033007
v  -0.144072264 -26.7174129 -7.9030695
v  2.83235121 1.58000422 -1.45738196
v  3.67095685 1.82903969 -4.96012115
v  6.46454477 -25.6826935 -6.24730682
v  5.62593937 -25.9317284 -2.74456763
v  5.25850773 -55.8200264 -8.67873287
v  4.41990185 -56.0690651 -5.17599344
v  10.7967758 -54.6669235 -3.54959106
v  11.6353807 -54.4178886 -7.05233002
v  11.9729366 -81.9897842 -8.9318018
v  11.1343307 -82.2388153 -5.42906284
v  17.4221554 -80.4917068 -3.79945397
v  18.2607594 -80.2426758 -7.30219316
v  18.8443508 -104.841705 -5.19017935
v  19.6829567 -104.592674 -8.69291878
v  25.3529911 -102.953659 -7.21890163
v  24.5143871 -103.20269 -3.71616244

# 74 UV coordinates
vt 0.482270002 0.549759984 0
vt 0.372379988 0.549759984 0
vt 0.482270002 0.365130007 0
vt 0.372379988 0.365130007 0
vt 0.993889987 0.343649983 0
vt 0.931659997 0.343649983 0
vt 0.993889987 0.212629974 0
vt 0.931659997 0.212629974 0
vt 0.360300004 0.374890029 0
vt 0.982070029 0.374890029 0
vt 0.360300004 0.642610013 0
vt 0.982070029 0.642610013 0
vt 0.370719999 0.642610013 0
vt 0.370719999 0.374890029 0
vt 0.986670017 0.642610013 0
vt 0.986670017 0.374890029 0
vt 0.982070029 0.385609984 0
vt 0.360300004 0.385609984 0
vt 0.987489998 0.385609984 0
vt 0.987489998 0.642610013 0
vt 0.370719999 0.385609984 0
vt 1.35540998 1.37426996 0
vt 1.99539006 1.37426996 0
vt 1.35540998 1.63593006 0
vt 1.99539006 1.63593006 0
vt 1.36755002 1.63593006 0
vt 1.36755002 1.37426996 0
vt 1.99190998 1.63593006 0
vt 1.99190998 1.37426996 0
vt 0.988749981 0.374890029 0
vt 0.988749981 0.642610013 0
vt 0.362309992 0.374890029 0
vt 0.362309992 0.642610013 0
vt 0.362309992 0.385609984 0
vt 0.988749981 0.385609984 0
vt 1.99493003 1.37426996 0
vt 1.99493003 1.63593006 0
vt 1.37061 1.37426996 0
vt 1.37061 1.63593006 0
vt 0.986379981 0.374890029 0
vt 0.986379981 0.642610013 0
vt 0.370020002 0.374890029 0
vt 0.370020002 0.642610013 0
vt 0.370020002 0.385609984 0
vt 0.986379981 0.385609984 0
vt 1.98904002 1.37426996 0
vt 1.98904002 1.63593006 0
vt 1.37036002 1.37426996 0
vt 1.37036002 1.63593006 0
vt 0.929289997 1.35286999 0
vt 0.929289997 1.20861006 0
vt 0.993529975 1.35286999 0
vt 0.993529975 1.20861006 0
vt 0.990880013 0.374890029 0
vt 0.990880013 0.642610013 0
vt 0.365249991 0.374890029 0
vt 0.365249991 0.642610013 0
vt 0.993529975 1.35358 0
vt 0.929289997 1.35358 0
vt 0.365249991 0.385609984 0
vt 0.994400024 0.642610013 0
vt 0.994400024 0.385609984 0
vt 1.99974 1.25729001 0
vt 1.90165997 1.25729001 0
vt 1.99974 1.00426996 0
vt 1.90336001 1.00426996 0
vt 1.92983997 1.37426996 0
vt 1.92813003 1.63593006 0
vt 1.36774004 1.37426996 0
vt 1.36774004 1.63593006 0
vt 1.90336001 1.25729001 0
vt 1.90165997 1.00426996 0
vt 1.92813003 1.37426996 0
vt 1.92983997 1.63593006 0

# 28 vertex normals
vn -0.450039476 0.601479173 -0.660066128
vn -0.718253136 0.521829426 0.46022436
vn 0.672131717 0.629772902 -0.389390647
vn 0.403918028 0.550123334 0.730899811
vn 0.849706829 -0.398139715 -0.34566319
vn 0.615677953 -0.467862338 0.634070575
vn -0.231854662 -0.740019262 -0.631359577
vn -0.467871964 -0.810347736 0.352749765
vn -0.529867232 0.00913200807 -0.848031461
vn -0.855203927 -0.0874812454 0.510855436
vn -0.851661146 -0.139972717 0.505055368
vn -0.527638674 -0.0437497869 -0.848341584
vn 0.513055027 -0.010191652 0.858295202
vn 0.844865918 0.0883441865 -0.52763325
vn 0.838253975 0.137573138 -0.527639985
vn 0.505575955 0.0387798212 0.861910105
vn -0.515484333 -0.0983299017 -0.851238608
vn -0.840375125 -0.194810674 0.505784988
vn 0.496612877 0.0919101089 0.863092244
vn 0.82908833 0.190643266 -0.525611699
vn -0.503360868 -0.150460318 -0.850875735
vn -0.827725828 -0.24678494 0.50395155
vn 0.488718569 0.13626942 0.861733615
vn 0.820012093 0.234651595 -0.522033393
vn -0.772878349 -0.337726682 0.537214756
vn -0.435899049 -0.238365456 -0.867855906
vn 0.824761331 0.170039535 -0.539310038
vn 0.487479657 0.0706599802 0.870270491

# Mesh '' with 52 faces
usemtl katana
f  1/1/1 2/2/2 3/3/3
f  4/4/4 3/3/3 2/2/2
f  5/5/5 6/6/6 7/7/7
f  8/8/8 7/7/7 6/6/6
f  1/9/1 9/10/9 2/11/2
f  10/12/10 2/11/2 9/10/9
f  10/13/10 9/14/9 11/15/11
f  12/16/12 11/15/11 9/14/9
f  4/12/4 13/11/13 3/17/3
f  14/18/14 3/17/3 13/11/13
f  14/19/14 13/20/13 15/21/15
f  16/13/16 15/21/15 13/20/13
f  3/22/3 14/23/14 1/24/1
f  9/25/9 1/24/1 14/23/14
f  9/26/9 14/27/14 12/28/12
f  15/29/15 12/28/12 14/27/14
f  2/22/2 10/23/10 4/24/4
f  13/25/13 4/24/4 10/23/10
f  13/26/13 10/27/10 16/28/16
f  11/29/11 16/28/16 10/27/10
f  17/30/17 18/31/18 12/32/12
f  11/33/11 12/32/12 18/31/18
f  19/33/19 20/34/20 16/31/16
f  15/35/15 16/31/16 20/34/20
f  20/36/20 17/37/17 15/38/15
f  12/39/12 15/38/15 17/37/17
f  18/36/18 19/37/19 11/38/11
f  16/39/16 11/38/11 19/37/19
f  21/40/21 22/41/22 17/42/17
f  18/43/18 17/42/17 22/41/22
f  23/43/23 24/44/24 19/41/19
f  20/45/20 19/41/19 24/44/24
f  24/46/24 21/47/21 20/48/20
f  17/49/17 20/48/20 21/47/21
f  22/46/22 23/47/23 18/48/18
f  19/49/19 18/48/18 23/47/23
f  8/50/8 25/51/25 7/52/7
f  26/53/26 7/52/7 25/51/25
f  26/54/26 25/55/25 21/56/21
f  22/57/22 21/56/21 25/55/25
f  5/53/5 27/58/27 6/51/6
f  28/59/28 6/51/6 27/58/27
f  28/57/28 27/60/27 23/61/23
f  24/62/24 23/61/23 27/60/27
f  7/63/7 26/64/26 5/65/5
f  27/66/27 5/65/5 26/64/26
f  27/67/27 26/68/26 24/69/24
f  21/70/21 24/69/24 26/68/26
f  6/63/6 28/71/28 8/65/8
f  25/72/25 8/65/8 28/71/28
f  25/73/25 28/74/28 22/69/22
f  23/70/23 22/69/22 28/74/28

