# File produced by Open Asset Import Library (http://www.assimp.sf.net)
# (assimp v5.2.3369795085)

mtllib 35.X.mtl

# 72 vertex positions
v  -1.96630001 40.5812378 1.76180005
v  0.0126999998 40.5812378 2.56279993
v  -1.96630001 105.541031 1.76180005
v  0.0126999998 105.511536 2.56279993
v  1.903 105.483429 1.76180005
v  1.903 40.5812378 1.76180005
v  1.903 40.5812378 -1.82679999
v  0.0126999998 40.5812378 -2.62759995
v  1.903 105.483429 -1.82679999
v  0.0126999998 105.511536 -2.62759995
v  -1.96630001 105.541031 -1.82679999
v  -1.96630001 40.5812378 -1.82679999
v  -2.42910004 40.5812378 -0.176699996
v  -2.42910004 105.541031 -0.176699996
v  2.36570001 40.5812378 -0.176699996
v  2.36570001 105.483429 -0.176699996
v  0.0126999998 -40.4747658 2.56209993
v  -0.000699999975 -41.1984634 -0.168400005
v  1.903 -40.4747658 1.76129997
v  2.36570001 -40.4747658 -0.176699996
v  -2.42910004 -40.4747658 -0.176699996
v  -1.96630001 -40.4747658 1.76129997
v  -1.96630001 -40.4747658 -1.82729995
v  1.903 -40.4747658 -1.82729995
v  0.0126999998 -40.4747658 -2.62829995
v  -9.99999975e-05 106.687637 -0.189300001
v  18.4885006 86.6497345 7.89720011
v  -18.8348007 86.6497345 7.89720011
v  18.4885006 86.6497345 -7.89720011
v  -18.8348007 86.6497345 -7.89720011
v  18.9976997 106.02774 7.89720011
v  -18.9976997 106.02774 7.89720011
v  -16.2761993 109.759537 5.62580013
v  16.2761993 109.759537 5.62580013
v  16.2761993 109.759537 -5.62580013
v  18.9976997 106.02774 -7.89720011
v  -16.2761993 109.759537 -5.62580013
v  -18.9976997 106.02774 -7.89720011
v  -16.3880997 111.686432 -0.0895000026
v  16.2334995 111.835938 -0.0303000007
v  22.1742992 91.4358368 9.29249954
v  18.9976997 106.02774 7.13679981
v  -22.1742992 91.4358368 9.29249954
v  -18.9976997 106.02774 7.13679981
v  22.1742992 85.0005341 8.76650047
v  18.9976997 99.5924377 6.61089993
v  -22.1742992 85.0005341 8.76650047
v  -18.9976997 99.5924377 6.61089993
v  -22.1742992 91.4358368 -9.89589977
v  -18.9976997 106.02774 -7.74030018
v  22.1742992 91.4358368 -9.89589977
v  18.9976997 106.02774 -7.74030018
v  -22.1742992 85.0005341 -9.36999989
v  -18.9976997 99.5924377 -7.21439981
v  22.1742992 85.0005341 -9.36999989
v  18.9976997 99.5924377 -7.21430016
v  20.3904991 91.4358368 -8.8512001
v  18.6070995 106.02774 -7.53730011
v  20.3904991 91.4358368 9.49240017
v  18.6070995 106.02774 8.17850018
v  19.9554005 85.0005341 -8.8512001
v  18.1718998 99.5924377 -7.53730011
v  19.9552994 85.0005341 9.49240017
v  18.1718998 99.5924377 8.17850018
v  -20.4228001 91.4358368 9.49240017
v  -18.6392994 106.02774 8.17850018
v  -20.4228001 91.4358368 -8.8512001
v  -18.6392994 106.02774 -7.53730011
v  -19.9876003 85.0005341 9.49240017
v  -18.2042007 99.5924377 8.17850018
v  -19.9876003 85.0005341 -8.8512001
v  -18.2042007 99.5924377 -7.53730011

# 90 UV coordinates
vt 0.869069993 -0.994150043 0
vt 0.928629994 -0.994150043 0
vt 0.869069993 0.0959799886 0
vt 0.928730011 0.0959799886 0
vt 0.985710025 0.0959799886 0
vt 0.985530019 -0.994150043 0
vt 0.925970018 -0.994150043 0
vt 0.926050007 0.0959799886 0
vt 0.770720005 -0.994150043 0
vt 0.820379972 -0.994150043 0
vt 0.770720005 0.0959799886 0
vt 0.820379972 0.0959799886 0
vt 0.878729999 0.0959799886 0
vt 0.878729999 -0.994150043 0
vt 0.829060018 -0.994150043 0
vt 0.829060018 0.0959799886 0
vt 1.96757996 -0.0273799896 0
vt 1.88634002 0.0162699819 0
vt 1.90183997 -0.0689899921 0
vt 1.82444 -0.0583900213 0
vt 1.93873 0.0960100293 0
vt 1.98477995 0.0527700186 0
vt 1.86590004 0.114950001 0
vt 1.77366996 -0.00966000557 0
vt 1.78875005 0.0676400065 0
vt -0.183109999 0.932900012 0
vt -0.238030002 0.932820022 0
vt -0.18321 -0.451859951 0
vt -0.238030002 -0.451859951 0
vt -0.11485 0.932990015 0
vt -0.11485 -0.451859951 0
vt -0.180040002 0.932900012 0
vt -0.180140004 -0.451859951 0
vt -0.0590000004 0.932900012 0
vt -0.125939995 0.932820022 0
vt -0.0589900017 -0.451859951 0
vt -0.125939995 -0.451859951 0
vt -0.0180200003 0.932990015 0
vt -0.0180200003 -0.451859951 0
vt -0.0689399987 0.932889998 0
vt -0.0689499974 -0.451859951 0
vt 1.98205996 0.853810012 0
vt 1.87144005 0.92938 0
vt 1.89625001 0.785740018 0
vt 1.80063999 0.82378 0
vt 1.93136001 1.06019998 0
vt 1.98457003 0.980840027 0
vt 1.84806001 1.08920002 0
vt 1.76830995 0.898389995 0
vt 1.75980997 1.01674998 0
vt 0.0128699997 0.746430039 0
vt 0.485219985 0.746430039 0
vt 0.0128699997 1 0
vt 0.485219985 1 0
vt 0.739400029 0.0644099712 0
vt 0.687520027 0.300400019 0
vt 0.0151500003 0.0644099712 0
vt 0.067019999 0.300400019 0
vt 0.117940001 0.392910004 0
vt 0.649550021 0.392910004 0
vt 1.67911994 0.370249987 0
vt 1.72356999 0.31983 0
vt 1.14751005 0.370249987 0
vt 1.10307002 0.31983 0
vt 1.05119002 0.0838400126 0
vt 1.77543998 0.0838400126 0
vt 0.202010006 0.0549399853 0
vt 0.202639997 0.304870009 0
vt 0.500660002 0.0549399853 0
vt 0.501290023 0.304870009 0
vt 0.507589996 1.29246998 0
vt 0.246720001 1.29049993 0
vt 0.523180008 1.06509995 0
vt 0.247309998 1.05669999 0
vt 0.382600009 1.49496007 0
vt 0.269820005 1.43629003 0
vt 0.509209991 1.40689993 0
vt 0.351940006 0.494300008 0
vt 0.476799995 0.444689989 0
vt 0.229599997 0.440559983 0
vt 0.122589998 0.486940026 0
vt 0.655330002 0.488960028 0
vt 1.67518997 0.495429993 0
vt 1.14244998 0.493409991 0
vt 0.739400029 0.00436997414 0
vt 0.0151500003 0.00436997414 0
vt 0.559249997 0.00322002172 0
vt 0.533850014 0.310750008 0
vt 0.204720005 0.00322002172 0
vt 0.230110005 0.310750008 0

# 59 vertex normals
vn -0.758179724 -2.6436619e-06 0.652045667
vn 0.00810486078 -3.71324518e-06 0.999967158
vn -0.656160116 0.492919415 0.571388125
vn 0.0121540586 0.496620327 0.867882788
vn 0.6680457 0.48196426 0.566943944
vn 0.763455808 -1.59742115e-06 0.645860076
vn 0.750661969 2.65782614e-06 -0.660686493
vn 0.0081032794 3.70921362e-06 -0.999967158
vn 0.662949204 0.473742753 -0.579712093
vn 0.0120857032 0.480403602 -0.876964271
vn -0.651115894 0.484976292 -0.583820224
vn -0.745264649 1.59868966e-06 -0.666768789
vn -0.999809027 -3.64242027e-07 -0.019542573
vn -0.865996599 0.499786407 -0.0162299816
vn 0.999809086 4.243322e-07 -0.019538885
vn 0.872424066 0.488477081 -0.0163198207
vn 0.00670365617 -0.546679497 0.837315083
vn 0.00336325052 -0.999895513 -0.0140568297
vn 0.642760098 -0.536145389 0.547181487
vn 0.832971454 -0.55308795 -0.0158839263
vn -0.831260502 -0.555656791 -0.0158584155
vn -0.63855511 -0.536539853 0.55169946
vn -0.631027162 -0.533334255 -0.563346505
vn 0.635402322 -0.532754481 -0.558960199
vn 0.00676110946 -0.537505925 -0.84323287
vn 0.0157572757 0.99959743 -0.0235941932
vn 0.569027781 -0.58417666 0.578744292
vn -0.574697673 -0.579549074 0.577793598
vn 0.569027841 -0.5841766 -0.578744352
vn -0.574697673 -0.579549074 -0.577793598
vn 0.675234616 0.290709853 0.677898228
vn -0.67130065 0.295845658 0.679581344
vn -0.306858033 0.78063482 0.544469893
vn 0.309406549 0.775961399 0.549683094
vn 0.308673084 0.775137782 -0.551255226
vn 0.675237179 0.290571302 -0.677955091
vn -0.304379344 0.778529882 -0.548857391
vn -0.671306193 0.295415431 -0.679762959
vn -0.465328604 0.885128677 -0.00406746985
vn 0.452302754 0.891863406 -0.00136934151
vn 0 0.146146387 0.989262998
vn 0 0.146139801 0.989263952
vn 0 0.146139741 -0.989263952
vn 0 0.146139726 -0.989263952
vn 0 0.146139786 -0.989263952
vn 5.00660178e-07 0.146141157 -0.989263773
vn 1.93777191e-06 0.14614512 -0.989263177
vn 2.59475928e-06 0.146146938 -0.989262879
vn 0.992613971 0.12131574 0
vn 0.992613971 0.121315725 0
vn 0.992613971 0.121315718 0
vn 0.992613196 0.121322021 5.47017771e-06
vn 0.992613554 0.121319316 3.12344059e-06
vn 0.992613614 0.12131875 2.62911317e-06
vn -0.992613137 0.121322505 0
vn -0.992613137 0.121322498 0
vn -0.992613971 0.12131574 0
vn -0.992613971 0.121315725 0
vn -0.992613971 0.121315718 0

# Mesh '' with 88 faces
usemtl kuwa
f  1/1/1 2/2/2 3/3/3
f  4/4/4 3/3/3 2/2/2
f  4/4/4 2/2/2 5/5/5
f  6/6/6 5/5/5 2/2/2
f  7/1/7 8/7/8 9/3/9
f  10/8/10 9/3/9 8/7/8
f  10/8/10 8/7/8 11/5/11
f  12/6/12 11/5/11 8/7/8
f  12/9/12 13/10/13 11/11/11
f  14/12/14 11/11/11 13/10/13
f  14/12/14 13/10/13 3/13/3
f  1/14/1 3/13/3 13/10/13
f  6/9/6 15/15/15 5/11/5
f  16/16/16 5/11/5 15/15/15
f  16/16/16 15/15/15 9/13/9
f  7/14/7 9/13/9 15/15/15
f  17/17/17 18/18/18 19/19/19
f  19/19/19 18/18/18 20/20/20
f  21/21/21 18/18/18 22/22/22
f  23/23/23 18/18/18 21/21/21
f  20/20/20 18/18/18 24/24/24
f  25/25/25 18/18/18 23/23/23
f  24/24/24 18/18/18 25/25/25
f  22/22/22 18/18/18 17/17/17
f  17/26/17 19/27/19 2/28/2
f  6/29/6 2/28/2 19/27/19
f  22/30/22 17/26/17 1/31/1
f  2/28/2 1/31/1 17/26/17
f  25/32/25 23/27/23 8/33/8
f  12/29/12 8/33/8 23/27/23
f  24/30/24 25/32/25 7/31/7
f  8/33/8 7/31/7 25/32/25
f  21/34/21 22/35/22 13/36/13
f  1/37/1 13/36/13 22/35/22
f  23/38/23 21/34/21 12/39/12
f  13/36/13 12/39/12 21/34/21
f  20/40/20 24/35/24 15/41/15
f  7/37/7 15/41/15 24/35/24
f  19/38/19 20/40/20 6/39/6
f  15/41/15 6/39/6 20/40/20
f  4/42/4 26/43/26 3/44/3
f  3/44/3 26/43/26 14/45/14
f  16/46/16 26/43/26 5/47/5
f  9/48/9 26/43/26 16/46/16
f  14/45/14 26/43/26 11/49/11
f  10/50/10 26/43/26 9/48/9
f  11/49/11 26/43/26 10/50/10
f  5/47/5 26/43/26 4/42/4
f  27/51/27 28/52/28 29/53/29
f  30/54/30 29/53/29 28/52/28
f  27/55/27 31/56/31 28/57/28
f  32/58/32 28/57/28 31/56/31
f  32/58/32 31/56/31 33/59/33
f  34/60/34 33/59/33 31/56/31
f  35/61/35 36/62/36 37/63/37
f  38/64/38 37/63/37 36/62/36
f  38/64/38 36/62/36 30/65/30
f  29/66/29 30/65/30 36/62/36
f  29/67/29 36/68/36 27/69/27
f  31/70/31 27/69/27 36/68/36
f  32/71/32 38/72/38 28/73/28
f  30/74/30 28/73/28 38/72/38
f  38/72/38 39/75/39 37/76/37
f  33/77/33 39/75/39 32/71/32
f  32/71/32 39/75/39 38/72/38
f  31/70/31 40/78/40 34/79/34
f  35/80/35 40/78/40 36/68/36
f  36/68/36 40/78/40 31/70/31
f  39/81/39 33/59/33 40/82/40
f  34/60/34 40/82/40 33/59/33
f  35/61/35 37/63/37 40/83/40
f  39/84/39 40/83/40 37/63/37
f  41/85/41 42/56/41 43/86/41
f  44/58/41 43/86/41 42/56/41
f  45/85/42 46/56/42 47/86/42
f  48/58/42 47/86/42 46/56/42
f  49/85/43 50/56/43 51/86/43
f  52/58/44 51/86/43 50/56/43
f  53/85/45 54/56/46 55/86/47
f  56/58/48 55/86/47 54/56/46
f  57/87/49 58/88/50 59/89/50
f  60/90/51 59/89/50 58/88/50
f  61/87/52 62/88/53 63/89/54
f  64/90/51 63/89/54 62/88/53
f  65/87/55 66/88/56 67/89/55
f  68/90/56 67/89/55 66/88/56
f  69/87/57 70/88/58 71/89/58
f  72/90/59 71/89/58 70/88/58

