# File produced by Open Asset Import Library (http://www.assimp.sf.net)
# (assimp v5.2.3369795085)

mtllib 37.X.mtl

# 53 vertex positions
v  3.73779964 29.30163 -6.47410011
v  7.47559977 29.30163 -3.247699e-07
v  3.73779964 -2.13356948 -6.47410011
v  7.47559977 -2.13356948 -3.247699e-07
v  -3.73780012 29.30163 -6.47410011
v  -3.73780012 -2.13356948 -6.47410011
v  -7.47559977 29.30163 3.28767783e-07
v  -7.47559977 -2.13356948 3.28767783e-07
v  -3.73779964 29.30163 6.47410011
v  -3.73779964 -2.13356948 6.47410011
v  3.73780012 29.30163 6.47410011
v  3.73780012 -2.13356948 6.47410011
v  -3.60935912e-26 29.30163 1.99895012e-09
v  -3.60935912e-26 -0.118569344 1.99895012e-09
v  1.91589987 31.9857311 -3.31839991
v  3.83170009 31.9857311 -1.65489979e-07
v  1.91589987 28.8316307 -3.31839991
v  3.83170009 28.8316307 -1.65489979e-07
v  -1.91590011 31.9857311 -3.31839991
v  -1.91590011 28.8316307 -3.31839991
v  -3.83170009 31.9857311 1.69487876e-07
v  -3.83170009 28.8316307 1.69487876e-07
v  -1.91589987 31.9857311 3.31839991
v  -1.91589987 28.8316307 3.31839991
v  1.91590011 31.9857311 3.31839991
v  1.91590011 28.8316307 3.31839991
v  2.89829969 39.3854294 -5.02010012
v  5.79659986 39.3854294 -2.51378481e-07
v  2.89829969 31.3300304 -5.02010012
v  5.79659986 31.3300304 -2.51378481e-07
v  -2.89830017 39.3854294 -5.02010012
v  -2.89830017 31.3300304 -5.02010012
v  -5.79659986 39.3854294 2.55376364e-07
v  -5.79659986 31.3300304 2.55376364e-07
v  -2.89829969 39.3854294 5.02010012
v  -2.89829969 31.3300304 5.02010012
v  2.89830017 39.3854294 5.02010012
v  2.89830017 31.3300304 5.02010012
v  -3.60935912e-26 39.3854294 1.99895012e-09
v  -3.60935912e-26 31.8464298 1.99895012e-09
v  1.04259968 33.87463 -8.80430031
v  2.08509946 35.6804314 -8.80430031
v  1.04259992 33.87463 -3.31739998
v  2.0850997 35.6804314 -3.31739998
v  -1.04260039 33.87463 -8.80430031
v  -1.04260015 33.87463 -3.31739998
v  -2.08510041 35.6804314 -8.80430031
v  -2.08510017 35.6804314 -3.31739998
v  -1.04260039 37.4862289 -8.80430031
v  -1.04260015 37.4862289 -3.31739998
v  1.04259968 37.4862289 -8.80430031
v  1.04259992 37.4862289 -3.31739998
v  -3.84848192e-07 35.6804314 -8.80430031

# 70 UV coordinates
vt 0.166669995 0.507869959 0
vt 0 0.507869959 0
vt 0.166669995 0.00694000721 0
vt 0 0.00694000721 0
vt 0.333330005 0.507869959 0
vt 0.333330005 0.00694000721 0
vt 0.5 0.507869959 0
vt 0.5 0.00694000721 0
vt 0.666670024 0.507869959 0
vt 0.666670024 0.00694000721 0
vt 0.833329976 0.507869959 0
vt 0.833329976 0.00694000721 0
vt 1 0.507869959 0
vt 1 0.00694000721 0
vt 0.23522 1.59082007 0
vt 0.124519996 1.65555 0
vt 0.124519996 1.52609003 0
vt 0.23522 1.72027993 0
vt 0.124519996 1.78500998 0
vt 0.01382 1.72027993 0
vt 0.01382 1.59082007 0
vt 0.281500012 0.875289977 0
vt 0.240470007 0.875289977 0
vt 0.281500012 1.00277996 0
vt 0.240470007 1.00277996 0
vt 0.322530001 0.875289977 0
vt 0.322530001 1.00277996 0
vt 0.363550007 0.875289977 0
vt 0.363550007 1.00277996 0
vt 0.404579997 0.875289977 0
vt 0.404579997 1.00277996 0
vt 0.445600003 0.875289977 0
vt 0.445600003 1.00277996 0
vt 0.486629993 0.875289977 0
vt 0.486629993 1.00277996 0
vt 0.241290003 0.776679993 0
vt 0.241290003 0.829370022 0
vt 0.00675000018 0.776679993 0
vt 0.00675000018 0.829370022 0
vt 0.241290003 0.723989964 0
vt 0.00675000018 0.723989964 0
vt 0.241290003 0.671299994 0
vt 0.00675000018 0.671299994 0
vt 0.241290003 0.618600011 0
vt 0.00675000018 0.618600011 0
vt 0.241290003 0.565909982 0
vt 0.00675000018 0.565909982 0
vt 0.241290003 0.513220012 0
vt 0.00675000018 0.513220012 0
vt 0.284370005 -9.00030136e-05 0
vt 0.243139997 -9.00030136e-05 0
vt 0.284370005 -0.128669977 0
vt 0.243139997 -0.128669977 0
vt 0.325610012 -9.00030136e-05 0
vt 0.325610012 -0.128669977 0
vt 0.366849989 -9.00030136e-05 0
vt 0.366849989 -0.128669977 0
vt 0.408089995 -9.00030136e-05 0
vt 0.408089995 -0.128669977 0
vt 0.449319988 -9.00030136e-05 0
vt 0.449319988 -0.128669977 0
vt 0.490559995 -9.00030136e-05 0
vt 0.490559995 -0.128669977 0
vt 0.744369984 1.81243002 0
vt 0.633090019 1.87435007 0
vt 0.631649971 1.75625002 0
vt 0.744369984 1.93627 0
vt 0.630219996 1.99389005 0
vt 0.507449985 1.93627 0
vt 0.507449985 1.81243002 0

# 50 vertex normals
vn 0.396203876 0.609994054 -0.686243176
vn 0.792405486 0.609994709 -4.18090735e-08
vn 0.364620537 -0.684258938 -0.631539047
vn 0.729238153 -0.684259951 -3.77767968e-08
vn -0.396203935 0.609994113 -0.686243117
vn -0.364620596 -0.684258878 -0.631539106
vn -0.792405486 0.609994709 2.25303634e-08
vn -0.729238153 -0.684259951 4.59918681e-08
vn -0.396203876 0.609994054 0.686243176
vn -0.364620537 -0.684258938 0.631539047
vn 0.396203935 0.609994113 0.686243117
vn 0.364620596 -0.684258878 0.631539106
vn 0 1 0
vn -2.87570656e-09 -1 1.62955663e-10
vn 0.500007629 0 -0.866020977
vn 1 0 -4.34556071e-08
vn 0.500007689 0 -0.866020977
vn 1 0 -4.64800536e-08
vn -0.500007749 0 -0.866020918
vn -1 0 4.79868056e-08
vn -1 0 4.39671695e-08
vn -0.500007629 0 0.866020977
vn -0.500007689 0 0.866020977
vn 0.500007749 0 0.866020918
vn 0.396205992 0.609993696 -0.686242282
vn 0.79240489 0.609995484 -3.47036e-08
vn 0.385928482 -0.635803342 -0.668440938
vn 0.771849155 -0.635805666 -3.52363365e-08
vn -0.396206051 0.609993637 -0.686242342
vn -0.385928512 -0.635803342 -0.668440938
vn -0.79240489 0.609995484 3.62862629e-08
vn -0.771849215 -0.635805666 3.33752617e-08
vn -0.396205992 0.609993696 0.686242282
vn -0.385928482 -0.635803342 0.668440938
vn 0.396206051 0.609993637 0.686242342
vn 0.385928512 -0.635803342 0.668440938
vn 8.65270633e-10 -1 -6.56198262e-10
vn 0.39621523 -0.686238587 -0.609991848
vn 0.792402148 3.67056884e-07 -0.609999061
vn 0.500014424 -0.866017103 -2.18563248e-08
vn 1 4.73174225e-07 -4.37113883e-08
vn -0.39621526 -0.686238527 -0.609991908
vn -0.500014424 -0.866017103 2.18563248e-08
vn -0.792402208 3.75860282e-07 -0.609999001
vn -1 4.63220431e-07 4.37113883e-08
vn -0.396214932 0.686238766 -0.609991908
vn -0.500014007 0.866017342 2.1856307e-08
vn 0.396214873 0.686238766 -0.609991908
vn 0.500014007 0.866017342 -2.1856307e-08
vn -4.37113883e-08 0 -1

# Mesh '' with 78 faces
usemtl mat1
f  1/1/1 2/2/2 3/3/3
f  4/4/4 3/3/3 2/2/2
f  5/5/5 1/1/1 6/6/6
f  3/3/3 6/6/6 1/1/1
f  7/7/7 5/5/5 8/8/8
f  6/6/6 8/8/8 5/5/5
f  9/9/9 7/7/7 10/10/10
f  8/8/8 10/10/10 7/7/7
f  11/11/11 9/9/9 12/12/12
f  10/10/10 12/12/12 9/9/9
f  2/13/2 11/11/11 4/14/4
f  12/12/12 4/14/4 11/11/11
f  1/15/1 13/16/13 2/17/2
f  5/18/5 13/16/13 1/15/1
f  7/19/7 13/16/13 5/18/5
f  9/20/9 13/16/13 7/19/7
f  11/21/11 13/16/13 9/20/9
f  2/17/2 13/16/13 11/21/11
f  4/17/4 14/16/14 3/15/3
f  3/15/3 14/16/14 6/18/6
f  6/18/6 14/16/14 8/19/8
f  8/19/8 14/16/14 10/20/10
f  10/20/10 14/16/14 12/21/12
f  12/21/12 14/16/14 4/17/4
f  15/22/15 16/23/16 17/24/17
f  18/25/18 17/24/17 16/23/16
f  19/26/19 15/22/15 20/27/19
f  17/24/17 20/27/19 15/22/15
f  21/28/20 19/26/19 22/29/21
f  20/27/19 22/29/21 19/26/19
f  23/30/22 21/28/20 24/31/23
f  22/29/21 24/31/23 21/28/20
f  25/32/24 23/30/22 26/33/24
f  24/31/23 26/33/24 23/30/22
f  16/34/16 25/32/24 18/35/18
f  26/33/24 18/35/18 25/32/24
f  27/36/25 28/37/26 29/38/27
f  30/39/28 29/38/27 28/37/26
f  31/40/29 27/36/25 32/41/30
f  29/38/27 32/41/30 27/36/25
f  33/42/31 31/40/29 34/43/32
f  32/41/30 34/43/32 31/40/29
f  35/44/33 33/42/31 36/45/34
f  34/43/32 36/45/34 33/42/31
f  37/46/35 35/44/33 38/47/36
f  36/45/34 38/47/36 35/44/33
f  28/48/26 37/46/35 30/49/28
f  38/47/36 30/49/28 37/46/35
f  27/15/25 39/16/13 28/17/26
f  31/18/29 39/16/13 27/15/25
f  33/19/31 39/16/13 31/18/29
f  35/20/33 39/16/13 33/19/31
f  37/21/35 39/16/13 35/20/33
f  28/17/26 39/16/13 37/21/35
f  30/17/28 40/16/37 29/15/27
f  29/15/27 40/16/37 32/18/30
f  32/18/30 40/16/37 34/19/32
f  34/19/32 40/16/37 36/20/34
f  36/20/34 40/16/37 38/21/36
f  38/21/36 40/16/37 30/17/28
f  41/50/38 42/51/39 43/52/40
f  44/53/41 43/52/40 42/51/39
f  45/54/42 41/50/38 46/55/43
f  43/52/40 46/55/43 41/50/38
f  47/56/44 45/54/42 48/57/45
f  46/55/43 48/57/45 45/54/42
f  49/58/46 47/56/44 50/59/47
f  48/57/45 50/59/47 47/56/44
f  51/60/48 49/58/46 52/61/49
f  50/59/47 52/61/49 49/58/46
f  42/62/39 51/60/48 44/63/41
f  52/61/49 44/63/41 51/60/48
f  41/64/38 53/65/50 42/66/39
f  45/67/42 53/65/50 41/64/38
f  47/68/44 53/65/50 45/67/42
f  49/69/46 53/65/50 47/68/44
f  51/70/48 53/65/50 49/69/46
f  42/66/39 53/65/50 51/70/48

