# File produced by Open Asset Import Library (http://www.assimp.sf.net)
# (assimp v5.2.3369795085)

mtllib 41.X.mtl

# 40 vertex positions
v  -6.33251667 17.0927086 -1.63253856
v  2.06808233 17.0927086 6.20395088
v  -2.06808138 17.0927086 -6.20394945
v  6.33251762 17.0927086 1.63254035
v  -6.33251858 -15.3410854 -1.63254058
v  -2.06808329 -15.3410854 -6.20395136
v  -4.58938217 -18.5146236 -2.31373477
v  -2.62092423 -18.5146236 -4.42389202
v  4.63458586 -18.5146236 2.34440255
v  6.33251572 -15.3410864 1.63253844
v  2.66612816 -18.5146236 4.4545598
v  2.06808043 -15.3410864 6.20394897
v  3.06594157 -18.4944382 0.89813751
v  1.05160296 -18.5452824 2.92241669
v  -1.02245009 -18.5263195 -2.94269013
v  -3.0308795 -18.5519314 -0.891568601
v  1.66471219 -21.3213978 2.82727599
v  2.73197889 -21.3010616 3.84002233
v  4.03314066 -21.3010616 2.44519639
v  2.99624252 -21.2877598 1.48911464
v  -2.69825125 -21.3045025 -3.90611124
v  -4.01871204 -21.3058033 -2.38322067
v  -3.03864694 -21.3292732 -1.48883438
v  -1.58203852 -21.3126831 -2.8718586
v  2.0680809 -8.20338058 6.20394945
v  -6.3325181 -8.20337963 -1.63254011
v  -2.06808281 -8.20337963 -6.20395088
v  6.33251619 -8.20338058 1.63253891
v  1.67724133 -6.17431355 5.0314374
v  -5.13570833 -6.17431307 -1.3240155
v  -1.67724311 -6.17431307 -5.03143835
v  5.13570642 -6.17431355 1.32401443
v  1.6772418 1.01102364 5.0314374
v  -5.13570786 1.01102448 -1.32401502
v  -1.67724276 0.954370916 -5.03143787
v  5.1357069 0.954370081 1.3240149
v  -6.33251762 3.1286273 -1.63253939
v  2.06808162 3.12862611 6.20395041
v  6.33251715 3.08160567 1.63253951
v  -2.06808209 3.08160663 -6.20394993

# 99 UV coordinates
vt 0.163509995 0.309270024 0
vt 0.163509995 0 0
vt 0.349310011 0.309270024 0
vt 0.349310011 0 0
vt 0.0202600006 0.805539966 0
vt 0.463649988 0.805539966 0
vt 0.139750004 0.890860021 0
vt 0.362340003 0.890860021 0
vt 0.0985900015 0.891960025 0
vt 0.0297100004 0.805539966 0
vt 0.352910012 0.891960025 0
vt 0.462300003 0.805539966 0
vt 0.444579989 0.891960025 0
vt 0.351969987 0.891960025 0
vt 0.460779995 0.805539966 0
vt 0.0243100002 0.805539966 0
vt 0.03376 0.805539966 0
vt 0.147939995 0.891960025 0
vt 0.0702299997 0.891960025 0
vt 0.46213001 0.805539966 0
vt 0.137789994 0.891960025 0
vt 0.0432199985 0.891960025 0
vt 0.326200008 0.891960025 0
vt 0.417569995 0.891960025 0
vt 0.385170013 0.666689992 0
vt 0.382079989 0.666689992 0
vt 0.136940002 0.666689992 0
vt 0.132850006 0.666689992 0
vt 0.119910002 0.760590017 0
vt 0.0545400009 0.760590017 0
vt 0.0380499996 0.666689992 0
vt 0.117200002 0.760590017 0
vt 0.118390001 0.823199987 0
vt 0.183760002 0.824100018 0
vt 0.181060001 0.822610021 0
vt 0.465719998 0.760590017 0
vt 0.462469995 0.760590017 0
vt 0.478899986 0.666689992 0
vt 0.403519988 0.760590017 0
vt 0.398110002 0.760590017 0
vt 0.186450005 0.825469971 0
vt 0.189710006 0.825410008 0
vt 0.127509996 0.826510012 0
vt 0.122100003 0.82577002 0
vt 0.03376 0.666689992 0
vt 0.46213001 0.666689992 0
vt 0.0243100002 0.666689992 0
vt 0.460779995 0.666689992 0
vt 0.0202600006 0.666689992 0
vt 0.463649988 0.666689992 0
vt 0.0297100004 0.666689992 0
vt 0.462300003 0.666689992 0
vt 0.00150000001 0.615469992 0
vt 0.500100017 0.615469992 0
vt 0.00150000001 0.673130035 0
vt 0.500100017 0.673130035 0
vt 0 0.614969969 0
vt 0.504170001 0.614969969 0
vt 0 0.672630012 0
vt 0.504170001 0.672630012 0
vt 0.505670011 0.615469992 0
vt 0.505670011 0.673130035 0
vt 0.0310600009 0.453490019 0
vt 0.451409996 0.453490019 0
vt 0.0310600009 0.654870033 0
vt 0.451409996 0.654870033 0
vt 0.0310600009 0.454779983 0
vt 0.447910011 0.454159975 0
vt 0.0310600009 0.656129956 0
vt 0.451409996 0.656129956 0
vt 0.0381000005 0.0168799758 0
vt 0.458460003 0.0184699893 0
vt 0.0381000005 0.380240023 0
vt 0.458460003 0.380240023 0
vt 0.0381000005 0.0184699893 0
vt 0.458460003 0.0168799758 0
vt 0.498600006 0 0
vt 0.498600006 0.393329978 0
vt 0 0 0
vt 0 0.393329978 0
vt 0.498600006 0.394659996 0
vt 0 0.394659996 0
vt 0 0.393899977 0
vt 0.498600006 0.393899977 0
vt 0.504170001 0 0
vt 0.504170001 0.278209984 0
vt 0 0.276880026 0
vt 0.0250899997 0.0407400131 0
vt 0.480870008 0.0425599813 0
vt 0.0560300015 0.107940018 0
vt 0.44777 0.112360001 0
vt 0.48003 0.0468599796 0
vt 0.48003 0.274039984 0
vt 0.00994000025 0.0468599796 0
vt 0.00994000025 0.275370002 0
vt 0.0265100002 0.0463299751 0
vt 0.475190014 0.0454999804 0
vt 0.0574500002 0.113780022 0
vt 0.442090005 0.115040004 0

# 79 vertex normals
vn 6.39263291e-08 1 5.96335994e-08
vn -0.727391064 -0.102360107 -0.678545952
vn -0.7273826 -0.102472149 -0.678538084
vn -0.716423154 -0.200233847 -0.668314517
vn -0.721170187 -0.195161059 -0.664699674
vn 0.717706382 -0.191446528 0.669511616
vn 0.727865279 -0.0958489999 0.678988338
vn 0.717694223 -0.191531703 0.669500291
vn 0.72787267 -0.095743753 0.678995252
vn 0.63586998 -0.336928636 -0.694369078
vn 0.62836802 -0.379513949 -0.679060221
vn 0.663447917 -0.225184843 -0.713532507
vn 0.665129423 -0.222188085 -0.712906241
vn -0.664784551 -0.224925056 0.712369442
vn -0.632503569 -0.380080402 0.674891174
vn -0.643263757 -0.342618644 0.684707403
vn -0.664693594 -0.223675802 0.712847531
vn 0.634297073 -0.369192898 -0.679237664
vn 0.639896631 -0.331715733 -0.693178892
vn -0.630376995 -0.374657929 0.679894328
vn -0.639357448 -0.335525811 0.691841364
vn 0.00694300467 -0.999959707 -0.00568845356
vn 0.00972312689 -0.999930501 -0.00667148177
vn 0.0134461122 -0.999877691 -0.007987855
vn 0.0162230022 -0.99982816 -0.00896967482
vn -0.676107883 -0.173857495 0.715996981
vn -0.676118314 -0.173867911 0.715984643
vn 0.724833965 -0.13199468 0.676160574
vn 0.666807771 -0.17017363 -0.725540042
vn 0.66679579 -0.170162335 -0.725553691
vn -0.701124787 -0.130801618 -0.700938642
vn -0.701116741 -0.130810082 -0.700945139
vn -0.701114774 -0.130812094 -0.700946689
vn -0.701108694 -0.130818471 -0.700951576
vn 0.0101069007 -0.999904454 0.00942821149
vn 0.00819585379 -0.999963462 -0.00242109201
vn 0.00738429045 -0.999944985 -0.00745080458
vn 0.00539664552 -0.999790132 -0.0197635386
vn -0.751695752 -0.100145996 -0.651862144
vn -0.738354087 -0.115970112 -0.664367497
vn -0.667986453 -0.154694408 0.727917433
vn -0.667977631 -0.154686749 0.727927089
vn 0.68108052 -0.155761808 0.715449214
vn 0.695638657 -0.140308574 0.704556823
vn 0.698501587 -0.137209669 0.702331185
vn 0.709687591 -0.12490166 0.693356395
vn 0.67103523 -0.153205514 -0.725423872
vn 0.671044648 -0.153214872 -0.725413203
vn -0.0129315732 -0.999843597 -0.0120666744
vn -0.0036309734 -0.999935567 -0.010757925
vn -0.00686213048 -0.999913573 -0.0112127056
vn 0.00191547675 -0.999948382 -0.00997701939
vn -0.677521646 0.116029836 0.726293027
vn 0.677521646 0.116029829 -0.726292968
vn -0.712988853 0.221978322 -0.665110886
vn 0.712988913 0.221978143 0.665110946
vn -0.673375428 0.159688622 0.721848369
vn 0.673375487 0.159688607 -0.721848369
vn -0.705859005 0.261139363 -0.658459783
vn 0.705859065 0.261139184 0.658459842
vn -0.674111664 -0.152867556 0.722637534
vn -0.674111664 -0.152867571 0.722637534
vn 0.67418623 -0.152158454 -0.722717583
vn 0.67418623 -0.152158469 -0.722717583
vn -0.708888412 -0.252936155 -0.658407569
vn -0.71021086 -0.248360604 -0.658724189
vn 0.706780314 -0.249022603 0.662155092
vn 0.705389798 -0.25360772 0.66189754
vn -0.682128906 0 0.731231928
vn -0.677806437 -0.112398259 0.726598263
vn 0.682128906 0 -0.731231928
vn 0.677835882 -0.112015694 -0.726629913
vn 0.677835882 -0.112015687 -0.726629913
vn -0.731231928 8.74227766e-08 -0.682128906
vn -0.71556586 -0.21527116 -0.664547861
vn -0.71536839 -0.214132488 -0.665128052
vn 0.731231928 -8.74227766e-08 0.682128906
vn 0.712854743 -0.213787585 0.667931914
vn 0.713039339 -0.214927956 0.66736865

# Mesh '' with 76 faces
usemtl mat1
f  1/1/1 2/2/1 3/3/1
f  4/4/1 3/3/1 2/2/1
f  5/5/2 6/6/3 7/7/4
f  8/8/5 7/7/4 6/6/3
f  9/9/6 10/10/7 11/11/8
f  12/12/9 11/11/8 10/10/7
f  9/13/10 13/14/11 10/15/12
f  10/15/12 13/14/11 6/16/13
f  12/17/14 14/18/15 11/19/16
f  5/20/17 14/18/15 12/17/14
f  6/16/13 15/21/18 8/22/19
f  13/14/11 15/21/18 6/16/13
f  5/20/17 16/23/20 14/18/15
f  7/24/21 16/23/20 5/20/17
f  16/25/22 15/26/23 14/27/24
f  13/28/25 14/27/24 15/26/23
f  17/29/26 18/30/27 14/27/15
f  11/31/16 14/27/15 18/30/27
f  18/30/28 19/30/28 11/31/8
f  9/31/6 11/31/8 19/30/28
f  19/30/29 20/32/30 9/31/10
f  13/28/11 9/31/10 20/32/30
f  20/32/31 17/29/32 13/28/33
f  14/27/34 13/28/33 17/29/32
f  18/33/35 17/34/36 19/33/37
f  20/35/38 19/33/37 17/34/36
f  21/36/39 22/37/40 8/38/5
f  7/38/4 8/38/5 22/37/40
f  22/37/41 23/39/42 7/38/21
f  16/25/20 7/38/21 23/39/42
f  23/39/43 24/40/44 16/25/45
f  15/26/46 16/25/45 24/40/44
f  24/40/47 21/36/48 15/26/18
f  8/38/19 15/26/18 21/36/48
f  22/41/49 21/42/50 23/43/51
f  24/44/52 23/43/51 21/42/50
f  25/45/53 26/46/53 12/17/14
f  5/20/17 12/17/14 26/46/53
f  27/47/54 28/48/54 6/16/13
f  10/15/12 6/16/13 28/48/54
f  26/49/55 27/50/55 5/5/2
f  6/6/3 5/5/2 27/50/55
f  28/51/56 25/52/56 10/10/7
f  12/12/9 10/10/7 25/52/56
f  29/53/57 30/54/57 25/55/53
f  26/56/53 25/55/53 30/54/57
f  31/53/58 32/54/58 27/55/54
f  28/56/54 27/55/54 32/54/58
f  30/57/59 31/58/59 26/59/55
f  27/60/55 26/59/55 31/58/59
f  32/53/60 29/61/60 28/55/56
f  25/62/56 28/55/56 29/61/60
f  33/63/61 34/64/62 29/65/57
f  30/66/57 29/65/57 34/64/62
f  35/67/63 36/68/64 31/69/58
f  32/70/58 31/69/58 36/68/64
f  34/71/65 35/72/66 30/73/59
f  31/74/59 30/73/59 35/72/66
f  36/75/67 33/76/68 32/73/60
f  29/74/60 32/73/60 33/76/68
f  1/77/69 37/78/70 2/79/69
f  38/80/70 2/79/69 37/78/70
f  38/80/70 37/78/70 33/63/61
f  34/64/62 33/63/61 37/78/70
f  4/77/71 39/81/72 3/79/71
f  40/82/73 3/79/71 39/81/72
f  40/83/73 39/84/72 35/67/63
f  36/68/64 35/67/63 39/84/72
f  3/85/74 40/86/75 1/79/74
f  37/87/76 1/79/74 40/86/75
f  37/88/76 40/89/75 34/90/65
f  35/91/66 34/90/65 40/89/75
f  2/92/77 38/93/78 4/94/77
f  39/95/79 4/94/77 38/93/78
f  39/96/79 38/97/78 36/98/67
f  33/99/68 36/98/67 38/97/78

