# File produced by Open Asset Import Library (http://www.assimp.sf.net)
# (assimp v5.2.3369795085)

mtllib 42.X.mtl

# 24 vertex positions
v  -16.4044991 -1.48024368 -0.742298186
v  -16.4044991 -1.48024368 1.42480183
v  18.1564007 -1.48024368 -0.742198229
v  18.1564007 -1.48024368 1.42480183
v  -7.40939999 -9.75084305 1.42480183
v  -14.8111 -6.3129425 1.42480183
v  -7.40939999 -9.75084305 -0.742298186
v  -14.8111 -6.3129425 -0.742298186
v  -16.4044991 -3.53314209 -0.742298186
v  -16.4044991 -3.53314209 1.42480183
v  18.1564007 -3.73204422 1.42480183
v  18.1564007 -3.73204422 -0.742198229
v  16.3507004 -6.6689415 1.42480183
v  16.3507004 -6.6689415 -0.742198229
v  8.98110008 -9.75084305 1.42480183
v  8.98110008 -9.75084305 -0.742298186
v  -3.99230003 -9.89984131 -2.58609819
v  -2.82360005 91.0269623 -2.58609819
v  5.75279999 -9.89984131 -2.58609819
v  4.37169981 91.0269623 -2.58609819
v  -2.82360005 91.0269623 -0.74459821
v  4.37169981 91.0269623 -0.74459821
v  -3.99230003 -9.89984131 -0.744698226
v  5.75279999 -9.89984131 -0.74459821

# 56 UV coordinates
vt 0.930970013 -0.245569944 0
vt 0.930970013 -0.764400005 0
vt 0.0121799996 -0.245569944 0
vt 0.0121799996 -0.764400005 0
vt -0.277310014 -0.631610036 0
vt -0.0735099986 -0.631610036 0
vt -0.277310014 -0.0763200521 0
vt -0.0735099986 -0.0763200521 0
vt -0.0289900005 -0.0763200521 0
vt -0.0289900005 -0.631610036 0
vt -0.0283400007 -0.0763200521 0
vt -0.0283400007 -0.631610036 0
vt -0.975549996 -0.631610036 0
vt -0.975549996 -0.0763200521 0
vt -0.974839985 -0.631610036 0
vt -0.974839985 -0.0763200521 0
vt -0.927030027 -0.631610036 0
vt -0.927030027 -0.0763200521 0
vt -0.726180017 -0.631610036 0
vt -0.726180017 -0.0763200521 0
vt 0.00528000016 1.18987 0
vt 0.247690007 1.73686004 0
vt 0.00528000016 1.32563996 0
vt 0.0482200012 1.50950003 0
vt 0.689390004 1.73686004 0
vt 0.936659992 1.18987 0
vt 0.887989998 1.53302002 0
vt 0.936659992 1.33879995 0
vt -0.794839978 1.65134001 0
vt -0.955969989 1.46115994 0
vt -0.99545002 1.17706001 0
vt -0.99545002 1.27994001 0
vt -0.0568699986 1.17706001 0
vt -0.0568699986 1.26765001 0
vt -0.253540009 1.65134001 0
vt -0.0917000026 1.43919003 0
vt 1.97441006 -0.0453699827 0
vt 0.998430014 -0.0452400446 0
vt 1.97441006 -0.979709983 0
vt 0.998430014 -0.977069974 0
vt -0.987119973 0.804929972 0
vt -0.987119973 0.316479981 0
vt -0.0240700003 0.804929972 0
vt -0.0240700003 0.316479981 0
vt 1.97920001 0.280070007 0
vt 1.12171996 0.217069983 0
vt 1.97920001 0.920580029 0
vt 1.12171996 0.983519971 0
vt 0 1 0
vt 0 0 0
vt 1 1 0
vt 1 0 0
vt 1.00366998 1.02793002 0
vt 2.00055003 1.02794003 0
vt 1.00366998 1.18242002 0
vt 2.00055003 1.18243003 0

# 28 vertex normals
vn 0 1 0
vn -0.215703934 -0.976458788 -0
vn -0.67618233 -0.736734331 -0
vn -0.215704024 -0.976458788 -0
vn -0.966327608 -0.25731498 -0
vn -1 0 0
vn 0.962254703 -0.272150576 0
vn 1 0 0
vn 0.650175631 -0.759783924 0
vn 0.650174677 -0.759784758 0
vn 0.196752608 -0.980453193 0
vn 0.196751758 -0.980453312 0
vn 5.79903599e-07 1.77994355e-06 -1
vn 0 0 -1
vn 4.15617978e-06 6.08856499e-06 -1
vn 6.42676969e-06 2.37931522e-06 -1
vn 1.45097065e-05 -5.04947138e-06 -1
vn 0 0 1
vn 0 -9.90981448e-07 1
vn -9.79524975e-06 -1.79230128e-07 1
vn -6.24195309e-07 -9.39253141e-07 1
vn -1.02632685e-05 -1.40444399e-07 1
vn 0 -1 0
vn 0.999906361 0.0136828953 0
vn 0.999906361 0.0136828944 0
vn -0.999932945 0.0115789045 0
vn -0.999932945 0.0115789026 0
vn -0.999932945 0.0115789035 0

# Mesh '' with 40 faces
usemtl ___K
f  1/1/1 2/2/1 3/3/1
f  4/4/1 3/3/1 2/2/1
f  5/5/2 6/6/3 7/7/4
f  8/8/3 7/7/4 6/6/3
f  9/9/5 10/10/5 1/11/6
f  2/12/6 1/11/6 10/10/5
f  9/9/5 8/8/3 10/10/5
f  6/6/3 10/10/5 8/8/3
f  11/13/7 12/14/7 4/15/8
f  3/16/8 4/15/8 12/14/7
f  11/13/7 13/17/9 12/14/7
f  14/18/10 12/14/7 13/17/9
f  15/19/11 16/20/12 13/17/9
f  14/18/10 13/17/9 16/20/12
f  15/19/11 5/5/2 16/20/12
f  7/7/4 16/20/12 5/5/2
f  1/21/13 7/22/14 9/23/14
f  8/24/14 9/23/14 7/22/14
f  16/25/15 3/26/16 14/27/17
f  12/28/14 14/27/17 3/26/16
f  3/26/16 16/25/15 1/21/13
f  7/22/14 1/21/13 16/25/15
f  15/29/18 13/30/18 4/31/18
f  11/32/18 4/31/18 13/30/18
f  2/33/18 10/34/18 5/35/18
f  6/36/18 5/35/18 10/34/18
f  2/33/18 5/35/18 4/31/18
f  15/29/18 4/31/18 5/35/18
f  17/37/14 18/38/14 19/39/14
f  20/40/14 19/39/14 18/38/14
f  18/41/1 21/42/1 20/43/1
f  22/44/1 20/43/1 21/42/1
f  21/45/19 23/46/20 22/47/21
f  24/48/22 22/47/21 23/46/20
f  23/49/23 17/50/23 24/51/23
f  19/52/23 24/51/23 17/50/23
f  19/53/24 20/54/24 24/55/25
f  22/56/24 24/55/25 20/54/24
f  23/49/26 21/50/27 17/51/28
f  18/52/28 17/51/28 21/50/27

