# File produced by Open Asset Import Library (http://www.assimp.sf.net)
# (assimp v5.2.3369795085)

mtllib 43.X.mtl

# 68 vertex positions
v  130.921387 26.1965084 -0.683300197
v  57.1548042 26.1965084 -0.683289051
v  130.921387 25.5455914 0.513581395
v  57.1548042 25.5455914 0.513592541
v  130.921387 24.2438412 0.513581395
v  57.1548042 24.2438412 0.513592541
v  130.921387 23.5929165 -0.683300197
v  57.1548042 23.5929165 -0.683289051
v  130.921387 24.2438412 -1.88018179
v  57.1548042 24.2438412 -1.8801707
v  130.921387 25.5455914 -1.88018179
v  57.1548042 25.5455914 -1.8801707
v  91.868515 25.1116734 -0.683294296
v  57.1548042 25.1116734 -0.683289051
v  91.868515 24.2438412 1.77798951
v  57.1548042 24.2438412 1.77799475
v  91.868515 20.3384991 1.77798951
v  57.1548042 20.3384991 1.77799475
v  91.868515 19.2537537 -0.683294296
v  57.1548042 19.2537537 -0.683289051
v  91.8685074 20.3384991 -3.14457822
v  57.1548042 20.3384991 -3.14457297
v  91.8685074 24.2438412 -3.14457822
v  57.1548042 24.2438412 -3.14457297
v  93.893486 22.7251778 1.42198801
v  91.868515 22.7251778 1.42198825
v  93.893486 20.4108925 1.42198801
v  91.868515 20.4108925 1.42198825
v  93.893486 20.4108925 -2.78857708
v  91.8685074 20.4108925 -2.78857684
v  93.893486 22.7251778 -2.78857708
v  91.8685074 22.7251778 -2.78857684
v  17.2341003 19.2537537 2.07991171
v  17.2341003 26.1965084 2.07991171
v  8.55567646 19.2537537 2.07991314
v  8.55567646 22.7251778 2.07991314
v  17.2341003 19.2537537 -3.44647789
v  8.55567646 19.2537537 -3.44647646
v  17.2341003 26.1965084 -3.44647789
v  8.55567646 22.7251778 -3.44647646
v  -2.29233527 9.70749283 2.07991481
v  -4.46191692 17.5180855 2.07991505
v  -2.29233623 9.70749283 -3.44647479
v  -4.4619174 17.5180855 -3.44647455
v  -7.06551552 9.70749283 1.02727425
v  -7.06551552 19.2537537 1.02727425
v  -7.065516 9.70749283 -2.39383292
v  -7.065516 19.2537537 -2.39383292
v  -39.1756248 0.161230415 1.02727914
v  -39.1756248 14.9144936 1.02727914
v  -39.1756287 0.161230415 -2.39382815
v  -39.1756287 14.9144936 -2.39382815
v  57.1548042 26.1965084 2.07990575
v  57.1548042 19.2537537 2.07990575
v  57.1548042 26.1965084 -3.44648385
v  57.1548042 19.2537537 -3.44648385
v  14.6305084 20.1215858 0.106175356
v  14.6305084 20.1215858 -1.47274065
v  14.6305084 15.9881077 0.106175356
v  14.6305084 15.9881077 -1.47274065
v  20.0754852 15.9881077 0.106174536
v  20.0754852 15.9881077 -1.47274148
v  20.9947433 20.1215858 0.106174394
v  20.9947433 20.1215858 -1.4727416
v  37.7341576 19.2537537 2.07990861
v  37.7341576 26.1965084 2.07990861
v  37.7341576 19.2537537 -3.44648099
v  37.7341576 26.1965084 -3.44648099

# 140 UV coordinates
vt 0.00946999993 0.702970028 0
vt 0.985249996 0.702970028 0
vt 0.00946999993 0.665220022 0
vt 0.985249996 0.665220022 0
vt 0.00946999993 0.589720011 0
vt 0.985249996 0.589720011 0
vt 0.00946999993 0.551970005 0
vt 0.985249996 0.551970005 0
vt 0.0198100004 0.0606099963 0
vt 0.0198100004 0.179859996 0
vt 0.119259998 0.000980019569 0
vt 0.119259998 0.239489973 0
vt 0.218710005 0.0606099963 0
vt 0.218710005 0.179859996 0
vt 0.257759988 0.392820001 0
vt 0.985409975 0.392820001 0
vt 0.257759988 0.503530025 0
vt 0.985409975 0.503530025 0
vt 0.239680007 0.504339993 0
vt 0.995480001 0.504339993 0
vt 0.239680007 0.371399999 0
vt 0.995480001 0.371399999 0
vt 0.239680007 0.255460024 0
vt 0.995480001 0.255460024 0
vt 0.234960005 0.255509973 0
vt 0.991100013 0.255509973 0
vt 0.234960005 0.310440004 0
vt 0.991100013 0.310440004 0
vt 0.234960005 0.487760007 0
vt 0.991100013 0.487760007 0
vt 0.257759988 0.282119989 0
vt 0.985409975 0.282119989 0
vt 0.0829500034 0.795979977 0
vt 0.0829500034 0.95709002 0
vt 0.236760005 0.754379988 0
vt 0.236760005 0.990369976 0
vt 0.390579998 0.795979977 0
vt 0.390579998 0.95709002 0
vt 0.00449999981 0.99387002 0
vt 0.467379987 0.99387002 0
vt 0.00449999981 0.732519984 0
vt 0.467379987 0.732519984 0
vt 0.00798999984 0.745999992 0
vt 0.00798999984 0.996860027 0
vt 0.465530008 0.745999992 0
vt 0.465530008 0.996860027 0
vt 0.460530013 0.991429985 0
vt 0.460530013 0.745360017 0
vt 0.00961999968 0.991429985 0
vt 0.00961999968 0.745360017 0
vt 0.5 0.84758997 0
vt 0.5 0.987900019 0
vt 0.578230023 0.833230019 0
vt 0.572070003 0.978259981 0
vt 0.494139999 0.878809988 0
vt 0.494139999 0.987280011 0
vt 0.664479971 0.878809988 0
vt 0.664479971 0.987280011 0
vt 0.497949988 0.7676 0
vt 0.572070003 0.984409988 0
vt 0.578230023 0.7676 0
vt 0.705919981 0.771340013 0
vt 0.701810002 0.948099971 0
vt 0.920480013 0.878809988 0
vt 0.920480013 0.987280011 0
vt 0.572070003 0.955690026 0
vt 0.582329988 0.845539987 0
vt 0.701810002 0.923489988 0
vt 0.707970023 0.779540002 0
vt 0.920000017 0.987280011 0
vt 0.920000017 0.878809988 0
vt 0.633449972 0.771340013 0
vt 0.641219974 0.992060006 0
vt 0.748520017 0.786809981 0
vt 0.742370009 0.995419979 0
vt 0.877409995 0.878809988 0
vt 0.877409995 0.987280011 0
vt 0.971099973 0.899469972 0
vt 0.971099973 0.966619968 0
vt 0.577199996 0.985549986 0
vt 0.577639997 0.765179992 0
vt 0.707970023 0.986570001 0
vt 0.703869998 0.761080027 0
vt 0.701810002 0.98913002 0
vt 0.984910011 0.750460029 0
vt 0.984910011 0.975539982 0
vt 0.494230002 0.876320004 0
vt 0.494230002 0.980509996 0
vt 0.990239978 0.876320004 0
vt 0.990239978 0.980509996 0
vt 0.70818001 0.987079978 0
vt 0.700089991 0.763740003 0
vt 0.974659979 0.98785001 0
vt 0.968500018 0.746360004 0
vt 0.498860002 0.985140026 0
vt 0.498860002 0.848540008 0
vt 0.999499977 0.985140026 0
vt 0.999499977 0.848540008 0
vt 0.45945999 0.990260005 0
vt 0.45945999 0.783190012 0
vt 0.21221 0.990260005 0
vt 0.21221 0.783190012 0
vt 0.984480023 0.985130012 0
vt 0.798020005 0.985130012 0
vt 0.984480023 0.749490023 0
vt 0.798020005 0.749490023 0
vt 0.597419977 0.171589971 0
vt 0.597419977 0.000880002975 0
vt 0.314319998 0.000880002975 0
vt 0.26749 0.171589971 0
vt 0.531270027 0.247900009 0
vt 0.00626999978 0.247900009 0
vt 0.531270027 0.506099999 0
vt 0.00626999978 0.506099999 0
vt 0.477809995 1.00153995 0
vt 0.477809995 0.82525003 0
vt 0.0051500001 1.00153995 0
vt 0.0051500001 0.82525003 0
vt 0.51523 0.282289982 0
vt 0.0122999996 0.282289982 0
vt 0.51523 0.488409996 0
vt 0.0122999996 0.488409996 0
vt 0.475699991 0.975099981 0
vt 0.475699991 0.768980026 0
vt 0.00824000034 0.975099981 0
vt 0.00824000034 0.768980026 0
vt 0.531270027 0.51485002 0
vt 0.00626999978 0.51485002 0
vt 0.992749989 0.0143200159 0
vt 0.992749989 0.233560026 0
vt 0.605130017 0.0143200159 0
vt 0.605130017 0.233560026 0
vt 0.51523 0.501399994 0
vt 0.0122999996 0.501399994 0
vt 0.51523 0.258430004 0
vt 0.0122999996 0.258430004 0
vt 0.473179996 0.730809987 0
vt 0.473179996 0.936930001 0
vt 0.00346000004 0.730809987 0
vt 0.00346000004 0.936930001 0

# 60 vertex normals
vn 0.613731623 0.78951472 -1.82592771e-07
vn 1.52969898e-14 1 1.01307378e-07
vn 0.608163476 0.405636549 0.682346106
vn 1.2979325e-07 0.51099813 0.859581828
vn 0.608163774 -0.405634731 0.68234688
vn 1.29793392e-07 -0.510996401 0.859582841
vn 0.613730967 -0.789515257 -3.44436613e-09
vn -1.51002037e-14 -1 -1.00004129e-07
vn 0.608163476 -0.40563494 -0.682347059
vn -1.2979342e-07 -0.510996163 -0.85958302
vn 0.608163178 0.4056364 -0.682346404
vn -1.29793222e-07 0.510998368 -0.859581649
vn 0.639359176 0.768908203 -6.94424216e-08
vn -6.69131126e-15 1 -4.43145503e-08
vn 0.597301662 0.463324159 0.654646039
vn 1.23250317e-07 0.577698886 0.816249967
vn 0.602377117 -0.435997128 0.668616712
vn 1.26480643e-07 -0.546217382 0.837643445
vn 0.626601338 -0.779339969 -1.1431468e-07
vn 3.93709511e-15 -1 2.60742041e-08
vn 0.602376878 -0.435997128 -0.668616891
vn -1.26480643e-07 -0.546217382 -0.837643445
vn 0.597301364 0.463324189 -0.654646277
vn -1.23250331e-07 0.577698767 -0.816250026
vn 0.577350378 0.577350318 0.57735014
vn 1.06770152e-07 0.707106829 0.707106769
vn 0.577350378 -0.577350318 0.57735014
vn 1.06770159e-07 -0.707106769 0.707106769
vn 0.57735014 -0.577350318 -0.577350378
vn -1.06770152e-07 -0.707106829 -0.707106769
vn 0.57735014 0.577350318 -0.577350378
vn -1.06770159e-07 0.707106769 -0.707106769
vn -0.140908614 0.731687605 0.666916788
vn 0.213772491 -0.566512346 0.795842409
vn -0.262612998 0.656532943 0.707105994
vn 0.213772252 -0.566512346 -0.795842469
vn -0.140908808 0.731687605 -0.666916788
vn -0.262613237 0.656532943 -0.707105935
vn 0.208966807 -0.720861137 0.660826802
vn -0.147276998 0.525728285 0.837806225
vn 0.19786343 -0.717273772 -0.668108046
vn -0.209271401 0.491874278 -0.845142126
vn 0.0112561835 -0.705762863 0.708358705
vn 0.116032906 0.791033506 0.600668311
vn 0.0231159348 -0.696248412 -0.717428625
vn 0.126162827 0.782182217 -0.610142529
vn -0.493891418 -0.662088871 0.563657284
vn -0.610820174 0.533828139 0.584744513
vn -0.493891686 -0.662088811 -0.563657165
vn -0.610820353 0.533828139 -0.584744453
vn -0.707106709 0 0.707106888
vn -0.707106888 0 -0.707106709
vn -0.57735014 -0.577350318 0.577350378
vn -0.577350378 -0.577350318 -0.57735014
vn 0.505282462 -0.629998207 0.589738846
vn 0.505282342 -0.629998267 -0.589738905
vn 0.739852369 -0.164538175 0.652338564
vn 0.73985219 -0.164538145 -0.652338803
vn 1.06770159e-07 0.707106769 0.707106769
vn -1.06770159e-07 -0.707106769 -0.707106769

# Mesh '' with 104 faces
usemtl M870
f  1/1/1 2/2/2 3/3/3
f  4/4/4 3/3/3 2/2/2
f  3/3/3 4/4/4 5/5/5
f  6/6/6 5/5/5 4/4/4
f  5/5/5 6/6/6 7/7/7
f  8/8/8 7/7/7 6/6/6
f  7/7/7 8/8/8 9/5/9
f  10/6/10 9/5/9 8/8/8
f  9/5/9 10/6/10 11/3/11
f  12/4/12 11/3/11 10/6/10
f  11/3/11 12/4/12 1/1/1
f  2/2/2 1/1/1 12/4/12
f  9/9/9 11/10/11 7/11/7
f  1/12/1 7/11/7 11/10/11
f  7/11/7 1/12/1 5/13/5
f  3/14/3 5/13/5 1/12/1
f  13/15/13 14/16/14 15/17/15
f  16/18/16 15/17/15 14/16/14
f  15/19/15 16/20/16 17/21/17
f  18/22/18 17/21/17 16/20/16
f  17/21/17 18/22/18 19/23/19
f  20/24/20 19/23/19 18/22/18
f  19/25/19 20/26/20 21/27/21
f  22/28/22 21/27/21 20/26/20
f  21/27/21 22/28/22 23/29/23
f  24/30/24 23/29/23 22/28/22
f  23/31/23 24/32/24 13/15/13
f  14/16/14 13/15/13 24/32/24
f  21/33/21 23/34/23 19/35/19
f  13/36/13 19/35/19 23/34/23
f  19/35/19 13/36/13 17/37/17
f  15/38/15 17/37/17 13/36/13
f  25/39/25 26/40/26 27/41/27
f  28/42/28 27/41/27 26/40/26
f  27/43/27 28/44/28 29/45/29
f  30/46/30 29/45/29 28/44/28
f  29/41/29 30/42/30 31/39/31
f  32/40/32 31/39/31 30/42/30
f  31/45/31 32/46/32 25/43/25
f  26/44/26 25/43/25 32/46/32
f  25/47/25 27/48/27 31/49/31
f  29/50/29 31/49/31 27/48/27
f  33/51/28 34/52/33 35/53/34
f  36/54/35 35/53/34 34/52/33
f  37/55/30 33/56/28 38/57/36
f  35/58/34 38/57/36 33/56/28
f  39/52/37 37/59/30 40/60/38
f  38/61/36 40/60/38 37/59/30
f  34/56/33 39/55/37 36/58/35
f  40/57/38 36/58/35 39/55/37
f  35/53/34 36/54/35 41/62/39
f  42/63/40 41/62/39 36/54/35
f  38/57/36 35/58/34 43/64/41
f  41/65/39 43/64/41 35/58/34
f  40/66/38 38/67/36 44/68/42
f  43/69/41 44/68/42 38/67/36
f  36/58/35 40/57/38 42/70/40
f  44/71/42 42/70/40 40/57/38
f  41/72/39 42/73/40 45/74/43
f  46/75/44 45/74/43 42/73/40
f  43/76/41 41/77/39 47/78/45
f  45/79/43 47/78/45 41/77/39
f  44/80/42 43/81/41 48/82/46
f  47/83/45 48/82/46 43/81/41
f  42/70/40 44/71/42 46/79/44
f  48/78/46 46/79/44 44/71/42
f  45/62/43 46/84/44 49/85/47
f  50/86/48 49/85/47 46/84/44
f  47/87/45 45/88/43 51/89/49
f  49/90/47 51/89/49 45/88/43
f  48/91/46 47/92/45 52/93/50
f  51/94/49 52/93/50 47/92/45
f  46/95/44 48/96/46 50/97/48
f  52/98/50 50/97/48 48/96/46
f  53/99/25 54/100/27 55/101/31
f  56/102/29 55/101/31 54/100/27
f  50/103/48 52/104/50 49/105/47
f  51/106/49 49/105/47 52/104/50
f  57/107/51 58/107/52 59/108/53
f  60/108/54 59/108/53 58/107/52
f  59/108/53 60/108/54 61/109/55
f  62/109/56 61/109/55 60/108/54
f  61/109/55 62/109/56 63/110/57
f  64/110/58 63/110/57 62/109/56
f  64/110/58 62/109/56 58/107/52
f  60/108/54 58/107/52 62/109/56
f  57/107/51 59/108/53 63/110/57
f  61/109/55 63/110/57 59/108/53
f  33/111/28 65/112/28 34/113/33
f  66/114/59 34/113/33 65/112/28
f  66/115/59 65/116/28 53/117/25
f  54/118/27 53/117/25 65/116/28
f  37/119/30 67/120/60 33/121/28
f  65/122/28 33/121/28 67/120/60
f  65/123/28 67/124/60 54/125/27
f  56/126/29 54/125/27 67/124/60
f  39/127/37 68/128/32 37/111/30
f  67/112/60 37/111/30 68/128/32
f  67/129/60 68/130/32 56/131/29
f  55/132/31 56/131/29 68/130/32
f  34/133/33 66/134/59 39/135/37
f  68/136/32 39/135/37 66/134/59
f  68/137/32 66/138/59 55/139/31
f  53/140/25 55/139/31 66/138/59

