# File produced by Open Asset Import Library (http://www.assimp.sf.net)
# (assimp v5.2.3369795085)

mtllib 45.X.mtl

# 95 vertex positions
v  -2.89068151 102.252518 0.121281289
v  -0.980469942 102.275986 -2.02479911
v  -3.53638434 82.9402771 -0.00154042791
v  -0.972559154 82.9710312 -2.88192821
v  -1.43998015 102.26136 2.60136151
v  -1.58931458 82.9521484 3.32696462
v  1.36686504 102.289734 1.98798919
v  2.17780089 82.9902344 2.50382614
v  1.65087223 102.298431 -0.871098876
v  2.5589807 83.0018997 -1.33353579
v  -6.76575756 22.9930019 -12.4469175
v  4.64434767 23.0974426 -9.69720173
v  -6.74304152 20.6402454 -12.4518175
v  4.66706419 20.7446861 -9.70210075
v  -15.4745455 22.9045849 -10.3667068
v  -15.451829 20.5518284 -10.3716059
v  -18.1555729 22.865963 -4.25110722
v  -18.1328564 20.5132084 -4.25600672
v  -13.7847328 22.8918896 3.56382537
v  -13.7620163 20.539135 3.55892587
v  -4.03154802 22.9724617 10.0930872
v  -4.0088315 20.6197071 10.0881872
v  7.37855768 23.0769024 12.842803
v  7.40127373 20.7241478 12.837904
v  16.0873451 23.1653194 10.7625923
v  16.1100616 20.8125648 10.7576923
v  18.7683735 23.2039413 4.64699268
v  18.7910881 20.8511848 4.64209318
v  14.3975325 23.1780128 -3.1679399
v  14.420249 20.8252583 -3.1728394
v  0.306399882 23.0349522 0.197942838
v  0.329116195 20.6821976 0.193043336
v  -0.803233624 22.0489426 -4.92557573
v  2.42069125 22.0794029 -4.60523462
v  -0.604255259 1.44050872 -4.96849203
v  2.61966968 1.4709692 -4.64815092
v  -3.59965944 22.0185356 -3.28971553
v  -3.40068102 1.41010201 -3.33263183
v  -4.90050459 21.9997978 -0.322401971
v  -4.70152617 1.39136279 -0.365318149
v  -4.20882702 21.9998837 2.8428061
v  -4.00984859 1.39144969 2.79989004
v  -1.788854 22.0187626 4.99701452
v  -1.58987558 1.41032898 4.95409822
v  1.43507099 22.0492229 5.31735516
v  1.6340493 1.44078946 5.27443933
v  4.23149681 22.0796299 3.68149519
v  4.43047523 1.47119606 3.63857913
v  5.53234196 22.0983696 0.714181602
v  5.73132038 1.48993528 0.671265423
v  4.84066391 22.0982819 -2.45102644
v  5.03964233 1.48984849 -2.49394274
v  -2.03257394 2.65040016 -11.4490557
v  5.27234459 2.719419 -10.7232075
v  -2.0104053 0.354374051 -11.4538374
v  5.29451323 0.423392892 -10.7279892
v  -8.3689518 2.5815022 -7.74233103
v  -8.34678364 0.285476029 -7.74711227
v  -11.3164301 2.53904247 -1.01894033
v  -11.294261 0.243016407 -1.02372169
v  -9.7492075 2.53923893 6.15309286
v  -9.72703934 0.243212789 6.14831161
v  -4.2659173 2.58201647 11.0341949
v  -4.24374914 0.285990298 11.0294132
v  3.03900123 2.65103531 11.7600431
v  3.06116962 0.355009139 11.7552614
v  9.37537956 2.71993327 8.05331802
v  9.39754772 0.423907161 8.0485363
v  12.3228569 2.762393 1.32992744
v  12.345026 0.466366798 1.32514608
v  10.7556353 2.76219654 -5.84210587
v  10.7778034 0.46617043 -5.84688711
v  0.503213584 2.65071774 0.155493557
v  0.525382161 0.354691595 0.150712192
v  -2.60122037 85.2914352 -10.2277918
v  4.04324675 85.3542099 -9.56755447
v  -1.98731017 21.7079983 -10.3602009
v  4.65715694 21.7707767 -9.69996452
v  -8.36468887 85.2287598 -6.85621452
v  -7.75077868 21.6453285 -6.9886241
v  -11.0457163 85.1901398 -0.74061507
v  -10.4318056 21.6067066 -0.873024821
v  -9.62019539 85.1903229 5.78295183
v  -9.00628471 21.6068859 5.65054178
v  -4.63264894 85.2292328 10.2227345
v  -4.01873875 21.6457958 10.0903244
v  2.01181817 85.2920074 10.8829708
v  2.62572837 21.7085743 10.7505617
v  7.77528667 85.3546753 7.51139402
v  8.38919735 21.771244 7.37898445
v  10.4563141 85.3932953 1.39579487
v  11.0702238 21.809864 1.26338506
v  9.03079319 85.3931198 -5.12777185
v  9.64470291 21.8096867 -5.26018143
v  -0.294701189 85.2917175 0.327589869

# 95 UV coordinates
vt 0.200000003 1 0
vt 0.100000001 1 0
vt 0.200000003 0.892889977 0
vt 0.100000001 0.892889977 0
vt 0.400000006 1 0
vt 0.300000012 1 0
vt 0.400000006 0.892889977 0
vt 0.300000012 0.892889977 0
vt 0.600000024 1 0
vt 0.5 1 0
vt 0.600000024 0.892889977 0
vt 0.5 0.892889977 0
vt 0.800000012 1 0
vt 0.699999988 1 0
vt 0.800000012 0.892889977 0
vt 0.699999988 0.892889977 0
vt 1 1 0
vt 0.899999976 1 0
vt 1 0.892889977 0
vt 0.899999976 0.892889977 0
vt 0.150000006 1 0
vt 0.75 1 0
vt 0.949999988 1 0
vt 0 1 0
vt 0.100000001 0.904219985 0
vt 0 0.904219985 0
vt 0.200000003 0.904219985 0
vt 0.300000012 0.904219985 0
vt 0.400000006 0.904219985 0
vt 0.5 0.904219985 0
vt 0.600000024 0.904219985 0
vt 0.699999988 0.904219985 0
vt 0.800000012 0.904219985 0
vt 0.899999976 0.904219985 0
vt 1 0.904219985 0
vt 0.0500000007 1 0
vt 0.25 1 0
vt 0.349999994 1 0
vt 0.449999988 1 0
vt 0.550000012 1 0
vt 0.649999976 1 0
vt 0.850000024 1 0
vt 0.0500000007 0.904219985 0
vt 0.150000006 0.904219985 0
vt 0.25 0.904219985 0
vt 0.349999994 0.904219985 0
vt 0.449999988 0.904219985 0
vt 0.550000012 0.904219985 0
vt 0.649999976 0.904219985 0
vt 0.75 0.904219985 0
vt 0.850000024 0.904219985 0
vt 0.949999988 0.904219985 0
vt 0.100000001 0.177429974 0
vt 0 0.177429974 0
vt 0.100000001 0 0
vt 0 0 0
vt 0.200000003 0.177429974 0
vt 0.200000003 0 0
vt 0.300000012 0.177429974 0
vt 0.300000012 0 0
vt 0.400000006 0.177429974 0
vt 0.400000006 0 0
vt 0.5 0.177429974 0
vt 0.5 0 0
vt 0.600000024 0.177429974 0
vt 0.600000024 0 0
vt 0.699999988 0.177429974 0
vt 0.699999988 0 0
vt 0.800000012 0.177429974 0
vt 0.800000012 0 0
vt 0.899999976 0.177429974 0
vt 0.899999976 0 0
vt 1 0.177429974 0
vt 1 0 0
vt 0.100000001 0.904240012 0
vt 0 0.904240012 0
vt 0.200000003 0.904240012 0
vt 0.300000012 0.904240012 0
vt 0.400000006 0.904240012 0
vt 0.5 0.904240012 0
vt 0.600000024 0.904240012 0
vt 0.699999988 0.904240012 0
vt 0.800000012 0.904240012 0
vt 0.899999976 0.904240012 0
vt 1 0.904240012 0
vt 0.0500000007 0.904240012 0
vt 0.150000006 0.904240012 0
vt 0.25 0.904240012 0
vt 0.349999994 0.904240012 0
vt 0.449999988 0.904240012 0
vt 0.550000012 0.904240012 0
vt 0.649999976 0.904240012 0
vt 0.75 0.904240012 0
vt 0.850000024 0.904240012 0
vt 0.949999988 0.904240012 0

# 85 vertex normals
vn -0.74680239 0.0291947592 -0.664404869
vn -0.746801734 0.029194599 -0.664405584
vn -0.74679774 0.029193582 -0.664410174
vn -0.746797204 0.0291934591 -0.66441077
vn -0.862930059 0.0256383866 0.504672527
vn -0.862928808 0.0256388281 0.504674673
vn -0.86292088 0.0256415978 0.504688084
vn -0.862919927 0.0256419368 0.504689753
vn 0.21301958 0.0350484885 0.976419091
vn 0.213017225 0.035048034 0.976419628
vn 0.213001937 0.0350451544 0.976423085
vn 0.213000059 0.0350448079 0.976423502
vn 0.994107306 0.0444136709 0.0988844484
vn 0.994107306 0.0444136932 0.0988843143
vn 0.994107366 0.0444138423 0.0988834575
vn 0.994107366 0.0444138646 0.0988833457
vn 0.400919169 0.0407988541 -0.915204525
vn 0.400918424 0.0407989956 -0.915204823
vn 0.400913537 0.0407998711 -0.915206909
vn 0.40091297 0.0407999791 -0.915207148
vn -0.0098298816 0.999949276 0.00218482013
vn -0.00966258161 0.999951005 0.00216148677
vn -0.00961205922 0.999951363 0.00220646244
vn -0.00955367275 0.999952018 0.00217230734
vn -0.00965472125 0.999951243 0.00208235509
vn 0.00098635524 0.00209197495 -0.999997318
vn 0.401497394 0.00578373484 -0.915841937
vn 0.000986331375 0.00209197449 -0.999997318
vn -0.641162872 -0.00459249085 -0.767391086
vn -0.641162932 -0.00459249085 -0.767391026
vn -0.998782337 -0.00974414498 0.0483622588
vn -0.734755695 -0.00850669108 0.678278506
vn -0.401497394 -0.00578373484 0.915841937
vn -0.00098635524 -0.00209197495 0.999997318
vn -0.000986331375 -0.00209197449 0.999997318
vn 0.641162872 0.00459249085 0.767391086
vn 0.641162932 0.00459249085 0.767391026
vn 0.998782337 0.00974414498 -0.0483622588
vn 0.734755695 0.00850669108 -0.678278506
vn 0.00965472125 -0.999951243 -0.00208235509
vn -0.213476524 -2.67038649e-05 -0.976948202
vn -0.213476598 -2.67046853e-05 -0.976948202
vn -0.746914566 -0.00582698733 -0.664894462
vn -0.995056212 -0.00940157101 -0.0988671109
vn -0.995056212 -0.00940157101 -0.0988670811
vn -0.863115132 -0.00938501488 0.504919946
vn -0.863115072 -0.00938501395 0.504920065
vn 0.213476524 2.67038649e-05 0.976948202
vn 0.213476598 2.67046853e-05 0.976948202
vn 0.746914566 0.00582698733 0.664894462
vn 0.995056212 0.00940157101 0.0988671109
vn 0.995056212 0.00940157101 0.0988670811
vn 0.863115132 0.00938501488 -0.504919946
vn 0.863115072 0.00938501395 -0.504920065
vn -0.21347937 -2.6732474e-05 -0.976947546
vn -0.213479415 -2.67329524e-05 -0.976947546
vn 0.401497394 0.00578373484 -0.915841877
vn -0.746916652 -0.00582701294 -0.664892137
vn -0.746916711 -0.00582701294 -0.664892077
vn -0.995055914 -0.00940156169 -0.09887027
vn -0.995055914 -0.00940156169 -0.0988702402
vn -0.863116622 -0.00938502327 0.504917443
vn -0.401497364 -0.00578373484 0.915841937
vn -0.401497394 -0.00578373484 0.915841877
vn 0.21347937 2.6732474e-05 0.976947546
vn 0.213479415 2.67329524e-05 0.976947546
vn 0.746916652 0.00582701294 0.664892137
vn 0.746916711 0.00582701294 0.664892077
vn 0.995055914 0.00940156169 0.09887027
vn 0.995055914 0.00940156169 0.0988702402
vn 0.863116622 0.00938502327 -0.504917443
vn -0.213478267 -2.67215219e-05 -0.976947784
vn -0.213478312 -2.67220003e-05 -0.976947784
vn -0.746916592 -0.00582701247 -0.664892197
vn -0.746916652 -0.00582701247 -0.664892137
vn -0.995055914 -0.00940156169 -0.0988702178
vn -0.995055914 -0.00940156169 -0.0988701582
vn -0.863116026 -0.00938502047 0.504918456
vn 0.213478267 2.67215219e-05 0.976947784
vn 0.213478312 2.67220003e-05 0.976947784
vn 0.746916592 0.00582701247 0.664892197
vn 0.746916652 0.00582701247 0.664892137
vn 0.995055914 0.00940156169 0.0988702178
vn 0.995055914 0.00940156169 0.0988701582
vn 0.863116026 0.00938502047 -0.504918456

# Mesh '' with 143 faces
usemtl mat1
f  1/1/1 2/2/2 3/3/3
f  4/4/4 3/3/3 2/2/2
f  5/5/5 1/6/6 6/7/7
f  3/8/8 6/7/7 1/6/6
f  7/9/9 5/10/10 8/11/11
f  6/12/12 8/11/11 5/10/10
f  9/13/13 7/14/14 10/15/15
f  8/16/16 10/15/15 7/14/14
f  2/17/17 9/18/18 4/19/19
f  10/20/20 4/19/19 9/18/18
f  1/1/21 5/21/22 2/2/23
f  9/13/24 5/22/22 7/14/25
f  2/17/23 5/23/22 9/18/24
f  11/2/26 12/24/27 13/25/28
f  14/26/27 13/25/28 12/24/27
f  15/1/29 11/2/26 16/27/30
f  13/25/28 16/27/30 11/2/26
f  17/6/31 15/1/29 18/28/31
f  16/27/30 18/28/31 15/1/29
f  19/5/32 17/6/31 20/29/32
f  18/28/31 20/29/32 17/6/31
f  21/10/33 19/5/32 22/30/33
f  20/29/32 22/30/33 19/5/32
f  23/9/34 21/10/33 24/31/35
f  22/30/33 24/31/35 21/10/33
f  25/14/36 23/9/34 26/32/37
f  24/31/35 26/32/37 23/9/34
f  27/13/38 25/14/36 28/33/38
f  26/32/37 28/33/38 25/14/36
f  29/18/39 27/13/38 30/34/39
f  28/33/38 30/34/39 27/13/38
f  12/17/27 29/18/39 14/35/27
f  30/34/39 14/35/27 29/18/39
f  11/2/25 31/36/25 12/24/25
f  15/1/25 31/21/25 11/2/25
f  17/6/25 31/37/25 15/1/25
f  19/5/25 31/38/25 17/6/25
f  21/10/25 31/39/25 19/5/25
f  23/9/25 31/40/25 21/10/25
f  25/14/25 31/41/25 23/9/25
f  27/13/25 31/22/25 25/14/25
f  29/18/25 31/42/25 27/13/25
f  12/17/25 31/23/25 29/18/25
f  14/26/40 32/43/40 13/25/40
f  13/25/40 32/44/40 16/27/40
f  16/27/40 32/45/40 18/28/40
f  18/28/40 32/46/40 20/29/40
f  20/29/40 32/47/40 22/30/40
f  22/30/40 32/48/40 24/31/40
f  24/31/40 32/49/40 26/32/40
f  26/32/40 32/50/40 28/33/40
f  28/33/40 32/51/40 30/34/40
f  30/34/40 32/52/40 14/35/40
f  33/53/41 34/54/27 35/55/42
f  36/56/27 35/55/42 34/54/27
f  37/57/43 33/53/41 38/58/43
f  35/55/42 38/58/43 33/53/41
f  39/59/44 37/57/43 40/60/45
f  38/58/43 40/60/45 37/57/43
f  41/61/46 39/59/44 42/62/47
f  40/60/45 42/62/47 39/59/44
f  43/63/33 41/61/46 44/64/33
f  42/62/47 44/64/33 41/61/46
f  45/65/48 43/63/33 46/66/49
f  44/64/33 46/66/49 43/63/33
f  47/67/50 45/65/48 48/68/50
f  46/66/49 48/68/50 45/65/48
f  49/69/51 47/67/50 50/70/52
f  48/68/50 50/70/52 47/67/50
f  51/71/53 49/69/51 52/72/54
f  50/70/52 52/72/54 49/69/51
f  34/73/27 51/71/53 36/74/27
f  52/72/54 36/74/27 51/71/53
f  53/2/55 54/24/27 55/75/56
f  56/76/57 55/75/56 54/24/27
f  57/1/58 53/2/55 58/77/59
f  55/75/56 58/77/59 53/2/55
f  59/6/60 57/1/58 60/78/61
f  58/77/59 60/78/61 57/1/58
f  61/5/62 59/6/60 62/79/62
f  60/78/61 62/79/62 59/6/60
f  63/10/63 61/5/62 64/80/64
f  62/79/62 64/80/64 61/5/62
f  65/9/65 63/10/63 66/81/66
f  64/80/64 66/81/66 63/10/63
f  67/14/67 65/9/65 68/82/68
f  66/81/66 68/82/68 65/9/65
f  69/13/69 67/14/67 70/83/70
f  68/82/68 70/83/70 67/14/67
f  71/18/71 69/13/69 72/84/71
f  70/83/70 72/84/71 69/13/69
f  54/17/27 71/18/71 56/85/57
f  72/84/71 56/85/57 71/18/71
f  53/2/25 73/36/25 54/24/25
f  57/1/25 73/21/25 53/2/25
f  59/6/25 73/37/25 57/1/25
f  61/5/25 73/38/25 59/6/25
f  63/10/25 73/39/25 61/5/25
f  65/9/25 73/40/25 63/10/25
f  67/14/25 73/41/25 65/9/25
f  69/13/25 73/22/25 67/14/25
f  71/18/25 73/42/25 69/13/25
f  54/17/25 73/23/25 71/18/25
f  56/76/40 74/86/40 55/75/40
f  55/75/40 74/87/40 58/77/40
f  58/77/40 74/88/40 60/78/40
f  60/78/40 74/89/40 62/79/40
f  62/79/40 74/90/40 64/80/40
f  64/80/40 74/91/40 66/81/40
f  66/81/40 74/92/40 68/82/40
f  68/82/40 74/93/40 70/83/40
f  70/83/40 74/94/40 72/84/40
f  72/84/40 74/95/40 56/85/40
f  75/2/72 76/24/27 77/55/73
f  78/56/27 77/55/73 76/24/27
f  79/1/74 75/2/72 80/58/75
f  77/55/73 80/58/75 75/2/72
f  81/6/76 79/1/74 82/60/77
f  80/58/75 82/60/77 79/1/74
f  83/5/78 81/6/76 84/62/78
f  82/60/77 84/62/78 81/6/76
f  85/10/64 83/5/78 86/64/33
f  84/62/78 86/64/33 83/5/78
f  87/9/79 85/10/64 88/66/80
f  86/64/33 88/66/80 85/10/64
f  89/14/81 87/9/79 90/68/82
f  88/66/80 90/68/82 87/9/79
f  91/13/83 89/14/81 92/70/84
f  90/68/82 92/70/84 89/14/81
f  93/18/85 91/13/83 94/72/85
f  92/70/84 94/72/85 91/13/83
f  76/17/27 93/18/85 78/74/27
f  94/72/85 78/74/27 93/18/85
f  75/2/25 95/36/25 76/24/25
f  79/1/25 95/21/25 75/2/25
f  81/6/25 95/37/25 79/1/25
f  83/5/25 95/38/25 81/6/25
f  85/10/25 95/39/25 83/5/25
f  87/9/25 95/40/25 85/10/25
f  89/14/25 95/41/25 87/9/25
f  91/13/25 95/22/25 89/14/25
f  93/18/25 95/42/25 91/13/25
f  76/17/25 95/23/25 93/18/25

