# File produced by Open Asset Import Library (http://www.assimp.sf.net)
# (assimp v5.2.3369795085)

mtllib 47.X.mtl

# 95 vertex positions
v  -4.3580904 152.393356 0.0546686947
v  -1.49277282 152.428558 -3.1644516
v  -5.32664442 123.424995 -0.129563838
v  -1.48090649 123.471123 -4.45014524
v  -2.18203831 152.406616 3.77478862
v  -2.40603995 123.442802 4.86319351
v  2.02822924 152.449188 2.85473013
v  3.2446332 123.499931 3.62848544
v  2.45424032 152.462234 -1.43390155
v  3.81640315 123.517433 -2.1275568
v  -10.1707039 33.5040665 -18.7976284
v  6.94445419 33.6607285 -14.6730547
v  -10.1366291 29.9749336 -18.8049774
v  6.97852898 30.1315937 -14.6804037
v  -23.2338848 33.3714409 -15.6773119
v  -23.19981 29.842308 -15.6846609
v  -27.2554264 33.3135071 -6.50391293
v  -27.2213516 29.7843761 -6.51126242
v  -20.6991673 33.3523979 5.21848488
v  -20.6650925 29.8232651 5.21113539
v  -6.06939077 33.473259 15.0123768
v  -6.03531647 29.9441242 15.0050268
v  11.0457668 33.6299171 19.1369495
v  11.0798416 30.1007843 19.1296005
v  24.1089497 33.7625427 16.016634
v  24.1430225 30.2334099 16.009285
v  28.1304913 33.8204765 6.84323502
v  28.1645641 30.2913418 6.835886
v  21.5742302 33.7815857 -4.87916279
v  21.608305 30.2524509 -4.8865118
v  0.437531829 33.5669937 0.169661045
v  0.471606284 30.037859 0.162311777
v  -1.2269181 32.0879784 -7.51561594
v  3.60896921 32.1336708 -7.03510475
v  -0.928450465 1.1753211 -7.57999039
v  3.90743685 1.22101176 -7.0994792
v  -5.42155695 32.0423698 -5.06182623
v  -5.12308931 1.12971103 -5.1262002
v  -7.37282515 32.0142593 -0.610856056
v  -7.07435751 1.1016022 -0.675230265
v  -6.33530855 32.014389 4.13695574
v  -6.03684092 1.10173249 4.07258129
v  -2.70534921 32.0427094 7.36826801
v  -2.40688181 1.13005137 7.30389357
v  2.13053799 32.088398 7.8487792
v  2.42900562 1.17574215 7.78440475
v  6.32517672 32.1340103 5.39498901
v  6.62364435 1.2213521 5.33061504
v  8.27644539 32.162117 0.944019079
v  8.57491207 1.24946094 0.879644811
v  7.23892832 32.1619873 -3.80379272
v  7.53739595 1.24933064 -3.86816692
v  -3.0709281 2.9901588 -17.3008347
v  7.88644981 3.09368706 -16.2120628
v  -3.03767514 -0.453881115 -17.3080082
v  7.91970253 -0.350352883 -16.2192364
v  -12.5754957 2.88681173 -11.7407484
v  -12.5422421 -0.557228208 -11.747921
v  -16.9967117 2.82312202 -1.65566337
v  -16.963459 -0.620917678 -1.66283548
v  -14.6458797 2.82341671 9.10238552
v  -14.612627 -0.620623171 9.09521389
v  -6.42094517 2.88758278 16.4240379
v  -6.38769197 -0.556456983 16.4168663
v  4.53643274 2.99111104 17.5128098
v  4.56968546 -0.452928722 17.5056381
v  14.0410004 3.0944581 11.9527225
v  14.0742531 -0.349581659 11.9455509
v  18.4622173 3.15814757 1.86763763
v  18.49547 -0.285892159 1.86046553
v  16.1113853 3.15785313 -8.89041138
v  16.1446381 -0.286186635 -8.89758396
v  0.732752383 2.99063492 0.105987139
v  0.766005278 -0.453404933 0.0988150835
v  -3.92389774 126.951729 -15.4689388
v  6.04280281 127.045898 -14.4785833
v  -3.00303245 31.576561 -15.6675539
v  6.96366835 31.6707287 -14.6771984
v  -12.5691013 126.857727 -10.4115744
v  -11.6482353 31.4825573 -10.6101885
v  -16.5906429 126.799797 -1.23817563
v  -15.6697769 31.4246254 -1.43679011
v  -14.4523611 126.800064 8.5471735
v  -13.531496 31.4248924 8.34855938
v  -6.97104216 126.858429 15.2068472
v  -6.0501771 31.4832573 15.0082321
v  2.99565816 126.952599 16.1972027
v  3.91652369 31.5774269 15.9985876
v  11.6408615 127.0466 11.1398373
v  12.5617266 31.6714287 10.9412222
v  15.6624022 127.10453 1.96643865
v  16.5832672 31.7293606 1.76782405
v  13.5241222 127.104263 -7.8189106
v  14.4449873 31.7290936 -8.01752567
v  -0.464119822 126.952164 0.36413151

# 95 UV coordinates
vt 0.200000003 1 0
vt 0.100000001 1 0
vt 0.200000003 0.892889977 0
vt 0.100000001 0.892889977 0
vt 0.400000006 1 0
vt 0.300000012 1 0
vt 0.400000006 0.892889977 0
vt 0.300000012 0.892889977 0
vt 0.600000024 1 0
vt 0.5 1 0
vt 0.600000024 0.892889977 0
vt 0.5 0.892889977 0
vt 0.800000012 1 0
vt 0.699999988 1 0
vt 0.800000012 0.892889977 0
vt 0.699999988 0.892889977 0
vt 1 1 0
vt 0.899999976 1 0
vt 1 0.892889977 0
vt 0.899999976 0.892889977 0
vt 0.150000006 1 0
vt 0.75 1 0
vt 0.949999988 1 0
vt 0 1 0
vt 0.100000001 0.904219985 0
vt 0 0.904219985 0
vt 0.200000003 0.904219985 0
vt 0.300000012 0.904219985 0
vt 0.400000006 0.904219985 0
vt 0.5 0.904219985 0
vt 0.600000024 0.904219985 0
vt 0.699999988 0.904219985 0
vt 0.800000012 0.904219985 0
vt 0.899999976 0.904219985 0
vt 1 0.904219985 0
vt 0.0500000007 1 0
vt 0.25 1 0
vt 0.349999994 1 0
vt 0.449999988 1 0
vt 0.550000012 1 0
vt 0.649999976 1 0
vt 0.850000024 1 0
vt 0.0500000007 0.904219985 0
vt 0.150000006 0.904219985 0
vt 0.25 0.904219985 0
vt 0.349999994 0.904219985 0
vt 0.449999988 0.904219985 0
vt 0.550000012 0.904219985 0
vt 0.649999976 0.904219985 0
vt 0.75 0.904219985 0
vt 0.850000024 0.904219985 0
vt 0.949999988 0.904219985 0
vt 0.100000001 0.177429974 0
vt 0 0.177429974 0
vt 0.100000001 0 0
vt 0 0 0
vt 0.200000003 0.177429974 0
vt 0.200000003 0 0
vt 0.300000012 0.177429974 0
vt 0.300000012 0 0
vt 0.400000006 0.177429974 0
vt 0.400000006 0 0
vt 0.5 0.177429974 0
vt 0.5 0 0
vt 0.600000024 0.177429974 0
vt 0.600000024 0 0
vt 0.699999988 0.177429974 0
vt 0.699999988 0 0
vt 0.800000012 0.177429974 0
vt 0.800000012 0 0
vt 0.899999976 0.177429974 0
vt 0.899999976 0 0
vt 1 0.177429974 0
vt 1 0 0
vt 0.100000001 0.904240012 0
vt 0 0.904240012 0
vt 0.200000003 0.904240012 0
vt 0.300000012 0.904240012 0
vt 0.400000006 0.904240012 0
vt 0.5 0.904240012 0
vt 0.600000024 0.904240012 0
vt 0.699999988 0.904240012 0
vt 0.800000012 0.904240012 0
vt 0.899999976 0.904240012 0
vt 1 0.904240012 0
vt 0.0500000007 0.904240012 0
vt 0.150000006 0.904240012 0
vt 0.25 0.904240012 0
vt 0.349999994 0.904240012 0
vt 0.449999988 0.904240012 0
vt 0.550000012 0.904240012 0
vt 0.649999976 0.904240012 0
vt 0.75 0.904240012 0
vt 0.850000024 0.904240012 0
vt 0.949999988 0.904240012 0

# 81 vertex normals
vn -0.74680239 0.0291947722 -0.664404869
vn -0.746801794 0.0291946139 -0.664405584
vn -0.74679774 0.0291935932 -0.664410174
vn -0.746797264 0.0291934721 -0.66441071
vn -0.862930119 0.0256383922 0.504672468
vn -0.862928867 0.0256388336 0.504674613
vn -0.86292088 0.0256416053 0.504688084
vn -0.862919927 0.0256419405 0.504689753
vn 0.21301955 0.0350484885 0.976419091
vn 0.213017166 0.035048034 0.976419628
vn 0.213001907 0.0350451618 0.976423085
vn 0.213000029 0.0350448079 0.976423502
vn 0.994107306 0.0444136783 0.0988844261
vn 0.994107306 0.044413697 0.0988842994
vn 0.994107366 0.0444138497 0.0988834351
vn 0.994107366 0.0444138721 0.0988833383
vn 0.400919229 0.0407988727 -0.915204465
vn 0.400918484 0.0407990068 -0.915204823
vn 0.400913626 0.040799886 -0.915206909
vn 0.400913 0.0407999903 -0.915207148
vn -0.00982987974 0.999949276 0.00218481896
vn -0.00966258068 0.999951005 0.00216148584
vn -0.00961205829 0.999951363 0.00220646127
vn -0.00955367088 0.999952018 0.00217230618
vn -0.00965472031 0.999951243 0.00208235392
vn 0.000986405183 0.00209198077 -0.999997318
vn 0.401497453 0.00578373997 -0.915841877
vn 0.000986381317 0.00209198054 -0.999997318
vn -0.641162932 -0.00459248666 -0.767391026
vn -0.998782337 -0.00974414591 0.0483622663
vn -0.734755695 -0.00850669481 0.678278446
vn -0.734755695 -0.00850669574 0.678278446
vn -0.401497453 -0.00578373997 0.915841877
vn -0.000986405183 -0.00209198077 0.999997318
vn -0.000986381317 -0.00209198054 0.999997318
vn 0.641162932 0.00459248666 0.767391026
vn 0.998782337 0.00974414591 -0.0483622663
vn 0.734755695 0.00850669481 -0.678278446
vn 0.734755695 0.00850669574 -0.678278446
vn 0.00965472031 -0.999951243 -0.00208235392
vn -0.213476494 -2.66982061e-05 -0.976948202
vn -0.213476568 -2.66990301e-05 -0.976948202
vn -0.746914566 -0.00582698407 -0.664894521
vn -0.995056212 -0.00940157007 -0.0988670886
vn -0.995056212 -0.00940156914 -0.0988670588
vn -0.863115132 -0.00938501768 0.504919946
vn -0.863115132 -0.00938501675 0.504920006
vn 0.213476494 2.66982061e-05 0.976948202
vn 0.213476568 2.66990301e-05 0.976948202
vn 0.746914566 0.00582698407 0.664894521
vn 0.995056212 0.00940157007 0.0988670886
vn 0.995056212 0.00940156914 0.0988670588
vn 0.863115132 0.00938501768 -0.504919946
vn 0.863115132 0.00938501675 -0.504920006
vn -0.21347934 -2.67268169e-05 -0.976947606
vn -0.21347937 -2.67272917e-05 -0.976947546
vn -0.746916652 -0.00582700921 -0.664892137
vn -0.746916711 -0.00582700968 -0.664892077
vn -0.995055914 -0.00940155983 -0.0988702476
vn -0.995055914 -0.00940155983 -0.0988702178
vn -0.863116622 -0.00938502606 0.504917443
vn -0.401497424 -0.00578374043 0.915841877
vn 0.21347934 2.67268169e-05 0.976947606
vn 0.21347937 2.67272917e-05 0.976947546
vn 0.746916652 0.00582700921 0.664892137
vn 0.746916711 0.00582700968 0.664892077
vn 0.995055914 0.00940155983 0.0988702476
vn 0.995055914 0.00940155983 0.0988702178
vn 0.863116622 0.00938502606 -0.504917443
vn -0.213478252 -2.67158666e-05 -0.976947844
vn -0.213478282 -2.67163414e-05 -0.976947784
vn -0.746916592 -0.00582700875 -0.664892197
vn -0.995055914 -0.00940156076 -0.0988701954
vn -0.995055914 -0.00940156076 -0.0988701433
vn -0.863116026 -0.00938502327 0.504918396
vn 0.213478252 2.67158666e-05 0.976947844
vn 0.213478282 2.67163414e-05 0.976947784
vn 0.746916592 0.00582700875 0.664892197
vn 0.995055914 0.00940156076 0.0988701954
vn 0.995055914 0.00940156076 0.0988701433
vn 0.863116026 0.00938502327 -0.504918396

# Mesh '' with 143 faces
usemtl mat1
f  1/1/1 2/2/2 3/3/3
f  4/4/4 3/3/3 2/2/2
f  5/5/5 1/6/6 6/7/7
f  3/8/8 6/7/7 1/6/6
f  7/9/9 5/10/10 8/11/11
f  6/12/12 8/11/11 5/10/10
f  9/13/13 7/14/14 10/15/15
f  8/16/16 10/15/15 7/14/14
f  2/17/17 9/18/18 4/19/19
f  10/20/20 4/19/19 9/18/18
f  1/1/21 5/21/22 2/2/23
f  9/13/24 5/22/22 7/14/25
f  2/17/23 5/23/22 9/18/24
f  11/2/26 12/24/27 13/25/28
f  14/26/27 13/25/28 12/24/27
f  15/1/29 11/2/26 16/27/29
f  13/25/28 16/27/29 11/2/26
f  17/6/30 15/1/29 18/28/30
f  16/27/29 18/28/30 15/1/29
f  19/5/31 17/6/30 20/29/32
f  18/28/30 20/29/32 17/6/30
f  21/10/33 19/5/31 22/30/33
f  20/29/32 22/30/33 19/5/31
f  23/9/34 21/10/33 24/31/35
f  22/30/33 24/31/35 21/10/33
f  25/14/36 23/9/34 26/32/36
f  24/31/35 26/32/36 23/9/34
f  27/13/37 25/14/36 28/33/37
f  26/32/36 28/33/37 25/14/36
f  29/18/38 27/13/37 30/34/39
f  28/33/37 30/34/39 27/13/37
f  12/17/27 29/18/38 14/35/27
f  30/34/39 14/35/27 29/18/38
f  11/2/25 31/36/25 12/24/25
f  15/1/25 31/21/25 11/2/25
f  17/6/25 31/37/25 15/1/25
f  19/5/25 31/38/25 17/6/25
f  21/10/25 31/39/25 19/5/25
f  23/9/25 31/40/25 21/10/25
f  25/14/25 31/41/25 23/9/25
f  27/13/25 31/22/25 25/14/25
f  29/18/25 31/42/25 27/13/25
f  12/17/25 31/23/25 29/18/25
f  14/26/40 32/43/40 13/25/40
f  13/25/40 32/44/40 16/27/40
f  16/27/40 32/45/40 18/28/40
f  18/28/40 32/46/40 20/29/40
f  20/29/40 32/47/40 22/30/40
f  22/30/40 32/48/40 24/31/40
f  24/31/40 32/49/40 26/32/40
f  26/32/40 32/50/40 28/33/40
f  28/33/40 32/51/40 30/34/40
f  30/34/40 32/52/40 14/35/40
f  33/53/41 34/54/27 35/55/42
f  36/56/27 35/55/42 34/54/27
f  37/57/43 33/53/41 38/58/43
f  35/55/42 38/58/43 33/53/41
f  39/59/44 37/57/43 40/60/45
f  38/58/43 40/60/45 37/57/43
f  41/61/46 39/59/44 42/62/47
f  40/60/45 42/62/47 39/59/44
f  43/63/33 41/61/46 44/64/33
f  42/62/47 44/64/33 41/61/46
f  45/65/48 43/63/33 46/66/49
f  44/64/33 46/66/49 43/63/33
f  47/67/50 45/65/48 48/68/50
f  46/66/49 48/68/50 45/65/48
f  49/69/51 47/67/50 50/70/52
f  48/68/50 50/70/52 47/67/50
f  51/71/53 49/69/51 52/72/54
f  50/70/52 52/72/54 49/69/51
f  34/73/27 51/71/53 36/74/27
f  52/72/54 36/74/27 51/71/53
f  53/2/55 54/24/27 55/75/56
f  56/76/27 55/75/56 54/24/27
f  57/1/57 53/2/55 58/77/58
f  55/75/56 58/77/58 53/2/55
f  59/6/59 57/1/57 60/78/60
f  58/77/58 60/78/60 57/1/57
f  61/5/61 59/6/59 62/79/61
f  60/78/60 62/79/61 59/6/59
f  63/10/62 61/5/61 64/80/33
f  62/79/61 64/80/33 61/5/61
f  65/9/63 63/10/62 66/81/64
f  64/80/33 66/81/64 63/10/62
f  67/14/65 65/9/63 68/82/66
f  66/81/64 68/82/66 65/9/63
f  69/13/67 67/14/65 70/83/68
f  68/82/66 70/83/68 67/14/65
f  71/18/69 69/13/67 72/84/69
f  70/83/68 72/84/69 69/13/67
f  54/17/27 71/18/69 56/85/27
f  72/84/69 56/85/27 71/18/69
f  53/2/25 73/36/25 54/24/25
f  57/1/25 73/21/25 53/2/25
f  59/6/25 73/37/25 57/1/25
f  61/5/25 73/38/25 59/6/25
f  63/10/25 73/39/25 61/5/25
f  65/9/25 73/40/25 63/10/25
f  67/14/25 73/41/25 65/9/25
f  69/13/25 73/22/25 67/14/25
f  71/18/25 73/42/25 69/13/25
f  54/17/25 73/23/25 71/18/25
f  56/76/40 74/86/40 55/75/40
f  55/75/40 74/87/40 58/77/40
f  58/77/40 74/88/40 60/78/40
f  60/78/40 74/89/40 62/79/40
f  62/79/40 74/90/40 64/80/40
f  64/80/40 74/91/40 66/81/40
f  66/81/40 74/92/40 68/82/40
f  68/82/40 74/93/40 70/83/40
f  70/83/40 74/94/40 72/84/40
f  72/84/40 74/95/40 56/85/40
f  75/2/70 76/24/27 77/55/71
f  78/56/27 77/55/71 76/24/27
f  79/1/72 75/2/70 80/58/57
f  77/55/71 80/58/57 75/2/70
f  81/6/73 79/1/72 82/60/74
f  80/58/57 82/60/74 79/1/72
f  83/5/75 81/6/73 84/62/75
f  82/60/74 84/62/75 81/6/73
f  85/10/33 83/5/75 86/64/33
f  84/62/75 86/64/33 83/5/75
f  87/9/76 85/10/33 88/66/77
f  86/64/33 88/66/77 85/10/33
f  89/14/78 87/9/76 90/68/65
f  88/66/77 90/68/65 87/9/76
f  91/13/79 89/14/78 92/70/80
f  90/68/65 92/70/80 89/14/78
f  93/18/81 91/13/79 94/72/81
f  92/70/80 94/72/81 91/13/79
f  76/17/27 93/18/81 78/74/27
f  94/72/81 78/74/27 93/18/81
f  75/2/25 95/36/25 76/24/25
f  79/1/25 95/21/25 75/2/25
f  81/6/25 95/37/25 79/1/25
f  83/5/25 95/38/25 81/6/25
f  85/10/25 95/39/25 83/5/25
f  87/9/25 95/40/25 85/10/25
f  89/14/25 95/41/25 87/9/25
f  91/13/25 95/22/25 89/14/25
f  93/18/25 95/42/25 91/13/25
f  76/17/25 95/23/25 93/18/25

