# File produced by Open Asset Import Library (http://www.assimp.sf.net)
# (assimp v5.2.3369795085)

mtllib collision_camera.X.mtl

# 240 vertex positions
v  -2826.0564 -158.537201 -1144.15967
v  -3178.04834 -25.5104008 -1152.73804
v  -2826.0564 247.287598 -1132.05664
v  -3227.03247 242.682297 -1132.05664
v  -1982.58459 -136.469193 -1143.50562
v  -1982.58459 -18.3626995 -1132.05664
v  -1982.58459 -173.394806 -722.131592
v  -1982.58459 -20.9186001 -722.131592
v  -2262.10132 40.5917015 -1132.05615
v  -2257.3645 35.7050018 -730.680725
v  -2296.92603 -148.694901 -722.131592
v  -2301.59888 -189.022003 -1143.50562
v  -3185.62231 122.064003 417.998901
v  -2842.86011 121.723602 419.644897
v  -3227.03247 244.246597 108.649696
v  -2849.06665 251.667206 108.649696
v  -2830.44653 -88.9240036 441.360291
v  -2813.85669 -224.027802 108.649696
v  -3185.62231 40.1046982 719.295227
v  -2840.79077 40.0623016 719.01178
v  -2823.18237 -114.604797 718.539124
v  -2845.83472 245.096298 -737.078674
v  -2563.6438 126.227097 -734.10022
v  -2566.68433 130.174194 -1132.0564
v  -2826.0564 -28.0662003 -722.131592
v  -2579.13696 -84.3578033 -722.131592
v  -2582.16187 -214.634598 -1144.15967
v  -3227.03247 246.969101 -714.831177
v  -2824.51611 -17.6480007 1239.57043
v  -2838.72241 -12.6097002 1025.65454
v  -3145.02759 -11.9202003 1237.80249
v  -3161.77808 -12.2319002 1023.85168
v  -2832.29712 -123.978401 1025.62207
v  -3145.02759 -14.4076004 1326.97363
v  -2831.10522 -18.8176003 1331.83911
v  -2805.04858 -191.574295 -740.718323
v  -2683.69312 -61.280899 -331.600708
v  -2683.69312 76.8492966 -331.600708
v  -2683.69312 -61.280899 -188.499802
v  -2683.69312 76.8492966 -188.499802
v  -2831.38989 64.093399 -331.600708
v  -2831.38989 -61.280899 -331.600708
v  -2839.27466 64.093399 -188.499802
v  -2831.38989 -61.280899 -188.499802
v  -2745.94507 111.038803 -331.600708
v  -2744.9939 111.038803 -188.499802
v  -2772.15796 -61.280899 -188.499802
v  -2773.10913 -61.280899 -331.600708
v  -2754.29614 220.189194 -249.723404
v  -2799.31323 220.189194 -249.723404
v  -2754.29614 220.189194 -204.706299
v  -2799.31323 220.189194 -204.706299
v  -2754.29614 70.6345978 -204.706299
v  -2799.31323 70.6345978 -204.706299
v  -2754.29614 70.6345978 -249.723404
v  -2799.31323 70.6345978 -249.723404
v  -2728.5813 106.405998 -419.540894
v  -2828.15845 106.405998 -419.540894
v  -2728.5813 106.405998 -329.360199
v  -2828.15845 106.405998 -329.360199
v  -2728.5813 -37.8050003 -329.360199
v  -2828.15845 -37.8050003 -329.360199
v  -2728.5813 -37.8050003 -419.540894
v  -2828.15845 -37.8050003 -419.540894
v  -2728.79175 102.423698 -568.242126
v  -2855.90845 102.423698 -568.242126
v  -2728.79175 102.423698 -480.348602
v  -2855.90845 102.423698 -480.348602
v  -2728.79175 -43.3376999 -480.348602
v  -2855.90845 -43.3376999 -480.348602
v  -2728.79175 -43.3376999 -568.242126
v  -2855.90845 -43.3376999 -568.242126
v  -2698.07202 67.3915024 -669.479126
v  -2855.90845 67.3915024 -669.479126
v  -2698.07202 67.3915024 -573.570618
v  -2855.90845 67.3915024 -573.570618
v  -2698.07202 -43.3376999 -573.570618
v  -2855.90845 -43.3376999 -573.570618
v  -2698.07202 -43.3376999 -669.479126
v  -2855.90845 -43.3376999 -669.479126
v  -2647.29614 106.405998 -489.153503
v  -2746.87378 106.405998 -489.153503
v  -2647.29614 106.405998 -398.972687
v  -2746.87378 106.405998 -398.972687
v  -2647.29614 -37.8050003 -398.972687
v  -2746.87378 -37.8050003 -398.972687
v  -2647.29614 -37.8050003 -489.153503
v  -2746.87378 -37.8050003 -489.153503
v  954.75293 1340.45374 2368.90479
v  913.238403 1339.91162 2368.90479
v  954.75293 -55.6091003 2368.90479
v  913.238403 -55.6091003 2368.90479
v  954.75293 -55.6091003 2327.31885
v  913.238403 -55.6091003 2327.31885
v  954.75293 1340.45374 2327.31885
v  913.238403 1339.91162 2327.31885
v  2742.07349 664.799072 -1586.46423
v  2587.6106 671.945496 -1586.46423
v  2742.07349 -901.77417 -1586.46423
v  2587.6106 -901.77417 -1586.46423
v  2742.07349 -901.77417 -1741.19592
v  2587.6106 -901.77417 -1741.19592
v  2742.07349 664.799072 -1741.19592
v  2587.6106 671.945496 -1741.19592
v  2970.30688 849.880005 -1343.0575
v  2294.25244 853.081604 -1343.0575
v  2970.30688 -136.929398 -1343.0575
v  2294.25244 -136.929398 -1343.0575
v  2996.85986 -136.929398 -1975.46924
v  2320.80542 -136.929398 -1975.46924
v  2970.30688 849.880005 -1975.92688
v  2294.25244 853.081604 -1975.92688
v  1930.95044 477.740204 3978.21997
v  1813.5437 483.172211 3978.21997
v  1930.95044 -713.000916 3978.21997
v  1813.5437 -713.000916 3978.21997
v  1935.56152 -713.000916 3868.39233
v  1818.15479 -713.000916 3868.39233
v  1930.95044 477.740204 3860.60962
v  1813.5437 483.172211 3860.60962
v  2162.66626 541.543213 4219.82568
v  1562.88123 544.383484 4219.82568
v  2162.66626 -81.0856018 4219.82568
v  1562.88123 -81.0856018 4219.82568
v  2186.22363 -81.0856018 3658.76001
v  1586.43884 -81.0856018 3658.76001
v  2162.66626 541.543213 3658.354
v  1562.88123 544.383484 3658.354
v  -218.996902 477.740204 3938.47729
v  -336.403595 483.172211 3938.47729
v  -218.996902 -713.000916 3938.47729
v  -336.403595 -713.000916 3938.47729
v  -218.996902 -713.000916 3820.86694
v  -336.403595 -713.000916 3820.86694
v  -218.996902 477.740204 3820.86694
v  -336.403595 483.172211 3820.86694
v  -2.29920006 541.543213 4219.82568
v  -602.08429 544.383484 4219.82568
v  -2.29920006 -81.0856018 4219.82568
v  -602.08429 -81.0856018 4219.82568
v  21.2581997 -81.0856018 3658.76001
v  -578.526672 -81.0856018 3658.76001
v  -2.29920006 541.543213 3658.354
v  -602.08429 544.383484 3658.354
v  -2005.63025 477.740204 3972.15991
v  -2123.03687 483.172211 3972.15991
v  -2005.63025 -713.000916 3972.15991
v  -2123.03687 -713.000916 3972.15991
v  -2005.63025 -713.000916 3854.54956
v  -2123.03687 -713.000916 3854.54956
v  -2005.63025 477.740204 3854.54956
v  -2123.03687 483.172211 3854.54956
v  -1783.32007 541.543213 4219.82568
v  -2383.10498 544.383484 4219.82568
v  -1783.32007 -81.0856018 4219.82568
v  -2383.10498 -81.0856018 4219.82568
v  -1759.7627 -81.0856018 3658.76001
v  -2359.54736 -81.0856018 3658.76001
v  -1783.32007 541.543213 3658.354
v  -2383.10498 544.383484 3658.354
v  2584.63306 756.859375 -706.900696
v  1083.10413 756.859375 -706.900696
v  2584.63306 756.859375 161.488297
v  1083.10413 756.859375 161.488297
v  2584.63306 -478.788391 161.488297
v  1083.10413 -478.788391 161.488297
v  2584.63306 -478.788391 -706.900696
v  1083.10413 -478.788391 -706.900696
v  1126.20996 455.544586 -613.171814
v  812.68573 455.544586 -613.171814
v  1126.20996 455.544586 102.148903
v  812.68573 455.544586 102.148903
v  1126.20996 -478.788391 102.148903
v  812.68573 -478.788391 102.148903
v  1126.20996 -478.788391 -613.171814
v  812.68573 -478.788391 -613.171814
v  2020.87891 756.859375 436.151611
v  1293.53613 756.859375 436.151611
v  2020.87891 756.859375 2391.52002
v  1293.53613 756.859375 2391.52002
v  2020.87891 -478.788391 2391.52002
v  1293.53613 -478.788391 2391.52002
v  2020.87891 -478.788391 436.151611
v  1293.53613 -478.788391 436.151611
v  1443.35718 765.024719 910.075073
v  1109.82129 765.024719 910.075073
v  1445.38635 756.859375 2391.52002
v  1111.85022 756.859375 2391.52002
v  1445.38635 -478.788391 2391.52002
v  1111.85022 -478.788391 2391.52002
v  1443.35718 -470.623108 910.075073
v  1109.82129 -470.623108 910.075073
v  1320.59436 361.041809 910.075073
v  987.058472 361.041809 910.075073
v  1322.62354 352.876587 1608.9165
v  989.087402 352.876587 1608.9165
v  1322.62354 -478.788391 1608.9165
v  989.087402 -478.788391 1608.9165
v  1320.59436 -470.623108 910.075073
v  987.058472 -470.623108 910.075073
v  1888.16882 397.072601 2365.69165
v  1104.40906 397.072601 2365.69165
v  1890.198 388.90741 3321.40503
v  1106.43799 388.90741 3321.40503
v  1890.198 -478.788391 3321.40503
v  1106.43799 -478.788391 3321.40503
v  1888.16882 -470.623108 2365.69165
v  1104.40906 -470.623108 2365.69165
v  2583.6394 110.317497 -1111.5249
v  2283.93042 110.317497 -1111.5249
v  2583.6394 110.317497 -714.928894
v  2283.93042 110.317497 -714.928894
v  2583.6394 -478.788391 -714.928894
v  2283.93042 -478.788391 -714.928894
v  2583.6394 -478.788391 -1111.5249
v  2283.93042 -478.788391 -1111.5249
v  2490.02148 217.518097 -902.126099
v  2379.25537 217.518097 -902.126099
v  2490.02148 217.518097 -769.169495
v  2379.25537 217.518097 -769.169495
v  2490.02148 45.9612007 -769.169495
v  2379.25537 45.9612007 -769.169495
v  2490.02148 45.9612007 -902.126099
v  2379.25537 45.9612007 -902.126099
v  2368.93579 258.41861 1760.5426
v  1944.6167 258.41861 1760.5426
v  2368.93579 258.41861 2277.75781
v  1944.6167 258.41861 2277.75781
v  2368.93579 -478.788391 2277.75781
v  1944.6167 -478.788391 2277.75781
v  2368.93579 -478.788391 1760.5426
v  1944.6167 -478.788391 1760.5426
v  2562.89893 258.41861 976.229675
v  1944.6167 258.41861 976.229675
v  2562.89893 258.41861 1597.48145
v  1944.6167 258.41861 1597.48145
v  2562.89893 -478.788391 1597.48145
v  1944.6167 -478.788391 1597.48145
v  2562.89893 -478.788391 976.229675
v  1944.6167 -478.788391 976.229675

# 45 UV coordinates
vt 1 1 0
vt 0 1 0
vt 1 0 0
vt 0 0 0
vt 0.620890021 1 0
vt 0.626510024 0 0
vt 0.626510024 1 0
vt 0.627319992 0 0
vt 0.621779978 1 0
vt 0.620890021 0 0
vt 0 0.708140016 0
vt 1 0.706820011 0
vt 0 0.706820011 0
vt 1 0.733090043 0
vt 0 0.382529974 0
vt 1 0.382759988 0
vt 0 0.382759988 0
vt 1 0.385649979 0
vt 0.269059986 0 0
vt 0.265540004 1 0
vt 0.292739987 0 0
vt 0.269059986 1 0
vt 0.265540004 0 0
vt 0.28915 1 0
vt 0 0.664359987 0
vt 1 0.665750027 0
vt 1 0.00190001726 0
vt 0 0.00190001726 0
vt 1 0.156520009 0
vt 0 0.157840014 0
vt 0 0.156520009 0
vt 1 0.199620008 0
vt 0 0.661360025 0
vt 1 0.642639995 0
vt 1 0.0710700154 0
vt 0 0.677179992 0
vt 1 0.669550002 0
vt 0.405479997 1 0
vt 0.411920011 0 0
vt 0.411920011 1 0
vt 0.401039988 0 0
vt 0.401039988 1 0
vt 0.394600004 0 0
vt 0.394600004 1 0
vt 0.405479997 0 0

# 130 vertex normals
vn 0.0356034823 0.0297911298 -0.998921871
vn 0.0167635418 0.0540605597 -0.998396933
vn 0.0204293244 0.049343925 -0.998572886
vn -0.000881211425 0.0767256543 -0.997051835
vn 1 0 0
vn 0.206371248 0.978454769 0.00610070769
vn 0.244149938 0.969707668 0.00760587305
vn 0.203446478 0.979051888 0.00818463508
vn 0.241745993 0.970298171 0.00896031316
vn -0.0310976095 0 0.999516368
vn 0.00117246236 0.0409692749 0.999159694
vn -0.0178073384 0.0174719151 0.999688745
vn 0.00695245666 0.0448226109 0.998970747
vn -0.0158925205 0.0964732692 -0.995208681
vn 0.0049378085 0.0489952639 -0.998786807
vn -0.00565537391 0.0774557367 -0.996979773
vn 0.0121296123 0.047717046 -0.998787224
vn -0.000421130942 0.948174834 0.317748845
vn -0.00519525493 0.947325885 0.320229173
vn -0.0150005883 0.982405484 0.186157182
vn -0.0158646703 0.980213821 0.197304696
vn 0.997862577 0.0653406307 0.000946543703
vn 0.99802345 0.0627788678 -0.00283601554
vn 0.997393847 0.0716887638 0.00813992042
vn 0.996946931 0.0771125257 0.0122688729
vn 0.000285444548 0.976105809 0.217295632
vn 0.000128530912 0.976362288 0.2161403
vn 0.993892491 0.107507154 0.0248971879
vn 0.994531929 0.102460273 0.020202158
vn 0.387864381 0.921389878 0.0245338921
vn 0.339960068 0.940357029 0.0124808317
vn 0.401724249 0.915658951 0.0136513077
vn 0.348100454 0.93743372 0.00663825357
vn 0.0126632825 0.0555466563 0.998375773
vn 0.0096576307 0.0537833907 0.99850595
vn 0.0127971955 0.0556547083 0.998368084
vn 0.00985209458 0.0560183227 0.998381138
vn 0.013459743 0.0298073273 -0.999465048
vn 0.0091772899 0.0352097228 -0.999337792
vn 0.0102146994 0.0327203982 -0.999412358
vn 0.00348397787 0.0349233896 -0.999383926
vn -0.0114838639 0.999881268 -0.0102733318
vn -0.00253692176 0.999990225 -0.00362739805
vn -0.00361024891 0.999989808 -0.00270628277
vn 0.00487739174 0.9999879 -0.000608128437
vn 0.0177649632 0.999677539 0.0181448571
vn 0.00607521692 0.995957851 0.0896160528
vn 0.0107375449 0.999813318 0.0160630457
vn 0.000669545494 0.996053457 0.0887527764
vn 0.99829489 0.0575982742 -0.009472345
vn 0.997755885 0.0668464899 -0.00383509183
vn 0.0136091653 0.999518573 0.0278812442
vn 0.01708127 0.999721169 0.0163051803
vn 0.998059928 0.0575888529 -0.0236618835
vn 0.998747945 -0.0014912691 0.0500035211
vn 0.997767627 0.0664378479 0.00676909694
vn 0.99879396 0.0490973964 -0.000154480556
vn 0.995555758 0.0931053311 -0.0141476542
vn -0.998485506 0 -0.0550158918
vn -0.999140382 -0.0287807528 -0.029836433
vn -0.999101996 -0.0340451933 -0.0252220109
vn -0.998028278 -0.0627658069 -0
vn 0.481388241 0.876507461 0
vn 0.0070270896 0.999935925 -0.0088755805
vn 0.48542273 0.874276578 -0.0022881045
vn 0.0253555067 0.999678493 -0.000168534607
vn -0.459487706 0.888145208 -0.0083120605
vn -0.481361479 0.876120806 -0.0265226997
vn 0 0 1
vn 0 -1 0
vn 0 0 -1
vn 0 1 0
vn -1 0 0
vn 0 -0.000463758828 -0.999999881
vn -8.34479749e-07 -0.000463209581 -0.999999881
vn -1.35731671e-06 -0.000462865457 -0.999999881
vn -2.18940386e-06 -0.00046231781 -0.999999881
vn 0.998758316 0.0268939473 0.0419347212
vn 0.999836326 0.0097673703 0.015229892
vn 0.999495924 0.0171389095 0.0267240554
vn -0.999640524 -0.0268112514 -0
vn -0.99959451 -0.00971124228 -0.0267673321
vn -0.999738216 -0.0171100702 -0.0151908472
vn -0.999119699 0 -0.0419498906
vn 0 -0.00653588632 -0.999978662
vn -1.87946753e-05 -0.0065341061 -0.999978662
vn -0.000282811932 -0.00650909729 -0.999978781
vn -0.000301073567 -0.00650736736 -0.999978781
vn 0.999111235 0.0041431766 0.0419474207
vn 0.999996901 0.000243668808 0.00246701459
vn 0.99921912 0.00388371479 0.0393205062
vn -0.999992549 -0.00385483471 -0
vn -0.999225795 -0.0002396903 -0.039341677
vn -0.999990404 -0.00363013358 -0.00244721351
vn -0.999119818 0 -0.0419477746
vn 0 -0.000652083196 -0.999999762
vn -1.49926075e-06 -0.000650695642 -0.999999762
vn -1.57942634e-06 -0.000650621485 -0.999999762
vn -3.07445384e-06 -0.000649237831 -0.999999762
vn 0.998405576 0.0378023535 0.0419198908
vn 0.999651909 0.0176681466 0.019592613
vn 0.999546766 0.0201599505 0.0223558303
vn -0.99929148 -0.0376372337 -0
vn -0.999594808 -0.0175349526 -0.0224225111
vn -0.999606609 -0.0201241672 -0.0195365809
vn -0.999119699 0 -0.0419503115
vn -1.49926086e-06 -0.000650695642 -0.999999762
vn -1.579426e-06 -0.000650621427 -0.999999762
vn -3.07445339e-06 -0.000649237831 -0.999999762
vn 0.998405576 0.0378023945 0.0419199392
vn 0.999651909 0.017668169 0.0195926353
vn 0.999546766 0.0201599747 0.0223558564
vn -1.57942679e-06 -0.000650621485 -0.999999762
vn -3.0744543e-06 -0.000649237831 -0.999999762
vn 0 0.999984801 0.00551165966
vn 0 0.999984801 0.0055116592
vn 0.999999046 0 -0.00136972545
vn 0.999999046 0 -0.00136972533
vn -0.999999046 0 0.00136956072
vn -0.999999046 0 0.0013695606
vn 0 0.999931753 0.0116831437
vn 0 0.999931753 0.0116831446
vn 0.999995768 0 -0.00290361466
vn -0.999995768 0 0.00290326541
vn -0.999995768 0 0.00290326565
vn 0 0.999963522 0.00854324549
vn 0.999997735 0 -0.0021231994
vn 0.999997735 0 -0.00212319964
vn 0.999997735 0 -0.00212319987
vn -0.999997735 0 0.00212294399

# Mesh '' with 47 faces
usemtl material0
f  1/1/1 2/2/2 3/3/3
f  4/4/4 3/3/3 2/2/2
f  5/1/5 6/2/5 7/3/5
f  8/4/5 7/3/5 6/2/5
f  6/1/6 9/5/7 8/3/8
f  10/6/9 8/3/8 9/5/7
f  8/1/10 10/7/11 7/3/12
f  11/8/13 7/3/12 10/7/11
f  5/1/14 12/9/15 6/3/16
f  9/10/17 6/3/16 12/9/15
f  13/11/18 14/12/19 15/2/20
f  16/1/21 15/2/20 14/12/19
f  14/13/22 17/14/23 16/2/24
f  18/1/25 16/2/24 17/14/23
f  19/15/26 20/16/27 13/11/18
f  14/12/19 13/11/18 20/16/27
f  20/17/28 21/18/29 14/13/22
f  17/14/23 14/13/22 21/18/29
f  22/4/30 23/19/31 3/2/32
f  24/20/33 3/2/32 23/19/31
f  24/20/33 23/19/31 9/5/7
f  10/6/9 9/5/7 23/19/31
f  25/4/34 26/21/35 22/2/36
f  23/22/37 22/2/36 26/21/35
f  23/22/37 26/21/35 10/7/11
f  11/8/13 10/7/11 26/21/35
f  3/4/38 24/23/39 1/2/40
f  27/24/41 1/2/40 24/23/39
f  27/24/41 24/23/39 12/9/15
f  9/10/17 12/9/15 24/23/39
f  4/2/42 28/25/43 3/1/44
f  22/26/45 3/1/44 28/25/43
f  22/26/45 28/25/43 16/27/21
f  15/28/20 16/27/21 28/25/43
f  29/3/46 30/29/47 31/4/48
f  32/30/49 31/4/48 30/29/47
f  32/30/49 30/29/47 19/15/26
f  20/16/27 19/15/26 30/29/47
f  30/31/50 33/32/51 20/17/28
f  21/18/29 20/17/28 33/32/51
f  34/33/52 35/34/53 31/2/48
f  29/1/46 31/2/48 35/34/53
f  30/31/50 35/35/54 33/32/51
f  3/2/55 22/36/56 1/1/57
f  36/37/58 1/1/57 22/36/56
f  36/37/58 22/36/56 18/27/25
f  16/28/24 18/27/25 22/36/56

# Mesh '' with 80 faces
usemtl material0
f  37/1/5 38/2/5 39/3/5
f  40/4/5 39/3/5 38/2/5
f  41/1/59 42/2/60 43/3/61
f  44/4/62 43/3/61 42/2/60
f  38/1/63 45/38/64 40/3/65
f  46/39/66 40/3/65 45/38/64
f  46/39/66 45/38/64 43/4/67
f  41/2/68 43/4/67 45/38/64
f  40/1/69 46/40/69 39/3/69
f  47/41/69 39/3/69 46/40/69
f  47/41/69 46/40/69 44/4/69
f  43/2/69 44/4/69 46/40/69
f  39/1/70 47/42/70 37/3/70
f  48/43/70 37/3/70 47/42/70
f  48/43/70 47/42/70 42/4/70
f  44/2/70 42/4/70 47/42/70
f  37/1/71 48/44/71 38/3/71
f  45/45/71 38/3/71 48/44/71
f  45/45/71 48/44/71 41/4/71
f  42/2/71 41/4/71 48/44/71
f  49/1/72 50/2/72 51/3/72
f  52/4/72 51/3/72 50/2/72
f  51/1/69 52/2/69 53/3/69
f  54/4/69 53/3/69 52/2/69
f  53/1/70 54/2/70 55/3/70
f  56/4/70 55/3/70 54/2/70
f  55/1/71 56/2/71 49/3/71
f  50/4/71 49/3/71 56/2/71
f  55/1/5 49/2/5 53/3/5
f  51/4/5 53/3/5 49/2/5
f  50/1/73 56/2/73 52/3/73
f  54/4/73 52/3/73 56/2/73
f  57/1/72 58/2/72 59/3/72
f  60/4/72 59/3/72 58/2/72
f  59/1/69 60/2/69 61/3/69
f  62/4/69 61/3/69 60/2/69
f  61/1/70 62/2/70 63/3/70
f  64/4/70 63/3/70 62/2/70
f  63/1/71 64/2/71 57/3/71
f  58/4/71 57/3/71 64/2/71
f  63/1/5 57/2/5 61/3/5
f  59/4/5 61/3/5 57/2/5
f  58/1/73 64/2/73 60/3/73
f  62/4/73 60/3/73 64/2/73
f  65/1/72 66/2/72 67/3/72
f  68/4/72 67/3/72 66/2/72
f  67/1/69 68/2/69 69/3/69
f  70/4/69 69/3/69 68/2/69
f  69/1/70 70/2/70 71/3/70
f  72/4/70 71/3/70 70/2/70
f  71/1/71 72/2/71 65/3/71
f  66/4/71 65/3/71 72/2/71
f  71/1/5 65/2/5 69/3/5
f  67/4/5 69/3/5 65/2/5
f  66/1/73 72/2/73 68/3/73
f  70/4/73 68/3/73 72/2/73
f  73/1/72 74/2/72 75/3/72
f  76/4/72 75/3/72 74/2/72
f  75/1/69 76/2/69 77/3/69
f  78/4/69 77/3/69 76/2/69
f  77/1/70 78/2/70 79/3/70
f  80/4/70 79/3/70 78/2/70
f  79/1/71 80/2/71 73/3/71
f  74/4/71 73/3/71 80/2/71
f  79/1/5 73/2/5 77/3/5
f  75/4/5 77/3/5 73/2/5
f  74/1/73 80/2/73 76/3/73
f  78/4/73 76/3/73 80/2/73
f  81/1/72 82/2/72 83/3/72
f  84/4/72 83/3/72 82/2/72
f  83/1/69 84/2/69 85/3/69
f  86/4/69 85/3/69 84/2/69
f  85/1/70 86/2/70 87/3/70
f  88/4/70 87/3/70 86/2/70
f  87/1/71 88/2/71 81/3/71
f  82/4/71 81/3/71 88/2/71
f  87/1/5 81/2/5 85/3/5
f  83/4/5 85/3/5 81/2/5
f  82/1/73 88/2/73 84/3/73
f  86/4/73 84/3/73 88/2/73

# Mesh '' with 8 faces
usemtl material0
f  89/1/69 90/2/69 91/3/69
f  92/4/69 91/3/69 90/2/69
f  93/1/71 94/2/71 95/3/71
f  96/4/71 95/3/71 94/2/71
f  93/1/5 95/2/5 91/3/5
f  89/4/5 91/3/5 95/2/5
f  96/1/73 94/2/73 90/3/73
f  92/4/73 90/3/73 94/2/73

# Mesh '' with 16 faces
usemtl material0
f  97/1/69 98/2/69 99/3/69
f  100/4/69 99/3/69 98/2/69
f  101/1/71 102/2/71 103/3/71
f  104/4/71 103/3/71 102/2/71
f  101/1/5 103/2/5 99/3/5
f  97/4/5 99/3/5 103/2/5
f  104/1/73 102/2/73 98/3/73
f  100/4/73 98/3/73 102/2/73
f  105/1/69 106/2/69 107/3/69
f  108/4/69 107/3/69 106/2/69
f  109/1/74 110/2/75 111/3/76
f  112/4/77 111/3/76 110/2/75
f  109/1/78 111/2/79 107/3/80
f  105/4/5 107/3/80 111/2/79
f  112/1/81 110/2/82 106/3/83
f  108/4/84 106/3/83 110/2/82

# Mesh '' with 16 faces
usemtl material0
f  113/1/69 114/2/69 115/3/69
f  116/4/69 115/3/69 114/2/69
f  117/1/85 118/2/86 119/3/87
f  120/4/88 119/3/87 118/2/86
f  117/1/89 119/2/90 115/3/91
f  113/4/5 115/3/91 119/2/90
f  120/1/92 118/2/93 114/3/94
f  116/4/95 114/3/94 118/2/93
f  121/1/69 122/2/69 123/3/69
f  124/4/69 123/3/69 122/2/69
f  125/1/96 126/2/97 127/3/98
f  128/4/99 127/3/98 126/2/97
f  125/1/100 127/2/101 123/3/102
f  121/4/5 123/3/102 127/2/101
f  128/1/103 126/2/104 122/3/105
f  124/4/106 122/3/105 126/2/104

# Mesh '' with 16 faces
usemtl material0
f  129/1/69 130/2/69 131/3/69
f  132/4/69 131/3/69 130/2/69
f  133/1/71 134/2/71 135/3/71
f  136/4/71 135/3/71 134/2/71
f  133/1/5 135/2/5 131/3/5
f  129/4/5 131/3/5 135/2/5
f  136/1/73 134/2/73 130/3/73
f  132/4/73 130/3/73 134/2/73
f  137/1/69 138/2/69 139/3/69
f  140/4/69 139/3/69 138/2/69
f  141/1/96 142/2/107 143/3/108
f  144/4/109 143/3/108 142/2/107
f  141/1/110 143/2/111 139/3/112
f  137/4/5 139/3/112 143/2/111
f  144/1/103 142/2/104 138/3/105
f  140/4/106 138/3/105 142/2/104

# Mesh '' with 16 faces
usemtl material0
f  145/1/69 146/2/69 147/3/69
f  148/4/69 147/3/69 146/2/69
f  149/1/71 150/2/71 151/3/71
f  152/4/71 151/3/71 150/2/71
f  149/1/5 151/2/5 147/3/5
f  145/4/5 147/3/5 151/2/5
f  152/1/73 150/2/73 146/3/73
f  148/4/73 146/3/73 150/2/73
f  153/1/69 154/2/69 155/3/69
f  156/4/69 155/3/69 154/2/69
f  157/1/96 158/2/107 159/3/113
f  160/4/114 159/3/113 158/2/107
f  157/1/100 159/2/101 155/3/102
f  153/4/5 155/3/102 159/2/101
f  160/1/103 158/2/104 154/3/105
f  156/4/106 154/3/105 158/2/104

# Mesh '' with 20 faces
usemtl material0
f  161/1/72 162/2/72 163/3/72
f  164/4/72 163/3/72 162/2/72
f  163/1/69 164/2/69 165/3/69
f  166/4/69 165/3/69 164/2/69
f  167/1/71 168/2/71 161/3/71
f  162/4/71 161/3/71 168/2/71
f  167/1/5 161/2/5 165/3/5
f  163/4/5 165/3/5 161/2/5
f  162/1/73 168/2/73 164/3/73
f  166/4/73 164/3/73 168/2/73
f  169/1/72 170/2/72 171/3/72
f  172/4/72 171/3/72 170/2/72
f  171/1/69 172/2/69 173/3/69
f  174/4/69 173/3/69 172/2/69
f  175/1/71 176/2/71 169/3/71
f  170/4/71 169/3/71 176/2/71
f  175/1/5 169/2/5 173/3/5
f  171/4/5 173/3/5 169/2/5
f  170/1/73 176/2/73 172/3/73
f  174/4/73 172/3/73 176/2/73

# Mesh '' with 30 faces
usemtl material0
f  177/1/72 178/2/72 179/3/72
f  180/4/72 179/3/72 178/2/72
f  179/1/69 180/2/69 181/3/69
f  182/4/69 181/3/69 180/2/69
f  183/1/71 184/2/71 177/3/71
f  178/4/71 177/3/71 184/2/71
f  183/1/5 177/2/5 181/3/5
f  179/4/5 181/3/5 177/2/5
f  178/1/73 184/2/73 180/3/73
f  182/4/73 180/3/73 184/2/73
f  185/1/115 186/2/116 187/3/115
f  188/4/115 187/3/115 186/2/116
f  187/1/69 188/2/69 189/3/69
f  190/4/69 189/3/69 188/2/69
f  191/1/71 192/2/71 185/3/71
f  186/4/71 185/3/71 192/2/71
f  191/1/117 185/2/117 189/3/118
f  187/4/117 189/3/118 185/2/117
f  186/1/119 192/2/119 188/3/120
f  190/4/119 188/3/120 192/2/119
f  193/1/121 194/2/122 195/3/121
f  196/4/122 195/3/121 194/2/122
f  195/1/69 196/2/69 197/3/69
f  198/4/69 197/3/69 196/2/69
f  199/1/71 200/2/71 193/3/71
f  194/4/71 193/3/71 200/2/71
f  199/1/123 193/2/123 197/3/123
f  195/4/123 197/3/123 193/2/123
f  194/1/124 200/2/124 196/3/125
f  198/4/124 196/3/125 200/2/124

# Mesh '' with 10 faces
usemtl material0
f  201/1/126 202/2/126 203/3/126
f  204/4/126 203/3/126 202/2/126
f  203/1/69 204/2/69 205/3/69
f  206/4/69 205/3/69 204/2/69
f  207/1/71 208/2/71 201/3/71
f  202/4/71 201/3/71 208/2/71
f  207/1/127 201/2/128 205/3/128
f  203/4/129 205/3/128 201/2/128
f  202/1/130 208/2/130 204/3/130
f  206/4/130 204/3/130 208/2/130

# Mesh '' with 20 faces
usemtl material0
f  209/1/72 210/2/72 211/3/72
f  212/4/72 211/3/72 210/2/72
f  211/1/69 212/2/69 213/3/69
f  214/4/69 213/3/69 212/2/69
f  215/1/71 216/2/71 209/3/71
f  210/4/71 209/3/71 216/2/71
f  215/1/5 209/2/5 213/3/5
f  211/4/5 213/3/5 209/2/5
f  210/1/73 216/2/73 212/3/73
f  214/4/73 212/3/73 216/2/73
f  217/1/72 218/2/72 219/3/72
f  220/4/72 219/3/72 218/2/72
f  219/1/69 220/2/69 221/3/69
f  222/4/69 221/3/69 220/2/69
f  223/1/71 224/2/71 217/3/71
f  218/4/71 217/3/71 224/2/71
f  223/1/5 217/2/5 221/3/5
f  219/4/5 221/3/5 217/2/5
f  218/1/73 224/2/73 220/3/73
f  222/4/73 220/3/73 224/2/73

# Mesh '' with 10 faces
usemtl material0
f  225/1/72 226/2/72 227/3/72
f  228/4/72 227/3/72 226/2/72
f  227/1/69 228/2/69 229/3/69
f  230/4/69 229/3/69 228/2/69
f  231/1/71 232/2/71 225/3/71
f  226/4/71 225/3/71 232/2/71
f  231/1/5 225/2/5 229/3/5
f  227/4/5 229/3/5 225/2/5
f  226/1/73 232/2/73 228/3/73
f  230/4/73 228/3/73 232/2/73

# Mesh '' with 10 faces
usemtl material0
f  233/1/72 234/2/72 235/3/72
f  236/4/72 235/3/72 234/2/72
f  235/1/69 236/2/69 237/3/69
f  238/4/69 237/3/69 236/2/69
f  239/1/71 240/2/71 233/3/71
f  234/4/71 233/3/71 240/2/71
f  239/1/5 233/2/5 237/3/5
f  235/4/5 237/3/5 233/2/5
f  234/1/73 240/2/73 236/3/73
f  238/4/73 236/3/73 240/2/73

