# File produced by Open Asset Import Library (http://www.assimp.sf.net)
# (assimp v5.2.3369795085)

mtllib 05.X.mtl

# 12 vertex positions
v  -22.6287994 6.84420013 -40.9678001
v  -40.6702003 5.14099979 23.3230991
v  40.7220001 -5.13609982 -23.5077
v  22.6807003 -6.83939981 40.7831993
v  14.5895004 33.699501 -29.8120995
v  -3.45180011 31.9962006 34.4788017
v  3.50370002 -31.9913006 -34.6633987
v  -14.5376997 -33.6945992 29.6275005
v  -26.1065998 38.8380013 -6.39680004
v  -37.1924019 -26.8528004 -11.2480001
v  37.2442017 26.8577003 11.0634003
v  26.1583996 -38.8330994 6.21210003

# 4 UV coordinates
vt 1 1 0
vt 0 1 0
vt 1 0 0
vt 0 0 0

# 11 vertex normals
vn 0.165964678 0.983453631 0.0726269782
vn 0.165965095 0.983453512 0.0726277232
vn 0.165965095 0.983453512 0.0726277158
vn 0.165965497 0.983453393 0.0726284683
vn 0.948421896 -0.179357201 0.261394143
vn 0.948421597 -0.179357901 0.261394769
vn 0.948421299 -0.179358602 0.261395365
vn -0.270096719 -0.0254985336 0.962495506
vn -0.270096183 -0.0254993755 0.962495625
vn -0.270096153 -0.0254993737 0.962495625
vn -0.270095617 -0.0255002156 0.962495744

# Mesh 'obj01' with 6 faces
g obj01
usemtl Material__25
f  1/1/1 2/2/2 3/3/3
f  4/4/4 3/3/3 2/2/2
f  5/1/5 6/2/6 7/3/6
f  8/4/7 7/3/6 6/2/6
f  9/1/8 10/2/9 11/3/10
f  12/4/11 11/3/10 10/2/9

