# File produced by Open Asset Import Library (http://www.assimp.sf.net)
# (assimp v5.2.3369795085)

mtllib 07.X.mtl

# 21 vertex positions
v  68.3000488 -4.87399483 2.51303601
v  75.1720123 0.172079012 0.0244568959
v  68.3021088 1.81034458 5.08914089
v  68.296196 -3.98761797 -4.39817524
v  68.296196 2.48321724 -6.01082706
v  68.296196 5.78891277 -0.219007373
v  7.60292816 -0.0743169039 -0.417918772
v  68.2135696 2.42899632 6.82240057
v  75.82061 0.241152406 0.0586556569
v  68.2108231 -6.49770117 3.38213563
v  68.2055969 -5.31403446 -5.84757805
v  68.2055969 3.32756543 -8.00117111
v  68.2055969 7.74215221 -0.266457081
v  -1.54289246 -0.0880011916 -0.532077312
v  68.271698 3.38205647 8.97626781
v  76.8958511 0.393154085 0.261040151
v  68.2699051 -8.516819 4.65530348
v  68.2664185 -6.95185852 -7.54844761
v  68.2664185 4.47420216 -10.3958168
v  68.2664185 10.3110199 -0.1688869
v  -4.97483826 -0.0419926345 -0.520109415

# 48 UV coordinates
vt 0.205689996 0.697820008 0
vt 0.17757 0.874989986 0
vt 0.149450004 0.697820008 0
vt 0.261990011 0.697820008 0
vt 0.233840004 0.874989986 0
vt 0.318239987 0.697820008 0
vt 0.290109992 0.874989986 0
vt 0.374529988 0.697820008 0
vt 0.346390009 0.874989986 0
vt 0.430779994 0.697820008 0
vt 0.402660012 0.874989986 0
vt 0.17757 0.159200013 0
vt 0.233840004 0.159200013 0
vt 0.290109992 0.159200013 0
vt 0.346390009 0.159200013 0
vt 0.402660012 0.159200013 0
vt 0.626839995 0.620400012 0
vt 0.628050029 0.80697 0
vt 0.62924999 0.620400012 0
vt 0.630460024 0.80697 0
vt 0.631659985 0.620400012 0
vt 0.632870018 0.80697 0
vt 0.634079993 0.620400012 0
vt 0.635280013 0.80697 0
vt 0.636489987 0.620400012 0
vt 0.637690008 0.80697 0
vt 0.638899982 0.620400012 0
vt 0.628050029 0.229700029 0
vt 0.630460024 0.229700029 0
vt 0.632870018 0.229700029 0
vt 0.635280013 0.229700029 0
vt 0.637690008 0.229700029 0
vt 0.365280002 0.259109974 0
vt 0.367359996 0.283410013 0
vt 0.369450003 0.259109974 0
vt 0.371529996 0.283410013 0
vt 0.373620003 0.259109974 0
vt 0.375699997 0.283410013 0
vt 0.37777999 0.259109974 0
vt 0.379869998 0.283410013 0
vt 0.381949991 0.259109974 0
vt 0.384039998 0.283410013 0
vt 0.386119992 0.259109974 0
vt 0.367359996 0.123049974 0
vt 0.371529996 0.123049974 0
vt 0.375699997 0.123049974 0
vt 0.379869998 0.123049974 0
vt 0.384039998 0.123049974 0

# 21 vertex normals
vn 0.101185195 -0.693911314 0.409128278
vn 0.527444005 -0.000781500712 0.0362165421
vn 0.096143432 0.225017726 0.775029242
vn 0.109016068 -0.596650958 -0.537520647
vn 0.113020919 0.313536167 -0.737879932
vn 0.101164415 0.80429697 0.0448940098
vn -0.527955949 -0.00225936878 0.00120530231
vn -0.110970676 -0.223962069 -0.770533979
vn -0.52732271 0.000848710537 -0.0402596034
vn -0.116369292 0.689775765 -0.406355619
vn -0.124864884 0.592210829 0.534086943
vn -0.128767818 -0.311228335 0.732602954
vn -0.116508365 -0.799304008 -0.0441622436
vn 0.527955055 0.00260834722 -0.00139282225
vn -0.119997852 -0.229406357 -0.765647054
vn -0.52712518 0.000917525962 -0.0460871831
vn -0.12690492 0.68290174 -0.410324872
vn -0.13613905 0.588645458 0.531363845
vn -0.139560625 -0.309537172 0.72853142
vn -0.127347082 -0.795221984 -0.0455149114
vn 0.527952433 0.00327209895 -0.00218430301

# Mesh '' with 30 faces
usemtl mat1
f  1/1/1 2/2/2 3/3/3
f  4/4/4 2/5/2 1/1/1
f  5/6/5 2/7/2 4/4/4
f  6/8/6 2/9/2 5/6/5
f  3/10/3 2/11/2 6/8/6
f  3/3/3 7/12/7 1/1/1
f  1/1/1 7/13/7 4/4/4
f  4/4/4 7/14/7 5/6/5
f  5/6/5 7/15/7 6/8/6
f  6/8/6 7/16/7 3/10/3
f  8/17/8 9/18/9 10/19/10
f  10/19/10 9/20/9 11/21/11
f  11/21/11 9/22/9 12/23/12
f  12/23/12 9/24/9 13/25/13
f  13/25/13 9/26/9 8/27/8
f  10/19/10 14/28/14 8/17/8
f  11/21/11 14/29/14 10/19/10
f  12/23/12 14/30/14 11/21/11
f  13/25/13 14/31/14 12/23/12
f  8/27/8 14/32/14 13/25/13
f  15/33/15 16/34/16 17/35/17
f  17/35/17 16/36/16 18/37/18
f  18/37/18 16/38/16 19/39/19
f  19/39/19 16/40/16 20/41/20
f  20/41/20 16/42/16 15/43/15
f  17/35/17 21/44/21 15/33/15
f  18/37/18 21/45/21 17/35/17
f  19/39/19 21/46/21 18/37/18
f  20/41/20 21/47/21 19/39/19
f  15/43/15 21/48/21 20/41/20

