# File produced by Open Asset Import Library (http://www.assimp.sf.net)
# (assimp v5.2.3369795085)

mtllib 00.X.mtl

# 24 vertex positions
v  50 100 86.6025009
v  0 100 100
v  50 -100 86.6025009
v  0 -100 100
v  86.6025009 100 50
v  86.6025009 -100 50
v  100 100 0
v  100 -100 0
v  86.6025009 100 -50
v  86.6025009 -100 -50
v  50 100 -86.6025009
v  50 -100 -86.6025009
v  0 100 -100
v  0 -100 -100
v  -50 100 -86.6026001
v  -50 -100 -86.6026001
v  -86.6025009 100 -50
v  -86.6025009 -100 -50
v  -100 100 0
v  -100 -100 0
v  -86.6026001 100 50
v  -86.6026001 -100 50
v  -50.0000992 100 86.6025009
v  -50.0000992 -100 86.6025009

# 26 UV coordinates
vt 0.083329998 1 0
vt 0 1 0
vt 0.083329998 0 0
vt 0 0 0
vt 0.166669995 1 0
vt 0.166669995 0 0
vt 0.25 1 0
vt 0.25 0 0
vt 0.333330005 1 0
vt 0.333330005 0 0
vt 0.416669995 1 0
vt 0.416669995 0 0
vt 0.5 1 0
vt 0.5 0 0
vt 0.583329976 1 0
vt 0.583329976 0 0
vt 0.666670024 1 0
vt 0.666670024 0 0
vt 0.75 1 0
vt 0.75 0 0
vt 0.833329976 1 0
vt 0.833329976 0 0
vt 0.916670024 1 0
vt 0.916670024 0 0
vt 1 1 0
vt 1 0 0

# 18 vertex normals
vn 0.500000298 0 0.866025209
vn 2.54294378e-07 0 1
vn 2.54080419e-07 0 1
vn 0.866025209 0 0.500000298
vn 1 0 -1.20457884e-08
vn 1 0 7.46528439e-09
vn 0.866025209 0 -0.500000298
vn 0.500000298 0 -0.866025209
vn 9.25975257e-07 0 -1
vn 9.33074261e-07 0 -1
vn -0.500000119 0 -0.866025329
vn -0.50000006 0 -0.866025388
vn -0.866025567 0 -0.499999732
vn -0.866025567 0 -0.499999762
vn -1 0 -9.25975257e-07
vn -1 0 -9.33074261e-07
vn -0.866025686 0 0.499999523
vn -0.500000119 0 0.866025329

# Mesh 'obj1' with 24 faces
g obj1
usemtl mat1
f  1/1/1 2/2/2 3/3/1
f  4/4/3 3/3/1 2/2/2
f  5/5/4 1/1/1 6/6/4
f  3/3/1 6/6/4 1/1/1
f  7/7/5 5/5/4 8/8/6
f  6/6/4 8/8/6 5/5/4
f  9/9/7 7/7/5 10/10/7
f  8/8/6 10/10/7 7/7/5
f  11/11/8 9/9/7 12/12/8
f  10/10/7 12/12/8 9/9/7
f  13/13/9 11/11/8 14/14/10
f  12/12/8 14/14/10 11/11/8
f  15/15/11 13/13/9 16/16/12
f  14/14/10 16/16/12 13/13/9
f  17/17/13 15/15/11 18/18/14
f  16/16/12 18/18/14 15/15/11
f  19/19/15 17/17/13 20/20/16
f  18/18/14 20/20/16 17/17/13
f  21/21/17 19/19/15 22/22/17
f  20/20/16 22/22/17 19/19/15
f  23/23/18 21/21/17 24/24/18
f  22/22/17 24/24/18 21/21/17
f  2/25/2 23/23/18 4/26/3
f  24/24/18 4/26/3 23/23/18

