# File produced by Open Asset Import Library (http://www.assimp.sf.net)
# (assimp v5.2.3369795085)

mtllib 10.X.mtl

# 62 vertex positions
v  25.5030003 90.0969009 35.1018982
v  0 100 0
v  0 90.0969009 43.388401
v  41.264801 90.0969009 13.4076996
v  41.264801 90.0969009 -13.4076996
v  25.5030003 90.0969009 -35.1018982
v  0 90.0969009 -43.388401
v  -25.5030994 90.0969009 -35.1018982
v  -41.264801 90.0969009 -13.4077997
v  -41.264801 90.0969009 13.4077997
v  -25.5030003 90.0969009 35.1018982
v  45.9548988 62.348999 63.2514992
v  0 62.348999 78.183197
v  74.3565979 62.348999 24.1599007
v  74.3565979 62.348999 -24.1599007
v  45.9548988 62.348999 -63.2514992
v  0 62.348999 -78.183197
v  -45.9548988 62.348999 -63.2514992
v  -74.3565979 62.348999 -24.1599007
v  -74.3565979 62.348999 24.1599007
v  -45.9548988 62.348999 63.2514992
v  57.3047981 22.2521 78.8732986
v  0 22.2521 97.4927979
v  92.721199 22.2521 30.1268997
v  92.721199 22.2521 -30.1268997
v  57.3047981 22.2521 -78.8732986
v  0 22.2521 -97.4927979
v  -57.3047981 22.2521 -78.8732986
v  -92.721199 22.2521 -30.1268997
v  -92.7210999 22.2521 30.1268997
v  -57.3047981 22.2521 78.8733978
v  57.3047981 -22.2521 78.8732986
v  0 -22.2521 97.4927979
v  92.721199 -22.2521 30.1268997
v  92.721199 -22.2521 -30.1268997
v  57.3047981 -22.2521 -78.8732986
v  0 -22.2521 -97.4927979
v  -57.3047981 -22.2521 -78.8732986
v  -92.721199 -22.2521 -30.1268997
v  -92.7210999 -22.2521 30.1268997
v  -57.3047981 -22.2521 78.8733978
v  45.9548988 -62.348999 63.2514992
v  0 -62.348999 78.1830978
v  74.3565979 -62.348999 24.1599007
v  74.3565979 -62.348999 -24.1599007
v  45.9548988 -62.348999 -63.2514992
v  0 -62.348999 -78.1830978
v  -45.9548988 -62.348999 -63.2514992
v  -74.3565979 -62.348999 -24.1599007
v  -74.3565979 -62.348999 24.1599007
v  -45.9548988 -62.348999 63.2514992
v  25.5030003 -90.0969009 35.1018982
v  0 -90.0969009 43.388401
v  41.264801 -90.0969009 13.4076996
v  41.264801 -90.0969009 -13.4076996
v  25.5030003 -90.0969009 -35.1018982
v  0 -90.0969009 -43.388401
v  -25.5030003 -90.0969009 -35.1018982
v  -41.264801 -90.0969009 -13.4076996
v  -41.264801 -90.0969009 13.4076996
v  -25.5030003 -90.0969009 35.1018982
v  0 -100 0

# 86 UV coordinates
vt 0.100000001 0.857140005 0
vt 0.0500000007 1 0
vt 0 0.857140005 0
vt 0.200000003 0.857140005 0
vt 0.150000006 1 0
vt 0.300000012 0.857140005 0
vt 0.25 1 0
vt 0.400000006 0.857140005 0
vt 0.349999994 1 0
vt 0.5 0.857140005 0
vt 0.449999988 1 0
vt 0.600000024 0.857140005 0
vt 0.550000012 1 0
vt 0.699999988 0.857140005 0
vt 0.649999976 1 0
vt 0.800000012 0.857140005 0
vt 0.75 1 0
vt 0.899999976 0.857140005 0
vt 0.850000024 1 0
vt 1 0.857140005 0
vt 0.949999988 1 0
vt 0.100000001 0.714290023 0
vt 0 0.714290023 0
vt 0.200000003 0.714290023 0
vt 0.300000012 0.714290023 0
vt 0.400000006 0.714290023 0
vt 0.5 0.714290023 0
vt 0.600000024 0.714290023 0
vt 0.699999988 0.714290023 0
vt 0.800000012 0.714290023 0
vt 0.899999976 0.714290023 0
vt 1 0.714290023 0
vt 0.100000001 0.571429968 0
vt 0 0.571429968 0
vt 0.200000003 0.571429968 0
vt 0.300000012 0.571429968 0
vt 0.400000006 0.571429968 0
vt 0.5 0.571429968 0
vt 0.600000024 0.571429968 0
vt 0.699999988 0.571429968 0
vt 0.800000012 0.571429968 0
vt 0.899999976 0.571429968 0
vt 1 0.571429968 0
vt 0.100000001 0.428569973 0
vt 0 0.428569973 0
vt 0.200000003 0.428569973 0
vt 0.300000012 0.428569973 0
vt 0.400000006 0.428569973 0
vt 0.5 0.428569973 0
vt 0.600000024 0.428569973 0
vt 0.699999988 0.428569973 0
vt 0.800000012 0.428569973 0
vt 0.899999976 0.428569973 0
vt 1 0.428569973 0
vt 0.100000001 0.285709977 0
vt 0 0.285709977 0
vt 0.200000003 0.285709977 0
vt 0.300000012 0.285709977 0
vt 0.400000006 0.285709977 0
vt 0.5 0.285709977 0
vt 0.600000024 0.285709977 0
vt 0.699999988 0.285709977 0
vt 0.800000012 0.285709977 0
vt 0.899999976 0.285709977 0
vt 1 0.285709977 0
vt 0.100000001 0.142859995 0
vt 0 0.142859995 0
vt 0.200000003 0.142859995 0
vt 0.300000012 0.142859995 0
vt 0.400000006 0.142859995 0
vt 0.5 0.142859995 0
vt 0.600000024 0.142859995 0
vt 0.699999988 0.142859995 0
vt 0.800000012 0.142859995 0
vt 0.899999976 0.142859995 0
vt 1 0.142859995 0
vt 0.0500000007 0 0
vt 0.150000006 0 0
vt 0.25 0 0
vt 0.349999994 0 0
vt 0.449999988 0 0
vt 0.550000012 0 0
vt 0.649999976 0 0
vt 0.75 0 0
vt 0.850000024 0 0
vt 0.949999988 0 0

# 62 vertex normals
vn 0.275386065 0.883456051 0.379035562
vn 9.86576723e-08 1 4.10799395e-08
vn -2.32833557e-07 0.883455813 0.468514442
vn 0.445583671 0.883455813 0.144779205
vn 0.445583642 0.883455873 -0.144778982
vn 0.275385767 0.883455992 -0.37903586
vn 3.84352887e-07 0.883455813 -0.468514442
vn -0.275386304 0.883455813 -0.37903583
vn -0.44558382 0.883455753 -0.144779265
vn -0.445583582 0.883455813 0.144779533
vn -0.275385231 0.883456051 0.379036099
vn 0.468965113 0.602855086 0.645474613
vn -1.24666769e-07 0.602854908 0.797850847
vn 0.758800745 0.602855563 0.246549398
vn 0.758800864 0.602855325 -0.246549577
vn 0.468965203 0.602855027 -0.645474613
vn 1.23682369e-07 0.602854908 -0.797850847
vn -0.468965113 0.602854908 -0.645474792
vn -0.758801162 0.602855146 -0.246549055
vn -0.75880152 0.602854669 0.246549159
vn -0.468964875 0.602855384 0.645474494
vn 0.574223936 0.213567406 0.790351689
vn 5.49269885e-07 0.21356754 0.976928294
vn 0.929113865 0.213567927 0.301887721
vn 0.929113805 0.213568062 -0.30188781
vn 0.574224055 0.213567555 -0.790351629
vn 2.57818389e-08 0.213567361 -0.976928353
vn -0.574223936 0.213567406 -0.790351689
vn -0.929114103 0.213567927 -0.301886976
vn -0.929114044 0.213567406 0.301887423
vn -0.574223936 0.213567972 0.79035157
vn 0.574224055 -0.21356754 0.79035157
vn 5.55427278e-07 -0.213568091 0.976928174
vn 0.929113805 -0.213568062 0.30188781
vn 0.929113865 -0.213567972 -0.301887721
vn 0.574223757 -0.213567585 -0.790351808
vn 1.78624106e-07 -0.213568062 -0.976928174
vn -0.574224055 -0.21356754 -0.79035157
vn -0.929114044 -0.213567868 -0.301887244
vn -0.929113984 -0.213567391 0.301887751
vn -0.574224055 -0.213568091 0.79035145
vn 0.468964785 -0.602855146 0.645474792
vn 1.28302659e-07 -0.602855384 0.79785049
vn 0.758800864 -0.602855384 0.246549562
vn 0.758800745 -0.602855504 -0.246549413
vn 0.468964607 -0.602854967 -0.64547509
vn 1.45761206e-07 -0.602855265 -0.797850609
vn -0.468964785 -0.602855146 -0.645474792
vn -0.758800864 -0.602855384 -0.246549562
vn -0.758801162 -0.602854908 0.24654977
vn -0.468964845 -0.602855444 0.645474494
vn 0.275385678 -0.883455932 0.379036099
vn 4.82088183e-07 -0.883455575 0.468514979
vn 0.445583612 -0.883455873 0.144778997
vn 0.445583701 -0.883455813 -0.14477922
vn 0.275386125 -0.883455992 -0.379035592
vn -4.84975942e-07 -0.883455575 -0.468514979
vn -0.275385678 -0.883455932 -0.379036099
vn -0.445583612 -0.883455873 -0.144778997
vn -0.445583701 -0.883455813 0.14477922
vn -0.275386125 -0.883455992 0.379035592
vn -8.67300953e-10 -1 -1.48419821e-09

# Mesh 'obj1' with 120 faces
g obj1
usemtl mat1
f  1/1/1 2/2/2 3/3/3
f  4/4/4 2/5/2 1/1/1
f  5/6/5 2/7/2 4/4/4
f  6/8/6 2/9/2 5/6/5
f  7/10/7 2/11/2 6/8/6
f  8/12/8 2/13/2 7/10/7
f  9/14/9 2/15/2 8/12/8
f  10/16/10 2/17/2 9/14/9
f  11/18/11 2/19/2 10/16/10
f  3/20/3 2/21/2 11/18/11
f  1/1/1 3/3/3 12/22/12
f  13/23/13 12/22/12 3/3/3
f  4/4/4 1/1/1 14/24/14
f  12/22/12 14/24/14 1/1/1
f  5/6/5 4/4/4 15/25/15
f  14/24/14 15/25/15 4/4/4
f  6/8/6 5/6/5 16/26/16
f  15/25/15 16/26/16 5/6/5
f  7/10/7 6/8/6 17/27/17
f  16/26/16 17/27/17 6/8/6
f  8/12/8 7/10/7 18/28/18
f  17/27/17 18/28/18 7/10/7
f  9/14/9 8/12/8 19/29/19
f  18/28/18 19/29/19 8/12/8
f  10/16/10 9/14/9 20/30/20
f  19/29/19 20/30/20 9/14/9
f  11/18/11 10/16/10 21/31/21
f  20/30/20 21/31/21 10/16/10
f  3/20/3 11/18/11 13/32/13
f  21/31/21 13/32/13 11/18/11
f  12/22/12 13/23/13 22/33/22
f  23/34/23 22/33/22 13/23/13
f  14/24/14 12/22/12 24/35/24
f  22/33/22 24/35/24 12/22/12
f  15/25/15 14/24/14 25/36/25
f  24/35/24 25/36/25 14/24/14
f  16/26/16 15/25/15 26/37/26
f  25/36/25 26/37/26 15/25/15
f  17/27/17 16/26/16 27/38/27
f  26/37/26 27/38/27 16/26/16
f  18/28/18 17/27/17 28/39/28
f  27/38/27 28/39/28 17/27/17
f  19/29/19 18/28/18 29/40/29
f  28/39/28 29/40/29 18/28/18
f  20/30/20 19/29/19 30/41/30
f  29/40/29 30/41/30 19/29/19
f  21/31/21 20/30/20 31/42/31
f  30/41/30 31/42/31 20/30/20
f  13/32/13 21/31/21 23/43/23
f  31/42/31 23/43/23 21/31/21
f  22/33/22 23/34/23 32/44/32
f  33/45/33 32/44/32 23/34/23
f  24/35/24 22/33/22 34/46/34
f  32/44/32 34/46/34 22/33/22
f  25/36/25 24/35/24 35/47/35
f  34/46/34 35/47/35 24/35/24
f  26/37/26 25/36/25 36/48/36
f  35/47/35 36/48/36 25/36/25
f  27/38/27 26/37/26 37/49/37
f  36/48/36 37/49/37 26/37/26
f  28/39/28 27/38/27 38/50/38
f  37/49/37 38/50/38 27/38/27
f  29/40/29 28/39/28 39/51/39
f  38/50/38 39/51/39 28/39/28
f  30/41/30 29/40/29 40/52/40
f  39/51/39 40/52/40 29/40/29
f  31/42/31 30/41/30 41/53/41
f  40/52/40 41/53/41 30/41/30
f  23/43/23 31/42/31 33/54/33
f  41/53/41 33/54/33 31/42/31
f  32/44/32 33/45/33 42/55/42
f  43/56/43 42/55/42 33/45/33
f  34/46/34 32/44/32 44/57/44
f  42/55/42 44/57/44 32/44/32
f  35/47/35 34/46/34 45/58/45
f  44/57/44 45/58/45 34/46/34
f  36/48/36 35/47/35 46/59/46
f  45/58/45 46/59/46 35/47/35
f  37/49/37 36/48/36 47/60/47
f  46/59/46 47/60/47 36/48/36
f  38/50/38 37/49/37 48/61/48
f  47/60/47 48/61/48 37/49/37
f  39/51/39 38/50/38 49/62/49
f  48/61/48 49/62/49 38/50/38
f  40/52/40 39/51/39 50/63/50
f  49/62/49 50/63/50 39/51/39
f  41/53/41 40/52/40 51/64/51
f  50/63/50 51/64/51 40/52/40
f  33/54/33 41/53/41 43/65/43
f  51/64/51 43/65/43 41/53/41
f  42/55/42 43/56/43 52/66/52
f  53/67/53 52/66/52 43/56/43
f  44/57/44 42/55/42 54/68/54
f  52/66/52 54/68/54 42/55/42
f  45/58/45 44/57/44 55/69/55
f  54/68/54 55/69/55 44/57/44
f  46/59/46 45/58/45 56/70/56
f  55/69/55 56/70/56 45/58/45
f  47/60/47 46/59/46 57/71/57
f  56/70/56 57/71/57 46/59/46
f  48/61/48 47/60/47 58/72/58
f  57/71/57 58/72/58 47/60/47
f  49/62/49 48/61/48 59/73/59
f  58/72/58 59/73/59 48/61/48
f  50/63/50 49/62/49 60/74/60
f  59/73/59 60/74/60 49/62/49
f  51/64/51 50/63/50 61/75/61
f  60/74/60 61/75/61 50/63/50
f  43/65/43 51/64/51 53/76/53
f  61/75/61 53/76/53 51/64/51
f  52/66/52 53/67/53 62/77/62
f  54/68/54 52/66/52 62/78/62
f  55/69/55 54/68/54 62/79/62
f  56/70/56 55/69/55 62/80/62
f  57/71/57 56/70/56 62/81/62
f  58/72/58 57/71/57 62/82/62
f  59/73/59 58/72/58 62/83/62
f  60/74/60 59/73/59 62/84/62
f  61/75/61 60/74/60 62/85/62
f  53/76/53 61/75/61 62/86/62

