# File produced by Open Asset Import Library (http://www.assimp.sf.net)
# (assimp v5.2.3369795085)

mtllib 01.X.mtl

# 58 vertex positions
v  -202.322525 0.471534491 -6.14919486e-07
v  -199.822525 2.97153449 -2.50000072
v  -199.822525 -2.02846551 -2.50000072
v  -199.822525 -2.02846551 2.49999928
v  -199.822525 2.97153449 2.49999928
v  -99.8225327 -2.02846551 -2.50000072
v  -99.8225327 -2.52846551 -2.50000072
v  -99.8225327 -2.02846551 2.49999928
v  -99.8225327 -2.52846551 2.49999928
v  -99.8225327 9.47153473 -3.00000072
v  0.177467659 9.47153473 -3.00000072
v  -99.8225327 -2.52846551 -3.00000072
v  0.177467659 -2.52846551 -3.00000072
v  0.177467659 -2.52846551 -2.50000072
v  -99.8225327 9.47153473 -2.50000072
v  0.177467659 9.47153473 -2.50000072
v  -99.8225327 9.47153473 2.49999928
v  0.177467659 9.47153473 2.49999928
v  0.177467659 -2.52846551 2.49999928
v  -99.8225327 -2.52846551 2.99999928
v  0.177467659 -2.52846551 2.99999928
v  -99.8225327 9.47153473 2.99999928
v  0.177467659 9.47153473 2.99999928
v  2.67746758 3.47153449 -3.00000072
v  2.67746758 3.47153449 2.99999928
v  -3.82253242 9.47153473 2.49999928
v  -3.82253242 9.47153473 -2.50000072
v  -3.82253242 8.97153473 -2.50000072
v  -3.82253242 8.97153473 2.49999928
v  -1.9941324 1.35023451 2.99999928
v  -6.9438324 6.29993439 2.99999928
v  -0.9334324 0.289534569 4.99999952
v  -8.00453281 7.3606348 4.99999952
v  -2.70123243 0.643134594 2.99999928
v  -1.64053226 -0.417565465 4.99999952
v  -7.65093231 5.59283447 2.99999928
v  -8.71163273 6.65353489 4.99999952
v  0.177467659 -2.02846551 -2.50000072
v  -101.955536 -2.02846551 -2.50000072
v  0.177467659 2.97153449 -2.50000072
v  -101.955536 2.97153449 -2.50000072
v  0.177467659 -2.02846551 2.49999928
v  -101.955536 -2.02846551 2.49999928
v  0.177467659 2.97153449 2.49999928
v  -101.955536 2.97153449 2.49999928
v  -187.20311 75.2179947 -6.14919486e-07
v  -183.998825 76.7121735 -2.50000072
v  -185.708923 72.01371 -2.50000072
v  -185.708923 72.01371 2.49999928
v  -183.998825 76.7121735 2.49999928
v  2.22958827 3.60969043 -2.50000072
v  -94.2066422 38.70961 -2.50000072
v  3.93968892 8.30815315 -2.50000072
v  -92.4965439 43.4080734 -2.50000072
v  2.22958827 3.60969043 2.49999928
v  -94.2066422 38.70961 2.49999928
v  3.93968892 8.30815315 2.49999928
v  -92.4965439 43.4080734 2.49999928

# 64 UV coordinates
vt 0.637269974 0.0188500285 0
vt 0.581870019 0.0329099894 0
vt 0.692669988 0.0329099894 0
vt 0.692170024 0.421209991 0
vt 0.703249991 0.421209991 0
vt 0.437319994 0.421209991 0
vt 0.437319994 0.983739972 0
vt 0.703249991 0.983739972 0
vt 0.229729995 0.993589997 0
vt 0.545430005 0.993589997 0
vt 0.229729995 0.243499994 0
vt 0.545430005 0.243499994 0
vt 0.570290029 0.997799993 0
vt 0.437319994 0.961239994 0
vt 0.448399991 0.961239994 0
vt 0.617299974 0.971520007 0
vt 0.507600009 0.943679988 0
vt 0.640799999 0.977490008 0
vt 0.484100014 0.937709987 0
vt 0.632969975 0.967540026 0
vt 0.656470001 0.973510027 0
vt 0.523270011 0.939700007 0
vt 0.499769986 0.933730006 0
vt 0.692170024 0.983739972 0
vt 0.692430019 0.57901001 0
vt 0.581369996 0.983739972 0
vt 0.581619978 0.57901001 0
vt 0.581619978 0.990540028 0
vt 0.692430019 0.990540028 0
vt 0.581870019 0.117330015 0
vt 0.692669988 0.117330015 0
vt 0.00371000008 0.998619974 0
vt 0.1109 0.998619974 0
vt 0.00371000008 0.121190012 0
vt 0.1109 0.121190012 0
vt 0.566569984 0.221449971 0
vt 0.588959992 0.986400008 0
vt 0.260650009 0.220979989 0
vt 0.283039987 0.985920012 0
vt 0.441590011 0.0800600052 0
vt 0.215880007 0.188369989 0
vt 0.60611999 0.181389987 0
vt 0.39982 0.968389988 0
vt 0.39745 0.206730008 0
vt 0.0143100005 0.968389988 0
vt 0.00951999985 0.190710008 0
vt 0.220430002 0.968999982 0
vt 0.608359993 0.968999982 0
vt 0.215880007 0.124180019 0
vt 0.60611999 0.117200017 0
vt 0.00753000006 0.999339998 0
vt 0.00753000006 0.186959982 0
vt 0.247329995 0.999339998 0
vt 0.247329995 0.186959982 0
vt 0.247329995 0.911390007 0
vt 0.00753000006 0.911390007 0
vt 0.247329995 0.128189981 0
vt 0.00753000006 0.128189981 0
vt 0.836189985 0.237349987 0
vt 0.836189985 0.946430027 0
vt 0.634090006 0.237349987 0
vt 0.634090006 0.946430027 0
vt 0.634090006 0.127309978 0
vt 0.836189985 0.127309978 0

# 47 vertex normals
vn -1 1.36937928e-09 1.36937928e-09
vn -0.391361326 0.650705874 -0.650705934
vn -0.391361326 -0.650705934 -0.650705874
vn -0.391361326 -0.650705874 0.650705934
vn -0.391361326 0.650705934 0.650705874
vn -1 0 0
vn 0 0 -1
vn 0 0 1
vn 0 1 0
vn 0 -1 0
vn 0.923076928 -0.384615391 0
vn 1 1.09001175e-09 0
vn 1 -1.84031768e-09 0
vn 0.923076928 0.384615391 0
vn 0.707106709 0.707106888 3.01082999e-08
vn 0.707106769 0.707106769 -1.47851068e-07
vn 0.707106769 0.707106829 -1.94094678e-08
vn 0.707106769 0.707106769 -1.68587391e-07
vn 0.565677762 -0.565677762 -0.600014448
vn 0.565677822 -0.565677762 -0.600014389
vn 0.565677822 -0.565677702 -0.600014448
vn -0.707106769 -0.707106769 -0
vn -0.565677524 0.565677941 -0.600014508
vn -0.565677583 0.565677941 -0.600014508
vn -0.565677702 0.565677822 -0.600014448
vn -0.565677762 0.565677762 -0.600014448
vn 0 -0.707106888 -0.707106709
vn 0 -0.707106709 -0.707106829
vn 0 0.707106709 -0.707106888
vn 0 0.707106829 -0.707106709
vn 0 -0.707106709 0.707106888
vn 0 -0.707106829 0.707106709
vn 0 0.707106888 0.707106709
vn 0 0.707106709 0.707106829
vn -0.939692616 0.342020124 1.36937928e-09
vn -0.145204842 0.745316923 -0.650705934
vn -0.590313852 -0.477610111 -0.650705874
vn -0.590313852 -0.477610052 0.650705934
vn -0.145204827 0.745316982 0.650705874
vn -0.241844758 -0.664463043 -0.707106769
vn -0.241844743 -0.664462984 -0.707106829
vn 0.241844743 0.664462984 -0.707106829
vn 0.241844758 0.664463043 -0.707106769
vn -0.241844743 -0.664462984 0.707106829
vn -0.241844758 -0.664463043 0.707106769
vn 0.241844758 0.664463043 0.707106769
vn 0.241844743 0.664462984 0.707106829

# Mesh '00000____R____' with 60 faces
g 00000____R____
usemtl mat000
f  1/1/1 2/2/2 3/3/3
f  1/1/1 3/3/3 4/3/4
f  1/1/1 4/3/4 5/2/5
f  1/1/1 5/2/5 2/2/2
f  6/4/6 7/5/6 8/4/6
f  9/5/6 8/4/6 7/5/6
f  10/6/7 11/7/7 12/5/7
f  13/8/7 12/5/7 11/7/7
f  7/5/8 14/8/8 15/6/8
f  16/7/8 15/6/8 14/8/8
f  15/6/9 16/7/9 10/6/9
f  11/7/9 10/6/9 16/7/9
f  15/6/6 10/6/6 7/5/6
f  12/5/6 7/5/6 10/6/6
f  17/6/7 18/7/7 9/5/7
f  19/8/7 9/5/7 18/7/7
f  20/5/8 21/8/8 22/6/8
f  23/7/8 22/6/8 21/8/8
f  22/6/9 23/7/9 17/6/9
f  18/7/9 17/6/9 23/7/9
f  22/6/6 17/6/6 20/5/6
f  9/5/6 20/5/6 17/6/6
f  20/9/10 12/10/10 21/11/10
f  13/12/10 21/11/10 12/10/10
f  13/8/7 11/7/7 24/13/7
f  21/8/11 13/8/11 25/13/12
f  24/13/13 25/13/12 13/8/11
f  23/7/8 21/8/8 25/13/8
f  11/7/14 23/7/14 24/13/13
f  25/13/12 24/13/13 23/7/14
f  26/14/9 18/7/9 27/14/9
f  16/7/9 27/14/9 18/7/9
f  27/14/6 28/15/6 26/14/6
f  29/15/6 26/14/6 28/15/6
f  30/16/15 31/17/16 32/18/17
f  33/19/18 32/18/17 31/17/16
f  34/20/19 30/16/20 35/21/21
f  32/18/21 35/21/21 30/16/20
f  36/22/22 34/20/22 37/23/22
f  35/21/22 37/23/22 34/20/22
f  31/17/23 36/22/24 33/19/25
f  37/23/26 33/19/25 36/22/24
f  33/19/8 37/23/8 32/18/8
f  35/21/8 32/18/8 37/23/8
f  38/24/27 39/25/28 40/26/29
f  41/27/30 40/26/29 39/25/28
f  41/28/30 39/29/28 2/30/2
f  3/31/3 2/30/2 39/29/28
f  42/24/31 43/25/32 38/24/27
f  39/25/28 38/24/27 43/25/32
f  39/32/28 43/33/32 3/34/3
f  4/35/4 3/34/3 43/33/32
f  44/26/33 45/27/34 42/24/31
f  43/25/32 42/24/31 45/27/34
f  43/29/32 45/28/34 4/31/4
f  5/30/5 4/31/4 45/28/34
f  40/36/29 41/37/30 44/38/33
f  45/39/34 44/38/33 41/37/30
f  45/33/34 41/32/30 5/35/5
f  2/34/2 5/35/5 41/32/30

# Mesh '' with 20 faces
usemtl mat000
f  46/40/35 47/41/36 48/42/37
f  46/40/35 48/42/37 49/42/38
f  46/40/35 49/42/38 50/41/39
f  46/40/35 50/41/39 47/41/36
f  51/43/40 52/44/41 53/45/42
f  54/46/43 53/45/42 52/44/41
f  54/47/43 52/48/41 47/49/36
f  48/50/37 47/49/36 52/48/41
f  55/51/44 56/52/45 51/53/40
f  52/54/41 51/53/40 56/52/45
f  52/55/41 56/56/45 48/57/37
f  49/58/38 48/57/37 56/56/45
f  57/45/46 58/46/47 55/43/44
f  56/44/45 55/43/44 58/46/47
f  56/48/45 58/47/47 49/50/38
f  50/49/39 49/50/38 58/47/47
f  53/59/42 54/60/43 57/61/46
f  58/62/47 57/61/46 54/60/43
f  58/62/47 54/60/43 50/63/39
f  47/64/36 50/63/39 54/60/43

