# File produced by Open Asset Import Library (http://www.assimp.sf.net)
# (assimp v5.2.3369795085)

mtllib 00.X.mtl

# 24 vertex positions
v  105.093201 -2.05679989 1.1875
v  105.093201 0 2.375
v  -0.00870000012 -2.05679989 1.1875
v  -0.00870000012 0 2.375
v  105.093201 -2.05679989 -1.1875
v  -0.00870000012 -2.05679989 -1.1875
v  105.093201 0 -2.375
v  -0.00870000012 0 -2.375
v  105.093201 2.05679989 -1.1875
v  -0.00870000012 2.05679989 -1.1875
v  105.093201 2.05679989 1.1875
v  -0.00870000012 2.05679989 1.1875
v  -0.00870000012 0 3.44370008
v  105.093201 0 3.44370008
v  -0.00870000012 -2.98239994 1.72189999
v  105.093201 -2.98239994 1.72189999
v  -0.00870000012 -2.98239994 -1.72189999
v  105.093201 -2.98239994 -1.72189999
v  -0.00870000012 0 -3.44370008
v  105.093201 0 -3.44370008
v  -0.00870000012 2.98239994 -1.72189999
v  105.093201 2.98239994 -1.72189999
v  -0.00870000012 2.98239994 1.72189999
v  105.093201 2.98239994 1.72189999

# 28 UV coordinates
vt 0.217950001 0.0166800022 0
vt 0.0766699985 0.0166800022 0
vt 0.217950001 0.0133299828 0
vt 0.0766699985 0.0133299828 0
vt 0.359230012 0.0166800022 0
vt 0.359230012 0.0133299828 0
vt 0.500509977 0.0166800022 0
vt 0.500509977 0.0133299828 0
vt 0.641789973 0.0166800022 0
vt 0.641789973 0.0133299828 0
vt 0.783070028 0.0166800022 0
vt 0.783070028 0.0133299828 0
vt 0.924350023 0.0166800022 0
vt 0.924350023 0.0133299828 0
vt 0.146669999 0.389050007 0
vt 0.146669999 0.396690011 0
vt 0.279329985 0.389050007 0
vt 0.279329985 0.396690011 0
vt 0.412 0.389050007 0
vt 0.412 0.396690011 0
vt 0.544659972 0.389050007 0
vt 0.544659972 0.396690011 0
vt 0.677320004 0.389050007 0
vt 0.677320004 0.396690011 0
vt 0.809989989 0.389050007 0
vt 0.809989989 0.396690011 0
vt 0.94265002 0.389050007 0
vt 0.94265002 0.396690011 0

# 18 vertex normals
vn 0 -0.500001907 0.866024315
vn 0 -1 0
vn 0 -0.500001907 -0.866024315
vn 0 0.500001907 -0.866024315
vn 0 1 0
vn 0 0.500001907 0.866024315
vn 0 0.499980539 -0.866036654
vn 0 0.499980569 -0.866036654
vn 0 0.499980479 -0.866036654
vn 0 0.499980539 0.866036654
vn 0 0.499980569 0.866036654
vn 0 0.499980479 0.866036654
vn 0 -0.499980539 0.866036654
vn 0 -0.499980569 0.866036654
vn 0 -0.499980479 0.866036654
vn 0 -0.499980539 -0.866036654
vn 0 -0.499980569 -0.866036654
vn 0 -0.499980479 -0.866036654

# Mesh 'obj1' with 24 faces
g obj1
usemtl mat1
f  1/1/1 2/2/1 3/3/1
f  4/4/1 3/3/1 2/2/1
f  5/5/2 1/1/2 6/6/2
f  3/3/2 6/6/2 1/1/2
f  7/7/3 5/5/3 8/8/3
f  6/6/3 8/8/3 5/5/3
f  9/9/4 7/7/4 10/10/4
f  8/8/4 10/10/4 7/7/4
f  11/11/5 9/9/5 12/12/5
f  10/10/5 12/12/5 9/9/5
f  2/13/6 11/11/6 4/14/6
f  12/12/6 4/14/6 11/11/6
f  13/15/7 14/16/8 15/17/9
f  16/18/7 15/17/9 14/16/8
f  15/17/5 16/18/5 17/19/5
f  18/20/5 17/19/5 16/18/5
f  17/19/10 18/20/11 19/21/12
f  20/22/10 19/21/12 18/20/11
f  19/21/13 20/22/14 21/23/15
f  22/24/13 21/23/15 20/22/14
f  21/23/2 22/24/2 23/25/2
f  24/26/2 23/25/2 22/24/2
f  23/25/16 24/26/17 13/27/18
f  14/28/16 13/27/18 24/26/17

