# File produced by Open Asset Import Library (http://www.assimp.sf.net)
# (assimp v5.2.3369795085)

mtllib 20.X.mtl

# 24 vertex positions
v  0 -22.1742992 -22.1742992
v  0 22.1742992 -22.1742992
v  0 -22.1742992 22.1742992
v  0 22.1742992 22.1742992
v  22.1742992 -22.1742992 0
v  22.1742992 22.1742992 0
v  -22.1742992 -22.1742992 0
v  -22.1742992 22.1742992 0
v  22.1742992 0 22.1742992
v  22.1742992 0 -22.1742992
v  -22.1742992 0 22.1742992
v  -22.1742992 0 -22.1742992
v  -17.9431 -25.8974991 -31.0580997
v  17.9431 25.3514996 -31.5053997
v  -17.9431 -25.3514996 31.5053997
v  17.9431 25.8974991 31.0580997
v  7.68230009 -43.5670013 0.380199999
v  43.5685997 7.68200016 -0.0670000017
v  -43.5685997 -7.68200016 0.0670000017
v  -7.68230009 43.5670013 -0.380199999
v  25.6254997 -17.6695004 31.4382992
v  25.6254997 -18.2154999 -31.1252003
v  -25.6254997 18.2154999 31.1252003
v  -25.6254997 17.6695004 -31.4382992

# 4 UV coordinates
vt 1 1 0
vt 0 1 0
vt 1 0 0
vt 0 0 0

# 7 vertex normals
vn 1 0 0
vn 0 0 1
vn 0 1 0
vn 0.819152832 -0.573553503 0.00500547374
vn -8.72291992e-07 0.00872630253 0.999961913
vn -8.72291935e-07 0.00872630253 0.999961913
vn 0.573576748 0.819120646 -0.00714856805

# Mesh 'obj1' with 6 faces
g obj1
usemtl mat1
f  1/1/1 2/2/1 3/3/1
f  4/4/1 3/3/1 2/2/1
f  5/1/2 6/2/2 7/3/2
f  8/4/2 7/3/2 6/2/2
f  9/1/3 10/2/3 11/3/3
f  12/4/3 11/3/3 10/2/3

# Mesh 'obj2' with 6 faces
g obj2
usemtl mat2
f  13/1/4 14/2/4 15/3/4
f  16/4/4 15/3/4 14/2/4
f  17/1/5 18/2/6 19/3/5
f  20/4/5 19/3/5 18/2/6
f  21/1/7 22/2/7 23/3/7
f  24/4/7 23/3/7 22/2/7

